<svg width="20" height="20" viewBox="0 0 20 20" fill="none" xmlns="http://www.w3.org/2000/svg">
<g clip-path="url(#clip0_666_49)">
<mask id="mask0_666_49" style="mask-type:luminance" maskUnits="userSpaceOnUse" x="0" y="0" width="20" height="20">
<path d="M0 0H20V20H0V0Z" fill="white"/>
</mask>
<g mask="url(#mask0_666_49)">
<path d="M16.1876 3.81251C15.3751 2.9999 14.4104 2.3553 13.3488 1.91551C12.2871 1.47573 11.1492 1.24937 10.0001 1.24937C8.85096 1.24937 7.71308 1.47573 6.65142 1.91551C5.58976 2.3553 4.62513 2.9999 3.8126 3.81251C3.6962 3.92961 3.63086 4.08801 3.63086 4.25313C3.63086 4.41825 3.6962 4.57665 3.8126 4.69376C3.92971 4.81016 4.08811 4.8755 4.25323 4.8755C4.41835 4.8755 4.57675 4.81016 4.69385 4.69376C5.74378 3.64747 7.0802 2.93575 8.53434 2.64847C9.98849 2.36119 11.4952 2.51123 12.8641 3.07965C14.233 3.64807 15.4028 4.60938 16.2258 5.84219C17.0487 7.07499 17.4879 8.524 17.4879 10.0063C17.4879 11.4885 17.0487 12.9375 16.2258 14.1703C15.4028 15.4031 14.233 16.3644 12.8641 16.9329C11.4952 17.5013 9.98849 17.6513 8.53434 17.364C7.0802 17.0768 5.74378 16.365 4.69385 15.3188C4.57675 15.2023 4.41835 15.137 4.25323 15.137C4.08811 15.137 3.92971 15.2023 3.8126 15.3188C3.6962 15.4359 3.63086 15.5943 3.63086 15.7594C3.63086 15.9245 3.6962 16.0829 3.8126 16.2C5.45529 17.841 7.68259 18.7623 10.0045 18.7611C11.1542 18.7605 12.2926 18.5335 13.3545 18.093C14.4165 17.6525 15.3813 17.0071 16.1939 16.1938C17.0064 15.3804 17.6508 14.4149 18.0902 13.3525C18.5297 12.2901 18.7556 11.1515 18.755 10.0018C18.7544 8.85213 18.5274 7.7138 18.0869 6.65183C17.6463 5.58986 17.001 4.62506 16.1876 3.81251Z" fill="#CFF85E"/>
<path d="M9.86875 12.6813C9.81017 12.7394 9.76367 12.8085 9.73194 12.8846C9.70021 12.9608 9.68388 13.0425 9.68388 13.125C9.68388 13.2075 9.70021 13.2892 9.73194 13.3654C9.76367 13.4415 9.81017 13.5107 9.86875 13.5688C9.92685 13.6273 9.99598 13.6738 10.0721 13.7056C10.1483 13.7373 10.23 13.7536 10.3125 13.7536C10.395 13.7536 10.4767 13.7373 10.5529 13.7056C10.629 13.6738 10.6981 13.6273 10.7562 13.5688L13.8812 10.4438C13.9398 10.3857 13.9863 10.3165 14.0181 10.2404C14.0498 10.1642 14.0661 10.0825 14.0661 10C14.0661 9.9175 14.0498 9.83581 14.0181 9.75965C13.9863 9.68349 13.9398 9.61436 13.8812 9.55626L10.7562 6.43126C10.6386 6.31357 10.4789 6.24745 10.3125 6.24745C10.1461 6.24745 9.98644 6.31357 9.86875 6.43126C9.75106 6.54895 9.68494 6.70857 9.68494 6.87501C9.68494 7.04145 9.75106 7.20107 9.86875 7.31876L11.9312 9.37501H3.125C2.95924 9.37501 2.80027 9.44086 2.68306 9.55807C2.56585 9.67528 2.5 9.83425 2.5 10C2.5 10.1658 2.56585 10.3247 2.68306 10.442C2.80027 10.5592 2.95924 10.625 3.125 10.625H11.9312L9.86875 12.6813Z" fill="#CFF85E"/>
</g>
</g>
<defs>
<clipPath id="clip0_666_49">
<rect width="20" height="20" fill="white"/>
</clipPath>
</defs>
</svg>
