<svg width="150" height="40" viewBox="0 0 150 40" fill="none" xmlns="http://www.w3.org/2000/svg">
<path d="M115.147 19.9006H111.745C109.555 19.9006 108.382 21.5407 108.382 24.2738V34.154H101.93V19.8996H99.1916C97.0015 19.8996 95.8292 21.5397 95.8292 24.2729V34.153H89.3758V14.6285H95.8292V17.5966C96.8856 15.2925 98.3324 14.6285 100.484 14.6285H108.383V17.5966C109.439 15.2925 110.886 14.6285 113.038 14.6285H115.148L115.147 19.9006ZM87.9676 25.9139H74.515C74.8668 28.101 76.2353 29.3507 78.5423 29.3507C80.2627 29.3507 81.4757 28.6471 81.8671 27.3984L87.5762 28.9989C86.169 32.396 82.6877 34.4662 78.5423 34.4662C71.542 34.4662 68.3352 29.0375 68.3352 24.3918C68.3352 19.8233 71.1506 14.356 78.1509 14.356C85.5813 14.356 88.0449 19.9006 88.0449 24.0013C88.0498 24.6397 88.024 25.278 87.9676 25.9139ZM81.7105 22.1264C81.554 20.4466 80.341 18.8858 78.1519 18.8858C76.1174 18.8858 74.9064 19.7827 74.515 22.1264H81.7105ZM57.0736 34.153H62.743L69.8216 14.6305H63.3307L59.889 25.9922L56.369 14.6295H49.9156L57.0736 34.153ZM30.6369 34.153H37.0506V19.9006H43.1531V34.154H49.5272V14.6295H37.0506V13.4195C37.0506 12.0916 37.9891 11.2721 39.4756 11.2721H43.1521V6H38.4202C33.7655 6 30.6369 8.85108 30.6369 13.0281V14.6295H27V19.9016H30.6369V34.153Z" fill="white"/>
<path d="M119.138 34.738C121.341 34.738 123.127 32.9543 123.127 30.7543C123.127 28.5543 121.341 26.7715 119.138 26.7715C116.935 26.7715 115.148 28.5553 115.148 30.7553C115.148 32.9553 116.935 34.738 119.138 34.738Z" fill="#BFF747"/>
</svg>
