<svg width="150" height="40" viewBox="0 0 150 40" fill="none" xmlns="http://www.w3.org/2000/svg">
<path d="M57.1344 26.0268C53.9832 26.0268 51.4288 23.4161 51.4288 20.1949C51.4288 16.9742 53.9832 14.3631 57.1348 14.3631C60.2861 14.3631 62.84 16.9742 62.84 20.1949C62.84 23.4161 60.2857 26.0268 57.1344 26.0268ZM62.8583 26.7664C62.8583 27.3006 63.7735 28.8008 64.8949 28.8008H65.6211C65.9028 28.8008 66.1329 28.5703 66.1329 28.289V12.3291H66.1303C66.1232 12.1987 66.0665 12.0759 65.9719 11.9859C65.8772 11.8959 65.7517 11.8455 65.6211 11.845H63.3708C63.0985 11.845 62.8763 12.0605 62.861 12.3291H62.8583V13.6261C61.4799 11.9279 59.3059 11.223 57.1258 11.223C52.1707 11.223 48.1543 15.2398 48.1543 20.1953C48.1543 25.1508 52.1707 29.1676 57.1258 29.1676C59.3059 29.1676 61.6817 28.3219 62.8583 26.7646V26.7672V26.7664ZM71.5098 24.4811C73.0118 25.5214 74.6517 26.0268 76.2273 26.0268C77.729 26.0268 79.2803 25.2483 79.2803 23.8938C79.2803 22.0859 75.8986 21.8042 73.7742 21.0821C71.6487 20.3601 69.8183 18.867 69.8183 16.4494C69.8183 12.7505 73.1145 11.2227 76.1911 11.2227C78.1403 11.2227 80.1511 11.8652 81.4551 12.7863C81.9045 13.1263 81.6307 13.5174 81.6307 13.5174L80.386 15.2947C80.2463 15.4949 79.9565 15.6548 79.6505 15.4512C78.8119 14.8969 77.878 14.3627 76.1907 14.3627C74.1022 14.3627 73.1836 15.2297 73.1836 16.3041C73.1836 17.5928 74.6528 17.9977 76.3737 18.437C79.3733 19.245 82.6456 20.2174 82.6456 23.8942C82.6456 27.1534 79.5967 29.1676 76.2273 29.1676C73.6741 29.1676 71.5 28.4396 69.6767 27.1019C69.2972 26.7216 69.5624 26.3686 69.5624 26.3686L70.8008 24.6002C71.0529 24.2693 71.3704 24.3851 71.5098 24.4811ZM99.5223 26.7668C99.5223 27.3006 100.437 28.8008 101.558 28.8008H102.285C102.566 28.8008 102.797 28.5703 102.797 28.289V12.3291H102.794C102.787 12.1987 102.73 12.0761 102.635 11.9861C102.541 11.8961 102.415 11.8456 102.285 11.845H100.034C99.7617 11.845 99.5398 12.0605 99.5249 12.3291H99.5223V13.6261C98.1435 11.9279 95.9694 11.223 93.7898 11.223C88.8346 11.223 84.8175 15.2398 84.8175 20.1949C84.8175 25.1501 88.8346 29.1672 93.7898 29.1672C95.9694 29.1672 98.3452 28.3215 99.5219 26.7642V26.7668H99.5223ZM93.7984 26.0272C90.6467 26.0272 88.0924 23.4161 88.0924 20.1949C88.0924 16.9742 90.6467 14.3631 93.7984 14.3631C96.9492 14.3631 99.504 16.9742 99.504 20.1949C99.504 23.4161 96.9492 26.0268 93.7984 26.0268V26.0272ZM122.959 27.3152L122.958 19.0571C122.958 14.4019 120.021 11.2611 115.338 11.2611C113.102 11.2611 111.273 12.554 110.626 13.6646V13.6489L110.622 13.6616C110.621 12.5379 109.709 11.8835 108.586 11.8835H107.863C107.581 11.8835 107.351 12.1143 107.351 12.396V28.3563H107.354C107.369 28.6252 107.591 28.8408 107.863 28.8408H110.114C110.148 28.8408 110.182 28.8366 110.214 28.8307C110.229 28.8273 110.243 28.8213 110.258 28.8172C110.275 28.8124 110.292 28.8083 110.308 28.8015C110.328 28.7933 110.346 28.7821 110.365 28.7717C110.374 28.7661 110.384 28.7623 110.393 28.7567C110.415 28.7415 110.436 28.7248 110.455 28.7067C110.459 28.7033 110.463 28.7011 110.466 28.6981C110.56 28.6084 110.616 28.4861 110.623 28.3563H110.626V18.929C110.626 16.4288 112.653 14.4016 115.153 14.4016C117.654 14.4016 119.681 16.4288 119.681 18.929L119.682 26.8094L119.683 26.8064C119.683 26.8135 119.685 26.821 119.685 26.8281V28.3563H119.688C119.703 28.6252 119.924 28.8408 120.197 28.8408H122.447C122.482 28.8408 122.515 28.8366 122.548 28.8307C122.561 28.8277 122.574 28.8221 122.586 28.8191C122.605 28.8135 122.624 28.8086 122.642 28.8015C122.66 28.7941 122.677 28.7832 122.694 28.7735C122.705 28.7679 122.716 28.7634 122.726 28.7567C122.747 28.7425 122.766 28.7265 122.785 28.71C122.79 28.7063 122.795 28.7026 122.8 28.6977C122.821 28.6775 122.839 28.6551 122.857 28.6319C122.916 28.5522 122.951 28.4569 122.956 28.3578L122.957 28.3563H122.959L122.959 27.3152ZM140.509 26.7668C140.509 27.3006 141.423 28.8008 142.544 28.8008H143.271C143.552 28.8008 143.783 28.5703 143.783 28.289V12.3291H143.78C143.773 12.1987 143.716 12.076 143.622 11.9861C143.527 11.8961 143.402 11.8456 143.271 11.845H141.021C140.89 11.8454 140.765 11.8957 140.67 11.9857C140.575 12.0758 140.519 12.1986 140.512 12.3291H140.509V13.6261C139.129 11.9279 136.956 11.223 134.775 11.223C129.821 11.223 125.804 15.2398 125.804 20.1949C125.804 25.1501 129.821 29.1672 134.775 29.1672C136.956 29.1672 139.331 28.3215 140.507 26.7642L140.509 26.7668ZM134.785 26.0272C131.633 26.0272 129.079 23.4161 129.079 20.1949C129.079 16.9742 131.633 14.3631 134.785 14.3631C137.935 14.3631 140.489 16.9742 140.489 20.1949C140.489 23.4161 137.935 26.0268 134.785 26.0268V26.0272Z" fill="white"/>
<path d="M31.5515 21.0481C27.7825 21.0481 24.7278 24.1029 24.7278 27.8712C24.7278 31.6399 27.7825 34.6953 31.5515 34.6953C35.3199 34.6953 38.3747 31.6399 38.3747 27.8712C38.3747 24.1029 35.3199 21.0481 31.5515 21.0481ZM13.8235 21.0484C10.0551 21.0487 7 24.1029 7 27.8715C7 31.6399 10.0551 34.695 13.8235 34.695C17.5921 34.695 20.6472 31.6399 20.6472 27.8715C20.6472 24.1029 17.5924 21.0484 13.8235 21.0484ZM29.5108 12.5188C29.5108 16.2871 26.456 19.3429 22.6877 19.3429C18.9187 19.3429 15.8639 16.2871 15.8639 12.5188C15.8639 8.75044 18.9187 5.69531 22.6877 5.69531C26.456 5.69531 29.5105 8.75044 29.5105 12.5188H29.5108Z" fill="url(#paint0_radial_873_91)"/>
<defs>
<radialGradient id="paint0_radial_873_91" cx="0" cy="0" r="1" gradientUnits="userSpaceOnUse" gradientTransform="translate(22.6874 1590.6) scale(2078.98 1921.63)">
<stop stop-color="#FFB900"/>
<stop offset="0.6" stop-color="#F95D8F"/>
<stop offset="0.9991" stop-color="#F95353"/>
</radialGradient>
</defs>
</svg>
