<svg width="150" height="40" viewBox="0 0 150 40" fill="none" xmlns="http://www.w3.org/2000/svg">
<path d="M90.3776 24.0508C89.6625 25.2289 88.1863 26.1045 86.5223 26.1045C84.2347 26.1045 82.3918 24.2571 82.3918 21.9741C82.3918 19.6912 84.2393 17.8437 86.5223 17.8437C88.1863 17.8437 89.6625 18.7651 90.3776 19.9662V24.0508ZM90.3776 13.6629V15.6249C89.5708 14.2634 87.5629 13.3145 85.4587 13.3145C81.1174 13.3145 77.7021 17.1469 77.7021 21.9512C77.7021 26.7555 81.1174 30.6338 85.4587 30.6338C87.5583 30.6338 89.5662 29.6894 90.3776 28.3233V30.2854H95.3194V13.6629H90.3776Z" fill="white"/>
<path fill-rule="evenodd" clip-rule="evenodd" d="M54.7529 28.5289L56.1832 25.2053C57.7281 26.3605 59.7864 26.961 61.8173 26.961C63.3163 26.961 64.2653 26.3834 64.2653 25.5078C64.2423 23.0598 55.2847 24.9761 55.2159 18.8377C55.193 15.7204 57.9619 13.3183 61.886 13.3183C64.2194 13.3183 66.5482 13.8959 68.2123 15.2116L66.8737 18.6039C65.3517 17.6321 63.4584 16.9399 61.6568 16.9399C60.4328 16.9399 59.626 17.5175 59.626 18.2555C59.6489 20.6577 68.6753 19.342 68.767 25.2053C68.767 28.3913 66.0669 30.633 62.1886 30.633C59.3464 30.6284 56.7379 29.9591 54.7529 28.5289ZM109.677 24.0042C108.962 25.2511 107.623 26.1038 106.074 26.1038C103.786 26.1038 101.943 24.2563 101.943 21.9734C101.943 19.6904 103.791 17.843 106.074 17.843C107.619 17.843 108.962 18.6956 109.677 19.9425L113.624 17.7513C112.148 15.1199 109.306 13.3183 106.074 13.3183C101.292 13.3183 97.414 17.1966 97.414 21.978C97.414 26.7593 101.292 30.6376 106.074 30.6376C109.328 30.6376 112.148 28.8589 113.624 26.2046L109.677 24.0042ZM70.752 6.13477H75.6938V30.3075H70.752V6.13477ZM115.563 6.13477V30.3075H120.505V23.0553L126.368 30.3075H132.694L125.236 21.6937L132.14 13.6575H126.089L120.5 20.3276V6.13477H115.563Z" fill="white"/>
<path fill-rule="evenodd" clip-rule="evenodd" d="M24.2094 24.027C24.2094 25.7141 22.8478 27.0756 21.1608 27.0756C19.4738 27.0756 18.1123 25.7095 18.1123 24.027C18.1123 22.3446 19.4738 20.9785 21.1608 20.9785H24.2094V24.027ZM25.7313 24.027C25.7313 22.34 27.0929 20.9785 28.7799 20.9785C30.4669 20.9785 31.8284 22.34 31.8284 24.027V31.6461C31.8284 33.3331 30.4669 34.6946 28.7799 34.6946C27.0929 34.6946 25.7313 33.3331 25.7313 31.6461V24.027Z" fill="#E01E5A"/>
<path fill-rule="evenodd" clip-rule="evenodd" d="M28.7794 11.7924C27.0923 11.7924 25.7308 10.4308 25.7308 8.74384C25.7308 7.05684 27.0923 5.69531 28.7794 5.69531C30.4664 5.69531 31.8279 7.05684 31.8279 8.74384V11.7924H28.7794ZM28.7794 13.3373C30.4664 13.3373 31.8279 14.6988 31.8279 16.3858C31.8279 18.0728 30.4664 19.4343 28.7794 19.4343H21.1374C19.4504 19.4343 18.0889 18.0682 18.0889 16.3858C18.0889 14.7034 19.4504 13.3373 21.1374 13.3373H28.7794Z" fill="#36C5F0"/>
<path fill-rule="evenodd" clip-rule="evenodd" d="M40.9911 16.3858C40.9911 14.6988 42.3526 13.3373 44.0396 13.3373C45.7266 13.3373 47.0882 14.6988 47.0882 16.3858C47.0882 18.0728 45.7266 19.4343 44.0396 19.4343H40.9911V16.3858ZM39.4691 16.3858C39.4691 18.0728 38.1076 19.4343 36.4206 19.4343C34.7336 19.4343 33.3721 18.0728 33.3721 16.3858V8.74384C33.3721 7.05684 34.7336 5.69531 36.4206 5.69531C38.1076 5.69531 39.4691 7.05684 39.4691 8.74384V16.3858Z" fill="#2EB67D"/>
<path fill-rule="evenodd" clip-rule="evenodd" d="M36.4206 28.5975C38.1076 28.5975 39.4691 29.9591 39.4691 31.6461C39.4691 33.3331 38.1076 34.6946 36.4206 34.6946C34.7336 34.6946 33.3721 33.3331 33.3721 31.6461V28.5975H36.4206ZM36.4206 27.0756C34.7336 27.0756 33.3721 25.7141 33.3721 24.027C33.3721 22.34 34.7336 20.9785 36.4206 20.9785H44.0626C45.7496 20.9785 47.1111 22.34 47.1111 24.027C47.1111 25.7141 45.7496 27.0756 44.0626 27.0756H36.4206Z" fill="#ECB22E"/>
</svg>
