<svg width="150" height="40" viewBox="0 0 150 40" fill="none" xmlns="http://www.w3.org/2000/svg">
<path fill-rule="evenodd" clip-rule="evenodd" d="M43.073 10H27.7766C27.1446 10 26.5385 10.2508 26.0913 10.6974C25.6441 11.144 25.3925 11.7498 25.3916 12.3817V27.6556C25.3904 27.9696 25.4511 28.2808 25.5704 28.5713C25.6897 28.8617 25.8651 29.1258 26.0867 29.3483C26.3083 29.5708 26.5717 29.7473 26.8617 29.8677C27.1516 29.9882 27.4626 30.0502 27.7766 30.0502H43.073C43.3867 30.0498 43.6973 29.9875 43.9869 29.8668C44.2765 29.7462 44.5395 29.5696 44.7607 29.3471C44.982 29.1247 45.1571 28.8608 45.2762 28.5705C45.3953 28.2803 45.456 27.9694 45.4547 27.6556V12.3817C45.4538 11.7503 45.2026 11.145 44.7562 10.6985C44.3097 10.2521 43.7044 10.0009 43.073 10ZM34.0443 24.4414C34.0438 24.5464 34.0227 24.6502 33.982 24.747C33.9414 24.8437 33.882 24.9315 33.8074 25.0053C33.7327 25.079 33.6442 25.1373 33.547 25.1768C33.4497 25.2163 33.3457 25.2362 33.2407 25.2353H29.8979C29.6879 25.2345 29.4868 25.1505 29.3386 25.0017C29.1904 24.8529 29.1072 24.6514 29.1072 24.4414V14.4935C29.1072 14.2835 29.1904 14.082 29.3386 13.9332C29.4868 13.7844 29.6879 13.7004 29.8979 13.6995H33.2407C33.451 13.7004 33.6524 13.7843 33.8012 13.933C33.9499 14.0817 34.0338 14.2832 34.0346 14.4935L34.0443 24.4414ZM41.7583 19.874C41.7584 19.9791 41.7375 20.0831 41.697 20.1801C41.6565 20.277 41.5972 20.365 41.5224 20.4388C41.4477 20.5127 41.359 20.571 41.2616 20.6103C41.1641 20.6496 41.0599 20.6692 40.9548 20.6679H37.612C37.4017 20.6671 37.2003 20.5832 37.0516 20.4345C36.9029 20.2858 36.819 20.0843 36.8181 19.874V14.4935C36.819 14.2832 36.9029 14.0817 37.0516 13.933C37.2003 13.7843 37.4017 13.7004 37.612 13.6995H40.9548C41.1648 13.7004 41.3659 13.7844 41.5141 13.9332C41.6623 14.082 41.7455 14.2835 41.7455 14.4935L41.7583 19.874Z" fill="url(#paint0_linear_873_109)"/>
<path d="M66.964 11.4689V15.3452H62.3709V30.0502H57.9417V15.3452H53.3486V11.4689H66.964ZM72.6017 30.0502H68.5068V15.5863H72.6017V18.3569C73.3796 16.4059 74.6234 15.2456 76.838 15.387V19.6715C73.9453 19.4465 72.6017 20.1537 72.6017 22.4711V30.0502ZM99.2089 30.1627C96.525 30.1627 94.8376 28.877 94.8376 25.8364V10H98.9614V25.2707C98.9614 26.1482 99.54 26.4599 100.247 26.4599C100.451 26.4641 100.655 26.4544 100.858 26.431V29.9956C100.318 30.1269 99.7636 30.1832 99.2089 30.1627ZM107.81 30.1627C105.126 30.1627 103.436 28.877 103.436 25.8364V10H107.559V25.2707C107.559 26.1482 108.141 26.4599 108.861 26.4599C109.064 26.4641 109.267 26.4545 109.469 26.431V29.9956C108.926 30.1282 108.368 30.1845 107.81 30.1627ZM111.445 22.8118C111.445 18.3441 114.017 15.2874 118.446 15.2874C122.875 15.2874 125.392 18.3344 125.392 22.8118C125.392 27.2892 122.846 30.3909 118.446 30.3909C114.046 30.3909 111.445 27.2506 111.445 22.8118ZM115.46 22.8118C115.46 24.9878 116.373 26.7139 118.446 26.7139C120.519 26.7139 121.38 24.9878 121.38 22.8118C121.38 20.6358 120.497 18.9548 118.446 18.9548C116.395 18.9548 115.46 20.6326 115.46 22.8118ZM82.3665 24.12C83.513 24.246 84.6653 24.3135 85.8185 24.3225C88.9556 24.3225 91.6041 23.4804 91.6041 20.4429C91.6041 17.4955 88.8817 15.2809 85.6064 15.2809C81.1965 15.2809 78.3712 18.4791 78.3712 22.9468C78.3712 27.5849 80.8076 30.3395 86.3135 30.3395C87.9469 30.3528 89.5686 30.0629 91.0962 29.4845V26.0196C89.682 26.4728 88.091 26.9228 86.4581 26.9228C84.2661 26.9228 82.7393 26.2028 82.3665 24.12ZM85.5228 18.4373C86.6831 18.4373 87.6153 19.2248 87.6153 20.3015C87.6153 21.6868 86.1528 22.1208 84.4686 22.1208C83.7518 22.1175 83.0362 22.0605 82.3279 21.9504C82.3814 21.275 82.5752 20.6182 82.8968 20.0219C83.1549 19.5493 83.5342 19.154 83.9957 18.8766C84.4573 18.5992 84.9844 18.4498 85.5228 18.4437V18.4373Z" fill="white"/>
<defs>
<linearGradient id="paint0_linear_873_109" x1="3149.48" y1="1281.99" x2="3149.48" y2="10" gradientUnits="userSpaceOnUse">
<stop stop-color="#0052CC"/>
<stop offset="1" stop-color="#2684FF"/>
</linearGradient>
</defs>
</svg>
