<svg width="170" height="40" viewBox="0 0 170 40" fill="none" xmlns="http://www.w3.org/2000/svg">
<g clip-path="url(#clip0_493_129)">
<path d="M51.2773 28.609H63.2293V25.0968H55.5253V11.8675H51.2773V28.609Z" fill="white"/>
<path d="M70.3098 26.2629C68.6058 26.2629 67.7178 24.8112 67.7178 22.6336C67.7178 20.4561 68.6058 18.981 70.3098 18.981C72.0138 18.981 72.9258 20.4561 72.9258 22.6336C72.9258 24.8112 72.0138 26.2629 70.3098 26.2629ZM70.3338 28.979C74.2938 28.979 76.8858 26.2395 76.8858 22.6336C76.8858 19.0278 74.2938 16.2883 70.3338 16.2883C66.3978 16.2883 63.7578 19.0278 63.7578 22.6336C63.7578 26.2395 66.3978 28.979 70.3338 28.979Z" fill="white"/>
<path d="M83.7406 32.7487C85.5646 32.7487 87.1726 32.3506 88.2526 31.414C89.2366 30.5477 89.8846 29.2365 89.8846 27.4336V16.616H86.1406V17.9038H86.0926C85.3726 16.897 84.2686 16.2648 82.6366 16.2648C79.5886 16.2648 77.4766 18.7467 77.4766 22.2589C77.4766 25.935 80.0446 27.9487 82.8046 27.9487C84.2926 27.9487 85.2286 27.3633 85.9486 26.5672H86.0446V27.7614C86.0446 29.2131 85.3486 30.056 83.6926 30.056C82.3966 30.056 81.7486 29.5175 81.5326 28.8853H77.7406C78.1246 31.3906 80.3566 32.7487 83.7406 32.7487ZM83.7166 25.1155C82.2526 25.1155 81.2926 23.9448 81.2926 22.1418C81.2926 20.3155 82.2526 19.1448 83.7166 19.1448C85.3486 19.1448 86.2126 20.5028 86.2126 22.1184C86.2126 23.8043 85.4206 25.1155 83.7166 25.1155Z" fill="white"/>
<path d="M97.5832 26.2629C95.8792 26.2629 94.9912 24.8112 94.9912 22.6336C94.9912 20.4561 95.8792 18.981 97.5832 18.981C99.2872 18.981 100.199 20.4561 100.199 22.6336C100.199 24.8112 99.2872 26.2629 97.5832 26.2629ZM97.6072 28.979C101.567 28.979 104.159 26.2395 104.159 22.6336C104.159 19.0278 101.567 16.2883 97.6072 16.2883C93.6712 16.2883 91.0312 19.0278 91.0312 22.6336C91.0312 26.2395 93.6712 28.979 97.6072 28.979Z" fill="white"/>
<path d="M105.301 28.609H109.213V16.6207H105.301V28.609ZM105.301 14.9582H109.213V11.8675H105.301V14.9582Z" fill="white"/>
<path d="M110.91 32.5614H114.822V27.3633H114.87C115.638 28.3701 116.766 28.9789 118.35 28.9789C121.566 28.9789 123.702 26.497 123.702 22.6101C123.702 19.0043 121.71 16.2648 118.446 16.2648C116.766 16.2648 115.566 16.9906 114.726 18.0677H114.654V16.616H110.91V32.5614ZM117.342 26.0287C115.662 26.0287 114.702 24.694 114.702 22.7506C114.702 20.8072 115.566 19.3321 117.27 19.3321C118.95 19.3321 119.742 20.6901 119.742 22.7506C119.742 24.7877 118.83 26.0287 117.342 26.0287Z" fill="white"/>
<path d="M130.072 28.9789C133.288 28.9789 135.664 27.6209 135.664 24.9984C135.664 21.9311 133.12 21.3926 130.96 21.0414C129.4 20.7604 128.008 20.6433 128.008 19.8004C128.008 19.0511 128.752 18.6999 129.712 18.6999C130.792 18.6999 131.536 19.0277 131.68 20.1048H135.28C135.088 17.7399 133.216 16.2648 129.736 16.2648C126.832 16.2648 124.432 17.576 124.432 20.1048C124.432 22.9145 126.712 23.4765 128.848 23.8277C130.48 24.1087 131.968 24.2257 131.968 25.3028C131.968 26.0755 131.224 26.497 130.048 26.497C128.752 26.497 127.936 25.9116 127.792 24.7175H124.096C124.216 27.3633 126.472 28.9789 130.072 28.9789Z" fill="white"/>
<path d="M140.978 28.9564C142.682 28.9564 143.762 28.3008 144.65 27.1301H144.722V28.6052H148.466V16.6169H144.554V23.3135C144.554 24.7418 143.738 25.7252 142.394 25.7252C141.146 25.7252 140.546 24.9993 140.546 23.6881V16.6169H136.658V24.4842C136.658 27.1535 138.146 28.9564 140.978 28.9564Z" fill="white"/>
<path d="M150.168 28.6043H154.08V21.8843C154.08 20.456 154.8 19.4492 156.024 19.4492C157.2 19.4492 157.752 20.1984 157.752 21.4862V28.6043H161.664V21.8843C161.664 20.456 162.36 19.4492 163.608 19.4492C164.784 19.4492 165.336 20.1984 165.336 21.4862V28.6043H169.248V20.8072C169.248 18.1145 167.856 16.2648 165.072 16.2648C163.488 16.2648 162.168 16.9204 161.208 18.3721H161.16C160.536 17.0843 159.312 16.2648 157.704 16.2648C155.928 16.2648 154.752 17.0843 153.984 18.3253H153.912V16.616H150.168V28.6043Z" fill="white"/>
<path fill-rule="evenodd" clip-rule="evenodd" d="M20.1015 39.3373C31.1473 39.3373 40.1015 30.6014 40.1015 19.8251C40.1015 9.04889 31.1473 0.312988 20.1015 0.312988C9.05585 0.312988 0.101562 9.04889 0.101562 19.8251C0.101562 30.6014 9.05585 39.3373 20.1015 39.3373ZM23.1885 15.3887C24.8933 13.7253 24.8933 11.0287 23.1885 9.36534C21.4836 7.70204 18.7195 7.70204 17.0146 9.36534C15.3098 11.0287 15.3098 13.7253 17.0146 15.3887L20.1015 18.4003L23.1885 15.3887ZM24.649 22.8369C26.3539 24.5002 29.118 24.5002 30.8229 22.8369C32.5277 21.1735 32.5277 18.4768 30.8229 16.8135C29.118 15.1503 26.3539 15.1503 24.649 16.8135L21.5621 19.8252L24.649 22.8369ZM23.1885 30.285C24.8933 28.6217 24.8933 25.925 23.1885 24.2617L20.1015 21.2501L17.0146 24.2617C15.3098 25.925 15.3098 28.6217 17.0146 30.285C18.7195 31.9484 21.4836 31.9484 23.1885 30.285ZM9.38019 22.8369C7.67535 21.1735 7.67535 18.4768 9.38019 16.8135C11.0851 15.1503 13.8492 15.1503 15.5541 16.8135L18.641 19.8252L15.5541 22.8369C13.8492 24.5002 11.0851 24.5002 9.38019 22.8369Z" fill="#CFF85E"/>
</g>
<defs>
<clipPath id="clip0_493_129">
<rect width="170" height="40" fill="white"/>
</clipPath>
</defs>
</svg>
