<svg width="170" height="40" viewBox="0 0 170 40" fill="none" xmlns="http://www.w3.org/2000/svg">
<g clip-path="url(#clip0_493_116)">
<path d="M51.8594 27.4529H63.8114V23.9408H56.1074V10.7115H51.8594V27.4529Z" fill="white"/>
<path d="M70.8938 25.1068C69.1898 25.1068 68.3018 23.6551 68.3018 21.4776C68.3018 19.3 69.1898 17.8249 70.8938 17.8249C72.5978 17.8249 73.5098 19.3 73.5098 21.4776C73.5098 23.6551 72.5978 25.1068 70.8938 25.1068ZM70.9178 27.8229C74.8778 27.8229 77.4698 25.0834 77.4698 21.4776C77.4698 17.8717 74.8778 15.1322 70.9178 15.1322C66.9818 15.1322 64.3418 17.8717 64.3418 21.4776C64.3418 25.0834 66.9818 27.8229 70.9178 27.8229Z" fill="white"/>
<path d="M84.3226 31.5926C86.1466 31.5926 87.7546 31.1946 88.8346 30.258C89.8186 29.3916 90.4666 28.0804 90.4666 26.2775V15.4599H86.7226V16.7477H86.6746C85.9546 15.7409 84.8506 15.1087 83.2186 15.1087C80.1706 15.1087 78.0586 17.5907 78.0586 21.1029C78.0586 24.7789 80.6266 26.7926 83.3866 26.7926C84.8746 26.7926 85.8106 26.2072 86.5306 25.4111H86.6266V26.6053C86.6266 28.057 85.9306 28.8999 84.2746 28.8999C82.9786 28.8999 82.3306 28.3614 82.1146 27.7292H78.3226C78.7066 30.2346 80.9386 31.5926 84.3226 31.5926ZM84.2986 23.9594C82.8346 23.9594 81.8746 22.7887 81.8746 20.9858C81.8746 19.1594 82.8346 17.9887 84.2986 17.9887C85.9306 17.9887 86.7946 19.3468 86.7946 20.9624C86.7946 22.6482 86.0026 23.9594 84.2986 23.9594Z" fill="white"/>
<path d="M98.1653 25.1068C96.4613 25.1068 95.5733 23.6551 95.5733 21.4776C95.5733 19.3 96.4613 17.8249 98.1653 17.8249C99.8693 17.8249 100.781 19.3 100.781 21.4776C100.781 23.6551 99.8693 25.1068 98.1653 25.1068ZM98.1893 27.8229C102.149 27.8229 104.741 25.0834 104.741 21.4776C104.741 17.8717 102.149 15.1322 98.1893 15.1322C94.2533 15.1322 91.6133 17.8717 91.6133 21.4776C91.6133 25.0834 94.2533 27.8229 98.1893 27.8229Z" fill="white"/>
<path d="M105.883 27.4529H109.795V15.4647H105.883V27.4529ZM105.883 13.8022H109.795V10.7115H105.883V13.8022Z" fill="white"/>
<path d="M111.494 31.4053H115.406V26.2072H115.454C116.222 27.2141 117.35 27.8228 118.934 27.8228C122.15 27.8228 124.286 25.3409 124.286 21.4541C124.286 17.8482 122.294 15.1087 119.03 15.1087C117.35 15.1087 116.15 15.8346 115.31 16.9116H115.238V15.4599H111.494V31.4053ZM117.926 24.8726C116.246 24.8726 115.286 23.538 115.286 21.5946C115.286 19.6511 116.15 18.176 117.854 18.176C119.534 18.176 120.326 19.5341 120.326 21.5946C120.326 23.6316 119.414 24.8726 117.926 24.8726Z" fill="white"/>
<path d="M130.656 27.8268C133.872 27.8268 136.248 26.4688 136.248 23.8463C136.248 20.779 133.704 20.2405 131.544 19.8893C129.984 19.6083 128.592 19.4912 128.592 18.6483C128.592 17.899 129.336 17.5478 130.296 17.5478C131.376 17.5478 132.12 17.8756 132.264 18.9527H135.864C135.672 16.5878 133.8 15.1127 130.32 15.1127C127.416 15.1127 125.016 16.4239 125.016 18.9527C125.016 21.7624 127.296 22.3244 129.432 22.6756C131.064 22.9566 132.552 23.0736 132.552 24.1507C132.552 24.9234 131.808 25.3449 130.632 25.3449C129.336 25.3449 128.52 24.7595 128.376 23.5654H124.68C124.8 26.2112 127.056 27.8268 130.656 27.8268Z" fill="white"/>
<path d="M141.562 27.8044C143.266 27.8044 144.346 27.1487 145.234 25.978H145.306V27.4531H149.05V15.4648H145.138V22.1614C145.138 23.5897 144.322 24.5731 142.978 24.5731C141.73 24.5731 141.13 23.8473 141.13 22.5361V15.4648H137.242V23.3322C137.242 26.0014 138.73 27.8044 141.562 27.8044Z" fill="white"/>
<path d="M150.75 27.4482H154.662V20.7282C154.662 19.2999 155.382 18.2931 156.606 18.2931C157.782 18.2931 158.334 19.0424 158.334 20.3302V27.4482H162.246V20.7282C162.246 19.2999 162.942 18.2931 164.19 18.2931C165.366 18.2931 165.918 19.0424 165.918 20.3302V27.4482H169.83V19.6511C169.83 16.9585 168.438 15.1087 165.654 15.1087C164.07 15.1087 162.75 15.7643 161.79 17.216H161.742C161.118 15.9282 159.894 15.1087 158.286 15.1087C156.51 15.1087 155.334 15.9282 154.566 17.1692H154.494V15.4599H150.75V27.4482Z" fill="white"/>
<path fill-rule="evenodd" clip-rule="evenodd" d="M20.6836 39.157C31.7293 39.157 40.6836 30.4211 40.6836 19.6448C40.6836 8.86854 31.7293 0.132629 20.6836 0.132629C9.63788 0.132629 0.683594 8.86854 0.683594 19.6448C0.683594 30.4211 9.63788 39.157 20.6836 39.157ZM26.9229 9.22223C27.2266 8.16975 26.1797 7.54739 25.2236 8.21195L11.8767 17.4883C10.8398 18.209 11.0029 19.6448 12.1217 19.6448H15.6363V19.6183H22.4861L16.9048 21.5395L14.4443 30.0674C14.1406 31.1199 15.1874 31.7423 16.1436 31.0777L29.4905 21.8014C30.5274 21.0807 30.3642 19.6448 29.2455 19.6448H23.9157L26.9229 9.22223Z" fill="#CFF85E"/>
</g>
<defs>
<clipPath id="clip0_493_116">
<rect width="170" height="40" fill="white"/>
</clipPath>
</defs>
</svg>
