<svg width="170" height="40" viewBox="0 0 170 40" fill="none" xmlns="http://www.w3.org/2000/svg">
<g clip-path="url(#clip0_493_154)">
<path d="M49.8633 28.2454H61.9576V24.7332H54.1619V11.5039H49.8633V28.2454Z" fill="white"/>
<path d="M69.1241 25.9049C67.3999 25.9049 66.5013 24.4532 66.5013 22.2757C66.5013 20.0981 67.3999 18.623 69.1241 18.623C70.8484 18.623 71.7713 20.0981 71.7713 22.2757C71.7713 24.4532 70.8484 25.9049 69.1241 25.9049ZM69.1484 28.621C73.1556 28.621 75.7784 25.8815 75.7784 22.2757C75.7784 18.6698 73.1556 15.9303 69.1484 15.9303C65.1656 15.9303 62.4941 18.6698 62.4941 22.2757C62.4941 25.8815 65.1656 28.621 69.1484 28.621Z" fill="white"/>
<path d="M82.7136 32.3907C84.5593 32.3907 86.1864 31.9927 87.2793 31.0561C88.275 30.1897 88.9307 28.8785 88.9307 27.0756V16.258H85.1421V17.5458H85.0936C84.365 16.539 83.2479 15.9068 81.5964 15.9068C78.5121 15.9068 76.375 18.3888 76.375 21.9009C76.375 25.577 78.9736 27.5907 81.7664 27.5907C83.2721 27.5907 84.2193 27.0053 84.9479 26.2092H85.045V27.4034C85.045 28.8551 84.3407 29.698 82.665 29.698C81.3536 29.698 80.6979 29.1595 80.4793 28.5273H76.6421C77.0307 31.0327 79.2893 32.3907 82.7136 32.3907ZM82.6893 24.7575C81.2079 24.7575 80.2364 23.5868 80.2364 21.7839C80.2364 19.9575 81.2079 18.7868 82.6893 18.7868C84.3407 18.7868 85.215 20.1448 85.215 21.7605C85.215 23.4463 84.4136 24.7575 82.6893 24.7575Z" fill="white"/>
<path d="M96.7218 25.9049C94.9975 25.9049 94.0989 24.4532 94.0989 22.2757C94.0989 20.0981 94.9975 18.623 96.7218 18.623C98.4461 18.623 99.3689 20.0981 99.3689 22.2757C99.3689 24.4532 98.4461 25.9049 96.7218 25.9049ZM96.7461 28.621C100.753 28.621 103.376 25.8815 103.376 22.2757C103.376 18.6698 100.753 15.9303 96.7461 15.9303C92.7632 15.9303 90.0918 18.6698 90.0918 22.2757C90.0918 25.8815 92.7632 28.621 96.7461 28.621Z" fill="white"/>
<path d="M104.531 28.2454H108.49V16.2571H104.531V28.2454ZM104.531 14.5946H108.49V11.5039H104.531V14.5946Z" fill="white"/>
<path d="M110.207 32.2034H114.166V27.0053H114.214C114.991 28.0122 116.133 28.6209 117.736 28.6209C120.99 28.6209 123.151 26.139 123.151 22.2522C123.151 18.6463 121.136 15.9068 117.833 15.9068C116.133 15.9068 114.918 16.6327 114.068 17.7097H113.996V16.258H110.207V32.2034ZM116.716 25.6707C115.016 25.6707 114.044 24.3361 114.044 22.3927C114.044 20.4492 114.918 18.9741 116.643 18.9741C118.343 18.9741 119.144 20.3322 119.144 22.3927C119.144 24.4297 118.221 25.6707 116.716 25.6707Z" fill="white"/>
<path d="M129.596 28.6209C132.85 28.6209 135.255 27.2629 135.255 24.6405C135.255 21.5731 132.68 21.0346 130.495 20.6834C128.916 20.4024 127.507 20.2853 127.507 19.4424C127.507 18.6931 128.26 18.3419 129.232 18.3419C130.325 18.3419 131.077 18.6697 131.223 19.7468H134.866C134.672 17.3819 132.777 15.9068 129.256 15.9068C126.317 15.9068 123.889 17.218 123.889 19.7468C123.889 22.5566 126.196 23.1185 128.357 23.4697C130.009 23.7507 131.515 23.8678 131.515 24.9448C131.515 25.7175 130.762 26.139 129.572 26.139C128.26 26.139 127.435 25.5536 127.289 24.3595H123.549C123.67 27.0053 125.953 28.6209 129.596 28.6209Z" fill="white"/>
<path d="M140.633 28.5965C142.357 28.5965 143.45 27.9409 144.349 26.7701H144.422V28.2453H148.21V16.257H144.252V22.9535C144.252 24.3818 143.426 25.3653 142.066 25.3653C140.803 25.3653 140.196 24.6394 140.196 23.3282V16.257H136.262V24.1243C136.262 26.7935 137.767 28.5965 140.633 28.5965Z" fill="white"/>
<path d="M149.932 28.2463H153.89V21.5263C153.89 20.098 154.619 19.0912 155.857 19.0912C157.047 19.0912 157.606 19.8405 157.606 21.1283V28.2463H161.564V21.5263C161.564 20.098 162.269 19.0912 163.532 19.0912C164.722 19.0912 165.28 19.8405 165.28 21.1283V28.2463H169.239V20.4492C169.239 17.7566 167.83 15.9068 165.013 15.9068C163.41 15.9068 162.074 16.5624 161.103 18.0141H161.055C160.423 16.7263 159.184 15.9068 157.557 15.9068C155.76 15.9068 154.57 16.7263 153.793 17.9673H153.72V16.258H149.932V28.2463Z" fill="white"/>
<path d="M25.7115 1.92989L21.7317 0.901733L18.3779 12.9696L15.3499 2.07465L11.37 3.10281L14.6415 14.874L6.49301 7.01781L3.57954 9.82678L12.5174 18.4441L1.38672 15.5686L0.320312 19.4057L12.482 22.5476C12.3428 21.9685 12.2691 21.3652 12.2691 20.7453C12.2691 16.3574 15.9585 12.8003 20.5096 12.8003C25.0608 12.8003 28.7502 16.3574 28.7502 20.7453C28.7502 21.3612 28.6774 21.9608 28.5399 22.5364L39.5927 25.3918L40.659 21.5547L28.449 18.4003L39.5804 15.5246L38.514 11.6876L26.3044 14.8417L34.4529 6.98556L31.5394 4.17659L22.7255 12.6744L25.7115 1.92989Z" fill="#CFF85E"/>
<path d="M28.5305 22.579C28.1893 23.9698 27.4689 25.2193 26.4805 26.2203L34.4877 33.9404L37.4011 31.1315L28.5305 22.579Z" fill="#CFF85E"/>
<path d="M26.399 26.3053C25.3986 27.2904 24.1345 28.0255 22.7168 28.4043L25.6305 38.8882L29.6103 37.86L26.399 26.3053Z" fill="#CFF85E"/>
<path d="M22.5684 28.4384C21.9106 28.6015 21.2212 28.6881 20.5108 28.6881C19.7496 28.6881 19.0125 28.5886 18.3128 28.4023L15.3965 38.8958L19.3763 39.9239L22.5684 28.4384Z" fill="#CFF85E"/>
<path d="M18.1719 28.3649C16.7759 27.9673 15.5342 27.2228 14.5543 26.2349L6.52734 33.9739L9.44081 36.7829L18.1719 28.3649Z" fill="#CFF85E"/>
<path d="M14.4859 26.1675C13.5227 25.1733 12.8212 23.9405 12.4873 22.5712L1.39844 25.4359L2.46483 29.2729L14.4859 26.1675Z" fill="#CFF85E"/>
</g>
<defs>
<clipPath id="clip0_493_154">
<rect width="170" height="40" fill="white"/>
</clipPath>
</defs>
</svg>
