<svg width="150" height="40" viewBox="0 0 150 40" fill="none" xmlns="http://www.w3.org/2000/svg">
<g clip-path="url(#clip0_875_148)">
<path d="M52.5601 24.3161C50.9829 24.3161 49.505 23.6483 48.1623 22.5613L48.4893 21.0268L48.5035 20.9699C48.7946 19.336 49.7183 16.5935 52.5601 16.5935C54.6913 16.5935 56.4249 18.3271 56.4249 20.4583C56.4177 22.5825 54.6843 24.3161 52.5601 24.3161ZM52.5601 12.6791C48.9296 12.6791 46.1164 15.0378 44.9727 18.9168C43.2249 16.2952 41.9034 13.148 41.1292 10.498H37.2217V20.6643C37.2217 22.6678 35.5877 24.3017 33.5842 24.3017C31.5808 24.3017 29.9469 22.6678 29.9469 20.6643V10.498H26.0391V20.6643C26.0249 24.8276 29.4137 28.2447 33.5768 28.2447C37.7401 28.2447 41.129 24.8276 41.129 20.6643V18.9594C41.889 20.5436 42.8197 22.142 43.9494 23.563L41.5551 34.8162H45.555L47.2883 26.6533C48.8087 27.6266 50.5564 28.2377 52.5599 28.2377C56.8437 28.2377 60.3321 24.7281 60.3321 20.4441C60.3321 16.1673 56.8439 12.6791 52.5601 12.6791Z" fill="#6FDA44"/>
<path d="M72.2609 13.1195L74.783 23.2858L77.5609 13.1195H80.8715L76.6018 27.8113H73.2911L70.6697 17.581L68.0552 27.8041H64.7446L60.4746 13.1125H63.7853L66.5631 23.2788L69.0851 13.1125H72.2607V13.1197L72.2609 13.1195ZM88.7928 12.679C84.4948 12.679 81.0136 16.1672 81.0136 20.4582C81.0136 24.7565 84.5018 28.2376 88.7928 28.2376C93.0911 28.2376 96.5792 24.7565 96.5792 20.4582C96.5792 16.1602 93.0911 12.679 88.7928 12.679ZM88.7928 25.0406C86.2638 25.0406 84.2176 22.9945 84.2176 20.4654C84.2176 17.9362 86.2708 15.8902 88.7928 15.8902C91.3221 15.8902 93.368 17.9362 93.368 20.4654C93.368 22.9875 91.3221 25.0406 88.7928 25.0406ZM106.035 16.4088C103.812 16.4088 102.014 18.2133 102.014 20.4298V27.8041H98.682V13.1195H102.014V15.3787C102.014 15.3787 103.435 13.1123 106.355 13.1123H107.378V16.4088H106.035ZM117.218 19.89C119.583 18.5543 121.189 16.018 121.189 13.1123H117.857C117.857 15.5633 115.868 17.5525 113.417 17.5525H112.969V6.0293H109.637V27.8039H112.969V20.8845H113.367C113.694 20.8845 114.12 21.0977 114.312 21.3604L119.043 27.8041H123.036L117.218 19.89Z" fill="white"/>
</g>
<defs>
<clipPath id="clip0_875_148">
<rect width="97.0549" height="29" fill="white" transform="translate(26 6)"/>
</clipPath>
</defs>
</svg>
