<svg width="30" height="30" viewBox="0 0 30 30" fill="none" xmlns="http://www.w3.org/2000/svg">
<g clip-path="url(#clip0_493_324)">
<path d="M3.21512 12.8569H5.35798C5.64214 12.8569 5.91466 12.9698 6.11559 13.1707C6.31653 13.3717 6.42941 13.6442 6.42941 13.9284V19.2855C6.42941 19.5697 6.31653 19.8422 6.11559 20.0431C5.91466 20.2441 5.64214 20.3569 5.35798 20.3569H3.21512C2.6468 20.3569 2.10176 20.1312 1.69989 19.7293C1.29803 19.3274 1.07227 18.7824 1.07227 18.2141V14.9998C1.07227 14.4315 1.29803 13.8864 1.69989 13.4846C2.10176 13.0827 2.6468 12.8569 3.21512 12.8569V12.8569Z" stroke="white" stroke-width="2" stroke-linecap="round" stroke-linejoin="round"/>
<path d="M26.7868 20.3569H24.644C24.3598 20.3569 24.0873 20.2441 23.8864 20.0431C23.6854 19.8422 23.5725 19.5697 23.5725 19.2855V13.9284C23.5725 13.6442 23.6854 13.3717 23.8864 13.1707C24.0873 12.9698 24.3598 12.8569 24.644 12.8569H26.7868C27.3552 12.8569 27.9002 13.0827 28.3021 13.4846C28.7039 13.8864 28.9297 14.4315 28.9297 14.9998V18.2141C28.9297 18.7824 28.7039 19.3274 28.3021 19.7293C27.9002 20.1312 27.3552 20.3569 26.7868 20.3569V20.3569Z" stroke="white" stroke-width="2" stroke-linecap="round" stroke-linejoin="round"/>
<path d="M20.3594 26.2498C21.496 26.2498 22.5861 25.7983 23.3898 24.9945C24.1936 24.1908 24.6451 23.1007 24.6451 21.9641V20.3569" stroke="white" stroke-width="2" stroke-linecap="round" stroke-linejoin="round"/>
<path d="M17.678 23.5713C18.3884 23.5713 19.0697 23.8535 19.572 24.3558C20.0744 24.8582 20.3566 25.5395 20.3566 26.2499C20.3566 26.9603 20.0744 27.6416 19.572 28.1439C19.0697 28.6462 18.3884 28.9284 17.678 28.9284H14.4637C13.7533 28.9284 13.072 28.6462 12.5697 28.1439C12.0674 27.6416 11.7852 26.9603 11.7852 26.2499C11.7852 25.5395 12.0674 24.8582 12.5697 24.3558C13.072 23.8535 13.7533 23.5713 14.4637 23.5713H17.678Z" stroke="white" stroke-width="2" stroke-linecap="round" stroke-linejoin="round"/>
<path d="M5.35938 12.857V10.7141C5.35938 8.1567 6.37532 5.704 8.1837 3.89562C9.99209 2.08723 12.4448 1.07129 15.0022 1.07129C17.5597 1.07129 20.0124 2.08723 21.8208 3.89562C23.6291 5.704 24.6451 8.1567 24.6451 10.7141V12.857" stroke="white" stroke-width="2" stroke-linecap="round" stroke-linejoin="round"/>
<path d="M11.7852 8.57129V11.7856" stroke="white" stroke-width="2" stroke-linecap="round" stroke-linejoin="round"/>
<path d="M18.2148 8.57129V11.7856" stroke="white" stroke-width="2" stroke-linecap="round" stroke-linejoin="round"/>
<path d="M11.7852 16.0713C11.7852 18.9213 18.2137 18.9213 18.2137 16.0713" stroke="white" stroke-width="2" stroke-linecap="round" stroke-linejoin="round"/>
</g>
<defs>
<clipPath id="clip0_493_324">
<rect width="30" height="30" fill="white"/>
</clipPath>
</defs>
</svg>
