<svg width="24" height="24" viewBox="0 0 24 24" fill="none" xmlns="http://www.w3.org/2000/svg">
<path d="M17.7184 3.04834C16.681 2.1989 15.4679 1.59028 14.1668 1.26639C12.8657 0.942497 11.509 0.911398 10.1944 1.17534C8.5041 1.52188 6.94907 2.34699 5.71451 3.55238C4.47995 4.75778 3.61791 6.29265 3.23106 7.97415C2.84422 9.65566 2.94889 11.4129 3.5326 13.0366C4.11631 14.6603 5.15446 16.082 6.52337 17.1323C8.0863 18.2763 9.41702 19.7074 10.4444 21.3493L11.1444 22.5133C11.2333 22.6612 11.3589 22.7835 11.5091 22.8685C11.6593 22.9534 11.8288 22.998 12.0014 22.998C12.1739 22.998 12.3435 22.9534 12.4937 22.8685C12.6438 22.7835 12.7695 22.6612 12.8584 22.5133L13.5294 21.3953C14.424 19.8227 15.6438 18.459 17.1074 17.3953C18.255 16.6058 19.2034 15.5603 19.8778 14.3415C20.5522 13.1226 20.9342 11.7637 20.9935 10.372C21.0528 8.98028 20.788 7.5938 20.2198 6.32197C19.6516 5.05013 18.7956 3.92774 17.7194 3.04334L17.7184 3.04834ZM12.0004 13.9993C11.2092 13.9993 10.4359 13.7647 9.77809 13.3252C9.1203 12.8857 8.6076 12.261 8.30485 11.5301C8.0021 10.7992 7.92289 9.9949 8.07723 9.21898C8.23157 8.44305 8.61254 7.73032 9.17195 7.17091C9.73136 6.6115 10.4441 6.23054 11.22 6.07619C11.9959 5.92185 12.8002 6.00107 13.5311 6.30382C14.262 6.60657 14.8867 7.11926 15.3263 7.77705C15.7658 8.43485 16.0004 9.20821 16.0004 9.99934C16.0004 11.0602 15.5789 12.0776 14.8288 12.8278C14.0787 13.5779 13.0612 13.9993 12.0004 13.9993Z" fill="#CFF85E"/>
</svg>
