<svg width="50" height="50" viewBox="0 0 50 50" fill="none" xmlns="http://www.w3.org/2000/svg">
<g clip-path="url(#clip0_1185_62)">
<path d="M49.9996 4.965C50.0026 4.28596 49.7324 3.63424 49.2496 3.15668L46.843 0.750032C46.3676 0.269509 45.7197 -0.000574952 45.0438 9.19016e-07H45.0355C44.3637 0.000412255 43.7203 0.27066 43.2496 0.750032L32.3331 11.6666H10.8333V2.50002C10.8333 1.11925 9.71396 9.19016e-07 8.33326 9.19016e-07H6.66661C2.98647 0.00411428 0.00411336 2.98647 0 6.66661V43.5422C0.208548 47.1943 3.25046 50.0376 6.90831 49.9996H47.4996C48.8803 49.9996 49.9996 48.8803 49.9996 47.4997V14.1666C49.9996 12.7859 48.8803 11.6666 47.4996 11.6666H44.333L49.2496 6.74995C49.728 6.27905 49.9981 5.6363 49.9996 4.965ZM29.8165 20.8332C29.6401 20.8572 29.4628 20.7952 29.3398 20.6665C29.2157 20.5433 29.1545 20.3704 29.1731 20.1965L29.489 17.3633C29.5022 17.304 29.5189 17.2455 29.539 17.1883L32.8214 20.4707C32.7673 20.4824 32.7181 20.5091 32.6614 20.5157L29.8165 20.8332ZM34.1822 19.4723L30.5356 15.8249L39.6189 6.74164L43.2638 10.3858L34.1822 19.4723ZM40.7939 5.56242L42.0297 4.32742L45.673 7.97154L44.438 9.20735L40.7939 5.56242ZM1.66665 6.66661C1.66945 3.90638 3.90638 1.66937 6.66661 1.66665H8.33326C8.79347 1.66665 9.16663 2.03974 9.16663 2.49994V35.833C9.16663 36.2932 8.79355 36.6663 8.33326 36.6663H6.66661C4.75217 36.6657 2.93028 37.4898 1.66665 38.9279V6.66661ZM47.4996 13.3332C47.9598 13.3332 48.333 13.7063 48.333 14.1666V47.4997C48.333 47.9599 47.9599 48.333 47.4996 48.333H6.90831C4.15729 48.3793 1.85266 46.2614 1.66665 43.5164V43.333C1.66945 40.5727 3.90638 38.3358 6.66661 38.333H8.33326C9.71396 38.333 10.8332 37.2138 10.8332 35.8331V13.3332H30.6664L28.7739 15.2257C28.2456 15.7463 27.9132 16.4333 27.8331 17.1707L27.5173 20.0098C27.4913 20.2867 27.5176 20.5659 27.5947 20.8331H13.3332C12.873 20.8331 12.4999 21.2062 12.4999 21.6665C12.4999 22.1267 12.8729 22.4998 13.3332 22.4998H15.8332V44.9996C15.8332 45.4598 16.2063 45.833 16.6666 45.833C17.1269 45.833 17.5 45.4599 17.5 44.9996V33.3331H26.6665V39.9997H20.8332C20.373 39.9997 19.9999 40.3728 19.9999 40.833C19.9999 41.2932 20.373 41.6663 20.8332 41.6663H37.4997C38.4202 41.6663 39.1664 40.9202 39.1664 39.9997V27.4998C39.1664 27.0396 38.7933 26.6664 38.3331 26.6664C37.8729 26.6664 37.4997 27.0395 37.4997 27.4998V31.6664H17.4999V22.4999H29.7565C29.8378 22.5 29.919 22.4956 29.9998 22.4865L32.8473 22.1624C33.57 22.0804 34.2446 21.7592 34.7639 21.2499L42.6706 13.3333L47.4996 13.3332ZM37.4997 33.3331V39.9997H28.3331V33.3331H37.4997ZM48.0746 5.56826L46.8513 6.7924L43.208 3.14911L44.4321 1.92497C44.5923 1.7606 44.8118 1.66748 45.0413 1.66665C45.275 1.66723 45.4986 1.76151 45.6621 1.92835L48.0721 4.33335C48.2397 4.49838 48.3338 4.72395 48.333 4.95915C48.3323 5.18868 48.2391 5.40825 48.0746 5.56826Z" fill="white"/>
</g>
<defs>
<clipPath id="clip0_1185_62">
<rect width="50" height="50" fill="white"/>
</clipPath>
</defs>
</svg>
