<svg width="50" height="50" viewBox="0 0 50 50" fill="none" xmlns="http://www.w3.org/2000/svg">
<path d="M22.0438 9.12285C22.0438 8.69141 22.3936 8.3416 22.825 8.3416H35.0434C35.4748 8.3416 35.8246 8.69141 35.8246 9.12285C35.8246 9.5543 35.4748 9.9041 35.0434 9.9041H22.825C22.3936 9.9041 22.0438 9.55439 22.0438 9.12285ZM15.603 10.789C15.7556 10.9415 15.9555 11.0178 16.1555 11.0178C16.3555 11.0178 16.5554 10.9415 16.7079 10.789L19.1028 8.39414C19.4079 8.08906 19.4078 7.59443 19.1028 7.28936C18.7977 6.98428 18.303 6.98428 17.998 7.28936L16.1556 9.13184L15.5106 8.48682C15.2055 8.18174 14.7109 8.18174 14.4058 8.48682C14.1006 8.79189 14.1007 9.28652 14.4058 9.5916L15.603 10.789ZM22.825 18.2368H35.0434C35.4748 18.2368 35.8246 17.887 35.8246 17.4556C35.8246 17.0241 35.4748 16.6743 35.0434 16.6743H22.825C22.3936 16.6743 22.0438 17.0241 22.0438 17.4556C22.0438 17.887 22.3936 18.2368 22.825 18.2368ZM15.603 19.2054C15.7556 19.3579 15.9555 19.4342 16.1555 19.4342C16.3555 19.4342 16.5554 19.3579 16.7079 19.2054L19.1028 16.8105C19.4079 16.5055 19.4078 16.0108 19.1028 15.7058C18.7977 15.4007 18.303 15.4007 17.998 15.7058L16.1556 17.5482L15.5106 16.9032C15.2055 16.5981 14.7109 16.5981 14.4058 16.9032C14.1006 17.2083 14.1007 17.7029 14.4058 18.008L15.603 19.2054ZM46.5896 33.0645L43.1348 35.059C42.777 35.2656 42.3792 35.3711 41.9755 35.3711C41.7721 35.3711 41.5673 35.3444 41.3653 35.2902C40.7623 35.1287 40.2591 34.7433 39.9485 34.2053L39.8539 34.0416L38.1063 34.934C38.6288 35.7625 38.5532 36.7842 38.0941 37.5736C37.8632 37.9704 37.5333 38.3123 37.1381 38.5484C37.3673 38.9236 37.4891 39.3538 37.4874 39.8119C37.4839 40.7614 36.9492 41.6797 36.1252 42.1514C35.6674 42.4134 35.1611 42.515 34.6541 42.4564C34.6281 42.8824 34.497 43.301 34.2826 43.669C33.8293 44.4474 32.9947 45.0104 32.0349 44.9857C32.0246 45.4458 31.8904 45.9012 31.6592 46.2979C31.2164 47.058 30.4109 47.6155 29.4784 47.6155C29.0537 47.6155 28.6027 47.4998 28.1477 47.2349L26.0844 46.0334L25.683 46.6041C25.1802 47.3189 24.4434 47.716 23.6358 47.716C23.5617 47.716 23.4871 47.7127 23.412 47.706C22.4858 47.6229 21.6328 47.0347 21.2229 46.2011C20.3527 46.6508 19.3405 46.4871 18.593 45.9613C18.1103 45.6218 17.7322 45.1274 17.5598 44.5583C16.8421 44.7152 16.0904 44.5257 15.5022 44.1119C14.7695 43.5966 14.2783 42.7245 14.3806 41.7759C13.9199 41.7275 13.4745 41.5542 13.0966 41.2884C12.0493 40.5516 11.4955 39.0855 12.4636 37.7094L12.53 37.6149L9.94006 34.3807C9.62697 34.8268 9.17131 35.147 8.63625 35.2903C8.4343 35.3445 8.22931 35.3712 8.02599 35.3712C7.62228 35.3712 7.22453 35.2657 6.86662 35.0591L3.41193 33.0645C2.29806 32.4215 1.91506 30.9921 2.55812 29.8781L8.62141 19.3762C8.80773 19.0535 9.06027 18.7926 9.35178 18.5997V3.07031C9.35178 2.63887 9.70158 2.28906 10.133 2.28906H39.8684C40.2998 2.28906 40.6496 2.63887 40.6496 3.07031V18.5997C40.9411 18.7925 41.1938 19.0534 41.38 19.3761L47.4433 29.878C48.0863 30.9921 47.7033 32.4214 46.5896 33.0645ZM10.9143 3.85156V18.2262C11.2204 18.2618 11.5243 18.3587 11.8077 18.5224L15.2625 20.517C15.8006 20.8276 16.186 21.3308 16.3475 21.9338C16.4482 22.3097 16.4541 22.6954 16.3692 23.063L20.7006 24.6103C22.5276 22.9772 23.8752 22.3971 26.6552 23.009C29.2613 23.5827 31.4474 23.588 33.6224 23.0156C33.5485 22.6623 33.5573 22.2936 33.6538 21.9337C33.8153 21.3307 34.2007 20.8274 34.7389 20.5169L38.1936 18.5223C38.477 18.3586 38.7809 18.2618 39.087 18.2262V3.85156H10.9143ZM8.69982 33.424L14.7631 22.9221C14.8651 22.7454 14.8918 22.5381 14.8383 22.3383C14.7848 22.1385 14.6579 21.9722 14.4813 21.8702L11.0266 19.8756C10.9057 19.8058 10.7734 19.7726 10.6428 19.7726C10.3764 19.7726 10.1171 19.9107 9.97463 20.1574L3.91135 30.6594C3.69904 31.0271 3.82551 31.499 4.19318 31.7112L7.64797 33.706C7.82472 33.808 8.03215 33.8348 8.23185 33.7811C8.43166 33.7275 8.59787 33.6008 8.69982 33.424ZM15.4011 39.7762L17.1966 37.2235L17.1969 37.223C17.7425 36.4447 17.0794 35.9198 16.9409 35.8225C16.8024 35.725 16.0835 35.2787 15.5358 36.0574L13.7415 38.6081C13.1936 39.3871 13.857 39.9128 13.9956 40.0103C14.1341 40.1078 14.8526 40.5543 15.4006 39.7768L15.4011 39.7762ZM17.9592 42.3825L20.4674 38.8167L20.8487 38.2745C21.3967 37.4955 20.7331 36.9698 20.5945 36.8724C20.4559 36.7748 19.7368 36.328 19.1888 37.1069L18.4752 38.1215C18.4751 38.1217 18.475 38.1218 18.4749 38.122L18.4746 38.1225L16.6791 40.6751L16.147 41.4316C15.599 42.2107 16.2626 42.7364 16.4012 42.8339C16.5398 42.9312 17.2589 43.3779 17.8069 42.5992L17.9592 42.3825ZM21.4654 43.6411C21.4659 43.6403 21.4665 43.6395 21.4671 43.6388L22.3668 42.3596L23.4046 40.8842C23.9524 40.1054 23.2891 39.5797 23.1506 39.4821C23.0122 39.3849 22.2941 38.9382 21.7462 39.7146L21.7454 39.7158L19.2373 43.2815L19.2368 43.2823C18.6903 44.0607 19.3533 44.586 19.4919 44.6835C19.6305 44.781 20.3496 45.2278 20.8975 44.4488L21.4654 43.6411ZM25.0502 43.024C24.9116 42.9265 24.193 42.4799 23.6452 43.258L23.6448 43.2586L22.7451 44.5378C22.5164 44.863 22.4727 45.1838 22.6153 45.4913C22.7789 45.8442 23.164 46.1151 23.5515 46.1498C23.889 46.1801 24.1762 46.0305 24.405 45.7053L25.3046 44.4263C25.8524 43.6473 25.1888 43.1215 25.0502 43.024ZM36.3889 35.408L26.728 29.8159C25.8596 29.3144 25.0011 29.6758 23.6722 30.3065C23.6076 30.3371 23.5432 30.3678 23.4785 30.3982C23.3816 30.593 23.2837 30.802 23.1819 31.0196C22.6801 32.0917 22.1113 33.3066 21.1276 33.8377C19.9696 34.4626 18.9363 34.558 18.218 34.1061C17.8873 33.8979 17.3406 33.3808 17.3941 32.254L17.6009 27.8995C17.6103 27.7011 17.695 27.5137 17.8378 27.3754C18.2442 26.9819 18.6087 26.6227 18.9613 26.2753C19.1226 26.1165 19.2778 25.9637 19.4292 25.8152L15.6718 24.4729L10.7855 32.9364L13.466 36.2839L14.2577 35.1583C15.2254 33.7823 16.792 33.8079 17.8394 34.5438C18.1803 34.7834 18.469 35.1002 18.6699 35.466C19.5802 34.8821 20.6898 35.0288 21.4935 35.5941C22.1679 36.0685 22.6377 36.8453 22.6284 37.7057C23.1375 37.7312 23.6345 37.9117 24.0499 38.2041C24.9767 38.8563 25.5168 40.0795 24.9576 41.3062C25.313 41.385 25.652 41.5366 25.9492 41.7458C26.8413 42.3734 27.3746 43.5298 26.9155 44.7092L28.9339 45.8845C29.757 46.3636 30.2238 45.6577 30.3091 45.5113C30.3944 45.365 30.7778 44.6113 29.9568 44.1317L29.9557 44.1311C29.9556 44.131 29.9556 44.131 29.9554 44.1309C29.9554 44.1309 29.9554 44.1309 29.9553 44.1309L27.3545 42.6166C26.9817 42.3995 26.8554 41.9213 27.0725 41.5484C27.2896 41.1756 27.7678 41.0494 28.1407 41.2664L30.7415 42.7808C30.7416 42.7809 30.7418 42.7809 30.7419 42.781L30.7422 42.7812C30.7428 42.7814 30.7434 42.7818 30.744 42.7821L31.5572 43.2559C32.3802 43.7349 32.8471 43.029 32.9324 42.8827C33.0177 42.7363 33.401 41.9826 32.58 41.503L32.5788 41.5023C32.5787 41.5023 32.5787 41.5022 32.5786 41.5022C32.5784 41.5021 32.5782 41.502 32.578 41.5019L29.3898 39.6454C29.0169 39.4283 28.8906 38.9501 29.1077 38.5772C29.3249 38.2044 29.8031 38.0782 30.176 38.2952L33.3652 40.1521L33.3653 40.1522C33.366 40.1526 33.3665 40.1529 33.3671 40.1533L34.3878 40.7477C34.7316 40.9479 35.0549 40.9638 35.349 40.7954C35.6867 40.6021 35.9236 40.1953 35.9249 39.8062C35.9262 39.4673 35.7526 39.1939 35.4089 38.9938L34.5845 38.5138C34.5843 38.5137 34.584 38.5136 34.5838 38.5134L34.5831 38.513C34.583 38.5129 34.5828 38.5128 34.5827 38.5127L31.4251 36.6742C31.0523 36.4571 30.926 35.9789 31.1431 35.6061C31.3603 35.2332 31.8384 35.107 32.2113 35.324L35.369 37.1625C36.1921 37.6406 36.6583 36.9346 36.7435 36.7882C36.8284 36.6417 37.2115 35.8871 36.3889 35.408ZM39.0716 32.6866L34.3142 24.4464C31.033 25.3727 28.2023 24.9495 26.3194 24.535C23.5687 23.9298 22.8947 24.5938 20.058 27.3886C19.7814 27.6611 19.4744 27.9635 19.147 28.2822L18.9548 32.3284C18.9422 32.5937 18.9936 32.7482 19.0501 32.7838C19.1822 32.8668 19.6618 32.8535 20.3854 32.4629C20.9151 32.177 21.3675 31.2104 21.7667 30.3574C21.9115 30.0479 22.0614 29.7279 22.2157 29.4372C22.2959 29.2863 22.4234 29.1659 22.5785 29.0942C22.7199 29.029 22.8612 28.962 23.0021 28.895C24.3539 28.2532 25.8862 27.5258 27.5101 28.4632L36.8054 33.8437L39.0716 32.6866ZM46.0901 30.6593L40.0269 20.1574C39.8146 19.7896 39.3426 19.6633 38.9749 19.8756L35.5201 21.8702C35.3435 21.9722 35.2167 22.1385 35.1631 22.3383C35.1096 22.5381 35.1362 22.7454 35.2383 22.9221L41.3016 33.4241C41.4035 33.6008 41.5698 33.7275 41.7696 33.7811C41.9696 33.835 42.1768 33.808 42.3534 33.706L45.8083 31.7113C46.176 31.499 46.3025 31.027 46.0901 30.6593Z" fill="white"/>
</svg>
