<svg width="26" height="26" viewBox="0 0 26 26" fill="none" xmlns="http://www.w3.org/2000/svg">
<g clip-path="url(#clip0_290_322)">
<path d="M21.3569 9.28683C21.3569 13.9111 12.9997 25.0725 12.9997 25.0725C12.9997 25.0725 4.64258 13.9111 4.64258 9.28683C4.64258 7.07038 5.52306 4.94471 7.09033 3.37744C8.6576 1.81017 10.7833 0.929687 12.9997 0.929688C15.2162 0.929688 17.3418 1.81017 18.9091 3.37744C20.4764 4.94471 21.3569 7.07038 21.3569 9.28683V9.28683Z" stroke="black" stroke-width="1.5" stroke-linecap="round" stroke-linejoin="round"/>
<path d="M13.0006 12.0714C14.5391 12.0714 15.7863 10.8242 15.7863 9.28571C15.7863 7.74721 14.5391 6.5 13.0006 6.5C11.4621 6.5 10.2148 7.74721 10.2148 9.28571C10.2148 10.8242 11.4621 12.0714 13.0006 12.0714Z" stroke="black" stroke-width="1.5" stroke-linecap="round" stroke-linejoin="round"/>
</g>
<defs>
<clipPath id="clip0_290_322">
<rect width="26" height="26" fill="white"/>
</clipPath>
</defs>
</svg>
