<svg width="50" height="50" viewBox="0 0 50 50" fill="none" xmlns="http://www.w3.org/2000/svg">
<path d="M22.0418 9.11895C22.0418 8.6875 22.3916 8.3377 22.8231 8.3377H35.0414C35.4729 8.3377 35.8227 8.6875 35.8227 9.11895C35.8227 9.55039 35.4729 9.9002 35.0414 9.9002H22.8231C22.3916 9.9002 22.0418 9.55049 22.0418 9.11895ZM15.6011 10.7851C15.7536 10.9376 15.9535 11.0139 16.1535 11.0139C16.3535 11.0139 16.5534 10.9376 16.706 10.7851L19.1008 8.39023C19.406 8.08516 19.4059 7.59053 19.1008 7.28545C18.7957 6.98037 18.3011 6.98037 17.996 7.28545L16.1536 9.12793L15.5086 8.48291C15.2035 8.17783 14.7089 8.17783 14.4038 8.48291C14.0987 8.78799 14.0987 9.28262 14.4038 9.5877L15.6011 10.7851ZM22.8231 18.2329H35.0414C35.4729 18.2329 35.8227 17.8831 35.8227 17.4517C35.8227 17.0202 35.4729 16.6704 35.0414 16.6704H22.8231C22.3916 16.6704 22.0418 17.0202 22.0418 17.4517C22.0418 17.8831 22.3916 18.2329 22.8231 18.2329ZM15.6011 19.2015C15.7536 19.354 15.9535 19.4303 16.1535 19.4303C16.3535 19.4303 16.5534 19.354 16.706 19.2015L19.1008 16.8066C19.406 16.5016 19.4059 16.0069 19.1008 15.7019C18.7957 15.3968 18.3011 15.3968 17.996 15.7019L16.1536 17.5443L15.5086 16.8993C15.2035 16.5942 14.7089 16.5942 14.4038 16.8993C14.0987 17.2044 14.0987 17.699 14.4038 18.0041L15.6011 19.2015ZM46.5876 33.0605L43.1328 35.0551C42.775 35.2617 42.3773 35.3672 41.9736 35.3672C41.7701 35.3672 41.5653 35.3405 41.3633 35.2863C40.7604 35.1248 40.2571 34.7394 39.9465 34.2014L39.852 34.0377L38.1043 34.9301C38.6269 35.7586 38.5513 36.7803 38.0921 37.5697C37.8612 37.9665 37.5314 38.3084 37.1361 38.5445C37.3653 38.9197 37.4871 39.3499 37.4855 39.808C37.482 40.7575 36.9473 41.6758 36.1233 42.1475C35.6654 42.4095 35.1591 42.5111 34.6522 42.4525C34.6262 42.8785 34.495 43.2971 34.2807 43.6651C33.8274 44.4435 32.9928 45.0064 32.0329 44.9818C32.0227 45.4419 31.8884 45.8973 31.6572 46.294C31.2145 47.0541 30.4089 47.6116 29.4765 47.6116C29.0518 47.6116 28.6007 47.4959 28.1457 47.231L26.0824 46.0295L25.6811 46.6002C25.1782 47.315 24.4414 47.7121 23.6338 47.7121C23.5598 47.7121 23.4852 47.7088 23.4101 47.7021C22.4838 47.6189 21.6309 47.0308 21.2209 46.1972C20.3507 46.6469 19.3386 46.4832 18.591 45.9574C18.1083 45.6179 17.7303 45.1235 17.5578 44.5544C16.8402 44.7113 16.0884 44.5218 15.5002 44.108C14.7676 43.5927 14.2764 42.7206 14.3786 41.772C13.918 41.7236 13.4726 41.5503 13.0946 41.2845C12.0474 40.5477 11.4936 39.0816 12.4616 37.7055L12.528 37.611L9.9381 34.3768C9.62502 34.8229 9.16935 35.1431 8.6343 35.2864C8.43234 35.3406 8.22736 35.3673 8.02404 35.3673C7.62033 35.3673 7.22258 35.2618 6.86467 35.0552L3.40998 33.0605C2.29611 32.4176 1.9131 30.9882 2.55617 29.8742L8.61945 19.3723C8.80578 19.0496 9.05832 18.7887 9.34982 18.5958V3.06641C9.34982 2.63496 9.69963 2.28516 10.1311 2.28516H39.8664C40.2979 2.28516 40.6477 2.63496 40.6477 3.06641V18.5958C40.9392 18.7886 41.1918 19.0495 41.378 19.3722L47.4413 29.8741C48.0844 30.9882 47.7014 32.4175 46.5876 33.0605ZM10.9123 3.84766V18.2223C11.2185 18.2579 11.5224 18.3548 11.8058 18.5185L15.2606 20.5131C15.7987 20.8237 16.184 21.3269 16.3455 21.9299C16.4462 22.3058 16.4522 22.6915 16.3672 23.0591L20.6987 24.6063C22.5256 22.9733 23.8733 22.3932 26.6532 23.0051C29.2594 23.5788 31.4454 23.5841 33.6204 23.0117C33.5465 22.6584 33.5554 22.2896 33.6519 21.9298C33.8134 21.3268 34.1987 20.8235 34.7369 20.513L38.1916 18.5184C38.475 18.3547 38.7789 18.2579 39.0851 18.2223V3.84766H10.9123ZM8.69787 33.4201L14.7612 22.9182C14.8631 22.7415 14.8899 22.5342 14.8363 22.3344C14.7828 22.1346 14.656 21.9683 14.4793 21.8663L11.0246 19.8717C10.9037 19.8019 10.7714 19.7687 10.6408 19.7687C10.3744 19.7687 10.1152 19.9068 9.97267 20.1535L3.90939 30.6555C3.69709 31.0232 3.82355 31.4951 4.19123 31.7073L7.64601 33.702C7.82277 33.8041 8.03019 33.8309 8.2299 33.7771C8.42971 33.7236 8.59592 33.5969 8.69787 33.4201ZM15.3991 39.7723L17.1946 37.2196L17.1949 37.2191C17.7405 36.4408 17.0775 35.9159 16.939 35.8186C16.8004 35.7211 16.0816 35.2748 15.5338 36.0535L13.7396 38.6042C13.1916 39.3832 13.8551 39.9089 13.9937 40.0063C14.1321 40.1039 14.8506 40.5504 15.3987 39.7729L15.3991 39.7723ZM17.9572 42.3786L20.4654 38.8128L20.8468 38.2706C21.3947 37.4916 20.7312 36.9659 20.5926 36.8685C20.4539 36.7709 19.7349 36.3241 19.1868 37.103L18.4733 38.1176C18.4732 38.1178 18.4731 38.1179 18.473 38.1181L18.4727 38.1186L16.6772 40.6712L16.145 41.4277C15.5971 42.2068 16.2607 42.7325 16.3992 42.83C16.5378 42.9273 17.257 43.374 17.8049 42.5953L17.9572 42.3786ZM21.4634 43.6372C21.464 43.6364 21.4646 43.6356 21.4652 43.6349L22.3649 42.3557L23.4027 40.8803C23.9504 40.1015 23.2871 39.5758 23.1487 39.4782C23.0103 39.381 22.2921 38.9343 21.7443 39.7107L21.7435 39.7119L19.2354 43.2776L19.2349 43.2784C18.6883 44.0568 19.3514 44.5821 19.49 44.6796C19.6285 44.777 20.3477 45.2239 20.8955 44.4449L21.4634 43.6372ZM25.0483 43.0201C24.9097 42.9226 24.191 42.476 23.6433 43.2541L23.6429 43.2547L22.7432 44.5339C22.5145 44.8591 22.4707 45.1799 22.6133 45.4874C22.777 45.8403 23.162 46.1112 23.5495 46.1459C23.887 46.1762 24.1742 46.0266 24.403 45.7014L25.3027 44.4224C25.8504 43.6434 25.1868 43.1176 25.0483 43.0201ZM36.3869 35.4041L26.7261 29.812C25.8576 29.3104 24.9991 29.6719 23.6702 30.3026C23.6057 30.3332 23.5412 30.3639 23.4766 30.3943C23.3796 30.5891 23.2818 30.7981 23.1799 31.0157C22.6781 32.0878 22.1094 33.3027 21.1256 33.8338C19.9677 34.4587 18.9344 34.5541 18.216 34.1021C17.8854 33.894 17.3387 33.3769 17.3921 32.2501L17.5989 27.8956C17.6083 27.6972 17.6931 27.5098 17.8359 27.3715C18.2422 26.978 18.6068 26.6187 18.9594 26.2714C19.1206 26.1126 19.2758 25.9598 19.4273 25.8113L15.6698 24.469L10.7835 32.9325L13.4641 36.28L14.2558 35.1544C15.2235 33.7784 16.7901 33.804 17.8374 34.5399C18.1783 34.7795 18.467 35.0963 18.668 35.4621C19.5782 34.8782 20.6878 35.0249 21.4915 35.5902C22.1659 36.0646 22.6358 36.8414 22.6265 37.7018C23.1356 37.7273 23.6325 37.9078 24.048 38.2002C24.9747 38.8524 25.5149 40.0756 24.9557 41.3022C25.3111 41.3811 25.65 41.5327 25.9473 41.7419C26.8394 42.3695 27.3727 43.5259 26.9136 44.7053L28.932 45.8806C29.7551 46.3597 30.2219 45.6538 30.3071 45.5074C30.3924 45.3611 30.7758 44.6074 29.9548 44.1278L29.9537 44.1271C29.9536 44.1271 29.9536 44.127 29.9534 44.127C29.9534 44.127 29.9534 44.127 29.9533 44.127L27.3526 42.6127C26.9797 42.3956 26.8534 41.9174 27.0705 41.5445C27.2876 41.1717 27.7658 41.0455 28.1388 41.2625L30.7396 42.7769C30.7397 42.777 30.7399 42.777 30.74 42.7771L30.7403 42.7772C30.7408 42.7775 30.7414 42.7779 30.742 42.7782L31.5553 43.252C32.3782 43.731 32.8451 43.0251 32.9305 42.8788C33.0157 42.7324 33.399 41.9787 32.578 41.4991L32.5769 41.4984C32.5768 41.4984 32.5768 41.4983 32.5767 41.4983C32.5765 41.4982 32.5763 41.498 32.5761 41.4979L29.3878 39.6415C29.015 39.4244 28.8887 38.9462 29.1058 38.5733C29.323 38.2005 29.8012 38.0743 30.174 38.2913L33.3632 40.1482L33.3634 40.1483C33.3641 40.1487 33.3646 40.149 33.3652 40.1494L34.3859 40.7438C34.7296 40.9439 35.0529 40.9599 35.3471 40.7915C35.6848 40.5982 35.9216 40.1914 35.923 39.8023C35.9242 39.4634 35.7506 39.19 35.4069 38.9899L34.5825 38.5099C34.5823 38.5098 34.582 38.5097 34.5819 38.5095L34.5812 38.5091C34.5811 38.509 34.5809 38.5089 34.5808 38.5088L31.4232 36.6703C31.0503 36.4532 30.924 35.975 31.1411 35.6021C31.3583 35.2293 31.8364 35.1031 32.2094 35.3201L35.367 37.1586C36.1902 37.6367 36.6564 36.9307 36.7415 36.7843C36.8265 36.6378 37.2096 35.8832 36.3869 35.4041ZM39.0696 32.6827L34.3122 24.4425C31.0311 25.3687 28.2003 24.9456 26.3174 24.5311C23.5667 23.9259 22.8928 24.5898 20.0561 27.3847C19.7794 27.6572 19.4725 27.9596 19.145 28.2783L18.9528 32.3245C18.9403 32.5897 18.9916 32.7443 19.0482 32.7799C19.1803 32.8629 19.6599 32.8496 20.3834 32.459C20.9131 32.173 21.3655 31.2064 21.7648 30.3535C21.9096 30.0439 22.0595 29.724 22.2138 29.4333C22.294 29.2824 22.4214 29.162 22.5766 29.0903C22.718 29.0251 22.8592 28.9581 23.0001 28.8911C24.352 28.2493 25.8842 27.5219 27.5081 28.4593L36.8034 33.8397L39.0696 32.6827ZM46.0881 30.6554L40.0249 20.1535C39.8126 19.7857 39.3406 19.6594 38.973 19.8717L35.5182 21.8663C35.3415 21.9683 35.2148 22.1346 35.1611 22.3344C35.1076 22.5342 35.1343 22.7415 35.2363 22.9182L41.2996 33.4202C41.4016 33.5969 41.5679 33.7236 41.7677 33.7771C41.9677 33.8311 42.1748 33.8041 42.3515 33.702L45.8064 31.7074C46.174 31.4951 46.3005 31.0231 46.0881 30.6554Z" fill="white"/>
</svg>
