<svg width="48" height="48" viewBox="0 0 48 48" fill="none" xmlns="http://www.w3.org/2000/svg">
<path d="M26.45 0C26.8276 0 27.1462 0.280695 27.1939 0.65527L27.8279 5.63707C29.845 6.12993 31.7844 6.92519 33.5155 8.0286L37.4914 4.95653L37.52 4.93546C37.8195 4.72571 38.2293 4.76219 38.487 5.02644L42.387 9.02643C42.6485 9.29467 42.6719 9.71473 42.4419 10.0104L39.2721 14.0858C40.3752 15.818 41.1686 17.7702 41.589 19.8765L46.4464 20.5062C46.8202 20.5547 47.1 20.873 47.1 21.25V26.95C47.1 27.3269 46.8202 27.6453 46.4464 27.6937L41.5678 28.3261C41.072 30.4295 40.2762 32.3097 39.2531 34.0923L42.3434 38.0914C42.5719 38.3871 42.5479 38.806 42.287 39.0736L38.387 43.0736C38.1182 43.3492 37.6844 43.3766 37.3831 43.1369L33.4088 39.9755C31.6794 41.0767 29.7424 41.8706 27.728 42.3628L27.094 47.3447C27.0463 47.7193 26.7275 48 26.3499 48H20.75C20.3724 47.9999 20.0537 47.7192 20.006 47.3447L19.3719 42.3628C17.3548 41.8699 15.4154 41.0747 13.6843 39.9713L9.7086 43.0434C9.40715 43.2764 8.97891 43.2463 8.71296 42.9735L4.813 38.9735C4.5521 38.7059 4.52804 38.2872 4.75655 37.9914L7.82862 34.0156C6.72505 32.2829 5.93142 30.3302 5.5109 28.2233L0.653553 27.5937C0.279742 27.5453 0 27.2269 0 26.8499V21.15C0 20.7731 0.27974 20.4546 0.653553 20.4062L5.53217 19.7737C6.02843 17.6704 6.83107 15.785 7.93533 13.993L4.85649 10.0085C4.628 9.71281 4.65208 9.29402 4.91295 9.02643L8.813 5.02644L8.83837 5.00154C9.10555 4.75201 9.51651 4.73087 9.80854 4.95653L13.7838 8.02822C15.5035 6.92496 17.3802 6.12638 19.4724 5.6325L20.1059 0.65527L20.1112 0.620461C20.1736 0.263431 20.4842 0 20.85 0H26.45ZM20.894 6.3447C20.8535 6.66211 20.6162 6.91896 20.303 6.98423C17.9978 7.46448 15.9901 8.32608 14.1735 9.56898C13.9051 9.75266 13.5487 9.74231 13.2914 9.54342L9.4203 6.55212L6.44178 9.60693L9.44347 13.4913C9.63837 13.7436 9.65247 14.0915 9.47876 14.3587C8.22634 16.2855 7.36409 18.2994 6.88419 20.6029C6.81906 20.9155 6.56309 21.1527 6.24638 21.1938L1.49994 21.809V26.1909L6.24638 26.8062C6.5741 26.8486 6.83537 27.1007 6.88972 27.4266C7.2718 29.7191 8.1307 31.8166 9.36899 33.6265C9.55265 33.8949 9.5423 34.2511 9.34343 34.5085L6.34174 38.3929L9.32026 41.4477L13.1914 38.4565L13.2158 38.4384C13.471 38.2572 13.8134 38.2531 14.0735 38.431C15.8283 39.6316 17.8615 40.4809 20.0018 40.9708L20.2093 41.0171L20.2381 41.0239C20.5341 41.1005 20.7552 41.35 20.794 41.6553L21.4107 46.5H25.6893L26.306 41.6553C26.3461 41.3402 26.5803 41.0845 26.8907 41.0171C29.1069 40.5353 31.2151 39.6704 33.0265 38.431L33.0522 38.4142C33.3206 38.2461 33.6673 38.2645 33.9169 38.463L37.7862 41.5409L40.758 38.4929L37.7565 34.6086C37.5677 34.3641 37.5479 34.0289 37.7069 33.7641C38.871 31.8238 39.7356 29.8019 40.2158 27.497L40.2224 27.4679C40.2969 27.1697 40.5468 26.946 40.8536 26.9062L45.5999 26.2909V21.909L40.8536 21.2937C40.5259 21.2513 40.2645 20.9993 40.2102 20.6733C39.8281 18.3808 38.9693 16.2833 37.731 14.4734C37.5468 14.2043 37.5577 13.8469 37.758 13.5895L40.8566 9.60541L37.8796 6.55212L34.0086 9.54342C33.7512 9.74231 33.3949 9.75265 33.1264 9.56898C31.315 8.32958 29.2069 7.4647 26.9906 6.9829C26.6803 6.91542 26.4461 6.65974 26.406 6.3447L25.7894 1.49994H21.5106L20.894 6.3447Z" fill="white"/>
<path d="M27.1007 16.2515C27.1007 14.2545 25.5254 12.6015 23.4507 12.6015C21.4538 12.6015 19.8007 14.1768 19.8007 16.2515C19.8007 17.0087 20.0583 17.8245 20.5202 18.3634C20.7897 18.6779 20.7533 19.1514 20.4388 19.4209C20.1243 19.6905 19.6509 19.6541 19.3813 19.3396C18.6432 18.4785 18.3008 17.2943 18.3008 16.2515C18.3008 13.3262 20.6477 11.1016 23.4507 11.1016C26.376 11.1016 28.6007 13.4485 28.6007 16.2515C28.6007 17.4041 28.2528 18.4849 27.5202 19.3396C27.2507 19.6541 26.7771 19.6905 26.4626 19.4209C26.1482 19.1514 26.1117 18.6779 26.3813 18.3634C26.8486 17.8182 27.1007 17.0989 27.1007 16.2515Z" fill="white"/>
<path d="M25.1992 22.25C25.1992 21.8358 25.535 21.5 25.9492 21.5C26.3634 21.5 26.6992 21.8358 26.6992 22.25C26.6992 23.9923 26.8926 25.6346 27.2793 27.2782C27.6594 28.8937 28.329 30.4326 29.12 32.0145C29.3052 32.385 29.155 32.8355 28.7846 33.0208C28.4141 33.206 27.9636 33.0558 27.7783 32.6854C26.9693 31.0674 26.239 29.4062 25.8191 27.6217C25.4058 25.8653 25.1992 24.1077 25.1992 22.25Z" fill="white"/>
<path d="M20.401 22.25C20.401 21.8358 20.7367 21.5 21.1509 21.5C21.5651 21.5 21.9009 21.8358 21.9009 22.25C21.9009 25.8771 20.9687 29.5011 19.2086 32.7106C19.0094 33.0738 18.5535 33.2067 18.1903 33.0076C17.8272 32.8084 17.6941 32.3525 17.8933 31.9894C19.5332 28.9989 20.401 25.6228 20.401 22.25Z" fill="white"/>
<path d="M29.3992 33.6515C29.3992 33.3657 29.135 33.1015 28.8492 33.1015H18.2492C17.9635 33.1015 17.6992 33.3657 17.6992 33.6515V35.6016H29.3992V33.6515ZM30.8992 36.3515C30.8992 36.7657 30.5634 37.1015 30.1492 37.1015H16.9492C16.535 37.1015 16.1992 36.7657 16.1992 36.3515V33.6515C16.1992 32.5373 17.135 31.6016 18.2492 31.6016H28.8492C29.9634 31.6016 30.8991 32.5373 30.8992 33.6515V36.3515Z" fill="white"/>
<path d="M28.3979 20.5516C28.3979 20.0366 28.0051 19.6015 27.4479 19.6015H19.7478C19.1099 19.6015 18.7516 20.0933 18.7933 20.4687C18.7964 20.4962 18.7979 20.5239 18.7979 20.5516C18.7979 21.0665 19.1906 21.5015 19.7478 21.5015H27.4479C27.9628 21.5015 28.3978 21.1088 28.3979 20.5516ZM29.8979 20.5516C29.8979 21.9943 28.733 23.0015 27.4479 23.0015H19.7478C18.3202 23.0015 17.3193 21.8609 17.2984 20.592C17.1691 19.1878 18.3994 18.1016 19.7478 18.1016H27.4479C28.8907 18.1016 29.8979 19.2665 29.8979 20.5516Z" fill="white"/>
<path d="M12 24.0515C12 20.8445 13.2849 17.956 15.4197 15.8212C15.7126 15.5283 16.1874 15.5283 16.4803 15.8212C16.7732 16.1141 16.7732 16.589 16.4803 16.8819C14.6151 18.747 13.4999 21.2585 13.4999 24.0515C13.4999 26.4741 14.3372 28.7032 15.8237 30.4684C16.0905 30.7852 16.0499 31.2585 15.7331 31.5253C15.4162 31.7921 14.9431 31.7515 14.6763 31.4347C12.9628 29.3999 12 26.8289 12 24.0515Z" fill="white"/>
<path d="M33.6023 24.0515C33.6023 21.2586 32.4872 18.7471 30.622 16.8819C30.3291 16.589 30.3291 16.1141 30.622 15.8212C30.9149 15.5283 31.3898 15.5283 31.6827 15.8212C33.8175 17.9561 35.1024 20.8445 35.1024 24.0515C35.1024 26.8289 34.1396 29.3999 32.4261 31.4347C32.1593 31.7515 31.6861 31.7921 31.3692 31.5253C31.0524 31.2585 31.0119 30.7853 31.2787 30.4684C32.7652 28.7032 33.6023 26.4741 33.6023 24.0515Z" fill="white"/>
</svg>
