<svg width="50" height="50" viewBox="0 0 50 50" fill="none" xmlns="http://www.w3.org/2000/svg">
<path d="M27.8992 0.949219C28.2768 0.949219 28.5955 1.22991 28.6431 1.60449L29.2771 6.58629C31.2942 7.07915 33.2336 7.87441 34.9648 8.97782L38.9406 5.90575L38.9692 5.88467C39.2687 5.67492 39.6785 5.71141 39.9362 5.97565L43.8362 9.97565C44.0977 10.2439 44.1211 10.664 43.8912 10.9597L40.7213 15.035C41.8244 16.7673 42.6178 18.7195 43.0382 20.8257L47.8956 21.4554C48.2694 21.5039 48.5492 21.8223 48.5492 22.1992V27.8992C48.5492 28.2761 48.2694 28.5945 47.8956 28.643L43.017 29.2753C42.5212 31.3787 41.7254 33.2589 40.7024 35.0415L43.7926 39.0406C44.0212 39.3363 43.9971 39.7552 43.7362 40.0228L39.8362 44.0228C39.5675 44.2984 39.1336 44.3258 38.8323 44.0861L34.8581 40.9248C33.1286 42.026 31.1917 42.8198 29.1772 43.312L28.5432 48.2939C28.4955 48.6685 28.1767 48.9492 27.7991 48.9492H22.1992C21.8216 48.9492 21.5029 48.6685 21.4552 48.2939L20.8211 43.312C18.804 42.8191 16.8646 42.0239 15.1335 40.9205L11.1578 43.9926C10.8564 44.2256 10.4281 44.1955 10.1622 43.9227L6.26222 39.9227C6.00132 39.6552 5.97726 39.2364 6.20576 38.9406L9.27784 34.9648C8.17426 33.2321 7.38064 31.2794 6.96012 29.1725L2.10277 28.5429C1.72896 28.4945 1.44922 28.1761 1.44922 27.7992V22.0992C1.44922 21.7223 1.72896 21.4038 2.10277 21.3554L6.98139 20.7229C7.47765 18.6196 8.28029 16.7342 9.38455 14.9422L6.30571 10.9577C6.07722 10.662 6.1013 10.2432 6.36217 9.97565L10.2622 5.97565L10.2876 5.95076C10.5548 5.70123 10.9657 5.68009 11.2578 5.90575L15.2331 8.97744C16.9527 7.87418 18.8295 7.0756 20.9216 6.58171L21.5552 1.60449L21.5604 1.56968C21.6228 1.21265 21.9334 0.949219 22.2992 0.949219H27.8992ZM22.3432 7.29392C22.3028 7.61133 22.0654 7.86818 21.7522 7.93345C19.447 8.4137 17.4393 9.27529 15.6227 10.5182C15.3543 10.7019 14.998 10.6915 14.7406 10.4926L10.8695 7.50134L7.891 10.5562L10.8927 14.4406C11.0876 14.6928 11.1017 15.0407 10.928 15.3079C9.67556 17.2347 8.81331 19.2486 8.33341 21.5521C8.26828 21.8648 8.01231 22.102 7.69559 22.143L2.94916 22.7582V27.1401L7.69559 27.7554C8.02332 27.7979 8.28459 28.0499 8.33894 28.3758C8.72102 30.6683 9.57991 32.7659 10.8182 34.5757C11.0019 34.8441 10.9915 35.2004 10.7927 35.4577L7.79096 39.3421L10.7695 42.397L14.6406 39.4058L14.665 39.3876C14.9202 39.2064 15.2626 39.2023 15.5227 39.3802C17.2775 40.5809 19.3107 41.4301 21.451 41.92L21.6585 41.9663L21.6873 41.9731C21.9833 42.0498 22.2044 42.2992 22.2432 42.6045L22.8599 47.4492H27.1385L27.7552 42.6045C27.7953 42.2894 28.0295 42.0337 28.3399 41.9663C30.5561 41.4845 32.6643 40.6196 34.4757 39.3802L34.5014 39.3634C34.7698 39.1953 35.1165 39.2137 35.3661 39.4122L39.2354 42.4901L42.2073 39.4421L39.2058 35.5578C39.0169 35.3134 38.9972 34.9782 39.1561 34.7133C40.3203 32.773 41.1848 30.7511 41.665 28.4462L41.6716 28.4171C41.7461 28.1189 41.996 27.8952 42.3028 27.8554L47.0492 27.2401V22.8582L42.3028 22.243C41.9751 22.2005 41.7137 21.9485 41.6594 21.6225C41.2773 19.3301 40.4185 17.2325 39.1802 15.4227C38.996 15.1535 39.007 14.7961 39.2072 14.5387L42.3058 10.5546L39.3288 7.50134L35.4578 10.4926C35.2004 10.6915 34.8441 10.7019 34.5757 10.5182C32.7642 9.2788 30.6561 8.41391 28.4398 7.93212C28.1295 7.86464 27.8953 7.60896 27.8552 7.29392L27.2386 2.44916H22.9598L22.3432 7.29392Z" fill="white"/>
<path d="M28.548 17.2007C28.548 15.2038 26.9727 13.5507 24.898 13.5507C22.901 13.5507 21.248 15.1261 21.248 17.2007C21.248 17.9579 21.5056 18.7738 21.9674 19.3126C22.237 19.6271 22.2006 20.1006 21.8861 20.3702C21.5716 20.6397 21.0981 20.6033 20.8286 20.2888C20.0905 19.4277 19.748 18.2435 19.748 17.2007C19.7481 14.2754 22.095 12.0508 24.898 12.0508C27.8233 12.0508 30.048 14.3977 30.048 17.2007C30.048 18.3533 29.7001 19.4341 28.9675 20.2888C28.6979 20.6033 28.2244 20.6397 27.9099 20.3702C27.5954 20.1006 27.559 19.6271 27.8285 19.3126C28.2959 18.7674 28.548 18.0481 28.548 17.2007Z" fill="white"/>
<path d="M26.6484 23.1992C26.6484 22.785 26.9842 22.4492 27.3984 22.4492C27.8126 22.4492 28.1484 22.785 28.1484 23.1992C28.1484 24.9415 28.3418 26.5839 28.7285 28.2274C29.1086 29.8429 29.7782 31.3818 30.5692 32.9638C30.7544 33.3342 30.6043 33.7847 30.2338 33.97C29.8633 34.1552 29.4128 34.0051 29.2276 33.6346C28.4186 32.0166 27.6882 30.3555 27.2683 28.5709C26.8551 26.8145 26.6484 25.0569 26.6484 23.1992Z" fill="white"/>
<path d="M21.8482 23.1992C21.8482 22.785 22.184 22.4492 22.5982 22.4492C23.0124 22.4492 23.3482 22.785 23.3482 23.1992C23.3482 26.8264 22.4159 30.4503 20.6558 33.6599C20.4567 34.023 20.0008 34.156 19.6376 33.9568C19.2744 33.7577 19.1414 33.3018 19.3405 32.9386C20.9805 29.9481 21.8482 26.572 21.8482 23.1992Z" fill="white"/>
<path d="M30.8484 34.6007C30.8484 34.315 30.5842 34.0507 30.2985 34.0507H19.6985C19.4127 34.0507 19.1484 34.3149 19.1484 34.6007V36.5508H30.8484V34.6007ZM32.3484 37.3007C32.3484 37.715 32.0126 38.0507 31.5984 38.0507H18.3984C17.9842 38.0507 17.6484 37.715 17.6484 37.3007V34.6007C17.6485 33.4865 18.5843 32.5508 19.6985 32.5508H30.2985C31.4126 32.5508 32.3483 33.4865 32.3484 34.6007V37.3007Z" fill="white"/>
<path d="M29.849 21.5008C29.849 20.9858 29.4563 20.5507 28.8991 20.5507H21.199C20.5611 20.5507 20.2028 21.0426 20.2445 21.4179C20.2475 21.4454 20.2491 21.4731 20.2491 21.5008C20.2491 22.0157 20.6418 22.4507 21.199 22.4507H28.8991C29.414 22.4507 29.849 22.058 29.849 21.5008ZM31.3491 21.5008C31.3491 22.9435 30.1841 23.9508 28.8991 23.9508H21.199C19.7714 23.9507 18.7705 22.8101 18.7496 21.5412C18.6203 20.137 19.8505 19.0508 21.199 19.0508H28.8991C30.3418 19.0508 31.3491 20.2157 31.3491 21.5008Z" fill="white"/>
<path d="M13.4492 25.0007C13.4492 21.7937 14.7341 18.9052 16.8689 16.7704C17.1618 16.4776 17.6366 16.4776 17.9295 16.7704C18.2224 17.0633 18.2224 17.5382 17.9295 17.8311C16.0643 19.6963 14.9492 22.2078 14.9492 25.0007C14.9492 27.4234 15.7864 29.6524 17.2729 31.4176C17.5397 31.7345 17.4991 32.2077 17.1823 32.4745C16.8655 32.7413 16.3923 32.7007 16.1255 32.3839C14.412 30.3491 13.4492 27.7781 13.4492 25.0007Z" fill="white"/>
<path d="M35.0496 25.0008C35.0496 22.2078 33.9344 19.6963 32.0693 17.8311C31.7764 17.5382 31.7764 17.0633 32.0693 16.7705C32.3622 16.4776 32.8371 16.4776 33.13 16.7705C35.2648 18.9053 36.5496 21.7938 36.5496 25.0008C36.5496 27.7781 35.5868 30.3491 33.8733 32.3839C33.6065 32.7007 33.1333 32.7413 32.8165 32.4745C32.4996 32.2077 32.4592 31.7345 32.726 31.4176C34.2125 29.6524 35.0496 27.4234 35.0496 25.0008Z" fill="white"/>
</svg>
