<svg width="60" height="60" viewBox="0 0 60 60" fill="none" xmlns="http://www.w3.org/2000/svg">
<path d="M52.5 6.5625H7.5C5.43228 6.5625 3.75 8.24433 3.75 10.3125V42.1875C3.75 44.2557 5.43228 45.9375 7.5 45.9375H14.3156C14.8334 45.9375 15.2531 45.5182 15.2531 45C15.2531 44.4818 14.8334 44.0625 14.3156 44.0625H7.5C6.46591 44.0625 5.625 43.2211 5.625 42.1875V15.9366H18.3623C19.4673 15.9366 20.506 15.5063 21.2879 14.7253C21.7149 14.2987 22.2835 14.0634 22.8877 14.0634H50.625C51.8384 14.0547 51.8707 12.206 50.625 12.1884C50.625 12.1884 22.8877 12.1884 22.8877 12.1884C21.7827 12.1884 20.744 12.6187 19.9622 13.3997C19.5351 13.8263 18.9665 14.0616 18.3623 14.0616H5.625V10.3125C5.625 9.27887 6.46591 8.4375 7.5 8.4375H52.5C53.5341 8.4375 54.375 9.27887 54.375 10.3125V42.1875C54.375 43.2211 53.5341 44.0625 52.5 44.0625H45.8533C45.3355 44.0625 44.9158 44.4818 44.9158 45C44.9158 45.5182 45.3355 45.9375 45.8533 45.9375H52.5C54.5677 45.9375 56.25 44.2557 56.25 42.1875V10.3125C56.25 8.24433 54.5677 6.5625 52.5 6.5625Z" fill="white"/>
<path d="M15.4688 11.2497C15.4897 12.482 17.323 12.4818 17.3438 11.2497C17.3229 10.0174 15.4895 10.0176 15.4688 11.2497Z" fill="white"/>
<path d="M11.7188 11.2497C11.7397 12.482 13.573 12.4818 13.5938 11.2497C13.5729 10.0174 11.7395 10.0176 11.7188 11.2497Z" fill="white"/>
<path d="M7.96875 11.2497C7.98968 12.482 9.82299 12.4818 9.84375 11.2497C9.82285 10.0174 7.98947 10.0176 7.96875 11.2497Z" fill="white"/>
<path d="M28.513 25.394C29.5896 25.5276 30.6406 25.8371 31.6372 26.3132C32.1041 26.5356 32.6644 26.3388 32.8874 25.871C33.1107 25.404 32.9125 24.8447 32.4456 24.6213C31.2664 24.0582 30.0213 23.692 28.7437 23.5336C24.9552 23.0667 21.2505 24.3283 18.5754 27.0007C8.60759 37.4228 21.1282 53.2776 33.5814 45.9859C33.5813 45.986 40.2065 52.619 40.2065 52.619C41.3091 53.7072 43.0932 53.7032 44.1905 52.6062C45.2623 51.5501 45.2664 49.6767 44.1817 48.6355C44.1818 48.6355 37.5588 42.0144 37.5588 42.0144C40.143 37.8954 39.9673 32.3647 37.0277 28.4403C37.0278 28.4403 40.706 24.7628 40.706 24.7628V26.477C40.7249 27.7127 42.5628 27.7055 42.581 26.477V22.5C42.583 22.1301 42.3466 21.7726 42.0015 21.6347C42.124 21.4528 37.7278 21.6174 37.6651 21.5624C37.1473 21.5625 36.7275 21.9818 36.7275 22.5C36.7275 23.0182 37.1473 23.4375 37.665 23.4375H39.3799L27.8558 34.9593L25.2024 32.3062C24.8362 31.94 24.2429 31.94 23.8767 32.3062L20.0709 36.112C19.2137 36.981 20.5206 38.3025 21.3966 37.4377C21.3966 37.4377 24.5396 34.2947 24.5396 34.2947L27.1923 36.947C27.5497 37.3814 28.3406 37.207 28.5243 36.942C28.6192 36.8472 31.8633 33.6037 33.9505 31.5169C35.0125 30.5522 35.6981 29.5317 35.7673 29.9156C38.1677 33.4268 38.0631 38.2185 35.5585 41.6415C35.2731 41.9974 35.493 42.6719 35.6943 42.8012C35.8665 42.9726 42.8669 49.9706 42.8924 50.0001C43.2106 50.3893 43.2343 50.9152 42.8125 51.3298C42.4532 51.7191 41.7005 51.5382 41.5264 51.2865C41.3449 51.1057 34.3641 44.1124 34.3232 44.0776C33.9547 43.7429 33.4044 43.7815 33.0334 44.1035C26.8476 48.5571 17.6695 44.3924 16.9392 36.7967C16.0641 30.328 22.0476 24.4247 28.513 25.394Z" fill="white"/>
</svg>
