<svg width="60" height="60" viewBox="0 0 60 60" fill="none" xmlns="http://www.w3.org/2000/svg">
<path d="M38.436 31.0136C45.0911 31.0136 50.5054 25.5993 50.5054 18.9443C50.5054 12.2893 45.0911 6.87504 38.436 6.87504C31.7809 6.87504 26.3667 12.2893 26.3667 18.9443C26.3667 25.5993 31.781 31.0136 38.436 31.0136ZM31.3372 26.5764C32.0611 23.246 34.9812 20.8707 38.436 20.8707C41.8908 20.8707 44.8109 23.246 45.5349 26.5764C43.6718 28.3104 41.1758 29.3729 38.436 29.3729C35.6961 29.3729 33.2003 28.3104 31.3372 26.5764ZM38.436 19.204C36.764 19.204 35.4036 17.8437 35.4036 16.1716C35.4036 14.4996 36.764 13.1394 38.436 13.1394C40.108 13.1394 41.4683 14.4996 41.4683 16.1716C41.4683 17.8437 40.108 19.204 38.436 19.204ZM38.436 8.51555C44.1864 8.51555 48.8647 13.1938 48.8647 18.9442C48.8647 21.2604 48.1054 23.4023 46.823 25.135C46.3067 23.6959 45.4236 22.3999 44.2487 21.3875C43.4138 20.668 42.458 20.1172 41.435 19.7516C42.4575 18.8937 43.109 17.6075 43.109 16.1715C43.109 13.5949 41.0127 11.4987 38.436 11.4987C35.8593 11.4987 33.763 13.5949 33.763 16.1715C33.763 17.6075 34.4146 18.8937 35.437 19.7516C34.4141 20.1172 33.4583 20.668 32.6234 21.3875C31.4486 22.4 30.5654 23.6959 30.0491 25.135C28.7667 23.4023 28.0074 21.2604 28.0074 18.9442C28.0074 13.1938 32.6856 8.51555 38.436 8.51555ZM57.5132 37.8103C56.7135 36.9023 55.0931 36.4556 53.2763 37.5046C51.0097 38.8131 45.3808 41.558 41.1584 43.162C41.3236 42.3765 41.1907 41.5529 40.7586 40.8259C40.1374 39.7806 39.0449 39.1816 37.8349 39.2217C32.6114 39.2191 29.2313 37.817 26.2486 36.5798C23.537 35.455 21.1954 34.4834 18.4248 35.154C15.6275 35.831 12.6498 38.15 8.807 42.652C7.81454 42.1751 6.58665 42.3446 5.76505 43.1662L2.10739 46.8239C1.78712 47.1443 1.78712 47.6637 2.10739 47.9839L13.4143 59.2909C13.5682 59.4446 13.7768 59.5311 13.9944 59.5311C14.212 59.5311 14.4206 59.4446 14.5745 59.2909L18.2322 55.6331C18.7343 55.1309 19.011 54.4612 19.011 53.7476C19.011 53.4154 18.9486 53.0936 18.8339 52.7929C21.1688 51.8148 23.7717 51.7302 27.0983 51.9294C27.846 51.9742 28.6308 52.0373 29.4617 52.1043C31.433 52.263 33.4719 52.4275 35.4413 52.3836C39.5797 52.2922 42.0704 51.13 45.3979 49.3672C48.7892 47.5709 56.0218 43.2809 57.3731 41.5048C58.3286 40.2486 58.3835 38.7986 57.5132 37.8104V37.8103ZM17.072 54.473L13.9943 57.5507L3.84751 47.4039L6.92521 44.3262C7.32517 43.9261 7.97614 43.9261 8.37622 44.3262L17.0721 53.0221C17.2644 53.2144 17.3704 53.472 17.3704 53.7475C17.3704 54.023 17.2643 54.2807 17.072 54.473ZM56.0674 40.5114C55.1162 41.7616 49.0327 45.5852 44.6298 47.9174C41.5097 49.5702 39.182 50.6598 35.4048 50.7434C33.5192 50.7848 31.5233 50.6243 29.5933 50.4688C28.7537 50.4012 27.9607 50.3373 27.1962 50.2916C24.2446 50.115 20.8693 50.0527 17.8183 51.4482L10.0695 43.6996C17.6686 34.7977 20.5136 35.977 25.6199 38.0952C28.5919 39.3281 32.2906 40.8623 37.849 40.8623C37.8593 40.8623 37.8696 40.8621 37.8799 40.8618C38.4892 40.8386 39.0359 41.1388 39.3481 41.664C39.6602 42.1893 39.6613 42.8147 39.3509 43.3369C38.7854 44.2883 36.7388 44.782 33.8768 44.6568C31.1932 44.5397 28.4924 43.8986 27.4315 43.3465C27.0297 43.1375 26.5343 43.2935 26.3251 43.6955C26.1159 44.0973 26.2723 44.5927 26.6741 44.8018C28.1115 45.55 31.1106 46.1782 33.8053 46.2959C34.1063 46.309 34.4174 46.3166 34.7342 46.3166C36.1697 46.3166 37.7188 46.1589 38.9406 45.6439C43.2066 44.4415 51.1642 40.6181 54.0963 38.9252C55.1042 38.3434 55.9357 38.5015 56.2818 38.8945C56.6228 39.2817 56.5426 39.8862 56.0671 40.5112L56.0674 40.5114ZM18.5959 34.6013C21.1644 34.6013 23.4348 33.3033 24.7879 31.3295C24.9595 31.5626 25.1523 31.7889 25.372 32.0085C26.6869 33.3232 28.2946 33.7982 30.2882 33.4602C31.7262 33.2166 33.0888 33.7811 33.9333 34.9702C35.1041 36.6186 36.577 37.42 38.4362 37.42C40.2954 37.42 41.7683 36.6186 42.939 34.9702C43.7836 33.7812 45.1463 33.2169 46.5844 33.4603C48.5776 33.7977 50.1861 33.3229 51.5004 32.0085C52.8152 30.6936 53.2901 29.0855 52.9521 27.0923C52.7085 25.6543 53.273 24.2918 54.4621 23.4472C56.1106 22.2764 56.9119 20.8035 56.9119 18.9444C56.9119 17.0854 56.1106 15.6123 54.4621 14.4415C53.2731 13.5969 52.7086 12.2344 52.9524 10.7962C53.2897 8.80254 52.8149 7.19449 51.5004 5.88012C50.1854 4.56527 48.5772 4.0902 46.5843 4.4284C45.1464 4.67168 43.7836 4.10754 42.9392 2.91855C41.7685 1.27008 40.2955 0.46875 38.4363 0.46875C36.5772 0.46875 35.1042 1.27008 33.9334 2.91855C33.0888 4.10754 31.7259 4.67203 30.2882 4.42828C28.2948 4.0909 26.6864 4.56586 25.372 5.88012C24.0572 7.19496 23.5824 8.80312 23.9204 10.7964C24.1641 12.2343 23.5996 13.5969 22.4105 14.4415C20.762 15.6123 19.9607 17.0852 19.9607 18.9444C19.9607 19.2145 19.9799 19.4767 20.0141 19.732C19.5546 19.6438 19.0809 19.5959 18.5961 19.5959C14.4591 19.5959 11.0933 22.9616 11.0933 27.0987C11.0933 31.2357 14.4591 34.6015 18.5961 34.6015L18.5959 34.6013ZM21.6011 18.9443C21.6011 17.6193 22.1436 16.6431 23.3603 15.7789C25.0751 14.561 25.8891 12.5959 25.5377 10.522C25.2883 9.05098 25.5948 7.97719 26.532 7.04016C27.4813 6.09082 28.5226 5.79352 30.0141 6.04582C32.0881 6.39727 34.0529 5.58328 35.2709 3.86848C36.135 2.65184 37.1112 2.10926 38.4362 2.10926C39.7613 2.10926 40.7374 2.65184 41.6016 3.86848C42.8195 5.58328 44.7846 6.39727 46.8584 6.04594C48.3293 5.79656 49.4032 6.10313 50.3404 7.04016C51.2898 7.98949 51.5871 9.03094 51.3347 10.5223C50.9833 12.596 51.7972 14.5611 53.512 15.7791C54.7287 16.6432 55.2713 17.6194 55.2713 18.9444C55.2713 20.2695 54.7287 21.2456 53.512 22.1096C51.7972 23.3277 50.9831 25.2928 51.3346 27.3666C51.584 28.8375 51.2774 29.9114 50.3404 30.8484C49.391 31.7978 48.3498 32.095 46.8583 31.8428C44.7849 31.4916 42.8194 32.3055 41.6015 34.0202C40.7374 35.2369 39.7613 35.7793 38.4362 35.7793C37.1112 35.7793 36.135 35.2369 35.2709 34.0202C34.0529 32.3054 32.0877 31.4912 30.014 31.8428C28.5429 32.0923 27.4691 31.7856 26.5321 30.8486C26.1324 30.4488 25.8517 30.0299 25.677 29.5747C25.9491 28.7989 26.0987 27.9661 26.0987 27.0986C26.0987 24.127 24.3622 21.5536 21.8508 20.3393C21.6839 19.9229 21.6011 19.4643 21.6011 18.9443ZM18.5959 21.2364C21.8283 21.2364 24.4581 23.8661 24.4581 27.0986C24.4581 30.3311 21.8284 32.9607 18.5959 32.9607C15.3634 32.9607 12.7337 30.3311 12.7337 27.0986C12.7337 23.8661 15.3635 21.2364 18.5959 21.2364ZM15.0128 26.9269C14.7863 26.5345 14.9207 26.0329 15.313 25.8063C15.7052 25.5799 16.207 25.7142 16.4336 26.1066L17.4468 27.8614L20.8886 24.4196C21.209 24.0994 21.7283 24.0995 22.0486 24.4196C22.3689 24.74 22.3689 25.2594 22.0486 25.5797L17.8508 29.7773C17.696 29.9321 17.487 30.0176 17.2709 30.0176C17.2352 30.0176 17.1995 30.0152 17.1638 30.0105C16.9109 29.9773 16.6879 29.8283 16.5605 29.6074L15.0128 26.9269Z" fill="white"/>
</svg>
