<svg width="60" height="60" viewBox="0 0 60 60" fill="none" xmlns="http://www.w3.org/2000/svg">
<path d="M52.5 6.5625H7.5C5.43228 6.5625 3.75 8.24433 3.75 10.3125V42.1875C3.75 44.2557 5.43228 45.9375 7.5 45.9375H14.3156C14.8334 45.9375 15.2531 45.5182 15.2531 45C15.2531 44.4818 14.8334 44.0625 14.3156 44.0625H7.5C6.46591 44.0625 5.625 43.2211 5.625 42.1875V15.9366H18.3623C19.4673 15.9366 20.506 15.5063 21.2879 14.7253C21.7149 14.2987 22.2835 14.0634 22.8877 14.0634H50.625C51.8384 14.0547 51.8707 12.206 50.625 12.1884C50.625 12.1884 22.8877 12.1884 22.8877 12.1884C21.7827 12.1884 20.744 12.6187 19.9622 13.3997C19.5351 13.8263 18.9665 14.0616 18.3623 14.0616H5.625V10.3125C5.625 9.27887 6.46591 8.4375 7.5 8.4375H52.5C53.5341 8.4375 54.375 9.27887 54.375 10.3125V42.1875C54.375 43.2211 53.5341 44.0625 52.5 44.0625H45.8533C45.3355 44.0625 44.9158 44.4818 44.9158 45C44.9158 45.5182 45.3355 45.9375 45.8533 45.9375H52.5C54.5677 45.9375 56.25 44.2557 56.25 42.1875V10.3125C56.25 8.24433 54.5677 6.5625 52.5 6.5625Z" fill="white"/>
<path d="M15.4688 11.2484C15.4897 12.4806 17.323 12.4805 17.3438 11.2483C17.3229 10.0161 15.4895 10.0163 15.4688 11.2484Z" fill="white"/>
<path d="M11.7188 11.2484C11.7397 12.4806 13.573 12.4805 13.5938 11.2483C13.5729 10.0161 11.7395 10.0163 11.7188 11.2484Z" fill="white"/>
<path d="M7.96875 11.2484C7.98968 12.4806 9.82299 12.4805 9.84375 11.2483C9.82285 10.0161 7.98947 10.0163 7.96875 11.2484Z" fill="white"/>
<path d="M28.511 25.3945C29.5877 25.5281 30.6387 25.8376 31.6352 26.3137C32.1022 26.5361 32.6625 26.3393 32.8854 25.8715C33.1088 25.4045 32.9106 24.8451 32.4437 24.6218C31.2645 24.0587 30.0193 23.6925 28.7417 23.5341C24.9533 23.0672 21.2486 24.3288 18.5734 27.0012C8.60564 37.4233 21.1263 53.2781 33.5795 45.9864C33.5794 45.9865 40.2046 52.6195 40.2046 52.6195C41.3072 53.7077 43.0913 53.7037 44.1885 52.6067C45.2603 51.5506 45.2645 49.6772 44.1798 48.636C44.1798 48.636 37.5569 42.0149 37.5569 42.0149C40.141 37.8959 39.9654 32.3652 37.0258 28.4408C37.0258 28.4408 40.704 24.7633 40.704 24.7633V26.4775C40.723 27.7132 42.5609 27.706 42.579 26.4775V22.5005C42.581 22.1306 42.3446 21.7731 41.9995 21.6352C42.122 21.4533 37.7258 21.6179 37.6631 21.5628C37.1454 21.563 36.7256 21.9823 36.7256 22.5005C36.7256 23.0187 37.1453 23.438 37.6631 23.438H39.378L27.8539 34.9598L25.2005 32.3067C24.8343 31.9405 24.241 31.9405 23.8748 32.3067L20.0689 36.1125C19.2117 36.9815 20.5186 38.303 21.3947 37.4382C21.3946 37.4382 24.5376 34.2952 24.5376 34.2952L27.1904 36.9475C27.5477 37.3819 28.3386 37.2075 28.5223 36.9425C28.6173 36.8477 31.8613 33.6042 33.9486 31.5174C35.0105 30.5527 35.6962 29.5322 35.7654 29.9161C38.1658 33.4273 38.0612 38.219 35.5566 41.642C35.2712 41.9979 35.4911 42.6724 35.6923 42.8017C35.8645 42.9731 42.865 49.9711 42.8904 50.0005C43.2086 50.3898 43.2324 50.9157 42.8105 51.3302C42.4512 51.7196 41.6985 51.5387 41.5244 51.287C41.343 51.1062 34.3621 44.1129 34.3213 44.0781C33.9528 43.7434 33.4024 43.782 33.0314 44.104C26.8457 48.5575 17.6676 44.3929 16.9373 36.7972C16.0621 30.3285 22.0456 24.4252 28.511 25.3945Z" fill="white"/>
</svg>
