<svg width="50" height="50" viewBox="0 0 50 50" fill="none" xmlns="http://www.w3.org/2000/svg">
<path d="M22.0438 9.11895C22.0438 8.6875 22.3936 8.3377 22.825 8.3377H35.0434C35.4748 8.3377 35.8246 8.6875 35.8246 9.11895C35.8246 9.55039 35.4748 9.9002 35.0434 9.9002H22.825C22.3936 9.9002 22.0438 9.55049 22.0438 9.11895ZM15.603 10.7851C15.7556 10.9376 15.9555 11.0139 16.1555 11.0139C16.3555 11.0139 16.5554 10.9376 16.7079 10.7851L19.1028 8.39023C19.4079 8.08516 19.4078 7.59053 19.1028 7.28545C18.7977 6.98037 18.303 6.98037 17.998 7.28545L16.1556 9.12793L15.5106 8.48291C15.2055 8.17783 14.7109 8.17783 14.4058 8.48291C14.1006 8.78799 14.1007 9.28262 14.4058 9.5877L15.603 10.7851ZM22.825 18.2329H35.0434C35.4748 18.2329 35.8246 17.8831 35.8246 17.4517C35.8246 17.0202 35.4748 16.6704 35.0434 16.6704H22.825C22.3936 16.6704 22.0438 17.0202 22.0438 17.4517C22.0438 17.8831 22.3936 18.2329 22.825 18.2329ZM15.603 19.2015C15.7556 19.354 15.9555 19.4303 16.1555 19.4303C16.3555 19.4303 16.5554 19.354 16.7079 19.2015L19.1028 16.8066C19.4079 16.5016 19.4078 16.0069 19.1028 15.7019C18.7977 15.3968 18.303 15.3968 17.998 15.7019L16.1556 17.5443L15.5106 16.8993C15.2055 16.5942 14.7109 16.5942 14.4058 16.8993C14.1006 17.2044 14.1007 17.699 14.4058 18.0041L15.603 19.2015ZM46.5896 33.0605L43.1348 35.0551C42.777 35.2617 42.3792 35.3672 41.9755 35.3672C41.7721 35.3672 41.5673 35.3405 41.3653 35.2863C40.7623 35.1248 40.2591 34.7394 39.9485 34.2014L39.8539 34.0377L38.1063 34.9301C38.6288 35.7586 38.5532 36.7803 38.0941 37.5697C37.8632 37.9665 37.5333 38.3084 37.1381 38.5445C37.3673 38.9197 37.4891 39.3499 37.4874 39.808C37.4839 40.7575 36.9492 41.6758 36.1252 42.1475C35.6674 42.4095 35.1611 42.5111 34.6541 42.4525C34.6281 42.8785 34.497 43.2971 34.2826 43.6651C33.8293 44.4435 32.9947 45.0064 32.0349 44.9818C32.0246 45.4419 31.8904 45.8973 31.6592 46.294C31.2164 47.0541 30.4109 47.6116 29.4784 47.6116C29.0537 47.6116 28.6027 47.4959 28.1477 47.231L26.0844 46.0295L25.683 46.6002C25.1802 47.315 24.4434 47.7121 23.6358 47.7121C23.5617 47.7121 23.4871 47.7088 23.412 47.7021C22.4858 47.6189 21.6328 47.0308 21.2229 46.1972C20.3527 46.6469 19.3405 46.4832 18.593 45.9574C18.1103 45.6179 17.7322 45.1235 17.5598 44.5544C16.8421 44.7113 16.0904 44.5218 15.5022 44.108C14.7695 43.5927 14.2783 42.7206 14.3806 41.772C13.9199 41.7236 13.4745 41.5503 13.0966 41.2845C12.0493 40.5477 11.4955 39.0816 12.4636 37.7055L12.53 37.611L9.94006 34.3768C9.62697 34.8229 9.17131 35.1431 8.63625 35.2864C8.4343 35.3406 8.22931 35.3673 8.02599 35.3673C7.62228 35.3673 7.22453 35.2618 6.86662 35.0552L3.41193 33.0605C2.29806 32.4176 1.91506 30.9882 2.55812 29.8742L8.62141 19.3723C8.80773 19.0496 9.06027 18.7887 9.35178 18.5958V3.06641C9.35178 2.63496 9.70158 2.28516 10.133 2.28516H39.8684C40.2998 2.28516 40.6496 2.63496 40.6496 3.06641V18.5958C40.9411 18.7886 41.1938 19.0495 41.38 19.3722L47.4433 29.8741C48.0863 30.9882 47.7033 32.4175 46.5896 33.0605ZM10.9143 3.84766V18.2223C11.2204 18.2579 11.5243 18.3548 11.8077 18.5185L15.2625 20.5131C15.8006 20.8237 16.186 21.3269 16.3475 21.9299C16.4482 22.3058 16.4541 22.6915 16.3692 23.0591L20.7006 24.6063C22.5276 22.9733 23.8752 22.3932 26.6552 23.0051C29.2613 23.5788 31.4474 23.5841 33.6224 23.0117C33.5485 22.6584 33.5573 22.2896 33.6538 21.9298C33.8153 21.3268 34.2007 20.8235 34.7389 20.513L38.1936 18.5184C38.477 18.3547 38.7809 18.2579 39.087 18.2223V3.84766H10.9143ZM8.69982 33.4201L14.7631 22.9182C14.8651 22.7415 14.8918 22.5342 14.8383 22.3344C14.7848 22.1346 14.6579 21.9683 14.4813 21.8663L11.0266 19.8717C10.9057 19.8019 10.7734 19.7687 10.6428 19.7687C10.3764 19.7687 10.1171 19.9068 9.97463 20.1535L3.91135 30.6555C3.69904 31.0232 3.82551 31.4951 4.19318 31.7073L7.64797 33.702C7.82472 33.8041 8.03215 33.8309 8.23185 33.7771C8.43166 33.7236 8.59787 33.5969 8.69982 33.4201ZM15.4011 39.7723L17.1966 37.2196L17.1969 37.2191C17.7425 36.4408 17.0794 35.9159 16.9409 35.8186C16.8024 35.7211 16.0835 35.2748 15.5358 36.0535L13.7415 38.6042C13.1936 39.3832 13.857 39.9089 13.9956 40.0063C14.1341 40.1039 14.8526 40.5504 15.4006 39.7729L15.4011 39.7723ZM17.9592 42.3786L20.4674 38.8128L20.8487 38.2706C21.3967 37.4916 20.7331 36.9659 20.5945 36.8685C20.4559 36.7709 19.7368 36.3241 19.1888 37.103L18.4752 38.1176C18.4751 38.1178 18.475 38.1179 18.4749 38.1181L18.4746 38.1186L16.6791 40.6712L16.147 41.4277C15.599 42.2068 16.2626 42.7325 16.4012 42.83C16.5398 42.9273 17.2589 43.374 17.8069 42.5953L17.9592 42.3786ZM21.4654 43.6372C21.4659 43.6364 21.4665 43.6356 21.4671 43.6349L22.3668 42.3557L23.4046 40.8803C23.9524 40.1015 23.2891 39.5758 23.1506 39.4782C23.0122 39.381 22.2941 38.9343 21.7462 39.7107L21.7454 39.7119L19.2373 43.2776L19.2368 43.2784C18.6903 44.0568 19.3533 44.5821 19.4919 44.6796C19.6305 44.777 20.3496 45.2239 20.8975 44.4449L21.4654 43.6372ZM25.0502 43.0201C24.9116 42.9226 24.193 42.476 23.6452 43.2541L23.6448 43.2547L22.7451 44.5339C22.5164 44.8591 22.4727 45.1799 22.6153 45.4874C22.7789 45.8403 23.164 46.1112 23.5515 46.1459C23.889 46.1762 24.1762 46.0266 24.405 45.7014L25.3046 44.4224C25.8524 43.6434 25.1888 43.1176 25.0502 43.0201ZM36.3889 35.4041L26.728 29.812C25.8596 29.3104 25.0011 29.6719 23.6722 30.3026C23.6076 30.3332 23.5432 30.3639 23.4785 30.3943C23.3816 30.5891 23.2837 30.7981 23.1819 31.0157C22.6801 32.0878 22.1113 33.3027 21.1276 33.8338C19.9696 34.4587 18.9363 34.5541 18.218 34.1021C17.8873 33.894 17.3406 33.3769 17.3941 32.2501L17.6009 27.8956C17.6103 27.6972 17.695 27.5098 17.8378 27.3715C18.2442 26.978 18.6087 26.6187 18.9613 26.2714C19.1226 26.1126 19.2778 25.9598 19.4292 25.8113L15.6718 24.469L10.7855 32.9325L13.466 36.28L14.2577 35.1544C15.2254 33.7784 16.792 33.804 17.8394 34.5399C18.1803 34.7795 18.469 35.0963 18.6699 35.4621C19.5802 34.8782 20.6898 35.0249 21.4935 35.5902C22.1679 36.0646 22.6377 36.8414 22.6284 37.7018C23.1375 37.7273 23.6345 37.9078 24.0499 38.2002C24.9767 38.8524 25.5168 40.0756 24.9576 41.3022C25.313 41.3811 25.652 41.5327 25.9492 41.7419C26.8413 42.3695 27.3746 43.5259 26.9155 44.7053L28.9339 45.8806C29.757 46.3597 30.2238 45.6538 30.3091 45.5074C30.3944 45.3611 30.7778 44.6074 29.9568 44.1278L29.9557 44.1271C29.9556 44.1271 29.9556 44.127 29.9554 44.127C29.9554 44.127 29.9554 44.127 29.9553 44.127L27.3545 42.6127C26.9817 42.3956 26.8554 41.9174 27.0725 41.5445C27.2896 41.1717 27.7678 41.0455 28.1407 41.2625L30.7415 42.7769C30.7416 42.777 30.7418 42.777 30.7419 42.7771L30.7422 42.7772C30.7428 42.7775 30.7434 42.7779 30.744 42.7782L31.5572 43.252C32.3802 43.731 32.8471 43.0251 32.9324 42.8788C33.0177 42.7324 33.401 41.9787 32.58 41.4991L32.5788 41.4984C32.5787 41.4984 32.5787 41.4983 32.5786 41.4983C32.5784 41.4982 32.5782 41.498 32.578 41.4979L29.3898 39.6415C29.0169 39.4244 28.8906 38.9462 29.1077 38.5733C29.3249 38.2005 29.8031 38.0743 30.176 38.2913L33.3652 40.1482L33.3653 40.1483C33.366 40.1487 33.3665 40.149 33.3671 40.1494L34.3878 40.7438C34.7316 40.9439 35.0549 40.9599 35.349 40.7915C35.6867 40.5982 35.9236 40.1914 35.9249 39.8023C35.9262 39.4634 35.7526 39.19 35.4089 38.9899L34.5845 38.5099C34.5843 38.5098 34.584 38.5097 34.5838 38.5095L34.5831 38.5091C34.583 38.509 34.5828 38.5089 34.5827 38.5088L31.4251 36.6703C31.0523 36.4532 30.926 35.975 31.1431 35.6021C31.3603 35.2293 31.8384 35.1031 32.2113 35.3201L35.369 37.1586C36.1921 37.6367 36.6583 36.9307 36.7435 36.7843C36.8284 36.6378 37.2115 35.8832 36.3889 35.4041ZM39.0716 32.6827L34.3142 24.4425C31.033 25.3687 28.2023 24.9456 26.3194 24.5311C23.5687 23.9259 22.8947 24.5898 20.058 27.3847C19.7814 27.6572 19.4744 27.9596 19.147 28.2783L18.9548 32.3245C18.9422 32.5897 18.9936 32.7443 19.0501 32.7799C19.1822 32.8629 19.6618 32.8496 20.3854 32.459C20.9151 32.173 21.3675 31.2064 21.7667 30.3535C21.9115 30.0439 22.0614 29.724 22.2157 29.4333C22.2959 29.2824 22.4234 29.162 22.5785 29.0903C22.7199 29.0251 22.8612 28.9581 23.0021 28.8911C24.3539 28.2493 25.8862 27.5219 27.5101 28.4593L36.8054 33.8397L39.0716 32.6827ZM46.0901 30.6554L40.0269 20.1535C39.8146 19.7857 39.3426 19.6594 38.9749 19.8717L35.5201 21.8663C35.3435 21.9683 35.2167 22.1346 35.1631 22.3344C35.1096 22.5342 35.1362 22.7415 35.2383 22.9182L41.3016 33.4202C41.4035 33.5969 41.5698 33.7236 41.7696 33.7771C41.9696 33.8311 42.1768 33.8041 42.3534 33.702L45.8083 31.7074C46.176 31.4951 46.3025 31.0231 46.0901 30.6554Z" fill="white"/>
</svg>
