<svg width="40" height="40" viewBox="0 0 40 40" fill="none" xmlns="http://www.w3.org/2000/svg">
<path d="M17.635 7.29516C17.635 6.95 17.9149 6.67016 18.26 6.67016H28.0347C28.3799 6.67016 28.6597 6.95 28.6597 7.29516C28.6597 7.64031 28.3799 7.92016 28.0347 7.92016H18.26C17.9149 7.92016 17.635 7.64039 17.635 7.29516ZM12.4824 8.62805C12.6045 8.75008 12.7644 8.81109 12.9244 8.81109C13.0844 8.81109 13.2443 8.75008 13.3663 8.62805L15.2822 6.71219C15.5263 6.46812 15.5263 6.07242 15.2822 5.82836C15.0381 5.5843 14.6424 5.5843 14.3984 5.82836L12.9245 7.30234L12.4085 6.78633C12.1644 6.54226 11.7687 6.54226 11.5246 6.78633C11.2805 7.03039 11.2806 7.42609 11.5246 7.67016L12.4824 8.62805ZM18.26 14.5863H28.0347C28.3799 14.5863 28.6597 14.3065 28.6597 13.9613C28.6597 13.6162 28.3799 13.3363 28.0347 13.3363H18.26C17.9149 13.3363 17.635 13.6162 17.635 13.9613C17.635 14.3065 17.9149 14.5863 18.26 14.5863ZM12.4824 15.3612C12.6045 15.4832 12.7644 15.5442 12.9244 15.5442C13.0844 15.5442 13.2443 15.4832 13.3663 15.3612L15.2822 13.4453C15.5263 13.2012 15.5263 12.8055 15.2822 12.5615C15.0381 12.3174 14.6424 12.3174 14.3984 12.5615L12.9245 14.0355L12.4085 13.5195C12.1644 13.2754 11.7687 13.2754 11.5246 13.5195C11.2805 13.7635 11.2806 14.1592 11.5246 14.4033L12.4824 15.3612ZM37.2717 26.4484L34.5078 28.0441C34.2216 28.2094 33.9034 28.2937 33.5804 28.2937C33.4177 28.2937 33.2538 28.2724 33.0922 28.2291C32.6099 28.0998 32.2073 27.7915 31.9588 27.3611L31.8831 27.2302L30.485 27.9441C30.9031 28.6069 30.8426 29.4242 30.4752 30.0558C30.2906 30.3732 30.0267 30.6467 29.7105 30.8356C29.8938 31.1358 29.9913 31.4799 29.9899 31.8464C29.9871 32.606 29.5594 33.3406 28.9002 33.718C28.5339 33.9276 28.1288 34.0089 27.7233 33.962C27.7025 34.3028 27.5976 34.6377 27.4261 34.9321C27.0635 35.5548 26.3958 36.0052 25.6279 35.9855C25.6197 36.3535 25.5123 36.7178 25.3274 37.0352C24.9731 37.6433 24.3287 38.0893 23.5827 38.0893C23.243 38.0893 22.8821 37.9967 22.5181 37.7848L20.8675 36.8236L20.5464 37.2802C20.1442 37.852 19.5547 38.1697 18.9086 38.1697C18.8494 38.1697 18.7897 38.167 18.7296 38.1616C17.9886 38.0952 17.3063 37.6246 16.9783 36.9577C16.2821 37.3175 15.4724 37.1866 14.8744 36.7659C14.4882 36.4943 14.1858 36.0988 14.0478 35.6435C13.4737 35.7691 12.8723 35.6174 12.4017 35.2864C11.8156 34.8741 11.4227 34.1765 11.5045 33.4176C11.136 33.3789 10.7796 33.2402 10.4773 33.0276C9.63947 32.4381 9.19642 31.2653 9.97087 30.1644L10.024 30.0888L7.95205 27.5014C7.70158 27.8583 7.33705 28.1144 6.909 28.2291C6.74744 28.2725 6.58345 28.2938 6.4208 28.2938C6.09783 28.2938 5.77962 28.2095 5.4933 28.0441L2.72955 26.4484C1.83845 25.9341 1.53205 24.7905 2.0465 23.8994L6.89712 15.4978C7.04619 15.2397 7.24822 15.0309 7.48142 14.8766V2.45312C7.48142 2.10797 7.76126 1.82812 8.10642 1.82812H31.8947C32.2399 1.82812 32.5197 2.10797 32.5197 2.45312V14.8766C32.7529 15.0309 32.955 15.2396 33.104 15.4977L37.9546 23.8993C38.4691 24.7905 38.1627 25.934 37.2717 26.4484ZM8.73142 3.07813V14.5778C8.97634 14.6063 9.21947 14.6838 9.44619 14.8148L12.21 16.4105C12.6405 16.659 12.9488 17.0615 13.078 17.5439C13.1585 17.8446 13.1633 18.1532 13.0953 18.4473L16.5605 19.6851C18.022 18.3787 19.1002 17.9145 21.3242 18.4041C23.4091 18.863 25.1579 18.8673 26.8979 18.4094C26.8388 18.1267 26.8459 17.8317 26.9231 17.5438C27.0523 17.0614 27.3606 16.6588 27.7911 16.4104L30.5549 14.8147C30.7816 14.6837 31.0247 14.6063 31.2696 14.5778V3.07813H8.73142ZM6.95986 26.7361L11.8105 18.3345C11.892 18.1932 11.9135 18.0273 11.8706 17.8675C11.8278 17.7077 11.7263 17.5746 11.585 17.493L8.82126 15.8973C8.72455 15.8415 8.61869 15.8149 8.51423 15.8149C8.30111 15.8149 8.09369 15.9255 7.9797 16.1228L3.12908 24.5244C2.95923 24.8186 3.0604 25.1961 3.35455 25.3659L6.11837 26.9616C6.25978 27.0433 6.42572 27.0647 6.58548 27.0217C6.74533 26.9789 6.8783 26.8775 6.95986 26.7361ZM12.3209 31.8178L13.7573 29.7757L13.7575 29.7753C14.194 29.1527 13.6635 28.7327 13.5527 28.6548C13.4419 28.5769 12.8668 28.2198 12.4286 28.8428L10.9932 30.8834C10.5549 31.5066 11.0856 31.9271 11.1965 32.0051C11.3073 32.0831 11.882 32.4403 12.3205 31.8183L12.3209 31.8178ZM14.3674 33.9029L16.3739 31.0502L16.679 30.6165C17.1174 29.9933 16.5865 29.5727 16.4756 29.4948C16.3647 29.4167 15.7895 29.0593 15.351 29.6824L14.7802 30.4941C14.7801 30.4942 14.78 30.4943 14.7799 30.4944L14.7797 30.4948L13.3433 32.537L12.9176 33.1422C12.4792 33.7655 13.0101 34.186 13.121 34.264C13.2318 34.3419 13.8071 34.6992 14.2455 34.0762L14.3674 33.9029ZM17.1723 34.9098C17.1727 34.9091 17.1732 34.9085 17.1737 34.9079L17.8935 33.8845L18.7237 32.7042C19.1619 32.0812 18.6313 31.6606 18.5205 31.5826C18.4098 31.5048 17.8352 31.1474 17.397 31.7686L17.3963 31.7695L15.3899 34.6221L15.3895 34.6227C14.9522 35.2455 15.4827 35.6657 15.5935 35.7437C15.7044 35.8216 16.2797 36.1791 16.718 35.5559L17.1723 34.9098ZM20.0402 34.4161C19.9293 34.338 19.3544 33.9808 18.9162 34.6033L18.9159 34.6037L18.1961 35.6271C18.0131 35.8873 17.9781 36.1439 18.0922 36.3899C18.2231 36.6723 18.5312 36.889 18.8412 36.9167C19.1112 36.9409 19.341 36.8212 19.524 36.5611L20.2437 35.5379C20.6819 34.9147 20.151 34.4941 20.0402 34.4161ZM29.1111 28.3233L21.3824 23.8496C20.6877 23.4484 20.0009 23.7375 18.9377 24.2421C18.8861 24.2666 18.8345 24.2911 18.7828 24.3155C18.7052 24.4712 18.627 24.6385 18.5455 24.8126C18.1441 25.6702 17.6891 26.6422 16.902 27.067C15.9757 27.5669 15.1491 27.6433 14.5744 27.2817C14.3099 27.1152 13.8725 26.7015 13.9152 25.8001L14.0807 22.3165C14.0882 22.1577 14.156 22.0078 14.2702 21.8972C14.5953 21.5824 14.887 21.295 15.1691 21.0171C15.2981 20.8901 15.4222 20.7678 15.5434 20.6491L12.5374 19.5752L8.62837 26.346L10.7728 29.024L11.4062 28.1235C12.1803 27.0227 13.4336 27.0432 14.2715 27.632C14.5442 27.8236 14.7752 28.077 14.936 28.3697C15.6642 27.9026 16.5518 28.0199 17.1948 28.4722C17.7343 28.8516 18.1102 29.4731 18.1027 30.1614C18.51 30.1819 18.9076 30.3262 19.2399 30.5602C19.9813 31.0819 20.4135 32.0605 19.9661 33.0418C20.2504 33.1048 20.5216 33.2262 20.7594 33.3935C21.4731 33.8956 21.8997 34.8207 21.5324 35.7642L23.1471 36.7044C23.8056 37.0877 24.1791 36.523 24.2473 36.4059C24.3155 36.2889 24.6222 35.6859 23.9654 35.3023L23.9645 35.3017C23.9645 35.3016 23.9645 35.3016 23.9643 35.3016C23.9643 35.3016 23.9643 35.3016 23.9642 35.3016L21.8836 34.0902C21.5853 33.9165 21.4843 33.5339 21.658 33.2356C21.8317 32.9373 22.2142 32.8364 22.5126 33.01L24.5932 34.2215C24.5933 34.2216 24.5935 34.2216 24.5935 34.2216L24.5938 34.2218C24.5942 34.222 24.5947 34.2223 24.5952 34.2226L25.2458 34.6016C25.9042 34.9848 26.2777 34.4201 26.346 34.303C26.4142 34.1859 26.7208 33.583 26.064 33.1993L26.0631 33.1987C26.063 33.1987 26.063 33.1987 26.0629 33.1987C26.0627 33.1986 26.0626 33.1984 26.0624 33.1984L23.5118 31.7132C23.2135 31.5395 23.1125 31.157 23.2862 30.8587C23.4599 30.5604 23.8425 30.4595 24.1408 30.633L26.6921 32.1186L26.6923 32.1187C26.6928 32.119 26.6932 32.1192 26.6937 32.1195L27.5102 32.595C27.7852 32.7552 28.0439 32.7679 28.2792 32.6332C28.5494 32.4786 28.7388 32.1531 28.7399 31.8419C28.741 31.5707 28.602 31.352 28.3271 31.1919L27.6676 30.8079C27.6674 30.8078 27.6672 30.8077 27.667 30.8076L27.6665 30.8073C27.6664 30.8072 27.6663 30.8071 27.6662 30.807L25.1401 29.3362C24.8418 29.1626 24.7408 28.78 24.9145 28.4817C25.0882 28.1834 25.4707 28.0825 25.7691 28.2561L28.2952 29.7269C28.9537 30.1094 29.3267 29.5445 29.3948 29.4274C29.4627 29.3102 29.7692 28.7066 29.1111 28.3233ZM31.2573 26.1462L27.4513 19.554C24.8264 20.295 22.5618 19.9565 21.0555 19.6248C18.8549 19.1407 18.3158 19.6719 16.0464 21.9077C15.8251 22.1258 15.5795 22.3677 15.3176 22.6227L15.1638 25.8596C15.1538 26.0718 15.1949 26.1955 15.2401 26.2239C15.3458 26.2903 15.7295 26.2797 16.3083 25.9672C16.732 25.7384 17.094 24.9652 17.4134 24.2828C17.5292 24.0352 17.6492 23.7792 17.7726 23.5466C17.8367 23.4259 17.9387 23.3296 18.0628 23.2723C18.176 23.2201 18.2889 23.1665 18.4017 23.1129C19.4831 22.5995 20.7089 22.0175 22.0081 22.7674L29.4443 27.0718L31.2573 26.1462ZM36.872 24.5243L32.0215 16.1228C31.8517 15.8286 31.4741 15.7275 31.1799 15.8973L28.4161 17.493C28.2748 17.5746 28.1734 17.7077 28.1305 17.8675C28.0877 18.0273 28.109 18.1932 28.1906 18.3345L33.0413 26.7362C33.1228 26.8775 33.2559 26.9789 33.4157 27.0217C33.5757 27.0648 33.7414 27.0433 33.8827 26.9616L36.6467 25.3659C36.9408 25.1961 37.042 24.8185 36.872 24.5243Z" fill="white"/>
</svg>
