<svg width="18" height="18" viewBox="0 0 18 18" fill="none" xmlns="http://www.w3.org/2000/svg">
<path d="M8.99861 1.7998C9.49642 1.7998 9.89861 2.20199 9.89861 2.6998V7.44168L13.9486 5.10449C14.3789 4.85699 14.9302 5.00324 15.1777 5.43355C15.4252 5.86387 15.2789 6.41512 14.8486 6.66262L10.7986 8.9998L14.8486 11.337C15.2789 11.5845 15.428 12.1357 15.1777 12.5661C14.9274 12.9964 14.3789 13.1454 13.9486 12.8951L9.89861 10.5579V15.2998C9.89861 15.7976 9.49642 16.1998 8.99861 16.1998C8.5008 16.1998 8.09861 15.7976 8.09861 15.2998V10.5579L4.04861 12.8951C3.6183 13.1426 3.06705 12.9964 2.81955 12.5661C2.57205 12.1357 2.7183 11.5873 3.14861 11.337L7.19861 8.9998L3.14861 6.66262C2.7183 6.4123 2.57205 5.86387 2.81955 5.43074C3.06705 4.99762 3.6183 4.85418 4.04861 5.10168L8.09861 7.44168V2.6998C8.09861 2.20199 8.5008 1.7998 8.99861 1.7998Z" fill="#CFF85E"/>
</svg>
