<svg width="54" height="60" viewBox="0 0 54 60" fill="none" xmlns="http://www.w3.org/2000/svg">
<path d="M29.5133 40.0969C35.0704 40.0969 39.5754 35.5919 39.5754 30.0348C39.5754 24.4776 35.0704 19.9727 29.5133 19.9727C23.9561 19.9727 19.4512 24.4776 19.4512 30.0348C19.4512 35.5919 23.9561 40.0969 29.5133 40.0969Z" fill="#E62415"/>
<path d="M41.4669 42.5188C38.4407 45.2424 34.431 46.7555 30.043 46.7555C27.8138 46.8186 25.5953 46.4248 23.524 45.5984C21.4527 44.7719 19.5725 43.5302 17.9992 41.9497C16.4258 40.3693 15.1926 38.4835 14.3754 36.4086C13.5582 34.3336 13.1744 32.1133 13.2476 29.8844C13.2476 20.1249 20.1322 13.316 30.043 13.316C34.3553 13.316 38.4407 14.7534 41.5425 17.477L43.6609 19.2927L53.0421 9.91151L50.6968 7.79317C45.0157 2.72604 37.6553 -0.0509384 30.043 0.000707639C12.6423 0.000707639 0.00797171 12.5594 0.00797171 29.8088C-0.0844811 33.7854 0.62806 37.7396 2.1028 41.4338C3.57754 45.128 5.78401 48.4859 8.58957 51.3056C11.3951 54.1253 14.7419 56.3486 18.4286 57.8419C22.1154 59.3352 26.066 60.0676 30.043 59.9951C37.9868 59.9951 45.4009 57.1959 50.8481 52.127L53.1177 50.0086L43.5852 40.6274L41.4669 42.5188Z" fill="white"/>
</svg>
