<svg width="50" height="50" viewBox="0 0 50 50" fill="none" xmlns="http://www.w3.org/2000/svg">
<path fill-rule="evenodd" clip-rule="evenodd" d="M10.2611 40.5843L9.58843 40.9727C6.80559 42.5793 3.21589 41.6141 1.61147 38.8352C0.00706207 36.0564 0.966081 32.4649 3.74892 30.8582C4.50392 30.4224 7.52383 28.6788 8.27892 28.2429C11.0515 25.7548 13.0699 22.2831 14.8593 19.1761C14.866 19.1629 14.873 19.1497 14.8805 19.1369C15.0445 18.8516 15.2076 18.5696 15.3691 18.2919C15.5643 17.9546 15.7573 17.6235 15.9487 17.3004C15.9492 17.2995 15.9498 17.2986 15.9503 17.2978L15.9507 17.2971C16.3862 16.5639 17.1126 16.1532 17.9607 16.1592C18.8087 16.1652 19.5324 16.5855 19.9555 17.3184L22.7784 22.208C24.4696 21.5827 26.4151 22.247 27.3472 23.8612C28.2791 25.4755 27.8817 27.4925 26.4945 28.6444L29.3175 33.5339C29.7531 34.2884 29.7426 35.1537 29.2911 35.8965C28.8403 36.6381 28.0852 37.0459 27.2146 37.0117H27.2141L27.2128 37.0116C26.853 36.9977 26.4918 36.9833 26.1293 36.9704C22.4499 36.8443 18.638 36.886 14.95 38.0677L19.0864 45.232C19.3029 45.6071 19.1744 46.0868 18.7992 46.3033L17.957 46.7897C16.2589 47.77 14.0714 47.1838 13.091 45.4859L10.2611 40.5843ZM8.45383 29.9531L4.53324 32.2167C2.49785 33.3918 1.79657 36.0185 2.9699 38.0509C4.14334 40.0833 6.76883 40.7893 8.80412 39.6142L12.7247 37.3506L8.45383 29.9531ZM15.557 21.0906C13.936 23.8563 12.0972 26.7789 9.73392 29.0331L14.1489 36.6801C17.322 35.6091 20.5859 35.3496 23.7934 35.3566L15.557 21.0906ZM27.959 34.3182L18.597 18.1028C18.4598 17.8651 18.2246 17.7297 17.9497 17.7278C17.6752 17.7259 17.4412 17.8602 17.3 18.0971L17.2994 18.0981C17.0281 18.56 16.7489 19.0382 16.4659 19.5277L25.6205 35.3839C25.8851 35.3921 26.1492 35.4013 26.4127 35.4111C26.7011 35.4213 26.9886 35.4325 27.2753 35.4442H27.276C27.5589 35.4554 27.8042 35.3227 27.9507 35.0817C28.0966 34.8417 28.0998 34.5621 27.959 34.3182ZM25.69 27.251C26.3355 26.5617 26.4853 25.5057 25.9886 24.6455C25.4921 23.7853 24.5026 23.3871 23.5829 23.6014L25.69 27.251ZM11.6196 39.8L14.4495 44.7016C14.9981 45.6518 16.2224 45.9798 17.1726 45.4312L17.3357 45.3371L13.509 38.7091L11.6196 39.8ZM49.4608 13.1209C49.4608 14.4331 48.3908 15.5006 47.0786 15.5006H40.1945L37.3003 18.5134C37.0785 18.7443 36.7387 18.8172 36.4419 18.6977C36.1449 18.5781 35.9504 18.2902 35.9504 17.9701V15.5006H35.3833C34.0712 15.5006 33.0012 14.4331 33.0012 13.1209V5.11697C33.0012 3.80511 34.0716 2.73472 35.3833 2.73472H47.0786C48.3904 2.73472 49.4608 3.80511 49.4608 5.11697V13.1209ZM47.8922 13.1209V5.11697C47.8922 4.66893 47.5266 4.30335 47.0786 4.30335H35.3833C34.9354 4.30335 34.5698 4.66893 34.5698 5.11697V13.1209C34.5698 13.5685 34.9357 13.932 35.3833 13.932H36.7347C37.1678 13.932 37.519 14.2831 37.519 14.7163V16.0215L39.2947 14.173C39.4426 14.019 39.6469 13.932 39.8603 13.932H47.0786C47.5263 13.932 47.8922 13.5685 47.8922 13.1209ZM36.899 7.39521C36.4662 7.39521 36.1147 7.04374 36.1147 6.61089C36.1147 6.17805 36.4662 5.82658 36.899 5.82658H45.4226C45.8556 5.82658 46.207 6.17805 46.207 6.61089C46.207 7.04374 45.8556 7.39521 45.4226 7.39521H36.899ZM36.899 9.93099C36.4662 9.93099 36.1147 9.57962 36.1147 9.14668C36.1147 8.71384 36.4662 8.36236 36.899 8.36236H45.4226C45.8556 8.36236 46.207 8.71384 46.207 9.14668C46.207 9.57962 45.8556 9.93099 45.4226 9.93099H36.899ZM36.899 12.4644C36.4662 12.4644 36.1147 12.113 36.1147 11.6801C36.1147 11.2473 36.4662 10.8958 36.899 10.8958H45.4226C45.8556 10.8958 46.207 11.2473 46.207 11.6801C46.207 12.113 45.8556 12.4644 45.4226 12.4644H36.899ZM42.0639 19.8051C46.1464 19.8051 49.4608 23.1195 49.4608 27.202C49.4608 31.2844 46.1464 34.5988 42.0639 34.5988C37.9815 34.5988 34.6671 31.2844 34.6671 27.202C34.6671 23.1195 37.9815 19.8051 42.0639 19.8051ZM42.0639 21.3737C38.8472 21.3737 36.2357 23.9853 36.2357 27.202C36.2357 30.4187 38.8472 33.0302 42.0639 33.0302C45.2806 33.0302 47.8922 30.4187 47.8922 27.202C47.8922 23.9853 45.2806 21.3737 42.0639 21.3737ZM45.4696 27.8812L40.6983 30.6359C40.4557 30.776 40.1567 30.776 39.914 30.6359C39.6714 30.4958 39.5219 30.2369 39.5219 29.9567V24.4473C39.5219 24.1671 39.6714 23.9082 39.914 23.7681C40.1567 23.628 40.4557 23.628 40.6983 23.7681L45.4696 26.5228C45.7123 26.6629 45.8618 26.9218 45.8618 27.202C45.8618 27.4822 45.7123 27.7411 45.4696 27.8812ZM43.5088 27.202L41.0905 25.8058V28.5982L43.5088 27.202ZM21.8889 16.3258C20.3325 15.4105 17.995 13.7811 16.3573 11.8735C15.1755 10.497 14.3672 8.96854 14.3395 7.45786C14.2987 5.19648 15.5738 3.56864 17.3125 2.97638C18.8211 2.46246 20.7243 2.72746 22.4335 4.15413C24.1427 2.72913 26.0462 2.46403 27.5554 2.97746C29.2951 3.56923 30.571 5.19629 30.5301 7.45776C30.5026 8.96844 29.6941 10.497 28.5124 11.8735C26.8747 13.7811 24.5372 15.4105 22.9813 16.3255C22.6361 16.5312 22.2342 16.5313 21.8889 16.3258ZM22.4348 14.8249C23.8708 13.9554 25.8883 12.5219 27.3223 10.8517C28.246 9.7757 28.9402 8.61011 28.9618 7.42933C28.9885 5.94521 28.1919 4.85089 27.0502 4.46246C25.8447 4.05246 24.3175 4.42335 22.9925 5.77031C22.8449 5.92021 22.6434 6.00462 22.4331 6.00452C22.2228 6.00452 22.0214 5.92001 21.8739 5.77001C20.5491 4.42197 19.0228 4.05089 17.8182 4.46119C16.6771 4.84991 15.8812 5.94511 15.9079 7.42933C15.9295 8.61011 16.6237 9.7757 17.5475 10.8517C18.9813 12.5219 20.9989 13.9554 22.4348 14.8249ZM26.5298 19.3026C26.4177 19.7207 25.9873 19.9692 25.5692 19.8572C25.1511 19.7451 24.9026 19.3147 25.0146 18.8966L25.7632 16.1027C25.8753 15.6845 26.3057 15.436 26.7238 15.5481C27.142 15.6601 27.3904 16.0905 27.2784 16.5086L26.5298 19.3026ZM30.4723 28.3907C30.0542 28.2782 29.8062 27.8476 29.9186 27.4295C30.0311 27.0116 30.4618 26.7634 30.8797 26.8759L33.6757 27.6281C34.0937 27.7405 34.3418 28.1711 34.2293 28.5891C34.1169 29.0072 33.6863 29.2552 33.2682 29.1428L30.4723 28.3907ZM30.3819 23.0332C30.007 23.2496 29.527 23.121 29.3105 22.7462C29.094 22.3713 29.2226 21.8912 29.5975 21.6747L32.1072 20.2258C32.4821 20.0094 32.9622 20.1381 33.1785 20.5129C33.395 20.8878 33.2664 21.3679 32.8915 21.5843L30.3819 23.0332Z" fill="white"/>
</svg>
