<svg width="50" height="50" viewBox="0 0 50 50" fill="none" xmlns="http://www.w3.org/2000/svg">
<path d="M32.0316 25.8446C37.5775 25.8446 42.0894 21.3327 42.0894 15.7869C42.0894 10.2411 37.5775 5.7292 32.0316 5.7292C26.4857 5.7292 21.9739 10.2411 21.9739 15.7869C21.9739 21.3327 26.4858 25.8446 32.0316 25.8446ZM26.116 22.147C26.7192 19.3717 29.1526 17.3923 32.0316 17.3923C34.9106 17.3923 37.344 19.3717 37.9473 22.147C36.3948 23.592 34.3148 24.4774 32.0316 24.4774C29.7484 24.4774 27.6685 23.592 26.116 22.147ZM32.0316 16.0033C30.6383 16.0033 29.5047 14.8697 29.5047 13.4764C29.5047 12.083 30.6383 10.9495 32.0316 10.9495C33.425 10.9495 34.5586 12.083 34.5586 13.4764C34.5586 14.8697 33.425 16.0033 32.0316 16.0033ZM32.0316 7.09629C36.8236 7.09629 40.7222 10.9948 40.7222 15.7868C40.7222 17.717 40.0894 19.502 39.0208 20.9458C38.5905 19.7466 37.8547 18.6666 36.8756 17.8229C36.1798 17.2233 35.3833 16.7644 34.5308 16.4597C35.3829 15.7447 35.9258 14.6729 35.9258 13.4763C35.9258 11.3291 34.1789 9.58223 32.0316 9.58223C29.8844 9.58223 28.1375 11.3291 28.1375 13.4763C28.1375 14.6729 28.6804 15.7447 29.5325 16.4597C28.6801 16.7644 27.8836 17.2233 27.1878 17.8229C26.2088 18.6667 25.4728 19.7466 25.0426 20.9458C23.9739 19.502 23.3411 17.717 23.3411 15.7868C23.3411 10.9948 27.2396 7.09629 32.0316 7.09629ZM47.9293 31.5086C47.2629 30.752 45.9126 30.3797 44.3985 31.2538C42.5097 32.3442 37.8189 34.6316 34.3003 35.9684C34.438 35.3138 34.3272 34.6274 33.9672 34.0216C33.4495 33.1505 32.539 32.6514 31.5307 32.6848C27.1778 32.6826 24.361 31.5142 21.8755 30.4832C19.6158 29.5458 17.6644 28.7361 15.3556 29.295C13.0246 29.8592 10.5431 31.7917 7.3408 35.5434C6.51375 35.1459 5.4905 35.2872 4.80583 35.9719L1.75779 39.0199C1.49089 39.2869 1.49089 39.7197 1.75779 39.9866L11.1802 49.4091C11.3085 49.5372 11.4823 49.6093 11.6636 49.6093C11.845 49.6093 12.0188 49.5372 12.147 49.4091L15.1951 46.3609C15.6135 45.9424 15.8441 45.3844 15.8441 44.7896C15.8441 44.5128 15.7922 44.2446 15.6966 43.994C17.6423 43.179 19.8114 43.1085 22.5836 43.2745C23.2066 43.3118 23.8606 43.3645 24.553 43.4202C26.1958 43.5525 27.8949 43.6895 29.536 43.653C32.9847 43.5769 35.0603 42.6083 37.8332 41.1394C40.6593 39.6424 46.6865 36.0674 47.8126 34.5873C48.6088 33.5405 48.6546 32.3321 47.9293 31.5087V31.5086ZM14.2283 45.3941L11.6635 47.9589L3.20789 39.5032L5.77263 36.9385C6.10593 36.6051 6.64841 36.6051 6.98181 36.9385L14.2284 44.1851C14.3886 44.3453 14.4769 44.56 14.4769 44.7895C14.4769 45.0191 14.3886 45.2339 14.2283 45.3941ZM46.7245 33.7595C45.9318 34.8014 40.8622 37.9877 37.1931 39.9312C34.593 41.3085 32.6533 42.2165 29.5056 42.2861C27.9343 42.3207 26.2711 42.1869 24.6627 42.0573C23.9631 42.001 23.3022 41.9478 22.6651 41.9097C20.2054 41.7625 17.3927 41.7105 14.8502 42.8735L8.39285 36.4163C14.7255 28.998 17.0963 29.9809 21.3515 31.746C23.8282 32.7734 26.9104 34.052 31.5425 34.052C31.5511 34.052 31.5596 34.0518 31.5682 34.0515C32.076 34.0321 32.5315 34.2823 32.7917 34.72C33.0518 35.1577 33.0527 35.6789 32.794 36.1141C32.3228 36.9069 30.6173 37.3184 28.2323 37.214C25.996 37.1164 23.7453 36.5821 22.8612 36.1221C22.5263 35.9479 22.1135 36.0779 21.9392 36.4129C21.7649 36.7478 21.8952 37.1605 22.2301 37.3349C23.4279 37.9583 25.9271 38.4818 28.1727 38.5799C28.4235 38.5908 28.6828 38.5972 28.9468 38.5972C30.143 38.5972 31.434 38.4657 32.4521 38.0366C36.0071 37.0346 42.6385 33.8484 45.0819 32.4377C45.9218 31.9528 46.6147 32.0846 46.9031 32.4121C47.1873 32.7348 47.1205 33.2385 46.7242 33.7594L46.7245 33.7595ZM15.4982 28.8344C17.6386 28.8344 19.5306 27.7527 20.6582 26.1079C20.8012 26.3021 20.9619 26.4907 21.145 26.6737C22.2407 27.7693 23.5804 28.1651 25.2418 27.8835C26.4401 27.6805 27.5757 28.1509 28.2794 29.1418C29.2551 30.5155 30.4825 31.1833 32.0318 31.1833C33.5811 31.1833 34.8086 30.5155 35.7842 29.1418C36.488 28.151 37.6235 27.6808 38.8219 27.8836C40.483 28.1647 41.8234 27.769 42.9186 26.6737C44.0143 25.578 44.41 24.2379 44.1284 22.577C43.9254 21.3786 44.3958 20.2432 45.3867 19.5394C46.7604 18.5637 47.4282 17.3362 47.4282 15.787C47.4282 14.2378 46.7604 13.0103 45.3867 12.0346C44.3959 11.3308 43.9255 10.1953 44.1286 8.99687C44.4097 7.33545 44.014 5.99541 42.9186 4.9001C41.8228 3.80439 40.4826 3.4085 38.8219 3.69033C37.6236 3.89307 36.488 3.42295 35.7843 2.43213C34.8087 1.0584 33.5812 0.390625 32.0319 0.390625C30.4826 0.390625 29.2552 1.0584 28.2795 2.43213C27.5757 3.42295 26.4399 3.89336 25.2418 3.69023C23.5806 3.40908 22.2403 3.80488 21.145 4.9001C20.0493 5.9958 19.6536 7.33594 19.9353 8.99697C20.1384 10.1952 19.6679 11.3308 18.677 12.0346C17.3033 13.0103 16.6355 14.2377 16.6355 15.787C16.6355 16.0121 16.6515 16.2306 16.6801 16.4434C16.2971 16.3698 15.9024 16.3299 15.4984 16.3299C12.0509 16.3299 9.24607 19.1347 9.24607 22.5822C9.24607 26.0298 12.0509 28.8346 15.4984 28.8346L15.4982 28.8344ZM18.0025 15.7869C18.0025 14.6827 18.4547 13.8692 19.4685 13.1491C20.8975 12.1342 21.5759 10.4966 21.2831 8.76836C21.0752 7.54248 21.3306 6.64766 22.1116 5.8668C22.9027 5.07568 23.7705 4.82793 25.0134 5.03818C26.7417 5.33105 28.3791 4.65273 29.394 3.22373C30.1141 2.20986 30.9276 1.75771 32.0318 1.75771C33.136 1.75771 33.9495 2.20986 34.6696 3.22373C35.6845 4.65273 37.3221 5.33105 39.0503 5.03828C40.2761 4.83047 41.171 5.08594 41.9519 5.8668C42.7431 6.65791 42.9909 7.52578 42.7805 8.76855C42.4877 10.4967 43.166 12.1343 44.595 13.1492C45.6089 13.8693 46.061 14.6828 46.061 15.787C46.061 16.8912 45.6089 17.7047 44.595 18.4247C43.166 19.4397 42.4876 21.0773 42.7804 22.8055C42.9883 24.0312 42.7328 24.9262 41.9519 25.707C41.1608 26.4981 40.2931 26.7458 39.0502 26.5356C37.3223 26.243 35.6844 26.9213 34.6695 28.3502C33.9495 29.3641 33.136 29.8161 32.0318 29.8161C30.9276 29.8161 30.1141 29.3641 29.394 28.3502C28.3791 26.9212 26.7414 26.2427 25.0133 26.5356C23.7874 26.7436 22.8926 26.488 22.1117 25.7071C21.7786 25.374 21.5447 25.0249 21.3991 24.6456C21.6259 23.9991 21.7506 23.3051 21.7506 22.5821C21.7506 20.1059 20.3035 17.9613 18.2106 16.9494C18.0716 16.6024 18.0025 16.2202 18.0025 15.7869ZM15.4982 17.697C18.1919 17.697 20.3834 19.8884 20.3834 22.5821C20.3834 25.2759 18.192 27.4673 15.4982 27.4673C12.8045 27.4673 10.6131 25.2759 10.6131 22.5821C10.6131 19.8884 12.8046 17.697 15.4982 17.697ZM12.5123 22.4391C12.3235 22.1121 12.4355 21.694 12.7625 21.5053C13.0893 21.3166 13.5075 21.4285 13.6963 21.7555L14.5406 23.2179L17.4088 20.3497C17.6758 20.0828 18.1086 20.0829 18.3755 20.3497C18.6424 20.6167 18.6424 21.0495 18.3755 21.3164L14.8773 24.8145C14.7483 24.9435 14.5741 25.0146 14.394 25.0146C14.3643 25.0146 14.3345 25.0127 14.3048 25.0088C14.094 24.9811 13.9082 24.8569 13.802 24.6729L12.5123 22.4391Z" fill="white"/>
</svg>
