<svg width="130" height="130" viewBox="0 0 130 130" fill="none" xmlns="http://www.w3.org/2000/svg">
<g clip-path="url(#clip0_1200_26)">
<path d="M97.1702 70.103L130 68.4739L97.4956 63.525L129.332 55.3092L96.5018 57.0087L126.034 42.5408L94.2153 50.8271L120.229 30.7058L90.7326 45.2354L112.174 20.2798L86.1947 40.4538L102.183 11.6765L80.7949 36.6762L90.6623 5.28348L74.7355 34.0784L78.1038 1.32968L68.2979 32.7488L65 0L61.7109 32.7488L51.8962 1.32968L55.2557 34.0696L39.3377 5.28348L49.2139 36.6762L27.8169 11.6765L43.7965 40.4362L17.8264 20.2709L39.2674 45.2266L9.77067 30.697L35.7847 50.8183L3.96631 42.532L33.4982 56.9999L0.66838 55.3004L32.5044 63.5162L0 68.4651L32.8298 70.0942L1.99635 81.4977L34.4832 76.4784L6.56948 93.8698L37.3853 82.4047L13.5347 105.062L41.4132 87.6177L22.6018 114.616L46.4085 91.9149L33.4102 122.154L52.1601 95.1202L45.5114 127.358L58.4481 97.0927L58.4129 130.009L65 97.762L71.5871 130.009L71.5519 97.0927L84.4886 127.358L77.8399 95.1202L96.5898 122.154L83.5915 91.9149L107.398 114.616L88.5868 87.6177L116.465 105.062L92.6147 82.4047L123.431 93.8698L95.5168 76.4872L128.004 81.5065L97.1614 70.103H97.1702ZM65 78.9792C57.2872 78.9792 51.0344 72.7183 51.0344 64.9956C51.0344 57.2729 57.2872 51.012 65 51.012C72.7128 51.012 78.9656 57.2729 78.9656 64.9956C78.9656 72.7183 72.7128 78.9792 65 78.9792Z" fill="white" fill-opacity="0.06"/>
</g>
<defs>
<clipPath id="clip0_1200_26">
<rect width="130" height="130" fill="white"/>
</clipPath>
</defs>
</svg>
