<svg width="100" height="100" viewBox="0 0 100 100" fill="none" xmlns="http://www.w3.org/2000/svg">
<path d="M49.9986 10.0002C52.7642 10.0002 54.9986 12.2346 54.9986 15.0002V41.344L77.4986 28.3596C79.8892 26.9846 82.9517 27.7971 84.3267 30.1877C85.7017 32.5784 84.8892 35.6409 82.4986 37.0159L59.9986 50.0002L82.4986 62.9846C84.8892 64.3596 85.7173 67.4221 84.3267 69.8127C82.9361 72.2034 79.8892 73.0315 77.4986 71.6409L54.9986 58.6565V85.0002C54.9986 87.7659 52.7642 90.0002 49.9986 90.0002C47.233 90.0002 44.9986 87.7659 44.9986 85.0002V58.6565L22.4986 71.6409C20.1079 73.0159 17.0454 72.2034 15.6704 69.8127C14.2954 67.4221 15.1079 64.3752 17.4986 62.9846L39.9986 50.0002L17.4986 37.0159C15.1079 35.6252 14.2954 32.5784 15.6704 30.1721C17.0454 27.7659 20.1079 26.969 22.4986 28.344L44.9986 41.344V15.0002C44.9986 12.2346 47.233 10.0002 49.9986 10.0002Z" fill="white"/>
</svg>
