<svg width="45" height="45" viewBox="0 0 45 45" fill="none" xmlns="http://www.w3.org/2000/svg">
<g clip-path="url(#clip0_666_579)">
<path d="M15.5768 20.7718H9.51903C8.79783 20.7718 8.1847 20.5194 7.67984 20.0146C7.17527 19.5097 6.92265 18.8968 6.92265 18.1754V17.3104C6.92265 15.3992 7.59886 13.7677 8.95118 12.4154C10.3034 11.0636 11.9352 10.3873 13.8461 10.3873H15.5768C16.0455 10.3873 16.451 10.216 16.7937 9.87358C17.1362 9.53098 17.3074 9.12548 17.3074 8.65671V5.19485C17.3074 4.72618 17.1361 4.3203 16.7937 3.97769C16.4511 3.63556 16.0456 3.46393 15.5768 3.46393H13.8461C11.971 3.46393 10.182 3.82936 8.47805 4.55918C6.77431 5.28948 5.30065 6.27666 4.0565 7.52082C2.81244 8.7644 1.82555 10.2382 1.09535 11.9421C0.365147 13.6458 0 15.4353 0 17.3103V36.3483C0 37.7914 0.504576 39.0167 1.5142 40.0267C2.52392 41.0361 3.75017 41.5408 5.19239 41.5408H15.5774C17.0196 41.5408 18.2454 41.0361 19.2553 40.0267C20.2647 39.0167 20.7696 37.7914 20.7696 36.3483V25.9642C20.7696 24.5214 20.2647 23.2961 19.2546 22.286C18.2452 21.2766 17.0189 20.7718 15.5768 20.7718Z" fill="#CFF85E"/>
<path d="M43.4875 22.286C42.4781 21.2766 41.2522 20.7718 39.8097 20.7718H33.752C33.0312 20.7718 32.4175 20.5194 31.9135 20.0146C31.4084 19.5097 31.1563 18.8968 31.1563 18.1754V17.3104C31.1563 15.3992 31.8325 13.7677 33.1842 12.4154C34.5359 11.0636 36.1676 10.3873 38.0795 10.3873H39.8098C40.2785 10.3873 40.6843 10.216 41.0267 9.87358C41.369 9.53098 41.5409 9.12548 41.5409 8.65671V5.19485C41.5409 4.72618 41.3691 4.3203 41.0267 3.97769C40.6844 3.63556 40.2786 3.46393 39.8098 3.46393H38.0795C36.2033 3.46393 34.4147 3.82936 32.7103 4.55918C31.0068 5.28948 29.5336 6.27666 28.2895 7.52082C27.0453 8.7644 26.058 10.2382 25.3281 11.9421C24.598 13.6458 24.2324 15.4353 24.2324 17.3103V36.3483C24.2324 37.7914 24.7375 39.0167 25.7468 40.0267C26.7562 41.0361 27.9822 41.5408 29.4246 41.5408H39.8091C41.2516 41.5408 42.4775 41.0361 43.4868 40.0267C44.4969 39.0167 45.0009 37.7914 45.0009 36.3483V25.9642C45.001 24.5213 44.4969 23.2961 43.4875 22.286Z" fill="#CFF85E"/>
</g>
<defs>
<clipPath id="clip0_666_579">
<rect width="45" height="45" fill="white"/>
</clipPath>
</defs>
</svg>
