<svg width="59" height="59" viewBox="0 0 59 59" fill="none" xmlns="http://www.w3.org/2000/svg">
<path d="M10.8529 21.7941C16.8529 21.7941 21.7059 16.9412 21.7059 10.9412C21.7059 4.94118 16.8529 0 10.8529 0C4.85294 0 0 4.85294 0 10.8529C0 16.8529 4.85294 21.7941 10.8529 21.7941ZM10.8529 1.76471C15.8824 1.76471 20.0294 5.82353 20.0294 10.8529C20.0294 15.8824 15.8824 20.0294 10.8529 20.0294C5.82353 20.0294 1.76471 15.8824 1.76471 10.8529C1.76471 5.82353 5.82353 1.76471 10.8529 1.76471Z" fill="white"/>
<path d="M10.8506 14.8238C9.96829 14.8238 9.35064 14.1179 9.35064 13.3238C9.35064 12.7943 8.9977 12.4414 8.46829 12.4414C7.93888 12.4414 7.58594 12.7943 7.58594 13.3238C7.58594 14.8238 8.64476 16.0591 9.96829 16.5002V17.4708C9.96829 18.0002 10.3212 18.3532 10.8506 18.3532C11.3801 18.3532 11.733 18.0002 11.733 17.4708V16.5002C13.1448 16.1473 14.1153 14.8238 14.1153 13.3238C14.1153 11.4708 12.6153 10.0591 10.8506 10.0591C9.96829 10.0591 9.35064 9.35317 9.35064 8.55905C9.35064 7.76494 10.0565 7.05905 10.8506 7.05905C11.6448 7.05905 12.3506 7.76494 12.3506 8.55905C12.3506 9.08846 12.7036 9.44141 13.233 9.44141C13.7624 9.44141 14.1153 9.08846 14.1153 8.55905C14.1153 7.05905 13.0565 5.82376 11.733 5.38258V4.32376C11.733 3.79435 11.3801 3.44141 10.8506 3.44141C10.3212 3.44141 9.96829 3.79435 9.96829 4.32376V5.29435C8.55653 5.64729 7.58594 6.97082 7.58594 8.47082C7.58594 10.3238 9.08594 11.7355 10.8506 11.7355C11.733 11.7355 12.3506 12.4414 12.3506 13.2355C12.4389 14.1179 11.733 14.8238 10.8506 14.8238Z" fill="white"/>
<path d="M56.9118 37.1453C56.1176 36.4394 55.0588 36.1747 54 36.4395L34.3235 40.41C34.4118 40.1453 34.4118 39.7924 34.4118 39.5277C34.4118 37.2336 32.5588 35.2924 30.1765 35.2924H17.9118C15 33.4395 7.85294 30.5277 0.264706 38.7336C0.0882353 38.8218 0 39.0865 0 39.263V57.3512C0 57.7042 0.176471 57.9689 0.441176 58.1453C0.529412 58.2336 0.705882 58.2336 0.882353 58.2336C1.05882 58.2336 1.14706 58.2336 1.32353 58.1453C1.41176 58.0571 1.5 58.0571 1.67647 57.8806C4.67647 55.3218 8.02941 54.3512 11.5588 55.1453L20.0294 57.1747C21.9706 57.6159 24 57.4394 25.8529 56.6453L56.2941 43.1453C57.6177 42.6159 58.4118 41.2924 58.4118 39.8806C58.2353 38.8218 57.7941 37.8512 56.9118 37.1453ZM55.4118 41.5571L24.9706 55.0571C23.4706 55.6747 21.8824 55.8512 20.2941 55.4983L11.8235 53.4689C10.8529 53.2042 9.97059 53.1159 9 53.1159C6.44118 53.1159 3.97059 53.91 1.67647 55.4983V39.6159C8.20588 32.7336 14.1176 34.9395 17.1176 36.8806C17.2941 36.9689 17.4706 37.0571 17.5588 37.0571H30.0882C31.4118 37.0571 32.5588 38.1159 32.5588 39.5277C32.5588 40.8512 31.5 41.9983 30.0882 41.9983H21.7059C21.1765 41.9983 20.8235 42.3512 20.8235 42.8806C20.8235 43.41 21.1765 43.763 21.7059 43.763H30.0882C31.2353 43.763 32.3824 43.2336 33.0882 42.4395L54.1765 38.2042C54.7059 38.1159 55.2353 38.2042 55.6765 38.5571C56.1176 38.91 56.2941 39.4395 56.2941 39.9689C56.4706 40.5865 56.0294 41.2924 55.4118 41.5571Z" fill="white"/>
<path d="M47.207 11.2066V31.9419C47.207 32.4713 47.56 32.8242 48.0894 32.8242H53.207C53.7364 32.8242 54.0894 32.4713 54.0894 31.9419V11.2066C54.0894 10.6772 53.7364 10.3242 53.207 10.3242H48.0894C47.56 10.3242 47.207 10.6772 47.207 11.2066ZM48.9717 12.0889H52.3247V31.0595H48.9717V12.0889Z" fill="white"/>
<path d="M24.8824 32.8242H30C30.5294 32.8242 30.8824 32.4713 30.8824 31.9419V24.7066C30.8824 24.1772 30.5294 23.8242 30 23.8242H24.8824C24.3529 23.8242 24 24.1772 24 24.7066V31.9419C24 32.4713 24.4412 32.8242 24.8824 32.8242ZM25.7647 25.5889H29.1176V31.0595H25.7647V25.5889Z" fill="white"/>
<path d="M36.5308 16.0586C36.0014 16.0586 35.6484 16.4115 35.6484 16.9409V31.9409C35.6484 32.4704 36.0014 32.8233 36.5308 32.8233H41.6484C42.1778 32.8233 42.5308 32.4704 42.5308 31.9409V16.9409C42.5308 16.4115 42.1778 16.0586 41.6484 16.0586H36.5308ZM40.6778 31.0586H37.3249V17.8233H40.6778V31.0586Z" fill="white"/>
<path d="M27.4418 18.0013C27.6183 18.0013 27.7065 18.0013 27.883 17.913L49.2359 5.20716L48.7948 6.97187C48.7065 7.41305 48.9712 7.94246 49.4124 8.03069H49.5889C49.9418 8.03069 50.383 7.76599 50.4712 7.32481L51.4418 3.53069C51.4418 3.44246 51.4418 3.35422 51.4418 3.17775C51.4418 3.08952 51.3536 2.91305 51.3536 2.82481C51.3536 2.73658 51.2654 2.64834 51.1771 2.64834C51.0889 2.5601 51.0007 2.5601 50.8242 2.47187L47.0301 1.50128C46.5889 1.41305 46.0595 1.67775 45.9712 2.11893C45.883 2.5601 46.1477 3.08952 46.5889 3.17775L48.3536 3.61893L27.0007 16.3248C26.5595 16.5895 26.4712 17.1189 26.6477 17.5601C26.8242 17.8248 27.0889 18.0013 27.4418 18.0013Z" fill="white"/>
</svg>
