<svg width="18" height="18" viewBox="0 0 18 18" fill="none" xmlns="http://www.w3.org/2000/svg">
<g clip-path="url(#clip0_1128_388)">
<path d="M16.471 2.96303C16.471 4.29264 15.3932 5.37052 14.0636 5.37052C12.734 5.37052 11.6562 4.29264 11.6562 2.96303C11.6562 1.63354 12.734 0.555664 14.0636 0.555664C15.3932 0.555664 16.471 1.63354 16.471 2.96303Z" fill="black"/>
<path d="M14.0645 5.92597C12.4304 5.92597 11.1016 4.59703 11.1016 2.96292C11.1016 1.32894 12.4304 0 14.0645 0C15.6986 0 17.0274 1.32894 17.0274 2.96292C17.0274 4.59703 15.6986 5.92597 14.0645 5.92597ZM14.0645 1.11111C13.043 1.11111 12.2127 1.94227 12.2127 2.96292C12.2127 3.9837 13.043 4.81486 14.0645 4.81486C15.0859 4.81486 15.9163 3.9837 15.9163 2.96292C15.9163 1.94227 15.0859 1.11111 14.0645 1.11111Z" fill="black"/>
<path d="M16.471 14.812C16.471 16.1415 15.3932 17.2194 14.0636 17.2194C12.734 17.2194 11.6562 16.1415 11.6562 14.812C11.6562 13.4824 12.734 12.4045 14.0636 12.4045C15.3932 12.4045 16.471 13.4824 16.471 14.812Z" fill="black"/>
<path d="M14.0645 17.7748C12.4304 17.7748 11.1016 16.4459 11.1016 14.8119C11.1016 13.1778 12.4304 11.8489 14.0645 11.8489C15.6986 11.8489 17.0274 13.1778 17.0274 14.8119C17.0274 16.4459 15.6986 17.7748 14.0645 17.7748ZM14.0645 12.96C13.043 12.96 12.2127 13.7912 12.2127 14.8119C12.2127 15.8326 13.043 16.6637 14.0645 16.6637C15.0859 16.6637 15.9163 15.8326 15.9163 14.8119C15.9163 13.7912 15.0859 12.96 14.0645 12.96Z" fill="black"/>
<path d="M6.10002 8.89174C6.10002 10.2214 5.02214 11.2991 3.69252 11.2991C2.36304 11.2991 1.28516 10.2214 1.28516 8.89174C1.28516 7.56212 2.36304 6.48438 3.69252 6.48438C5.02214 6.48438 6.10002 7.56212 6.10002 8.89174Z" fill="black"/>
<path d="M3.69339 11.8545C2.05941 11.8545 0.730469 10.5257 0.730469 8.89163C0.730469 7.25751 2.05941 5.92871 3.69339 5.92871C5.3275 5.92871 6.65644 7.25751 6.65644 8.89163C6.65644 10.5257 5.3275 11.8545 3.69339 11.8545ZM3.69339 7.03982C2.67193 7.03982 1.84158 7.87085 1.84158 8.89163C1.84158 9.91241 2.67193 10.7434 3.69339 10.7434C4.71498 10.7434 5.54533 9.91241 5.54533 8.89163C5.54533 7.87085 4.71498 7.03982 3.69339 7.03982Z" fill="black"/>
<path d="M5.4407 8.53473C5.18286 8.53473 4.93248 8.40059 4.79617 8.16065C4.59394 7.80583 4.71845 7.35323 5.07327 7.15018L11.9465 3.23172C12.3013 3.028 12.7539 3.15251 12.957 3.50869C13.1592 3.86351 13.0347 4.31612 12.6799 4.51916L5.8065 8.43762C5.69094 8.50353 5.56507 8.53473 5.4407 8.53473Z" fill="black"/>
<path d="M12.3125 14.6457C12.188 14.6457 12.0621 14.6145 11.9465 14.5486L5.07316 10.6301C4.71835 10.4279 4.59397 9.97526 4.7962 9.61963C4.99762 9.26413 5.4509 9.13894 5.80654 9.34266L12.6799 13.2611C13.0347 13.4634 13.1591 13.916 12.9569 14.2716C12.8199 14.5115 12.5695 14.6457 12.3125 14.6457Z" fill="black"/>
</g>
<defs>
<clipPath id="clip0_1128_388">
<rect width="17.7778" height="17.7778" fill="white"/>
</clipPath>
</defs>
</svg>
