<svg width="60" height="60" viewBox="0 0 60 60" fill="none" xmlns="http://www.w3.org/2000/svg">
<g clip-path="url(#clip0_591_97993)">
<path d="M13.2973 36.2586L11.2088 44.0553L3.57527 44.2168C1.29398 39.9855 0 35.1444 0 29.9998C0 25.0251 1.20984 20.3339 3.35438 16.2031H3.35602L10.152 17.4491L13.129 24.2042C12.5059 26.0207 12.1663 27.9707 12.1663 29.9998C12.1665 32.202 12.5654 34.312 13.2973 36.2586Z" fill="#FBBB00"/>
<path d="M59.4764 24.3965C59.821 26.2113 60.0006 28.0854 60.0006 30.0009C60.0006 32.1487 59.7748 34.2437 59.3446 36.2646C57.8842 43.1416 54.0682 49.1465 48.782 53.3959L48.7804 53.3943L40.2205 52.9575L39.0091 45.3948C42.5167 43.3377 45.258 40.1185 46.702 36.2646H30.6602V24.3965H46.936H59.4764Z" fill="#518EF8"/>
<path d="M48.7805 53.3943L48.7822 53.396C43.6411 57.5284 37.1102 60.0009 30.0009 60.0009C18.5762 60.0009 8.64324 53.6152 3.57617 44.218L13.2982 36.2598C15.8316 43.0213 22.3542 47.8345 30.0009 47.8345C33.2877 47.8345 36.3669 46.946 39.0091 45.3949L48.7805 53.3943Z" fill="#28B446"/>
<path d="M49.148 6.90656L39.4293 14.8631C36.6948 13.1538 33.4623 12.1664 29.9991 12.1664C22.1793 12.1664 15.5348 17.2004 13.1282 24.2044L3.35516 16.2033H3.35352C8.34641 6.57692 18.4046 0 29.9991 0C37.2782 0 43.9524 2.59289 49.148 6.90656Z" fill="#F14336"/>
</g>
<defs>
<clipPath id="clip0_591_97993">
<rect width="60" height="60" fill="white"/>
</clipPath>
</defs>
</svg>
