<svg width="123" height="50" viewBox="0 0 123 50" fill="none" xmlns="http://www.w3.org/2000/svg">
<rect width="50" height="50" rx="5" fill="url(#paint0_linear_493_718)"/>
<path d="M30.629 19.883V23.198H18.253V29.913H29.66V33.109H18.253V42H14.734V19.883H30.629ZM32.3545 33.551C32.3545 31.7263 32.6945 30.1397 33.3745 28.791C34.0658 27.4423 35.0348 26.3997 36.2815 25.663C37.5395 24.915 39.0072 24.541 40.6845 24.541C42.2712 24.541 43.6765 24.915 44.9005 25.663C46.1358 26.3997 47.1048 27.431 47.8075 28.757C48.5102 30.083 48.8615 31.63 48.8615 33.398V34.435H35.8905C36.1852 37.8237 37.8455 39.518 40.8715 39.518C42.0502 39.518 42.9965 39.2573 43.7105 38.736C44.4245 38.2033 44.8778 37.495 45.0705 36.611H48.6405C48.2892 38.4357 47.4618 39.858 46.1585 40.878C44.8552 41.8867 43.1042 42.391 40.9055 42.391C38.2648 42.391 36.1795 41.6033 34.6495 40.028C33.1195 38.4413 32.3545 36.2823 32.3545 33.551ZM40.5825 27.431C37.8738 27.431 36.3268 28.927 35.9415 31.919H45.1045C44.9912 30.5477 44.5208 29.4597 43.6935 28.655C42.8775 27.839 41.8405 27.431 40.5825 27.431Z" fill="black"/>
<path d="M53.612 25H57.42L61.568 31.681L65.648 25H69.456L64.271 33.517L69.456 42H65.648L61.517 35.285L57.42 42H53.612L58.78 33.483L53.612 25ZM70.2295 33.432C70.2295 31.6413 70.5752 30.083 71.2665 28.757C71.9578 27.4197 72.9212 26.3827 74.1565 25.646C75.4032 24.9093 76.8482 24.541 78.4915 24.541C80.1348 24.541 81.5742 24.9093 82.8095 25.646C84.0448 26.3827 85.0025 27.4197 85.6825 28.757C86.3738 30.083 86.7195 31.6413 86.7195 33.432C86.7195 35.2227 86.3738 36.7923 85.6825 38.141C85.0025 39.4783 84.0448 40.521 82.8095 41.269C81.5742 42.017 80.1348 42.391 78.4915 42.391C76.8482 42.391 75.4032 42.017 74.1565 41.269C72.9212 40.521 71.9578 39.4783 71.2665 38.141C70.5752 36.7923 70.2295 35.2227 70.2295 33.432ZM83.1325 33.432C83.1325 31.596 82.7245 30.1737 81.9085 29.165C81.1038 28.145 79.9648 27.635 78.4915 27.635C77.0068 27.635 75.8508 28.145 75.0235 29.165C74.2075 30.1737 73.7995 31.596 73.7995 33.432C73.7995 35.2907 74.2075 36.7357 75.0235 37.767C75.8508 38.787 77.0068 39.297 78.4915 39.297C79.9648 39.297 81.1038 38.787 81.9085 37.767C82.7245 36.7357 83.1325 35.2907 83.1325 33.432ZM89.6961 25H93.2151V27.771C93.7818 26.819 94.4958 26.088 95.3571 25.578C96.2184 25.0567 97.0911 24.796 97.9751 24.796H98.7741V28.417H97.8731C96.4904 28.417 95.3684 28.774 94.5071 29.488C93.6458 30.202 93.2151 31.1257 93.2151 32.259V42H89.6961V25ZM114.39 31.069V42H110.888V39.501C109.732 41.4277 107.85 42.391 105.244 42.391C104.133 42.391 103.141 42.1757 102.269 41.745C101.407 41.303 100.733 40.6967 100.246 39.926C99.7583 39.1553 99.5147 38.277 99.5147 37.291C99.5147 35.8063 100.002 34.639 100.977 33.789C101.963 32.9277 103.374 32.429 105.21 32.293L110.004 31.919C110.593 31.885 110.888 31.613 110.888 31.103V30.712C110.888 29.6807 110.548 28.8533 109.868 28.23C109.199 27.5953 108.287 27.278 107.131 27.278C104.943 27.278 103.736 28.3547 103.51 30.508H99.8887C99.968 29.3293 100.325 28.298 100.96 27.414C101.594 26.5187 102.444 25.8217 103.51 25.323C104.575 24.8243 105.788 24.575 107.148 24.575C108.576 24.575 109.834 24.8527 110.922 25.408C112.021 25.952 112.871 26.7113 113.472 27.686C114.084 28.6607 114.39 29.7883 114.39 31.069ZM103.051 37.053C103.051 37.8237 103.345 38.4413 103.935 38.906C104.524 39.3593 105.323 39.586 106.332 39.586C107.68 39.586 108.774 39.1667 109.613 38.328C110.463 37.4893 110.888 36.39 110.888 35.03V34.435L105.788 34.758C103.963 34.8827 103.051 35.6477 103.051 37.053Z" fill="white"/>
<path d="M117.598 37.988H121.576V42H117.598V37.988Z" fill="#CFF85E"/>
<defs>
<linearGradient id="paint0_linear_493_718" x1="0" y1="0" x2="50" y2="50" gradientUnits="userSpaceOnUse">
<stop offset="0.485883" stop-color="#CFF85E"/>
<stop offset="1" stop-color="white"/>
</linearGradient>
</defs>
</svg>
