<svg width="130" height="130" viewBox="0 0 130 130" fill="none" xmlns="http://www.w3.org/2000/svg">
<foreignObject x="-50" y="-50" width="230" height="230"><div xmlns="http://www.w3.org/1999/xhtml" style="backdrop-filter:blur(25px);clip-path:url(#bgblur_0_1188_29_clip_path);height:100%;width:100%"></div></foreignObject><circle data-figma-bg-blur-radius="50" cx="65" cy="65" r="65" fill="white" fill-opacity="0.06"/>
<path d="M66.8281 9.27344L68.9268 9.58274L69.4825 16.3647L72.2082 10.0664L74.7513 10.4411L75.5257 17.2553L78.0668 10.9298L80.1587 11.2381L76.4442 19.7049L73.7986 19.315L73.0875 12.5448L70.5377 18.8344L67.8032 18.4314L66.8281 9.27344Z" fill="white"/>
<path d="M86.9311 18.9626L85.2982 23.0169L83.4241 22.2746L83.747 21.4727C83.4169 21.7257 83.0512 21.8638 82.65 21.8869C82.2504 21.9058 81.826 21.8262 81.3767 21.6483C80.9574 21.4823 80.6193 21.25 80.3625 20.9515C80.1099 20.6546 79.9493 20.3204 79.8806 19.9489C79.8163 19.579 79.861 19.2031 80.0148 18.8212C80.5103 17.5907 81.5724 17.2389 83.2009 17.7658L84.6475 18.2206C84.888 18.3011 85.0441 18.2522 85.1159 18.074L85.1517 17.9849C85.2611 17.7133 85.2567 17.4533 85.1385 17.2047C85.0245 16.9579 84.805 16.7701 84.4798 16.6413C83.8465 16.3905 83.376 16.5486 83.0683 17.1155L81.1428 16.3529C81.3565 15.921 81.6562 15.5895 82.0419 15.3585C82.4337 15.125 82.8802 15.0017 83.3816 14.9887C83.8889 14.9732 84.4208 15.0756 84.977 15.2959C85.5718 15.5314 86.0477 15.8404 86.4046 16.2229C86.7659 16.607 86.9933 17.0341 87.0868 17.504C87.1846 17.9757 87.1327 18.4619 86.9311 18.9626ZM81.9582 19.4285C81.8693 19.6491 81.8861 19.86 82.0086 20.061C82.1353 20.2637 82.342 20.4218 82.6287 20.5353C83.0052 20.6845 83.3595 20.6919 83.6914 20.5577C84.0292 20.4209 84.27 20.1743 84.4135 19.8179L84.5109 19.576L83.0103 19.0703C82.4764 18.8933 82.1256 19.0127 81.9582 19.4285Z" fill="white"/>
<path d="M90.7401 24.1449L89.9029 25.6123L89.145 25.1871C88.5394 24.8473 88.1378 24.4147 87.9401 23.889C87.7486 23.3617 87.8321 22.7838 88.1906 22.1555L89.7221 19.4713L88.8559 18.9853L89.6488 17.5955L90.515 18.0815L91.3896 16.5485L93.1401 17.5305L92.2655 19.0635L93.3061 19.6473L92.5132 21.0372L91.4725 20.4533L90.0772 22.899C89.9365 23.1455 89.884 23.3444 89.9195 23.4955C89.9613 23.645 90.0684 23.7681 90.2408 23.8648L90.7401 24.1449Z" fill="white"/>
<path d="M92.8209 23.2892C93.2662 22.7123 93.7707 22.2954 94.3344 22.0386C94.9018 21.7846 95.4865 21.6961 96.0884 21.7732C96.694 21.8531 97.2767 22.1054 97.8365 22.5303C98.3378 22.9107 98.7187 23.3494 98.9792 23.8463C99.2397 24.3432 99.3535 24.8611 99.3206 25.3999C99.2904 25.9352 99.089 26.4555 98.7163 26.9609L97.0863 25.7238C97.3414 25.3707 97.4345 25.0358 97.3657 24.719C97.3006 24.4049 97.1089 24.1271 96.7906 23.8855C96.4211 23.605 96.0316 23.5194 95.6223 23.6288C95.213 23.7382 94.8207 24.0359 94.4454 24.5221C94.0674 25.0119 93.8758 25.4706 93.8707 25.8983C93.8684 26.3223 94.052 26.6745 94.4215 26.955C94.7362 27.1938 95.0465 27.3142 95.3524 27.3163C95.6648 27.3174 95.9515 27.164 96.2126 26.8558L97.8426 28.0929C97.4482 28.5588 96.9987 28.8706 96.494 29.0284C95.992 29.1825 95.4712 29.1958 94.9315 29.0681C94.3955 28.9432 93.8769 28.6906 93.3756 28.3101C92.8194 27.888 92.4234 27.3976 92.1874 26.8388C91.958 26.2791 91.8942 25.6927 91.996 25.0796C92.0979 24.4665 92.3729 23.8697 92.8209 23.2892Z" fill="white"/>
<path d="M103.358 32.0495C103.721 31.7193 103.905 31.3911 103.91 31.0646C103.915 30.7382 103.78 30.4268 103.506 30.1302C103.254 29.8573 102.952 29.7132 102.601 29.6979C102.253 29.6794 101.936 29.7998 101.651 30.059L98.7046 32.7344L97.3369 31.2535L104.473 24.7734L105.84 26.2543L103.042 28.7954C103.512 28.7092 103.956 28.7334 104.374 28.8681C104.792 29.0027 105.134 29.2132 105.398 29.4996C105.896 30.0388 106.127 30.6439 106.09 31.3149C106.054 31.986 105.701 32.6255 105.032 33.2333L101.841 36.1308L100.483 34.66L103.358 32.0495Z" fill="white"/>
<path d="M112.348 35.332L113.346 37.1887L108.341 42.3034L115.394 40.9989L116.392 42.8557L106.978 44.2978L105.899 42.2899L112.348 35.332Z" fill="white"/>
<path d="M117.809 44.918L118.535 46.8876L116.672 47.563L115.946 45.5934L117.809 44.918ZM115.242 45.8997L115.937 47.7857L109.446 50.1392L108.751 48.2533L115.242 45.8997Z" fill="white"/>
<path d="M121 56.1947L111.559 58.2963L111.117 56.3437L112.196 56.1036C111.74 55.9663 111.359 55.7443 111.054 55.4377C110.754 55.1346 110.553 54.7579 110.451 54.3076C110.327 53.7593 110.366 53.2448 110.569 52.7642C110.777 52.287 111.125 51.8724 111.612 51.5205C112.1 51.173 112.703 50.9193 113.423 50.7591C114.138 50.6 114.788 50.5746 115.375 50.6828C115.962 50.7956 116.451 51.024 116.84 51.368C117.231 51.7166 117.488 52.165 117.612 52.7134C117.714 53.1636 117.695 53.5894 117.554 53.9906C117.415 54.3963 117.171 54.7573 116.822 55.0737L120.558 54.2421L121 56.1947ZM113.871 52.7385C113.264 52.8736 112.82 53.1035 112.539 53.4282C112.264 53.7564 112.177 54.1434 112.278 54.5892C112.38 55.0394 112.626 55.3523 113.015 55.5279C113.409 55.7025 113.909 55.7223 114.516 55.5871C115.114 55.454 115.548 55.2261 115.82 54.9034C116.096 54.5797 116.183 54.1927 116.081 53.7425C115.981 53.2967 115.735 52.9838 115.345 52.8037C114.96 52.6271 114.469 52.6054 113.871 52.7385Z" fill="white"/>
<path d="M115.166 59.6999C115.912 59.6701 116.572 59.7924 117.146 60.0667C117.719 60.341 118.171 60.7368 118.501 61.2541C118.836 61.7712 119.017 62.3835 119.046 63.0911C119.073 63.7668 118.941 64.3711 118.649 64.904C118.362 65.4413 117.941 65.8697 117.387 66.189C116.838 66.5082 116.178 66.6831 115.409 66.7137L114.968 66.7314L114.765 61.7393C113.735 61.9267 113.239 62.4792 113.276 63.3968C113.29 63.7484 113.378 64.0284 113.538 64.2369C113.704 64.4498 113.923 64.5827 114.198 64.6358L114.28 66.6696C113.506 66.5725 112.894 66.2494 112.443 65.7004C111.996 65.1512 111.754 64.411 111.716 63.4797C111.67 62.352 111.954 61.4513 112.568 60.7775C113.181 60.1037 114.048 59.7445 115.166 59.6999ZM117.469 63.0855C117.436 62.2911 116.977 61.8316 116.092 61.7069L116.206 64.5351C116.61 64.4778 116.924 64.319 117.149 64.0585C117.378 63.7979 117.484 63.4735 117.469 63.0855Z" fill="white"/>
<path d="M115.43 68.7759C116.155 68.8764 116.769 69.109 117.272 69.4738C117.774 69.8386 118.139 70.3021 118.367 70.8642C118.595 71.4263 118.66 72.0535 118.562 72.7458C118.465 73.4336 118.23 74.0146 117.856 74.4887C117.482 74.9674 117.003 75.3139 116.419 75.5284C115.835 75.7428 115.18 75.7997 114.455 75.6993C113.725 75.5982 113.106 75.3649 112.599 74.9995C112.093 74.634 111.723 74.1699 111.491 73.6072C111.262 73.0497 111.196 72.427 111.293 71.7392C111.391 71.0468 111.627 70.4613 112.001 69.9827C112.38 69.5046 112.864 69.1587 113.452 68.9449C114.04 68.7312 114.7 68.6748 115.43 68.7759ZM114.74 73.6766C115.347 73.7606 115.834 73.699 116.203 73.4917C116.576 73.2896 116.794 72.9623 116.858 72.5098C116.922 72.0527 116.804 71.6719 116.502 71.3672C116.206 71.0631 115.754 70.8691 115.147 70.7851C114.531 70.6997 114.034 70.7624 113.655 70.9729C113.281 71.1841 113.062 71.5182 112.997 71.9752C112.934 72.4277 113.053 72.8018 113.356 73.0974C113.662 73.3982 114.124 73.5913 114.74 73.6766Z" fill="white"/>
<path d="M117.981 85.1368L117.315 86.8063L115.156 85.826L115.121 88.1857L113.308 88.071L113.594 85.7359L111.307 86.4373L110.868 84.6877L113.236 84.2316L111.82 82.3045L113.348 81.327L114.534 83.3999L115.934 81.4951L117.335 82.6421L115.729 84.3924L117.981 85.1368Z" fill="white"/>
<path d="M112.699 94.9609L111.377 96.6062L105.181 93.681L109.309 99.1785L107.706 101.172L101.373 98.4184L105.617 103.771L104.299 105.411L98.7754 97.9777L100.443 95.9037L106.706 98.6896L102.497 93.3474L104.221 91.2038L112.699 94.9609Z" fill="white"/>
<path d="M94.179 107.36L91.4526 103.932L93.0371 102.693L93.5764 103.371C93.5202 102.961 93.5822 102.578 93.7625 102.221C93.9455 101.869 94.227 101.544 94.6068 101.247C94.9614 100.969 95.3332 100.795 95.7222 100.723C96.1077 100.655 96.4799 100.684 96.8388 100.81C97.1941 100.94 97.5002 101.166 97.757 101.489C98.5845 102.529 98.3614 103.617 97.0877 104.753L95.9678 105.769C95.7774 105.935 95.7421 106.094 95.862 106.244L95.9219 106.32C96.1045 106.549 96.3339 106.675 96.6101 106.698C96.8826 106.723 97.1564 106.628 97.4313 106.413C97.9667 105.995 98.0636 105.511 97.722 104.964L99.35 103.691C99.6206 104.09 99.7605 104.513 99.7697 104.96C99.778 105.413 99.6627 105.858 99.4236 106.295C99.1838 106.739 98.8287 107.145 98.3584 107.512C97.8556 107.906 97.3479 108.16 96.8355 108.276C96.3195 108.394 95.8328 108.377 95.3755 108.222C94.9146 108.071 94.5157 107.783 94.179 107.36ZM96.2558 102.855C96.1074 102.668 95.9148 102.578 95.678 102.582C95.4376 102.59 95.1962 102.689 94.9539 102.878C94.6355 103.127 94.4521 103.428 94.4036 103.78C94.3543 104.139 94.4495 104.468 94.6892 104.77L94.8519 104.974L96.0432 103.938C96.4645 103.567 96.5354 103.207 96.2558 102.855Z" fill="white"/>
<path d="M87.7639 108.044L86.8984 106.593L87.648 106.153C88.2469 105.802 88.8253 105.672 89.3834 105.764C89.9399 105.863 90.4034 106.223 90.7739 106.844L92.357 109.499L93.2137 108.996L94.0334 110.371L93.1767 110.873L94.0809 112.389L92.3497 113.404L91.4456 111.888L90.4164 112.492L89.5967 111.117L90.6259 110.514L89.1835 108.095C89.0381 107.851 88.8905 107.707 88.7406 107.662C88.5892 107.623 88.4282 107.654 88.2576 107.754L87.7639 108.044Z" fill="white"/>
<path d="M87.45 110.27C87.7316 110.941 87.8438 111.583 87.7866 112.195C87.7252 112.809 87.5105 113.356 87.1425 113.835C86.7702 114.315 86.2587 114.689 85.608 114.958C85.0252 115.199 84.4517 115.307 83.8875 115.283C83.3233 115.258 82.814 115.097 82.3597 114.8C81.9071 114.507 81.5532 114.074 81.2977 113.501L83.1927 112.719C83.3737 113.114 83.6198 113.361 83.9309 113.461C84.2379 113.562 84.5763 113.536 84.9464 113.383C85.376 113.205 85.6452 112.914 85.7541 112.507C85.863 112.101 85.7988 111.615 85.5614 111.05C85.3223 110.481 85.0172 110.087 84.6462 109.869C84.2769 109.655 83.8775 109.637 83.4479 109.815C83.0821 109.966 82.8219 110.172 82.6673 110.434C82.5103 110.702 82.5012 111.025 82.64 111.403L80.7451 112.185C80.5351 111.614 80.4871 111.072 80.6014 110.559C80.7174 110.051 80.9659 109.597 81.347 109.197C81.7238 108.799 82.2036 108.48 82.7863 108.239C83.4329 107.972 84.0592 107.877 84.6652 107.953C85.2688 108.036 85.813 108.274 86.2977 108.667C86.7825 109.061 87.1666 109.595 87.45 110.27Z" fill="white"/>
<path d="M74.5197 114.937C74.6254 115.415 74.8195 115.738 75.1019 115.905C75.3843 116.073 75.7236 116.114 76.1196 116.028C76.4841 115.948 76.7612 115.762 76.9509 115.468C77.1415 115.178 77.1953 114.846 77.1123 114.471L76.2556 110.602L78.2335 110.171L80.3086 119.543L78.3307 119.974L77.517 116.299C77.3564 116.745 77.1126 117.114 76.7855 117.405C76.4584 117.696 76.1036 117.883 75.7211 117.967C75.001 118.123 74.3574 118.018 73.7901 117.65C73.2228 117.283 72.8418 116.659 72.6472 115.78L71.7193 111.59L73.6837 111.162L74.5197 114.937Z" fill="white"/>
<path d="M67.0977 121L64.9772 120.925L63.0246 114.067L60.6259 120.771L58.5055 120.696L61.9685 111.897L64.2616 111.978L67.0977 121Z" fill="white"/>
<path d="M56.0117 120.883L53.9286 120.521L54.271 118.583L56.3541 118.945L56.0117 120.883ZM56.4389 118.188L54.4443 117.841L55.6374 111.091L57.632 111.437L56.4389 118.188Z" fill="white"/>
<path d="M44.5769 117.985L47.4641 108.827L49.3902 109.424L49.0603 110.471C49.4083 110.148 49.7926 109.932 50.2131 109.823C50.6279 109.717 51.0574 109.733 51.5015 109.871C52.0424 110.038 52.472 110.33 52.7903 110.744C53.1027 111.162 53.2908 111.668 53.3545 112.262C53.4138 112.855 53.3334 113.5 53.1135 114.198C52.8948 114.891 52.5916 115.462 52.2037 115.912C51.8114 116.36 51.3676 116.665 50.8723 116.827C50.3726 116.988 49.8523 116.985 49.3114 116.817C48.8672 116.68 48.5051 116.45 48.2251 116.129C47.9406 115.806 47.7474 115.416 47.6455 114.958L46.503 118.582L44.5769 117.985ZM51.1609 113.592C51.3465 113.004 51.3678 112.508 51.2246 112.104C51.0757 111.704 50.7813 111.435 50.3416 111.299C49.8974 111.161 49.5013 111.216 49.1533 111.462C48.8039 111.713 48.5364 112.132 48.3508 112.721C48.168 113.301 48.1495 113.788 48.2954 114.183C48.4399 114.582 48.7343 114.851 49.1784 114.988C49.6182 115.125 50.0143 115.07 50.3667 114.825C50.7133 114.583 50.9781 114.172 51.1609 113.592Z" fill="white"/>
<path d="M44.4193 111.216C44.0712 111.871 43.6337 112.376 43.1066 112.73C42.5796 113.085 42.0077 113.274 41.3909 113.298C40.772 113.325 40.1467 113.174 39.5149 112.844C38.9117 112.529 38.4508 112.112 38.1322 111.594C37.8074 111.078 37.6447 110.503 37.6441 109.867C37.6412 109.236 37.8192 108.582 38.178 107.907L38.3843 107.519L42.8413 109.849C43.1943 108.871 42.9612 108.169 42.1419 107.74C41.8281 107.576 41.5399 107.511 41.2774 107.544C41.0087 107.579 40.7825 107.701 40.5987 107.91L38.7828 106.961C39.2558 106.345 39.8448 105.982 40.5501 105.87C41.2531 105.762 42.0204 105.926 42.8519 106.361C43.8587 106.887 44.5021 107.582 44.7822 108.446C45.0624 109.311 44.9414 110.234 44.4193 111.216ZM40.3108 111.494C41.0201 111.864 41.6512 111.701 42.2042 111.003L39.6792 109.684C39.5268 110.058 39.5079 110.408 39.6225 110.731C39.7349 111.058 39.9644 111.312 40.3108 111.494Z" fill="white"/>
<path d="M36.4333 106.93C35.9817 107.502 35.4709 107.912 34.9007 108.16C34.3305 108.408 33.7431 108.489 33.1384 108.402C32.5338 108.316 31.9539 108.057 31.3988 107.626C30.8473 107.198 30.4585 106.705 30.2323 106.147C30.0026 105.585 29.9406 105 30.0463 104.392C30.1521 103.784 30.4308 103.193 30.8824 102.621C31.3368 102.046 31.8505 101.632 32.4235 101.381C32.9965 101.129 33.5868 101.045 34.1943 101.128C34.7954 101.211 35.3716 101.467 35.9231 101.895C36.4782 102.326 36.8706 102.822 37.1004 103.384C37.3273 103.949 37.3865 104.537 37.2779 105.149C37.1693 105.761 36.8878 106.355 36.4333 106.93ZM32.5041 103.88C32.1264 104.359 31.9354 104.808 31.9313 105.229C31.9207 105.65 32.0968 106.001 32.4596 106.283C32.826 106.567 33.2177 106.657 33.6347 106.551C34.0488 106.449 34.4447 106.158 34.8225 105.68C35.2059 105.194 35.4007 104.736 35.4069 104.306C35.4103 103.879 35.2287 103.523 34.8623 103.239C34.4995 102.957 34.1132 102.872 33.7035 102.984C33.2873 103.096 32.8875 103.395 32.5041 103.88Z" fill="white"/>
<path d="M20.8734 100.929L19.7479 99.5225L21.6823 98.158L19.6385 96.949L20.644 95.4492L22.5413 96.861L23.0709 94.5458L24.8185 95.043L24.0344 97.3047L26.4252 97.0508L26.5161 98.8515L24.1124 98.8356L25.0773 100.99L23.3759 101.62L22.6488 99.366L20.8734 100.929Z" fill="white"/>
<path d="M14.9258 91.4844L14.149 89.5264L19.799 85.6653L12.9345 86.4652L11.9933 84.0927L17.5623 80.0274L10.7662 80.9995L9.99197 79.0479L19.2449 78.0159L20.2241 80.4841L14.6619 84.473L21.431 83.5262L22.443 86.0773L14.9258 91.4844Z" fill="white"/>
<path d="M13.3681 69.3753L17.726 68.7557L18.0125 70.7366L17.1505 70.8592C17.5363 71.0167 17.8394 71.262 18.0598 71.5953C18.2757 71.9293 18.4179 72.3337 18.4866 72.8086C18.5507 73.2518 18.5164 73.6582 18.3836 74.0279C18.2503 74.3931 18.0383 74.6978 17.7478 74.9422C17.4567 75.1821 17.1059 75.3312 16.6954 75.3896C15.3728 75.5776 14.5354 74.8405 14.1833 73.1781L13.859 71.708C13.8094 71.4612 13.6888 71.3514 13.4972 71.3786L13.4014 71.3923C13.1095 71.4338 12.8845 71.5673 12.7262 71.7929C12.5674 72.0139 12.5128 72.2963 12.5625 72.6401C12.6593 73.3094 13.0322 73.6349 13.6811 73.6165L13.9754 75.6517C13.4913 75.6836 13.0521 75.5914 12.6577 75.3752C12.2582 75.155 11.9277 74.8328 11.6662 74.4084C11.3994 73.9801 11.2236 73.472 11.1385 72.8841C11.0476 72.2554 11.0803 71.6923 11.2364 71.1947C11.3918 70.6925 11.6516 70.284 12.0157 69.9692C12.3791 69.6498 12.8299 69.4518 13.3681 69.3753ZM16.2565 73.4165C16.4937 73.3827 16.6695 73.2631 16.7841 73.0576C16.898 72.8475 16.9331 72.591 16.8893 72.288C16.8317 71.89 16.6615 71.5818 16.3786 71.3636C16.0905 71.1415 15.7548 71.0576 15.3717 71.1121L15.1118 71.1491L15.4185 72.6909C15.5302 73.2382 15.8095 73.48 16.2565 73.4165Z" fill="white"/>
<path d="M15.9899 63.4961L17.69 63.4816L17.6975 64.3451C17.7035 65.035 17.5264 65.5962 17.1661 66.0288C16.8012 66.4569 16.2548 66.674 15.5268 66.6802L12.4169 66.7068L12.4255 67.6937L10.8152 67.7075L10.8066 66.7206L9.03048 66.7358L9.01313 64.7415L10.7893 64.7263L10.7789 63.5407L12.3892 63.527L12.3995 64.7126L15.233 64.6883C15.5187 64.6859 15.7187 64.6316 15.8329 64.5255C15.9426 64.4149 15.9965 64.2614 15.9948 64.065L15.9899 63.4961Z" fill="white"/>
<path d="M14.2035 62.0785C13.477 61.9845 12.8607 61.7596 12.3546 61.4038C11.8491 61.0435 11.4795 60.5856 11.246 60.0301C11.013 59.4701 10.9421 58.8435 11.0334 58.1503C11.115 57.5296 11.3078 56.9832 11.6115 56.5111C11.9153 56.0389 12.3107 55.6823 12.7978 55.4412C13.2803 55.1996 13.8354 55.1124 14.4631 55.1799L14.1975 57.1982C13.7617 57.1556 13.4226 57.2431 13.1802 57.4605C12.9385 57.6734 12.7917 57.977 12.7398 58.3711C12.6796 58.8287 12.7995 59.206 13.0997 59.5028C13.3998 59.7997 13.856 59.9877 14.4682 60.067C15.085 60.1468 15.5814 60.082 15.9574 59.8727C16.3289 59.6627 16.5448 59.3289 16.605 58.8713C16.6563 58.4817 16.6063 58.155 16.4552 57.8912C16.3 57.6224 16.0227 57.4528 15.623 57.3827L15.8886 55.3643C16.4927 55.4701 16.9898 55.7004 17.3799 56.0549C17.7654 56.409 18.0373 56.8496 18.1956 57.3769C18.3545 57.8997 18.3931 58.4715 18.3114 59.0922C18.2208 59.7808 17.9904 60.3661 17.6203 60.8481C17.2462 61.325 16.766 61.6729 16.1796 61.8919C15.5932 62.1109 14.9345 62.1731 14.2035 62.0785Z" fill="white"/>
<path d="M16.5969 48.653C16.127 48.505 15.7482 48.5103 15.4605 48.6689C15.1728 48.8276 14.9675 49.0985 14.8447 49.4817C14.7317 49.8344 14.7561 50.1656 14.9179 50.4755C15.0753 50.784 15.3384 50.9963 15.7072 51.1125L19.5144 52.3121L18.9012 54.2259L9.67969 51.3203L10.2929 49.4065L13.909 50.546C13.5994 50.1847 13.3992 49.7909 13.3087 49.3644C13.2181 48.938 13.2321 48.5397 13.3507 48.1695C13.5739 47.4728 13.988 46.9729 14.5928 46.6696C15.1975 46.3664 15.9325 46.3511 16.7975 46.6237L20.9208 47.9229L20.3118 49.8236L16.5969 48.653Z" fill="white"/>
<path d="M15 39.2773L16.1289 37.4958L23.0916 39.2604L18.4454 33.84L19.5743 32.0585L25.5146 39.4427L24.2938 41.3693L15 39.2773Z" fill="white"/>
<path d="M20.668 29.8242L22.0288 28.2189L23.5472 29.4846L22.1863 31.0899L20.668 29.8242ZM22.8047 31.5427L24.1077 30.0056L29.398 34.4156L28.095 35.9527L22.8047 31.5427Z" fill="white"/>
<path d="M28.8978 21.4844L35.4516 28.5431L33.9669 29.8985L33.2179 29.0918C33.3259 29.5522 33.3223 29.9902 33.2072 30.4058C33.0923 30.815 32.8637 31.1759 32.5214 31.4884C32.1045 31.8691 31.6354 32.0924 31.1142 32.1583C30.5932 32.2178 30.0574 32.1264 29.5066 31.884C28.9593 31.6384 28.4359 31.2468 27.9366 30.709C27.4404 30.1745 27.093 29.6284 26.8945 29.0706C26.6994 28.5096 26.6548 27.9759 26.7606 27.4694C26.8699 26.9597 27.133 26.5146 27.5499 26.1339C27.8923 25.8213 28.2738 25.6252 28.6945 25.5454C29.1186 25.4625 29.556 25.4917 30.0066 25.6331L27.4132 22.8398L28.8978 21.4844ZM29.4416 29.3349C29.8629 29.7887 30.2855 30.055 30.7094 30.1338C31.1335 30.2061 31.5151 30.0875 31.854 29.7781C32.1964 29.4655 32.347 29.0982 32.3059 28.6762C32.2616 28.2508 32.0289 27.8112 31.6076 27.3574C31.1925 26.9104 30.7761 26.6508 30.3585 26.5787C29.9377 26.5033 29.5562 26.6219 29.2138 26.9344C28.8749 27.2439 28.7242 27.6112 28.762 28.0363C28.8 28.455 29.0265 28.8879 29.4416 29.3349Z" fill="white"/>
<path d="M34.8844 24.7318C34.4856 24.1061 34.2626 23.4784 34.2154 22.8485C34.1683 22.2187 34.2881 21.6328 34.575 21.0908C34.8594 20.545 35.3034 20.083 35.9071 19.7046C36.4835 19.3433 37.0775 19.1548 37.6889 19.1392C38.3017 19.1172 38.8861 19.2644 39.442 19.5808C39.9955 19.8933 40.4778 20.3721 40.8889 21.017L41.1252 21.3878L36.8663 24.0571C37.5448 24.848 38.2755 24.9981 39.0584 24.5075C39.3583 24.3195 39.5591 24.1044 39.6609 23.8622C39.7642 23.6138 39.7704 23.3585 39.6797 23.0964L41.4149 22.0089C41.7169 22.7223 41.7409 23.4099 41.4869 24.0718C41.2304 24.7298 40.7049 25.3078 39.9104 25.8058C38.9484 26.4087 38.0198 26.6151 37.1245 26.4249C36.2293 26.2347 35.4826 25.6703 34.8844 24.7318ZM36.6906 21.0621C36.0129 21.4868 35.841 22.1107 36.1749 22.9339L38.5877 21.4216C38.336 21.1037 38.0403 20.9134 37.7005 20.8507C37.3583 20.7841 37.0217 20.8546 36.6906 21.0621Z" fill="white"/>
<path d="M42.6263 19.9986C42.3521 19.325 42.2491 18.6813 42.3173 18.0677C42.3855 17.4541 42.6084 16.9091 42.9859 16.4328C43.3634 15.9565 43.879 15.5875 44.5327 15.3259C45.1822 15.0659 45.8073 14.9783 46.4082 15.0629C47.0134 15.1459 47.5553 15.3847 48.034 15.7795C48.5127 16.1742 48.8891 16.7084 49.1633 17.3821C49.4393 18.0599 49.544 18.7078 49.4775 19.3257C49.411 19.9436 49.1899 20.4928 48.8141 20.9733C48.4408 21.4479 47.9295 21.8152 47.2801 22.0751C46.6264 22.3368 45.9969 22.4261 45.3917 22.3432C44.7849 22.256 44.2412 22.0129 43.7608 21.6139C43.2804 21.215 42.9022 20.6765 42.6263 19.9986ZM47.2535 18.1465C47.0241 17.583 46.7269 17.1945 46.3617 16.981C45.9991 16.7615 45.6041 16.7373 45.1769 16.9083C44.7454 17.081 44.4716 17.3729 44.3557 17.7839C44.2381 18.1907 44.2939 18.6758 44.5233 19.2393C44.7561 19.8113 45.059 20.2074 45.4319 20.4277C45.803 20.6437 46.2044 20.6654 46.6359 20.4927C47.0632 20.3216 47.3305 20.0323 47.4379 19.6248C47.5478 19.2112 47.4863 18.7185 47.2535 18.1465Z" fill="white"/>
<path d="M55.6562 9.6414L57.4479 9.38142L57.6681 11.7252L59.748 10.5784L60.552 12.1933L58.3687 13.1127L60.1229 14.7283L58.8125 15.9782L57.2327 14.1711L56.2549 16.3493L54.6384 15.5242L55.858 13.4701L53.4948 13.2174L53.7985 11.4417L56.1294 11.9485L55.6562 9.6414Z" fill="white"/>
<circle cx="65" cy="65" r="32" fill="#CFF85E"/>
<path d="M57.1406 72.6441C57.1458 72.9418 57.2324 73.2323 57.391 73.4841C57.5497 73.736 57.7744 73.9396 58.0406 74.0727C58.3065 74.2229 58.6067 74.3019 58.9121 74.3019C59.2174 74.3019 59.5176 74.2229 59.7835 74.0727L72.1406 66.4298C72.4095 66.3003 72.6363 66.0975 72.7951 65.8448C72.9539 65.5921 73.0381 65.2997 73.0381 65.0013C73.0381 64.7028 72.9539 64.4104 72.7951 64.1577C72.6363 63.905 72.4095 63.7022 72.1406 63.5727L59.7835 55.987C59.5176 55.8368 59.2174 55.7578 58.9121 55.7578C58.6067 55.7578 58.3065 55.8368 58.0406 55.987C57.7744 56.1201 57.5497 56.3237 57.391 56.5755C57.2324 56.8274 57.1458 57.1179 57.1406 57.4156V72.6441Z" fill="black"/>
<defs>
<clipPath id="bgblur_0_1188_29_clip_path" transform="translate(50 50)"><circle cx="65" cy="65" r="65"/>
</clipPath></defs>
</svg>
