<?xml version="1.0" standalone="no"?>
<!DOCTYPE svg PUBLIC "-//W3C//DTD SVG 1.1//EN" "http://www.w3.org/Graphics/SVG/1.1/DTD/svg11.dtd" >
<svg xmlns="http://www.w3.org/2000/svg" xmlns:xlink="http://www.w3.org/1999/xlink" version="1.1">
<metadata>
Created by FontForge 20201107 at Wed Sep 27 18:22:52 2023
 By www-data
Copyright (c) 2023, Bao Nguyen (RandomMaerks) (rmforbusiness@gmail.com)
</metadata>
<defs>
<font id="OverusedGrotesk-Book" horiz-adv-x="173" >
  <font-face 
    font-family="Overused Grotesk Book"
    font-weight="350"
    font-stretch="normal"
    units-per-em="1024"
    panose-1="0 0 0 0 0 0 0 0 0 0"
    ascent="819"
    descent="-205"
    x-height="512"
    cap-height="666"
    bbox="-115 -282 1222 1086"
    underline-thickness="51"
    underline-position="-126"
    unicode-range="U+0020-277E"
  />
<missing-glyph horiz-adv-x="512" 
d="M51 -205v1024h410v-1024h-410zM102 -154h308v922h-308v-922z" />
    <glyph glyph-name=".notdef" horiz-adv-x="512" 
d="M51 -205v1024h410v-1024h-410zM102 -154h308v922h-308v-922z" />
    <glyph glyph-name=".null" horiz-adv-x="0" 
 />
    <glyph glyph-name="nonmarkingreturn" horiz-adv-x="341" 
 />
    <glyph glyph-name="space" unicode=" " horiz-adv-x="204" 
 />
    <glyph glyph-name="exclam" unicode="!" 
d="M113 151h-53l-5 515h64zM126 0h-78v79h78v-79z" />
    <glyph glyph-name="quotedbl" unicode="&#x22;" horiz-adv-x="295" 
d="M179 717h61l-11 -213h-50v213zM55 717h62l-11 -213h-51v213z" />
    <glyph glyph-name="numbersign" unicode="#" horiz-adv-x="708" 
d="M604 230v-56h-148l-69 -174h-69l70 174h-194l-70 -174h-68l70 174h-91v56h113l84 208h-127v57h149l69 171h67l-68 -171h195l68 171h68l-69 -171h90v-57h-112l-84 -208h126zM216 230h194l84 208h-194z" />
    <glyph glyph-name="dollar" unicode="$" horiz-adv-x="588" 
d="M271 769h53v-96q89 -9 144 -62.5t63 -140.5h-64q-10 64 -45 99t-98 43v-247l12 -2q208 -27 208 -185q0 -82 -60 -132t-160 -54v-116h-53v118q-99 9 -158 63.5t-68 138.5h66q22 -128 160 -142v252l-21 2q-96 13 -148 56t-52 118q0 86 59 137.5t162 55.5v94zM257 374l14 -2
v242q-72 -4 -115 -38.5t-43 -90.5q0 -48 36.5 -75t107.5 -36zM331 298l-7 1v-246q70 3 113 36.5t43 88.5q0 100 -149 120z" />
    <glyph glyph-name="percent" unicode="%" horiz-adv-x="871" 
d="M36 472q0 92 45.5 148t119.5 56t119 -56t45 -148q0 -93 -45 -149.5t-119 -56.5t-119.5 56.5t-45.5 149.5zM540 666h66l-275 -666h-66zM303 472q0 70 -26.5 108.5t-75.5 38.5t-76 -38.5t-27 -108.5t27 -109.5t76 -39.5t75.5 39.5t26.5 109.5zM506 197q0 92 45 147.5
t120 55.5q73 0 118.5 -55.5t45.5 -147.5q0 -93 -45.5 -149.5t-118.5 -56.5q-75 0 -120 56.5t-45 149.5zM773 197q0 69 -26.5 107.5t-75.5 38.5t-76 -38.5t-27 -107.5q0 -70 27 -109.5t76 -39.5t75.5 39.5t26.5 109.5z" />
    <glyph glyph-name="ampersand" unicode="&#x26;" horiz-adv-x="630" 
d="M263 674q50 0 88.5 -20.5t60 -56.5t21.5 -82q0 -67 -40 -106.5t-102 -69.5l157 -164q33 64 43 154h65q-5 -59 -22 -109t-42 -91l124 -129h-84l-78 80q-39 -42 -90 -65t-110 -23q-95 0 -152 48.5t-57 128.5q0 49 20 82t53.5 56.5t72.5 43.5q-36 37 -61.5 76.5t-25.5 89.5
q0 69 45 113t114 44zM170 518q1 -42 24.5 -75t55.5 -64l2 1q30 16 57 34t44 43t17 62q0 43 -29 70t-76 27q-44 0 -69 -26.5t-26 -71.5zM111 168q0 -55 37.5 -86t107.5 -31q95 0 157 72l-182 188q-30 -13 -57.5 -31.5t-45 -45t-17.5 -66.5z" />
    <glyph glyph-name="quotesingle" unicode="'" horiz-adv-x="172" 
d="M55 717h62l-11 -213h-51v213z" />
    <glyph glyph-name="parenleft" unicode="(" horiz-adv-x="247" 
d="M232 -137h-64q-58 60 -95.5 168t-37.5 253t37.5 253t95.5 168h64q-66 -65 -98.5 -166.5t-32.5 -254.5t32.5 -254.5t98.5 -166.5z" />
    <glyph glyph-name="parenright" unicode=")" horiz-adv-x="247" 
d="M6 705h64q58 -60 95.5 -168t37.5 -253t-37.5 -253t-95.5 -168h-64q66 65 98.5 166.5t32.5 254.5t-32.5 254.5t-98.5 166.5z" />
    <glyph glyph-name="asterisk" unicode="*" horiz-adv-x="543" 
d="M243 717h58l-3 -225l209 75l17 -55l-210 -69l132 -173l-47 -33l-128 179l-126 -179l-47 33l131 174l-209 68l18 55l208 -74z" />
    <glyph glyph-name="plus" unicode="+" horiz-adv-x="563" 
d="M311 316h217v-60h-217v-216h-59v216h-217v60h217v216h59v-216z" />
    <glyph glyph-name="comma" unicode="," 
d="M48 83h78v-83l-35 -133h-50l54 133h-47v83z" />
    <glyph glyph-name="hyphen" unicode="-" horiz-adv-x="477" 
d="M35 312h407v-59h-407v59z" />
    <glyph glyph-name="period" unicode="." 
d="M48 83h78v-83h-78v83z" />
    <glyph glyph-name="slash" unicode="/" horiz-adv-x="412" 
d="M306 666h71l-271 -666h-70z" />
    <glyph glyph-name="zero" unicode="0" horiz-adv-x="567" 
d="M45 325q0 166 63.5 258.5t175.5 92.5t174.5 -92.5t62.5 -258.5q0 -157 -62.5 -245t-174.5 -88t-175.5 88t-63.5 245zM455 325q0 290 -171 290q-173 0 -173 -290q0 -272 173 -272q171 0 171 272z" />
    <glyph glyph-name="one" unicode="1" horiz-adv-x="313" 
d="M195 666h63v-666h-63v502h-160v54h79q40 0 60.5 14.5t20.5 54.5v41z" />
    <glyph glyph-name="two" unicode="2" horiz-adv-x="535" 
d="M114 59h372v-59h-441v16q0 57 19.5 99t52 73t71 54.5t77.5 44.5q42 23 78 47t58.5 55t22.5 75q0 71 -42 110.5t-117 39.5q-68 0 -109.5 -40t-44.5 -107h-66q4 61 33 108t77 73t109 26q67 0 118 -26t79.5 -73.5t28.5 -110.5q0 -55 -26 -95.5t-67.5 -71t-87.5 -55.5
q-48 -27 -92.5 -53.5t-73.5 -57t-29 -72.5z" />
    <glyph glyph-name="three" unicode="3" horiz-adv-x="536" 
d="M224 305v59h71q57 0 88.5 31t31.5 88q0 62 -39.5 97t-110.5 35q-64 0 -102.5 -35.5t-40.5 -95.5h-67q4 57 32 99.5t74 66.5t104 24q65 0 113.5 -23.5t75.5 -66.5t27 -100q0 -52 -25 -90.5t-69 -58.5q48 -20 76 -60.5t28 -94.5q0 -57 -28.5 -99t-79 -65.5t-117.5 -23.5
q-61 0 -109.5 23.5t-78 65.5t-33.5 98h66q3 -59 45 -93t109 -34q76 0 118 33.5t42 96.5q0 59 -34 91t-96 32h-71z" />
    <glyph glyph-name="four" unicode="4" horiz-adv-x="551" 
d="M423 173v-173h-63v173h-325v70l311 423h77v-436h104v-57h-104zM360 230v360l-259 -360h259z" />
    <glyph glyph-name="five" unicode="5" horiz-adv-x="536" 
d="M425 220q0 78 -42 123.5t-120 45.5q-55 0 -94.5 -20.5t-61.5 -55.5h-62l32 354h391v-59h-336l-22 -235q27 34 69.5 54.5t96.5 20.5q65 0 113.5 -29.5t75 -80.5t26.5 -117q0 -71 -28 -122.5t-78.5 -79t-117.5 -27.5q-62 0 -110.5 23t-78 63.5t-33.5 93.5h66
q3 -55 45 -87.5t111 -32.5q75 0 116.5 42t41.5 126z" />
    <glyph glyph-name="six" unicode="6" horiz-adv-x="556" 
d="M45 336q0 160 66.5 250t185.5 90q81 0 137 -45t70 -123h-67q-21 109 -140 109q-186 0 -186 -279q0 -8 0.5 -16.5t1.5 -16.5q24 61 76 96t117 35q60 0 106.5 -28.5t73 -78.5t26.5 -114q0 -65 -27 -115.5t-74.5 -79t-109.5 -28.5q-78 0 -135.5 42t-89 119t-31.5 183z
M134 214q0 -46 21.5 -83t58.5 -58t83 -21q67 0 108 44.5t41 117.5t-41 117.5t-108 44.5q-73 0 -118 -45t-45 -117z" />
    <glyph glyph-name="seven" unicode="7" horiz-adv-x="558" 
d="M254 0h-70q9 129 34 219.5t60.5 156.5t79 120t90.5 109h-403v61h468v-71q-54 -60 -100 -119.5t-80.5 -127.5t-55 -152.5t-23.5 -195.5z" />
    <glyph glyph-name="eight" unicode="8" horiz-adv-x="536" 
d="M370 336q57 -19 89 -60.5t32 -99.5q0 -84 -61.5 -134t-162.5 -50q-66 0 -116 22.5t-78 64t-28 96.5q0 59 32 100.5t89 60.5q-48 20 -74 59.5t-26 93.5q0 83 55 134t146 51q92 0 148 -51t56 -134q0 -54 -26.5 -93.5t-74.5 -59.5zM274 364q62 0 97 32t35 91
q0 61 -36.5 94.5t-102.5 33.5q-65 0 -100.5 -33.5t-35.5 -94.5q0 -59 34.5 -91t96.5 -32h12zM274 305h-12q-72 0 -111.5 -33.5t-39.5 -94.5q0 -60 41 -93t115 -33q75 0 116.5 33t41.5 93q0 61 -39.5 94.5t-111.5 33.5z" />
    <glyph glyph-name="nine" unicode="9" horiz-adv-x="556" 
d="M512 333q0 -161 -66.5 -251t-185.5 -90q-82 0 -137.5 45t-69.5 123h67q21 -109 140 -109q186 0 186 279q0 8 -1 16.5t-2 16.5q-24 -61 -75.5 -96.5t-116.5 -35.5q-60 0 -106.5 29t-73 79t-26.5 114q0 65 27 115.5t74.5 79t109.5 28.5q78 0 135.5 -42t89 -119t31.5 -182z
M423 454q0 46 -21.5 83t-58.5 58t-83 21q-67 0 -108 -44.5t-41 -117.5t41 -117.5t108 -44.5q73 0 118 45t45 117z" />
    <glyph glyph-name="colon" unicode=":" 
d="M48 494h78v-83h-78v83zM48 83h78v-83h-78v83z" />
    <glyph glyph-name="semicolon" unicode=";" 
d="M48 494h78v-83h-78v83zM48 83h78v-83l-35 -133h-50l54 133h-47v83z" />
    <glyph glyph-name="less" unicode="&#x3c;" horiz-adv-x="585" 
d="M551 519v-69l-440 -173l440 -165v-71l-516 204v70z" />
    <glyph glyph-name="equal" unicode="=" horiz-adv-x="563" 
d="M528 443v-58h-493v58h493zM528 176v-58h-493v58h493z" />
    <glyph glyph-name="greater" unicode="&#x3e;" horiz-adv-x="585" 
d="M35 41v69l439 172l-439 166v71l516 -204v-70z" />
    <glyph glyph-name="question" unicode="?" horiz-adv-x="535" 
d="M238 151q1 49 16.5 83t39.5 58.5t49 46.5q31 27 56 56.5t25 78.5q0 67 -42 104t-117 37q-68 0 -109.5 -40t-44.5 -107h-66q4 61 33 107.5t77 72.5t109 26q67 0 118 -25t79.5 -70t28.5 -105q0 -44 -16 -75.5t-40.5 -55.5t-50.5 -47q-32 -28 -56.5 -61t-25.5 -84h-63z
M307 0h-78v79h78v-79z" />
    <glyph glyph-name="at" unicode="@" horiz-adv-x="911" 
d="M631 485v-280q0 -74 71 -74q51 0 76 38t25 122q0 109 -42 188.5t-119.5 123.5t-184.5 44t-185.5 -44t-120.5 -124.5t-42 -190.5t42 -189t120 -121.5t184 -42.5q41 0 81.5 7t84.5 21v-60q-36 -13 -76.5 -20t-84.5 -7q-125 0 -218 50.5t-145 143t-52 217.5t51.5 219.5
t144.5 147.5t216 53q93 0 168 -30t129 -84.5t83 -128.5t29 -162q0 -112 -43.5 -170t-119.5 -59q-106 1 -129 81q-21 -40 -56.5 -61.5t-80.5 -21.5q-51 0 -90 26.5t-61 74.5t-22 112t22 111.5t61 74.5t90 27q43 0 76.5 -19.5t55.5 -55.5v63h62zM328 284q0 -73 31 -114.5
t89 -41.5q57 0 89 41t32 115q0 73 -31.5 113.5t-89.5 40.5t-89 -40.5t-31 -113.5z" />
    <glyph glyph-name="A" unicode="A" horiz-adv-x="635" 
d="M602 0h-70l-68 186h-292l-67 -186h-71l249 666h71zM317 587l-124 -344h250z" />
    <glyph glyph-name="B" unicode="B" horiz-adv-x="599" 
d="M358 666q78 0 126 -47t48 -123q0 -53 -24.5 -93t-66.5 -59q56 -19 89 -63.5t33 -105.5q0 -79 -50 -127t-132 -48h-326v666h303zM351 607h-232v-237h232q54 0 84.5 32.5t30.5 90.5q0 54 -30.5 84t-84.5 30zM353 311h-234v-253h253q59 0 92 31.5t33 88.5q0 63 -38.5 98
t-105.5 35z" />
    <glyph glyph-name="C" unicode="C" horiz-adv-x="655" 
d="M45 335q0 103 36 179.5t100 119t151 42.5q77 0 138 -28.5t98 -80t42 -120.5h-66q-3 77 -60.5 122.5t-151.5 45.5q-105 0 -163 -73.5t-58 -206.5q0 -134 58 -208t163 -74q92 0 149.5 45.5t62.5 123.5h66q-6 -70 -43 -121.5t-97.5 -80t-137.5 -28.5q-86 0 -150.5 43
t-100.5 120t-36 180z" />
    <glyph glyph-name="D" unicode="D" horiz-adv-x="629" 
d="M298 666q86 0 150.5 -43t100.5 -120.5t36 -181.5q0 -96 -33.5 -168.5t-93.5 -112.5t-140 -40h-263v666h243zM119 606v-547h189q99 0 154.5 69t55.5 193q0 135 -60 210t-170 75h-169z" />
    <glyph glyph-name="E" unicode="E" horiz-adv-x="545" 
d="M500 666v-61h-381v-234h352v-61h-352v-250h381v-60h-445v666h445z" />
    <glyph glyph-name="F" unicode="F" horiz-adv-x="545" 
d="M500 666v-61h-381v-256h352v-60h-352v-289h-64v666h445z" />
    <glyph glyph-name="G" unicode="G" horiz-adv-x="665" 
d="M45 335q0 103 36.5 179.5t103 119t154.5 42.5q76 0 135.5 -28.5t95 -80t40.5 -119.5h-66q-4 77 -59 122t-145 45q-108 0 -168.5 -73.5t-60.5 -206.5q0 -134 58 -208t163 -74q87 0 141 63.5t61 170.5h-206v57h282v-344h-51l-5 155q-31 -75 -89.5 -119t-134.5 -44
q-85 0 -149.5 43t-100 120t-35.5 180z" />
    <glyph glyph-name="H" unicode="H" horiz-adv-x="628" 
d="M55 666h64v-291h391v291h63v-666h-63v314h-391v-314h-64v666z" />
    <glyph glyph-name="I" unicode="I" 
d="M55 666h64v-666h-64v666z" />
    <glyph glyph-name="J" unicode="J" horiz-adv-x="326" 
d="M26 59h64q34 0 60.5 12.5t42 46t15.5 94.5v454h63v-461q0 -77 -26 -122t-66 -64t-84 -19h-69v59z" />
    <glyph glyph-name="K" unicode="K" horiz-adv-x="545" 
d="M55 666h64v-354l320 354h83l-297 -321l306 -345h-80l-270 302l-62 -70v-232h-64v666z" />
    <glyph glyph-name="L" unicode="L" horiz-adv-x="484" 
d="M448 0h-393v666h64v-606h329v-60z" />
    <glyph glyph-name="M" unicode="M" horiz-adv-x="755" 
d="M408 0h-61l-228 578v-578h-64v666h91l232 -576l227 576h95v-666h-63v578z" />
    <glyph glyph-name="N" unicode="N" horiz-adv-x="630" 
d="M512 666h63v-666h-70l-386 585v-585h-64v666h86l371 -565v565z" />
    <glyph glyph-name="O" unicode="O" horiz-adv-x="683" 
d="M45 325q0 106 37.5 184.5t104 122.5t156.5 44q88 0 155 -44t104 -122.5t37 -184.5q0 -100 -37 -175t-104 -116.5t-155 -41.5q-90 0 -156.5 41.5t-104 116.5t-37.5 175zM573 325q0 137 -60.5 213.5t-169.5 76.5q-111 0 -171.5 -76.5t-60.5 -213.5q0 -129 60.5 -200.5
t171.5 -71.5q109 0 169.5 71.5t60.5 200.5z" />
    <glyph glyph-name="P" unicode="P" horiz-adv-x="573" 
d="M323 251h-204v-251h-64v666h262q65 0 113.5 -26t75.5 -73.5t27 -111.5q0 -59 -25.5 -105t-72.5 -72.5t-112 -26.5zM311 606h-192v-296h192q73 0 114.5 38.5t41.5 106.5q0 72 -41 111.5t-115 39.5z" />
    <glyph glyph-name="Q" unicode="Q" horiz-adv-x="683" 
d="M45 325q0 106 37.5 184.5t104 122.5t156.5 44q88 0 155 -44t104 -122.5t37 -184.5q0 -71 -19 -130t-55 -102l85 -62l-36 -49l-92 68q-36 -28 -81.5 -43t-97.5 -15q-90 0 -156.5 41.5t-104 116.5t-37.5 175zM573 325q0 137 -60.5 213.5t-169.5 76.5q-111 0 -171.5 -76.5
t-60.5 -213.5q0 -129 60.5 -200.5t171.5 -71.5q75 0 128 35l-145 106l35 49l155 -114q57 71 57 196z" />
    <glyph glyph-name="R" unicode="R" horiz-adv-x="578" 
d="M283 280h-164v-280h-64v666h274q92 0 148 -53t56 -141q0 -64 -36.5 -109t-99.5 -61q57 -9 83.5 -43t34.5 -102l18 -157h-62l-18 149q-8 69 -47.5 100t-122.5 31zM321 607h-202v-269h202q69 0 107.5 34.5t38.5 96.5q0 65 -38.5 101.5t-107.5 36.5z" />
    <glyph glyph-name="S" unicode="S" horiz-adv-x="588" 
d="M331 297l-81 10q-97 12 -148.5 56t-51.5 119q0 89 63.5 141t173.5 52q105 0 170 -54.5t74 -150.5h-65q-11 73 -55 108.5t-126 35.5q-77 0 -124.5 -35.5t-47.5 -93.5q0 -48 36.5 -74.5t107.5 -35.5l79 -11q208 -25 208 -186q0 -56 -29 -98t-82 -65t-123 -23
q-117 0 -186 56t-79 148h67q12 -73 60.5 -108.5t138.5 -35.5q75 0 122 34t47 92q0 102 -149 119z" />
    <glyph glyph-name="T" unicode="T" horiz-adv-x="537" 
d="M503 666v-61h-202v-605h-63v605h-203v61h468z" />
    <glyph glyph-name="U" unicode="U" horiz-adv-x="597" 
d="M50 666h63v-412q0 -95 49.5 -147.5t137.5 -52.5q87 0 135.5 52.5t48.5 147.5v412h64v-412q0 -79 -31 -138t-87 -91.5t-130 -32.5q-75 0 -131 32.5t-87.5 91.5t-31.5 138v412z" />
    <glyph glyph-name="V" unicode="V" horiz-adv-x="635" 
d="M34 666h70l215 -587l212 587h71l-248 -666h-72z" />
    <glyph glyph-name="W" unicode="W" horiz-adv-x="985" 
d="M34 666h70l157 -582l194 582h74l189 -582l163 582h70l-199 -666h-70l-191 585l-194 -585h-71z" />
    <glyph glyph-name="X" unicode="X" horiz-adv-x="588" 
d="M34 666h78l181 -301l185 301h76l-206 -335l206 -331h-78l-180 299l-188 -299h-74l207 333z" />
    <glyph glyph-name="Y" unicode="Y" horiz-adv-x="588" 
d="M261 229l-227 437h76l183 -360l187 360h74l-230 -437v-229h-63v229z" />
    <glyph glyph-name="Z" unicode="Z" horiz-adv-x="569" 
d="M46 666h477v-71l-406 -537h406v-58h-477v70l405 537h-405v59z" />
    <glyph glyph-name="bracketleft" unicode="[" horiz-adv-x="246" 
d="M108 646v-719h122v-60h-185v840h185v-61h-122z" />
    <glyph glyph-name="backslash" unicode="\" horiz-adv-x="412" 
d="M106 666l271 -666h-71l-270 666h70z" />
    <glyph glyph-name="bracketright" unicode="]" horiz-adv-x="246" 
d="M138 -73v719h-122v61h185v-840h-185v60h122z" />
    <glyph glyph-name="asciicircum" unicode="^" horiz-adv-x="384" 
d="M160 719h65l124 -207h-53l-104 169l-103 -169h-53z" />
    <glyph glyph-name="underscore" unicode="_" horiz-adv-x="582" 
d="M35 0h513v-56h-513v56z" />
    <glyph glyph-name="grave" unicode="`" horiz-adv-x="266" 
d="M36 719h78l117 -168h-53z" />
    <glyph glyph-name="a" unicode="a" horiz-adv-x="520" 
d="M464 341v-341h-64v94q-30 -48 -78.5 -76t-107.5 -28q-74 0 -121.5 42t-47.5 108q0 61 38.5 97.5t107.5 41.5l146 10q34 2 48.5 14.5t14.5 39.5v2q0 34 -18.5 61t-49.5 43t-70 16q-133 0 -146 -115h-67q5 78 62.5 125.5t149.5 47.5q58 0 104 -24t72.5 -65t26.5 -93z
M110 141q0 -42 32.5 -67.5t87.5 -25.5q49 0 87 22.5t60.5 62t22.5 89.5v15l-188 -13q-102 -7 -102 -83z" />
    <glyph glyph-name="b" unicode="b" horiz-adv-x="570" 
d="M55 717h64v-303q27 51 73 80t106 29q68 0 119 -33t79.5 -92.5t28.5 -139.5t-28.5 -140t-79.5 -93.5t-119 -33.5q-60 0 -106 29t-73 81v-101h-64v717zM459 258q0 97 -44.5 151t-125.5 54t-125.5 -54t-44.5 -151q0 -98 44.5 -152t125.5 -54t125.5 54t44.5 152z" />
    <glyph glyph-name="c" unicode="c" horiz-adv-x="554" 
d="M45 258q0 80 29.5 139.5t83 92.5t123.5 33q64 0 114 -25t80 -69.5t35 -104.5h-66q-3 64 -47 101.5t-116 37.5q-81 0 -125.5 -54t-44.5 -151q0 -98 45 -152t125 -54q71 0 115 34t48 95h66q-9 -87 -71.5 -138.5t-157.5 -51.5q-70 0 -123.5 33.5t-83 93.5t-29.5 140z" />
    <glyph glyph-name="d" unicode="d" horiz-adv-x="570" 
d="M515 717v-717h-63v102q-28 -53 -74 -82t-106 -29q-68 0 -119 33.5t-79.5 93.5t-28.5 140t28.5 139.5t79.5 92.5t119 33q60 0 106 -29t74 -81v304h63zM111 258q0 -98 45 -152t125 -54q82 0 126.5 54t44.5 152q0 97 -44.5 151t-126.5 54q-80 0 -125 -54t-45 -151z" />
    <glyph glyph-name="e" unicode="e" horiz-adv-x="561" 
d="M45 258q0 82 29 141t82 91t126 32q68 0 121 -32.5t83 -89.5t30 -130v-31h-405q5 -92 50 -140t127 -48q66 0 105.5 30t49.5 80h67q-17 -81 -72.5 -125t-149.5 -44q-75 0 -129.5 32.5t-84 92t-29.5 141.5zM282 464q-154 0 -170 -170h336q-6 78 -51.5 124t-114.5 46z" />
    <glyph glyph-name="f" unicode="f" horiz-adv-x="325" 
d="M35 454v58h82v79q0 47 19 74.5t48.5 39.5t61.5 12h45v-58h-41q-30 0 -50 -14.5t-20 -59.5v-73h111v-58h-111v-454h-63v454h-82z" />
    <glyph glyph-name="g" unicode="g" horiz-adv-x="570" 
d="M515 512v-523q0 -56 -28 -98.5t-78 -66t-117 -23.5q-98 0 -162 45t-76 119h67q6 -49 51 -76.5t120 -27.5t117.5 35t42.5 98v121q-28 -51 -74.5 -79t-106.5 -28q-67 0 -118 32t-79.5 90t-28.5 136q0 77 28.5 134.5t79.5 90t118 32.5q60 0 106.5 -28t74.5 -79v96h63z
M111 266q0 -94 45 -146t126 -52t125.5 52t44.5 146q0 93 -44.5 145t-125.5 52t-126 -52t-45 -145z" />
    <glyph glyph-name="h" unicode="h" horiz-adv-x="530" 
d="M412 314q0 77 -39 112.5t-104 35.5q-43 0 -77 -18.5t-53.5 -50t-19.5 -72.5v-321h-64v717h64v-285q28 44 73.5 67.5t92.5 23.5q83 0 136.5 -50.5t53.5 -145.5v-327h-63v314z" />
    <glyph glyph-name="i" unicode="i" 
d="M48 663h78v-78h-78v78zM55 512h64v-512h-64v512z" />
    <glyph glyph-name="j" unicode="j" 
d="M48 663h78v-78h-78v78zM-36 -103h32q26 0 42.5 15t16.5 60v540h64v-546q0 -48 -17.5 -76t-45 -40t-57.5 -12h-35v59z" />
    <glyph glyph-name="k" unicode="k" horiz-adv-x="491" 
d="M368 512h81l-224 -253l232 -259h-79l-198 216l-61 -69v-147h-64v717h64v-491z" />
    <glyph glyph-name="l" unicode="l" 
d="M55 717h64v-717h-64v717z" />
    <glyph glyph-name="m" unicode="m" horiz-adv-x="846" 
d="M391 314q0 77 -36 112.5t-96 35.5t-100 -40t-40 -101v-321h-64v512h64v-77q27 42 69.5 65t86.5 23q58 0 101.5 -28t63.5 -82q25 52 73 81t98 29q78 0 129 -50.5t51 -145.5v-327h-63v314q0 77 -36 112.5t-97 35.5q-40 0 -71.5 -18.5t-50.5 -50t-19 -72.5v-321h-63v314z
" />
    <glyph glyph-name="n" unicode="n" horiz-adv-x="530" 
d="M55 512h64v-80q28 44 73.5 67.5t92.5 23.5q83 0 136.5 -50.5t53.5 -145.5v-327h-63v314q0 77 -39 112.5t-104 35.5q-43 0 -76.5 -18.5t-53.5 -50t-20 -72.5v-321h-64v512z" />
    <glyph glyph-name="o" unicode="o" horiz-adv-x="563" 
d="M45 258q0 80 29.5 139.5t83 92.5t124.5 33t124 -33t82.5 -92.5t29.5 -139.5t-29.5 -140t-82.5 -93.5t-124 -33.5t-124.5 33.5t-83 93.5t-29.5 140zM452 258q0 97 -44.5 151t-125.5 54t-126 -54t-45 -151q0 -98 45 -152t126 -54t125.5 54t44.5 152z" />
    <glyph glyph-name="p" unicode="p" horiz-adv-x="570" 
d="M55 512h64v-98q27 51 73 80t106 29q68 0 119 -33t79.5 -92.5t28.5 -139.5t-28.5 -140t-79.5 -93.5t-119 -33.5q-60 0 -106 29t-73 81v-268h-64v679zM459 258q0 97 -44.5 151t-125.5 54t-125.5 -54t-44.5 -151q0 -98 44.5 -152t125.5 -54t125.5 54t44.5 152z" />
    <glyph glyph-name="q" unicode="q" horiz-adv-x="570" 
d="M515 512v-679h-63v269q-28 -53 -74 -82t-106 -29q-68 0 -119 33.5t-79.5 93.5t-28.5 140t28.5 139.5t79.5 92.5t119 33q60 0 106 -29t74 -81v99h63zM111 258q0 -98 45 -152t125 -54q82 0 126.5 54t44.5 152q0 97 -44.5 151t-126.5 54q-80 0 -125 -54t-45 -151z" />
    <glyph glyph-name="r" unicode="r" horiz-adv-x="322" 
d="M55 512h64v-75q25 41 65 63t80 22h22v-67h-21q-41 0 -74 -17.5t-52.5 -48.5t-19.5 -72v-317h-64v512z" />
    <glyph glyph-name="s" unicode="s" horiz-adv-x="508" 
d="M290 222l-79 11q-78 10 -119.5 43t-41.5 98q0 68 52.5 108t143.5 40q88 0 142.5 -44t62.5 -120h-65q-9 55 -43 81t-97 26q-60 0 -96.5 -24t-36.5 -64q0 -39 26.5 -57t78.5 -24l81 -10q165 -20 165 -153q0 -65 -53.5 -103.5t-141.5 -38.5q-99 0 -157 45t-67 118h67
q18 -106 158 -106q58 0 94 23t36 61q0 77 -110 90z" />
    <glyph glyph-name="t" unicode="t" horiz-adv-x="325" 
d="M291 58v-58h-45q-29 0 -55.5 12t-43 39.5t-16.5 74.5v328h-96v58h96v133h63v-133h97v-58h-97v-320q0 -46 16 -61t40 -15h41z" />
    <glyph glyph-name="u" unicode="u" horiz-adv-x="522" 
d="M119 207q0 -83 37.5 -120t101.5 -37q41 0 74 19.5t52.5 53.5t19.5 78v311h63v-512h-63v84q-27 -45 -72 -70t-91 -25q-81 0 -133.5 53t-52.5 152v318h64v-305z" />
    <glyph glyph-name="v" unicode="v" horiz-adv-x="548" 
d="M35 512h70l171 -435l167 435h71l-204 -512h-71z" />
    <glyph glyph-name="w" unicode="w" horiz-adv-x="780" 
d="M35 512h70l114 -430l134 430h73l129 -430l121 430h70l-158 -512h-68l-131 433l-134 -433h-70z" />
    <glyph glyph-name="x" unicode="x" horiz-adv-x="515" 
d="M35 512h75l145 -219l151 219h75l-171 -253l171 -259h-74l-146 228l-151 -228h-75l171 261z" />
    <glyph glyph-name="y" unicode="y" horiz-adv-x="550" 
d="M62 -97h72q37 0 58.5 15.5t35.5 53.5l11 31l-204 509h70l171 -433l169 433h71l-215 -546q-27 -68 -59.5 -97t-81.5 -29h-98v63z" />
    <glyph glyph-name="z" unicode="z" horiz-adv-x="478" 
d="M46 512h386v-68l-314 -387h314v-57h-386v68l314 387h-314v57z" />
    <glyph glyph-name="braceleft" unicode="{" horiz-adv-x="246" 
d="M230 647h-22q-31 0 -45.5 -17.5t-14.5 -56.5v-209q0 -58 -49 -77q49 -19 49 -78v-208q0 -75 60 -75h22v-59h-29q-54 0 -84.5 33.5t-30.5 93.5v208q0 55 -45 55h-27v59h27q45 0 45 56v208q0 60 30.5 93.5t84.5 33.5h29v-60z" />
    <glyph glyph-name="bar" unicode="|" 
d="M55 820h64v-1025h-64v1025z" />
    <glyph glyph-name="braceright" unicode="}" horiz-adv-x="246" 
d="M14 -74h23q31 0 45 18t14 57v208q0 59 50 78q-50 19 -50 77v209q0 39 -14 56.5t-45 17.5h-23v60h30q54 0 84 -33.5t30 -93.5v-208q0 -56 47 -56h25v-59h-25q-47 0 -47 -55v-208q0 -60 -30 -93.5t-84 -33.5h-30v59z" />
    <glyph glyph-name="asciitilde" unicode="~" horiz-adv-x="444" 
d="M137 512q36 0 58 -17t41 -36q17 -17 33 -31t39 -14q24 0 38 25.5t14 66.5h49q0 -66 -27 -105.5t-73 -39.5q-35 0 -57.5 15t-40.5 33t-34.5 34t-38.5 16q-24 0 -38 -25.5t-14 -68.5h-51q0 69 27.5 108t74.5 39z" />
    <glyph glyph-name="uni00A0" unicode="&#xa0;" horiz-adv-x="204" 
 />
    <glyph glyph-name="exclamdown" unicode="&#xa1;" 
d="M48 512h78v-79h-78v79zM60 361h53l6 -515h-64z" />
    <glyph glyph-name="cent" unicode="&#xa2;" horiz-adv-x="554" 
d="M45 335q0 75 26.5 132t73.5 91.5t111 40.5v67h52v-67q85 -8 140 -62t62 -136l-65 -1q-3 59 -40 95.5t-97 43.5v-410q60 6 96.5 40t40.5 89h65q-8 -81 -63 -131.5t-139 -57.5v-69h-52v69q-64 6 -111 40.5t-73.5 92.5t-26.5 133zM110 335q0 -90 38.5 -143.5t107.5 -62.5
v410q-70 -8 -108 -61t-38 -143z" />
    <glyph glyph-name="sterling" unicode="&#xa3;" horiz-adv-x="544" 
d="M36 350h94v123q0 60 23 105.5t64.5 70.5t96.5 25q78 0 129.5 -45t58.5 -118h-63q-6 49 -38.5 76t-86.5 27q-57 0 -89 -37t-32 -104v-123h232v-56h-232v-71q0 -46 -19 -92.5t-72 -71.5h407v-59h-473v65q54 25 74 72.5t20 93.5v63h-94v56z" />
    <glyph glyph-name="currency" unicode="&#xa4;" horiz-adv-x="500" 
d="M340 415l82 82l42 -42l-83 -83q23 -37 23 -86q0 -50 -25 -90l85 -84l-42 -43l-85 86q-18 -12 -40 -18.5t-46 -6.5q-25 0 -47 6.5t-40 18.5l-85 -86l-42 43l85 84q-27 40 -27 90q0 47 24 87l-82 82l42 42l81 -82q40 27 90 27q51 0 90 -27zM150 286q0 -49 27 -77t74 -28
q45 0 71.5 28t26.5 77t-27 77t-72 28t-72.5 -28t-27.5 -77z" />
    <glyph glyph-name="yen" unicode="&#xa5;" horiz-adv-x="588" 
d="M86 142h175v66h-175v55h168l-220 403h76l183 -342l187 342h74l-223 -403h162v-55h-169v-66h169v-55h-169v-87h-63v87h-175v55z" />
    <glyph glyph-name="brokenbar" unicode="&#xa6;" 
d="M55 820h64v-459h-64v459zM119 254v-459h-64v459h64z" />
    <glyph glyph-name="section" unicode="&#xa7;" horiz-adv-x="508" 
d="M290 193l-79 10q-83 11 -122 39.5t-39 79.5q0 40 24 68t69 40q-89 31 -89 109q0 63 50.5 100.5t136.5 37.5q95 0 154 -41.5t69 -112.5h-68q-19 97 -150 97q-60 0 -94.5 -20.5t-34.5 -56.5q0 -28 24 -44.5t77 -23.5l80 -10q83 -11 122 -40t39 -81q0 -39 -22 -67.5
t-62 -42.5q78 -31 78 -106q0 -63 -50 -100t-136 -37q-95 0 -154 40.5t-68 111.5h67q18 -95 151 -95q59 0 93.5 20t34.5 56q0 28 -24 44.5t-77 24.5zM218 263l76 -10q46 1 73 22t27 57q0 31 -23.5 48t-80.5 25l-75 10q-47 -1 -74.5 -22.5t-27.5 -57.5q0 -31 24 -47.5
t81 -24.5z" />
    <glyph glyph-name="dieresis" unicode="&#xa8;" horiz-adv-x="354" 
d="M244 593h75v-81h-75v81zM35 593h75v-81h-75v81z" />
    <glyph glyph-name="copyright" unicode="&#xa9;" horiz-adv-x="849" 
d="M804 333q0 -114 -48.5 -201t-135.5 -135.5t-200 -48.5t-197 47t-130.5 131t-46.5 196q0 116 48.5 204.5t134 139t198.5 50.5q111 0 196 -49t133 -135t48 -199zM420 8q96 0 168.5 41t113 114.5t40.5 170.5q0 96 -39.5 168.5t-111 112.5t-166.5 40q-96 0 -167.5 -40.5
t-111 -114t-39.5 -171.5q0 -97 39 -169t109 -112t165 -40zM229 332q0 64 24 112t68 74.5t102 26.5q77 0 128.5 -46t57.5 -120h-63q-2 50 -35.5 79.5t-87.5 29.5q-63 0 -97 -41t-34 -115q0 -75 34.5 -116.5t96.5 -41.5q54 0 87 26.5t36 72.5h63q-7 -71 -58 -113.5t-128 -42.5
q-58 0 -102 27t-68 75.5t-24 112.5z" />
    <glyph glyph-name="ordfeminine" unicode="&#xaa;" horiz-adv-x="442" 
d="M388 382q0 -71 12 -112h-61q-6 27 -9 59q-23 -32 -58.5 -50.5t-77.5 -18.5q-66 0 -107.5 33.5t-41.5 86.5q0 47 30 76t80 32l121 9q28 2 40.5 10t12.5 25v3q0 34 -29.5 57.5t-72.5 23.5q-104 0 -114 -77h-64q5 61 53 97t124 36q46 0 83 -18.5t58 -49.5t21 -70v-152z
M107 381q0 -30 25 -47.5t67 -17.5q56 0 93 33.5t37 84.5v14l-157 -12q-65 -4 -65 -55z" />
    <glyph glyph-name="guillemotleft" unicode="&#xab;" horiz-adv-x="587" 
d="M552 519v-84l-192 -158l192 -160v-76l-247 204v70zM283 519v-84l-192 -158l192 -160v-76l-248 204v70z" />
    <glyph glyph-name="logicalnot" unicode="&#xac;" horiz-adv-x="535" 
d="M437 253h-402v59h465v-181h-63v122z" />
    <glyph glyph-name="uni00AD" unicode="&#xad;" horiz-adv-x="391" 
d="M35 312h321v-59h-321v59z" />
    <glyph glyph-name="registered" unicode="&#xae;" horiz-adv-x="849" 
d="M804 333q0 -114 -48.5 -201t-135.5 -135.5t-200 -48.5t-197 47t-130.5 131t-46.5 196q0 116 48.5 204.5t134 139t198.5 50.5q111 0 196 -49t133 -135t48 -199zM420 8q96 0 168.5 41t113 114.5t40.5 170.5q0 96 -39.5 168.5t-111 112.5t-166.5 40q-96 0 -167.5 -40.5
t-111 -114t-39.5 -171.5q0 -97 39 -169t109 -112t165 -40zM449 286h-119v-150h-60v398h209q57 0 92.5 -32t35.5 -84q0 -41 -21 -70t-57 -41q32 -7 48 -27.5t20 -60.5l10 -83h-58l-9 75q-5 40 -26 57.5t-65 17.5zM471 479h-141v-139h141q35 0 54.5 19.5t19.5 55.5
q0 31 -19.5 47.5t-54.5 16.5z" />
    <glyph glyph-name="macron" unicode="&#xaf;" horiz-adv-x="381" 
d="M35 587h312v-56h-312v56z" />
    <glyph glyph-name="degree" unicode="&#xb0;" horiz-adv-x="341" 
d="M306 541q0 -61 -37.5 -99.5t-97.5 -38.5t-98 38.5t-38 99.5q0 60 38 98.5t97 38.5q60 0 98 -38.5t38 -98.5zM91 541q0 -40 21.5 -63t58.5 -23t58.5 23t21.5 63q0 39 -22 62t-59 23q-36 0 -57.5 -23t-21.5 -62z" />
    <glyph glyph-name="plusminus" unicode="&#xb1;" horiz-adv-x="563" 
d="M311 320h217v-59h-217v-213h-59v213h-217v59h217v212h59v-212zM528 9v-60h-493v60h493z" />
    <glyph glyph-name="uni00B2" unicode="&#xb2;" horiz-adv-x="391" 
d="M99 428h252v-55h-315v16q0 53 24.5 84.5t61.5 49.5t74 32q39 14 68 32.5t29 52.5q0 36 -24 56.5t-66 20.5q-47 0 -74.5 -23t-29.5 -62h-63q5 63 51.5 102t115.5 39q68 0 110 -37.5t42 -98.5q0 -34 -19 -58t-49 -40.5t-63 -30.5q-47 -19 -82.5 -36.5t-42.5 -43.5z" />
    <glyph glyph-name="uni00B3" unicode="&#xb3;" horiz-adv-x="393" 
d="M169 541v53h59q56 0 56 54q0 33 -23.5 51.5t-66.5 18.5q-40 0 -64 -18.5t-26 -49.5h-62q4 55 46 89.5t106 34.5q68 0 110.5 -34t42.5 -90q0 -54 -47 -81q57 -27 57 -88q0 -53 -43.5 -84.5t-113.5 -31.5q-68 0 -113.5 32.5t-50.5 84.5h63q2 -28 29 -44.5t71 -16.5
q45 0 70 16t25 46q0 58 -66 58h-59z" />
    <glyph glyph-name="acute" unicode="&#xb4;" horiz-adv-x="260" 
d="M226 670l-138 -158h-53l114 158h77z" />
    <glyph glyph-name="mu" unicode="&#xb5;" horiz-adv-x="522" 
d="M119 207q0 -83 37.5 -120t101.5 -37q41 0 74 19.5t52.5 53.5t19.5 78v311h63v-512h-63v84q-27 -45 -72 -70t-91 -25q-75 0 -122 49v-205h-64v679h64v-305z" />
    <glyph glyph-name="paragraph" unicode="&#xb6;" horiz-adv-x="501" 
d="M241 333q-93 0 -149 46.5t-56 121.5q0 74 56 119.5t149 45.5h204v-666h-61v606h-82v-606h-61v333z" />
    <glyph glyph-name="periodcentered" unicode="&#xb7;" 
d="M48 369h78v-82h-78v82z" />
    <glyph glyph-name="cedilla" unicode="&#xb8;" horiz-adv-x="294" 
d="M100 10h50l-11 -66h16q47 0 76 -29t29 -77q0 -51 -36.5 -81.5t-97.5 -30.5h-91v58h83q80 0 80 60q0 23 -15 35t-40 12h-35l-25 32z" />
    <glyph glyph-name="uni00B9" unicode="&#xb9;" horiz-adv-x="234" 
d="M138 768h59v-395h-59v260h-112v51h44q34 0 51 11t17 42v31z" />
    <glyph glyph-name="ordmasculine" unicode="&#xba;" horiz-adv-x="442" 
d="M36 467q0 92 50.5 148t134.5 56t134.5 -56t50.5 -148q0 -93 -50.5 -149.5t-134.5 -56.5t-134.5 56.5t-50.5 149.5zM344 467q0 69 -32 107.5t-91 38.5q-58 0 -90.5 -38.5t-32.5 -107.5q0 -70 32.5 -109.5t90.5 -39.5q59 0 91 39.5t32 109.5z" />
    <glyph glyph-name="guillemotright" unicode="&#xbb;" horiz-adv-x="587" 
d="M35 41v84l191 157l-191 160v77l248 -204v-70zM305 41v84l192 157l-192 160v77l247 -204v-70z" />
    <glyph glyph-name="onequarter" unicode="&#xbc;" horiz-adv-x="871" 
d="M199 666h60v-396h-60v261h-113v51h45q33 0 50.5 11t17.5 42v31zM540 666h66l-275 -666h-66zM760 98v-98h-59v98h-205v64l194 233h70v-244h74v-53h-74zM701 151v176l-142 -176h142z" />
    <glyph glyph-name="onehalf" unicode="&#xbd;" horiz-adv-x="871" 
d="M199 666h60v-396h-60v261h-113v51h45q33 0 50.5 11t17.5 42v31zM540 666h66l-275 -666h-66zM576 55h252v-55h-315v16q0 53 24.5 84.5t61.5 49.5t74 32q39 14 67.5 32.5t28.5 52.5q0 36 -23.5 56.5t-65.5 20.5q-47 0 -74.5 -23t-29.5 -62h-63q5 63 51.5 102t115.5 39
q68 0 110 -37.5t42 -98.5q0 -34 -19 -58t-49 -40.5t-63 -30.5q-47 -19 -82.5 -36.5t-42.5 -43.5z" />
    <glyph glyph-name="threequarters" unicode="&#xbe;" horiz-adv-x="871" 
d="M169 438v54h59q27 0 41.5 14t14.5 40q0 33 -23.5 51.5t-66.5 18.5q-40 0 -64 -19t-26 -49h-62q4 55 46 89.5t106 34.5q68 0 110.5 -34t42.5 -90q0 -55 -48 -81q58 -27 58 -88q0 -53 -43.5 -85t-113.5 -32q-68 0 -113.5 33t-50.5 85h63q2 -28 29 -45t71 -17q45 0 70 16.5
t25 46.5q0 57 -66 57h-59zM540 666h66l-275 -666h-66zM760 98v-98h-59v98h-205v64l194 233h70v-244h74v-53h-74zM701 151v176l-142 -176h142z" />
    <glyph glyph-name="questiondown" unicode="&#xbf;" horiz-adv-x="535" 
d="M228 512h78v-79h-78v79zM298 361q-1 -49 -16.5 -83t-40 -58.5t-48.5 -46.5q-32 -27 -57 -56.5t-25 -78.5q0 -67 42 -104t117 -37q68 0 109.5 40t44.5 107h66q-4 -61 -33 -107.5t-77 -72.5t-109 -26q-67 0 -118 25t-79.5 70t-28.5 105q0 44 16.5 75.5t41 55.5t50.5 47
q32 28 56.5 61t25.5 84h63z" />
    <glyph glyph-name="Agrave" unicode="&#xc0;" horiz-adv-x="635" 
d="M182 875h76l114 -158h-53zM602 0h-70l-68 186h-292l-67 -186h-71l249 666h71zM317 587l-124 -344h250z" />
    <glyph glyph-name="Aacute" unicode="&#xc1;" horiz-adv-x="635" 
d="M454 875l-138 -158h-53l113 158h78zM602 0h-70l-68 186h-292l-67 -186h-71l249 666h71zM317 587l-124 -344h250z" />
    <glyph glyph-name="Acircumflex" unicode="&#xc2;" horiz-adv-x="635" 
d="M280 884h65l164 -167h-73l-123 129l-123 -129h-74zM602 0h-70l-68 186h-292l-67 -186h-71l249 666h71zM317 587l-124 -344h250z" />
    <glyph glyph-name="Atilde" unicode="&#xc3;" horiz-adv-x="635" 
d="M235 864q32 0 52.5 -17t37.5 -36q14 -17 28 -31t34 -14q23 0 37.5 25t14.5 67h49q0 -67 -27 -106t-73 -39q-32 0 -52 15t-37 32q-16 18 -29.5 34.5t-33.5 16.5q-24 0 -38 -26t-14 -68h-51q0 69 27.5 108t74.5 39zM602 0h-70l-68 186h-292l-67 -186h-71l249 666h71z
M317 587l-124 -344h250z" />
    <glyph glyph-name="Adieresis" unicode="&#xc4;" horiz-adv-x="635" 
d="M378 798h76v-81h-76v81zM169 798h76v-81h-76v81zM602 0h-70l-68 186h-292l-67 -186h-71l249 666h71zM317 587l-124 -344h250z" />
    <glyph glyph-name="Aring" unicode="&#xc5;" horiz-adv-x="635" 
d="M602 0h-70l-68 186h-292l-67 -186h-71l234 627q-41 12 -64.5 46t-23.5 83q0 61 36.5 98t96.5 37q61 0 98 -37t37 -98q0 -46 -21.5 -79t-58.5 -47zM235 756q0 -41 21 -64t58 -23t58 23t21 64t-21 63.5t-59 22.5q-37 0 -57.5 -22.5t-20.5 -63.5zM317 587l-124 -344h250z
" />
    <glyph glyph-name="AE" unicode="&#xc6;" horiz-adv-x="973" 
d="M928 666v-61h-381v-234h352v-61h-352v-250h381v-60h-445v186h-288l-92 -186h-69l329 666h565zM222 243h261v361h-81z" />
    <glyph glyph-name="Ccedilla" unicode="&#xc7;" horiz-adv-x="655" 
d="M45 335q0 103 36 179.5t100 119t151 42.5q77 0 138 -28.5t98 -80t42 -120.5h-66q-3 77 -60.5 122.5t-151.5 45.5q-105 0 -163 -73.5t-58 -206.5q0 -134 58 -208t163 -74q92 0 149.5 45.5t62.5 123.5h66q-6 -67 -40 -117t-89.5 -79t-127.5 -33l-8 -49h16q47 0 76 -29
t29 -77q0 -51 -36.5 -81.5t-97.5 -30.5h-91v58h83q80 0 80 60q0 23 -15 35t-40 12h-34l-25 32l13 70q-78 8 -136 52t-90 118.5t-32 171.5z" />
    <glyph glyph-name="Egrave" unicode="&#xc8;" horiz-adv-x="545" 
d="M151 875h77l113 -158h-53zM500 666v-61h-381v-234h352v-61h-352v-250h381v-60h-445v666h445z" />
    <glyph glyph-name="Eacute" unicode="&#xc9;" horiz-adv-x="545" 
d="M423 875l-137 -158h-53l113 158h77zM500 666v-61h-381v-234h352v-61h-352v-250h381v-60h-445v666h445z" />
    <glyph glyph-name="Ecircumflex" unicode="&#xca;" horiz-adv-x="545" 
d="M249 884h65l164 -167h-73l-122 129l-124 -129h-74zM500 666v-61h-381v-234h352v-61h-352v-250h381v-60h-445v666h445z" />
    <glyph glyph-name="Edieresis" unicode="&#xcb;" horiz-adv-x="545" 
d="M348 798h76v-81h-76v81zM138 798h77v-81h-77v81zM500 666v-61h-381v-234h352v-61h-352v-250h381v-60h-445v666h445z" />
    <glyph glyph-name="Igrave" unicode="&#xcc;" 
d="M-48 875h76l114 -158h-53zM55 666h64v-666h-64v666z" />
    <glyph glyph-name="Iacute" unicode="&#xcd;" 
d="M224 875l-138 -158h-53l113 158h78zM55 666h64v-666h-64v666z" />
    <glyph glyph-name="Icircumflex" unicode="&#xce;" 
d="M50 884h65l164 -167h-73l-123 129l-123 -129h-74zM55 666h64v-666h-64v666z" />
    <glyph glyph-name="Idieresis" unicode="&#xcf;" 
d="M148 798h76v-81h-76v81zM-61 798h76v-81h-76v81zM55 666h64v-666h-64v666z" />
    <glyph glyph-name="Eth" unicode="&#xd0;" horiz-adv-x="719" 
d="M31 354h114v312h243q86 0 150.5 -43t100.5 -120.5t36 -181.5q0 -96 -33.5 -168.5t-93 -112.5t-139.5 -40h-264v295h-114v59zM209 606v-252h205v-59h-205v-236h189q99 0 154.5 69t55.5 193q0 135 -60 210t-170 75h-169z" />
    <glyph glyph-name="Ntilde" unicode="&#xd1;" horiz-adv-x="630" 
d="M243 864q32 0 52.5 -17t37.5 -36q14 -17 28 -31t34 -14q23 0 37.5 25t14.5 67h49q0 -67 -27 -106t-73 -39q-32 0 -52 15t-37 32q-17 18 -30.5 34.5t-32.5 16.5q-24 0 -38 -26t-14 -68h-51q0 69 27 108t75 39zM512 666h63v-666h-70l-386 585v-585h-64v666h86l371 -565v565
z" />
    <glyph glyph-name="Ograve" unicode="&#xd2;" horiz-adv-x="683" 
d="M207 875h77l114 -158h-54zM45 325q0 106 37.5 184.5t104 122.5t156.5 44q88 0 155 -44t104 -122.5t37 -184.5q0 -100 -37 -175t-104 -116.5t-155 -41.5q-90 0 -156.5 41.5t-104 116.5t-37.5 175zM573 325q0 137 -60.5 213.5t-169.5 76.5q-111 0 -171.5 -76.5
t-60.5 -213.5q0 -129 60.5 -200.5t171.5 -71.5q109 0 169.5 71.5t60.5 200.5z" />
    <glyph glyph-name="Oacute" unicode="&#xd3;" horiz-adv-x="683" 
d="M479 875l-137 -158h-53l113 158h77zM45 325q0 106 37.5 184.5t104 122.5t156.5 44q88 0 155 -44t104 -122.5t37 -184.5q0 -100 -37 -175t-104 -116.5t-155 -41.5q-90 0 -156.5 41.5t-104 116.5t-37.5 175zM573 325q0 137 -60.5 213.5t-169.5 76.5q-111 0 -171.5 -76.5
t-60.5 -213.5q0 -129 60.5 -200.5t171.5 -71.5q109 0 169.5 71.5t60.5 200.5z" />
    <glyph glyph-name="Ocircumflex" unicode="&#xd4;" horiz-adv-x="683" 
d="M305 884h65l164 -167h-73l-122 129l-124 -129h-74zM45 325q0 106 37.5 184.5t104 122.5t156.5 44q88 0 155 -44t104 -122.5t37 -184.5q0 -100 -37 -175t-104 -116.5t-155 -41.5q-90 0 -156.5 41.5t-104 116.5t-37.5 175zM573 325q0 137 -60.5 213.5t-169.5 76.5
q-111 0 -171.5 -76.5t-60.5 -213.5q0 -129 60.5 -200.5t171.5 -71.5q109 0 169.5 71.5t60.5 200.5z" />
    <glyph glyph-name="Otilde" unicode="&#xd5;" horiz-adv-x="683" 
d="M261 864q31 0 51.5 -17t37.5 -36q15 -17 29 -31t33 -14q24 0 38.5 25t14.5 67h49q0 -67 -27.5 -106t-73.5 -39q-31 0 -51.5 15t-36.5 32q-17 18 -30.5 34.5t-33.5 16.5q-23 0 -37 -26t-14 -68h-51q0 69 27 108t75 39zM45 325q0 106 37.5 184.5t104 122.5t156.5 44
q88 0 155 -44t104 -122.5t37 -184.5q0 -100 -37 -175t-104 -116.5t-155 -41.5q-90 0 -156.5 41.5t-104 116.5t-37.5 175zM573 325q0 137 -60.5 213.5t-169.5 76.5q-111 0 -171.5 -76.5t-60.5 -213.5q0 -129 60.5 -200.5t171.5 -71.5q109 0 169.5 71.5t60.5 200.5z" />
    <glyph glyph-name="Odieresis" unicode="&#xd6;" horiz-adv-x="683" 
d="M404 798h76v-81h-76v81zM195 798h76v-81h-76v81zM45 325q0 106 37.5 184.5t104 122.5t156.5 44q88 0 155 -44t104 -122.5t37 -184.5q0 -100 -37 -175t-104 -116.5t-155 -41.5q-90 0 -156.5 41.5t-104 116.5t-37.5 175zM573 325q0 137 -60.5 213.5t-169.5 76.5
q-111 0 -171.5 -76.5t-60.5 -213.5q0 -129 60.5 -200.5t171.5 -71.5q109 0 169.5 71.5t60.5 200.5z" />
    <glyph glyph-name="multiply" unicode="&#xd7;" horiz-adv-x="563" 
d="M282 327l171 173l42 -42l-173 -172l173 -171l-42 -42l-171 172l-173 -172l-41 42l172 171l-172 172l41 42z" />
    <glyph glyph-name="Oslash" unicode="&#xd8;" horiz-adv-x="683" 
d="M45 325q0 106 37.5 184.5t104 122.5t156.5 44q54 0 101 -17t84 -49l69 88l42 -35l-74 -93q36 -45 55 -107.5t19 -137.5q0 -100 -37 -175t-104 -116.5t-155 -41.5q-55 0 -102 16.5t-84 46.5l-70 -88l-42 36l73 91q-35 43 -54 101.5t-19 129.5zM111 325q0 -112 46 -181
l333 419q-58 52 -147 52q-111 0 -171.5 -76.5t-60.5 -213.5zM573 325q0 121 -47 195l-332 -418q58 -49 149 -49q109 0 169.5 71.5t60.5 200.5z" />
    <glyph glyph-name="Ugrave" unicode="&#xd9;" horiz-adv-x="597" 
d="M168 875h77l113 -158h-53zM50 666h63v-412q0 -95 49.5 -147.5t137.5 -52.5q87 0 135.5 52.5t48.5 147.5v412h64v-412q0 -79 -31 -138t-87 -91.5t-130 -32.5q-75 0 -131 32.5t-87.5 91.5t-31.5 138v412z" />
    <glyph glyph-name="Uacute" unicode="&#xda;" horiz-adv-x="597" 
d="M440 875l-137 -158h-53l113 158h77zM50 666h63v-412q0 -95 49.5 -147.5t137.5 -52.5q87 0 135.5 52.5t48.5 147.5v412h64v-412q0 -79 -31 -138t-87 -91.5t-130 -32.5q-75 0 -131 32.5t-87.5 91.5t-31.5 138v412z" />
    <glyph glyph-name="Ucircumflex" unicode="&#xdb;" horiz-adv-x="597" 
d="M266 884h65l164 -167h-73l-122 129l-124 -129h-74zM50 666h63v-412q0 -95 49.5 -147.5t137.5 -52.5q87 0 135.5 52.5t48.5 147.5v412h64v-412q0 -79 -31 -138t-87 -91.5t-130 -32.5q-75 0 -131 32.5t-87.5 91.5t-31.5 138v412z" />
    <glyph glyph-name="Udieresis" unicode="&#xdc;" horiz-adv-x="597" 
d="M365 798h76v-81h-76v81zM155 798h77v-81h-77v81zM50 666h63v-412q0 -95 49.5 -147.5t137.5 -52.5q87 0 135.5 52.5t48.5 147.5v412h64v-412q0 -79 -31 -138t-87 -91.5t-130 -32.5q-75 0 -131 32.5t-87.5 91.5t-31.5 138v412z" />
    <glyph glyph-name="Yacute" unicode="&#xdd;" horiz-adv-x="588" 
d="M439 875l-137 -158h-53l113 158h77zM261 229l-227 437h76l183 -360l187 360h74l-230 -437v-229h-63v229z" />
    <glyph glyph-name="Thorn" unicode="&#xde;" horiz-adv-x="573" 
d="M55 666h64v-113h198q65 0 113.5 -26.5t75.5 -73.5t27 -111q0 -59 -25.5 -105t-72.5 -73t-112 -27h-204v-137h-64v666zM119 494v-297h192q73 0 114.5 38.5t41.5 106.5q0 72 -41 112t-115 40h-192z" />
    <glyph glyph-name="germandbls" unicode="&#xdf;" horiz-adv-x="567" 
d="M295 665q-82 0 -129 -49t-47 -132v-484h-64v491q0 68 30 121t84 83t126 30q60 0 109 -26t78 -69.5t29 -97.5q0 -59 -26 -103t-73 -66q51 -20 80 -63t29 -101q0 -60 -26.5 -104.5t-75 -69.5t-112.5 -25h-90v60h88q72 0 111.5 37t39.5 105q0 62 -34.5 96t-97.5 34h-69v59
h69q58 0 89.5 37t31.5 103q0 58 -42.5 96t-107.5 38z" />
    <glyph glyph-name="agrave" unicode="&#xe0;" horiz-adv-x="520" 
d="M125 731h77l114 -158h-53zM464 341v-341h-64v94q-30 -48 -78.5 -76t-107.5 -28q-74 0 -121.5 42t-47.5 108q0 61 38.5 97.5t107.5 41.5l146 10q34 2 48.5 14.5t14.5 39.5v2q0 34 -18.5 61t-49.5 43t-70 16q-133 0 -146 -115h-67q5 78 62.5 125.5t149.5 47.5q58 0 104 -24
t72.5 -65t26.5 -93zM110 141q0 -42 32.5 -67.5t87.5 -25.5q49 0 87 22.5t60.5 62t22.5 89.5v15l-188 -13q-102 -7 -102 -83z" />
    <glyph glyph-name="aacute" unicode="&#xe1;" horiz-adv-x="520" 
d="M398 731l-138 -158h-53l113 158h78zM464 341v-341h-64v94q-30 -48 -78.5 -76t-107.5 -28q-74 0 -121.5 42t-47.5 108q0 61 38.5 97.5t107.5 41.5l146 10q34 2 48.5 14.5t14.5 39.5v2q0 34 -18.5 61t-49.5 43t-70 16q-133 0 -146 -115h-67q5 78 62.5 125.5t149.5 47.5
q58 0 104 -24t72.5 -65t26.5 -93zM110 141q0 -42 32.5 -67.5t87.5 -25.5q49 0 87 22.5t60.5 62t22.5 89.5v15l-188 -13q-102 -7 -102 -83z" />
    <glyph glyph-name="acircumflex" unicode="&#xe2;" horiz-adv-x="520" 
d="M224 740h65l164 -167h-74l-122 129l-123 -129h-74zM464 341v-341h-64v94q-30 -48 -78.5 -76t-107.5 -28q-74 0 -121.5 42t-47.5 108q0 61 38.5 97.5t107.5 41.5l146 10q34 2 48.5 14.5t14.5 39.5v2q0 34 -18.5 61t-49.5 43t-70 16q-133 0 -146 -115h-67q5 78 62.5 125.5
t149.5 47.5q58 0 104 -24t72.5 -65t26.5 -93zM110 141q0 -42 32.5 -67.5t87.5 -25.5q49 0 87 22.5t60.5 62t22.5 89.5v15l-188 -13q-102 -7 -102 -83z" />
    <glyph glyph-name="atilde" unicode="&#xe3;" horiz-adv-x="520" 
d="M179 720q32 0 52.5 -17t37.5 -36q14 -17 28 -31t33 -14q24 0 38.5 25t14.5 67h49q0 -67 -27.5 -106t-72.5 -39q-32 0 -52.5 15t-36.5 32q-17 18 -30.5 34.5t-32.5 16.5q-24 0 -38 -26t-14 -68h-51q0 69 27 108t75 39zM464 341v-341h-64v94q-30 -48 -78.5 -76t-107.5 -28
q-74 0 -121.5 42t-47.5 108q0 61 38.5 97.5t107.5 41.5l146 10q34 2 48.5 14.5t14.5 39.5v2q0 34 -18.5 61t-49.5 43t-70 16q-133 0 -146 -115h-67q5 78 62.5 125.5t149.5 47.5q58 0 104 -24t72.5 -65t26.5 -93zM110 141q0 -42 32.5 -67.5t87.5 -25.5q49 0 87 22.5t60.5 62
t22.5 89.5v15l-188 -13q-102 -7 -102 -83z" />
    <glyph glyph-name="adieresis" unicode="&#xe4;" horiz-adv-x="520" 
d="M322 654h76v-81h-76v81zM113 654h76v-81h-76v81zM464 341v-341h-64v94q-30 -48 -78.5 -76t-107.5 -28q-74 0 -121.5 42t-47.5 108q0 61 38.5 97.5t107.5 41.5l146 10q34 2 48.5 14.5t14.5 39.5v2q0 34 -18.5 61t-49.5 43t-70 16q-133 0 -146 -115h-67q5 78 62.5 125.5
t149.5 47.5q58 0 104 -24t72.5 -65t26.5 -93zM110 141q0 -42 32.5 -67.5t87.5 -25.5q49 0 87 22.5t60.5 62t22.5 89.5v15l-188 -13q-102 -7 -102 -83z" />
    <glyph glyph-name="aring" unicode="&#xe5;" horiz-adv-x="520" 
d="M391 702q0 -62 -36.5 -99t-96.5 -37q-61 0 -97.5 37t-36.5 99q0 61 36.5 98t96.5 37q61 0 97.5 -37t36.5 -98zM179 702q0 -42 20.5 -64.5t58.5 -22.5q37 0 57.5 22.5t20.5 64.5q0 41 -20.5 63.5t-58.5 22.5q-37 0 -57.5 -22.5t-20.5 -63.5zM464 341v-341h-64v94
q-30 -48 -78.5 -76t-107.5 -28q-74 0 -121.5 42t-47.5 108q0 61 38.5 97.5t107.5 41.5l146 10q34 2 48.5 14.5t14.5 39.5v2q0 34 -18.5 61t-49.5 43t-70 16q-133 0 -146 -115h-67q5 78 62.5 125.5t149.5 47.5q58 0 104 -24t72.5 -65t26.5 -93zM110 141q0 -42 32.5 -67.5
t87.5 -25.5q49 0 87 22.5t60.5 62t22.5 89.5v15l-188 -13q-102 -7 -102 -83z" />
    <glyph glyph-name="ae" unicode="&#xe6;" horiz-adv-x="916" 
d="M644 -8q-78 0 -134 36.5t-83 102.5q-26 -63 -83 -102t-129 -39q-75 0 -122.5 42t-47.5 108q0 61 38.5 97.5t107.5 40.5l146 11q34 2 48.5 14.5t14.5 39.5v2q0 34 -18.5 61t-49.5 43t-70 16q-133 0 -146 -115h-67q5 78 62 125.5t147 47.5q64 0 113 -29t71 -77
q30 50 80 77.5t116 27.5q68 0 120.5 -32.5t82 -89.5t29.5 -130v-31h-403q4 -92 48.5 -140t126.5 -48q66 0 106 30t50 80h66q-16 -81 -71 -125t-149 -44zM636 464q-153 0 -168 -170h335q-7 78 -52.5 124t-114.5 46zM110 142q0 -43 32.5 -68t87.5 -25q49 0 87 22.5t60.5 62
t22.5 89.5v15l-188 -13q-102 -7 -102 -83z" />
    <glyph glyph-name="ccedilla" unicode="&#xe7;" horiz-adv-x="554" 
d="M45 258q0 80 29.5 139.5t83 92.5t123.5 33q64 0 114 -25t80 -69.5t35 -104.5h-66q-3 64 -47 101.5t-116 37.5q-81 0 -125.5 -54t-44.5 -151q0 -98 45 -152t125 -54q71 0 115 34t48 95h66q-8 -81 -63.5 -131.5t-140.5 -57.5l-8 -48h16q47 0 76 -29t29 -77
q0 -51 -36.5 -81.5t-97.5 -30.5h-91v58h83q80 0 80 60q0 23 -15 35t-40 12h-35l-25 32l14 69q-64 6 -111.5 41t-73.5 92.5t-26 132.5z" />
    <glyph glyph-name="egrave" unicode="&#xe8;" horiz-adv-x="561" 
d="M144 731h76l114 -158h-53zM45 258q0 82 29 141t82 91t126 32q68 0 121 -32.5t83 -89.5t30 -130v-31h-405q5 -92 50 -140t127 -48q66 0 105.5 30t49.5 80h67q-17 -81 -72.5 -125t-149.5 -44q-75 0 -129.5 32.5t-84 92t-29.5 141.5zM282 464q-154 0 -170 -170h336
q-6 78 -51.5 124t-114.5 46z" />
    <glyph glyph-name="eacute" unicode="&#xe9;" horiz-adv-x="561" 
d="M416 731l-138 -158h-53l113 158h78zM45 258q0 82 29 141t82 91t126 32q68 0 121 -32.5t83 -89.5t30 -130v-31h-405q5 -92 50 -140t127 -48q66 0 105.5 30t49.5 80h67q-17 -81 -72.5 -125t-149.5 -44q-75 0 -129.5 32.5t-84 92t-29.5 141.5zM282 464q-154 0 -170 -170h336
q-6 78 -51.5 124t-114.5 46z" />
    <glyph glyph-name="ecircumflex" unicode="&#xea;" horiz-adv-x="561" 
d="M242 740h65l164 -167h-73l-123 129l-123 -129h-74zM45 258q0 82 29 141t82 91t126 32q68 0 121 -32.5t83 -89.5t30 -130v-31h-405q5 -92 50 -140t127 -48q66 0 105.5 30t49.5 80h67q-17 -81 -72.5 -125t-149.5 -44q-75 0 -129.5 32.5t-84 92t-29.5 141.5zM282 464
q-154 0 -170 -170h336q-6 78 -51.5 124t-114.5 46z" />
    <glyph glyph-name="edieresis" unicode="&#xeb;" horiz-adv-x="561" 
d="M340 654h76v-81h-76v81zM131 654h76v-81h-76v81zM45 258q0 82 29 141t82 91t126 32q68 0 121 -32.5t83 -89.5t30 -130v-31h-405q5 -92 50 -140t127 -48q66 0 105.5 30t49.5 80h67q-17 -81 -72.5 -125t-149.5 -44q-75 0 -129.5 32.5t-84 92t-29.5 141.5zM282 464
q-154 0 -170 -170h336q-6 78 -51.5 124t-114.5 46z" />
    <glyph glyph-name="igrave" unicode="&#xec;" 
d="M-49 731h76l114 -158h-53zM55 512h64v-512h-64v512z" />
    <glyph glyph-name="iacute" unicode="&#xed;" 
d="M223 731l-138 -158h-53l113 158h78zM55 512h64v-512h-64v512z" />
    <glyph glyph-name="icircumflex" unicode="&#xee;" 
d="M49 740h65l164 -167h-73l-123 129l-123 -129h-74zM55 512h64v-512h-64v512z" />
    <glyph glyph-name="idieresis" unicode="&#xef;" 
d="M147 654h76v-81h-76v81zM-62 654h76v-81h-76v81zM55 512h64v-512h-64v512z" />
    <glyph glyph-name="eth" unicode="&#xf0;" horiz-adv-x="579" 
d="M225 610l144 28q-33 44 -70 79h81q32 -32 57 -66l111 22v-55l-79 -15q64 -111 64 -253q0 -107 -32.5 -187.5t-91 -125.5t-135.5 -45q-68 0 -119.5 33t-80.5 92t-29 136q0 75 28 134t77 93t112 34q69 0 124 -41t80 -110q1 12 1 19.5v12.5q0 42 -17.5 93t-48.5 101
l-176 -34v55zM445 256q0 58 -22 102.5t-60 69.5t-88 25q-75 0 -119.5 -55t-44.5 -146t44 -145t116 -54q50 0 89.5 26t62 72t22.5 105z" />
    <glyph glyph-name="ntilde" unicode="&#xf1;" horiz-adv-x="530" 
d="M188 720q31 0 51.5 -17t37.5 -36q14 -17 28.5 -31t33.5 -14q24 0 38.5 25t14.5 67h49q0 -67 -27.5 -106t-73.5 -39q-32 0 -52 15t-37 32q-16 18 -29.5 34.5t-33.5 16.5q-24 0 -37.5 -26t-13.5 -68h-52q0 69 27.5 108t75.5 39zM55 512h64v-80q28 44 73.5 67.5t92.5 23.5
q83 0 136.5 -50.5t53.5 -145.5v-327h-63v314q0 77 -39 112.5t-104 35.5q-43 0 -76.5 -18.5t-53.5 -50t-20 -72.5v-321h-64v512z" />
    <glyph glyph-name="ograve" unicode="&#xf2;" horiz-adv-x="563" 
d="M145 731h76l114 -158h-53zM45 258q0 80 29.5 139.5t83 92.5t124.5 33t124 -33t82.5 -92.5t29.5 -139.5t-29.5 -140t-82.5 -93.5t-124 -33.5t-124.5 33.5t-83 93.5t-29.5 140zM452 258q0 97 -44.5 151t-125.5 54t-126 -54t-45 -151q0 -98 45 -152t126 -54t125.5 54
t44.5 152z" />
    <glyph glyph-name="oacute" unicode="&#xf3;" horiz-adv-x="563" 
d="M417 731l-137 -158h-54l113 158h78zM45 258q0 80 29.5 139.5t83 92.5t124.5 33t124 -33t82.5 -92.5t29.5 -139.5t-29.5 -140t-82.5 -93.5t-124 -33.5t-124.5 33.5t-83 93.5t-29.5 140zM452 258q0 97 -44.5 151t-125.5 54t-126 -54t-45 -151q0 -98 45 -152t126 -54
t125.5 54t44.5 152z" />
    <glyph glyph-name="ocircumflex" unicode="&#xf4;" horiz-adv-x="563" 
d="M243 740h65l164 -167h-73l-123 129l-123 -129h-74zM45 258q0 80 29.5 139.5t83 92.5t124.5 33t124 -33t82.5 -92.5t29.5 -139.5t-29.5 -140t-82.5 -93.5t-124 -33.5t-124.5 33.5t-83 93.5t-29.5 140zM452 258q0 97 -44.5 151t-125.5 54t-126 -54t-45 -151q0 -98 45 -152
t126 -54t125.5 54t44.5 152z" />
    <glyph glyph-name="otilde" unicode="&#xf5;" horiz-adv-x="563" 
d="M199 720q31 0 51.5 -17t37.5 -36q14 -17 28 -31t34 -14q23 0 37.5 25t14.5 67h50q0 -67 -27.5 -106t-73.5 -39q-32 0 -52 15t-37 32q-16 18 -29.5 34.5t-33.5 16.5q-24 0 -38 -26t-14 -68h-51q0 69 27.5 108t75.5 39zM45 258q0 80 29.5 139.5t83 92.5t124.5 33t124 -33
t82.5 -92.5t29.5 -139.5t-29.5 -140t-82.5 -93.5t-124 -33.5t-124.5 33.5t-83 93.5t-29.5 140zM452 258q0 97 -44.5 151t-125.5 54t-126 -54t-45 -151q0 -98 45 -152t126 -54t125.5 54t44.5 152z" />
    <glyph glyph-name="odieresis" unicode="&#xf6;" horiz-adv-x="563" 
d="M341 654h77v-81h-77v81zM132 654h77v-81h-77v81zM45 258q0 80 29.5 139.5t83 92.5t124.5 33t124 -33t82.5 -92.5t29.5 -139.5t-29.5 -140t-82.5 -93.5t-124 -33.5t-124.5 33.5t-83 93.5t-29.5 140zM452 258q0 97 -44.5 151t-125.5 54t-126 -54t-45 -151q0 -98 45 -152
t126 -54t125.5 54t44.5 152z" />
    <glyph glyph-name="divide" unicode="&#xf7;" horiz-adv-x="477" 
d="M201 523h74v-80h-74v80zM35 311h407v-57h-407v57zM201 105h74v-80h-74v80z" />
    <glyph glyph-name="oslash" unicode="&#xf8;" horiz-adv-x="563" 
d="M45 258q0 80 29.5 139.5t83 92.5t124.5 33q82 0 140 -45l53 66l39 -33l-54 -69q28 -34 43 -81t15 -103q0 -80 -29.5 -140t-82.5 -93.5t-124 -33.5q-83 0 -142 46l-55 -69l-40 33l57 73q-27 34 -42 81t-15 103zM110 258q0 -82 32 -134l243 307q-41 32 -103 32
q-81 0 -126.5 -53.5t-45.5 -151.5zM453 258q0 82 -33 134l-243 -308q42 -33 105 -33q81 0 126 54.5t45 152.5z" />
    <glyph glyph-name="ugrave" unicode="&#xf9;" horiz-adv-x="522" 
d="M132 731h76l114 -158h-53zM119 207q0 -83 37.5 -120t101.5 -37q41 0 74 19.5t52.5 53.5t19.5 78v311h63v-512h-63v84q-27 -45 -72 -70t-91 -25q-81 0 -133.5 53t-52.5 152v318h64v-305z" />
    <glyph glyph-name="uacute" unicode="&#xfa;" horiz-adv-x="522" 
d="M404 731l-138 -158h-53l113 158h78zM119 207q0 -83 37.5 -120t101.5 -37q41 0 74 19.5t52.5 53.5t19.5 78v311h63v-512h-63v84q-27 -45 -72 -70t-91 -25q-81 0 -133.5 53t-52.5 152v318h64v-305z" />
    <glyph glyph-name="ucircumflex" unicode="&#xfb;" horiz-adv-x="522" 
d="M230 740h65l164 -167h-73l-123 129l-123 -129h-74zM119 207q0 -83 37.5 -120t101.5 -37q41 0 74 19.5t52.5 53.5t19.5 78v311h63v-512h-63v84q-27 -45 -72 -70t-91 -25q-81 0 -133.5 53t-52.5 152v318h64v-305z" />
    <glyph glyph-name="udieresis" unicode="&#xfc;" horiz-adv-x="522" 
d="M328 654h76v-81h-76v81zM119 654h76v-81h-76v81zM119 207q0 -83 37.5 -120t101.5 -37q41 0 74 19.5t52.5 53.5t19.5 78v311h63v-512h-63v84q-27 -45 -72 -70t-91 -25q-81 0 -133.5 53t-52.5 152v318h64v-305z" />
    <glyph glyph-name="yacute" unicode="&#xfd;" horiz-adv-x="550" 
d="M421 731l-137 -158h-53l113 158h77zM62 -97h72q37 0 58.5 15.5t35.5 53.5l11 31l-204 509h70l171 -433l169 433h71l-215 -546q-27 -68 -59.5 -97t-81.5 -29h-98v63z" />
    <glyph glyph-name="thorn" unicode="&#xfe;" horiz-adv-x="570" 
d="M55 717h64v-303q27 51 73 80t106 29q68 0 119 -33t79.5 -92.5t28.5 -139.5t-28.5 -140t-79.5 -93.5t-119 -33.5q-60 0 -106 29t-73 81v-268h-64v884zM459 258q0 97 -44.5 151t-125.5 54t-125.5 -54t-44.5 -151q0 -98 44.5 -152t125.5 -54t125.5 54t44.5 152z" />
    <glyph glyph-name="ydieresis" unicode="&#xff;" horiz-adv-x="550" 
d="M346 654h76v-81h-76v81zM137 654h76v-81h-76v81zM62 -97h72q37 0 58.5 15.5t35.5 53.5l11 31l-204 509h70l171 -433l169 433h71l-215 -546q-27 -68 -59.5 -97t-81.5 -29h-98v63z" />
    <glyph glyph-name="Amacron" unicode="&#x100;" horiz-adv-x="635" 
d="M156 792h312v-56h-312v56zM602 0h-70l-68 186h-292l-67 -186h-71l249 666h71zM317 587l-124 -344h250z" />
    <glyph glyph-name="amacron" unicode="&#x101;" horiz-adv-x="520" 
d="M99 648h313v-56h-313v56zM464 341v-341h-64v94q-30 -48 -78.5 -76t-107.5 -28q-74 0 -121.5 42t-47.5 108q0 61 38.5 97.5t107.5 41.5l146 10q34 2 48.5 14.5t14.5 39.5v2q0 34 -18.5 61t-49.5 43t-70 16q-133 0 -146 -115h-67q5 78 62.5 125.5t149.5 47.5q58 0 104 -24
t72.5 -65t26.5 -93zM110 141q0 -42 32.5 -67.5t87.5 -25.5q49 0 87 22.5t60.5 62t22.5 89.5v15l-188 -13q-102 -7 -102 -83z" />
    <glyph glyph-name="Abreve" unicode="&#x102;" horiz-adv-x="635" 
d="M480 864q-6 -67 -49.5 -107.5t-116.5 -40.5t-117.5 40.5t-49.5 107.5h61q5 -47 31.5 -72t74.5 -25q49 0 74.5 25t30.5 72h61zM602 0h-70l-68 186h-292l-67 -186h-71l249 666h71zM317 587l-124 -344h250z" />
    <glyph glyph-name="abreve" unicode="&#x103;" horiz-adv-x="520" 
d="M424 720q-6 -67 -50 -107.5t-116 -40.5q-73 0 -117.5 40.5t-50.5 107.5h62q5 -47 31.5 -72t74.5 -25t73.5 25t31.5 72h61zM464 341v-341h-64v94q-30 -48 -78.5 -76t-107.5 -28q-74 0 -121.5 42t-47.5 108q0 61 38.5 97.5t107.5 41.5l146 10q34 2 48.5 14.5t14.5 39.5v2
q0 34 -18.5 61t-49.5 43t-70 16q-133 0 -146 -115h-67q5 78 62.5 125.5t149.5 47.5q58 0 104 -24t72.5 -65t26.5 -93zM110 141q0 -42 32.5 -67.5t87.5 -25.5q49 0 87 22.5t60.5 62t22.5 89.5v15l-188 -13q-102 -7 -102 -83z" />
    <glyph glyph-name="Aogonek" unicode="&#x104;" horiz-adv-x="635" 
d="M602 0q-42 -31 -64 -55.5t-30 -48t-8 -50.5q0 -68 81 -68h64v-60h-72q-61 0 -97.5 33t-36.5 89q0 62 33 99.5t75 60.5h-15l-68 186h-292l-67 -186h-71l249 666h71zM317 587l-124 -344h250z" />
    <glyph glyph-name="aogonek" unicode="&#x105;" horiz-adv-x="520" 
d="M464 0q-43 -31 -65 -55.5t-30 -48t-8 -50.5q0 -68 82 -68h64v-60h-72q-62 0 -98.5 33t-36.5 89q0 62 33.5 99.5t75.5 60.5h-9v94q-30 -48 -78.5 -76t-107.5 -28q-74 0 -121.5 42t-47.5 108q0 61 38.5 97.5t107.5 41.5l146 10q34 2 48.5 14.5t14.5 39.5v2q0 34 -18.5 61
t-49.5 43t-70 16q-133 0 -146 -115h-67q5 78 62.5 125.5t149.5 47.5q58 0 104 -24t72.5 -65t26.5 -93v-341zM110 141q0 -42 32.5 -67.5t87.5 -25.5q49 0 87 22.5t60.5 62t22.5 89.5v15l-188 -13q-102 -7 -102 -83z" />
    <glyph glyph-name="Cacute" unicode="&#x106;" horiz-adv-x="655" 
d="M466 875l-137 -158h-53l113 158h77zM45 335q0 103 36 179.5t100 119t151 42.5q77 0 138 -28.5t98 -80t42 -120.5h-66q-3 77 -60.5 122.5t-151.5 45.5q-105 0 -163 -73.5t-58 -206.5q0 -134 58 -208t163 -74q92 0 149.5 45.5t62.5 123.5h66q-6 -70 -43 -121.5t-97.5 -80
t-137.5 -28.5q-86 0 -150.5 43t-100.5 120t-36 180z" />
    <glyph glyph-name="cacute" unicode="&#x107;" horiz-adv-x="554" 
d="M418 731l-138 -158h-53l113 158h78zM45 258q0 80 29.5 139.5t83 92.5t123.5 33q64 0 114 -25t80 -69.5t35 -104.5h-66q-3 64 -47 101.5t-116 37.5q-81 0 -125.5 -54t-44.5 -151q0 -98 45 -152t125 -54q71 0 115 34t48 95h66q-9 -87 -71.5 -138.5t-157.5 -51.5
q-70 0 -123.5 33.5t-83 93.5t-29.5 140z" />
    <glyph glyph-name="Ccircumflex" unicode="&#x108;" horiz-adv-x="655" 
d="M292 884h65l164 -167h-73l-122 129l-124 -129h-74zM45 335q0 103 36 179.5t100 119t151 42.5q77 0 138 -28.5t98 -80t42 -120.5h-66q-3 77 -60.5 122.5t-151.5 45.5q-105 0 -163 -73.5t-58 -206.5q0 -134 58 -208t163 -74q92 0 149.5 45.5t62.5 123.5h66
q-6 -70 -43 -121.5t-97.5 -80t-137.5 -28.5q-86 0 -150.5 43t-100.5 120t-36 180z" />
    <glyph glyph-name="ccircumflex" unicode="&#x109;" horiz-adv-x="554" 
d="M244 740h65l164 -167h-73l-123 129l-123 -129h-74zM45 258q0 80 29.5 139.5t83 92.5t123.5 33q64 0 114 -25t80 -69.5t35 -104.5h-66q-3 64 -47 101.5t-116 37.5q-81 0 -125.5 -54t-44.5 -151q0 -98 45 -152t125 -54q71 0 115 34t48 95h66q-9 -87 -71.5 -138.5
t-157.5 -51.5q-70 0 -123.5 33.5t-83 93.5t-29.5 140z" />
    <glyph glyph-name="Cdotaccent" unicode="&#x10a;" horiz-adv-x="655" 
d="M291 800h77v-83h-77v83zM45 335q0 103 36 179.5t100 119t151 42.5q77 0 138 -28.5t98 -80t42 -120.5h-66q-3 77 -60.5 122.5t-151.5 45.5q-105 0 -163 -73.5t-58 -206.5q0 -134 58 -208t163 -74q92 0 149.5 45.5t62.5 123.5h66q-6 -70 -43 -121.5t-97.5 -80t-137.5 -28.5
q-86 0 -150.5 43t-100.5 120t-36 180z" />
    <glyph glyph-name="cdotaccent" unicode="&#x10b;" horiz-adv-x="554" 
d="M242 656h77v-83h-77v83zM45 258q0 80 29.5 139.5t83 92.5t123.5 33q64 0 114 -25t80 -69.5t35 -104.5h-66q-3 64 -47 101.5t-116 37.5q-81 0 -125.5 -54t-44.5 -151q0 -98 45 -152t125 -54q71 0 115 34t48 95h66q-9 -87 -71.5 -138.5t-157.5 -51.5q-70 0 -123.5 33.5
t-83 93.5t-29.5 140z" />
    <glyph glyph-name="Ccaron" unicode="&#x10c;" horiz-adv-x="655" 
d="M357 717h-65l-164 167h74l123 -129l123 129h73zM45 335q0 103 36 179.5t100 119t151 42.5q77 0 138 -28.5t98 -80t42 -120.5h-66q-3 77 -60.5 122.5t-151.5 45.5q-105 0 -163 -73.5t-58 -206.5q0 -134 58 -208t163 -74q92 0 149.5 45.5t62.5 123.5h66q-6 -70 -43 -121.5
t-97.5 -80t-137.5 -28.5q-86 0 -150.5 43t-100.5 120t-36 180z" />
    <glyph glyph-name="ccaron" unicode="&#x10d;" horiz-adv-x="554" 
d="M309 573h-65l-164 167h74l122 -129l124 129h73zM45 258q0 80 29.5 139.5t83 92.5t123.5 33q64 0 114 -25t80 -69.5t35 -104.5h-66q-3 64 -47 101.5t-116 37.5q-81 0 -125.5 -54t-44.5 -151q0 -98 45 -152t125 -54q71 0 115 34t48 95h66q-9 -87 -71.5 -138.5t-157.5 -51.5
q-70 0 -123.5 33.5t-83 93.5t-29.5 140z" />
    <glyph glyph-name="Dcaron" unicode="&#x10e;" horiz-adv-x="629" 
d="M318 717h-65l-164 167h74l123 -129l123 129h73zM298 666q86 0 150.5 -43t100.5 -120.5t36 -181.5q0 -96 -33.5 -168.5t-93.5 -112.5t-140 -40h-263v666h243zM119 606v-547h189q99 0 154.5 69t55.5 193q0 135 -60 210t-170 75h-169z" />
    <glyph glyph-name="dcaron" unicode="&#x10f;" horiz-adv-x="583" 
d="M515 717v-717h-63v102q-28 -53 -74 -82t-106 -29q-68 0 -119 33.5t-79.5 93.5t-28.5 140t28.5 139.5t79.5 92.5t119 33q60 0 106 -29t74 -81v304h63zM600 708h62l-35 -196h-57zM111 258q0 -98 45 -152t125 -54q82 0 126.5 54t44.5 152q0 97 -44.5 151t-126.5 54
q-80 0 -125 -54t-45 -151z" />
    <glyph glyph-name="Dcroat" unicode="&#x110;" horiz-adv-x="719" 
d="M31 354h114v312h243q86 0 150.5 -43t100.5 -120.5t36 -181.5q0 -96 -33.5 -168.5t-93 -112.5t-139.5 -40h-264v295h-114v59zM209 606v-252h205v-59h-205v-236h189q99 0 154.5 69t55.5 193q0 135 -60 210t-170 75h-169z" />
    <glyph glyph-name="dcroat" unicode="&#x111;" horiz-adv-x="620" 
d="M256 647h196v70h63v-70h86v-53h-86v-594h-63v101q-28 -52 -74 -81t-106 -29q-68 0 -119 33.5t-79.5 93t-28.5 139.5t28.5 139t79.5 92t119 33q60 0 106 -28.5t74 -80.5v182h-196v53zM111 257q0 -97 45 -151t125 -54q82 0 126.5 54t44.5 151t-44.5 150.5t-126.5 53.5
q-80 0 -125 -53.5t-45 -150.5z" />
    <glyph glyph-name="Emacron" unicode="&#x112;" horiz-adv-x="545" 
d="M125 792h312v-56h-312v56zM500 666v-61h-381v-234h352v-61h-352v-250h381v-60h-445v666h445z" />
    <glyph glyph-name="emacron" unicode="&#x113;" horiz-adv-x="561" 
d="M118 648h312v-56h-312v56zM45 258q0 82 29 141t82 91t126 32q68 0 121 -32.5t83 -89.5t30 -130v-31h-405q5 -92 50 -140t127 -48q66 0 105.5 30t49.5 80h67q-17 -81 -72.5 -125t-149.5 -44q-75 0 -129.5 32.5t-84 92t-29.5 141.5zM282 464q-154 0 -170 -170h336
q-6 78 -51.5 124t-114.5 46z" />
    <glyph glyph-name="Ebreve" unicode="&#x114;" horiz-adv-x="545" 
d="M449 864q-6 -67 -49.5 -107.5t-115.5 -40.5q-73 0 -117.5 40.5t-50.5 107.5h61q5 -47 31.5 -72t75.5 -25q48 0 73.5 25t30.5 72h61zM500 666v-61h-381v-234h352v-61h-352v-250h381v-60h-445v666h445z" />
    <glyph glyph-name="ebreve" unicode="&#x115;" horiz-adv-x="561" 
d="M442 720q-6 -67 -50 -107.5t-116 -40.5q-73 0 -117.5 40.5t-49.5 107.5h61q5 -47 31.5 -72t74.5 -25q49 0 74.5 25t30.5 72h61zM45 258q0 82 29 141t82 91t126 32q68 0 121 -32.5t83 -89.5t30 -130v-31h-405q5 -92 50 -140t127 -48q66 0 105.5 30t49.5 80h67
q-17 -81 -72.5 -125t-149.5 -44q-75 0 -129.5 32.5t-84 92t-29.5 141.5zM282 464q-154 0 -170 -170h336q-6 78 -51.5 124t-114.5 46z" />
    <glyph glyph-name="Edotaccent" unicode="&#x116;" horiz-adv-x="545" 
d="M247 800h77v-83h-77v83zM500 666v-61h-381v-234h352v-61h-352v-250h381v-60h-445v666h445z" />
    <glyph glyph-name="edotaccent" unicode="&#x117;" horiz-adv-x="561" 
d="M240 656h77v-83h-77v83zM45 258q0 82 29 141t82 91t126 32q68 0 121 -32.5t83 -89.5t30 -130v-31h-405q5 -92 50 -140t127 -48q66 0 105.5 30t49.5 80h67q-17 -81 -72.5 -125t-149.5 -44q-75 0 -129.5 32.5t-84 92t-29.5 141.5zM282 464q-154 0 -170 -170h336
q-6 78 -51.5 124t-114.5 46z" />
    <glyph glyph-name="Eogonek" unicode="&#x118;" horiz-adv-x="545" 
d="M480 0q-42 -31 -64 -55.5t-30 -48t-8 -50.5q0 -68 81 -68h64v-60h-72q-61 0 -97.5 33t-36.5 89q0 62 33 99.5t75 60.5h-370v666h445v-61h-381v-234h352v-61h-352v-250h381v-60h-20z" />
    <glyph glyph-name="eogonek" unicode="&#x119;" horiz-adv-x="561" 
d="M45 258q0 82 29 141t82 91t126 32q68 0 121 -32.5t83 -89.5t30 -130v-31h-405q5 -92 50 -140t127 -48q66 0 105.5 30t49.5 80h67q-20 -95 -90 -137q-51 -40 -67 -71.5t-16 -68.5q0 -68 81 -68h64v-60h-72q-61 0 -97.5 33t-36.5 89q0 38 13 66.5t34 49.5q-17 -2 -35 -2
q-75 0 -129.5 32.5t-84 92t-29.5 141.5zM282 464q-154 0 -170 -170h336q-6 78 -51.5 124t-114.5 46z" />
    <glyph glyph-name="Ecaron" unicode="&#x11a;" horiz-adv-x="545" 
d="M314 717h-65l-164 167h74l123 -129l123 129h73zM500 666v-61h-381v-234h352v-61h-352v-250h381v-60h-445v666h445z" />
    <glyph glyph-name="ecaron" unicode="&#x11b;" horiz-adv-x="561" 
d="M307 573h-65l-164 167h74l122 -129l124 129h73zM45 258q0 82 29 141t82 91t126 32q68 0 121 -32.5t83 -89.5t30 -130v-31h-405q5 -92 50 -140t127 -48q66 0 105.5 30t49.5 80h67q-17 -81 -72.5 -125t-149.5 -44q-75 0 -129.5 32.5t-84 92t-29.5 141.5zM282 464
q-154 0 -170 -170h336q-6 78 -51.5 124t-114.5 46z" />
    <glyph glyph-name="Gcircumflex" unicode="&#x11c;" horiz-adv-x="665" 
d="M292 884h65l164 -167h-73l-122 129l-124 -129h-74zM45 335q0 103 36.5 179.5t103 119t154.5 42.5q76 0 135.5 -28.5t95 -80t40.5 -119.5h-66q-4 77 -59 122t-145 45q-108 0 -168.5 -73.5t-60.5 -206.5q0 -134 58 -208t163 -74q87 0 141 63.5t61 170.5h-206v57h282v-344
h-51l-5 155q-31 -75 -89.5 -119t-134.5 -44q-85 0 -149.5 43t-100 120t-35.5 180z" />
    <glyph glyph-name="gcircumflex" unicode="&#x11d;" horiz-adv-x="570" 
d="M239 740h65l164 -167h-73l-122 129l-124 -129h-74zM515 512v-523q0 -56 -28 -98.5t-78 -66t-117 -23.5q-98 0 -162 45t-76 119h67q6 -49 51 -76.5t120 -27.5t117.5 35t42.5 98v121q-28 -51 -74.5 -79t-106.5 -28q-67 0 -118 32t-79.5 90t-28.5 136q0 77 28.5 134.5
t79.5 90t118 32.5q60 0 106.5 -28t74.5 -79v96h63zM111 266q0 -94 45 -146t126 -52t125.5 52t44.5 146q0 93 -44.5 145t-125.5 52t-126 -52t-45 -145z" />
    <glyph glyph-name="Gbreve" unicode="&#x11e;" horiz-adv-x="665" 
d="M492 864q-5 -67 -49 -107.5t-116 -40.5q-73 0 -117.5 40.5t-50.5 107.5h61q5 -47 31.5 -72t75.5 -25q48 0 73.5 25t30.5 72h61zM45 335q0 103 36.5 179.5t103 119t154.5 42.5q76 0 135.5 -28.5t95 -80t40.5 -119.5h-66q-4 77 -59 122t-145 45q-108 0 -168.5 -73.5
t-60.5 -206.5q0 -134 58 -208t163 -74q87 0 141 63.5t61 170.5h-206v57h282v-344h-51l-5 155q-31 -75 -89.5 -119t-134.5 -44q-85 0 -149.5 43t-100 120t-35.5 180z" />
    <glyph glyph-name="gbreve" unicode="&#x11f;" horiz-adv-x="570" 
d="M439 720q-6 -67 -49.5 -107.5t-115.5 -40.5q-73 0 -117.5 40.5t-50.5 107.5h61q5 -47 31.5 -72t75.5 -25q48 0 73.5 25t30.5 72h61zM515 512v-523q0 -56 -28 -98.5t-78 -66t-117 -23.5q-98 0 -162 45t-76 119h67q6 -49 51 -76.5t120 -27.5t117.5 35t42.5 98v121
q-28 -51 -74.5 -79t-106.5 -28q-67 0 -118 32t-79.5 90t-28.5 136q0 77 28.5 134.5t79.5 90t118 32.5q60 0 106.5 -28t74.5 -79v96h63zM111 266q0 -94 45 -146t126 -52t125.5 52t44.5 146q0 93 -44.5 145t-125.5 52t-126 -52t-45 -145z" />
    <glyph glyph-name="Gdotaccent" unicode="&#x120;" horiz-adv-x="665" 
d="M291 800h77v-83h-77v83zM45 335q0 103 36.5 179.5t103 119t154.5 42.5q76 0 135.5 -28.5t95 -80t40.5 -119.5h-66q-4 77 -59 122t-145 45q-108 0 -168.5 -73.5t-60.5 -206.5q0 -134 58 -208t163 -74q87 0 141 63.5t61 170.5h-206v57h282v-344h-51l-5 155
q-31 -75 -89.5 -119t-134.5 -44q-85 0 -149.5 43t-100 120t-35.5 180z" />
    <glyph glyph-name="gdotaccent" unicode="&#x121;" horiz-adv-x="570" 
d="M237 656h77v-83h-77v83zM515 512v-523q0 -56 -28 -98.5t-78 -66t-117 -23.5q-98 0 -162 45t-76 119h67q6 -49 51 -76.5t120 -27.5t117.5 35t42.5 98v121q-28 -51 -74.5 -79t-106.5 -28q-67 0 -118 32t-79.5 90t-28.5 136q0 77 28.5 134.5t79.5 90t118 32.5
q60 0 106.5 -28t74.5 -79v96h63zM111 266q0 -94 45 -146t126 -52t125.5 52t44.5 146q0 93 -44.5 145t-125.5 52t-126 -52t-45 -145z" />
    <glyph glyph-name="uni0122" unicode="&#x122;" horiz-adv-x="665" 
d="M45 335q0 103 36.5 179.5t103 119t154.5 42.5q76 0 135.5 -28.5t95 -80t40.5 -119.5h-66q-4 77 -59 122t-145 45q-108 0 -168.5 -73.5t-60.5 -206.5q0 -134 58 -208t163 -74q87 0 141 63.5t61 170.5h-206v57h282v-344h-51l-5 155q-31 -75 -89.5 -119t-134.5 -44
q-85 0 -149.5 43t-100 120t-35.5 180zM293 -38h78v-99q0 -58 -25 -80.5t-54 -22.5h-16v40h12q23 0 37 13t14 56v10h-46v83z" />
    <glyph glyph-name="uni0123" unicode="&#x123;" horiz-adv-x="570" 
d="M316 573h-78v99q0 58 24.5 80.5t54.5 22.5h15v-39h-12q-22 0 -36 -13.5t-14 -56.5v-10h46v-83zM515 512v-523q0 -56 -28 -98.5t-78 -66t-117 -23.5q-98 0 -162 45t-76 119h67q6 -49 51 -76.5t120 -27.5t117.5 35t42.5 98v121q-28 -51 -74.5 -79t-106.5 -28q-67 0 -118 32
t-79.5 90t-28.5 136q0 77 28.5 134.5t79.5 90t118 32.5q60 0 106.5 -28t74.5 -79v96h63zM111 266q0 -94 45 -146t126 -52t125.5 52t44.5 146q0 93 -44.5 145t-125.5 52t-126 -52t-45 -145z" />
    <glyph glyph-name="Hcircumflex" unicode="&#x124;" horiz-adv-x="628" 
d="M283 884h65l164 -167h-73l-122 129l-124 -129h-74zM55 666h64v-291h391v291h63v-666h-63v314h-391v-314h-64v666z" />
    <glyph glyph-name="hcircumflex" unicode="&#x125;" horiz-adv-x="530" 
d="M216 940h65l164 -167h-73l-122 129l-124 -129h-74zM412 314q0 77 -39 112.5t-104 35.5q-43 0 -77 -18.5t-53.5 -50t-19.5 -72.5v-321h-64v717h64v-285q28 44 73.5 67.5t92.5 23.5q83 0 136.5 -50.5t53.5 -145.5v-327h-63v314z" />
    <glyph glyph-name="Hbar" unicode="&#x126;" horiz-adv-x="668" 
d="M19 546h56v120h63v-120h392v120h63v-120h55v-55h-55v-491h-63v314h-392v-314h-63v491h-56v55zM138 373h392v118h-392v-118z" />
    <glyph glyph-name="hbar" unicode="&#x127;" horiz-adv-x="561" 
d="M443 313q0 77 -38.5 112t-104.5 35q-42 0 -76 -18t-54 -49.5t-20 -72.5v-320h-63v594h-86v53h86v70h63v-70h196v-53h-196v-164q28 44 73.5 67.5t93.5 23.5q83 0 136.5 -50t53.5 -145v-326h-64v313z" />
    <glyph glyph-name="Itilde" unicode="&#x128;" 
d="M5 864q32 0 52.5 -17t37.5 -36q14 -17 28 -31t34 -14q23 0 37.5 25t14.5 67h49q0 -67 -27 -106t-73 -39q-32 0 -52 15t-37 32q-16 18 -30 34.5t-33 16.5q-24 0 -38 -26t-14 -68h-51q0 69 27 108t75 39zM55 666h64v-666h-64v666z" />
    <glyph glyph-name="itilde" unicode="&#x129;" 
d="M4 720q32 0 52.5 -17t37.5 -36q14 -17 28 -31t34 -14q23 0 37.5 25t14.5 67h49q0 -67 -27 -106t-73 -39q-32 0 -52 15t-37 32q-16 18 -29.5 34.5t-33.5 16.5q-24 0 -38 -26t-14 -68h-51q0 69 27.5 108t74.5 39zM55 512h64v-512h-64v512z" />
    <glyph glyph-name="Imacron" unicode="&#x12a;" 
d="M-74 792h312v-56h-312v56zM55 666h64v-666h-64v666z" />
    <glyph glyph-name="imacron" unicode="&#x12b;" 
d="M-75 648h312v-56h-312v56zM55 512h64v-512h-64v512z" />
    <glyph glyph-name="Ibreve" unicode="&#x12c;" 
d="M250 864q-6 -67 -50 -107.5t-116 -40.5q-73 0 -117.5 40.5t-49.5 107.5h61q5 -47 31.5 -72t74.5 -25t73.5 25t31.5 72h61zM55 666h64v-666h-64v666z" />
    <glyph glyph-name="ibreve" unicode="&#x12d;" 
d="M249 720q-6 -67 -49.5 -107.5t-116.5 -40.5t-117.5 40.5t-49.5 107.5h61q5 -47 31.5 -72t74.5 -25q49 0 74.5 25t30.5 72h61zM55 512h64v-512h-64v512z" />
    <glyph glyph-name="Iogonek" unicode="&#x12e;" 
d="M119 0q-42 -31 -64 -55.5t-30 -48t-8 -50.5q0 -68 81 -68h64v-60h-72q-61 0 -97.5 33t-36.5 89q0 62 33 99.5t75 60.5h-9v666h64v-666z" />
    <glyph glyph-name="iogonek" unicode="&#x12f;" 
d="M48 663h78v-78h-78v78zM119 0q-42 -31 -64 -55.5t-30 -48t-8 -50.5q0 -68 81 -68h64v-60h-72q-61 0 -97.5 33t-36.5 89q0 62 33 99.5t75 60.5h-9v512h64v-512z" />
    <glyph glyph-name="Idotaccent" unicode="&#x130;" 
d="M48 800h77v-83h-77v83zM55 666h64v-666h-64v666z" />
    <glyph glyph-name="dotlessi" unicode="&#x131;" 
d="M55 512h64v-512h-64v512z" />
    <glyph glyph-name="IJ" unicode="&#x132;" horiz-adv-x="500" 
d="M200 59h64q34 0 60.5 12.5t42 46t15.5 94.5v454h63v-461q0 -77 -26 -122t-66.5 -64t-83.5 -19h-69v59zM55 666h64v-666h-64v666z" />
    <glyph glyph-name="ij" unicode="&#x133;" horiz-adv-x="347" 
d="M222 663h78v-78h-78v78zM48 663h78v-78h-78v78zM138 -103h32q25 0 42 15t17 60v540h64v-546q0 -48 -17.5 -76t-45 -40t-57.5 -12h-35v59zM55 512h64v-512h-64v512z" />
    <glyph glyph-name="Jcircumflex" unicode="&#x134;" horiz-adv-x="326" 
d="M202 884h65l164 -167h-73l-122 129l-124 -129h-74zM26 59h64q34 0 60.5 12.5t42 46t15.5 94.5v454h63v-461q0 -77 -26 -122t-66 -64t-84 -19h-69v59z" />
    <glyph glyph-name="jcircumflex" unicode="&#x135;" 
d="M49 740h65l164 -167h-73l-123 129l-123 -129h-74zM-36 -103h32q26 0 42.5 15t16.5 60v540h64v-546q0 -48 -17.5 -76t-45 -40t-57.5 -12h-35v59z" />
    <glyph glyph-name="uni0136" unicode="&#x136;" horiz-adv-x="545" 
d="M55 666h64v-354l320 354h83l-297 -321l306 -345h-80l-270 302l-62 -70v-232h-64v666zM240 -38h78v-99q0 -58 -24.5 -80.5t-54.5 -22.5h-15v40h12q22 0 36 13t14 56v10h-46v83z" />
    <glyph glyph-name="uni0137" unicode="&#x137;" horiz-adv-x="491" 
d="M368 512h81l-224 -253l232 -259h-79l-198 216l-61 -69v-147h-64v717h64v-491zM216 -38h78v-99q0 -58 -24.5 -80.5t-54.5 -22.5h-15v40h12q22 0 36 13t14 56v10h-46v83z" />
    <glyph glyph-name="kgreenlandic" unicode="&#x138;" horiz-adv-x="491" 
d="M55 512h64v-286l249 286h81l-224 -253l232 -259h-79l-198 216l-61 -69v-147h-64v512z" />
    <glyph glyph-name="Lacute" unicode="&#x139;" horiz-adv-x="484" 
d="M225 875l-138 -158h-53l113 158h78zM448 0h-393v666h64v-606h329v-60z" />
    <glyph glyph-name="lacute" unicode="&#x13a;" 
d="M222 931l-138 -158h-53l113 158h78zM55 717h64v-717h-64v717z" />
    <glyph glyph-name="uni013B" unicode="&#x13b;" horiz-adv-x="484" 
d="M448 0h-393v666h64v-606h329v-60zM216 -38h78v-99q0 -58 -24.5 -80.5t-54.5 -22.5h-15v40h12q22 0 36.5 13t14.5 56v10h-47v83z" />
    <glyph glyph-name="uni013C" unicode="&#x13c;" 
d="M55 717h64v-717h-64v717zM48 -38h78v-99q0 -58 -24.5 -80.5t-54.5 -22.5h-15v40h12q22 0 36.5 13t14.5 56v10h-47v83z" />
    <glyph glyph-name="Lcaron" unicode="&#x13d;" horiz-adv-x="484" 
d="M244 672h62l-35 -195h-57zM448 0h-393v666h64v-606h329v-60z" />
    <glyph glyph-name="lcaron" unicode="&#x13e;" horiz-adv-x="196" 
d="M55 717h64v-717h-64v717zM204 708h62l-35 -196h-57z" />
    <glyph glyph-name="Ldot" unicode="&#x13f;" horiz-adv-x="484" 
d="M448 0h-393v666h64v-606h329v-60zM263 382h78v-82h-78v82z" />
    <glyph glyph-name="ldot" unicode="&#x140;" horiz-adv-x="347" 
d="M55 717h64v-717h-64v717zM222 369h78v-82h-78v82z" />
    <glyph glyph-name="Lslash" unicode="&#x141;" horiz-adv-x="515" 
d="M0 345l86 18v303h63v-290l172 35v-58l-172 -35v-258h330v-60h-393v305l-86 -18v58z" />
    <glyph glyph-name="lslash" unicode="&#x142;" horiz-adv-x="243" 
d="M0 364l94 18v335h63v-323l86 16v-58l-86 -16v-336h-63v324l-94 -17v57z" />
    <glyph glyph-name="Nacute" unicode="&#x143;" horiz-adv-x="630" 
d="M462 875l-138 -158h-53l113 158h78zM512 666h63v-666h-70l-386 585v-585h-64v666h86l371 -565v565z" />
    <glyph glyph-name="nacute" unicode="&#x144;" horiz-adv-x="530" 
d="M406 731l-137 -158h-54l114 158h77zM55 512h64v-80q28 44 73.5 67.5t92.5 23.5q83 0 136.5 -50.5t53.5 -145.5v-327h-63v314q0 77 -39 112.5t-104 35.5q-43 0 -76.5 -18.5t-53.5 -50t-20 -72.5v-321h-64v512z" />
    <glyph glyph-name="uni0145" unicode="&#x145;" horiz-adv-x="630" 
d="M512 666h63v-666h-70l-386 585v-585h-64v666h86l371 -565v565zM290 -38h78v-99q0 -58 -25 -80.5t-54 -22.5h-15v40h12q22 0 36 13t14 56v10h-46v83z" />
    <glyph glyph-name="uni0146" unicode="&#x146;" horiz-adv-x="530" 
d="M55 512h64v-80q28 44 73.5 67.5t92.5 23.5q83 0 136.5 -50.5t53.5 -145.5v-327h-63v314q0 77 -39 112.5t-104 35.5q-43 0 -76.5 -18.5t-53.5 -50t-20 -72.5v-321h-64v512zM234 -38h77v-99q0 -58 -24.5 -80.5t-53.5 -22.5h-16v40h12q23 0 37 13t14 56v10h-46v83z" />
    <glyph glyph-name="Ncaron" unicode="&#x147;" horiz-adv-x="630" 
d="M353 717h-65l-164 167h74l122 -129l124 129h73zM512 666h63v-666h-70l-386 585v-585h-64v666h86l371 -565v565z" />
    <glyph glyph-name="ncaron" unicode="&#x148;" horiz-adv-x="530" 
d="M297 573h-65l-164 167h74l123 -129l123 129h73zM55 512h64v-80q28 44 73.5 67.5t92.5 23.5q83 0 136.5 -50.5t53.5 -145.5v-327h-63v314q0 77 -39 112.5t-104 35.5q-43 0 -76.5 -18.5t-53.5 -50t-20 -72.5v-321h-64v512z" />
    <glyph glyph-name="napostrophe" unicode="&#x149;" horiz-adv-x="648" 
d="M59 701h78v-100q0 -57 -24.5 -79.5t-53.5 -22.5h-16v39h12q22 0 36.5 13.5t14.5 55.5v12h-47v82zM174 512h64v-80q28 44 73.5 67.5t92.5 23.5q83 0 136.5 -50.5t53.5 -145.5v-327h-63v314q0 77 -39 112.5t-104 35.5q-43 0 -77 -18.5t-53.5 -50t-19.5 -72.5v-321h-64v512z
" />
    <glyph glyph-name="Eng" unicode="&#x14a;" horiz-adv-x="630" 
d="M512 666h63v-699q0 -70 -37 -108.5t-103 -38.5h-54v59h51q41 0 60.5 22t19.5 72v30l-393 582v-585h-64v666h86l371 -553v553z" />
    <glyph glyph-name="eng" unicode="&#x14b;" horiz-adv-x="530" 
d="M55 512h64v-81q26 42 70 67t96 25q87 0 138.5 -52.5t51.5 -143.5v-360q0 -70 -36.5 -108.5t-101.5 -38.5h-55v59h51q41 0 60 22t19 72v341q0 148 -143 148q-65 0 -107.5 -40t-42.5 -101v-321h-64v512z" />
    <glyph glyph-name="Omacron" unicode="&#x14c;" horiz-adv-x="683" 
d="M180 792h312v-56h-312v56zM45 325q0 106 37.5 184.5t104 122.5t156.5 44q88 0 155 -44t104 -122.5t37 -184.5q0 -100 -37 -175t-104 -116.5t-155 -41.5q-90 0 -156.5 41.5t-104 116.5t-37.5 175zM573 325q0 137 -60.5 213.5t-169.5 76.5q-111 0 -171.5 -76.5
t-60.5 -213.5q0 -129 60.5 -200.5t171.5 -71.5q109 0 169.5 71.5t60.5 200.5z" />
    <glyph glyph-name="omacron" unicode="&#x14d;" horiz-adv-x="563" 
d="M119 648h312v-56h-312v56zM45 258q0 80 29.5 139.5t83 92.5t124.5 33t124 -33t82.5 -92.5t29.5 -139.5t-29.5 -140t-82.5 -93.5t-124 -33.5t-124.5 33.5t-83 93.5t-29.5 140zM452 258q0 97 -44.5 151t-125.5 54t-126 -54t-45 -151q0 -98 45 -152t126 -54t125.5 54
t44.5 152z" />
    <glyph glyph-name="Obreve" unicode="&#x14e;" horiz-adv-x="683" 
d="M504 864q-5 -67 -49 -107.5t-116 -40.5q-73 0 -117.5 40.5t-50.5 107.5h61q5 -47 31.5 -72t75.5 -25q48 0 73.5 25t30.5 72h61zM45 325q0 106 37.5 184.5t104 122.5t156.5 44q88 0 155 -44t104 -122.5t37 -184.5q0 -100 -37 -175t-104 -116.5t-155 -41.5
q-90 0 -156.5 41.5t-104 116.5t-37.5 175zM573 325q0 137 -60.5 213.5t-169.5 76.5q-111 0 -171.5 -76.5t-60.5 -213.5q0 -129 60.5 -200.5t171.5 -71.5q109 0 169.5 71.5t60.5 200.5z" />
    <glyph glyph-name="obreve" unicode="&#x14f;" horiz-adv-x="563" 
d="M443 720q-6 -67 -49.5 -107.5t-116.5 -40.5t-117 40.5t-50 107.5h61q5 -47 31.5 -72t74.5 -25q49 0 74.5 25t30.5 72h61zM45 258q0 80 29.5 139.5t83 92.5t124.5 33t124 -33t82.5 -92.5t29.5 -139.5t-29.5 -140t-82.5 -93.5t-124 -33.5t-124.5 33.5t-83 93.5t-29.5 140z
M452 258q0 97 -44.5 151t-125.5 54t-126 -54t-45 -151q0 -98 45 -152t126 -54t125.5 54t44.5 152z" />
    <glyph glyph-name="Ohungarumlaut" unicode="&#x150;" horiz-adv-x="683" 
d="M565 875l-139 -158h-53l114 158h78zM411 875l-137 -158h-53l114 158h76zM45 325q0 106 37.5 184.5t104 122.5t156.5 44q88 0 155 -44t104 -122.5t37 -184.5q0 -100 -37 -175t-104 -116.5t-155 -41.5q-90 0 -156.5 41.5t-104 116.5t-37.5 175zM573 325q0 137 -60.5 213.5
t-169.5 76.5q-111 0 -171.5 -76.5t-60.5 -213.5q0 -129 60.5 -200.5t171.5 -71.5q109 0 169.5 71.5t60.5 200.5z" />
    <glyph glyph-name="ohungarumlaut" unicode="&#x151;" horiz-adv-x="563" 
d="M503 731l-138 -158h-53l114 158h77zM350 731l-137 -158h-53l113 158h77zM45 258q0 80 29.5 139.5t83 92.5t124.5 33t124 -33t82.5 -92.5t29.5 -139.5t-29.5 -140t-82.5 -93.5t-124 -33.5t-124.5 33.5t-83 93.5t-29.5 140zM452 258q0 97 -44.5 151t-125.5 54t-126 -54
t-45 -151q0 -98 45 -152t126 -54t125.5 54t44.5 152z" />
    <glyph glyph-name="OE" unicode="&#x152;" horiz-adv-x="1063" 
d="M45 325q0 106 35.5 184.5t99.5 122.5t150 44q83 0 146 -43.5t97 -119.5v153h445v-61h-382v-234h353v-61h-353v-250h382v-60h-445v147q-34 -73 -97 -114t-146 -41q-86 0 -150 41.5t-99.5 116.5t-35.5 175zM573 325q0 137 -60.5 213.5t-169.5 76.5q-111 0 -171.5 -76.5
t-60.5 -213.5q0 -129 60.5 -200.5t171.5 -71.5q109 0 169.5 71.5t60.5 200.5z" />
    <glyph glyph-name="oe" unicode="&#x153;" horiz-adv-x="969" 
d="M45 258q0 80 29.5 139.5t82.5 92.5t123 33t122.5 -33.5t81.5 -92.5q28 59 80.5 92t125.5 33q67 0 120 -32.5t83 -89.5t30 -130v-31h-405q4 -92 49 -140t127 -48q66 0 105.5 30t49.5 80h67q-17 -81 -71.5 -125t-148.5 -44q-75 0 -129.5 33.5t-82.5 93.5q-28 -60 -81 -94
t-123 -34t-123 33.5t-82.5 93.5t-29.5 140zM688 464q-154 0 -169 -170h335q-6 78 -51.5 124t-114.5 46zM452 258q0 97 -44.5 151t-125.5 54t-126 -54t-45 -151q0 -98 45 -152t126 -54t125.5 54t44.5 152z" />
    <glyph glyph-name="Racute" unicode="&#x154;" horiz-adv-x="578" 
d="M427 875l-137 -158h-54l114 158h77zM283 280h-164v-280h-64v666h274q92 0 148 -53t56 -141q0 -64 -36.5 -109t-99.5 -61q57 -9 83.5 -43t34.5 -102l18 -157h-62l-18 149q-8 69 -47.5 100t-122.5 31zM321 607h-202v-269h202q69 0 107.5 34.5t38.5 96.5q0 65 -38.5 101.5
t-107.5 36.5z" />
    <glyph glyph-name="racute" unicode="&#x155;" horiz-adv-x="322" 
d="M307 731l-137 -158h-53l113 158h77zM55 512h64v-75q25 41 65 63t80 22h22v-67h-21q-41 0 -74 -17.5t-52.5 -48.5t-19.5 -72v-317h-64v512z" />
    <glyph glyph-name="uni0156" unicode="&#x156;" horiz-adv-x="578" 
d="M283 280h-164v-280h-64v666h274q92 0 148 -53t56 -141q0 -64 -36.5 -109t-99.5 -61q57 -9 83.5 -43t34.5 -102l18 -157h-62l-18 149q-8 69 -47.5 100t-122.5 31zM321 607h-202v-269h202q69 0 107.5 34.5t38.5 96.5q0 65 -38.5 101.5t-107.5 36.5zM264 -38h78v-99
q0 -58 -24.5 -80.5t-54.5 -22.5h-15v40h12q22 0 36.5 13t14.5 56v10h-47v83z" />
    <glyph glyph-name="uni0157" unicode="&#x157;" horiz-adv-x="322" 
d="M55 512h64v-75q25 41 65 63t80 22h22v-67h-21q-41 0 -74 -17.5t-52.5 -48.5t-19.5 -72v-317h-64v512zM49 -38h78v-99q0 -58 -24.5 -80.5t-54.5 -22.5h-15v40h12q22 0 36 13t14 56v10h-46v83z" />
    <glyph glyph-name="Rcaron" unicode="&#x158;" horiz-adv-x="578" 
d="M318 717h-65l-164 167h74l123 -129l123 129h73zM283 280h-164v-280h-64v666h274q92 0 148 -53t56 -141q0 -64 -36.5 -109t-99.5 -61q57 -9 83.5 -43t34.5 -102l18 -157h-62l-18 149q-8 69 -47.5 100t-122.5 31zM321 607h-202v-269h202q69 0 107.5 34.5t38.5 96.5
q0 65 -38.5 101.5t-107.5 36.5z" />
    <glyph glyph-name="rcaron" unicode="&#x159;" horiz-adv-x="322" 
d="M198 573h-65l-164 167h74l123 -129l123 129h73zM55 512h64v-75q25 41 65 63t80 22h22v-67h-21q-41 0 -74 -17.5t-52.5 -48.5t-19.5 -72v-317h-64v512z" />
    <glyph glyph-name="Sacute" unicode="&#x15a;" horiz-adv-x="588" 
d="M420 875l-137 -158h-53l113 158h77zM331 297l-81 10q-97 12 -148.5 56t-51.5 119q0 89 63.5 141t173.5 52q105 0 170 -54.5t74 -150.5h-65q-11 73 -55 108.5t-126 35.5q-77 0 -124.5 -35.5t-47.5 -93.5q0 -48 36.5 -74.5t107.5 -35.5l79 -11q208 -25 208 -186
q0 -56 -29 -98t-82 -65t-123 -23q-117 0 -186 56t-79 148h67q12 -73 60.5 -108.5t138.5 -35.5q75 0 122 34t47 92q0 102 -149 119z" />
    <glyph glyph-name="sacute" unicode="&#x15b;" horiz-adv-x="508" 
d="M381 731l-137 -158h-54l113 158h78zM290 222l-79 11q-78 10 -119.5 43t-41.5 98q0 68 52.5 108t143.5 40q88 0 142.5 -44t62.5 -120h-65q-9 55 -43 81t-97 26q-60 0 -96.5 -24t-36.5 -64q0 -39 26.5 -57t78.5 -24l81 -10q165 -20 165 -153q0 -65 -53.5 -103.5
t-141.5 -38.5q-99 0 -157 45t-67 118h67q18 -106 158 -106q58 0 94 23t36 61q0 77 -110 90z" />
    <glyph glyph-name="Scircumflex" unicode="&#x15c;" horiz-adv-x="588" 
d="M246 884h65l164 -167h-73l-122 129l-124 -129h-74zM331 297l-81 10q-97 12 -148.5 56t-51.5 119q0 89 63.5 141t173.5 52q105 0 170 -54.5t74 -150.5h-65q-11 73 -55 108.5t-126 35.5q-77 0 -124.5 -35.5t-47.5 -93.5q0 -48 36.5 -74.5t107.5 -35.5l79 -11
q208 -25 208 -186q0 -56 -29 -98t-82 -65t-123 -23q-117 0 -186 56t-79 148h67q12 -73 60.5 -108.5t138.5 -35.5q75 0 122 34t47 92q0 102 -149 119z" />
    <glyph glyph-name="scircumflex" unicode="&#x15d;" horiz-adv-x="508" 
d="M207 740h65l164 -167h-73l-123 129l-123 -129h-74zM290 222l-79 11q-78 10 -119.5 43t-41.5 98q0 68 52.5 108t143.5 40q88 0 142.5 -44t62.5 -120h-65q-9 55 -43 81t-97 26q-60 0 -96.5 -24t-36.5 -64q0 -39 26.5 -57t78.5 -24l81 -10q165 -20 165 -153
q0 -65 -53.5 -103.5t-141.5 -38.5q-99 0 -157 45t-67 118h67q18 -106 158 -106q58 0 94 23t36 61q0 77 -110 90z" />
    <glyph glyph-name="Scedilla" unicode="&#x15e;" horiz-adv-x="588" 
d="M331 297l-81 10q-97 12 -148.5 56t-51.5 119q0 89 63.5 141t173.5 52q105 0 170 -54.5t74 -150.5h-65q-11 73 -55 108.5t-126 35.5q-77 0 -124.5 -35.5t-47.5 -93.5q0 -48 36.5 -74.5t107.5 -35.5l79 -11q208 -25 208 -186q0 -80 -58 -130t-154 -55l-8 -49h15
q47 0 76 -29t29 -77q0 -51 -36 -81.5t-97 -30.5h-91v58h83q80 0 80 60q0 23 -15 35t-41 12h-34l-25 32l13 70q-104 7 -165.5 62t-70.5 141h67q12 -73 60.5 -108.5t138.5 -35.5q75 0 122 34t47 92q0 102 -149 119z" />
    <glyph glyph-name="scedilla" unicode="&#x15f;" horiz-adv-x="508" 
d="M290 222l-79 11q-78 10 -119.5 43t-41.5 98q0 68 52.5 108t143.5 40q88 0 142.5 -44t62.5 -120h-65q-9 55 -43 81t-97 26q-60 0 -96.5 -24t-36.5 -64q0 -39 26.5 -57t78.5 -24l81 -10q165 -20 165 -153q0 -60 -46.5 -97.5t-123.5 -43.5l-9 -48h16q47 0 76 -29t29 -77
q0 -51 -36.5 -81.5t-97.5 -30.5h-91v58h83q80 0 80 60q0 23 -14.5 35t-40.5 12h-34l-25 32l13 69q-87 6 -138.5 50t-59.5 112h67q18 -106 158 -106q58 0 94 23t36 61q0 77 -110 90z" />
    <glyph glyph-name="Scaron" unicode="&#x160;" horiz-adv-x="588" 
d="M311 717h-65l-164 167h74l123 -129l123 129h73zM331 297l-81 10q-97 12 -148.5 56t-51.5 119q0 89 63.5 141t173.5 52q105 0 170 -54.5t74 -150.5h-65q-11 73 -55 108.5t-126 35.5q-77 0 -124.5 -35.5t-47.5 -93.5q0 -48 36.5 -74.5t107.5 -35.5l79 -11q208 -25 208 -186
q0 -56 -29 -98t-82 -65t-123 -23q-117 0 -186 56t-79 148h67q12 -73 60.5 -108.5t138.5 -35.5q75 0 122 34t47 92q0 102 -149 119z" />
    <glyph glyph-name="scaron" unicode="&#x161;" horiz-adv-x="508" 
d="M272 573h-65l-164 167h74l123 -129l123 129h73zM290 222l-79 11q-78 10 -119.5 43t-41.5 98q0 68 52.5 108t143.5 40q88 0 142.5 -44t62.5 -120h-65q-9 55 -43 81t-97 26q-60 0 -96.5 -24t-36.5 -64q0 -39 26.5 -57t78.5 -24l81 -10q165 -20 165 -153q0 -65 -53.5 -103.5
t-141.5 -38.5q-99 0 -157 45t-67 118h67q18 -106 158 -106q58 0 94 23t36 61q0 77 -110 90z" />
    <glyph glyph-name="uni0162" unicode="&#x162;" horiz-adv-x="537" 
d="M503 666v-61h-202v-605h-7l-10 -56h16q47 0 76 -29t29 -77q0 -51 -36.5 -81.5t-97.5 -30.5h-91v58h83q80 0 80 60q0 23 -15 35t-40 12h-34l-25 32l14 77h-5v605h-203v61h468z" />
    <glyph glyph-name="uni0163" unicode="&#x163;" horiz-adv-x="325" 
d="M291 58v-58h-22l-10 -56h16q47 0 76 -29t29 -77q0 -51 -36 -81.5t-97 -30.5h-91v58h83q80 0 80 60q0 23 -15 35t-41 12h-34l-25 32l15 79q-35 7 -61.5 36t-26.5 88v328h-96v58h96v133h63v-133h97v-58h-97v-320q0 -46 16 -61t40 -15h41z" />
    <glyph glyph-name="Tcaron" unicode="&#x164;" horiz-adv-x="537" 
d="M293 717h-65l-164 167h74l123 -129l123 129h73zM503 666v-61h-202v-605h-63v605h-203v61h468z" />
    <glyph glyph-name="tcaron" unicode="&#x165;" horiz-adv-x="331" 
d="M275 756h63l-35 -196h-58zM291 58v-58h-45q-29 0 -55.5 12t-43 39.5t-16.5 74.5v328h-96v58h96v133h63v-133h97v-58h-97v-320q0 -46 16 -61t40 -15h41z" />
    <glyph glyph-name="Tbar" unicode="&#x166;" horiz-adv-x="537" 
d="M78 350h160v255h-203v61h468v-61h-202v-255h162v-59h-162v-291h-63v291h-160v59z" />
    <glyph glyph-name="tbar" unicode="&#x167;" horiz-adv-x="325" 
d="M291 58v-58h-45q-29 0 -55.5 12t-43 39.5t-16.5 74.5v129h-96v53h96v147h-96v57h96v133h63v-133h97v-57h-97v-147h97v-53h-97v-122q0 -45 16 -60t40 -15h41z" />
    <glyph glyph-name="Utilde" unicode="&#x168;" horiz-adv-x="597" 
d="M222 864q31 0 51.5 -17t37.5 -36q14 -17 28.5 -31t33.5 -14q24 0 38.5 25t14.5 67h49q0 -67 -27.5 -106t-73.5 -39q-32 0 -52 15t-37 32q-16 18 -29.5 34.5t-33.5 16.5q-24 0 -37.5 -26t-13.5 -68h-52q0 69 27.5 108t75.5 39zM50 666h63v-412q0 -95 49.5 -147.5
t137.5 -52.5q87 0 135.5 52.5t48.5 147.5v412h64v-412q0 -79 -31 -138t-87 -91.5t-130 -32.5q-75 0 -131 32.5t-87.5 91.5t-31.5 138v412z" />
    <glyph glyph-name="utilde" unicode="&#x169;" horiz-adv-x="522" 
d="M185 720q32 0 52.5 -17t37.5 -36q14 -17 28 -31t34 -14q23 0 37.5 25t14.5 67h49q0 -67 -27 -106t-73 -39q-32 0 -52 15t-37 32q-16 18 -30 34.5t-33 16.5q-24 0 -38 -26t-14 -68h-51q0 69 27.5 108t74.5 39zM119 207q0 -83 37.5 -120t101.5 -37q41 0 74 19.5t52.5 53.5
t19.5 78v311h63v-512h-63v84q-27 -45 -72 -70t-91 -25q-81 0 -133.5 53t-52.5 152v318h64v-305z" />
    <glyph glyph-name="Umacron" unicode="&#x16a;" horiz-adv-x="597" 
d="M142 792h312v-56h-312v56zM50 666h63v-412q0 -95 49.5 -147.5t137.5 -52.5q87 0 135.5 52.5t48.5 147.5v412h64v-412q0 -79 -31 -138t-87 -91.5t-130 -32.5q-75 0 -131 32.5t-87.5 91.5t-31.5 138v412z" />
    <glyph glyph-name="umacron" unicode="&#x16b;" horiz-adv-x="522" 
d="M106 648h312v-56h-312v56zM119 207q0 -83 37.5 -120t101.5 -37q41 0 74 19.5t52.5 53.5t19.5 78v311h63v-512h-63v84q-27 -45 -72 -70t-91 -25q-81 0 -133.5 53t-52.5 152v318h64v-305z" />
    <glyph glyph-name="Ubreve" unicode="&#x16c;" horiz-adv-x="597" 
d="M466 864q-6 -67 -49.5 -107.5t-115.5 -40.5q-73 0 -117.5 40.5t-50.5 107.5h61q5 -47 31.5 -72t75.5 -25q48 0 73.5 25t30.5 72h61zM50 666h63v-412q0 -95 49.5 -147.5t137.5 -52.5q87 0 135.5 52.5t48.5 147.5v412h64v-412q0 -79 -31 -138t-87 -91.5t-130 -32.5
q-75 0 -131 32.5t-87.5 91.5t-31.5 138v412z" />
    <glyph glyph-name="ubreve" unicode="&#x16d;" horiz-adv-x="522" 
d="M430 720q-6 -67 -50 -107.5t-116 -40.5q-73 0 -117.5 40.5t-49.5 107.5h61q5 -47 31.5 -72t74.5 -25q49 0 74.5 25t30.5 72h61zM119 207q0 -83 37.5 -120t101.5 -37q41 0 74 19.5t52.5 53.5t19.5 78v311h63v-512h-63v84q-27 -45 -72 -70t-91 -25q-81 0 -133.5 53
t-52.5 152v318h64v-305z" />
    <glyph glyph-name="Uring" unicode="&#x16e;" horiz-adv-x="597" 
d="M434 846q0 -62 -36.5 -99t-96.5 -37q-61 0 -98 37t-37 99q0 61 37 98t97 37t97 -37t37 -98zM221 846q0 -42 21 -64.5t59 -22.5q37 0 57.5 22.5t20.5 64.5q0 41 -21 63.5t-58 22.5t-58 -22.5t-21 -63.5zM50 666h63v-412q0 -95 49.5 -147.5t137.5 -52.5q87 0 135.5 52.5
t48.5 147.5v412h64v-412q0 -79 -31 -138t-87 -91.5t-130 -32.5q-75 0 -131 32.5t-87.5 91.5t-31.5 138v412z" />
    <glyph glyph-name="uring" unicode="&#x16f;" horiz-adv-x="522" 
d="M398 702q0 -62 -37 -99t-97 -37t-97 37t-37 99q0 61 36.5 98t96.5 37q61 0 98 -37t37 -98zM185 702q0 -42 20.5 -64.5t58.5 -22.5q37 0 58 22.5t21 64.5q0 41 -21 63.5t-59 22.5q-37 0 -57.5 -22.5t-20.5 -63.5zM119 207q0 -83 37.5 -120t101.5 -37q41 0 74 19.5
t52.5 53.5t19.5 78v311h63v-512h-63v84q-27 -45 -72 -70t-91 -25q-81 0 -133.5 53t-52.5 152v318h64v-305z" />
    <glyph glyph-name="Uhungarumlaut" unicode="&#x170;" horiz-adv-x="597" 
d="M527 875l-139 -158h-53l114 158h78zM373 875l-137 -158h-53l114 158h76zM50 666h63v-412q0 -95 49.5 -147.5t137.5 -52.5q87 0 135.5 52.5t48.5 147.5v412h64v-412q0 -79 -31 -138t-87 -91.5t-130 -32.5q-75 0 -131 32.5t-87.5 91.5t-31.5 138v412z" />
    <glyph glyph-name="uhungarumlaut" unicode="&#x171;" horiz-adv-x="522" 
d="M490 731l-138 -158h-53l114 158h77zM337 731l-138 -158h-53l114 158h77zM119 207q0 -83 37.5 -120t101.5 -37q41 0 74 19.5t52.5 53.5t19.5 78v311h63v-512h-63v84q-27 -45 -72 -70t-91 -25q-81 0 -133.5 53t-52.5 152v318h64v-305z" />
    <glyph glyph-name="Uogonek" unicode="&#x172;" horiz-adv-x="597" 
d="M50 666h63v-412q0 -95 49.5 -147.5t137.5 -52.5q87 0 135.5 52.5t48.5 147.5v412h64v-412q0 -73 -27 -129.5t-76 -90.5t-115 -40q-38 -29 -58.5 -53t-27.5 -46.5t-7 -48.5q0 -68 81 -68h64v-60h-72q-61 0 -97.5 33t-36.5 89q0 58 29 94t67 59q-67 6 -117 40t-77.5 90.5
t-27.5 130.5v412z" />
    <glyph glyph-name="uogonek" unicode="&#x173;" horiz-adv-x="522" 
d="M119 207q0 -83 37.5 -120t101.5 -37q41 0 74 19.5t52.5 53.5t19.5 78v311h63v-512v0q-42 -31 -64 -55.5t-30 -48t-8 -50.5q0 -68 81 -68h64v-60h-72q-61 0 -97.5 33t-36.5 89q0 62 33 99.5t75 60.5h-8v84q-27 -45 -72 -70t-91 -25q-81 0 -133.5 53t-52.5 152v318h64v-305
z" />
    <glyph glyph-name="Wcircumflex" unicode="&#x174;" horiz-adv-x="985" 
d="M454 884h65l164 -167h-73l-123 129l-123 -129h-74zM34 666h70l157 -582l194 582h74l189 -582l163 582h70l-199 -666h-70l-191 585l-194 -585h-71z" />
    <glyph glyph-name="wcircumflex" unicode="&#x175;" horiz-adv-x="780" 
d="M347 740h65l164 -167h-73l-122 129l-124 -129h-74zM35 512h70l114 -430l134 430h73l129 -430l121 430h70l-158 -512h-68l-131 433l-134 -433h-70z" />
    <glyph glyph-name="Ycircumflex" unicode="&#x176;" horiz-adv-x="588" 
d="M265 884h65l164 -167h-73l-122 129l-124 -129h-74zM261 229l-227 437h76l183 -360l187 360h74l-230 -437v-229h-63v229z" />
    <glyph glyph-name="ycircumflex" unicode="&#x177;" horiz-adv-x="550" 
d="M247 740h65l164 -167h-73l-122 129l-124 -129h-74zM62 -97h72q37 0 58.5 15.5t35.5 53.5l11 31l-204 509h70l171 -433l169 433h71l-215 -546q-27 -68 -59.5 -97t-81.5 -29h-98v63z" />
    <glyph glyph-name="Ydieresis" unicode="&#x178;" horiz-adv-x="588" 
d="M364 798h76v-81h-76v81zM155 798h76v-81h-76v81zM261 229l-227 437h76l183 -360l187 360h74l-230 -437v-229h-63v229z" />
    <glyph glyph-name="Zacute" unicode="&#x179;" horiz-adv-x="569" 
d="M425 875l-137 -158h-53l113 158h77zM46 666h477v-71l-406 -537h406v-58h-477v70l405 537h-405v59z" />
    <glyph glyph-name="zacute" unicode="&#x17a;" horiz-adv-x="478" 
d="M375 731l-137 -158h-54l113 158h78zM46 512h386v-68l-314 -387h314v-57h-386v68l314 387h-314v57z" />
    <glyph glyph-name="Zdotaccent" unicode="&#x17b;" horiz-adv-x="569" 
d="M250 800h77v-83h-77v83zM46 666h477v-71l-406 -537h406v-58h-477v70l405 537h-405v59z" />
    <glyph glyph-name="zdotaccent" unicode="&#x17c;" horiz-adv-x="478" 
d="M199 656h77v-83h-77v83zM46 512h386v-68l-314 -387h314v-57h-386v68l314 387h-314v57z" />
    <glyph glyph-name="Zcaron" unicode="&#x17d;" horiz-adv-x="569" 
d="M316 717h-65l-164 167h74l123 -129l123 129h73zM46 666h477v-71l-406 -537h406v-58h-477v70l405 537h-405v59z" />
    <glyph glyph-name="zcaron" unicode="&#x17e;" horiz-adv-x="478" 
d="M266 573h-65l-164 167h74l123 -129l123 129h73zM46 512h386v-68l-314 -387h314v-57h-386v68l314 387h-314v57z" />
    <glyph glyph-name="longs" unicode="&#x17f;" horiz-adv-x="264" 
d="M229 659h-41q-30 0 -49.5 -14.5t-19.5 -59.5v-585h-64v591q0 47 19 74.5t48.5 39.5t61.5 12h45v-58z" />
    <glyph glyph-name="Ohorn" unicode="&#x1a0;" horiz-adv-x="683" 
d="M45 325q0 106 37.5 184.5t104 122.5t156.5 44q41 0 78 -10h125q30 0 49.5 14.5t19.5 60.5v31h60v-37q0 -47 -18 -74t-45 -38t-55 -11h-31q53 -46 83 -119.5t30 -167.5q0 -100 -37 -175t-104 -116.5t-155 -41.5q-90 0 -156.5 41.5t-104 116.5t-37.5 175zM573 325
q0 137 -60.5 213.5t-169.5 76.5q-111 0 -171.5 -76.5t-60.5 -213.5q0 -129 60.5 -200.5t171.5 -71.5q109 0 169.5 71.5t60.5 200.5z" />
    <glyph glyph-name="ohorn" unicode="&#x1a1;" horiz-adv-x="566" 
d="M45 258q0 80 29.5 139.5t83 92.5t124.5 33q40 0 75 -11h78q30 0 50.5 15t20.5 61v30h58v-36q0 -47 -17.5 -74t-45 -38t-55.5 -11h-1q35 -35 54 -86t19 -115q0 -80 -29.5 -140t-82.5 -93.5t-124 -33.5t-124.5 33.5t-83 93.5t-29.5 140zM452 258q0 97 -44.5 151t-125.5 54
t-126 -54t-45 -151q0 -98 45 -152t126 -54t125.5 54t44.5 152z" />
    <glyph glyph-name="Uhorn" unicode="&#x1af;" horiz-adv-x="638" 
d="M50 666h63v-412q0 -95 49.5 -147.5t137.5 -52.5q87 0 135.5 52.5t48.5 147.5v412h64v-1h2q30 0 50.5 15t20.5 61v31h58v-37q0 -47 -17.5 -74t-44.5 -38t-55 -11h-14v-358q0 -79 -31 -138t-87 -91.5t-130 -32.5q-75 0 -131 32.5t-87.5 91.5t-31.5 138v412z" />
    <glyph glyph-name="uhorn" unicode="&#x1b0;" horiz-adv-x="578" 
d="M119 207q0 -83 37.5 -120t101.5 -37q41 0 74 19.5t52.5 53.5t19.5 78v311h66q30 0 50 15t20 61v31h59v-37q0 -47 -18 -74t-45 -38t-54 -11h-15v-459h-63v84q-27 -45 -72 -70t-91 -25q-81 0 -133.5 53t-52.5 152v318h64v-305z" />
    <glyph glyph-name="uni01CD" unicode="&#x1cd;" horiz-adv-x="635" 
d="M345 717h-65l-164 167h74l122 -129l124 129h73zM602 0h-70l-68 186h-292l-67 -186h-71l249 666h71zM317 587l-124 -344h250z" />
    <glyph glyph-name="uni01CE" unicode="&#x1ce;" horiz-adv-x="520" 
d="M289 573h-65l-164 167h74l122 -129l123 129h74zM464 341v-341h-64v94q-30 -48 -78.5 -76t-107.5 -28q-74 0 -121.5 42t-47.5 108q0 61 38.5 97.5t107.5 41.5l146 10q34 2 48.5 14.5t14.5 39.5v2q0 34 -18.5 61t-49.5 43t-70 16q-133 0 -146 -115h-67q5 78 62.5 125.5
t149.5 47.5q58 0 104 -24t72.5 -65t26.5 -93zM110 141q0 -42 32.5 -67.5t87.5 -25.5q49 0 87 22.5t60.5 62t22.5 89.5v15l-188 -13q-102 -7 -102 -83z" />
    <glyph glyph-name="uni01CF" unicode="&#x1cf;" 
d="M115 717h-65l-164 167h74l122 -129l124 129h73zM55 666h64v-666h-64v666z" />
    <glyph glyph-name="uni01D0" unicode="&#x1d0;" 
d="M114 573h-65l-164 167h74l122 -129l124 129h73zM55 512h64v-512h-64v512z" />
    <glyph glyph-name="uni01D1" unicode="&#x1d1;" horiz-adv-x="683" 
d="M369 717h-65l-164 167h74l123 -129l123 129h73zM45 325q0 106 37.5 184.5t104 122.5t156.5 44q88 0 155 -44t104 -122.5t37 -184.5q0 -100 -37 -175t-104 -116.5t-155 -41.5q-90 0 -156.5 41.5t-104 116.5t-37.5 175zM573 325q0 137 -60.5 213.5t-169.5 76.5
q-111 0 -171.5 -76.5t-60.5 -213.5q0 -129 60.5 -200.5t171.5 -71.5q109 0 169.5 71.5t60.5 200.5z" />
    <glyph glyph-name="uni01D2" unicode="&#x1d2;" horiz-adv-x="563" 
d="M308 573h-65l-164 167h74l123 -129l123 129h73zM45 258q0 80 29.5 139.5t83 92.5t124.5 33t124 -33t82.5 -92.5t29.5 -139.5t-29.5 -140t-82.5 -93.5t-124 -33.5t-124.5 33.5t-83 93.5t-29.5 140zM452 258q0 97 -44.5 151t-125.5 54t-126 -54t-45 -151q0 -98 45 -152
t126 -54t125.5 54t44.5 152z" />
    <glyph glyph-name="uni01D3" unicode="&#x1d3;" horiz-adv-x="597" 
d="M331 717h-65l-164 167h74l123 -129l123 129h73zM50 666h63v-412q0 -95 49.5 -147.5t137.5 -52.5q87 0 135.5 52.5t48.5 147.5v412h64v-412q0 -79 -31 -138t-87 -91.5t-130 -32.5q-75 0 -131 32.5t-87.5 91.5t-31.5 138v412z" />
    <glyph glyph-name="uni01D4" unicode="&#x1d4;" horiz-adv-x="522" 
d="M295 573h-65l-164 167h74l122 -129l124 129h73zM119 207q0 -83 37.5 -120t101.5 -37q41 0 74 19.5t52.5 53.5t19.5 78v311h63v-512h-63v84q-27 -45 -72 -70t-91 -25q-81 0 -133.5 53t-52.5 152v318h64v-305z" />
    <glyph glyph-name="uni01DD" unicode="&#x1dd;" horiz-adv-x="561" 
d="M516 256q0 -81 -29 -140.5t-82 -91.5t-126 -32q-68 0 -121 32.5t-83 89t-30 129.5v32h404q-4 92 -49 140t-127 48q-67 0 -107 -30t-51 -80h-67q17 81 73 125t152 44q74 0 128.5 -32.5t84.5 -92t30 -141.5zM279 50q154 0 169 170h-335q6 -78 51.5 -124t114.5 -46z" />
    <glyph glyph-name="uni01E2" unicode="&#x1e2;" horiz-adv-x="973" 
d="M455 792h312v-56h-312v56zM928 666v-61h-381v-234h352v-61h-352v-250h381v-60h-445v186h-288l-92 -186h-69l329 666h565zM222 243h261v361h-81z" />
    <glyph glyph-name="uni01E3" unicode="&#x1e3;" horiz-adv-x="916" 
d="M287 648h312v-56h-312v56zM644 -8q-78 0 -134 36.5t-83 102.5q-26 -63 -83 -102t-129 -39q-75 0 -122.5 42t-47.5 108q0 61 38.5 97.5t107.5 40.5l146 11q34 2 48.5 14.5t14.5 39.5v2q0 34 -18.5 61t-49.5 43t-70 16q-133 0 -146 -115h-67q5 78 62 125.5t147 47.5
q64 0 113 -29t71 -77q30 50 80 77.5t116 27.5q68 0 120.5 -32.5t82 -89.5t29.5 -130v-31h-403q4 -92 48.5 -140t126.5 -48q66 0 106 30t50 80h66q-16 -81 -71 -125t-149 -44zM636 464q-153 0 -168 -170h335q-7 78 -52.5 124t-114.5 46zM110 142q0 -43 32.5 -68t87.5 -25
q49 0 87 22.5t60.5 62t22.5 89.5v15l-188 -13q-102 -7 -102 -83z" />
    <glyph glyph-name="uni01F0" unicode="&#x1f0;" 
d="M114 573h-65l-164 167h74l122 -129l124 129h73zM-36 -103h32q26 0 42.5 15t16.5 60v540h64v-546q0 -48 -17.5 -76t-45 -40t-57.5 -12h-35v59z" />
    <glyph glyph-name="AEacute" unicode="&#x1fc;" horiz-adv-x="973" 
d="M610 875l-137 -158h-53l113 158h77zM928 666v-61h-381v-234h352v-61h-352v-250h381v-60h-445v186h-288l-92 -186h-69l329 666h565zM222 243h261v361h-81z" />
    <glyph glyph-name="aeacute" unicode="&#x1fd;" horiz-adv-x="916" 
d="M585 731l-137 -158h-53l113 158h77zM644 -8q-78 0 -134 36.5t-83 102.5q-26 -63 -83 -102t-129 -39q-75 0 -122.5 42t-47.5 108q0 61 38.5 97.5t107.5 40.5l146 11q34 2 48.5 14.5t14.5 39.5v2q0 34 -18.5 61t-49.5 43t-70 16q-133 0 -146 -115h-67q5 78 62 125.5
t147 47.5q64 0 113 -29t71 -77q30 50 80 77.5t116 27.5q68 0 120.5 -32.5t82 -89.5t29.5 -130v-31h-403q4 -92 48.5 -140t126.5 -48q66 0 106 30t50 80h66q-16 -81 -71 -125t-149 -44zM636 464q-153 0 -168 -170h335q-7 78 -52.5 124t-114.5 46zM110 142q0 -43 32.5 -68
t87.5 -25q49 0 87 22.5t60.5 62t22.5 89.5v15l-188 -13q-102 -7 -102 -83z" />
    <glyph glyph-name="uni0237" unicode="&#x237;" 
d="M-36 -103h32q26 0 42.5 15t16.5 60v540h64v-546q0 -48 -17.5 -76t-45 -40t-57.5 -12h-35v59z" />
    <glyph glyph-name="uni0250" unicode="&#x250;" horiz-adv-x="519" 
d="M56 368q0 88 -12 144h65q4 -21 6.5 -45t4.5 -50q29 48 77.5 76.5t108.5 28.5q74 0 121.5 -42t47.5 -108q0 -61 -38.5 -97.5t-107.5 -40.5l-146 -11q-34 -2 -48.5 -14.5t-14.5 -39.5v-2q0 -34 18.5 -61t49.5 -42.5t70 -15.5q133 0 146 114h67q-5 -78 -63 -125.5
t-149 -47.5q-58 0 -104 24t-72.5 65t-26.5 93v197zM120 290v-16l188 13q102 7 102 83q0 43 -32.5 68t-87.5 25q-49 0 -87 -22.5t-60.5 -62t-22.5 -88.5z" />
    <glyph glyph-name="uni0251" unicode="&#x251;" horiz-adv-x="579" 
d="M590 58v-58h-16q-42 0 -78 23t-43 81q-27 -53 -74 -83t-107 -30q-68 0 -119 33.5t-79.5 93.5t-28.5 140t28.5 139.5t79.5 92.5t119 33q60 0 106 -29t74 -81v99h63v-378q0 -46 18 -61t45 -15h12zM111 258q0 -98 45 -152t125 -54q82 0 126.5 54t44.5 152q0 97 -44.5 151
t-126.5 54q-80 0 -125 -54t-45 -151z" />
    <glyph glyph-name="uni0252" unicode="&#x252;" horiz-adv-x="579" 
d="M-10 456v58h15q41 0 78 -23t44 -81q27 53 73.5 83t106.5 30q68 0 119 -33.5t79.5 -93.5t28.5 -140t-28.5 -139.5t-79.5 -92.5t-119 -33q-60 0 -106 29t-73 80v-98h-63v378q0 46 -18.5 61t-45.5 15h-11zM468 256q0 98 -44.5 152.5t-125.5 54.5t-125.5 -54.5t-44.5 -152.5
q0 -97 44.5 -150.5t125.5 -53.5t125.5 53.5t44.5 150.5z" />
    <glyph glyph-name="uni0253" unicode="&#x253;" horiz-adv-x="570" 
d="M45 0v501q0 69 29 120.5t81 80t122 28.5q94 0 155.5 -47.5t73.5 -126.5h-67q-7 53 -49 84t-112 31q-81 0 -125.5 -45.5t-44.5 -129.5v-99q27 51 73.5 79t106.5 28q68 0 119 -32t79.5 -90t28.5 -136q0 -77 -28.5 -134.5t-79.5 -90t-119 -32.5q-60 0 -106.5 28t-73.5 79
v-96h-63zM449 246q0 94 -45 146t-126 52t-125.5 -52t-44.5 -146q0 -93 44.5 -144.5t125.5 -51.5t126 51.5t45 144.5z" />
    <glyph glyph-name="uni0254" unicode="&#x254;" horiz-adv-x="554" 
d="M510 256q0 -80 -30 -139.5t-83 -92.5t-124 -33q-63 0 -113 24.5t-80 67.5t-35 100h66q3 -61 47 -96t115 -35q82 0 126.5 53.5t44.5 150.5q0 98 -45 152.5t-126 54.5q-70 0 -114.5 -36.5t-47.5 -99.5h-66q8 90 70.5 143t157.5 53q71 0 124 -33.5t83 -93.5t30 -140z" />
    <glyph glyph-name="uni0255" unicode="&#x255;" horiz-adv-x="554" 
d="M107 -75q0 76 18 139q-38 35 -59 84.5t-21 109.5q0 80 29.5 139.5t83 92.5t123.5 33q64 0 114 -24.5t80 -68t35 -101.5h-66q-4 62 -47.5 98.5t-115.5 36.5q-81 0 -125.5 -53.5t-44.5 -150.5q0 -80 38 -132q31 65 83.5 101t119.5 36q44 0 79.5 -17t57 -47.5t21.5 -70.5
q0 -42 -24 -73t-65 -48t-91 -17q-87 0 -153 35q-9 -46 -9 -102h-61zM330 50q50 0 81.5 21t32.5 59q0 35 -26.5 56.5t-67.5 21.5q-56 0 -96 -31.5t-62 -90.5q55 -36 138 -36z" />
    <glyph glyph-name="uni0256" unicode="&#x256;" horiz-adv-x="579" 
d="M590 -109v-58h-16q-30 0 -58 12t-46 39.5t-18 74.5v143q-28 -53 -74 -82t-106 -29q-68 0 -119 33.5t-79.5 93.5t-28.5 140t28.5 139.5t79.5 92.5t119 33q60 0 106 -29t74 -81v304h63v-750q0 -46 18 -61t45 -15h12zM111 258q0 -98 45 -152t125 -54q82 0 126.5 54t44.5 152
q0 97 -44.5 151t-126.5 54q-80 0 -125 -54t-45 -151z" />
    <glyph glyph-name="uni0257" unicode="&#x257;" horiz-adv-x="579" 
d="M591 659h-13q-27 0 -45 -15t-18 -61v-583h-63v102q-28 -53 -74 -82t-106 -29q-68 0 -119 33.5t-79.5 93.5t-28.5 140t28.5 139.5t79.5 92.5t119 33q60 0 106 -29t74 -81v178q0 47 18 74.5t46 39.5t58 12h17v-58zM111 258q0 -98 45 -152t125 -54q82 0 126.5 54t44.5 152
q0 97 -44.5 151t-126.5 54q-80 0 -125 -54t-45 -151z" />
    <glyph glyph-name="uni0258" unicode="&#x258;" horiz-adv-x="561" 
d="M516 258q0 -82 -30 -141.5t-84 -92t-129 -32.5q-95 0 -151 44t-73 125h67q11 -50 50.5 -80t106.5 -30q82 0 127 48t49 140h-404v31q0 74 30 131t82.5 89t120.5 32q73 0 126.5 -32t82.5 -91t29 -141zM113 294h335q-15 170 -169 170q-72 0 -118 -46t-48 -124z" />
    <glyph glyph-name="uni0259" unicode="&#x259;" horiz-adv-x="561" 
d="M516 256q0 -81 -29 -140.5t-82 -91.5t-126 -32q-68 0 -121 32.5t-83 89t-30 129.5v32h404q-4 92 -49 140t-127 48q-67 0 -107 -30t-51 -80h-67q17 81 73 125t152 44q74 0 128.5 -32.5t84.5 -92t30 -141.5zM279 50q154 0 169 170h-335q6 -78 51.5 -124t114.5 -46z" />
    <glyph glyph-name="uni025A" unicode="&#x25a;" horiz-adv-x="709" 
d="M516 256q0 -81 -29 -140.5t-82 -91.5t-126 -32q-68 0 -121 28.5t-83 78.5t-30 114v23l401 76q-24 151 -173 151q-67 0 -107 -30t-51 -80h-67q17 81 73 125t152 44q94 0 156 -51.5t80 -143.5l85 17h33v-53q0 -38 16 -50t40 -12h12v-55h-15q-26 0 -50.5 10t-40.5 33.5
t-16 63.5v7l-58 -12q1 -10 1 -20zM113 192q7 -65 52 -103.5t114 -38.5q84 0 127.5 52t43.5 154v2z" />
    <glyph glyph-name="uni025B" unicode="&#x25b;" horiz-adv-x="495" 
d="M450 149q-6 -71 -62.5 -114t-141.5 -43q-90 0 -145.5 40t-55.5 107q0 41 19.5 71.5t54.5 46.5q-64 33 -64 112q0 70 53.5 112t140.5 42q81 0 135 -45.5t60 -118.5h-66q-2 48 -36.5 77t-91.5 29q-61 0 -94.5 -25.5t-33.5 -72.5q0 -39 19.5 -60.5t55.5 -21.5h117v-58h-117
q-41 0 -63.5 -22.5t-22.5 -63.5q0 -44 35.5 -67.5t99.5 -23.5q61 0 98 26.5t40 72.5h66z" />
    <glyph glyph-name="uni025C" unicode="&#x25c;" horiz-adv-x="495" 
d="M181 227v58h117q36 0 56 21.5t20 60.5q0 47 -33.5 72.5t-94.5 25.5q-57 0 -92 -29t-37 -77h-66q6 73 60 118.5t135 45.5q87 0 140.5 -42t53.5 -112q0 -79 -64 -112q35 -16 54.5 -46.5t19.5 -71.5q0 -67 -55 -107t-144 -40q-57 0 -102 19.5t-72.5 55t-31.5 82.5h66
q3 -46 40.5 -72.5t98.5 -26.5q63 0 98.5 23.5t35.5 67.5q0 41 -22.5 63.5t-63.5 22.5h-117z" />
    <glyph glyph-name="uni025D" unicode="&#x25d;" horiz-adv-x="610" 
d="M596 229v-55h-16q-26 0 -50.5 10t-40 33.5t-15.5 63.5v7l-76 -16q-10 -9 -22 -15q35 -16 54.5 -46.5t19.5 -71.5q0 -67 -55 -107t-144 -40q-57 0 -102 19.5t-72.5 55t-31.5 82.5h66q3 -46 40.5 -72.5t98.5 -26.5q63 0 98.5 23.5t35.5 67.5q0 41 -22.5 63.5t-63.5 22.5
h-117v58h117q36 0 56 21.5t20 60.5q0 47 -33.5 72.5t-94.5 25.5q-57 0 -92 -29t-37 -77h-66q6 73 60 118.5t135 45.5q87 0 140.5 -42t53.5 -112q0 -19 -5 -37l59 12h34v-53q0 -38 15.5 -50t38.5 -12h14z" />
    <glyph glyph-name="uni025E" unicode="&#x25e;" horiz-adv-x="516" 
d="M398 257q35 -16 54.5 -46.5t19.5 -71.5q0 -66 -50 -106.5t-131 -40.5q-72 0 -127.5 34t-87 94.5t-31.5 139.5q0 78 30.5 137.5t85 92.5t126.5 33q79 0 127 -42t48 -112q0 -79 -64 -112zM111 260q0 -99 47.5 -154t131.5 -55q55 0 85.5 23.5t30.5 66.5q0 41 -23 63.5
t-64 22.5h-88v58h88q36 0 56 21.5t20 60.5q0 47 -28.5 72t-80.5 25q-82 0 -128.5 -54t-46.5 -150z" />
    <glyph glyph-name="uni025F" unicode="&#x25f;" horiz-adv-x="325" 
d="M35 -147h41q30 0 50 14.5t20 59.5v73h-111v58h111v454h63v-454h82v-58h-82v-79q0 -47 -19 -74.5t-48.5 -39.5t-61.5 -12h-45v58z" />
    <glyph glyph-name="uni0260" unicode="&#x260;" horiz-adv-x="570" 
d="M591 659h-13q-27 0 -45 -15t-18 -61v-594q0 -56 -28 -98.5t-78 -66t-117 -23.5q-98 0 -162 45t-76 119h67q6 -49 51 -76.5t120 -27.5t117.5 35t42.5 98v121q-28 -51 -74.5 -79t-106.5 -28q-67 0 -118 32t-79.5 90t-28.5 136q0 77 28.5 134.5t79.5 90t118 32.5
q60 0 106.5 -28t74.5 -79v175q0 47 18 74.5t46 39.5t58 12h17v-58zM111 266q0 -94 45 -146t126 -52t125.5 52t44.5 146q0 93 -44.5 145t-125.5 52t-126 -52t-45 -145z" />
    <glyph glyph-name="uni0261" unicode="&#x261;" horiz-adv-x="570" 
d="M515 512v-523q0 -56 -28 -98.5t-78 -66t-117 -23.5q-98 0 -162 45t-76 119h67q6 -49 51 -76.5t120 -27.5t117.5 35t42.5 98v121q-28 -51 -74.5 -79t-106.5 -28q-67 0 -118 32t-79.5 90t-28.5 136q0 77 28.5 134.5t79.5 90t118 32.5q60 0 106.5 -28t74.5 -79v96h63z
M111 266q0 -94 45 -146t126 -52t125.5 52t44.5 146q0 93 -44.5 145t-125.5 52t-126 -52t-45 -145z" />
    <glyph glyph-name="uni0262" unicode="&#x262;" horiz-adv-x="554" 
d="M45 258q0 80 30 139.5t84.5 92.5t126.5 33q62 0 111 -23.5t78.5 -65.5t34.5 -97h-66q-3 58 -46 92t-112 34q-83 0 -129 -53.5t-46 -151.5t44.5 -152.5t124.5 -54.5q64 0 105.5 40.5t47.5 115.5h-164v54h241v-261h-48l-6 116q-24 -59 -71.5 -92t-106.5 -33
q-70 0 -122.5 33.5t-81.5 93.5t-29 140z" />
    <glyph glyph-name="uni0263" unicode="&#x263;" horiz-adv-x="548" 
d="M169 -44l60 121l-194 435h70l171 -393l167 393h71l-194 -436l58 -120q12 -25 12 -50q0 -29 -16 -54t-42.5 -39.5t-58.5 -14.5q-49 0 -83 30.5t-34 74.5q0 26 13 53zM318 -59l-45 95l-44 -95q-9 -20 -9 -35q0 -21 14.5 -33.5t39.5 -12.5q22 0 37 13.5t15 34.5q0 16 -8 33z
" />
    <glyph glyph-name="uni0264" unicode="&#x264;" horiz-adv-x="446" 
d="M132 147l43 71l-140 294h70l117 -252l117 252h71l-143 -294l42 -71q16 -26 16 -55q0 -43 -30.5 -72t-75.5 -29q-46 0 -75.5 27.5t-29.5 68.5q0 30 18 60zM250 133l-31 46l-28 -46q-12 -22 -12 -42q0 -39 42 -39q41 0 41 41q0 20 -12 40z" />
    <glyph glyph-name="uni0265" unicode="&#x265;" horiz-adv-x="529" 
d="M119 198q0 -78 38.5 -113t103.5 -35q43 0 77 18t53.5 50t19.5 73v321h63v-679h-63v248q-28 -44 -73.5 -68t-92.5 -24q-83 0 -136.5 50t-53.5 145v328h64v-314z" />
    <glyph glyph-name="uni0266" unicode="&#x266;" horiz-adv-x="530" 
d="M55 0v501q0 69 27.5 120.5t78 80t117.5 28.5q91 0 149.5 -45t68.5 -118h-66q-5 48 -44.5 76.5t-106.5 28.5q-76 0 -118 -46t-42 -130v-65q28 43 73.5 66.5t92.5 23.5q83 0 136.5 -50t53.5 -146v-325h-63v312q0 78 -39 113t-104 35q-43 0 -77 -18t-53.5 -50t-19.5 -73
v-319h-64z" />
    <glyph glyph-name="uni0267" unicode="&#x267;" horiz-adv-x="530" 
d="M55 0v501q0 69 28 120.5t78 80t117 28.5q91 0 149.5 -45t69.5 -118h-66q-6 48 -45.5 76.5t-106.5 28.5q-76 0 -118 -46t-42 -130v-66q26 41 70 66t96 25q87 0 138.5 -52.5t51.5 -143.5v-358q0 -70 -36.5 -108.5t-101.5 -38.5h-55v59h51q41 0 60 22t19 72v339
q0 148 -143 148q-65 0 -107.5 -40t-42.5 -101v-319h-64z" />
    <glyph glyph-name="uni0268" unicode="&#x268;" horiz-adv-x="214" 
d="M69 663h77v-78h-77v78zM76 512h63v-201h76v-57h-76v-254h-63v254h-76v57h76v201z" />
    <glyph glyph-name="uni0269" unicode="&#x269;" horiz-adv-x="240" 
d="M215 58v-58h-45q-28 0 -54.5 12t-43.5 39.5t-17 74.5v386h64v-378q0 -46 15.5 -61t39.5 -15h41z" />
    <glyph glyph-name="uni026A" unicode="&#x26a;" horiz-adv-x="353" 
d="M318 512v-59h-109v-394h109v-59h-283v59h110v394h-110v59h283z" />
    <glyph glyph-name="uni026B" unicode="&#x26b;" horiz-adv-x="298" 
d="M93 435q14 0 27 -6v288h63v-349q12 -13 25 -13q19 0 30.5 20t11.5 54h49q0 -58 -24 -92.5t-66 -34.5q-14 0 -26 4v-306h-63v365q-6 7 -12.5 12t-13.5 5q-20 0 -31.5 -21t-11.5 -55h-51q0 60 24.5 94.5t68.5 34.5z" />
    <glyph glyph-name="uni026C" unicode="&#x26c;" horiz-adv-x="300" 
d="M128 717h63v-384h110v-54h-110v-279h-63v279h-11q-29 0 -55.5 10.5t-44 34.5t-17.5 65t17.5 65t44 34.5t55.5 10.5h11v218zM123 333h5v111h-5q-29 0 -48 -10.5t-19 -44.5t19 -45t48 -11z" />
    <glyph glyph-name="uni026D" unicode="&#x26d;" horiz-adv-x="235" 
d="M200 -109v-58h-16q-32 0 -61.5 12t-48.5 39.5t-19 74.5v758h64v-750q0 -46 19.5 -61t49.5 -15h12z" />
    <glyph glyph-name="uni026E" unicode="&#x26e;" horiz-adv-x="559" 
d="M322 222q99 -5 150.5 -59.5t51.5 -153.5q0 -64 -28.5 -112t-79 -75t-118.5 -27q-94 0 -154.5 42t-72.5 112h66q7 -43 49 -69t112 -26q76 0 118 41t42 115q0 75 -41.5 116t-117.5 41h-45v58l173 228h-308v-453h-64v717h64v-205h381v-59z" />
    <glyph glyph-name="uni026F" unicode="&#x26f;" horiz-adv-x="846" 
d="M119 198q0 -77 36 -112.5t97 -35.5q59 0 99 40t40 101v321h63v-314q0 -77 36.5 -112.5t97.5 -35.5q59 0 99.5 40t40.5 101v321h63v-512h-63v77q-28 -42 -70.5 -65t-86.5 -23q-58 0 -101.5 28t-63.5 81q-25 -52 -73 -80.5t-97 -28.5q-78 0 -129.5 50.5t-51.5 145.5v327h64
v-314z" />
    <glyph glyph-name="uni0270" unicode="&#x270;" horiz-adv-x="846" 
d="M119 198q0 -77 36 -112.5t97 -35.5q59 0 99 40t40 101v321h63v-314q0 -77 36.5 -112.5t97.5 -35.5q59 0 99.5 40t40.5 101v321h63v-679h-63v244q-28 -42 -70.5 -65t-86.5 -23q-58 0 -101.5 28t-63.5 81q-25 -52 -73 -80.5t-97 -28.5q-78 0 -129.5 50.5t-51.5 145.5v327
h64v-314z" />
    <glyph glyph-name="uni0271" unicode="&#x271;" horiz-adv-x="846" 
d="M391 314q0 77 -36 112.5t-96 35.5t-100 -40t-40 -101v-321h-64v512h64v-77q27 42 69.5 65t86.5 23q58 0 101.5 -28t63.5 -82q25 52 73 81t98 29q78 0 129 -50.5t51 -145.5v-358q0 -70 -37 -108.5t-102 -38.5h-55v59h51q42 0 61 22t19 72v339q0 77 -36 112.5t-97 35.5
q-40 0 -71.5 -18.5t-50.5 -50t-19 -72.5v-321h-63v314z" />
    <glyph glyph-name="uni0272" unicode="&#x272;" horiz-adv-x="530" 
d="M-36 -112h32q26 0 42.5 14.5t16.5 59.5v550h64v-80q28 44 73.5 67.5t92.5 23.5q83 0 136.5 -50.5t53.5 -145.5v-327h-63v314q0 77 -39 112.5t-104 35.5q-43 0 -76.5 -18.5t-53.5 -50t-20 -72.5v-365q0 -47 -17.5 -74.5t-45 -39.5t-57.5 -12h-35v58z" />
    <glyph glyph-name="uni0273" unicode="&#x273;" horiz-adv-x="530" 
d="M55 512h64v-80q28 44 73.5 67.5t92.5 23.5q83 0 136.5 -50.5t53.5 -145.5v-360q0 -46 18 -61t45 -15h12v-58h-15q-31 0 -59 12t-46 39.5t-18 74.5v355q0 77 -39 112.5t-104 35.5q-43 0 -76.5 -18.5t-53.5 -50t-20 -72.5v-321h-64v512z" />
    <glyph glyph-name="uni0274" unicode="&#x274;" horiz-adv-x="534" 
d="M416 512h63v-512h-70l-290 434v-434h-64v512h84l277 -415v415z" />
    <glyph glyph-name="uni0275" unicode="&#x275;" horiz-adv-x="563" 
d="M45 258q0 80 29.5 139.5t83 92.5t124.5 33t124 -33t82.5 -92.5t29.5 -139.5t-29.5 -140t-82.5 -93.5t-124 -33.5t-124.5 33.5t-83 93.5t-29.5 140zM282 464q-76 0 -120.5 -46.5t-51.5 -132.5h343q-7 86 -51 132.5t-120 46.5zM282 50q76 0 120 47t51 133h-343
q7 -86 51.5 -133t120.5 -47z" />
    <glyph glyph-name="uni0276" unicode="&#x276;" horiz-adv-x="859" 
d="M45 258q0 80 29 139.5t81.5 92.5t121.5 33q56 0 100.5 -22t74.5 -62v73h371v-58h-305v-168h277v-57h-277v-171h305v-58h-371v76q-30 -41 -74.5 -63t-100.5 -22q-69 0 -121.5 33.5t-81.5 93.5t-29 140zM452 258q0 97 -44.5 151t-125.5 54t-126 -54t-45 -151q0 -98 45 -152
t126 -54t125.5 54t44.5 152z" />
    <glyph glyph-name="uni0277" unicode="&#x277;" horiz-adv-x="718" 
d="M357 90q-20 -49 -57 -75.5t-85 -26.5q-50 0 -88.5 28.5t-60 80t-21.5 119.5q0 90 40.5 159t112 108t163.5 39q93 0 163 -38t109.5 -106t39.5 -159q0 -69 -22 -121t-61.5 -81t-93.5 -29q-47 0 -83 26.5t-56 75.5zM362 460q-119 0 -186.5 -64.5t-67.5 -179.5
q0 -79 29 -121.5t82 -42.5t81.5 37.5t28.5 104.5v119h57v-119q0 -67 28 -104t79 -37q56 0 86 43.5t30 123.5q0 112 -65 176t-182 64z" />
    <glyph glyph-name="uni0278" unicode="&#x278;" horiz-adv-x="563" 
d="M45 258q0 74 26 131t73 91.5t110 40.5v196h54v-195q63 -6 110.5 -40.5t73.5 -91.5t26 -132t-26 -133t-73.5 -92.5t-110.5 -40.5v-159h-54v160q-63 6 -110 40.5t-73 92t-26 132.5zM454 258q0 90 -38.5 143t-107.5 61v-410q69 8 107.5 61.5t38.5 144.5zM109 258
q0 -90 38 -143t107 -63v410q-69 -9 -107 -62t-38 -142z" />
    <glyph glyph-name="uni0279" unicode="&#x279;" horiz-adv-x="322" 
d="M36 57h21q41 0 74 17.5t53 48.5t20 72v317h63v-512h-63v77q-26 -42 -65.5 -64.5t-80.5 -22.5h-22v67z" />
    <glyph glyph-name="uni027A" unicode="&#x27a;" horiz-adv-x="322" 
d="M36 57h21q41 0 74 17.5t53 48.5t20 72v522h63v-717h-63v77q-26 -42 -65.5 -64.5t-80.5 -22.5h-22v67z" />
    <glyph glyph-name="uni027B" unicode="&#x27b;" horiz-adv-x="322" 
d="M36 57h21q41 0 74 17.5t53 48.5t20 72v317h63v-545q0 -46 20 -61t49 -15h13v-58h-16q-32 0 -61.5 12t-48.5 39.5t-19 74.5v118q-26 -42 -65.5 -64.5t-80.5 -22.5h-22v67z" />
    <glyph glyph-name="uni027C" unicode="&#x27c;" horiz-adv-x="322" 
d="M55 512h64v-75q25 41 65 63t80 22h22v-67h-21q-41 0 -74 -17.5t-52.5 -48.5t-19.5 -72v-484h-64v679z" />
    <glyph glyph-name="uni027D" unicode="&#x27d;" horiz-adv-x="322" 
d="M200 -109v-58h-16q-32 0 -61.5 12t-48.5 39.5t-19 74.5v553h64v-75q25 41 65 63t80 22h22v-67h-21q-41 0 -74 -17.5t-52.5 -48.5t-19.5 -72v-350q0 -46 19.5 -61t48.5 -15h13z" />
    <glyph glyph-name="uni027E" unicode="&#x27e;" horiz-adv-x="245" 
d="M211 454h-13q-35 0 -57 -17t-22 -70v-367h-64v374q0 52 20.5 82t52.5 43t67 13h16v-58z" />
    <glyph glyph-name="uni027F" unicode="&#x27f;" horiz-adv-x="227" 
d="M16 454v58h34q31 0 58.5 -12.5t45.5 -40.5t18 -76v-550h-63v544q0 46 -17.5 61.5t-44.5 15.5h-31z" />
    <glyph glyph-name="uni0280" unicode="&#x280;" horiz-adv-x="518" 
d="M262 197h-143v-197h-64v512h253q74 0 119.5 -43t45.5 -113q0 -52 -29 -88t-78 -49q47 -10 69.5 -42.5t28.5 -90.5l10 -86h-63l-8 78q-7 65 -40 92t-101 27zM301 454h-182v-199h182q50 0 78.5 25t28.5 71q0 49 -28.5 76t-78.5 27z" />
    <glyph glyph-name="uni0281" unicode="&#x281;" horiz-adv-x="518" 
d="M262 315q68 0 101 27t40 92l8 78h63l-10 -86q-6 -58 -28.5 -90.5t-69.5 -42.5q49 -13 78 -49t29 -88q0 -70 -45.5 -113t-119.5 -43h-253v512h64v-197h143zM301 58q50 0 78.5 27t28.5 76q0 46 -28.5 71t-78.5 25h-182v-199h182z" />
    <glyph glyph-name="uni0282" unicode="&#x282;" horiz-adv-x="508" 
d="M190 -113v-57h-16q-32 0 -61.5 11.5t-48.5 39t-19 73.5v201h62q10 -55 49.5 -81t113.5 -26q58 0 94 23t36 62q0 75 -110 89l-79 11q-78 10 -119.5 43t-41.5 98q0 68 52.5 108t143.5 40q88 0 142.5 -44t62.5 -120h-65q-9 55 -43 81t-97 26q-60 0 -96.5 -24t-36.5 -64
q0 -39 26.5 -56.5t78.5 -24.5l81 -10q83 -11 124 -48t41 -105q0 -65 -49.5 -103.5t-130.5 -38.5q-62 0 -106.5 21t-70.5 57v-107q0 -45 20 -60t50 -15h13z" />
    <glyph glyph-name="uni0283" unicode="&#x283;" horiz-adv-x="300" 
d="M156 -24q0 -55 -19.5 -87t-49.5 -45.5t-63 -13.5h-41v59h31q34 0 56.5 18.5t22.5 75.5v608q0 47 19 74.5t48.5 39.5t61.5 12h44v-58h-41q-30 0 -49.5 -14.5t-19.5 -59.5v-609z" />
    <glyph glyph-name="uni0284" unicode="&#x284;" horiz-adv-x="324" 
d="M34 0v58h83v533q0 47 18.5 74.5t48 39.5t61.5 12h45v-58h-41q-30 0 -49.5 -14.5t-19.5 -59.5v-527h110v-58h-110v-44q0 -47 -19 -74.5t-48.5 -39.5t-61.5 -12h-36v58h32q30 0 50 15t20 59v38h-83z" />
    <glyph glyph-name="uni0285" unicode="&#x285;" horiz-adv-x="342" 
d="M34 454v58h45q32 0 61.5 -12t48.5 -39.5t19 -74.5v-422q0 -45 19 -60t49 -15h32v-59h-35q-32 0 -61.5 12t-48 40t-18.5 76v422q0 45 -20 59.5t-50 14.5h-41z" />
    <glyph glyph-name="uni0286" unicode="&#x286;" horiz-adv-x="443" 
d="M410 -205h-63q0 120 -49 188q-5 -73 -45.5 -113t-109.5 -40q-71 0 -112 37.5t-41 101.5q0 41 21 73.5t58 51t83 18.5q44 0 83 -13v492q0 59 34 92.5t95 33.5h44v-58h-41q-36 0 -52 -17.5t-16 -56.5v-520q52 -41 81.5 -110t29.5 -160zM54 -31q0 -37 23.5 -58t65.5 -21
q48 0 70 28.5t22 90.5v27q-36 17 -82 17q-44 0 -71.5 -23.5t-27.5 -60.5z" />
    <glyph glyph-name="uni0287" unicode="&#x287;" horiz-adv-x="325" 
d="M291 0h-97v-133h-63v133h-96v58h96v320q0 46 -15.5 61t-39.5 15h-41v58h45q28 0 54.5 -12t43 -39.5t16.5 -74.5v-328h97v-58z" />
    <glyph glyph-name="uni0288" unicode="&#x288;" horiz-adv-x="325" 
d="M291 -109v-58h-45q-29 0 -55.5 12t-43 39.5t-16.5 74.5v495h-96v58h96v133h63v-133h97v-58h-97v-487q0 -46 16 -61t40 -15h41z" />
    <glyph glyph-name="uni0289" unicode="&#x289;" horiz-adv-x="522" 
d="M0 303h55v209h64v-209h285v209h63v-209h55v-56h-55v-247h-63v84q-27 -45 -72 -70t-91 -25q-81 0 -133.5 53t-52.5 152v53h-55v56zM119 207q0 -83 37.5 -120t101.5 -37q41 0 74 19.5t52.5 53.5t19.5 78v46h-285v-40z" />
    <glyph glyph-name="uni028A" unicode="&#x28a;" horiz-adv-x="567" 
d="M284 -9q-71 0 -125 30.5t-84 85.5t-30 128q0 69 31 126.5t85 92.5h-116v58h199v-58q-63 -23 -98 -82.5t-35 -132.5q0 -88 45.5 -137.5t127.5 -49.5q83 0 127.5 49.5t44.5 137.5q0 73 -34.5 132.5t-97.5 82.5v58h198v-58h-115q54 -35 84.5 -92.5t30.5 -126.5
q0 -73 -29.5 -128t-83 -85.5t-125.5 -30.5z" />
    <glyph glyph-name="uni028B" unicode="&#x28b;" horiz-adv-x="531" 
d="M55 512h64v-315q0 -68 37 -105.5t103 -37.5q79 0 121 55.5t42 163.5q0 91 -30 136t-96 45h-21v58h30q85 0 132.5 -66.5t47.5 -179.5q0 -83 -27.5 -145t-78.5 -95.5t-120 -33.5q-60 0 -106 25.5t-72 71.5t-26 108v315z" />
    <glyph glyph-name="uni028C" unicode="&#x28c;" horiz-adv-x="548" 
d="M514 0h-70l-171 436l-167 -436h-71l204 512h71z" />
    <glyph glyph-name="uni028D" unicode="&#x28d;" horiz-adv-x="780" 
d="M746 0h-70l-114 430l-134 -430h-73l-129 430l-121 -430h-70l158 512h68l130 -433l135 433h70z" />
    <glyph glyph-name="uni028E" unicode="&#x28e;" horiz-adv-x="550" 
d="M488 655h-44q-49 0 -73.5 -27t-47.5 -88l-11 -31l204 -509h-70l-173 432l-167 -432h-71l215 546q35 91 72.5 131t96.5 40h69v-62z" />
    <glyph glyph-name="uni028F" unicode="&#x28f;" horiz-adv-x="511" 
d="M223 167l-188 345h76l144 -273l148 273h74l-191 -345v-167h-63v167z" />
    <glyph glyph-name="uni0290" unicode="&#x290;" horiz-adv-x="478" 
d="M46 512h386v-68l-314 -387h314v-95q0 -45 20 -60t50 -15h13v-57h-16q-32 0 -61.5 11.5t-48.5 39t-19 73.5v46h-324v68l314 387h-314v57z" />
    <glyph glyph-name="uni0291" unicode="&#x291;" horiz-adv-x="560" 
d="M233 -100q0 53 8 100h-195v68l314 387h-314v57h386v-68l-314 -387h137q24 74 70.5 116t108.5 42q55 0 91 -31t36 -77q0 -49 -32.5 -78t-87.5 -29h-138q-7 -45 -7 -100h-63zM433 160q-82 0 -116 -103h124q58 0 58 50q0 23 -18 38t-48 15z" />
    <glyph glyph-name="uni0292" unicode="&#x292;" horiz-adv-x="536" 
d="M296 222q100 -5 152.5 -59.5t52.5 -153.5q0 -64 -28.5 -112t-79.5 -75t-119 -27q-94 0 -155 50.5t-72 134.5h66q6 -58 48.5 -91.5t112.5 -33.5q76 0 118 40.5t42 114.5q0 75 -42.5 116t-119.5 41h-45v58l193 228l-374 1v58h449v-59z" />
    <glyph glyph-name="uni0293" unicode="&#x293;" horiz-adv-x="536" 
d="M298 225q99 -5 151 -60t52 -156q0 -54 -24 -99q29 -50 47 -115h-58q-12 36 -26 66q-32 -32 -79.5 -49t-106.5 -17t-106 18.5t-74 50.5t-27 74q0 39 20 69.5t55 48t78 17.5q143 0 232 -99q3 17 3 36q0 77 -42.5 119t-120.5 42h-45v58l193 224l-374 1v58h449v-59zM204 15
q-40 0 -65.5 -22t-25.5 -55q0 -38 39 -61t101 -23q109 0 155 62q-71 99 -204 99z" />
    <glyph glyph-name="uni0294" unicode="&#x294;" horiz-adv-x="535" 
d="M301 227v-227h-63v266q90 36 138 97t48 143q0 76 -41.5 118t-117.5 42q-68 0 -109.5 -42t-44.5 -114h-66q4 64 33 112.5t77 76t109 27.5q68 0 119 -27.5t79 -77t28 -115.5q0 -89 -50.5 -161.5t-138.5 -117.5z" />
    <glyph glyph-name="uni0295" unicode="&#x295;" horiz-adv-x="535" 
d="M235 227q-88 45 -139 117.5t-51 161.5q0 66 28 115.5t79 77t119 27.5q61 0 109 -27.5t77 -76t33 -112.5h-66q-3 72 -44.5 114t-109.5 42q-76 0 -117.5 -42t-41.5 -118q0 -82 48.5 -143t138.5 -97v-266h-63v227z" />
    <glyph glyph-name="uni0296" unicode="&#x296;" horiz-adv-x="535" 
d="M301 490q88 -45 138.5 -117.5t50.5 -161.5q0 -66 -28 -115.5t-79 -77t-119 -27.5q-61 0 -109 27.5t-77 76t-33 112.5h66q3 -72 44.5 -114t109.5 -42q76 0 117.5 42t41.5 118q0 82 -48 143t-138 97v266h63v-227z" />
    <glyph glyph-name="uni0297" unicode="&#x297;" horiz-adv-x="556" 
d="M45 156q0 110 31 192.5t86.5 128.5t129.5 46q61 0 109 -26.5t77.5 -73.5t33.5 -109h-66q-2 68 -44 108.5t-110 40.5q-86 0 -133.5 -80.5t-47.5 -226.5q0 -143 48 -222t133 -79q67 0 109 38t45 102h66q-8 -91 -68 -145.5t-152 -54.5q-74 0 -129.5 45.5t-86.5 126.5
t-31 189z" />
    <glyph glyph-name="uni0298" unicode="&#x298;" horiz-adv-x="629" 
d="M45 325q0 166 71.5 258.5t198.5 92.5t198 -92.5t71 -258.5q0 -157 -71 -245t-198 -88q-128 0 -199 88t-71 245zM519 325q0 291 -204 291q-205 0 -205 -291q0 -273 205 -273q204 0 204 273zM281 365h71v-77h-71v77z" />
    <glyph glyph-name="uni0299" unicode="&#x299;" horiz-adv-x="518" 
d="M388 258q41 -16 63.5 -47t22.5 -72q0 -63 -42 -101t-110 -38h-267v512h263q65 0 105.5 -39.5t40.5 -103.5q0 -38 -20 -67t-56 -44zM314 285q40 0 61.5 21.5t21.5 60.5q0 42 -23 65t-66 23h-186v-170h192zM312 57q45 0 70.5 21.5t25.5 62.5q0 42 -25 65t-69 23h-192v-172
h190z" />
    <glyph glyph-name="uni029A" unicode="&#x29a;" horiz-adv-x="516" 
d="M118 257q-64 33 -64 112q0 70 48 112t127 42q71 0 126 -33t86 -92.5t31 -138.5q0 -78 -31.5 -138.5t-86.5 -94.5t-127 -34q-81 0 -131 40.5t-50 107.5q0 40 19 70.5t53 46.5zM406 259q0 97 -47 151t-129 54q-52 0 -80.5 -25t-28.5 -72q0 -39 19.5 -60.5t56.5 -21.5v-7
l80 7l9 -48l-89 -7v-3q-41 0 -63 -22.5t-22 -62.5q0 -44 30 -67.5t86 -23.5q84 0 131 55t47 153z" />
    <glyph glyph-name="uni029B" unicode="&#x29b;" horiz-adv-x="554" 
d="M45 258q0 80 30 139.5t83.5 92.5t123.5 33q54 0 96.5 -22.5t68.5 -62.5v99q0 48 17.5 76t45.5 40.5t58 12.5h17v-59h-13q-28 0 -46.5 -15t-18.5 -62v-193h-63q-3 58 -46 92t-112 34q-83 0 -129 -53.5t-46 -151.5t44.5 -152.5t124.5 -54.5q64 0 105.5 40.5t47.5 115.5
h-164v54h241v-261h-48l-6 116q-24 -59 -71.5 -92t-106.5 -33q-70 0 -122.5 33.5t-81.5 93.5t-29 140z" />
    <glyph glyph-name="uni029C" unicode="&#x29c;" horiz-adv-x="534" 
d="M55 512h64v-225h297v225h63v-512h-63v226h-297v-226h-64v512z" />
    <glyph glyph-name="uni029D" unicode="&#x29d;" horiz-adv-x="252" 
d="M127 663h77v-78h-77v78zM197 -44q0 -59 -33 -92.5t-91 -33.5q-60 0 -94.5 33.5t-34.5 92.5q0 57 41.5 94t106.5 37h42v425h63v-425h63v-58h-63v-73zM73 -112q32 0 46.5 17.5t14.5 56.5v67h-33q-42 0 -67.5 -20.5t-25.5 -52.5q0 -31 16.5 -49.5t48.5 -18.5z" />
    <glyph glyph-name="uni029E" unicode="&#x29e;" horiz-adv-x="491" 
d="M124 0h-82l224 253l-233 259h80l198 -216l62 70v146h63v-679h-63v454z" />
    <glyph glyph-name="uni029F" unicode="&#x29f;" horiz-adv-x="393" 
d="M358 0h-303v512h64v-452h239v-60z" />
    <glyph glyph-name="uni02A0" unicode="&#x2a0;" horiz-adv-x="579" 
d="M591 659h-13q-27 0 -45 -15t-18 -61v-750h-63v269q-28 -53 -74 -82t-106 -29q-68 0 -119 33.5t-79.5 93.5t-28.5 140t28.5 139.5t79.5 92.5t119 33q60 0 106 -29t74 -81v178q0 47 18 74.5t46 39.5t58 12h17v-58zM111 258q0 -98 45 -152t125 -54q82 0 126.5 54t44.5 152
q0 97 -44.5 151t-126.5 54q-80 0 -125 -54t-45 -151z" />
    <glyph glyph-name="uni02A1" unicode="&#x2a1;" horiz-adv-x="535" 
d="M86 182h152v84q90 36 138 97t48 143q0 76 -41.5 118t-117.5 42q-68 0 -109.5 -42t-44.5 -114h-66q4 64 33 112.5t77 76t109 27.5q68 0 119 -27.5t79 -77t28 -115.5q0 -88 -50.5 -160t-138.5 -116v-48h152v-56h-152v-126h-63v126h-152v56z" />
    <glyph glyph-name="uni02A2" unicode="&#x2a2;" horiz-adv-x="535" 
d="M86 182h149v49q-88 43 -139 115t-51 160q0 66 28 115.5t79 77t119 27.5q61 0 109 -27.5t77 -76t33 -112.5h-66q-3 72 -44.5 114t-109.5 42q-76 0 -117.5 -42t-41.5 -118q0 -82 48.5 -143t138.5 -97v-84h155v-56h-155v-126h-63v126h-149v56z" />
    <glyph glyph-name="uni02A3" unicode="&#x2a3;" horiz-adv-x="993" 
d="M515 717v-205h433v-68l-315 -387h315v-57h-387v68l314 387h-360v-455h-63v102q-28 -53 -74 -82t-106 -29q-68 0 -119 33.5t-79.5 93.5t-28.5 140t28.5 139.5t79.5 92.5t119 33q60 0 106 -29t74 -81v304h63zM111 258q0 -98 45 -152t125 -54q82 0 126.5 54t44.5 152
q0 97 -44.5 151t-126.5 54q-80 0 -125 -54t-45 -151z" />
    <glyph glyph-name="uni02A4" unicode="&#x2a4;" horiz-adv-x="965" 
d="M452 717h63v-205h382v-59l-178 -231q99 -5 150 -59.5t51 -153.5q0 -64 -28.5 -112t-79 -75t-118.5 -27q-94 0 -154.5 42t-72.5 112h66q7 -43 49 -69t112 -26q76 0 118 41t42 115q0 75 -41.5 116t-117.5 41h-45v58l173 228l-308 1v-454h-63v102q-28 -53 -74 -82t-106 -29
q-68 0 -119 33.5t-79.5 93.5t-28.5 140t28.5 139.5t79.5 92.5t119 33q60 0 106 -29t74 -81v304zM111 258q0 -98 45 -152t125 -54q82 0 126.5 54t44.5 152q0 97 -44.5 151t-126.5 54q-80 0 -125 -54t-45 -151z" />
    <glyph glyph-name="uni02A5" unicode="&#x2a5;" horiz-adv-x="1015" 
d="M748 -100q0 53 9 100h-196v68l314 387h-360v-455h-63v102q-28 -53 -74 -82t-106 -29q-68 0 -119 33.5t-79.5 93.5t-28.5 140t28.5 139.5t79.5 92.5t119 33q60 0 106 -29t74 -81v304h63v-205h433v-68l-315 -387h138q23 74 69.5 116t108.5 42q55 0 91.5 -31t36.5 -77
q0 -49 -33 -78t-88 -29h-138q-7 -45 -7 -100h-63zM111 258q0 -98 45 -152t125 -54q82 0 126.5 54t44.5 152q0 97 -44.5 151t-126.5 54q-80 0 -125 -54t-45 -151zM948 160q-81 0 -116 -103h124q58 0 58 50q0 23 -18 38t-48 15z" />
    <glyph glyph-name="uni02A6" unicode="&#x2a6;" horiz-adv-x="768" 
d="M551 223l-80 11q-82 11 -121.5 45t-39.5 96q0 68 53 107.5t144 39.5q88 0 142 -44t62 -120h-64q-10 55 -44 81t-97 26q-60 0 -96 -24t-36 -64q0 -35 24 -54t80 -26l81 -10q84 -11 124.5 -48t40.5 -105q0 -61 -47 -97.5t-125 -36.5h-275q-69 0 -107.5 39t-38.5 109v306
h-96v58h96v133h63v-133h97v-58h-97v-298q0 -50 20.5 -72.5t65.5 -22.5h265q53 0 84 20t31 54q0 73 -109 88z" />
    <glyph glyph-name="uni02A7" unicode="&#x2a7;" horiz-adv-x="566" 
d="M423 -25q0 -54 -19.5 -86t-50 -45.5t-63.5 -13.5h-41v59h31q33 0 56 18.5t23 74.5v18h-113q-29 0 -55.5 12t-43 39.5t-16.5 74.5v328h-96v58h96v133h63v-133h165v79q0 47 18.5 74.5t48 39.5t61.5 12h45v-58h-41q-30 0 -49 -14.5t-19 -59.5v-610zM250 58h109v396h-165
v-320q0 -46 16 -61t40 -15z" />
    <glyph glyph-name="uni02A8" unicode="&#x2a8;" horiz-adv-x="808" 
d="M250 0q-30 0 -57.5 12t-44.5 40t-17 75v327h-96v58h96v133h63v-133h97v-58h-97v-319q0 -47 16 -62.5t41 -15.5q31 0 55 13t46 34q-53 68 -53 165q0 80 29.5 139.5t82.5 93t124 33.5q63 0 113 -24.5t80.5 -68.5t35.5 -102h-67q-4 62 -47.5 98.5t-114.5 36.5
q-82 0 -126 -53.5t-44 -150.5q0 -71 30 -121q4 5 8 9.5t8 9.5q24 26 51 51t61.5 40.5t78.5 15.5q45 0 81.5 -17t58.5 -47.5t22 -70.5q0 -42 -24.5 -73t-65.5 -48t-91 -17q-57 0 -105.5 15.5t-84.5 44.5q-28 -27 -62 -45t-81 -18zM584 61q49 0 81 21t32 59q0 34 -26 55.5
t-67 21.5q-38 0 -66.5 -15t-52 -39t-46.5 -51q-4 -5 -6 -7q57 -45 151 -45z" />
    <glyph glyph-name="uni02A9" unicode="&#x2a9;" horiz-adv-x="765" 
d="M35 454v58h82v79q0 47 19 74.5t48.5 39.5t61.5 12h45v-58h-41q-30 0 -50 -14.5t-20 -59.5v-73h111v0h63v-81q26 42 70 67t96 25q88 0 139 -52.5t51 -143.5v-360q0 -70 -36.5 -108.5t-102.5 -38.5h-55v59h52q41 0 60 22t19 72v341q0 148 -143 148q-43 0 -77 -18.5
t-53.5 -50.5t-19.5 -72v-321h-63v454h-111v-454h-63v454h-82z" />
    <glyph glyph-name="uni02AA" unicode="&#x2aa;" horiz-adv-x="662" 
d="M444 223l-80 11q-82 11 -120.5 45t-38.5 96q0 68 52 107.5t143 39.5q88 0 142.5 -44t62.5 -120h-64q-18 107 -142 107q-59 0 -95 -24t-36 -64q0 -35 24 -53.5t80 -26.5l80 -10q84 -11 124.5 -48t40.5 -105q0 -61 -51.5 -97.5t-139.5 -36.5h-224q-69 0 -108 39t-39 109
v569h64v-561q0 -50 20.5 -72.5t66.5 -22.5h213q61 0 98 20t37 54q0 73 -110 88z" />
    <glyph glyph-name="uni02AB" unicode="&#x2ab;" horiz-adv-x="597" 
d="M119 717v-205h433v-68l-315 -387h315v-57h-387v68l313 387h-359v-455h-64v717h64z" />
    <glyph glyph-name="uni02AC" unicode="&#x2ac;" horiz-adv-x="528" 
d="M35 666h65l57 -221l73 221h66l68 -221l63 221h66l-97 -297h-60l-72 223l-77 -223h-62zM35 297h65l57 -220l73 220h66l68 -220l63 220h66l-97 -297h-60l-72 223l-77 -223h-62z" />
    <glyph glyph-name="uni02AD" unicode="&#x2ad;" horiz-adv-x="528" 
d="M473 369h-59v239h-298v-239h-60v297h417v-297zM473 0h-59v240h-298v-240h-60v297h417v-297z" />
    <glyph glyph-name="uni02AE" unicode="&#x2ae;" horiz-adv-x="522" 
d="M119 207q0 -83 37.5 -120t101.5 -37q41 0 74 19.5t52.5 53.5t19.5 78v311h63v-679h-63v251q-27 -45 -72 -70t-91 -25q-81 0 -133.5 53t-52.5 152v183q0 46 -17 61.5t-44 15.5h-31v58h35q30 0 57.5 -12.5t45.5 -40.5t18 -76v-176z" />
    <glyph glyph-name="uni02AF" unicode="&#x2af;" horiz-adv-x="522" 
d="M119 207q0 -83 37.5 -120t101.5 -37q41 0 74 19.5t52.5 53.5t19.5 78v311h63v-545q0 -46 18 -61t45 -15h14v-58h-18q-30 0 -58 12t-46 39.5t-18 74.5v125q-27 -45 -72 -70t-91 -25q-81 0 -133.5 53t-52.5 152v183q0 46 -17 61.5t-44 15.5h-31v58h35q30 0 57.5 -12.5
t45.5 -40.5t18 -76v-176z" />
    <glyph glyph-name="uni02BC" unicode="&#x2bc;" horiz-adv-x="137" 
d="M59 701h78v-100q0 -57 -24.5 -79.5t-53.5 -22.5h-16v39h12q22 0 36.5 13.5t14.5 55.5v12h-47v82z" />
    <glyph glyph-name="uni02C8" unicode="&#x2c8;" horiz-adv-x="172" 
d="M55 717h63v-324h-63v324z" />
    <glyph glyph-name="uni02CC" unicode="&#x2cc;" horiz-adv-x="172" 
d="M55 158h63v-325h-63v325z" />
    <glyph glyph-name="uni02D0" unicode="&#x2d0;" horiz-adv-x="216" 
d="M48 512h121l-61 -112zM108 112l61 -112h-121z" />
    <glyph glyph-name="gravecomb" unicode="&#x300;" horiz-adv-x="307" 
d="M23 670h77l114 -158h-53z" />
    <glyph glyph-name="acutecomb" unicode="&#x301;" horiz-adv-x="307" 
d="M296 670l-138 -158h-53l113 158h78z" />
    <glyph glyph-name="uni0302" unicode="&#x302;" horiz-adv-x="307" 
d="M122 679h65l164 -167h-74l-122 129l-123 -129h-74z" />
    <glyph glyph-name="tildecomb" unicode="&#x303;" horiz-adv-x="307" 
d="M77 659q32 0 52.5 -17t37.5 -36q14 -17 28 -31t33 -14q24 0 38.5 25t14.5 67h49q0 -67 -27.5 -106t-72.5 -39q-32 0 -52.5 15t-36.5 32q-17 18 -30.5 34.5t-32.5 16.5q-24 0 -38 -26t-14 -68h-51q0 69 27 108t75 39z" />
    <glyph glyph-name="uni0304" unicode="&#x304;" horiz-adv-x="307" 
d="M-3 587h313v-56h-313v56z" />
    <glyph glyph-name="uni0306" unicode="&#x306;" horiz-adv-x="307" 
d="M322 659q-6 -67 -50 -107.5t-116 -40.5q-73 0 -117.5 40.5t-50.5 107.5h62q5 -47 31.5 -72t74.5 -25t73.5 25t31.5 72h61z" />
    <glyph glyph-name="uni0307" unicode="&#x307;" horiz-adv-x="307" 
d="M120 595h77v-83h-77v83z" />
    <glyph glyph-name="uni0308" unicode="&#x308;" horiz-adv-x="307" 
d="M220 593h76v-81h-76v81zM11 593h76v-81h-76v81z" />
    <glyph glyph-name="hookabovecomb" unicode="&#x309;" horiz-adv-x="307" 
d="M126 512q0 20 11.5 36t41.5 40q18 15 25.5 25.5t7.5 22.5q0 17 -12.5 26.5t-32.5 9.5q-45 0 -55 -43h-57q9 42 39 65t75 23q44 0 70.5 -22.5t26.5 -60.5q0 -22 -9.5 -36t-34.5 -32q-19 -14 -27.5 -25.5t-8.5 -28.5h-60z" />
    <glyph glyph-name="uni030A" unicode="&#x30a;" horiz-adv-x="307" 
d="M289 641q0 -62 -36.5 -99t-96.5 -37q-61 0 -97.5 37t-36.5 99q0 61 36.5 98t96.5 37q61 0 97.5 -37t36.5 -98zM77 641q0 -42 20.5 -64.5t58.5 -22.5q37 0 57.5 22.5t20.5 64.5q0 41 -20.5 63.5t-58.5 22.5q-37 0 -57.5 -22.5t-20.5 -63.5z" />
    <glyph glyph-name="uni030B" unicode="&#x30b;" horiz-adv-x="307" 
d="M382 670l-138 -158h-53l113 158h78zM229 670l-138 -158h-53l114 158h77z" />
    <glyph glyph-name="uni030C" unicode="&#x30c;" horiz-adv-x="307" 
d="M187 512h-65l-164 167h74l122 -129l123 129h74z" />
    <glyph glyph-name="uni0312" unicode="&#x312;" horiz-adv-x="307" 
d="M199 512h-78v99q0 58 24.5 80.5t53.5 22.5h16v-39h-12q-23 0 -37 -13.5t-14 -56.5v-10h47v-83z" />
    <glyph glyph-name="uni0313" unicode="&#x313;" horiz-adv-x="307" 
d="M137 714h78v-99q0 -58 -24.5 -80.5t-54.5 -22.5h-15v40h12q22 0 36.5 13t14.5 56v11h-47v82z" />
    <glyph glyph-name="uni0315" unicode="&#x315;" horiz-adv-x="307" 
d="M157 708h62l-35 -196h-57z" />
    <glyph glyph-name="uni031B" unicode="&#x31b;" horiz-adv-x="307" 
d="M78 561h65q30 0 50.5 15t20.5 61v31h58v-37q0 -47 -17.5 -74t-44.5 -38t-55 -11h-77v53z" />
    <glyph glyph-name="dotbelowcomb" unicode="&#x323;" horiz-adv-x="305" 
d="M115 -73h77v-78h-77v78z" />
    <glyph glyph-name="uni0326" unicode="&#x326;" horiz-adv-x="307" 
d="M125 -38h78v-99q0 -58 -25 -80.5t-54 -22.5h-16v40h12q23 0 37 13t14 56v10h-46v83z" />
    <glyph glyph-name="uni0327" unicode="&#x327;" horiz-adv-x="307" 
d="M140 10h51l-12 -66h16q47 0 76 -29t29 -77q0 -51 -36.5 -81.5t-97.5 -30.5h-91v58h83q80 0 80 60q0 23 -15 35t-40 12h-34l-25 32z" />
    <glyph glyph-name="uni0328" unicode="&#x328;" horiz-adv-x="307" 
d="M201 0q-42 -31 -64 -55.5t-30 -48t-8 -50.5q0 -68 81 -68h64v-60h-72q-61 0 -97.5 33t-36.5 89q0 62 33 99.5t75 60.5h55z" />
    <glyph glyph-name="uni1E9E" unicode="&#x1e9e;" horiz-adv-x="626" 
d="M381 359q106 -5 153.5 -52t47.5 -121q0 -56 -27.5 -97.5t-78 -65t-118.5 -23.5h-76v60h66q81 0 125 33t44 94q0 56 -41.5 87t-117.5 31h-45v58l168 237q-34 10 -71 15t-79 5q-111 0 -161.5 -49t-50.5 -157v-414h-64v420q0 128 69 193t204 65q61 0 112.5 -11t98.5 -29v-56
z" />
    <glyph glyph-name="uni1EA0" unicode="&#x1ea0;" horiz-adv-x="635" 
d="M602 0h-70l-68 186h-292l-67 -186h-71l249 666h71zM317 587l-124 -344h250zM279 -73h77v-78h-77v78z" />
    <glyph glyph-name="uni1EA1" unicode="&#x1ea1;" horiz-adv-x="520" 
d="M464 341v-341h-64v94q-30 -48 -78.5 -76t-107.5 -28q-74 0 -121.5 42t-47.5 108q0 61 38.5 97.5t107.5 41.5l146 10q34 2 48.5 14.5t14.5 39.5v2q0 34 -18.5 61t-49.5 43t-70 16q-133 0 -146 -115h-67q5 78 62.5 125.5t149.5 47.5q58 0 104 -24t72.5 -65t26.5 -93z
M110 141q0 -42 32.5 -67.5t87.5 -25.5q49 0 87 22.5t60.5 62t22.5 89.5v15l-188 -13q-102 -7 -102 -83zM247 -73h77v-78h-77v78z" />
    <glyph glyph-name="uni1EA2" unicode="&#x1ea2;" horiz-adv-x="635" 
d="M285 717q0 20 11 36t41 40q19 15 26 25.5t7 22.5q0 17 -12 26.5t-33 9.5q-45 0 -55 -43h-57q10 42 40 65t74 23t70.5 -22.5t26.5 -60.5q0 -22 -9 -36t-34 -32q-20 -14 -28.5 -25.5t-8.5 -28.5h-59zM602 0h-70l-68 186h-292l-67 -186h-71l249 666h71zM317 587l-124 -344
h250z" />
    <glyph glyph-name="uni1EA3" unicode="&#x1ea3;" horiz-adv-x="520" 
d="M228 573q0 20 11.5 36t41.5 40q18 15 25.5 25.5t7.5 22.5q0 17 -12.5 26.5t-32.5 9.5q-45 0 -55 -43h-57q9 42 39 65t75 23q44 0 70.5 -22.5t26.5 -60.5q0 -22 -9.5 -36t-34.5 -32q-19 -14 -27.5 -25.5t-8.5 -28.5h-60zM464 341v-341h-64v94q-30 -48 -78.5 -76
t-107.5 -28q-74 0 -121.5 42t-47.5 108q0 61 38.5 97.5t107.5 41.5l146 10q34 2 48.5 14.5t14.5 39.5v2q0 34 -18.5 61t-49.5 43t-70 16q-133 0 -146 -115h-67q5 78 62.5 125.5t149.5 47.5q58 0 104 -24t72.5 -65t26.5 -93zM110 141q0 -42 32.5 -67.5t87.5 -25.5
q49 0 87 22.5t60.5 62t22.5 89.5v15l-188 -13q-102 -7 -102 -83z" />
    <glyph glyph-name="uni1EA4" unicode="&#x1ea4;" horiz-adv-x="635" 
d="M647 977l-138 -158h-53l113 158h78zM280 884h65l164 -167h-73l-123 129l-123 -129h-74zM602 0h-70l-68 186h-292l-67 -186h-71l249 666h71zM317 587l-124 -344h250z" />
    <glyph glyph-name="uni1EA5" unicode="&#x1ea5;" horiz-adv-x="520" 
d="M601 854l-138 -158h-53l113 158h78zM224 740h65l164 -167h-74l-122 129l-123 -129h-74zM464 341v-341h-64v94q-30 -48 -78.5 -76t-107.5 -28q-74 0 -121.5 42t-47.5 108q0 61 38.5 97.5t107.5 41.5l146 10q34 2 48.5 14.5t14.5 39.5v2q0 34 -18.5 61t-49.5 43t-70 16
q-133 0 -146 -115h-67q5 78 62.5 125.5t149.5 47.5q58 0 104 -24t72.5 -65t26.5 -93zM110 141q0 -42 32.5 -67.5t87.5 -25.5q49 0 87 22.5t60.5 62t22.5 89.5v15l-188 -13q-102 -7 -102 -83z" />
    <glyph glyph-name="uni1EA6" unicode="&#x1ea6;" horiz-adv-x="635" 
d="M378 977h77l114 -158h-53zM280 884h65l164 -167h-73l-123 129l-123 -129h-74zM602 0h-70l-68 186h-292l-67 -186h-71l249 666h71zM317 587l-124 -344h250z" />
    <glyph glyph-name="uni1EA7" unicode="&#x1ea7;" horiz-adv-x="520" 
d="M326 854h76l114 -158h-53zM224 740h65l164 -167h-74l-122 129l-123 -129h-74zM464 341v-341h-64v94q-30 -48 -78.5 -76t-107.5 -28q-74 0 -121.5 42t-47.5 108q0 61 38.5 97.5t107.5 41.5l146 10q34 2 48.5 14.5t14.5 39.5v2q0 34 -18.5 61t-49.5 43t-70 16
q-133 0 -146 -115h-67q5 78 62.5 125.5t149.5 47.5q58 0 104 -24t72.5 -65t26.5 -93zM110 141q0 -42 32.5 -67.5t87.5 -25.5q49 0 87 22.5t60.5 62t22.5 89.5v15l-188 -13q-102 -7 -102 -83z" />
    <glyph glyph-name="uni1EA8" unicode="&#x1ea8;" horiz-adv-x="635" 
d="M483 819q0 20 11 36t41 40q19 15 26 25.5t7 22.5q0 17 -12 26.5t-32 9.5q-46 0 -56 -43h-56q9 42 39 65t75 23q43 0 69.5 -22.5t26.5 -60.5q0 -22 -9 -36t-34 -32q-20 -14 -28.5 -25.5t-8.5 -28.5h-59zM280 884h65l164 -167h-73l-123 129l-123 -129h-74zM602 0h-70
l-68 186h-292l-67 -186h-71l249 666h71zM317 587l-124 -344h250z" />
    <glyph glyph-name="uni1EA9" unicode="&#x1ea9;" horiz-adv-x="520" 
d="M409 696q0 20 11 36t41 40q19 15 26 25.5t7 22.5q0 17 -12 26.5t-33 9.5q-45 0 -55 -43h-57q10 42 40 65t74 23t70.5 -22.5t26.5 -60.5q0 -22 -9 -36t-34 -32q-20 -14 -28.5 -25.5t-8.5 -28.5h-59zM224 740h65l164 -167h-74l-122 129l-123 -129h-74zM464 341v-341h-64v94
q-30 -48 -78.5 -76t-107.5 -28q-74 0 -121.5 42t-47.5 108q0 61 38.5 97.5t107.5 41.5l146 10q34 2 48.5 14.5t14.5 39.5v2q0 34 -18.5 61t-49.5 43t-70 16q-133 0 -146 -115h-67q5 78 62.5 125.5t149.5 47.5q58 0 104 -24t72.5 -65t26.5 -93zM110 141q0 -42 32.5 -67.5
t87.5 -25.5q49 0 87 22.5t60.5 62t22.5 89.5v15l-188 -13q-102 -7 -102 -83z" />
    <glyph glyph-name="uni1EAA" unicode="&#x1eaa;" horiz-adv-x="635" 
d="M238 1077q31 0 51.5 -17.5t37.5 -36.5q14 -17 28 -30.5t34 -13.5q23 0 37.5 25t14.5 67h50q0 -67 -27.5 -106.5t-73.5 -39.5q-32 0 -52 15t-37 33q-16 18 -29.5 34.5t-33.5 16.5q-24 0 -38 -26t-14 -69h-51q0 70 27.5 109t75.5 39zM280 884h65l164 -167h-73l-123 129
l-123 -129h-74zM602 0h-70l-68 186h-292l-67 -186h-71l249 666h71zM317 587l-124 -344h250z" />
    <glyph glyph-name="uni1EAB" unicode="&#x1eab;" horiz-adv-x="520" 
d="M181 943q32 0 52.5 -17.5t37.5 -36.5q14 -17 28 -30.5t34 -13.5q23 0 37.5 25t14.5 67h49q0 -67 -27 -106t-73 -39q-32 0 -52 15t-37 32q-17 18 -30.5 34.5t-32.5 16.5q-24 0 -38 -26t-14 -68h-51q0 69 27 108t75 39zM224 740h65l164 -167h-74l-122 129l-123 -129h-74z
M464 341v-341h-64v94q-30 -48 -78.5 -76t-107.5 -28q-74 0 -121.5 42t-47.5 108q0 61 38.5 97.5t107.5 41.5l146 10q34 2 48.5 14.5t14.5 39.5v2q0 34 -18.5 61t-49.5 43t-70 16q-133 0 -146 -115h-67q5 78 62.5 125.5t149.5 47.5q58 0 104 -24t72.5 -65t26.5 -93zM110 141
q0 -42 32.5 -67.5t87.5 -25.5q49 0 87 22.5t60.5 62t22.5 89.5v15l-188 -13q-102 -7 -102 -83z" />
    <glyph glyph-name="uni1EAC" unicode="&#x1eac;" horiz-adv-x="635" 
d="M280 884h65l164 -167h-73l-123 129l-123 -129h-74zM602 0h-70l-68 186h-292l-67 -186h-71l249 666h71zM317 587l-124 -344h250zM279 -73h77v-78h-77v78z" />
    <glyph glyph-name="uni1EAD" unicode="&#x1ead;" horiz-adv-x="520" 
d="M224 740h65l164 -167h-74l-122 129l-123 -129h-74zM464 341v-341h-64v94q-30 -48 -78.5 -76t-107.5 -28q-74 0 -121.5 42t-47.5 108q0 61 38.5 97.5t107.5 41.5l146 10q34 2 48.5 14.5t14.5 39.5v2q0 34 -18.5 61t-49.5 43t-70 16q-133 0 -146 -115h-67q5 78 62.5 125.5
t149.5 47.5q58 0 104 -24t72.5 -65t26.5 -93zM110 141q0 -42 32.5 -67.5t87.5 -25.5q49 0 87 22.5t60.5 62t22.5 89.5v15l-188 -13q-102 -7 -102 -83zM247 -73h77v-78h-77v78z" />
    <glyph glyph-name="uni1EAE" unicode="&#x1eae;" horiz-adv-x="635" 
d="M454 1016l-138 -158h-53l113 158h78zM480 864q-6 -67 -49.5 -107.5t-116.5 -40.5t-117.5 40.5t-49.5 107.5h61q5 -47 31.5 -72t74.5 -25q49 0 74.5 25t30.5 72h61zM602 0h-70l-68 186h-292l-67 -186h-71l249 666h71zM317 587l-124 -344h250z" />
    <glyph glyph-name="uni1EAF" unicode="&#x1eaf;" horiz-adv-x="520" 
d="M398 881l-138 -158h-53l113 158h78zM424 720q-6 -67 -50 -107.5t-116 -40.5q-73 0 -117.5 40.5t-50.5 107.5h62q5 -47 31.5 -72t74.5 -25t73.5 25t31.5 72h61zM464 341v-341h-64v94q-30 -48 -78.5 -76t-107.5 -28q-74 0 -121.5 42t-47.5 108q0 61 38.5 97.5t107.5 41.5
l146 10q34 2 48.5 14.5t14.5 39.5v2q0 34 -18.5 61t-49.5 43t-70 16q-133 0 -146 -115h-67q5 78 62.5 125.5t149.5 47.5q58 0 104 -24t72.5 -65t26.5 -93zM110 141q0 -42 32.5 -67.5t87.5 -25.5q49 0 87 22.5t60.5 62t22.5 89.5v15l-188 -13q-102 -7 -102 -83z" />
    <glyph glyph-name="uni1EB0" unicode="&#x1eb0;" horiz-adv-x="635" 
d="M182 1016h76l114 -158h-53zM480 864q-6 -67 -49.5 -107.5t-116.5 -40.5t-117.5 40.5t-49.5 107.5h61q5 -47 31.5 -72t74.5 -25q49 0 74.5 25t30.5 72h61zM602 0h-70l-68 186h-292l-67 -186h-71l249 666h71zM317 587l-124 -344h250z" />
    <glyph glyph-name="uni1EB1" unicode="&#x1eb1;" horiz-adv-x="520" 
d="M125 881h77l114 -158h-53zM424 720q-6 -67 -50 -107.5t-116 -40.5q-73 0 -117.5 40.5t-50.5 107.5h62q5 -47 31.5 -72t74.5 -25t73.5 25t31.5 72h61zM464 341v-341h-64v94q-30 -48 -78.5 -76t-107.5 -28q-74 0 -121.5 42t-47.5 108q0 61 38.5 97.5t107.5 41.5l146 10
q34 2 48.5 14.5t14.5 39.5v2q0 34 -18.5 61t-49.5 43t-70 16q-133 0 -146 -115h-67q5 78 62.5 125.5t149.5 47.5q58 0 104 -24t72.5 -65t26.5 -93zM110 141q0 -42 32.5 -67.5t87.5 -25.5q49 0 87 22.5t60.5 62t22.5 89.5v15l-188 -13q-102 -7 -102 -83z" />
    <glyph glyph-name="uni1EB2" unicode="&#x1eb2;" horiz-adv-x="635" 
d="M285 858q0 20 11 36t41 40q19 15 26 25.5t7 22.5q0 16 -12 26t-33 10q-45 0 -55 -44h-57q10 43 40 66t74 23t70.5 -22.5t26.5 -60.5q0 -22 -9 -36t-34 -32q-20 -15 -28.5 -26.5t-8.5 -27.5h-59zM480 864q-6 -67 -49.5 -107.5t-116.5 -40.5t-117.5 40.5t-49.5 107.5h61
q5 -47 31.5 -72t74.5 -25q49 0 74.5 25t30.5 72h61zM602 0h-70l-68 186h-292l-67 -186h-71l249 666h71zM317 587l-124 -344h250z" />
    <glyph glyph-name="uni1EB3" unicode="&#x1eb3;" horiz-adv-x="520" 
d="M228 723q0 20 11.5 36t41.5 40q18 15 25.5 25.5t7.5 22.5q0 17 -12.5 26.5t-32.5 9.5q-45 0 -55 -43h-57q9 42 39 65t75 23q44 0 70.5 -22.5t26.5 -60.5q0 -22 -9.5 -36t-34.5 -32q-19 -14 -27.5 -26t-8.5 -28h-60zM424 720q-6 -67 -50 -107.5t-116 -40.5
q-73 0 -117.5 40.5t-50.5 107.5h62q5 -47 31.5 -72t74.5 -25t73.5 25t31.5 72h61zM464 341v-341h-64v94q-30 -48 -78.5 -76t-107.5 -28q-74 0 -121.5 42t-47.5 108q0 61 38.5 97.5t107.5 41.5l146 10q34 2 48.5 14.5t14.5 39.5v2q0 34 -18.5 61t-49.5 43t-70 16
q-133 0 -146 -115h-67q5 78 62.5 125.5t149.5 47.5q58 0 104 -24t72.5 -65t26.5 -93zM110 141q0 -42 32.5 -67.5t87.5 -25.5q49 0 87 22.5t60.5 62t22.5 89.5v15l-188 -13q-102 -7 -102 -83z" />
    <glyph glyph-name="uni1EB4" unicode="&#x1eb4;" horiz-adv-x="635" 
d="M235 1053q32 0 52.5 -17.5t37.5 -36.5q14 -17 28 -30.5t34 -13.5q23 0 37.5 25t14.5 67h49q0 -67 -27 -106.5t-73 -39.5q-32 0 -52 15t-37 33q-16 18 -29.5 34t-33.5 16q-24 0 -38 -25.5t-14 -68.5h-51q0 70 27.5 109t74.5 39zM480 864q-6 -67 -49.5 -107.5t-116.5 -40.5
t-117.5 40.5t-49.5 107.5h61q5 -47 31.5 -72t74.5 -25q49 0 74.5 25t30.5 72h61zM602 0h-70l-68 186h-292l-67 -186h-71l249 666h71zM317 587l-124 -344h250z" />
    <glyph glyph-name="uni1EB5" unicode="&#x1eb5;" horiz-adv-x="520" 
d="M179 918q32 0 52.5 -17.5t37.5 -35.5q14 -18 28 -31.5t33 -13.5q24 0 38.5 25t14.5 67h49q0 -67 -27.5 -106t-72.5 -39q-32 0 -52.5 15t-36.5 32q-17 18 -30.5 34.5t-32.5 16.5q-24 0 -38 -26t-14 -68h-51q0 69 27 108t75 39zM424 720q-6 -67 -50 -107.5t-116 -40.5
q-73 0 -117.5 40.5t-50.5 107.5h62q5 -47 31.5 -72t74.5 -25t73.5 25t31.5 72h61zM464 341v-341h-64v94q-30 -48 -78.5 -76t-107.5 -28q-74 0 -121.5 42t-47.5 108q0 61 38.5 97.5t107.5 41.5l146 10q34 2 48.5 14.5t14.5 39.5v2q0 34 -18.5 61t-49.5 43t-70 16
q-133 0 -146 -115h-67q5 78 62.5 125.5t149.5 47.5q58 0 104 -24t72.5 -65t26.5 -93zM110 141q0 -42 32.5 -67.5t87.5 -25.5q49 0 87 22.5t60.5 62t22.5 89.5v15l-188 -13q-102 -7 -102 -83z" />
    <glyph glyph-name="uni1EB6" unicode="&#x1eb6;" horiz-adv-x="635" 
d="M480 864q-6 -67 -49.5 -107.5t-116.5 -40.5t-117.5 40.5t-49.5 107.5h61q5 -47 31.5 -72t74.5 -25q49 0 74.5 25t30.5 72h61zM602 0h-70l-68 186h-292l-67 -186h-71l249 666h71zM317 587l-124 -344h250zM279 -73h77v-78h-77v78z" />
    <glyph glyph-name="uni1EB7" unicode="&#x1eb7;" horiz-adv-x="520" 
d="M424 720q-6 -67 -50 -107.5t-116 -40.5q-73 0 -117.5 40.5t-50.5 107.5h62q5 -47 31.5 -72t74.5 -25t73.5 25t31.5 72h61zM464 341v-341h-64v94q-30 -48 -78.5 -76t-107.5 -28q-74 0 -121.5 42t-47.5 108q0 61 38.5 97.5t107.5 41.5l146 10q34 2 48.5 14.5t14.5 39.5v2
q0 34 -18.5 61t-49.5 43t-70 16q-133 0 -146 -115h-67q5 78 62.5 125.5t149.5 47.5q58 0 104 -24t72.5 -65t26.5 -93zM110 141q0 -42 32.5 -67.5t87.5 -25.5q49 0 87 22.5t60.5 62t22.5 89.5v15l-188 -13q-102 -7 -102 -83zM247 -73h77v-78h-77v78z" />
    <glyph glyph-name="uni1EB8" unicode="&#x1eb8;" horiz-adv-x="545" 
d="M500 666v-61h-381v-234h352v-61h-352v-250h381v-60h-445v666h445zM249 -73h77v-78h-77v78z" />
    <glyph glyph-name="uni1EB9" unicode="&#x1eb9;" horiz-adv-x="561" 
d="M45 258q0 82 29 141t82 91t126 32q68 0 121 -32.5t83 -89.5t30 -130v-31h-405q5 -92 50 -140t127 -48q66 0 105.5 30t49.5 80h67q-17 -81 -72.5 -125t-149.5 -44q-75 0 -129.5 32.5t-84 92t-29.5 141.5zM282 464q-154 0 -170 -170h336q-6 78 -51.5 124t-114.5 46z
M252 -73h77v-78h-77v78z" />
    <glyph glyph-name="uni1EBA" unicode="&#x1eba;" horiz-adv-x="545" 
d="M254 717q0 20 11 36t41 40q19 15 26 25.5t7 22.5q0 17 -12 26.5t-32 9.5q-46 0 -56 -43h-56q9 42 39 65t75 23q43 0 69.5 -22.5t26.5 -60.5q0 -22 -9 -36t-34 -32q-20 -14 -28.5 -25.5t-8.5 -28.5h-59zM500 666v-61h-381v-234h352v-61h-352v-250h381v-60h-445v666h445z
" />
    <glyph glyph-name="uni1EBB" unicode="&#x1ebb;" horiz-adv-x="561" 
d="M247 573q0 20 11 36t41 40q18 15 25.5 25.5t7.5 22.5q0 17 -12 26.5t-33 9.5q-45 0 -55 -43h-57q9 42 39.5 65t74.5 23t70.5 -22.5t26.5 -60.5q0 -22 -9 -36t-35 -32q-19 -14 -27.5 -25.5t-8.5 -28.5h-59zM45 258q0 82 29 141t82 91t126 32q68 0 121 -32.5t83 -89.5
t30 -130v-31h-405q5 -92 50 -140t127 -48q66 0 105.5 30t49.5 80h67q-17 -81 -72.5 -125t-149.5 -44q-75 0 -129.5 32.5t-84 92t-29.5 141.5zM282 464q-154 0 -170 -170h336q-6 78 -51.5 124t-114.5 46z" />
    <glyph glyph-name="uni1EBC" unicode="&#x1ebc;" horiz-adv-x="545" 
d="M205 864q31 0 51.5 -17t37.5 -36q14 -17 28.5 -31t33.5 -14q24 0 38.5 25t14.5 67h49q0 -67 -27.5 -106t-73.5 -39q-32 0 -52 15t-37 32q-16 18 -29.5 34.5t-33.5 16.5q-24 0 -37.5 -26t-13.5 -68h-52q0 69 27.5 108t75.5 39zM500 666v-61h-381v-234h352v-61h-352v-250
h381v-60h-445v666h445z" />
    <glyph glyph-name="uni1EBD" unicode="&#x1ebd;" horiz-adv-x="561" 
d="M197 720q32 0 52.5 -17t37.5 -36q14 -17 28 -31t34 -14q23 0 37.5 25t14.5 67h49q0 -67 -27 -106t-73 -39q-32 0 -52 15t-37 32q-16 18 -30 34.5t-33 16.5q-24 0 -38 -26t-14 -68h-51q0 69 27.5 108t74.5 39zM45 258q0 82 29 141t82 91t126 32q68 0 121 -32.5t83 -89.5
t30 -130v-31h-405q5 -92 50 -140t127 -48q66 0 105.5 30t49.5 80h67q-17 -81 -72.5 -125t-149.5 -44q-75 0 -129.5 32.5t-84 92t-29.5 141.5zM282 464q-154 0 -170 -170h336q-6 78 -51.5 124t-114.5 46z" />
    <glyph glyph-name="uni1EBE" unicode="&#x1ebe;" horiz-adv-x="545" 
d="M623 977l-137 -158h-53l113 158h77zM249 884h65l164 -167h-73l-122 129l-124 -129h-74zM500 666v-61h-381v-234h352v-61h-352v-250h381v-60h-445v666h445z" />
    <glyph glyph-name="uni1EBF" unicode="&#x1ebf;" horiz-adv-x="561" 
d="M611 854l-137 -158h-53l113 158h77zM242 740h65l164 -167h-73l-123 129l-123 -129h-74zM45 258q0 82 29 141t82 91t126 32q68 0 121 -32.5t83 -89.5t30 -130v-31h-405q5 -92 50 -140t127 -48q66 0 105.5 30t49.5 80h67q-17 -81 -72.5 -125t-149.5 -44q-75 0 -129.5 32.5
t-84 92t-29.5 141.5zM282 464q-154 0 -170 -170h336q-6 78 -51.5 124t-114.5 46z" />
    <glyph glyph-name="uni1EC0" unicode="&#x1ec0;" horiz-adv-x="545" 
d="M359 977h76l114 -158h-53zM249 884h65l164 -167h-73l-122 129l-124 -129h-74zM500 666v-61h-381v-234h352v-61h-352v-250h381v-60h-445v666h445z" />
    <glyph glyph-name="uni1EC1" unicode="&#x1ec1;" horiz-adv-x="561" 
d="M352 854h77l114 -158h-54zM242 740h65l164 -167h-73l-123 129l-123 -129h-74zM45 258q0 82 29 141t82 91t126 32q68 0 121 -32.5t83 -89.5t30 -130v-31h-405q5 -92 50 -140t127 -48q66 0 105.5 30t49.5 80h67q-17 -81 -72.5 -125t-149.5 -44q-75 0 -129.5 32.5t-84 92
t-29.5 141.5zM282 464q-154 0 -170 -170h336q-6 78 -51.5 124t-114.5 46z" />
    <glyph glyph-name="uni1EC2" unicode="&#x1ec2;" horiz-adv-x="545" 
d="M444 821q0 20 11 36t41 40q19 15 26 25.5t7 22.5q0 17 -12 26.5t-32 9.5q-45 0 -56 -43h-56q9 42 39 65t75 23q43 0 69.5 -22.5t26.5 -60.5q0 -22 -9 -36t-34 -32q-20 -14 -28.5 -25.5t-8.5 -28.5h-59zM249 884h65l164 -167h-73l-122 129l-124 -129h-74zM500 666v-61
h-381v-234h352v-61h-352v-250h381v-60h-445v666h445z" />
    <glyph glyph-name="uni1EC3" unicode="&#x1ec3;" horiz-adv-x="561" 
d="M439 697q0 20 11.5 36t40.5 40q19 15 26.5 25.5t7.5 22.5q0 17 -12.5 26.5t-32.5 9.5q-45 0 -55 -43h-57q9 42 39 65t75 23q44 0 70 -22.5t26 -60.5q0 -22 -9 -36t-34 -32q-20 -14 -28.5 -25.5t-8.5 -28.5h-59zM242 740h65l164 -167h-73l-123 129l-123 -129h-74zM45 258
q0 82 29 141t82 91t126 32q68 0 121 -32.5t83 -89.5t30 -130v-31h-405q5 -92 50 -140t127 -48q66 0 105.5 30t49.5 80h67q-17 -81 -72.5 -125t-149.5 -44q-75 0 -129.5 32.5t-84 92t-29.5 141.5zM282 464q-154 0 -170 -170h336q-6 78 -51.5 124t-114.5 46z" />
    <glyph glyph-name="uni1EC4" unicode="&#x1ec4;" horiz-adv-x="545" 
d="M207 1086q31 0 51.5 -17.5t37.5 -35.5q15 -18 29 -31.5t33 -13.5q24 0 38.5 25t14.5 67h49q0 -67 -27.5 -106t-73.5 -39q-31 0 -51.5 15t-36.5 32q-17 18 -30.5 34.5t-33.5 16.5q-23 0 -37 -26t-14 -68h-51q0 69 27 108t75 39zM249 884h65l164 -167h-73l-122 129
l-124 -129h-74zM500 666v-61h-381v-234h352v-61h-352v-250h381v-60h-445v666h445z" />
    <glyph glyph-name="uni1EC5" unicode="&#x1ec5;" horiz-adv-x="561" 
d="M199 943q32 0 52.5 -17.5t37.5 -36.5q14 -17 28 -30.5t34 -13.5q23 0 37.5 25t14.5 67h49q0 -67 -27 -106t-73 -39q-32 0 -52 15t-37 32q-16 18 -29.5 34.5t-33.5 16.5q-24 0 -38 -26t-14 -68h-51q0 69 27.5 108t74.5 39zM242 740h65l164 -167h-73l-123 129l-123 -129
h-74zM45 258q0 82 29 141t82 91t126 32q68 0 121 -32.5t83 -89.5t30 -130v-31h-405q5 -92 50 -140t127 -48q66 0 105.5 30t49.5 80h67q-17 -81 -72.5 -125t-149.5 -44q-75 0 -129.5 32.5t-84 92t-29.5 141.5zM282 464q-154 0 -170 -170h336q-6 78 -51.5 124t-114.5 46z" />
    <glyph glyph-name="uni1EC6" unicode="&#x1ec6;" horiz-adv-x="545" 
d="M249 884h65l164 -167h-73l-122 129l-124 -129h-74zM500 666v-61h-381v-234h352v-61h-352v-250h381v-60h-445v666h445zM249 -73h77v-78h-77v78z" />
    <glyph glyph-name="uni1EC7" unicode="&#x1ec7;" horiz-adv-x="561" 
d="M242 740h65l164 -167h-73l-123 129l-123 -129h-74zM45 258q0 82 29 141t82 91t126 32q68 0 121 -32.5t83 -89.5t30 -130v-31h-405q5 -92 50 -140t127 -48q66 0 105.5 30t49.5 80h67q-17 -81 -72.5 -125t-149.5 -44q-75 0 -129.5 32.5t-84 92t-29.5 141.5zM282 464
q-154 0 -170 -170h336q-6 78 -51.5 124t-114.5 46zM252 -73h77v-78h-77v78z" />
    <glyph glyph-name="uni1EC8" unicode="&#x1ec8;" 
d="M55 717q0 20 11 36t41 40q18 15 25.5 25.5t7.5 22.5q0 17 -12 26.5t-33 9.5q-45 0 -55 -43h-57q9 42 39 65t75 23q44 0 70.5 -22.5t26.5 -60.5q0 -22 -9 -36t-35 -32q-19 -14 -27.5 -25.5t-8.5 -28.5h-59zM55 666h64v-666h-64v666z" />
    <glyph glyph-name="uni1EC9" unicode="&#x1ec9;" 
d="M54 573q0 20 11 36t41 40q19 15 26 25.5t7 22.5q0 17 -12 26.5t-33 9.5q-45 0 -55 -43h-57q10 42 40 65t74 23t70.5 -22.5t26.5 -60.5q0 -22 -9 -36t-34 -32q-20 -14 -28.5 -25.5t-8.5 -28.5h-59zM55 512h64v-512h-64v512z" />
    <glyph glyph-name="uni1ECA" unicode="&#x1eca;" 
d="M55 666h64v-666h-64v666zM49 -73h77v-78h-77v78z" />
    <glyph glyph-name="uni1ECB" unicode="&#x1ecb;" 
d="M48 663h78v-78h-78v78zM55 512h64v-512h-64v512zM50 -73h77v-78h-77v78z" />
    <glyph glyph-name="uni1ECC" unicode="&#x1ecc;" horiz-adv-x="683" 
d="M45 325q0 106 37.5 184.5t104 122.5t156.5 44q88 0 155 -44t104 -122.5t37 -184.5q0 -100 -37 -175t-104 -116.5t-155 -41.5q-90 0 -156.5 41.5t-104 116.5t-37.5 175zM573 325q0 137 -60.5 213.5t-169.5 76.5q-111 0 -171.5 -76.5t-60.5 -213.5q0 -129 60.5 -200.5
t171.5 -71.5q109 0 169.5 71.5t60.5 200.5zM302 -73h77v-78h-77v78z" />
    <glyph glyph-name="uni1ECD" unicode="&#x1ecd;" horiz-adv-x="563" 
d="M45 258q0 80 29.5 139.5t83 92.5t124.5 33t124 -33t82.5 -92.5t29.5 -139.5t-29.5 -140t-82.5 -93.5t-124 -33.5t-124.5 33.5t-83 93.5t-29.5 140zM452 258q0 97 -44.5 151t-125.5 54t-126 -54t-45 -151q0 -98 45 -152t126 -54t125.5 54t44.5 152zM244 -73h77v-78h-77v78
z" />
    <glyph glyph-name="uni1ECE" unicode="&#x1ece;" horiz-adv-x="683" 
d="M309 717q0 20 11 36t41 40q19 15 26 25.5t7 22.5q0 17 -12 26.5t-32 9.5q-45 0 -56 -43h-56q9 42 39 65t75 23q44 0 70 -22.5t26 -60.5q0 -22 -9 -36t-34 -32q-20 -14 -28.5 -25.5t-8.5 -28.5h-59zM45 325q0 106 37.5 184.5t104 122.5t156.5 44q88 0 155 -44t104 -122.5
t37 -184.5q0 -100 -37 -175t-104 -116.5t-155 -41.5q-90 0 -156.5 41.5t-104 116.5t-37.5 175zM573 325q0 137 -60.5 213.5t-169.5 76.5q-111 0 -171.5 -76.5t-60.5 -213.5q0 -129 60.5 -200.5t171.5 -71.5q109 0 169.5 71.5t60.5 200.5z" />
    <glyph glyph-name="uni1ECF" unicode="&#x1ecf;" horiz-adv-x="563" 
d="M248 573q0 20 11 36t41 40q19 15 26 25.5t7 22.5q0 17 -12 26.5t-33 9.5q-45 0 -55 -43h-57q10 42 40 65t74 23t70.5 -22.5t26.5 -60.5q0 -22 -9 -36t-34 -32q-20 -14 -28.5 -25.5t-8.5 -28.5h-59zM45 258q0 80 29.5 139.5t83 92.5t124.5 33t124 -33t82.5 -92.5
t29.5 -139.5t-29.5 -140t-82.5 -93.5t-124 -33.5t-124.5 33.5t-83 93.5t-29.5 140zM452 258q0 97 -44.5 151t-125.5 54t-126 -54t-45 -151q0 -98 45 -152t126 -54t125.5 54t44.5 152z" />
    <glyph glyph-name="uni1ED0" unicode="&#x1ed0;" horiz-adv-x="683" 
d="M681 977l-137 -158h-53l113 158h77zM305 884h65l164 -167h-73l-122 129l-124 -129h-74zM45 325q0 106 37.5 184.5t104 122.5t156.5 44q88 0 155 -44t104 -122.5t37 -184.5q0 -100 -37 -175t-104 -116.5t-155 -41.5q-90 0 -156.5 41.5t-104 116.5t-37.5 175zM573 325
q0 137 -60.5 213.5t-169.5 76.5q-111 0 -171.5 -76.5t-60.5 -213.5q0 -129 60.5 -200.5t171.5 -71.5q109 0 169.5 71.5t60.5 200.5z" />
    <glyph glyph-name="uni1ED1" unicode="&#x1ed1;" horiz-adv-x="563" 
d="M611 854l-138 -158h-53l113 158h78zM243 740h65l164 -167h-73l-123 129l-123 -129h-74zM45 258q0 80 29.5 139.5t83 92.5t124.5 33t124 -33t82.5 -92.5t29.5 -139.5t-29.5 -140t-82.5 -93.5t-124 -33.5t-124.5 33.5t-83 93.5t-29.5 140zM452 258q0 97 -44.5 151
t-125.5 54t-126 -54t-45 -151q0 -98 45 -152t126 -54t125.5 54t44.5 152z" />
    <glyph glyph-name="uni1ED2" unicode="&#x1ed2;" horiz-adv-x="683" 
d="M415 977h76l114 -158h-53zM305 884h65l164 -167h-73l-122 129l-124 -129h-74zM45 325q0 106 37.5 184.5t104 122.5t156.5 44q88 0 155 -44t104 -122.5t37 -184.5q0 -100 -37 -175t-104 -116.5t-155 -41.5q-90 0 -156.5 41.5t-104 116.5t-37.5 175zM573 325
q0 137 -60.5 213.5t-169.5 76.5q-111 0 -171.5 -76.5t-60.5 -213.5q0 -129 60.5 -200.5t171.5 -71.5q109 0 169.5 71.5t60.5 200.5z" />
    <glyph glyph-name="uni1ED3" unicode="&#x1ed3;" horiz-adv-x="563" 
d="M337 854h77l113 -158h-53zM243 740h65l164 -167h-73l-123 129l-123 -129h-74zM45 258q0 80 29.5 139.5t83 92.5t124.5 33t124 -33t82.5 -92.5t29.5 -139.5t-29.5 -140t-82.5 -93.5t-124 -33.5t-124.5 33.5t-83 93.5t-29.5 140zM452 258q0 97 -44.5 151t-125.5 54
t-126 -54t-45 -151q0 -98 45 -152t126 -54t125.5 54t44.5 152z" />
    <glyph glyph-name="uni1ED4" unicode="&#x1ed4;" horiz-adv-x="683" 
d="M517 819q0 20 11 36t41 40q18 15 25.5 25.5t7.5 22.5q0 17 -12.5 26.5t-32.5 9.5q-45 0 -55 -43h-57q9 42 39 65t75 23q44 0 70.5 -22.5t26.5 -60.5q0 -22 -9.5 -36t-34.5 -32q-19 -14 -27.5 -25.5t-8.5 -28.5h-59zM305 884h65l164 -167h-73l-122 129l-124 -129h-74z
M45 325q0 106 37.5 184.5t104 122.5t156.5 44q88 0 155 -44t104 -122.5t37 -184.5q0 -100 -37 -175t-104 -116.5t-155 -41.5q-90 0 -156.5 41.5t-104 116.5t-37.5 175zM573 325q0 137 -60.5 213.5t-169.5 76.5q-111 0 -171.5 -76.5t-60.5 -213.5q0 -129 60.5 -200.5
t171.5 -71.5q109 0 169.5 71.5t60.5 200.5z" />
    <glyph glyph-name="uni1ED5" unicode="&#x1ed5;" horiz-adv-x="563" 
d="M426 697q0 20 11 36t41 40q19 15 26 25.5t7 22.5q0 17 -12 26.5t-32 9.5q-46 0 -56 -43h-57q10 42 40 65t75 23q43 0 69.5 -22.5t26.5 -60.5q0 -22 -9 -36t-34 -32q-20 -14 -28.5 -25.5t-8.5 -28.5h-59zM243 740h65l164 -167h-73l-123 129l-123 -129h-74zM45 258
q0 80 29.5 139.5t83 92.5t124.5 33t124 -33t82.5 -92.5t29.5 -139.5t-29.5 -140t-82.5 -93.5t-124 -33.5t-124.5 33.5t-83 93.5t-29.5 140zM452 258q0 97 -44.5 151t-125.5 54t-126 -54t-45 -151q0 -98 45 -152t126 -54t125.5 54t44.5 152z" />
    <glyph glyph-name="uni1ED6" unicode="&#x1ed6;" horiz-adv-x="683" 
d="M262 1086q32 0 52 -17.5t37 -35.5q15 -18 29 -31.5t33 -13.5q24 0 38.5 25t14.5 67h49q0 -67 -27.5 -106t-73.5 -39q-31 0 -51.5 15t-36.5 32q-17 18 -30.5 34.5t-32.5 16.5q-24 0 -38 -26t-14 -68h-51q0 69 27 108t75 39zM305 884h65l164 -167h-73l-122 129l-124 -129
h-74zM45 325q0 106 37.5 184.5t104 122.5t156.5 44q88 0 155 -44t104 -122.5t37 -184.5q0 -100 -37 -175t-104 -116.5t-155 -41.5q-90 0 -156.5 41.5t-104 116.5t-37.5 175zM573 325q0 137 -60.5 213.5t-169.5 76.5q-111 0 -171.5 -76.5t-60.5 -213.5q0 -129 60.5 -200.5
t171.5 -71.5q109 0 169.5 71.5t60.5 200.5z" />
    <glyph glyph-name="uni1ED7" unicode="&#x1ed7;" horiz-adv-x="563" 
d="M201 943q31 0 51.5 -17.5t37.5 -36.5q14 -17 28.5 -30.5t33.5 -13.5q24 0 38.5 25t14.5 67h49q0 -67 -27.5 -106t-73.5 -39q-32 0 -52 15t-37 32q-16 18 -29.5 34.5t-33.5 16.5q-24 0 -37.5 -26t-13.5 -68h-52q0 69 27.5 108t75.5 39zM243 740h65l164 -167h-73l-123 129
l-123 -129h-74zM45 258q0 80 29.5 139.5t83 92.5t124.5 33t124 -33t82.5 -92.5t29.5 -139.5t-29.5 -140t-82.5 -93.5t-124 -33.5t-124.5 33.5t-83 93.5t-29.5 140zM452 258q0 97 -44.5 151t-125.5 54t-126 -54t-45 -151q0 -98 45 -152t126 -54t125.5 54t44.5 152z" />
    <glyph glyph-name="uni1ED8" unicode="&#x1ed8;" horiz-adv-x="683" 
d="M304 884h65l164 -167h-73l-122 129l-124 -129h-74zM45 325q0 106 37.5 184.5t104 122.5t156.5 44q88 0 155 -44t104 -122.5t37 -184.5q0 -100 -37 -175t-104 -116.5t-155 -41.5q-90 0 -156.5 41.5t-104 116.5t-37.5 175zM573 325q0 137 -60.5 213.5t-169.5 76.5
q-111 0 -171.5 -76.5t-60.5 -213.5q0 -129 60.5 -200.5t171.5 -71.5q109 0 169.5 71.5t60.5 200.5zM302 -73h77v-78h-77v78z" />
    <glyph glyph-name="uni1ED9" unicode="&#x1ed9;" horiz-adv-x="563" 
d="M243 740h65l164 -167h-73l-123 129l-123 -129h-74zM45 258q0 80 29.5 139.5t83 92.5t124.5 33t124 -33t82.5 -92.5t29.5 -139.5t-29.5 -140t-82.5 -93.5t-124 -33.5t-124.5 33.5t-83 93.5t-29.5 140zM452 258q0 97 -44.5 151t-125.5 54t-126 -54t-45 -151q0 -98 45 -152
t126 -54t125.5 54t44.5 152zM244 -73h77v-78h-77v78z" />
    <glyph glyph-name="uni1EDA" unicode="&#x1eda;" horiz-adv-x="683" 
d="M478 875l-137 -158h-53l113 158h77zM45 325q0 106 37.5 184.5t104 122.5t156.5 44q41 0 78 -10h125q30 0 49.5 14.5t19.5 60.5v31h60v-37q0 -47 -18 -74t-45 -38t-55 -11h-31q53 -46 83 -119.5t30 -167.5q0 -100 -37 -175t-104 -116.5t-155 -41.5q-90 0 -156.5 41.5
t-104 116.5t-37.5 175zM573 325q0 137 -60.5 213.5t-169.5 76.5q-111 0 -171.5 -76.5t-60.5 -213.5q0 -129 60.5 -200.5t171.5 -71.5q109 0 169.5 71.5t60.5 200.5z" />
    <glyph glyph-name="uni1EDB" unicode="&#x1edb;" horiz-adv-x="566" 
d="M417 731l-137 -158h-54l113 158h78zM45 258q0 80 29.5 139.5t83 92.5t124.5 33q40 0 75 -11h78q30 0 50.5 15t20.5 61v30h58v-36q0 -47 -17.5 -74t-45 -38t-55.5 -11h-1q35 -35 54 -86t19 -115q0 -80 -29.5 -140t-82.5 -93.5t-124 -33.5t-124.5 33.5t-83 93.5t-29.5 140z
M452 258q0 97 -44.5 151t-125.5 54t-126 -54t-45 -151q0 -98 45 -152t126 -54t125.5 54t44.5 152z" />
    <glyph glyph-name="uni1EDC" unicode="&#x1edc;" horiz-adv-x="683" 
d="M206 875h77l114 -158h-53zM45 325q0 106 37.5 184.5t104 122.5t156.5 44q41 0 78 -10h125q30 0 49.5 14.5t19.5 60.5v31h60v-37q0 -47 -18 -74t-45 -38t-55 -11h-31q53 -46 83 -119.5t30 -167.5q0 -100 -37 -175t-104 -116.5t-155 -41.5q-90 0 -156.5 41.5t-104 116.5
t-37.5 175zM573 325q0 137 -60.5 213.5t-169.5 76.5q-111 0 -171.5 -76.5t-60.5 -213.5q0 -129 60.5 -200.5t171.5 -71.5q109 0 169.5 71.5t60.5 200.5z" />
    <glyph glyph-name="uni1EDD" unicode="&#x1edd;" horiz-adv-x="566" 
d="M145 731h76l114 -158h-53zM45 258q0 80 29.5 139.5t83 92.5t124.5 33q40 0 75 -11h78q30 0 50.5 15t20.5 61v30h58v-36q0 -47 -17.5 -74t-45 -38t-55.5 -11h-1q35 -35 54 -86t19 -115q0 -80 -29.5 -140t-82.5 -93.5t-124 -33.5t-124.5 33.5t-83 93.5t-29.5 140zM452 258
q0 97 -44.5 151t-125.5 54t-126 -54t-45 -151q0 -98 45 -152t126 -54t125.5 54t44.5 152z" />
    <glyph glyph-name="uni1EDE" unicode="&#x1ede;" horiz-adv-x="683" 
d="M309 717q0 20 11 36t41 40q19 15 26 25.5t7 22.5q0 17 -12 26.5t-32 9.5q-45 0 -56 -43h-56q9 42 39 65t75 23q44 0 70 -22.5t26 -60.5q0 -22 -9 -36t-34 -32q-20 -14 -28.5 -25.5t-8.5 -28.5h-59zM45 325q0 106 37.5 184.5t104 122.5t156.5 44q41 0 78 -10h125
q30 0 49.5 14.5t19.5 60.5v31h60v-37q0 -47 -18 -74t-45 -38t-55 -11h-31q53 -46 83 -119.5t30 -167.5q0 -100 -37 -175t-104 -116.5t-155 -41.5q-90 0 -156.5 41.5t-104 116.5t-37.5 175zM573 325q0 137 -60.5 213.5t-169.5 76.5q-111 0 -171.5 -76.5t-60.5 -213.5
q0 -129 60.5 -200.5t171.5 -71.5q109 0 169.5 71.5t60.5 200.5z" />
    <glyph glyph-name="uni1EDF" unicode="&#x1edf;" horiz-adv-x="566" 
d="M248 573q0 20 11 36t41 40q19 15 26 25.5t7 22.5q0 17 -12 26.5t-33 9.5q-45 0 -55 -43h-57q10 42 40 65t74 23t70.5 -22.5t26.5 -60.5q0 -22 -9 -36t-34 -32q-20 -14 -28.5 -25.5t-8.5 -28.5h-59zM45 258q0 80 29.5 139.5t83 92.5t124.5 33q40 0 75 -11h78q30 0 50.5 15
t20.5 61v30h58v-36q0 -47 -17.5 -74t-45 -38t-55.5 -11h-1q35 -35 54 -86t19 -115q0 -80 -29.5 -140t-82.5 -93.5t-124 -33.5t-124.5 33.5t-83 93.5t-29.5 140zM452 258q0 97 -44.5 151t-125.5 54t-126 -54t-45 -151q0 -98 45 -152t126 -54t125.5 54t44.5 152z" />
    <glyph glyph-name="uni1EE0" unicode="&#x1ee0;" horiz-adv-x="683" 
d="M260 864q32 0 52 -17t37 -36q15 -17 29 -31t33 -14q24 0 38.5 25t14.5 67h49q0 -67 -27.5 -106t-73.5 -39q-31 0 -51.5 15t-36.5 32q-17 18 -30.5 34.5t-32.5 16.5q-24 0 -38 -26t-14 -68h-51q0 69 27 108t75 39zM45 325q0 106 37.5 184.5t104 122.5t156.5 44
q41 0 78 -10h125q30 0 49.5 14.5t19.5 60.5v31h60v-37q0 -47 -18 -74t-45 -38t-55 -11h-31q53 -46 83 -119.5t30 -167.5q0 -100 -37 -175t-104 -116.5t-155 -41.5q-90 0 -156.5 41.5t-104 116.5t-37.5 175zM573 325q0 137 -60.5 213.5t-169.5 76.5q-111 0 -171.5 -76.5
t-60.5 -213.5q0 -129 60.5 -200.5t171.5 -71.5q109 0 169.5 71.5t60.5 200.5z" />
    <glyph glyph-name="uni1EE1" unicode="&#x1ee1;" horiz-adv-x="566" 
d="M199 720q31 0 51.5 -17t37.5 -36q14 -17 28 -31t34 -14q23 0 37.5 25t14.5 67h50q0 -67 -27.5 -106t-73.5 -39q-32 0 -52 15t-37 32q-16 18 -29.5 34.5t-33.5 16.5q-24 0 -38 -26t-14 -68h-51q0 69 27.5 108t75.5 39zM45 258q0 80 29.5 139.5t83 92.5t124.5 33
q40 0 75 -11h78q30 0 50.5 15t20.5 61v30h58v-36q0 -47 -17.5 -74t-45 -38t-55.5 -11h-1q35 -35 54 -86t19 -115q0 -80 -29.5 -140t-82.5 -93.5t-124 -33.5t-124.5 33.5t-83 93.5t-29.5 140zM452 258q0 97 -44.5 151t-125.5 54t-126 -54t-45 -151q0 -98 45 -152t126 -54
t125.5 54t44.5 152z" />
    <glyph glyph-name="uni1EE2" unicode="&#x1ee2;" horiz-adv-x="683" 
d="M45 325q0 106 37.5 184.5t104 122.5t156.5 44q41 0 78 -10h125q30 0 49.5 14.5t19.5 60.5v31h60v-37q0 -47 -18 -74t-45 -38t-55 -11h-31q53 -46 83 -119.5t30 -167.5q0 -100 -37 -175t-104 -116.5t-155 -41.5q-90 0 -156.5 41.5t-104 116.5t-37.5 175zM573 325
q0 137 -60.5 213.5t-169.5 76.5q-111 0 -171.5 -76.5t-60.5 -213.5q0 -129 60.5 -200.5t171.5 -71.5q109 0 169.5 71.5t60.5 200.5zM302 -73h77v-78h-77v78z" />
    <glyph glyph-name="uni1EE3" unicode="&#x1ee3;" horiz-adv-x="566" 
d="M45 258q0 80 29.5 139.5t83 92.5t124.5 33q40 0 75 -11h78q30 0 50.5 15t20.5 61v30h58v-36q0 -47 -17.5 -74t-45 -38t-55.5 -11h-1q35 -35 54 -86t19 -115q0 -80 -29.5 -140t-82.5 -93.5t-124 -33.5t-124.5 33.5t-83 93.5t-29.5 140zM452 258q0 97 -44.5 151t-125.5 54
t-126 -54t-45 -151q0 -98 45 -152t126 -54t125.5 54t44.5 152zM244 -73h77v-78h-77v78z" />
    <glyph glyph-name="uni1EE4" unicode="&#x1ee4;" horiz-adv-x="597" 
d="M50 666h63v-412q0 -95 49.5 -147.5t137.5 -52.5q87 0 135.5 52.5t48.5 147.5v412h64v-412q0 -79 -31 -138t-87 -91.5t-130 -32.5q-75 0 -131 32.5t-87.5 91.5t-31.5 138v412zM263 -73h77v-78h-77v78z" />
    <glyph glyph-name="uni1EE5" unicode="&#x1ee5;" horiz-adv-x="522" 
d="M119 207q0 -83 37.5 -120t101.5 -37q41 0 74 19.5t52.5 53.5t19.5 78v311h63v-512h-63v84q-27 -45 -72 -70t-91 -25q-81 0 -133.5 53t-52.5 152v318h64v-305zM216 -73h77v-78h-77v78z" />
    <glyph glyph-name="uni1EE6" unicode="&#x1ee6;" horiz-adv-x="597" 
d="M271 717q0 20 11 36t41 40q19 15 26 25.5t7 22.5q0 17 -12 26.5t-32 9.5q-46 0 -56 -43h-56q9 42 39 65t75 23q43 0 69.5 -22.5t26.5 -60.5q0 -22 -9 -36t-34 -32q-20 -14 -28.5 -25.5t-8.5 -28.5h-59zM50 666h63v-412q0 -95 49.5 -147.5t137.5 -52.5q87 0 135.5 52.5
t48.5 147.5v412h64v-412q0 -79 -31 -138t-87 -91.5t-130 -32.5q-75 0 -131 32.5t-87.5 91.5t-31.5 138v412z" />
    <glyph glyph-name="uni1EE7" unicode="&#x1ee7;" horiz-adv-x="522" 
d="M235 573q0 20 11 36t41 40q18 15 25.5 25.5t7.5 22.5q0 17 -12 26.5t-33 9.5q-45 0 -55 -43h-57q9 42 39.5 65t74.5 23t70.5 -22.5t26.5 -60.5q0 -22 -9 -36t-35 -32q-19 -14 -27.5 -25.5t-8.5 -28.5h-59zM119 207q0 -83 37.5 -120t101.5 -37q41 0 74 19.5t52.5 53.5
t19.5 78v311h63v-512h-63v84q-27 -45 -72 -70t-91 -25q-81 0 -133.5 53t-52.5 152v318h64v-305z" />
    <glyph glyph-name="uni1EE8" unicode="&#x1ee8;" horiz-adv-x="638" 
d="M440 875l-137 -158h-53l113 158h77zM50 666h63v-412q0 -95 49.5 -147.5t137.5 -52.5q87 0 135.5 52.5t48.5 147.5v412h64v-1h2q30 0 50.5 15t20.5 61v31h58v-37q0 -47 -17.5 -74t-44.5 -38t-55 -11h-14v-358q0 -79 -31 -138t-87 -91.5t-130 -32.5q-75 0 -131 32.5
t-87.5 91.5t-31.5 138v412z" />
    <glyph glyph-name="uni1EE9" unicode="&#x1ee9;" horiz-adv-x="578" 
d="M404 731l-138 -158h-53l113 158h78zM119 207q0 -83 37.5 -120t101.5 -37q41 0 74 19.5t52.5 53.5t19.5 78v311h66q30 0 50 15t20 61v31h59v-37q0 -47 -18 -74t-45 -38t-54 -11h-15v-459h-63v84q-27 -45 -72 -70t-91 -25q-81 0 -133.5 53t-52.5 152v318h64v-305z" />
    <glyph glyph-name="uni1EEA" unicode="&#x1eea;" horiz-adv-x="638" 
d="M168 875h77l113 -158h-53zM50 666h63v-412q0 -95 49.5 -147.5t137.5 -52.5q87 0 135.5 52.5t48.5 147.5v412h64v-1h2q30 0 50.5 15t20.5 61v31h58v-37q0 -47 -17.5 -74t-44.5 -38t-55 -11h-14v-358q0 -79 -31 -138t-87 -91.5t-130 -32.5q-75 0 -131 32.5t-87.5 91.5
t-31.5 138v412z" />
    <glyph glyph-name="uni1EEB" unicode="&#x1eeb;" horiz-adv-x="578" 
d="M132 731h76l114 -158h-53zM119 207q0 -83 37.5 -120t101.5 -37q41 0 74 19.5t52.5 53.5t19.5 78v311h66q30 0 50 15t20 61v31h59v-37q0 -47 -18 -74t-45 -38t-54 -11h-15v-459h-63v84q-27 -45 -72 -70t-91 -25q-81 0 -133.5 53t-52.5 152v318h64v-305z" />
    <glyph glyph-name="uni1EEC" unicode="&#x1eec;" horiz-adv-x="638" 
d="M271 717q0 20 11 36t41 40q19 15 26 25.5t7 22.5q0 17 -12 26.5t-32 9.5q-46 0 -56 -43h-56q9 42 39 65t75 23q43 0 69.5 -22.5t26.5 -60.5q0 -22 -9 -36t-34 -32q-20 -14 -28.5 -25.5t-8.5 -28.5h-59zM50 666h63v-412q0 -95 49.5 -147.5t137.5 -52.5q87 0 135.5 52.5
t48.5 147.5v412h64v-1h2q30 0 50.5 15t20.5 61v31h58v-37q0 -47 -17.5 -74t-44.5 -38t-55 -11h-14v-358q0 -79 -31 -138t-87 -91.5t-130 -32.5q-75 0 -131 32.5t-87.5 91.5t-31.5 138v412z" />
    <glyph glyph-name="uni1EED" unicode="&#x1eed;" horiz-adv-x="578" 
d="M235 573q0 20 11 36t41 40q18 15 25.5 25.5t7.5 22.5q0 17 -12 26.5t-33 9.5q-45 0 -55 -43h-57q9 42 39.5 65t74.5 23t70.5 -22.5t26.5 -60.5q0 -22 -9 -36t-35 -32q-19 -14 -27.5 -25.5t-8.5 -28.5h-59zM119 207q0 -83 37.5 -120t101.5 -37q41 0 74 19.5t52.5 53.5
t19.5 78v311h66q30 0 50 15t20 61v31h59v-37q0 -47 -18 -74t-45 -38t-54 -11h-15v-459h-63v84q-27 -45 -72 -70t-91 -25q-81 0 -133.5 53t-52.5 152v318h64v-305z" />
    <glyph glyph-name="uni1EEE" unicode="&#x1eee;" horiz-adv-x="638" 
d="M222 864q31 0 51.5 -17t37.5 -36q14 -17 28.5 -31t33.5 -14q24 0 38.5 25t14.5 67h49q0 -67 -27.5 -106t-73.5 -39q-32 0 -52 15t-37 32q-16 18 -29.5 34.5t-33.5 16.5q-24 0 -37.5 -26t-13.5 -68h-52q0 69 27.5 108t75.5 39zM50 666h63v-412q0 -95 49.5 -147.5
t137.5 -52.5q87 0 135.5 52.5t48.5 147.5v412h64v-1h2q30 0 50.5 15t20.5 61v31h58v-37q0 -47 -17.5 -74t-44.5 -38t-55 -11h-14v-358q0 -79 -31 -138t-87 -91.5t-130 -32.5q-75 0 -131 32.5t-87.5 91.5t-31.5 138v412z" />
    <glyph glyph-name="uni1EEF" unicode="&#x1eef;" horiz-adv-x="578" 
d="M185 720q32 0 52.5 -17t37.5 -36q14 -17 28 -31t34 -14q23 0 37.5 25t14.5 67h49q0 -67 -27 -106t-73 -39q-32 0 -52 15t-37 32q-16 18 -30 34.5t-33 16.5q-24 0 -38 -26t-14 -68h-51q0 69 27.5 108t74.5 39zM119 207q0 -83 37.5 -120t101.5 -37q41 0 74 19.5t52.5 53.5
t19.5 78v311h66q30 0 50 15t20 61v31h59v-37q0 -47 -18 -74t-45 -38t-54 -11h-15v-459h-63v84q-27 -45 -72 -70t-91 -25q-81 0 -133.5 53t-52.5 152v318h64v-305z" />
    <glyph glyph-name="uni1EF0" unicode="&#x1ef0;" horiz-adv-x="638" 
d="M50 666h63v-412q0 -95 49.5 -147.5t137.5 -52.5q87 0 135.5 52.5t48.5 147.5v412h64v-1h2q30 0 50.5 15t20.5 61v31h58v-37q0 -47 -17.5 -74t-44.5 -38t-55 -11h-14v-358q0 -79 -31 -138t-87 -91.5t-130 -32.5q-75 0 -131 32.5t-87.5 91.5t-31.5 138v412zM263 -73h77v-78
h-77v78z" />
    <glyph glyph-name="uni1EF1" unicode="&#x1ef1;" horiz-adv-x="578" 
d="M119 207q0 -83 37.5 -120t101.5 -37q41 0 74 19.5t52.5 53.5t19.5 78v311h66q30 0 50 15t20 61v31h59v-37q0 -47 -18 -74t-45 -38t-54 -11h-15v-459h-63v84q-27 -45 -72 -70t-91 -25q-81 0 -133.5 53t-52.5 152v318h64v-305zM216 -73h77v-78h-77v78z" />
    <glyph glyph-name="Ygrave" unicode="&#x1ef2;" horiz-adv-x="588" 
d="M167 875h77l114 -158h-53zM261 229l-227 437h76l183 -360l187 360h74l-230 -437v-229h-63v229z" />
    <glyph glyph-name="ygrave" unicode="&#x1ef3;" horiz-adv-x="550" 
d="M149 731h77l114 -158h-53zM62 -97h72q37 0 58.5 15.5t35.5 53.5l11 31l-204 509h70l171 -433l169 433h71l-215 -546q-27 -68 -59.5 -97t-81.5 -29h-98v63z" />
    <glyph glyph-name="uni1EF4" unicode="&#x1ef4;" horiz-adv-x="588" 
d="M261 229l-227 437h76l183 -360l187 360h74l-230 -437v-229h-63v229zM256 -73h77v-78h-77v78z" />
    <glyph glyph-name="uni1EF5" unicode="&#x1ef5;" horiz-adv-x="550" 
d="M62 -97h72q37 0 58.5 15.5t35.5 53.5l11 31l-204 509h70l171 -433l169 433h71l-215 -546q-27 -68 -59.5 -97t-81.5 -29h-98v63zM349 -73h77v-78h-77v78z" />
    <glyph glyph-name="uni1EF6" unicode="&#x1ef6;" horiz-adv-x="588" 
d="M270 717q0 20 11.5 36t40.5 40q19 15 26.5 25.5t7.5 22.5q0 17 -12.5 26.5t-32.5 9.5q-45 0 -55 -43h-57q9 42 39 65t75 23q44 0 70 -22.5t26 -60.5q0 -22 -9 -36t-34 -32q-20 -14 -28.5 -25.5t-8.5 -28.5h-59zM261 229l-227 437h76l183 -360l187 360h74l-230 -437v-229
h-63v229z" />
    <glyph glyph-name="uni1EF7" unicode="&#x1ef7;" horiz-adv-x="550" 
d="M252 573q0 20 11 36t41 40q19 15 26 25.5t7 22.5q0 17 -12 26.5t-32 9.5q-45 0 -56 -43h-56q9 42 39 65t75 23q44 0 70 -22.5t26 -60.5q0 -22 -9 -36t-34 -32q-20 -14 -28.5 -25.5t-8.5 -28.5h-59zM62 -97h72q37 0 58.5 15.5t35.5 53.5l11 31l-204 509h70l171 -433
l169 433h71l-215 -546q-27 -68 -59.5 -97t-81.5 -29h-98v63z" />
    <glyph glyph-name="uni1EF8" unicode="&#x1ef8;" horiz-adv-x="588" 
d="M221 864q32 0 52 -17t37 -36q15 -17 29 -31t33 -14q24 0 38.5 25t14.5 67h49q0 -67 -27.5 -106t-73.5 -39q-31 0 -51.5 15t-36.5 32q-17 18 -30.5 34.5t-32.5 16.5q-24 0 -38 -26t-14 -68h-51q0 69 27 108t75 39zM261 229l-227 437h76l183 -360l187 360h74l-230 -437
v-229h-63v229z" />
    <glyph glyph-name="uni1EF9" unicode="&#x1ef9;" horiz-adv-x="550" 
d="M203 720q32 0 52 -17t37 -36q15 -17 29 -31t33 -14q24 0 38.5 25t14.5 67h49q0 -67 -27.5 -106t-73.5 -39q-31 0 -51.5 15t-36.5 32q-17 18 -30.5 34.5t-32.5 16.5q-24 0 -38 -26t-14 -68h-51q0 69 27 108t75 39zM62 -97h72q37 0 58.5 15.5t35.5 53.5l11 31l-204 509h70
l171 -433l169 433h71l-215 -546q-27 -68 -59.5 -97t-81.5 -29h-98v63z" />
    <glyph glyph-name="endash" unicode="&#x2013;" horiz-adv-x="673" 
d="M35 312h604v-59h-604v59z" />
    <glyph glyph-name="emdash" unicode="&#x2014;" horiz-adv-x="1007" 
d="M35 312h937v-59h-937v59z" />
    <glyph glyph-name="quoteleft" unicode="&#x2018;" 
d="M119 497h-78v82l35 138h50l-54 -138h47v-82z" />
    <glyph glyph-name="quoteright" unicode="&#x2019;" 
d="M48 717h78v-83l-35 -137h-50l54 137h-47v83z" />
    <glyph glyph-name="quotesinglbase" unicode="&#x201a;" 
d="M48 83h78v-83l-35 -138h-50l54 138h-47v83z" />
    <glyph glyph-name="quotereversed" unicode="&#x201b;" 
d="M119 717v-83h-47l54 -137h-50l-35 137v83h78z" />
    <glyph glyph-name="quotedblleft" unicode="&#x201c;" horiz-adv-x="300" 
d="M245 497h-77v82l34 138h50l-54 -138h47v-82zM119 497h-78v82l35 138h50l-54 -138h47v-82z" />
    <glyph glyph-name="quotedblright" unicode="&#x201d;" horiz-adv-x="300" 
d="M48 717h78v-83l-35 -137h-50l54 137h-47v83zM175 717h77v-83l-34 -137h-50l54 137h-47v83z" />
    <glyph glyph-name="quotedblbase" unicode="&#x201e;" horiz-adv-x="300" 
d="M48 83h78v-83l-35 -138h-50l54 138h-47v83zM175 83h77v-83l-34 -138h-50l54 138h-47v83z" />
    <glyph glyph-name="uni201F" unicode="&#x201f;" horiz-adv-x="300" 
d="M245 717v-83h-47l54 -137h-50l-34 137v83h77zM119 717v-83h-47l54 -137h-50l-35 137v83h78z" />
    <glyph glyph-name="dagger" unicode="&#x2020;" horiz-adv-x="328" 
d="M133 454h-98v58h98v133h63v-133h98v-58h-98v-454h-63v454z" />
    <glyph glyph-name="daggerdbl" unicode="&#x2021;" horiz-adv-x="328" 
d="M196 512h98v-58h-98v-263h98v-58h-98v-133h-63v133h-98v58h98v263h-98v58h98v133h63v-133z" />
    <glyph glyph-name="bullet" unicode="&#x2022;" horiz-adv-x="216" 
d="M38 379q0 29 20.5 49t49.5 20t49.5 -20t20.5 -49t-20.5 -50t-49.5 -21t-49.5 21t-20.5 50z" />
    <glyph glyph-name="uni2023" unicode="&#x2023;" horiz-adv-x="216" 
d="M38 287v182l140 -90z" />
    <glyph glyph-name="ellipsis" unicode="&#x2026;" horiz-adv-x="519" 
d="M394 83h77v-83h-77v83zM221 83h78v-83h-78v83zM48 83h78v-83h-78v83z" />
    <glyph glyph-name="perthousand" unicode="&#x2030;" horiz-adv-x="1257" 
d="M36 472q0 92 45.5 148t119.5 56t119 -56t45 -148q0 -93 -45 -149.5t-119 -56.5t-119.5 56.5t-45.5 149.5zM540 666h66l-275 -666h-66zM303 472q0 70 -26.5 108.5t-75.5 38.5t-76 -38.5t-27 -108.5t27 -109.5t76 -39.5t75.5 39.5t26.5 109.5zM893 197q0 92 45 147.5
t119 55.5t119.5 -55.5t45.5 -147.5q0 -93 -45.5 -149.5t-119.5 -56.5t-119 56.5t-45 149.5zM506 197q0 92 45 147.5t120 55.5q73 0 118.5 -55.5t45.5 -147.5q0 -93 -45.5 -149.5t-118.5 -56.5q-75 0 -120 56.5t-45 149.5zM1160 197q0 69 -27 107.5t-76 38.5t-75.5 -38.5
t-26.5 -107.5q0 -70 26.5 -109.5t75.5 -39.5t76 39.5t27 109.5zM773 197q0 69 -26.5 107.5t-75.5 38.5t-76 -38.5t-27 -107.5q0 -70 27 -109.5t76 -39.5t75.5 39.5t26.5 109.5z" />
    <glyph glyph-name="minute" unicode="&#x2032;" horiz-adv-x="244" 
d="M219 666l-140 -158h-53l116 158h77z" />
    <glyph glyph-name="second" unicode="&#x2033;" horiz-adv-x="386" 
d="M361 666l-140 -158h-53l116 158h77zM219 666l-140 -158h-53l116 158h77z" />
    <glyph glyph-name="uni2034" unicode="&#x2034;" horiz-adv-x="528" 
d="M219 666l-140 -158h-53l116 158h77zM503 666l-140 -158h-53l115 158h78zM361 666l-140 -158h-53l116 158h77z" />
    <glyph glyph-name="uni2035" unicode="&#x2035;" horiz-adv-x="244" 
d="M26 666h77l116 -158h-53z" />
    <glyph glyph-name="uni2036" unicode="&#x2036;" horiz-adv-x="386" 
d="M26 666h77l116 -158h-53zM168 666h77l116 -158h-53z" />
    <glyph glyph-name="uni2037" unicode="&#x2037;" horiz-adv-x="528" 
d="M310 666h76l117 -158h-53zM26 666h77l116 -158h-53zM168 666h77l116 -158h-53z" />
    <glyph glyph-name="guilsinglleft" unicode="&#x2039;" horiz-adv-x="309" 
d="M283 519v-84l-192 -158l192 -160v-76l-248 204v70z" />
    <glyph glyph-name="guilsinglright" unicode="&#x203a;" horiz-adv-x="309" 
d="M35 41v84l192 157l-192 161v76l248 -204v-70z" />
    <glyph glyph-name="uni2070" unicode="&#x2070;" horiz-adv-x="401" 
d="M36 569q0 92 45.5 148t119.5 56t119 -56t45 -148q0 -93 -45 -149t-119 -56t-119.5 56t-45.5 149zM303 569q0 69 -26.5 108t-75.5 39t-76 -39t-27 -108q0 -70 27 -109t76 -39t75.5 39t26.5 109z" />
    <glyph glyph-name="uni2074" unicode="&#x2074;" horiz-adv-x="407" 
d="M299 471v-98h-58v98h-206v63l193 234h71v-244h74v-53h-74zM241 524v176l-144 -176h144z" />
    <glyph glyph-name="uni2075" unicode="&#x2075;" horiz-adv-x="378" 
d="M281 505q0 38 -22 61t-62 23q-36 0 -62 -14t-40 -38h-59l26 231h261v-55h-210l-12 -118q18 22 45.5 35t62.5 13q61 0 97.5 -38.5t36.5 -98.5q0 -66 -42 -104t-110 -38q-65 0 -107.5 32t-47.5 84h63q1 -28 25.5 -44t66.5 -16t66 21.5t24 63.5z" />
    <glyph glyph-name="uni2076" unicode="&#x2076;" horiz-adv-x="393" 
d="M36 565q0 98 45 153t127 55q55 0 93 -29.5t48 -81.5h-63q-12 55 -78 55q-109 0 -109 -146q0 -6 0.5 -12.5t0.5 -12.5q15 37 47 58.5t72 21.5q60 0 99 -36.5t39 -93.5q0 -58 -40 -94.5t-102 -36.5q-82 0 -130.5 54t-48.5 146zM121 496q0 -33 25 -54t64 -21q38 0 61 20.5
t23 53.5q0 34 -23 54t-61 20q-40 0 -64.5 -20.5t-24.5 -52.5z" />
    <glyph glyph-name="uni2077" unicode="&#x2077;" horiz-adv-x="401" 
d="M191 373h-66q10 82 36 142.5t62.5 107.5t78.5 88h-266v57h329v-67q-73 -66 -119 -146.5t-55 -181.5z" />
    <glyph glyph-name="uni2078" unicode="&#x2078;" horiz-adv-x="392" 
d="M199 773q66 0 106.5 -31.5t40.5 -83.5q0 -29 -16 -52t-45 -36q34 -14 52.5 -38.5t18.5 -57.5q0 -49 -43 -79t-114 -30q-74 0 -118.5 30t-44.5 79q0 33 19.5 57.5t53.5 38.5q-30 13 -46.5 36t-16.5 52q0 52 42 83.5t111 31.5zM108 652q0 -27 23.5 -41.5t64.5 -14.5h7
q39 0 60 14.5t21 41.5q0 31 -22 48t-63 17q-44 0 -67.5 -17t-23.5 -48zM199 421q45 0 69.5 15t24.5 43q0 30 -23.5 46.5t-66.5 16.5h-7q-46 0 -71.5 -16.5t-25.5 -46.5q0 -28 26 -43t74 -15z" />
    <glyph glyph-name="uni2079" unicode="&#x2079;" horiz-adv-x="393" 
d="M357 554q0 -89 -45.5 -139t-126.5 -50q-59 0 -98.5 28t-49.5 78h62q13 -50 85 -50q112 0 112 136q0 6 -0.5 12.5t-1.5 13.5q-14 -37 -46.5 -58t-71.5 -21q-61 0 -100.5 37.5t-39.5 95.5q0 59 42 97.5t107 38.5q78 0 125 -59t47 -160zM275 637q0 33 -25.5 56t-63.5 23
q-39 0 -62 -22t-23 -57t23 -56.5t62 -21.5q40 0 64.5 21.5t24.5 56.5z" />
    <glyph glyph-name="uni207A" unicode="&#x207a;" horiz-adv-x="376" 
d="M216 605h126v-56h-126v-125h-55v125h-126v56h126v125h55v-125z" />
    <glyph glyph-name="uni207B" unicode="&#x207b;" horiz-adv-x="376" 
d="M35 605h307v-56h-307v56z" />
    <glyph glyph-name="uni207C" unicode="&#x207c;" horiz-adv-x="376" 
d="M35 693h307v-56h-307v56zM35 517h307v-56h-307v56z" />
    <glyph glyph-name="uni207D" unicode="&#x207d;" horiz-adv-x="192" 
d="M178 297h-61q-35 40 -58.5 112t-23.5 168q0 91 23.5 159.5t58.5 106.5h61q-40 -48 -60 -112.5t-20 -153.5q0 -95 20 -162.5t60 -117.5z" />
    <glyph glyph-name="uni207E" unicode="&#x207e;" horiz-adv-x="192" 
d="M15 843h62q35 -40 57.5 -112t22.5 -168q0 -91 -22.5 -159.5t-57.5 -106.5h-62q40 48 60 112.5t20 153.5q0 94 -20 162t-60 118z" />
    <glyph glyph-name="uni207F" unicode="&#x207f;" horiz-adv-x="437" 
d="M323 612q0 57 -27 83t-71 26q-47 0 -78 -29t-31 -74v-245h-61v395h61v-51q22 30 55.5 46t68.5 16q62 0 102.5 -39.5t40.5 -114.5v-252h-60v239z" />
    <glyph glyph-name="uni2080" unicode="&#x2080;" horiz-adv-x="401" 
d="M36 94q0 92 45.5 148t119.5 56t119 -56t45 -148q0 -93 -45 -149.5t-119 -56.5t-119.5 56.5t-45.5 149.5zM303 94q0 69 -26.5 108t-75.5 39t-76 -39t-27 -108q0 -70 27 -109t76 -39t75.5 39t26.5 109z" />
    <glyph glyph-name="uni2081" unicode="&#x2081;" horiz-adv-x="234" 
d="M138 293h59v-395h-59v260h-112v51h44q34 0 51 11t17 42v31z" />
    <glyph glyph-name="uni2082" unicode="&#x2082;" horiz-adv-x="391" 
d="M99 -47h252v-55h-315v16q0 53 24.5 84.5t61.5 49.5t74 32q39 14 68 32.5t29 52.5q0 36 -24 56.5t-66 20.5q-47 0 -74.5 -23t-29.5 -62h-63q5 63 51.5 102t115.5 39q68 0 110 -37.5t42 -98.5q0 -34 -19 -58t-49 -40.5t-63 -30.5q-47 -19 -82.5 -36.5t-42.5 -43.5z" />
    <glyph glyph-name="uni2083" unicode="&#x2083;" horiz-adv-x="393" 
d="M169 66v53h59q56 0 56 54q0 33 -23.5 51.5t-66.5 18.5q-40 0 -64 -18.5t-26 -49.5h-62q4 55 46 89.5t106 34.5q68 0 110.5 -34t42.5 -90q0 -54 -47 -81q57 -27 57 -88q0 -53 -43.5 -85t-113.5 -32q-68 0 -113.5 33t-50.5 85h63q2 -28 29 -44.5t71 -16.5q45 0 70 16t25 46
q0 58 -66 58h-59z" />
    <glyph glyph-name="uni2084" unicode="&#x2084;" horiz-adv-x="407" 
d="M299 -4v-98h-58v98h-206v63l193 234h71v-244h74v-53h-74zM241 49v175l-144 -175h144z" />
    <glyph glyph-name="uni2085" unicode="&#x2085;" horiz-adv-x="378" 
d="M281 30q0 38 -22 60.5t-62 22.5q-36 0 -62 -14t-40 -38h-59l26 232h261v-55h-210l-12 -118q18 22 45.5 35t62.5 13q61 0 97.5 -38.5t36.5 -98.5q0 -66 -42 -104.5t-110 -38.5q-65 0 -107.5 32.5t-47.5 84.5h63q1 -28 25.5 -44t66.5 -16t66 21.5t24 63.5z" />
    <glyph glyph-name="uni2086" unicode="&#x2086;" horiz-adv-x="393" 
d="M36 90q0 98 45 153t127 55q55 0 93 -30t48 -82h-63q-12 56 -78 56q-109 0 -109 -146q0 -7 0.5 -13t0.5 -12q15 37 47 58.5t72 21.5q60 0 99 -37t39 -94t-40 -94t-102 -37q-82 0 -130.5 54.5t-48.5 146.5zM121 20q0 -32 25 -53t64 -21q38 0 61 20t23 54q0 33 -23 53.5
t-61 20.5q-40 0 -64.5 -21t-24.5 -53z" />
    <glyph glyph-name="uni2087" unicode="&#x2087;" horiz-adv-x="401" 
d="M191 -102h-66q10 82 36 142.5t62.5 107.5t78.5 88h-266v57h329v-68q-73 -66 -119 -146t-55 -181z" />
    <glyph glyph-name="uni2088" unicode="&#x2088;" horiz-adv-x="392" 
d="M199 298q66 0 106.5 -31.5t40.5 -83.5q0 -29 -16 -52t-45 -36q34 -14 52.5 -38.5t18.5 -57.5q0 -49 -43 -79.5t-114 -30.5q-74 0 -118.5 30.5t-44.5 79.5q0 33 19.5 57.5t53.5 38.5q-30 13 -46.5 36t-16.5 52q0 52 42 83.5t111 31.5zM108 177q0 -27 23.5 -41.5
t64.5 -14.5h7q39 0 60 14.5t21 41.5q0 31 -22 48t-63 17q-44 0 -67.5 -17t-23.5 -48zM199 -54q45 0 69.5 15t24.5 43q0 30 -23.5 46.5t-66.5 16.5h-7q-46 0 -71.5 -16.5t-25.5 -46.5q0 -28 26 -43t74 -15z" />
    <glyph glyph-name="uni2089" unicode="&#x2089;" horiz-adv-x="393" 
d="M357 79q0 -89 -45.5 -139.5t-126.5 -50.5q-59 0 -98.5 28.5t-49.5 78.5h62q13 -50 85 -50q112 0 112 136q0 6 -0.5 12.5t-1.5 13.5q-14 -37 -46.5 -58t-71.5 -21q-61 0 -100.5 37.5t-39.5 95.5q0 59 42 97.5t107 38.5q78 0 125 -59t47 -160zM275 162q0 33 -25.5 56
t-63.5 23q-39 0 -62 -22t-23 -57t23 -56.5t62 -21.5q40 0 64.5 21.5t24.5 56.5z" />
    <glyph glyph-name="uni208A" unicode="&#x208a;" horiz-adv-x="376" 
d="M216 130h126v-56h-126v-125h-55v125h-126v56h126v125h55v-125z" />
    <glyph glyph-name="uni208B" unicode="&#x208b;" horiz-adv-x="376" 
d="M35 130h307v-56h-307v56z" />
    <glyph glyph-name="uni208C" unicode="&#x208c;" horiz-adv-x="376" 
d="M35 218h307v-56h-307v56zM35 42h307v-56h-307v56z" />
    <glyph glyph-name="uni208D" unicode="&#x208d;" horiz-adv-x="192" 
d="M178 -178h-61q-35 40 -58.5 111.5t-23.5 167.5q0 91 23.5 160t58.5 107h61q-40 -48 -60 -113t-20 -154q0 -94 20 -161.5t60 -117.5z" />
    <glyph glyph-name="uni208E" unicode="&#x208e;" horiz-adv-x="192" 
d="M15 368h62q35 -40 57.5 -112t22.5 -168q0 -91 -22.5 -159.5t-57.5 -106.5h-62q40 48 60 112.5t20 153.5q0 94 -20 162t-60 118z" />
    <glyph glyph-name="uni2099" unicode="&#x2099;" horiz-adv-x="437" 
d="M55 293h61v-51q22 30 55.5 46t68.5 16q62 0 102.5 -39.5t40.5 -114.5v-252h-60v239q0 57 -27 83t-71 26q-47 0 -78 -29t-31 -74v-245h-61v395z" />
    <glyph glyph-name="uni20A0" unicode="&#x20a0;" horiz-adv-x="753" 
d="M45 437q0 73 26.5 128.5t75 86t112.5 30.5q70 0 117 -39.5t59 -108.5h-64q-8 42 -38 65.5t-74 23.5q-71 0 -110.5 -48.5t-39.5 -137.5t51.5 -135t150.5 -46h46v196h351v-56h-287v-141h259v-55h-259v-143h287v-57h-351v198h-46q-123 0 -194.5 64t-71.5 175z" />
    <glyph glyph-name="colonmonetary" unicode="&#x20a1;" horiz-adv-x="655" 
d="M45 335q0 102 35 178t98.5 119t148.5 44l32 101h55l-32 -104q55 -8 100 -32l43 136h55l-52 -166q36 -31 57 -72.5t25 -91.5h-64q-3 59 -37 100l-155 -495q84 6 135.5 51t56.5 119h64q-6 -69 -42 -120.5t-96 -80t-136 -29.5l-23 -72h-55l24 76q-54 9 -99 38l-36 -114h-54
l46 150q-44 45 -69 112.5t-25 152.5zM109 335q0 -124 51 -198l149 478q-95 -8 -147.5 -81t-52.5 -199zM201 93q42 -32 99 -39l165 530q-43 25 -101 31z" />
    <glyph glyph-name="uni20A2" unicode="&#x20a2;" horiz-adv-x="655" 
d="M45 335q0 103 36 179.5t100.5 119t151.5 42.5q78 0 138.5 -28.5t97 -79.5t41.5 -118h-64q-4 77 -61.5 121.5t-151.5 44.5q-106 0 -165 -73.5t-59 -207.5q0 -135 59 -209t165 -74h6v314h60v-73q25 40 64.5 61.5t81.5 21.5h22v-64h-22q-62 0 -104 -38t-42 -100v-116
q65 15 104 56.5t43 104.5h64q-6 -69 -42.5 -120t-97 -79t-137.5 -28q-86 0 -151 43t-101 120t-36 180z" />
    <glyph glyph-name="franc" unicode="&#x20a3;" horiz-adv-x="600" 
d="M556 666v-60h-381v-217h352v-59h-352v-136h223v-57h-223v-137h-64v137h-96v57h96v472h445z" />
    <glyph glyph-name="lira" unicode="&#x20a4;" horiz-adv-x="544" 
d="M36 259h104v86h-104v53h104v76q0 60 22.5 105.5t63 70.5t93.5 25q76 0 126.5 -45t56.5 -118h-63q-6 49 -37 76t-82 27q-56 0 -86.5 -37t-30.5 -104v-76h222v-53h-222v-86h222v-52h-222q-3 -43 -25.5 -84t-75.5 -64h407v-59h-473v65q52 22 75 61.5t28 80.5h-103v52z" />
    <glyph glyph-name="uni20A5" unicode="&#x20a5;" horiz-adv-x="846" 
d="M55 512h64v-77q27 42 69.5 65t86.5 23q53 0 94 -23.5t64 -69.5l94 236h71l-64 -161q37 18 77 18q78 0 129 -50.5t51 -145.5v-327h-63v314q0 77 -36 112.5t-97 35.5q-53 0 -92 -33l-49 -121v-308h-63v150l-106 -265h-70l176 441q-3 71 -38.5 103.5t-93.5 32.5
q-60 0 -100 -40t-40 -101v-321h-64v512z" />
    <glyph glyph-name="uni20A6" unicode="&#x20a6;" horiz-adv-x="682" 
d="M677 263v-56h-76v-207h-68l-137 207h-251v-207h-64v207h-76v56h76v144h-76v56h76v203h84l134 -203h240v203h62v-203h76v-56h-76v-144h76zM145 587v-124h81zM145 263h214l-95 144h-119v-144zM430 263h109v144h-203zM539 97v110h-72z" />
    <glyph glyph-name="peseta" unicode="&#x20a7;" horiz-adv-x="1241" 
d="M323 251h-204v-251h-64v666h262q82 0 137.5 -41.5t72.5 -112.5h77v133h63v-133h97v-58h-97v-298q0 -50 20.5 -72.5t66.5 -22.5h264q53 0 84 20t31 54q0 73 -109 88l-80 11q-82 11 -121 45t-39 96q0 68 52.5 107.5t143.5 39.5q88 0 142 -44t62 -120h-64q-9 55 -43 81
t-98 26q-60 0 -96 -24t-36 -64q0 -35 24 -54t81 -26l80 -10q84 -11 124.5 -48t40.5 -105q0 -61 -47 -97.5t-125 -36.5h-275q-69 0 -107.5 39t-38.5 109v306h-71q-1 -59 -26.5 -105t-72 -72t-111.5 -26zM311 606h-192v-296h192q73 0 114.5 38.5t41.5 106.5q0 72 -41 111.5
t-115 39.5z" />
    <glyph glyph-name="uni20A8" unicode="&#x20a8;" horiz-adv-x="1026" 
d="M283 280h-164v-280h-64v666h274q92 0 148 -53t56 -141q0 -64 -36.5 -109t-99.5 -61q57 -9 83.5 -43t34.5 -102l18 -157h-62l-18 149q-8 69 -47.5 100t-122.5 31zM321 607h-202v-269h202q69 0 107.5 34.5t38.5 96.5q0 65 -38.5 101.5t-107.5 36.5zM809 222l-80 11
q-78 10 -119 43t-41 98q0 68 52.5 108t143.5 40q88 0 142 -44t62 -120h-64q-9 55 -43 81t-98 26q-60 0 -96 -24t-36 -64q0 -39 26.5 -57t78.5 -24l80 -10q165 -20 165 -153q0 -65 -53.5 -103.5t-140.5 -38.5q-99 0 -157.5 45t-66.5 118h67q18 -106 158 -106q58 0 94 23
t36 61q0 77 -110 90z" />
    <glyph glyph-name="uni20A9" unicode="&#x20a9;" horiz-adv-x="985" 
d="M34 666h70l55 -203h228l68 203h74l65 -203h230l57 203h70l-60 -203h89v-56h-106l-43 -144h149v-56h-166l-62 -207h-70l-67 207h-249l-69 -207h-71l-60 207h-161v56h145l-41 144h-104v56h87zM491 585l-40 -122h80zM212 263h108l48 144h-194zM384 263h213l-47 144h-118z
M660 263h108l41 144h-196zM261 84l41 123h-74zM718 84l34 123h-74z" />
    <glyph glyph-name="uni20AA" unicode="&#x20aa;" horiz-adv-x="657" 
d="M279 57h144q62 0 90.5 29.5t28.5 93.5v332h60v-338q0 -82 -41.5 -128t-124.5 -46h-219v368h62v-311zM116 455v-455h-61v512h219q83 0 124.5 -46t41.5 -127v-195h-60v189q0 63 -29 92.5t-90 29.5h-145z" />
    <glyph glyph-name="dong" unicode="&#x20ab;" horiz-adv-x="547" 
d="M255 647h120v70h63v-70h86v-53h-86v-523h-63v75q-23 -40 -59.5 -62t-82.5 -22q-56 0 -98.5 28.5t-66 80.5t-23.5 121t23.5 120.5t66 80t98.5 28.5q46 0 82.5 -22t59.5 -61v156h-120v53zM111 292q0 -81 35 -125.5t97 -44.5q63 0 97.5 44.5t34.5 125.5q0 80 -34.5 124.5
t-97.5 44.5q-62 0 -97 -44.5t-35 -124.5zM62 2h439v-57h-439v57z" />
    <glyph glyph-name="Euro" unicode="&#x20ac;" horiz-adv-x="695" 
d="M85 335q0 35 4 68h-84v52h94q28 102 99 161.5t173 59.5q78 0 139 -28.5t98 -80t42 -120.5h-66q-4 77 -61.5 122.5t-151.5 45.5q-77 0 -130 -41.5t-75 -118.5h255v-52h-266q-4 -32 -4 -68q0 -37 4 -69h266v-53h-255q23 -77 75.5 -118.5t129.5 -41.5q93 0 150.5 45.5
t62.5 123.5h66q-7 -70 -44 -121.5t-97.5 -80t-137.5 -28.5q-101 0 -172.5 59.5t-98.5 161.5h-95v53h84q-4 33 -4 69z" />
    <glyph glyph-name="uni20AD" unicode="&#x20ad;" horiz-adv-x="543" 
d="M0 364h76v302h64v-299l282 299h88l-286 -302h211v-56h-216l279 -308h-90l-268 304v-304h-64v308h-76v56z" />
    <glyph glyph-name="uni20AE" unicode="&#x20ae;" horiz-adv-x="537" 
d="M454 316v-61l-153 -46v-209h-63v190l-146 -44v61l146 44v95l-146 -44v61l146 44v198h-203v61h468v-61h-202v-179l153 46v-61l-153 -46v-95z" />
    <glyph glyph-name="uni20AF" unicode="&#x20af;" horiz-adv-x="1196" 
d="M35 59h82l92 527q-67 -15 -123 -39v62q27 13 62 24.5t72 18.5l12 65h63l-9 -54q30 3 57 3q88 0 153 -36.5t100.5 -103t35.5 -156.5q0 -110 -45 -193.5t-125 -130t-185 -46.5h-242v59zM343 603q-31 0 -69 -5l-93 -539h76q96 0 165 37.5t106.5 107.5t37.5 167
q0 111 -58.5 171.5t-164.5 60.5zM1151 311q0 -67 -20.5 -125t-56.5 -101.5t-83 -68t-102 -24.5q-65 0 -110 28t-65 81l-47 -268h-64l75 425q14 81 52.5 140t94.5 91.5t123 32.5q94 0 148.5 -56.5t54.5 -154.5zM875 52q61 0 108.5 34t74.5 94t27 137q0 66 -37.5 105.5
t-101.5 39.5q-61 0 -108.5 -34t-74.5 -94t-27 -137q0 -67 38 -106t101 -39z" />
    <glyph glyph-name="uni20B0" unicode="&#x20b0;" horiz-adv-x="526" 
d="M473 528q0 -26 -2.5 -49t-9 -51t-20.5 -68l-41 -88q49 -67 70.5 -117.5t21.5 -105.5q0 -96 -54.5 -148t-154.5 -52v59q72 0 110.5 36t38.5 102q0 40 -15 77.5t-46 83.5l-96 -209h-63l-61 174l-57 -172h-61l92 249h50l66 -187l90 201q-57 74 -83.5 142t-26.5 123
q0 66 33 107.5t87 41.5q59 0 95.5 -39.5t36.5 -109.5zM384 380q16 49 22 82t6 66q0 41 -20 65t-48 24q-29 0 -44.5 -24.5t-15.5 -69.5q0 -46 16 -94t59 -103z" />
    <glyph glyph-name="uni20B1" unicode="&#x20b1;" horiz-adv-x="638" 
d="M5 390h69v85h-69v52h69v139h262q78 0 133 -37t79 -102h85v-52h-73q3 -20 3 -40q0 -24 -3 -45h73v-52h-88q-24 -59 -76 -94t-126 -35h-206v-209h-63v338h-69v52zM330 608h-193v-81h343q-41 81 -150 81zM499 435q0 21 -3 40h-359v-85h357q5 21 5 45zM137 266h193
q102 0 145 72h-338v-72z" />
    <glyph glyph-name="uni20B2" unicode="&#x20b2;" horiz-adv-x="665" 
d="M45 335q0 103 36 179.5t100 119t151 42.5q39 0 74 -8l34 109h56l-39 -124q66 -27 107 -80t46 -125h-66q-2 52 -29.5 90t-75.5 57l-78 -251h249v-344h-48l-7 170q-29 -81 -88.5 -129.5t-137.5 -48.5q-39 0 -75 10l-25 -82h-55l31 100q-74 38 -117 120t-43 195zM111 335
q0 -94 29 -159t84 -96l164 530q-26 5 -56 5q-105 0 -163 -73.5t-58 -206.5zM332 53q87 0 141 63.5t61 170.5h-191l-71 -227q28 -7 60 -7z" />
    <glyph glyph-name="uni20B3" unicode="&#x20b3;" horiz-adv-x="635" 
d="M45 241h79l43 116h-122v54h143l95 255h71l95 -255h136v-54h-116l43 -116h73v-55h-52l69 -186h-70l-68 186h-292l-67 -186h-71l70 186h-59v55zM317 589l-64 -178h129zM192 241h252l-43 116h-168z" />
    <glyph glyph-name="uni20B4" unicode="&#x20b4;" horiz-adv-x="590" 
d="M5 290h83q52 52 170 66l71 10q31 4 55 11h-379v52h457q15 23 15 54q0 59 -47.5 95t-125.5 36q-82 0 -125.5 -30.5t-54.5 -94.5h-65q9 87 74 136.5t170 49.5q110 0 173.5 -52t63.5 -141q0 -29 -9 -53h54v-52h-88q-51 -49 -162 -62l-71 -9q-41 -5 -71 -16h392v-52h-459
q-16 -25 -16 -60q0 -58 47 -92t123 -34q89 0 137.5 30.5t60.5 94.5h67q-10 -84 -79 -134.5t-185 -50.5q-71 0 -123.5 23t-82 65t-29.5 98q0 33 10 60h-51v52z" />
    <glyph glyph-name="uni20B5" unicode="&#x20b5;" horiz-adv-x="655" 
d="M45 335q0 97 32.5 171t91 118t136.5 51v94h53v-94q71 -5 126 -34.5t88 -79t38 -114.5h-66q-3 72 -53 116t-133 51v-560q82 7 132 51.5t54 116.5h66q-6 -66 -39 -116t-88 -79t-125 -34v-117h-53v117q-78 7 -136.5 51t-91 118.5t-32.5 172.5zM111 335q0 -125 51 -198
t143 -82v558q-92 -9 -143 -81.5t-51 -196.5z" />
    <glyph glyph-name="uni20B6" unicode="&#x20b6;" horiz-adv-x="569" 
d="M35 512h104v133h64v-133h172v133h63v-133h97v-58h-97v-320q0 -46 16 -61t40 -15h41v-58h-45q-29 0 -55 12t-43 39.5t-17 74.5v328h-172v-454h-64v454h-104v58z" />
    <glyph glyph-name="uni20B7" unicode="&#x20b7;" horiz-adv-x="631" 
d="M373 300l-80 10q-200 25 -200 172q0 89 63.5 141t172.5 52q105 0 170 -54.5t75 -150.5h-65q-12 74 -56 109t-125 35q-78 0 -125 -35.5t-47 -93.5q0 -46 34.5 -73t109.5 -37l79 -11q105 -15 156 -60.5t51 -125.5q0 -58 -33 -101t-92 -65v-93h-49v80q-35 -7 -74 -7h-14v-73
h-48v76q-47 5 -87 18v-94h-48v113q-45 23 -70.5 57t-25.5 77q0 33 20 54.5t49 21.5q46 0 65 -49q11 22 28.5 35.5t38.5 13.5q47 0 67 -48q12 21 30 34.5t40 13.5q36 0 57 -29t21 -78v-60q64 35 64 102q0 103 -152 123zM141 124q0 70 -27 70q-9 0 -15 -8t-6 -20q0 -49 48 -79
v37zM412 124q0 70 -40 70q-21 0 -34.5 -18.5t-13.5 -45.5v-82q7 -1 14 -1q40 0 74 9v68zM276 124q0 70 -41 70q-20 0 -33 -18t-13 -46v-64q37 -12 87 -16v74z" />
    <glyph glyph-name="uni20B8" unicode="&#x20b8;" horiz-adv-x="537" 
d="M35 607v59h468v-59h-468zM503 492v-61h-202v-431h-63v431h-203v61h468z" />
    <glyph glyph-name="uni20B9" unicode="&#x20b9;" horiz-adv-x="507" 
d="M126 278h-82v57h120q61 0 98.5 28t45.5 79h-264v52h264q-7 54 -45.5 84t-101.5 30h-117v58h417v-58h-153q56 -42 66 -114h87v-52h-88q-7 -54 -42 -91t-91 -50q57 -10 83.5 -44t34.5 -102l18 -155h-63l-17 149q-8 69 -47.5 99t-122.5 30z" />
    <glyph glyph-name="uni20BA" unicode="&#x20ba;" horiz-adv-x="619" 
d="M243 61q123 0 190.5 69.5t72.5 201.5h66q-11 -159 -94.5 -245.5t-225.5 -86.5h-97v251l-132 -40v61l132 40v95l-132 -40v61l132 40v198h63v-179l167 50v-61l-167 -50v-95l167 50v-61l-167 -50v-209h25z" />
    <glyph glyph-name="uni20BB" unicode="&#x20bb;" horiz-adv-x="688" 
d="M554 29q-48 -20 -85 -28.5t-74 -8.5q-82 0 -130 46t-50 125q-64 -20 -155 -20v54q89 0 155 22v228h-22q-75 0 -117 30.5t-42 86.5q0 51 31 82t83 31q56 0 90.5 -40t34.5 -106v-26h205q83 0 129.5 -43.5t46.5 -120.5q0 -61 -30.5 -96t-68.5 -35q-59 0 -85 49
q-22 -49 -66 -49t-64 46q-22 -42 -67 -68v-11q0 -59 32.5 -91.5t90.5 -32.5q36 0 77.5 10.5t80.5 29.5v-64zM216 504v27q0 41 -20.5 66.5t-53.5 25.5q-22 0 -36 -15.5t-14 -38.5q0 -32 25.5 -48.5t73.5 -16.5h25zM545 261q24 0 37.5 22t13.5 60q0 49 -30 76.5t-83 27.5h-210
v-201q50 34 50 81h43q0 -30 10 -48.5t27 -18.5q23 0 37.5 19t14.5 48h43q0 -66 47 -66z" />
    <glyph glyph-name="uni20BC" unicode="&#x20bc;" horiz-adv-x="661" 
d="M611 0h-62v250q0 88 -49 140t-139 60v-450h-62v450q-88 -8 -137 -60t-49 -140v-250h-63v250q0 74 31 130.5t87 91t131 40.5v154h62v-154q76 -6 132 -40t87 -91t31 -131v-250z" />
    <glyph glyph-name="uni20BD" unicode="&#x20bd;" horiz-adv-x="614" 
d="M15 194h96v98h-96v59h96v315h263q92 0 148.5 -52t56.5 -138q0 -53 -24 -94.5t-68.5 -65.5t-106.5 -24h-205v-98h223v-57h-223v-137h-64v137h-96v57zM368 607h-193v-256h193q68 0 106.5 33t38.5 92q0 62 -38 96.5t-107 34.5z" />
    <glyph glyph-name="uni20BE" unicode="&#x20be;" horiz-adv-x="655" 
d="M36 59h153q-67 41 -105 114.5t-38 170.5q0 119 51 202.5t138 113.5v108h55v-95q20 3 42 3q26 0 51 -4v96h54v-110q75 -27 121.5 -91t52.5 -153h-65q-2 64 -31 110.5t-78 69.5v-180h-54v198q-25 4 -51 4q-22 0 -42 -3v-199h-55v183q-60 -28 -92.5 -93t-32.5 -162
q0 -135 77 -209t216 -74h211v-59h-578v59z" />
    <glyph glyph-name="uni20BF" unicode="&#x20bf;" horiz-adv-x="603" 
d="M162 768h58v-102h85v102h59v-102q75 -2 121.5 -48.5t46.5 -121.5q0 -52 -24 -92t-67 -60q57 -20 89.5 -64.5t32.5 -104.5q0 -79 -50 -127t-132 -48h-17v-123h-59v123h-85v-123h-58v123h-107v666h107v102zM351 607h-232v-237h232q54 0 84.5 32.5t30.5 90.5q0 54 -30.5 84
t-84.5 30zM353 311h-234v-253h253q59 0 92 32t33 88q0 62 -38 97.5t-106 35.5z" />
    <glyph glyph-name="arrowleft" unicode="&#x2190;" horiz-adv-x="798" 
d="M45 346l195 194l39 -39l-126 -126l601 1v-59h-601l126 -127l-39 -38z" />
    <glyph glyph-name="arrowup" unicode="&#x2191;" horiz-adv-x="479" 
d="M240 700l194 -195l-39 -39l-126 127l1 -602h-60v600l-126 -125l-39 39z" />
    <glyph glyph-name="arrowright" unicode="&#x2192;" horiz-adv-x="798" 
d="M754 345l-195 -193l-40 38l128 126l-602 -1v60h600l-126 126l40 39z" />
    <glyph glyph-name="arrowdown" unicode="&#x2193;" horiz-adv-x="479" 
d="M240 -9l-195 195l39 40l126 -127l-1 601h60v-601l126 127l39 -40z" />
    <glyph glyph-name="arrowboth" unicode="&#x2194;" horiz-adv-x="798" 
d="M45 346l195 194l39 -39l-126 -126h492l-126 126l40 39l195 -195l-195 -193l-40 38l128 127h-494l126 -127l-39 -38z" />
    <glyph glyph-name="arrowupdn" unicode="&#x2195;" horiz-adv-x="479" 
d="M240 -9l-195 195l39 40l126 -127v492l-126 -125l-39 39l195 195l194 -195l-39 -39l-126 127v-494l126 127l39 -40z" />
    <glyph glyph-name="uni2196" unicode="&#x2196;" horiz-adv-x="612" 
d="M45 606h274v-55h-177l424 -423l-42 -43l-424 424v-177h-55v274z" />
    <glyph glyph-name="uni2197" unicode="&#x2197;" horiz-adv-x="612" 
d="M566 606v-274h-55v177l-423 -424l-43 42l424 424h-177v55h274z" />
    <glyph glyph-name="uni2198" unicode="&#x2198;" horiz-adv-x="612" 
d="M566 85h-274v55h177l-424 423l42 43l424 -424v177h55v-274z" />
    <glyph glyph-name="uni2199" unicode="&#x2199;" horiz-adv-x="612" 
d="M45 85v274h55v-177l424 424l42 -42l-424 -424h177v-55h-274z" />
    <glyph glyph-name="uni219A" unicode="&#x219a;" horiz-adv-x="798" 
d="M45 346l195 194l39 -39l-126 -126l316 1l73 221h59l-73 -221h226v-59h-245l-80 -242h-59l80 242h-297l126 -127l-39 -38z" />
    <glyph glyph-name="uni219B" unicode="&#x219b;" horiz-adv-x="798" 
d="M373 597h59l-73 -222h286l-126 126l40 39l195 -195l-195 -193l-40 38l128 126h-308l-79 -241h-59l79 240h-235v60h255z" />
    <glyph glyph-name="uni219C" unicode="&#x219c;" horiz-adv-x="839" 
d="M161 486l246 -115l-23 -50l-166 78q18 -111 43.5 -160t80.5 -49q41 0 70.5 23.5t60.5 52.5q21 19 44.5 38t52.5 32t68 13q71 0 113.5 -55.5t42.5 -152.5h-52q0 70 -28 112.5t-73 42.5q-42 0 -74 -26t-67 -55q-22 -18 -43.5 -36t-49 -30t-65.5 -12q-75 0 -113 58t-60 181
l-74 -161l-50 25z" />
    <glyph glyph-name="uni219D" unicode="&#x219d;" horiz-adv-x="839" 
d="M201 349q39 0 68 -13t52.5 -32t45.5 -38q30 -29 60 -52.5t71 -23.5q54 0 79.5 49.5t43.5 159.5l-166 -78l-23 50l246 115l116 -246l-49 -25l-75 159q-22 -122 -60 -179.5t-113 -57.5q-38 0 -65 12t-49 30t-43 36q-36 29 -68 55t-74 26q-45 0 -73 -42.5t-28 -112.5h-52
q0 97 42.5 152.5t113.5 55.5z" />
    <glyph glyph-name="uni219E" unicode="&#x219e;" horiz-adv-x="798" 
d="M45 346l195 194l39 -39l-126 -126h100l166 165l38 -39l-125 -125h422v-59h-423l126 -127l-38 -38l-166 165h-100l126 -127l-39 -38z" />
    <glyph glyph-name="uni219F" unicode="&#x219f;" horiz-adv-x="479" 
d="M240 699l194 -194l-40 -40l-125 128v-101l165 -166l-40 -39l-125 127l1 -423h-60v422l-126 -126l-39 39l165 164v101l-126 -126l-39 40z" />
    <glyph glyph-name="uni21A0" unicode="&#x21a0;" horiz-adv-x="798" 
d="M754 345l-195 -193l-40 38l128 126h-101l-166 -164l-39 38l127 126l-423 -1v60h422l-126 126l39 39l165 -165h100l-126 126l40 39z" />
    <glyph glyph-name="uni21A1" unicode="&#x21a1;" horiz-adv-x="479" 
d="M239 -9l-194 194l39 40l126 -127v101l-165 165l39 39l126 -126l-1 422h60v-422l125 126l40 -39l-165 -165v-101l125 127l40 -40z" />
    <glyph glyph-name="uni21A2" unicode="&#x21a2;" horiz-adv-x="798" 
d="M45 346l195 194l39 -39l-126 -126l397 1l165 164l39 -39l-156 -155l156 -156l-39 -38l-166 165h-396l126 -127l-39 -38z" />
    <glyph glyph-name="uni21A3" unicode="&#x21a3;" horiz-adv-x="798" 
d="M754 345l-195 -193l-40 38l128 126l-399 -1l-164 -163l-39 38l156 155l-156 156l39 39l165 -165h396l-126 126l40 39z" />
    <glyph glyph-name="uni21A4" unicode="&#x21a4;" horiz-adv-x="798" 
d="M45 346l195 194l39 -39l-126 -126l542 1v164h59v-388h-59v165h-542l126 -127l-39 -38z" />
    <glyph glyph-name="uni21A5" unicode="&#x21a5;" horiz-adv-x="480" 
d="M435 49v-58h-390v58h166v543l-127 -127l-39 40l195 194l195 -194l-40 -40l-126 128l1 -544h165z" />
    <glyph glyph-name="uni21A6" unicode="&#x21a6;" horiz-adv-x="798" 
d="M103 152h-58v388h58v-165h542l-126 126l40 39l195 -195l-195 -193l-40 38l128 126l-544 -1v-163z" />
    <glyph glyph-name="uni21A7" unicode="&#x21a7;" horiz-adv-x="480" 
d="M240 -9l-195 194l39 40l127 -127l-2 543h-164v58h390v-58h-166v-544l126 128l40 -40z" />
    <glyph glyph-name="arrowupdnbse" unicode="&#x21a8;" horiz-adv-x="479" 
d="M240 700l194 -195l-40 -39l-125 127v-493l125 126l40 -40l-138 -137h139v-58h-390v58h137l-137 137l39 40l126 -127v493l-126 -126l-39 39z" />
    <glyph glyph-name="uni21AE" unicode="&#x21ae;" horiz-adv-x="798" 
d="M45 346l193 193l38 -40l-123 -124h227l70 222h55l-70 -222h210l-123 123l39 40l193 -193l-193 -191l-39 39l125 124h-231l-77 -242h-55l77 242h-208l123 -124l-38 -39z" />
    <glyph glyph-name="uni21B0" unicode="&#x21b0;" horiz-adv-x="460" 
d="M414 536l-174 -174l-38 39l107 106l-207 -1v-471h-57v530h263l-106 106l38 39z" />
    <glyph glyph-name="uni21B1" unicode="&#x21b1;" horiz-adv-x="460" 
d="M45 536l174 174l40 -39l-107 -106h262v-530h-56v471l-206 1l107 -106l-40 -39z" />
    <glyph glyph-name="uni21B2" unicode="&#x21b2;" horiz-adv-x="460" 
d="M45 205l174 174l40 -40l-108 -106l207 1v472h56v-531h-261l106 -105l-40 -39z" />
    <glyph glyph-name="uni21B3" unicode="&#x21b3;" horiz-adv-x="460" 
d="M414 205l-174 -174l-38 39l106 105h-263v531h57v-472l207 -1l-107 106l38 40z" />
    <glyph glyph-name="uni21B4" unicode="&#x21b4;" horiz-adv-x="785" 
d="M545 66l-194 195l39 39l126 -127v316h-471v57h529v-373l126 127l40 -39z" />
    <glyph glyph-name="carriagereturn" unicode="&#x21b5;" horiz-adv-x="570" 
d="M45 205l195 194l39 -39l-128 -127l317 1v472h57v-531h-372l126 -125l-39 -40z" />
    <glyph glyph-name="uni21B6" unicode="&#x21b6;" horiz-adv-x="887" 
d="M240 48l-195 195l39 39l127 -127l-1 104q0 94 39 165t108.5 111t161.5 40q68 0 126.5 -24.5t103 -68.5t69.5 -102t25 -125h-62q0 72 -35.5 131t-95.5 94t-133 35q-74 0 -130.5 -32t-87.5 -90t-31 -134v-105l127 128l39 -39z" />
    <glyph glyph-name="uni21B7" unicode="&#x21b7;" horiz-adv-x="887" 
d="M106 255h-61q0 67 25 125t69.5 102t103 68.5t126.5 24.5q92 0 161.5 -40t108.5 -111t39 -165l-1 -104l127 127l39 -39l-194 -195l-195 195l40 39l126 -128v105q0 76 -31 134t-87.5 90t-130.5 32q-73 0 -133 -35t-96 -94t-36 -131z" />
    <glyph glyph-name="uni21BA" unicode="&#x21ba;" horiz-adv-x="844" 
d="M357 97q77 0 135 32.5t91 90t33 133.5q0 86 -59 155l-72 -154l-51 23l117 250l249 -117l-24 -50l-165 78q67 -81 67 -184q0 -93 -41.5 -165t-114 -113.5t-165.5 -41.5q-91 0 -161.5 39.5t-110.5 108.5t-40 159q0 63 23.5 115.5t74.5 103.5l45 -41q-42 -43 -61.5 -85
t-19.5 -93q0 -73 31 -128t87.5 -85.5t131.5 -30.5z" />
    <glyph glyph-name="uni21BB" unicode="&#x21bb;" horiz-adv-x="844" 
d="M487 97q75 0 131.5 30.5t87.5 85.5t31 128q0 51 -19 93t-61 85l44 41q51 -51 75 -103.5t24 -115.5q0 -90 -40.5 -159t-111 -108.5t-161.5 -39.5q-93 0 -165 41.5t-113.5 113.5t-41.5 165q0 103 67 184l-165 -78l-24 50l249 117l116 -250l-51 -23l-71 153
q-59 -68 -59 -154q0 -76 32.5 -133.5t91 -90t134.5 -32.5z" />
    <glyph glyph-name="uni21BC" unicode="&#x21bc;" horiz-adv-x="798" 
d="M150 374h604v-59l-709 2v32l154 154l39 -40z" />
    <glyph glyph-name="uni21BD" unicode="&#x21bd;" horiz-adv-x="798" 
d="M45 341v33l709 1v-58h-604l88 -89l-39 -40z" />
    <glyph glyph-name="uni21BE" unicode="&#x21be;" horiz-adv-x="278" 
d="M104 607v-604h-59l2 709h34l152 -154l-40 -40z" />
    <glyph glyph-name="uni21BF" unicode="&#x21bf;" horiz-adv-x="278" 
d="M174 607l-89 -89l-40 40l154 154h32l2 -709h-59v604z" />
    <glyph glyph-name="uni21C0" unicode="&#x21c0;" horiz-adv-x="798" 
d="M754 349v-32l-709 -2v59h604l-89 89l40 40z" />
    <glyph glyph-name="uni21C1" unicode="&#x21c1;" horiz-adv-x="798" 
d="M754 341l-154 -153l-40 40l89 89h-604v58l709 -1v-33z" />
    <glyph glyph-name="uni21C2" unicode="&#x21c2;" horiz-adv-x="278" 
d="M104 107l89 89l40 -40l-152 -153h-34l-2 709h59v-605z" />
    <glyph glyph-name="uni21C3" unicode="&#x21c3;" horiz-adv-x="278" 
d="M174 107v605h59l-2 -709h-32l-154 153l40 40z" />
    <glyph glyph-name="uni21C4" unicode="&#x21c4;" horiz-adv-x="798" 
d="M754 462l-155 -154l-39 38l88 87l-603 -1v58h603l-88 87l39 39zM45 204l155 153l38 -39l-88 -87l604 1v-58h-603l87 -87l-38 -38z" />
    <glyph glyph-name="uni21C5" unicode="&#x21c5;" horiz-adv-x="797" 
d="M270 687l153 -155l-37 -38l-89 88l1 -604h-57v603l-88 -87l-38 38zM528 -22l-154 154l38 39l87 -87v603h57v-604l89 88l37 -39z" />
    <glyph glyph-name="uni21C6" unicode="&#x21c6;" horiz-adv-x="798" 
d="M45 462l155 154l38 -39l-88 -87h604v-58l-604 1l88 -87l-38 -38zM754 204l-155 -155l-39 38l88 87h-603v58l604 -1l-89 87l39 39z" />
    <glyph glyph-name="uni21C7" unicode="&#x21c7;" horiz-adv-x="798" 
d="M45 493l154 153l37 -39l-86 -85h604v-57h-604l86 -86l-37 -38zM45 179l154 152l37 -38l-86 -86l604 1v-58h-604l86 -85l-37 -39z" />
    <glyph glyph-name="uni21C8" unicode="&#x21c8;" horiz-adv-x="709" 
d="M513 690l151 -153l-38 -38l-86 87l1 -604h-58v603l-85 -86l-39 38zM199 690l151 -153l-38 -38l-86 87l1 -604h-58v603l-85 -86l-39 38z" />
    <glyph glyph-name="uni21C9" unicode="&#x21c9;" horiz-adv-x="798" 
d="M754 492l-154 -151l-38 38l87 86l-604 -1v58h603l-86 85l38 39zM754 178l-154 -152l-38 39l87 85h-604v57h603l-86 86l38 38z" />
    <glyph glyph-name="uni21CA" unicode="&#x21ca;" horiz-adv-x="709" 
d="M198 -18l-153 153l39 38l85 -86l-1 603h58v-603l86 86l38 -38zM512 -18l-153 153l39 38l85 -86v603h57v-603l86 86l38 -38z" />
    <glyph glyph-name="uni21CB" unicode="&#x21cb;" horiz-adv-x="798" 
d="M150 457h604v-59l-709 1v33l154 154l39 -41zM649 213h-604v59l709 -1v-33l-154 -153l-40 40z" />
    <glyph glyph-name="uni21CC" unicode="&#x21cc;" horiz-adv-x="798" 
d="M649 457l-89 88l40 41l154 -154v-33l-709 -1v59h604zM150 213l88 -88l-39 -40l-154 153v33l709 1v-59h-604z" />
    <glyph glyph-name="uni21CD" unicode="&#x21cd;" horiz-adv-x="798" 
d="M45 346l196 195l38 -38l-58 -58h271l50 152h59l-50 -152l203 1v-56h-221l-29 -89l249 1v-56h-268l-56 -171h-59l56 171h-205l58 -58l-38 -37zM122 346l45 -45h278l29 89h-308z" />
    <glyph glyph-name="uni21CE" unicode="&#x21ce;" horiz-adv-x="798" 
d="M45 346l194 193l37 -38l-56 -56h182l48 152h55l-48 -152h120l-55 56l38 38l194 -194l-194 -192l-38 37l56 56h-184l-55 -171h-54l54 171h-119l56 -56l-37 -37zM122 346l45 -45h189l29 89h-219zM677 345l-45 45h-193l-28 -89l223 1z" />
    <glyph glyph-name="uni21CF" unicode="&#x21cf;" horiz-adv-x="798" 
d="M373 597h59l-50 -152h195l-58 58l39 38l196 -196l-196 -194l-39 37l59 58h-262l-56 -171h-59l56 171l-212 -1v56h230l30 89l-259 -1v56h277zM677 345l-45 45h-268l-30 -89h298z" />
    <glyph glyph-name="arrowdblleft" unicode="&#x21d0;" horiz-adv-x="798" 
d="M45 346l196 195l38 -38l-58 -58l533 1v-56h-588l-44 -44l45 -45l586 1v-56h-532l58 -58l-38 -37z" />
    <glyph glyph-name="arrowdblup" unicode="&#x21d1;" horiz-adv-x="481" 
d="M241 700l194 -196l-38 -38l-57 58l1 -532h-55v587l-45 44l-46 -46l1 -585h-55v531l-57 -57l-39 38z" />
    <glyph glyph-name="arrowdblright" unicode="&#x21d2;" horiz-adv-x="798" 
d="M754 345l-196 -194l-39 37l59 58l-533 -1v56h587l45 44l-45 45l-586 -1v56h531l-58 58l39 38z" />
    <glyph glyph-name="arrowdbldown" unicode="&#x21d3;" horiz-adv-x="481" 
d="M240 -8l-195 196l39 39l57 -58l-1 531h55v-586l45 -45l45 45v586h55v-531l57 58l38 -39z" />
    <glyph glyph-name="arrowdblboth" unicode="&#x21d4;" horiz-adv-x="798" 
d="M45 346l196 195l38 -38l-58 -58h356l-58 58l39 38l196 -196l-196 -194l-39 37l59 58h-357l58 -58l-38 -37zM122 346l45 -45l466 1l44 43l-45 45h-466z" />
    <glyph glyph-name="uni21D5" unicode="&#x21d5;" horiz-adv-x="481" 
d="M240 -9l-195 196l39 39l57 -58v355l-57 -57l-39 38l196 196l194 -196l-38 -38l-57 58l1 -355l56 57l38 -39zM241 623l-46 -46l1 -464l44 -45l46 46v465z" />
    <glyph glyph-name="uni21D6" unicode="&#x21d6;" horiz-adv-x="661" 
d="M45 599h276v-54h-82l377 -376l-38 -39l-416 415h-63v-64l416 -413l-40 -40l-376 376v-81h-54v276z" />
    <glyph glyph-name="uni21D7" unicode="&#x21d7;" horiz-adv-x="661" 
d="M616 599v-276h-54v83l-376 -378l-39 38l415 417v62h-63l-414 -415l-40 40l376 375h-81v54h276z" />
    <glyph glyph-name="uni21D8" unicode="&#x21d8;" horiz-adv-x="661" 
d="M616 28h-276v54h83l-378 377l39 39l417 -416h61v64l-415 413l40 40l375 -375v80h54v-276z" />
    <glyph glyph-name="uni21D9" unicode="&#x21d9;" horiz-adv-x="661" 
d="M45 28v276h54v-82l377 377l39 -39l-416 -416v-62h65l413 416l39 -40l-375 -376h80v-54h-276z" />
    <glyph glyph-name="uni21DA" unicode="&#x21da;" horiz-adv-x="798" 
d="M45 346l196 195l38 -38l-36 -36h511v-53h-564l-42 -42l606 1v-53h-606l41 -42l564 1v-54h-510l36 -37l-38 -37z" />
    <glyph glyph-name="uni21DB" unicode="&#x21db;" horiz-adv-x="798" 
d="M754 345l-196 -194l-39 37l37 36h-511v54h565l41 41l-606 -1v54h605l-42 42l-562 -1v53h510l-37 37l39 38z" />
    <glyph glyph-name="uni21E4" unicode="&#x21e4;" horiz-adv-x="798" 
d="M103 152h-58v388h58v-136l137 136l39 -39l-126 -126l601 1v-59h-601l126 -127l-39 -38l-137 136v-136z" />
    <glyph glyph-name="uni21E5" unicode="&#x21e5;" horiz-adv-x="798" 
d="M695 540h59v-388h-59v135l-136 -135l-40 38l128 126l-602 -1v60h600l-126 126l40 39l136 -136v136z" />
    <glyph glyph-name="uni21E6" unicode="&#x21e6;" horiz-adv-x="798" 
d="M297 445l457 1v-200h-457v-95h-56l-196 195l196 195h56v-96zM241 464l-119 -118l119 -119v74l457 1v88h-457v74z" />
    <glyph glyph-name="uni21E7" unicode="&#x21e7;" horiz-adv-x="500" 
d="M350 449l1 -458h-200v458h-96v55l196 195l195 -195v-55h-96zM369 504l-118 119l-120 -119h73l1 -458h91v458h73z" />
    <glyph glyph-name="uni21E8" unicode="&#x21e8;" horiz-adv-x="798" 
d="M503 246l-458 -1v200h458v96h55l196 -196l-196 -194h-55v95zM558 227l119 118l-119 119v-74l-458 -1v-88h458v-74z" />
    </font>
</defs>
</svg>
