<?xml version="1.0" standalone="no"?>
<!DOCTYPE svg PUBLIC "-//W3C//DTD SVG 1.1//EN" "http://www.w3.org/Graphics/SVG/1.1/DTD/svg11.dtd" >
<svg xmlns="http://www.w3.org/2000/svg" xmlns:xlink="http://www.w3.org/1999/xlink" version="1.1">
<metadata>
Created by FontForge 20201107 at Wed Sep 27 18:27:10 2023
 By www-data
Copyright (c) 2023, Bao Nguyen (RandomMaerks) (rmforbusiness@gmail.com)
</metadata>
<defs>
<font id="OverusedGrotesk-Italic" horiz-adv-x="183" >
  <font-face 
    font-family="Overused Grotesk"
    font-weight="400"
    font-style="italic"
    font-stretch="normal"
    units-per-em="1024"
    panose-1="0 0 0 0 0 0 0 0 0 0"
    ascent="819"
    descent="-205"
    x-height="512"
    cap-height="666"
    bbox="-69 -281 1285 1093"
    underline-thickness="51"
    underline-position="-126"
    slope="-10"
    unicode-range="U+0020-277E"
  />
<missing-glyph horiz-adv-x="512" 
d="M51 -205v1024h410v-1024h-410zM102 -154h308v922h-308v-922z" />
    <glyph glyph-name=".notdef" horiz-adv-x="512" 
d="M51 -205v1024h410v-1024h-410zM102 -154h308v922h-308v-922z" />
    <glyph glyph-name=".null" horiz-adv-x="0" 
 />
    <glyph glyph-name="nonmarkingreturn" horiz-adv-x="341" 
 />
    <glyph glyph-name="space" unicode=" " horiz-adv-x="204" 
 />
    <glyph glyph-name="exclam" unicode="!" 
d="M150 156h-61l83 510h75zM137 0h-90l15 85h89z" />
    <glyph glyph-name="quotedbl" unicode="&#x22;" horiz-adv-x="314" 
d="M314 717h73l-52 -222h-60zM181 717h72l-51 -222h-60z" />
    <glyph glyph-name="numbersign" unicode="#" horiz-adv-x="713" 
d="M668 234v-63h-145l-67 -171h-78l66 171h-186l-66 -171h-79l67 171h-89v63h113l77 200h-121v63h146l65 169h79l-66 -169h186l66 169h79l-66 -169h87v-63h-111l-78 -200h121zM282 234h186l78 200h-186z" />
    <glyph glyph-name="dollar" unicode="$" horiz-adv-x="593" 
d="M407 770h53l-18 -101q83 -17 127.5 -72t44.5 -143h-77q0 121 -107 146l-41 -232l13 -2q177 -38 177 -168q0 -96 -64 -151.5t-173 -55.5h-19l-21 -116h-52l21 122q-91 16 -141.5 72.5t-50.5 143.5h79q0 -123 125 -148l42 236l-25 6q-170 38 -170 161q0 95 65 151t174 56
h21zM322 383l16 -4l40 228h-12q-70 0 -114 -35.5t-44 -91.5q0 -73 114 -97zM380 289l-5 1l-40 -231h11q68 0 111.5 35t43.5 90q0 76 -121 105z" />
    <glyph glyph-name="percent" unicode="%" horiz-adv-x="888" 
d="M111 434q0 68 25 123.5t68.5 87.5t97.5 32q68 0 109 -45.5t41 -121.5q0 -68 -25.5 -123.5t-68.5 -88t-96 -32.5q-69 0 -110 45.5t-41 122.5zM661 666h75l-391 -666h-75zM384 510q0 50 -23 77t-63 27q-34 0 -60.5 -23.5t-42 -64.5t-15.5 -93q0 -50 23 -77t64 -27
q33 0 59.5 23.5t42 64.5t15.5 93zM551 158q0 69 25.5 124t68.5 87t97 32q69 0 110 -45.5t41 -121.5q0 -68 -25.5 -123.5t-69 -88t-96.5 -32.5q-69 0 -110 46t-41 122zM825 235q0 49 -23 76t-64 27q-33 0 -60 -23.5t-42 -64t-15 -92.5q0 -50 22.5 -77.5t63.5 -27.5
q34 0 60.5 23.5t42 65t15.5 93.5z" />
    <glyph glyph-name="ampersand" unicode="&#x26;" horiz-adv-x="639" 
d="M381 674q69 0 113 -38.5t44 -96.5q0 -56 -26.5 -94.5t-67 -64t-82.5 -43.5l121 -155q43 61 66 147h76q-15 -60 -40 -111t-58 -92l99 -126h-91l-59 73q-44 -39 -97 -60t-110 -21q-88 0 -143 39t-55 107q0 69 42 119t140 98q-25 32 -43 65.5t-18 71.5q0 47 23 88.5
t65.5 67.5t100.5 26zM270 496q0 -31 16 -57.5t37 -52.5q29 14 62 34t56 48.5t23 65.5q0 34 -23 54.5t-63 20.5q-36 0 -60 -17.5t-36 -43t-12 -52.5zM151 149q0 -42 31 -66t91 -24q91 0 162 66l-145 183q-37 -17 -69 -39t-51 -51.5t-19 -68.5z" />
    <glyph glyph-name="quotesingle" unicode="'" horiz-adv-x="180" 
d="M181 717h72l-51 -222h-60z" />
    <glyph glyph-name="parenleft" unicode="(" horiz-adv-x="258" 
d="M219 -137h-76q-47 60 -65.5 169t6.5 252t82 252t125 169h76q-77 -65 -127.5 -167t-77.5 -254q-26 -152 -12 -254t69 -167z" />
    <glyph glyph-name="parenright" unicode=")" horiz-adv-x="258" 
d="M131 705h77q47 -60 65 -169t-7 -252q-26 -143 -82.5 -252t-124.5 -169h-76q77 65 127.5 167t77.5 254q26 152 11.5 254t-68.5 167z" />
    <glyph glyph-name="asterisk" unicode="*" horiz-adv-x="547" 
d="M368 719l63 -11l-42 -217l215 38l9 -65l-216 -29l99 -190l-58 -28l-93 197l-152 -154l-44 46l157 146l-192 100l30 58l189 -109z" />
    <glyph glyph-name="plus" unicode="+" horiz-adv-x="566" 
d="M375 324h214l-12 -69h-214l-38 -214h-69l37 214h-214l12 69h214l39 214h69z" />
    <glyph glyph-name="comma" unicode="," 
d="M64 94h89l-16 -94l-64 -138h-57l85 138h-54z" />
    <glyph glyph-name="hyphen" unicode="-" horiz-adv-x="482" 
d="M90 317h413l-12 -69h-413z" />
    <glyph glyph-name="period" unicode="." 
d="M64 94h89l-16 -94h-90z" />
    <glyph glyph-name="slash" unicode="/" horiz-adv-x="421" 
d="M414 666h90l-379 -666h-89z" />
    <glyph glyph-name="zero" unicode="0" horiz-adv-x="575" 
d="M93 241q0 92 22 171t61.5 138.5t92 92.5t114.5 33q100 0 156 -67.5t56 -189.5q0 -93 -21 -171t-59.5 -135.5t-90.5 -89t-114 -31.5q-103 0 -160 65t-57 184zM517 425q0 180 -140 180q-58 0 -105 -49t-74.5 -132t-27.5 -187q0 -173 145 -173q59 0 104.5 46t71.5 127.5
t26 187.5z" />
    <glyph glyph-name="one" unicode="1" horiz-adv-x="323" 
d="M311 666h75l-117 -666h-75l87 492h-160l11 64h79q40 0 63 14.5t30 54.5z" />
    <glyph glyph-name="two" unicode="2" horiz-adv-x="541" 
d="M147 69h360l-12 -69h-450l2 18q11 71 44 120.5t90 86.5t139 72q69 29 109 55.5t57 57t17 73.5q0 56 -39 89t-105 33q-50 0 -95 -32.5t-58 -90.5h-78q21 86 83.5 139t151.5 53q65 0 114 -24t76 -66.5t27 -98.5q0 -57 -22.5 -100t-70 -77.5t-122.5 -67.5
q-74 -33 -120 -59.5t-69 -53t-29 -58.5z" />
    <glyph glyph-name="three" unicode="3" horiz-adv-x="543" 
d="M280 302l12 66h70q61 0 98.5 39.5t37.5 100.5q0 47 -31.5 72.5t-89.5 25.5q-61 0 -104 -33.5t-55 -90.5h-79q22 88 87.5 140t157.5 52q88 0 140 -43.5t52 -116.5q0 -60 -33 -107.5t-89 -71.5q38 -18 58.5 -52t20.5 -81q0 -59 -32 -106.5t-88.5 -75.5t-128.5 -28
q-98 0 -153.5 50t-55.5 139h78q0 -59 34.5 -90t99.5 -31q79 0 124 42.5t45 110.5q0 43 -27.5 66t-78.5 23h-70z" />
    <glyph glyph-name="four" unicode="4" horiz-adv-x="558" 
d="M463 169l-30 -169h-74l30 169h-325l14 82l380 415h92l-76 -430h102l-12 -67h-101zM401 236l60 342l-307 -342h247z" />
    <glyph glyph-name="five" unicode="5" horiz-adv-x="543" 
d="M463 261q0 58 -33.5 89.5t-95.5 31.5q-102 0 -161 -73h-74l95 358h398l-11 -69h-330l-62 -218q71 68 175 68q82 0 130.5 -50t48.5 -136q0 -77 -34.5 -138t-93.5 -96.5t-133 -35.5q-97 0 -151.5 49t-54.5 135h78q0 -114 128 -114q82 0 131.5 54.5t49.5 144.5z" />
    <glyph glyph-name="six" unicode="6" horiz-adv-x="563" 
d="M94 234q0 133 40 232t112 154.5t166 55.5q88 0 138 -48t50 -130h-78q0 53 -29.5 82.5t-85.5 29.5q-178 0 -225 -268q-2 -12 -3 -32q31 58 86.5 92t116.5 34q81 0 130.5 -51t49.5 -135q0 -71 -33.5 -129.5t-90 -93.5t-126.5 -35q-100 0 -159 65.5t-59 176.5zM181 185
q0 -56 36 -91t94 -35q48 0 87 25.5t61.5 69t22.5 97.5q0 55 -31.5 86.5t-85.5 31.5q-52 0 -93.5 -24.5t-66 -66.5t-24.5 -93z" />
    <glyph glyph-name="seven" unicode="7" horiz-adv-x="562" 
d="M275 0h-87q27 126 65.5 215.5t84.5 155t98 118.5t106 105h-393l12 72h474l-14 -82q-63 -58 -117 -116.5t-98 -125.5t-77 -150.5t-54 -191.5z" />
    <glyph glyph-name="eight" unicode="8" horiz-adv-x="543" 
d="M439 335q93 -38 93 -138q0 -59 -32.5 -105t-89.5 -73t-128 -27q-97 0 -153 44t-56 119q0 63 40.5 112t109.5 71q-75 39 -75 130q0 58 30.5 105t82.5 74t117 27q88 0 139 -43.5t51 -117.5q0 -60 -34.5 -108t-94.5 -70zM343 368q66 0 106.5 40t40.5 105q0 45 -31.5 69.5
t-89.5 24.5q-65 0 -104.5 -40.5t-39.5 -106.5q0 -44 27.5 -68t79.5 -24h11zM330 301h-12q-76 0 -121 -40t-45 -106q0 -47 36 -71.5t103 -24.5q75 0 119.5 40t44.5 106q0 47 -32.5 71.5t-92.5 24.5z" />
    <glyph glyph-name="nine" unicode="9" horiz-adv-x="563" 
d="M586 434q0 -133 -40 -232t-111.5 -154.5t-165.5 -55.5q-88 0 -138.5 47.5t-50.5 130.5h78q0 -53 30 -82.5t85 -29.5q177 0 224 269q2 7 3 13.5t2 17.5q-32 -59 -87 -93t-116 -34q-81 0 -130.5 51.5t-49.5 135.5q0 71 33.5 129.5t90 93.5t126.5 35q100 0 158.5 -65.5
t58.5 -176.5zM500 483q0 56 -36 91t-94 35q-48 0 -87 -25.5t-61.5 -69t-22.5 -96.5q0 -56 31 -87.5t86 -31.5q51 0 93 24.5t66.5 66.5t24.5 93z" />
    <glyph glyph-name="colon" unicode=":" 
d="M135 495h89l-16 -93h-90zM64 94h89l-16 -94h-90z" />
    <glyph glyph-name="semicolon" unicode=";" 
d="M135 495h89l-16 -93h-90zM64 94h89l-16 -94l-64 -138h-57l85 138h-54z" />
    <glyph glyph-name="less" unicode="&#x3c;" horiz-adv-x="587" 
d="M646 526l-14 -81l-463 -164l407 -157l-16 -83l-483 200l15 85z" />
    <glyph glyph-name="equal" unicode="=" horiz-adv-x="566" 
d="M612 451l-12 -67h-498l12 67h498zM565 184l-13 -68h-497l12 68h498z" />
    <glyph glyph-name="greater" unicode="&#x3e;" horiz-adv-x="587" 
d="M42 41l14 81l462 164l-405 157l14 83l484 -200l-15 -85z" />
    <glyph glyph-name="question" unicode="?" horiz-adv-x="541" 
d="M262 156q11 52 34.5 87.5t54 61.5t59.5 49q38 29 66.5 62t28.5 87q0 50 -33.5 76.5t-96.5 26.5q-64 0 -110 -38t-60 -102h-78q15 61 50.5 108t87 73.5t114.5 26.5q96 0 150.5 -44t54.5 -118q0 -53 -17.5 -89t-46 -62.5t-59.5 -50.5q-27 -21 -52.5 -42.5t-44.5 -48
t-26 -63.5h-76zM317 0h-90l15 85h90z" />
    <glyph glyph-name="at" unicode="@" horiz-adv-x="916" 
d="M721 482l-49 -274q-12 -71 57 -71q59 0 93.5 64t34.5 170q0 126 -75 196.5t-209 70.5q-90 0 -165.5 -32t-131 -90.5t-86 -137.5t-30.5 -173q0 -125 76 -195t212 -70q45 0 88 7.5t89 21.5l-9 -68q-84 -29 -173 -29q-110 0 -190 41.5t-123 117t-43 175.5q0 108 36 199
t102 159t154.5 105.5t193.5 37.5q106 0 187.5 -41t127.5 -115t46 -173q0 -91 -26.5 -160t-73.5 -107.5t-110 -38.5q-52 0 -85 21t-40 59q-27 -38 -64.5 -60t-80.5 -22q-65 0 -104.5 45t-39.5 119q0 73 27 132t74 94t106 35q88 0 122 -75l11 62h71zM384 238q0 -103 92 -103
q41 0 73.5 24.5t51 68t18.5 98.5q0 103 -93 103q-41 0 -73 -24.5t-50.5 -67.5t-18.5 -99z" />
    <glyph glyph-name="A" unicode="A" horiz-adv-x="641" 
d="M609 0h-77l-33 178h-284l-95 -178h-87l363 666h86zM426 576l-176 -332h237z" />
    <glyph glyph-name="B" unicode="B" horiz-adv-x="605" 
d="M466 666q76 0 119.5 -40t43.5 -108q0 -49 -30 -99.5t-91 -75.5q45 -17 70 -54.5t25 -90.5q0 -49 -25 -94.5t-71.5 -74.5t-111.5 -29h-341l118 666h294zM457 597h-222l-39 -222h222q50 0 78.5 24t40 57t11.5 60q0 38 -23.5 59.5t-67.5 21.5zM410 306h-226l-42 -238h242
q52 0 83 21.5t44.5 54.5t13.5 65q0 46 -30 71.5t-85 25.5z" />
    <glyph glyph-name="C" unicode="C" horiz-adv-x="659" 
d="M97 273q0 85 25.5 158t71 128t106 85.5t131.5 30.5q77 0 135 -28.5t90.5 -81.5t32.5 -124h-77q0 77 -49.5 120t-136.5 43q-71 0 -127.5 -44t-89.5 -120t-33 -171q0 -99 50.5 -152t145.5 -53q49 0 91.5 19.5t72.5 54.5t42 79h80q-28 -103 -106.5 -164t-188.5 -61
q-123 0 -194.5 75.5t-71.5 205.5z" />
    <glyph glyph-name="D" unicode="D" horiz-adv-x="635" 
d="M408 666q117 0 182.5 -73t65.5 -198q0 -75 -22 -146t-63.5 -127t-101 -89t-134.5 -33h-281l118 666h236zM235 596l-93 -526h182q68 0 116 32.5t78.5 83.5t44.5 108.5t14 107.5q0 93 -46 143.5t-134 50.5h-162z" />
    <glyph glyph-name="E" unicode="E" horiz-adv-x="547" 
d="M621 666l-13 -72h-374l-38 -218h345l-13 -72h-345l-41 -233h374l-12 -71h-450l118 666h449z" />
    <glyph glyph-name="F" unicode="F" horiz-adv-x="547" 
d="M621 666l-13 -72h-374l-42 -240h344l-12 -72h-344l-50 -282h-76l118 666h449z" />
    <glyph glyph-name="G" unicode="G" horiz-adv-x="669" 
d="M97 272q0 87 24.5 160.5t68 128t103 84.5t130.5 30q81 0 141 -30.5t93 -85.5t33 -130h-78q0 83 -51 129.5t-142 46.5q-71 0 -126 -43.5t-86 -119t-31 -173.5q0 -95 48.5 -150.5t133.5 -55.5q78 0 137.5 58.5t82.5 160.5h-201l11 67h290l-63 -349h-62l18 124
q-40 -63 -98 -97.5t-129 -34.5q-73 0 -128.5 35.5t-87 98.5t-31.5 146z" />
    <glyph glyph-name="H" unicode="H" horiz-adv-x="633" 
d="M172 666h75l-51 -286h374l51 286h75l-118 -666h-75l54 308h-373l-54 -308h-76z" />
    <glyph glyph-name="I" unicode="I" 
d="M172 666h75l-117 -666h-76z" />
    <glyph glyph-name="J" unicode="J" horiz-adv-x="333" 
d="M37 70h64q33 0 61 12t48.5 43.5t31.5 90.5l79 450h75l-81 -460q-14 -77 -44.5 -122t-70 -64.5t-80.5 -19.5h-93z" />
    <glyph glyph-name="K" unicode="K" horiz-adv-x="558" 
d="M172 666h75l-59 -338l360 338h106l-350 -321l241 -345h-85l-209 297l-81 -73l-40 -224h-76z" />
    <glyph glyph-name="L" unicode="L" horiz-adv-x="486" 
d="M452 0h-398l118 666h75l-105 -595h323z" />
    <glyph glyph-name="M" unicode="M" horiz-adv-x="767" 
d="M419 0h-71l-120 561l-98 -561h-76l118 666h103l122 -560l315 560h119l-118 -666h-75l98 561z" />
    <glyph glyph-name="N" unicode="N" horiz-adv-x="636" 
d="M625 666h75l-118 -666h-78l-275 566l-99 -566h-76l118 666h94l262 -545z" />
    <glyph glyph-name="O" unicode="O" horiz-adv-x="687" 
d="M97 271q0 87 25 161t70.5 128.5t107 85t134.5 30.5q80 0 141 -37t95 -102t34 -151q0 -116 -41.5 -205t-116 -139t-173.5 -50q-82 0 -144 35.5t-97 98t-35 145.5zM628 389q0 102 -53 159t-149 57q-72 0 -129 -43.5t-89.5 -119.5t-32.5 -172q0 -98 54 -152t151 -54
q74 0 129.5 41t87 114t31.5 170z" />
    <glyph glyph-name="P" unicode="P" horiz-adv-x="579" 
d="M381 246h-207l-44 -246h-76l118 666h260q89 0 140 -50t51 -132q0 -60 -28 -114.5t-82 -89t-132 -34.5zM419 597h-184l-50 -281h184q65 0 104 27t56 67t17 79q0 52 -32.5 80t-94.5 28z" />
    <glyph glyph-name="Q" unicode="Q" horiz-adv-x="687" 
d="M97 271q0 85 26 158.5t71.5 129t107 86.5t132.5 31q82 0 142.5 -36t94 -101t33.5 -153q0 -89 -27 -164t-75 -128l73 -60l-44 -51l-80 65q-38 -27 -83 -41.5t-95 -14.5q-84 0 -146 34.5t-96 97t-34 147.5zM628 389q0 102 -53.5 159t-148.5 57q-72 0 -129 -43.5
t-89.5 -119.5t-32.5 -172q0 -98 54 -152t151 -55q63 0 114 31l-132 107l43 52l141 -115q39 43 60.5 107.5t21.5 143.5z" />
    <glyph glyph-name="R" unicode="R" horiz-adv-x="584" 
d="M336 274h-158l-48 -274h-76l118 666h271q85 0 134.5 -46t49.5 -125q0 -73 -46.5 -126.5t-123.5 -68.5q51 -12 73 -46.5t22 -96.5v-157h-76v148q0 70 -31.5 98t-108.5 28zM429 597h-194l-45 -255h194q76 0 119.5 44t43.5 112q0 48 -31 73.5t-87 25.5z" />
    <glyph glyph-name="S" unicode="S" horiz-adv-x="593" 
d="M384 289l-81 18q-170 38 -170 161q0 95 65 151t175 56q117 0 181 -57.5t64 -163.5h-77q0 153 -171 153q-69 0 -113.5 -35.5t-44.5 -91.5q0 -73 115 -97l78 -17q178 -38 178 -168q0 -96 -64 -151.5t-173 -55.5q-123 0 -193 59.5t-70 162.5h78q0 -74 48.5 -114t139.5 -40
q68 0 112 35t44 90q0 76 -121 105z" />
    <glyph glyph-name="T" unicode="T" horiz-adv-x="542" 
d="M626 666l-13 -72h-200l-104 -594h-75l104 594h-199l13 72h474z" />
    <glyph glyph-name="U" unicode="U" horiz-adv-x="602" 
d="M166 666h76l-70 -396q-17 -95 26.5 -150.5t137.5 -55.5q74 0 123 46.5t64 129.5l73 426h76l-76 -434q-13 -72 -50 -126t-92 -84t-122 -30q-83 0 -140.5 36t-83 100t-10.5 148z" />
    <glyph glyph-name="V" unicode="V" horiz-adv-x="641" 
d="M151 666h76l106 -573l304 573h90l-364 -666h-85z" />
    <glyph glyph-name="W" unicode="W" horiz-adv-x="993" 
d="M151 666h77l50 -569l286 569h90l81 -569l257 569h87l-315 -666h-86l-82 571l-286 -571h-88z" />
    <glyph glyph-name="X" unicode="X" horiz-adv-x="595" 
d="M151 666h82l126 -293l224 293h99l-264 -335l146 -331h-83l-126 292l-225 -292h-97l262 333z" />
    <glyph glyph-name="Y" unicode="Y" horiz-adv-x="595" 
d="M300 229l-149 437h81l115 -350l242 350h93l-308 -437l-40 -229h-75z" />
    <glyph glyph-name="Z" unicode="Z" horiz-adv-x="574" 
d="M164 666h478l-11 -82l-486 -516h394l-11 -68h-479l11 81l484 516h-392z" />
    <glyph glyph-name="bracketleft" unicode="[" horiz-adv-x="257" 
d="M231 635l-123 -697h122l-12 -71h-197l148 840h197l-13 -72h-122z" />
    <glyph glyph-name="backslash" unicode="\" horiz-adv-x="421" 
d="M230 666l156 -666h-78l-155 666h77z" />
    <glyph glyph-name="bracketright" unicode="]" horiz-adv-x="257" 
d="M127 -62l123 697h-121l13 72h196l-148 -840h-196l12 71h121z" />
    <glyph glyph-name="asciicircum" unicode="^" horiz-adv-x="393" 
d="M286 720h75l87 -208h-58l-69 167l-128 -167h-67z" />
    <glyph glyph-name="underscore" unicode="_" horiz-adv-x="588" 
d="M34 0h521l-11 -64h-521z" />
    <glyph glyph-name="grave" unicode="`" horiz-adv-x="282" 
d="M163 720h86l95 -170h-62z" />
    <glyph glyph-name="a" unicode="a" horiz-adv-x="526" 
d="M531 330l-58 -330h-78l13 72q-33 -39 -78 -60.5t-97 -21.5q-72 0 -117.5 39t-45.5 101q0 69 46.5 113t127.5 47l145 4q32 1 46.5 8.5t19.5 25.5l2 10q9 53 -28 87t-100 34q-109 0 -138 -92h-80q18 72 77.5 114t143.5 42q66 0 114 -25.5t71 -69t14 -98.5zM148 138
q0 -38 29 -60.5t78 -22.5q62 0 110 37.5t65 97.5l8 43l-179 -5q-56 -2 -83.5 -26.5t-27.5 -63.5z" />
    <glyph glyph-name="b" unicode="b" horiz-adv-x="575" 
d="M181 717h77l-50 -285q30 42 72.5 66.5t95.5 24.5q62 0 108.5 -27.5t72.5 -77.5t26 -117q0 -88 -34 -158t-92 -111t-130 -41q-71 0 -114.5 32t-60.5 93l-20 -116h-77zM505 301q0 72 -39 112.5t-109 40.5q-49 0 -90.5 -30.5t-66 -84.5t-24.5 -124q0 -74 38.5 -114.5
t109.5 -40.5q48 0 89.5 31t66.5 85t25 125z" />
    <glyph glyph-name="c" unicode="c" horiz-adv-x="559" 
d="M84 215q0 89 35 158.5t95 110t135 40.5q98 0 154.5 -56.5t56.5 -149.5h-77q0 63 -37 99.5t-103 36.5q-51 0 -92 -31.5t-65 -86t-24 -122.5q0 -74 39 -114.5t112 -40.5q55 0 95.5 33.5t53.5 87.5h80q-21 -88 -83.5 -139t-150.5 -51q-103 0 -163.5 61.5t-60.5 163.5z" />
    <glyph glyph-name="d" unicode="d" horiz-adv-x="575" 
d="M648 717l-126 -717h-76l15 84q-32 -43 -75.5 -67.5t-96.5 -24.5q-93 0 -149 60t-56 162q0 88 34 158.5t92 111.5t130 41q70 0 114 -34t62 -92l56 318h76zM162 216q0 -75 39 -115.5t109 -40.5q49 0 90.5 30.5t67 84.5t25.5 124q0 74 -39 114.5t-109 40.5
q-50 0 -91.5 -30.5t-66.5 -84t-25 -123.5z" />
    <glyph glyph-name="e" unicode="e" horiz-adv-x="566" 
d="M84 215q0 85 32.5 154.5t91.5 111t138 41.5q78 0 131 -35t76 -93.5t11 -129.5l-5 -30h-397q-1 -11 -1 -23q0 -75 40 -114t117 -39q54 0 91.5 26t57.5 74h84q-30 -82 -90 -124.5t-144 -42.5q-108 0 -170.5 60t-62.5 164zM350 457q-68 0 -115.5 -43.5t-64.5 -119.5h320
q10 73 -30 118t-110 45z" />
    <glyph glyph-name="f" unicode="f" horiz-adv-x="330" 
d="M113 446l11 66h81l13 74q9 48 33.5 76.5t57.5 41.5t68 13h46l-11 -66h-40q-29 0 -50.5 -16t-28.5 -55l-12 -68h106l-11 -66h-106l-79 -446h-76l79 446h-81z" />
    <glyph glyph-name="g" unicode="g" horiz-adv-x="575" 
d="M612 512l-95 -544q-14 -77 -75 -125t-151 -48q-73 0 -127 23t-84 64.5t-30 96.5h77q0 -52 45.5 -85t121.5 -33q62 0 101 32t48 87l21 118q-33 -42 -77.5 -66t-96.5 -24q-61 0 -106.5 27t-70.5 75.5t-25 112.5q0 85 33 152.5t90 107.5t127 40q66 0 112 -32t67 -88l19 109
h76zM165 227q0 -72 40 -111.5t111 -39.5q62 0 106.5 39t62.5 105l9 52q1 14 1 30q0 70 -39.5 110t-111.5 40q-53 0 -93.5 -28.5t-63 -79.5t-22.5 -117z" />
    <glyph glyph-name="h" unicode="h" horiz-adv-x="538" 
d="M464 295q13 72 -17.5 114t-95.5 42q-64 0 -108.5 -37t-57.5 -101l-54 -313h-76l124 717h76l-49 -281q33 40 78 63t95 23q56 0 96.5 -30.5t58.5 -80t7 -108.5l-54 -303h-75z" />
    <glyph glyph-name="i" unicode="i" 
d="M166 668h90l-15 -84h-90zM145 512h76l-90 -512h-76z" />
    <glyph glyph-name="j" unicode="j" 
d="M166 668h90l-15 -84h-90zM-52 -96h32q26 0 44.5 14t26.5 57l95 537h76l-96 -543q-14 -75 -57 -105t-95 -30h-38z" />
    <glyph glyph-name="k" unicode="k" horiz-adv-x="504" 
d="M447 512h108l-265 -251l187 -261h-88l-155 213l-80 -73l-25 -140h-75l126 717h75l-83 -472z" />
    <glyph glyph-name="l" unicode="l" 
d="M181 717h76l-126 -717h-76z" />
    <glyph glyph-name="m" unicode="m" horiz-adv-x="852" 
d="M145 512h76l-12 -69q33 39 78.5 59.5t88.5 20.5q56 0 96 -30.5t52 -83.5q33 53 84.5 83t102.5 30q50 0 88 -25t55 -70.5t6 -107.5l-58 -319h-75l56 309q14 76 -15.5 108.5t-82.5 32.5q-35 0 -68.5 -17t-58 -46t-33.5 -67v-2l-59 -318h-75l57 309q13 74 -16 109t-88 35
q-52 0 -95.5 -31.5t-58.5 -84.5l-59 -337h-76z" />
    <glyph glyph-name="n" unicode="n" horiz-adv-x="538" 
d="M144 512h76l-13 -76q33 40 77.5 63t94.5 23q56 0 96.5 -30.5t58.5 -80t7 -108.5l-54 -303h-75l52 295q13 72 -17.5 114t-95.5 42q-62 0 -106 -35t-58 -96l-56 -320h-76z" />
    <glyph glyph-name="o" unicode="o" horiz-adv-x="568" 
d="M84 215q0 88 35 158t95 110.5t135 40.5q67 0 116.5 -28t77 -78t27.5 -118q0 -88 -35 -158t-95 -111t-135 -41q-67 0 -116.5 28t-77 78.5t-27.5 118.5zM493 301q0 72 -39.5 112.5t-109.5 40.5q-49 0 -90.5 -30.5t-66.5 -84.5t-25 -124q0 -74 39.5 -114.5t109.5 -40.5
q48 0 89.5 31t67 85t25.5 125z" />
    <glyph glyph-name="p" unicode="p" horiz-adv-x="575" 
d="M145 512h77l-14 -79q30 41 72.5 65.5t95.5 24.5q63 0 109 -27.5t72 -77.5t26 -117q0 -88 -34 -158.5t-92 -111t-130 -40.5t-115.5 32.5t-59.5 93.5l-50 -284h-76zM505 301q0 72 -39 112.5t-109 40.5q-49 0 -90.5 -30.5t-66 -84.5t-24.5 -124q0 -74 38.5 -114.5
t109.5 -40.5q48 0 89.5 31t66.5 85t25 125z" />
    <glyph glyph-name="q" unicode="q" horiz-adv-x="575" 
d="M611 512l-120 -679h-76l44 249q-31 -42 -74.5 -66t-95.5 -24q-93 0 -149 60t-56 162q0 88 34 158.5t92 111.5t130 41q70 0 114 -33.5t61 -90.5l20 111h76zM162 216q0 -75 39 -115.5t109 -40.5q61 0 110.5 48t65.5 127l3 14q4 25 4 50q0 74 -39 114.5t-109 40.5
q-50 0 -91.5 -30.5t-66.5 -84t-25 -123.5z" />
    <glyph glyph-name="r" unicode="r" horiz-adv-x="333" 
d="M146 512h77l-13 -73q32 38 74 57.5t83 19.5h24l-14 -78h-23q-54 0 -101.5 -28.5t-62.5 -79.5l-57 -330h-76z" />
    <glyph glyph-name="s" unicode="s" horiz-adv-x="514" 
d="M331 215l-79 19q-138 30 -138 132q0 72 53.5 115t147.5 43q92 0 147 -45.5t57 -131.5h-74q0 56 -35 84t-100 28q-57 0 -89 -23.5t-32 -62.5q0 -29 20.5 -45t64.5 -26l82 -17q139 -30 139 -138q0 -73 -52.5 -115.5t-149.5 -42.5q-103 0 -161 47t-58 130h77q0 -56 38 -84.5
t105 -28.5q61 0 93.5 22.5t32.5 61.5q0 30 -21.5 48.5t-67.5 29.5z" />
    <glyph glyph-name="t" unicode="t" horiz-adv-x="330" 
d="M309 68l-12 -68h-46q-32 0 -58 13t-38 41.5t-4 76.5l56 315h-94l12 66h93l24 133h76l-23 -133h92l-11 -66h-93l-54 -305q-8 -44 4 -58.5t36 -14.5h40z" />
    <glyph glyph-name="u" unicode="u" horiz-adv-x="530" 
d="M164 217q-13 -72 15 -114t93 -42q66 0 110 40t54 108h1l53 303h74l-89 -512h-75l13 74q-32 -39 -76 -61t-93 -22q-56 0 -95.5 29.5t-56 79t-5.5 109.5l54 303h76z" />
    <glyph glyph-name="v" unicode="v" horiz-adv-x="553" 
d="M125 512h76l88 -425l233 425h89l-290 -512h-86z" />
    <glyph glyph-name="w" unicode="w" horiz-adv-x="793" 
d="M123 512h77l38 -416l199 416h86l53 -416l186 416h87l-247 -512h-82l-55 415l-198 -415h-84z" />
    <glyph glyph-name="x" unicode="x" horiz-adv-x="522" 
d="M125 512h80l105 -214l177 214h92l-211 -253l121 -259h-79l-102 219l-180 -219h-93l212 260z" />
    <glyph glyph-name="y" unicode="y" horiz-adv-x="557" 
d="M43 -90h73q36 0 57 14.5t41 51.5l19 38l-109 498h78l90 -420l233 420h88l-307 -544q-39 -70 -78.5 -100.5t-97.5 -30.5h-97z" />
    <glyph glyph-name="z" unicode="z" horiz-adv-x="483" 
d="M134 512h390l-12 -78l-371 -370h306l-11 -64h-391l12 78l371 370h-305z" />
    <glyph glyph-name="braceleft" unicode="{" horiz-adv-x="257" 
d="M353 637h-23q-30 0 -47 -17t-24 -54l-35 -199q-10 -61 -67 -80q49 -18 39 -81l-35 -198q-13 -71 46 -71h22l-11 -70h-33q-58 0 -83.5 35t-15.5 98l35 199q9 53 -36 53h-25l12 69h26q45 0 54 55l35 198q11 63 49.5 98t96.5 35h33z" />
    <glyph glyph-name="bar" unicode="|" 
d="M199 820h75l-181 -1025h-75z" />
    <glyph glyph-name="braceright" unicode="}" horiz-adv-x="257" 
d="M4 -63h23q31 0 47.5 17t23.5 54l34 198q10 61 68 81q-49 19 -39 80l35 199q7 37 -3.5 54t-41.5 17h-24l13 70h33q58 0 83.5 -35t14.5 -98l-35 -198q-10 -55 35 -55h26l-12 -69h-25q-45 0 -55 -53l-35 -199q-11 -63 -49.5 -98t-96.5 -35h-32z" />
    <glyph glyph-name="asciitilde" unicode="~" horiz-adv-x="451" 
d="M229 513q36 0 56 -17t36 -35q13 -16 26.5 -29t36.5 -13q24 0 42.5 24t25.5 64h55q-13 -69 -48.5 -109.5t-83.5 -40.5q-35 0 -54.5 14.5t-34.5 31.5q-16 17 -29.5 33t-35.5 16q-23 0 -41.5 -25t-25.5 -66h-56q13 72 47.5 112t83.5 40z" />
    <glyph glyph-name="uni00A0" unicode="&#xa0;" horiz-adv-x="204" 
 />
    <glyph glyph-name="exclamdown" unicode="&#xa1;" 
d="M137 512h90l-15 -85h-89zM124 356h61l-83 -510h-75z" />
    <glyph glyph-name="cent" unicode="&#xa2;" horiz-adv-x="559" 
d="M102 292q0 88 34.5 157.5t93.5 110t134 41.5l11 65h54l-13 -70q76 -14 119 -69t43 -132h-75q0 52 -25.5 87t-73.5 46l-69 -393q54 1 94 34.5t53 87.5h79q-21 -88 -84 -139t-151 -51h-3l-12 -67h-53l13 72q-79 16 -124 74t-45 146zM179 292q0 -127 104 -152l69 393
q-50 -4 -89 -36t-61.5 -85.5t-22.5 -119.5z" />
    <glyph glyph-name="sterling" unicode="&#xa3;" horiz-adv-x="555" 
d="M99 355h93l21 119q10 60 40 105t74 70t98 25q86 0 132 -46.5t46 -120.5h-75q0 48 -26 73.5t-77 25.5q-54 0 -90 -35.5t-47 -98.5l-21 -117h225l-10 -63h-226l-12 -66q-7 -45 -34 -89t-80 -67h402l-12 -70h-484l14 76q56 23 84.5 68t36.5 90l10 58h-93z" />
    <glyph glyph-name="currency" unicode="&#xa4;" horiz-adv-x="510" 
d="M416 419l96 82l40 -49l-96 -82q11 -24 10 -57q-1 -64 -42 -114l69 -84l-58 -49l-69 85q-20 -11 -42 -17.5t-46 -6.5q-25 0 -44.5 6.5t-35.5 17.5l-100 -85l-40 49l99 84q-13 28 -12 61q1 62 40 111l-68 81l58 49l66 -81q41 25 91 25q52 0 84 -26zM207 264q-1 -38 20 -59
t61 -21q49 0 81.5 35t33.5 88q1 38 -20.5 59.5t-60.5 21.5q-49 0 -81.5 -35t-33.5 -89z" />
    <glyph glyph-name="yen" unicode="&#xa5;" horiz-adv-x="595" 
d="M114 144h170l11 64h-171l11 61h160l-145 397h82l117 -333l240 333h92l-288 -397h156l-11 -61h-167l-11 -64h167l-12 -61h-166l-15 -83h-75l14 83h-171z" />
    <glyph glyph-name="brokenbar" unicode="&#xa6;" 
d="M199 820h75l-81 -459h-75zM174 254l-81 -459h-75l81 459h75z" />
    <glyph glyph-name="section" unicode="&#xa7;" horiz-adv-x="514" 
d="M327 190l-81 10q-142 20 -142 108q0 43 31 74t85 45q-75 29 -75 98q0 45 26.5 79t73 53.5t107.5 19.5q100 0 155.5 -40.5t55.5 -113.5h-79q0 91 -127 91q-61 0 -98.5 -23t-37.5 -60q0 -42 85 -54l80 -10q73 -10 108 -36t35 -72q0 -43 -28.5 -75t-78.5 -48q65 -30 65 -95
q0 -45 -26.5 -78.5t-73 -53t-107.5 -19.5q-100 0 -155 40t-55 114h79q0 -91 126 -91q61 0 99 23t38 60q0 43 -85 54zM270 267l72 -10q47 2 77.5 26.5t30.5 62.5q0 22 -20.5 35t-67.5 20l-71 9q-48 -1 -78.5 -26t-30.5 -62q0 -23 20.5 -36t67.5 -19z" />
    <glyph glyph-name="dieresis" unicode="&#xa8;" horiz-adv-x="367" 
d="M248 602h86v-90h-86v90zM34 602h86v-90h-86v90z" />
    <glyph glyph-name="copyright" unicode="&#xa9;" horiz-adv-x="854" 
d="M872 333q0 -114 -49 -201t-136 -136t-201 -49q-113 0 -197.5 47t-131.5 131.5t-47 196.5q0 116 48.5 205t135 139.5t199.5 50.5q112 0 197.5 -49t133.5 -135.5t48 -199.5zM485 13q95 0 166.5 40.5t112 112.5t40.5 168q0 95 -39.5 166t-109.5 110.5t-164 39.5t-164.5 -40
t-109.5 -112t-39 -169q0 -95 38 -166.5t107 -110.5t162 -39zM293 332q0 64 24.5 112t68 74.5t102.5 26.5q78 0 130.5 -46t58.5 -121h-72q-2 48 -34 76t-83 28q-60 0 -92 -39t-32 -111t32.5 -112t91.5 -40q51 0 82.5 25t34.5 69h72q-7 -72 -59 -114.5t-130 -42.5
q-59 0 -102.5 27t-68 75.5t-24.5 112.5z" />
    <glyph glyph-name="ordfeminine" unicode="&#xaa;" horiz-adv-x="448" 
d="M463 382q-12 -70 -8 -113h-70q-1 26 2 56q-27 -30 -64 -48t-77 -18q-63 0 -100 30t-37 77q0 52 37.5 85.5t96.5 37.5l121 9q48 4 56 27l2 10q5 32 -19 54.5t-65 22.5q-99 0 -122 -74h-73q15 62 66.5 98t129.5 36q51 0 87 -18.5t53 -50.5t10 -71zM181 372q0 -24 21 -37.5
t57 -13.5q54 0 94.5 31.5t49.5 80.5h1l2 13l-152 -11q-73 -5 -73 -63z" />
    <glyph glyph-name="guillemotleft" unicode="&#xab;" horiz-adv-x="590" 
d="M649 526l-17 -95l-212 -150l159 -153l-15 -87l-214 200l15 85zM376 526l-16 -95l-214 -150l160 -153l-15 -87l-214 200l15 85z" />
    <glyph glyph-name="logicalnot" unicode="&#xac;" horiz-adv-x="546" 
d="M481 248h-403l12 69h479l-34 -193h-76z" />
    <glyph glyph-name="uni00AD" unicode="&#xad;" horiz-adv-x="395" 
d="M90 317h326l-12 -69h-326z" />
    <glyph glyph-name="registered" unicode="&#xae;" horiz-adv-x="854" 
d="M872 333q0 -114 -49 -201t-136 -136t-201 -49q-113 0 -197.5 47t-131.5 131.5t-47 196.5q0 116 48.5 205t135 139.5t199.5 50.5q112 0 197.5 -49t133.5 -135.5t48 -199.5zM485 13q95 0 166.5 40.5t112 112.5t40.5 168q0 95 -39.5 166t-109.5 110.5t-164 39.5t-164.5 -40
t-109.5 -112t-39 -169q0 -95 38 -166.5t107 -110.5t162 -39zM511 283h-112v-147h-67v397h212q58 0 93.5 -31.5t35.5 -83.5q0 -40 -20.5 -68.5t-55.5 -41.5q31 -7 46 -28t20 -60l11 -84h-67l-9 75q-4 38 -24.5 55t-62.5 17zM533 474h-134v-133h134q34 0 52.5 19t18.5 53
q0 29 -18.5 45t-52.5 16z" />
    <glyph glyph-name="macron" unicode="&#xaf;" horiz-adv-x="385" 
d="M139 594h317l-11 -64h-317z" />
    <glyph glyph-name="degree" unicode="&#xb0;" horiz-adv-x="349" 
d="M410 554q0 -45 -20 -81t-54.5 -57t-77.5 -21q-59 0 -95.5 34.5t-36.5 90.5q0 44 20.5 80t54.5 57.5t77 21.5q58 0 95 -35t37 -90zM190 523q0 -32 19.5 -50.5t53.5 -18.5q36 0 59.5 27.5t23.5 68.5q0 33 -19.5 51.5t-53.5 18.5q-36 0 -59.5 -27.5t-23.5 -69.5z" />
    <glyph glyph-name="plusminus" unicode="&#xb1;" horiz-adv-x="566" 
d="M376 333h215l-12 -70h-214l-37 -205h-69l35 205h-214l13 70h214l37 205h69zM535 17l-12 -69h-498l12 69h498z" />
    <glyph glyph-name="uni00B2" unicode="&#xb2;" horiz-adv-x="397" 
d="M185 434h249l-11 -61h-321l3 18q10 55 40 87t70 50t79 31q41 14 72 31.5t37 50.5q6 34 -13 53t-59 19q-44 0 -74 -22t-38 -59h-72q16 63 70.5 102t124.5 39t106 -37t26 -99q-6 -34 -29.5 -57.5t-56 -40t-67.5 -29.5q-49 -18 -86.5 -34.5t-49.5 -41.5z" />
    <glyph glyph-name="uni00B3" unicode="&#xb3;" horiz-adv-x="400" 
d="M266 540l10 56h59q53 0 62 51q5 31 -14.5 48.5t-59.5 17.5q-38 0 -64 -17.5t-33 -47.5h-71q15 56 64.5 91t114.5 35q70 0 107 -33.5t27 -89.5q-9 -55 -62 -82q53 -27 42 -89q-9 -52 -58.5 -83.5t-121.5 -31.5q-70 0 -110.5 33t-35.5 87h71q-3 -27 20 -43t65 -16
q43 0 69 15.5t31 43.5q10 55 -53 55h-59z" />
    <glyph glyph-name="acute" unicode="&#xb4;" horiz-adv-x="270" 
d="M257 675l-145 -163h-63l119 163h89z" />
    <glyph glyph-name="mu" unicode="&#xb5;" horiz-adv-x="530" 
d="M475 0h-75l12 68q-29 -36 -69.5 -57.5t-86.5 -21.5q-37 0 -67 13t-51 35l-36 -204h-76l119 679h77l-57 -319q-5 -61 23.5 -96.5t88.5 -35.5q64 0 106.5 39.5t52.5 106.5v0l54 305h75z" />
    <glyph glyph-name="paragraph" unicode="&#xb6;" horiz-adv-x="523" 
d="M300 326q-83 0 -131 41.5t-48 110.5q0 49 26 92t74.5 69.5t117.5 26.5h245l-117 -666h-72l105 596h-80l-105 -596h-73z" />
    <glyph glyph-name="periodcentered" unicode="&#xb7;" 
d="M114 376h89l-16 -92h-90z" />
    <glyph glyph-name="cedilla" unicode="&#xb8;" horiz-adv-x="296" 
d="M100 10h55l-14 -66h15q48 0 77 -29.5t29 -77.5q0 -52 -37 -82.5t-100 -30.5h-91v65h83q76 0 76 57q0 21 -14 32.5t-39 11.5h-34l-25 33z" />
    <glyph glyph-name="uni00B9" unicode="&#xb9;" horiz-adv-x="243" 
d="M273 768h68l-70 -395h-68l45 254h-111l10 58h44q33 0 52 11t24 42z" />
    <glyph glyph-name="ordmasculine" unicode="&#xba;" horiz-adv-x="448" 
d="M117 435q0 68 27 121.5t73.5 84t106.5 30.5q79 0 126.5 -47t47.5 -126q0 -68 -27 -121.5t-74 -85t-105 -31.5q-80 0 -127.5 48t-47.5 127zM429 497q0 53 -29 82t-81 29q-59 0 -96 -48t-37 -123q0 -54 29 -84t81 -30q58 0 95.5 48.5t37.5 125.5z" />
    <glyph glyph-name="guillemotright" unicode="&#xbb;" horiz-adv-x="590" 
d="M42 41l16 94l214 151l-160 152l15 88l214 -200l-15 -85zM314 41l17 94l213 151l-159 152l15 88l214 -200l-14 -85z" />
    <glyph glyph-name="onequarter" unicode="&#xbc;" horiz-adv-x="888" 
d="M315 666h68l-69 -396h-69l45 255h-112l11 58h44q33 0 52 11t25 42zM661 666h75l-392 -666h-74zM795 96l-17 -96h-66l17 96h-206l12 69l233 230h80l-43 -241h73l-11 -58h-72zM739 154l29 167l-165 -167h136z" />
    <glyph glyph-name="onehalf" unicode="&#xbd;" horiz-adv-x="888" 
d="M315 666h68l-69 -396h-69l45 255h-112l11 58h44q33 0 52 11t25 42zM661 666h75l-392 -666h-74zM607 61h249l-11 -61h-321l3 18q10 55 40 87t70 50t79 31q41 14 72 31.5t37 50.5q6 34 -13 53t-59 19q-44 0 -74 -22t-38 -59h-71q15 63 69.5 102.5t124.5 39.5t106 -37.5
t26 -99.5q-6 -34 -29.5 -57.5t-56 -40t-67.5 -29.5q-49 -18 -86.5 -34.5t-49.5 -41.5z" />
    <glyph glyph-name="threequarters" unicode="&#xbe;" horiz-adv-x="888" 
d="M248 437l10 56h59q52 0 62 52q5 31 -14.5 48.5t-59.5 17.5q-38 0 -64 -17.5t-33 -47.5h-71q15 56 64.5 91t114.5 35q70 0 107 -33.5t27 -89.5q-9 -56 -63 -82q54 -27 43 -89q-9 -52 -58.5 -84t-121.5 -32q-70 0 -110.5 33.5t-35.5 87.5h71q-3 -27 20 -43t65 -16
t68.5 15.5t31.5 43.5q10 54 -53 54h-59zM661 666h75l-392 -666h-74zM795 96l-17 -96h-66l17 96h-206l12 69l233 230h80l-43 -241h73l-11 -58h-72zM739 154l29 167l-165 -167h136z" />
    <glyph glyph-name="questiondown" unicode="&#xbf;" horiz-adv-x="541" 
d="M316 512h89l-15 -85h-89zM369 356q-10 -52 -33.5 -87.5t-53.5 -61.5t-60 -48q-38 -30 -66.5 -63t-28.5 -87q0 -50 34 -76.5t96 -26.5q64 0 110 38t60 102h79q-15 -61 -50.5 -108t-87.5 -73.5t-115 -26.5q-95 0 -150 44t-55 118q0 53 17.5 89t45.5 62.5t59 50.5
q27 21 53 42.5t45 48t26 63.5h75z" />
    <glyph glyph-name="Agrave" unicode="&#xc0;" horiz-adv-x="641" 
d="M326 880h84l95 -163h-60zM609 0h-77l-33 178h-284l-95 -178h-87l363 666h86zM426 576l-176 -332h237z" />
    <glyph glyph-name="Aacute" unicode="&#xc1;" horiz-adv-x="641" 
d="M612 880l-156 -163h-68l129 163h95zM609 0h-77l-33 178h-284l-95 -178h-87l363 666h86zM426 576l-176 -332h237z" />
    <glyph glyph-name="Acircumflex" unicode="&#xc2;" horiz-adv-x="641" 
d="M432 888h76l132 -171h-76l-96 127l-139 -127h-89zM609 0h-77l-33 178h-284l-95 -178h-87l363 666h86zM426 576l-176 -332h237z" />
    <glyph glyph-name="Atilde" unicode="&#xc3;" horiz-adv-x="641" 
d="M384 869q33 0 51.5 -17t31.5 -35q12 -16 24 -29.5t31 -13.5q24 0 42.5 24t25.5 65h57q-12 -70 -47.5 -110t-83.5 -40q-32 0 -48.5 14.5t-29.5 31.5t-24 32.5t-31 15.5q-24 0 -42.5 -24.5t-25.5 -65.5h-59q12 72 45.5 112t82.5 40zM609 0h-77l-33 178h-284l-95 -178h-87
l363 666h86zM426 576l-176 -332h237z" />
    <glyph glyph-name="Adieresis" unicode="&#xc4;" horiz-adv-x="641" 
d="M520 807h86l-16 -90h-86zM306 807h86l-16 -90h-85zM609 0h-77l-33 178h-284l-95 -178h-87l363 666h86zM426 576l-176 -332h237z" />
    <glyph glyph-name="Aring" unicode="&#xc5;" horiz-adv-x="641" 
d="M609 0h-77l-33 178h-284l-95 -178h-87l342 628q-30 14 -47 41.5t-17 64.5q0 45 19.5 80.5t53 56t76.5 20.5q58 0 93.5 -33t35.5 -87t-27.5 -93.5t-71.5 -54.5zM373 736q0 -32 18.5 -49.5t52.5 -17.5q37 0 60.5 27.5t23.5 72.5q0 31 -19 49t-53 18q-37 0 -60 -27.5
t-23 -72.5zM426 576l-176 -332h237z" />
    <glyph glyph-name="AE" unicode="&#xc6;" horiz-adv-x="974" 
d="M1046 666l-13 -72h-373l-39 -218h346l-13 -72h-346l-41 -233h374l-12 -71h-449l31 178h-276l-119 -178h-83l440 666h573zM277 244h246l62 350h-75z" />
    <glyph glyph-name="Ccedilla" unicode="&#xc7;" horiz-adv-x="659" 
d="M97 273q0 85 25.5 158t71 128t106 85.5t131.5 30.5q77 0 135 -28.5t90.5 -81.5t32.5 -124h-77q0 77 -49.5 120t-136.5 43q-71 0 -127.5 -44t-89.5 -120t-33 -171q0 -99 50.5 -152t145.5 -53q49 0 91.5 19.5t72.5 54.5t42 79h80q-28 -103 -106.5 -164t-188.5 -61h-8
l-19 -48h15q41 0 64 -27.5t23 -66.5q0 -59 -38 -92.5t-107 -33.5h-102l11 65h83q40 0 63 18t23 48q0 35 -45 35h-34l-20 33l30 74q-96 18 -150.5 90.5t-54.5 185.5z" />
    <glyph glyph-name="Egrave" unicode="&#xc8;" horiz-adv-x="547" 
d="M295 880h84l95 -163h-60zM621 666l-13 -72h-374l-38 -218h345l-13 -72h-345l-41 -233h374l-12 -71h-450l118 666h449z" />
    <glyph glyph-name="Eacute" unicode="&#xc9;" horiz-adv-x="547" 
d="M581 880l-156 -163h-69l130 163h95zM621 666l-13 -72h-374l-38 -218h345l-13 -72h-345l-41 -233h374l-12 -71h-450l118 666h449z" />
    <glyph glyph-name="Ecircumflex" unicode="&#xca;" horiz-adv-x="547" 
d="M402 888h76l132 -171h-77l-95 127l-139 -127h-90zM621 666l-13 -72h-374l-38 -218h345l-13 -72h-345l-41 -233h374l-12 -71h-450l118 666h449z" />
    <glyph glyph-name="Edieresis" unicode="&#xcb;" horiz-adv-x="547" 
d="M489 807h87l-16 -90h-87zM275 807h87l-16 -90h-86zM621 666l-13 -72h-374l-38 -218h345l-13 -72h-345l-41 -233h374l-12 -71h-450l118 666h449z" />
    <glyph glyph-name="Igrave" unicode="&#xcc;" 
d="M99 880h84l95 -163h-60zM172 666h75l-117 -666h-76z" />
    <glyph glyph-name="Iacute" unicode="&#xcd;" 
d="M385 880l-156 -163h-69l130 163h95zM172 666h75l-117 -666h-76z" />
    <glyph glyph-name="Icircumflex" unicode="&#xce;" 
d="M206 888h76l132 -171h-77l-95 127l-140 -127h-89zM172 666h75l-117 -666h-76z" />
    <glyph glyph-name="Idieresis" unicode="&#xcf;" 
d="M293 807h87l-16 -90h-87zM79 807h87l-16 -90h-86zM172 666h75l-117 -666h-76z" />
    <glyph glyph-name="Eth" unicode="&#xd0;" horiz-adv-x="723" 
d="M94 359h113l54 307h237q116 0 181 -73t65 -198q0 -75 -22 -146t-63.5 -127t-100.5 -89t-134 -33h-281l52 291h-113zM323 596l-42 -237h197l-12 -68h-196l-39 -221h182q68 0 116 32.5t78 83.5t44.5 108.5t14.5 107.5q0 93 -46.5 143.5t-133.5 50.5h-163z" />
    <glyph glyph-name="Ntilde" unicode="&#xd1;" horiz-adv-x="636" 
d="M393 869q32 0 50.5 -17t32.5 -35q12 -16 23.5 -29.5t31.5 -13.5q24 0 42 24t25 65h57q-12 -70 -47 -110t-84 -40q-32 0 -48 14.5t-29 31.5t-24.5 32.5t-30.5 15.5q-24 0 -42.5 -24.5t-25.5 -65.5h-60q13 72 46.5 112t82.5 40zM625 666h75l-118 -666h-78l-275 566
l-99 -566h-76l118 666h94l262 -545z" />
    <glyph glyph-name="Ograve" unicode="&#xd2;" horiz-adv-x="687" 
d="M351 880h84l95 -163h-61zM97 271q0 87 25 161t70.5 128.5t107 85t134.5 30.5q80 0 141 -37t95 -102t34 -151q0 -116 -41.5 -205t-116 -139t-173.5 -50q-82 0 -144 35.5t-97 98t-35 145.5zM628 389q0 102 -53 159t-149 57q-72 0 -129 -43.5t-89.5 -119.5t-32.5 -172
q0 -98 54 -152t151 -54q74 0 129.5 41t87 114t31.5 170z" />
    <glyph glyph-name="Oacute" unicode="&#xd3;" horiz-adv-x="687" 
d="M637 880l-157 -163h-68l130 163h95zM97 271q0 87 25 161t70.5 128.5t107 85t134.5 30.5q80 0 141 -37t95 -102t34 -151q0 -116 -41.5 -205t-116 -139t-173.5 -50q-82 0 -144 35.5t-97 98t-35 145.5zM628 389q0 102 -53 159t-149 57q-72 0 -129 -43.5t-89.5 -119.5
t-32.5 -172q0 -98 54 -152t151 -54q74 0 129.5 41t87 114t31.5 170z" />
    <glyph glyph-name="Ocircumflex" unicode="&#xd4;" horiz-adv-x="687" 
d="M458 888h75l132 -171h-76l-95 127l-140 -127h-89zM97 271q0 87 25 161t70.5 128.5t107 85t134.5 30.5q80 0 141 -37t95 -102t34 -151q0 -116 -41.5 -205t-116 -139t-173.5 -50q-82 0 -144 35.5t-97 98t-35 145.5zM628 389q0 102 -53 159t-149 57q-72 0 -129 -43.5
t-89.5 -119.5t-32.5 -172q0 -98 54 -152t151 -54q74 0 129.5 41t87 114t31.5 170z" />
    <glyph glyph-name="Otilde" unicode="&#xd5;" horiz-adv-x="687" 
d="M410 869q32 0 50.5 -17t32.5 -35q11 -16 23 -29.5t31 -13.5q24 0 42.5 24t25.5 65h57q-12 -70 -47.5 -110t-83.5 -40q-32 0 -48 14.5t-29 31.5t-24.5 32.5t-30.5 15.5q-24 0 -43 -24.5t-25 -65.5h-60q13 72 46 112t83 40zM97 271q0 87 25 161t70.5 128.5t107 85
t134.5 30.5q80 0 141 -37t95 -102t34 -151q0 -116 -41.5 -205t-116 -139t-173.5 -50q-82 0 -144 35.5t-97 98t-35 145.5zM628 389q0 102 -53 159t-149 57q-72 0 -129 -43.5t-89.5 -119.5t-32.5 -172q0 -98 54 -152t151 -54q74 0 129.5 41t87 114t31.5 170z" />
    <glyph glyph-name="Odieresis" unicode="&#xd6;" horiz-adv-x="687" 
d="M545 807h87l-17 -90h-86zM331 807h87l-17 -90h-85zM97 271q0 87 25 161t70.5 128.5t107 85t134.5 30.5q80 0 141 -37t95 -102t34 -151q0 -116 -41.5 -205t-116 -139t-173.5 -50q-82 0 -144 35.5t-97 98t-35 145.5zM628 389q0 102 -53 159t-149 57q-72 0 -129 -43.5
t-89.5 -119.5t-32.5 -172q0 -98 54 -152t151 -54q74 0 129.5 41t87 114t31.5 170z" />
    <glyph glyph-name="multiply" unicode="&#xd7;" horiz-adv-x="566" 
d="M343 337l198 171l40 -50l-199 -168l140 -168l-58 -50l-138 170l-199 -170l-40 50l200 168l-141 168l58 50z" />
    <glyph glyph-name="Oslash" unicode="&#xd8;" horiz-adv-x="687" 
d="M97 271q0 85 26 158.5t71.5 129t107 86.5t132.5 31q58 0 105.5 -18.5t82.5 -52.5l95 99l43 -43l-100 -103q44 -72 44 -172q0 -85 -24.5 -157t-69 -125t-105 -82.5t-132.5 -29.5q-59 0 -107.5 17.5t-83.5 49.5l-93 -97l-44 43l97 101q-45 69 -45 165zM175 270
q0 -61 22 -107l374 389q-53 53 -145 53q-72 0 -129 -43.5t-89.5 -119.5t-32.5 -172zM628 389q0 64 -22 112l-372 -388q54 -49 146 -49q74 0 129.5 41t87 114t31.5 170z" />
    <glyph glyph-name="Ugrave" unicode="&#xd9;" horiz-adv-x="602" 
d="M312 880h84l95 -163h-60zM166 666h76l-70 -396q-17 -95 26.5 -150.5t137.5 -55.5q74 0 123 46.5t64 129.5l73 426h76l-76 -434q-13 -72 -50 -126t-92 -84t-122 -30q-83 0 -140.5 36t-83 100t-10.5 148z" />
    <glyph glyph-name="Uacute" unicode="&#xda;" horiz-adv-x="602" 
d="M598 880l-156 -163h-68l129 163h95zM166 666h76l-70 -396q-17 -95 26.5 -150.5t137.5 -55.5q74 0 123 46.5t64 129.5l73 426h76l-76 -434q-13 -72 -50 -126t-92 -84t-122 -30q-83 0 -140.5 36t-83 100t-10.5 148z" />
    <glyph glyph-name="Ucircumflex" unicode="&#xdb;" horiz-adv-x="602" 
d="M419 888h76l132 -171h-76l-96 127l-139 -127h-89zM166 666h76l-70 -396q-17 -95 26.5 -150.5t137.5 -55.5q74 0 123 46.5t64 129.5l73 426h76l-76 -434q-13 -72 -50 -126t-92 -84t-122 -30q-83 0 -140.5 36t-83 100t-10.5 148z" />
    <glyph glyph-name="Udieresis" unicode="&#xdc;" horiz-adv-x="602" 
d="M507 807h86l-16 -90h-86zM293 807h86l-16 -90h-86zM166 666h76l-70 -396q-17 -95 26.5 -150.5t137.5 -55.5q74 0 123 46.5t64 129.5l73 426h76l-76 -434q-13 -72 -50 -126t-92 -84t-122 -30q-83 0 -140.5 36t-83 100t-10.5 148z" />
    <glyph glyph-name="Yacute" unicode="&#xdd;" horiz-adv-x="595" 
d="M598 880l-156 -163h-68l129 163h95zM300 229l-149 437h81l115 -350l242 350h93l-308 -437l-40 -229h-75z" />
    <glyph glyph-name="Thorn" unicode="&#xde;" horiz-adv-x="579" 
d="M172 666h75l-19 -111h186q89 0 140 -49.5t51 -132.5q0 -62 -29 -116.5t-83.5 -88t-130.5 -33.5h-208l-24 -135h-76zM216 487l-50 -283h184q64 0 103 26.5t57 66.5t18 80q0 53 -33 81.5t-95 28.5h-184z" />
    <glyph glyph-name="germandbls" unicode="&#xdf;" horiz-adv-x="575" 
d="M415 656q-79 0 -133 -47.5t-68 -128.5l-84 -480h-76l86 487q12 71 50.5 124.5t96.5 83.5t127 30q59 0 104.5 -23.5t72 -64t26.5 -92.5q0 -63 -35.5 -113.5t-92.5 -73.5q38 -20 59 -57t21 -87q0 -60 -31 -108.5t-83.5 -77t-117.5 -28.5h-113l13 70h86q76 0 123 45t47 118
q0 45 -28 69.5t-81 24.5h-66l12 68h66q40 0 72.5 19.5t51.5 52.5t19 75q0 51 -34.5 82.5t-89.5 31.5z" />
    <glyph glyph-name="agrave" unicode="&#xe0;" horiz-adv-x="526" 
d="M247 735h84l95 -163h-61zM531 330l-58 -330h-78l13 72q-33 -39 -78 -60.5t-97 -21.5q-72 0 -117.5 39t-45.5 101q0 69 46.5 113t127.5 47l145 4q32 1 46.5 8.5t19.5 25.5l2 10q9 53 -28 87t-100 34q-109 0 -138 -92h-80q18 72 77.5 114t143.5 42q66 0 114 -25.5t71 -69
t14 -98.5zM148 138q0 -38 29 -60.5t78 -22.5q62 0 110 37.5t65 97.5l8 43l-179 -5q-56 -2 -83.5 -26.5t-27.5 -63.5z" />
    <glyph glyph-name="aacute" unicode="&#xe1;" horiz-adv-x="526" 
d="M533 735l-157 -163h-68l130 163h95zM531 330l-58 -330h-78l13 72q-33 -39 -78 -60.5t-97 -21.5q-72 0 -117.5 39t-45.5 101q0 69 46.5 113t127.5 47l145 4q32 1 46.5 8.5t19.5 25.5l2 10q9 53 -28 87t-100 34q-109 0 -138 -92h-80q18 72 77.5 114t143.5 42
q66 0 114 -25.5t71 -69t14 -98.5zM148 138q0 -38 29 -60.5t78 -22.5q62 0 110 37.5t65 97.5l8 43l-179 -5q-56 -2 -83.5 -26.5t-27.5 -63.5z" />
    <glyph glyph-name="acircumflex" unicode="&#xe2;" horiz-adv-x="526" 
d="M353 743h76l132 -171h-77l-95 127l-139 -127h-90zM531 330l-58 -330h-78l13 72q-33 -39 -78 -60.5t-97 -21.5q-72 0 -117.5 39t-45.5 101q0 69 46.5 113t127.5 47l145 4q32 1 46.5 8.5t19.5 25.5l2 10q9 53 -28 87t-100 34q-109 0 -138 -92h-80q18 72 77.5 114t143.5 42
q66 0 114 -25.5t71 -69t14 -98.5zM148 138q0 -38 29 -60.5t78 -22.5q62 0 110 37.5t65 97.5l8 43l-179 -5q-56 -2 -83.5 -26.5t-27.5 -63.5z" />
    <glyph glyph-name="atilde" unicode="&#xe3;" horiz-adv-x="526" 
d="M305 724q32 0 50.5 -17t32.5 -35q12 -16 23.5 -29.5t31.5 -13.5q24 0 42 24t25 65h57q-12 -70 -47 -110t-84 -40q-32 0 -48 14.5t-29 31.5t-24.5 32.5t-30.5 15.5q-24 0 -42.5 -24.5t-25.5 -65.5h-60q13 72 46.5 112t82.5 40zM531 330l-58 -330h-78l13 72
q-33 -39 -78 -60.5t-97 -21.5q-72 0 -117.5 39t-45.5 101q0 69 46.5 113t127.5 47l145 4q32 1 46.5 8.5t19.5 25.5l2 10q9 53 -28 87t-100 34q-109 0 -138 -92h-80q18 72 77.5 114t143.5 42q66 0 114 -25.5t71 -69t14 -98.5zM148 138q0 -38 29 -60.5t78 -22.5q62 0 110 37.5
t65 97.5l8 43l-179 -5q-56 -2 -83.5 -26.5t-27.5 -63.5z" />
    <glyph glyph-name="adieresis" unicode="&#xe4;" horiz-adv-x="526" 
d="M440 662h87l-16 -90h-87zM226 662h87l-16 -90h-86zM531 330l-58 -330h-78l13 72q-33 -39 -78 -60.5t-97 -21.5q-72 0 -117.5 39t-45.5 101q0 69 46.5 113t127.5 47l145 4q32 1 46.5 8.5t19.5 25.5l2 10q9 53 -28 87t-100 34q-109 0 -138 -92h-80q18 72 77.5 114t143.5 42
q66 0 114 -25.5t71 -69t14 -98.5zM148 138q0 -38 29 -60.5t78 -22.5q62 0 110 37.5t65 97.5l8 43l-179 -5q-56 -2 -83.5 -26.5t-27.5 -63.5z" />
    <glyph glyph-name="aring" unicode="&#xe5;" horiz-adv-x="526" 
d="M506 721q0 -45 -19.5 -80t-53.5 -55.5t-77 -20.5q-58 0 -92.5 33t-34.5 87q0 45 19 80.5t53 55.5t76 20q59 0 94 -32.5t35 -87.5zM290 687q0 -32 18.5 -49.5t52.5 -17.5q37 0 60.5 27.5t23.5 71.5q0 32 -19 49.5t-53 17.5q-37 0 -60 -27t-23 -72zM531 330l-58 -330h-78
l13 72q-33 -39 -78 -60.5t-97 -21.5q-72 0 -117.5 39t-45.5 101q0 69 46.5 113t127.5 47l145 4q32 1 46.5 8.5t19.5 25.5l2 10q9 53 -28 87t-100 34q-109 0 -138 -92h-80q18 72 77.5 114t143.5 42q66 0 114 -25.5t71 -69t14 -98.5zM148 138q0 -38 29 -60.5t78 -22.5
q62 0 110 37.5t65 97.5l8 43l-179 -5q-56 -2 -83.5 -26.5t-27.5 -63.5z" />
    <glyph glyph-name="ae" unicode="&#xe6;" horiz-adv-x="917" 
d="M678 -9q-82 0 -137 36.5t-77 101.5q-32 -64 -92 -101.5t-132 -37.5q-75 0 -122.5 39t-47.5 101q0 69 46.5 112.5t127.5 46.5l145 5q32 1 46.5 8.5t19.5 26.5l2 9q9 52 -28 86.5t-101 34.5q-108 0 -137 -92h-80q18 72 77 114t143 42q66 0 114.5 -27t69.5 -72
q34 45 83.5 71.5t111.5 26.5q76 0 128 -35t74 -93.5t10 -129.5l-6 -30h-396v-23q0 -75 40 -114t116 -39q54 0 92 26t57 74h84q-62 -167 -231 -167zM709 457q-68 0 -115.5 -43.5t-65.5 -119.5h319q11 73 -28.5 118t-109.5 45zM148 139q0 -37 29.5 -60t77.5 -23
q66 0 116.5 42.5t62.5 110.5v0l5 25l-180 -5q-56 -2 -83.5 -26.5t-27.5 -63.5z" />
    <glyph glyph-name="ccedilla" unicode="&#xe7;" horiz-adv-x="559" 
d="M84 215q0 89 35 158.5t95 110t135 40.5q98 0 154.5 -56.5t56.5 -149.5h-77q0 63 -37 99.5t-103 36.5q-51 0 -92 -31.5t-65 -86t-24 -122.5q0 -74 39 -114.5t112 -40.5q55 0 95.5 33.5t53.5 87.5h80q-21 -88 -83.5 -139t-150.5 -51h-1l-18 -45h16q41 0 63.5 -27.5
t22.5 -66.5q0 -59 -38 -92.5t-106 -33.5h-103l11 65h83q40 0 63 18t23 48q0 35 -45 35h-34l-20 33l29 71q-79 16 -124.5 74t-45.5 146z" />
    <glyph glyph-name="egrave" unicode="&#xe8;" horiz-adv-x="566" 
d="M260 735h84l96 -163h-61zM84 215q0 85 32.5 154.5t91.5 111t138 41.5q78 0 131 -35t76 -93.5t11 -129.5l-5 -30h-397q-1 -11 -1 -23q0 -75 40 -114t117 -39q54 0 91.5 26t57.5 74h84q-30 -82 -90 -124.5t-144 -42.5q-108 0 -170.5 60t-62.5 164zM350 457
q-68 0 -115.5 -43.5t-64.5 -119.5h320q10 73 -30 118t-110 45z" />
    <glyph glyph-name="eacute" unicode="&#xe9;" horiz-adv-x="566" 
d="M546 735l-156 -163h-68l129 163h95zM84 215q0 85 32.5 154.5t91.5 111t138 41.5q78 0 131 -35t76 -93.5t11 -129.5l-5 -30h-397q-1 -11 -1 -23q0 -75 40 -114t117 -39q54 0 91.5 26t57.5 74h84q-30 -82 -90 -124.5t-144 -42.5q-108 0 -170.5 60t-62.5 164zM350 457
q-68 0 -115.5 -43.5t-64.5 -119.5h320q10 73 -30 118t-110 45z" />
    <glyph glyph-name="ecircumflex" unicode="&#xea;" horiz-adv-x="566" 
d="M367 743h76l132 -171h-76l-96 127l-139 -127h-89zM84 215q0 85 32.5 154.5t91.5 111t138 41.5q78 0 131 -35t76 -93.5t11 -129.5l-5 -30h-397q-1 -11 -1 -23q0 -75 40 -114t117 -39q54 0 91.5 26t57.5 74h84q-30 -82 -90 -124.5t-144 -42.5q-108 0 -170.5 60t-62.5 164z
M350 457q-68 0 -115.5 -43.5t-64.5 -119.5h320q10 73 -30 118t-110 45z" />
    <glyph glyph-name="edieresis" unicode="&#xeb;" horiz-adv-x="566" 
d="M455 662h86l-16 -90h-86zM241 662h86l-16 -90h-86zM84 215q0 85 32.5 154.5t91.5 111t138 41.5q78 0 131 -35t76 -93.5t11 -129.5l-5 -30h-397q-1 -11 -1 -23q0 -75 40 -114t117 -39q54 0 91.5 26t57.5 74h84q-30 -82 -90 -124.5t-144 -42.5q-108 0 -170.5 60t-62.5 164z
M350 457q-68 0 -115.5 -43.5t-64.5 -119.5h320q10 73 -30 118t-110 45z" />
    <glyph glyph-name="igrave" unicode="&#xec;" 
d="M73 736h84l95 -163h-60zM145 512h75l-90 -512h-76z" />
    <glyph glyph-name="iacute" unicode="&#xed;" 
d="M359 736l-156 -163h-68l129 163h95zM145 512h75l-90 -512h-76z" />
    <glyph glyph-name="icircumflex" unicode="&#xee;" 
d="M180 744h76l132 -171h-77l-95 127l-139 -127h-89zM145 512h75l-90 -512h-76z" />
    <glyph glyph-name="idieresis" unicode="&#xef;" 
d="M268 663h86l-16 -90h-87zM54 663h86l-16 -90h-86zM145 512h75l-90 -512h-76z" />
    <glyph glyph-name="eth" unicode="&#xf0;" horiz-adv-x="587" 
d="M227 615l140 25q-32 43 -69 77h94q30 -31 54 -63l110 20v-61l-74 -14q61 -109 61 -247q0 -108 -33 -189t-92.5 -126t-138.5 -45q-70 0 -122.5 33.5t-82.5 92.5t-30 136q0 75 28.5 134t77.5 92.5t112 33.5q68 0 122.5 -40t78.5 -108q1 11 1.5 18t0.5 13q0 42 -17 91
t-45 97l-176 -31v61zM442 256q0 56 -20.5 98.5t-57.5 66.5t-85 24q-71 0 -114 -52.5t-43 -140.5q0 -87 42 -139t112 -52q48 0 85.5 25t59 69t21.5 101z" />
    <glyph glyph-name="ntilde" unicode="&#xf1;" horiz-adv-x="538" 
d="M317 725q32 0 50.5 -17t32.5 -35q11 -16 23 -29.5t31 -13.5q24 0 42.5 24t25.5 65h57q-12 -70 -47.5 -110t-83.5 -40q-32 0 -48 14.5t-29 31.5t-24.5 32.5t-30.5 15.5q-24 0 -43 -24.5t-25 -65.5h-60q13 72 46 112t83 40zM144 512h76l-13 -76q33 40 77.5 63t94.5 23
q56 0 96.5 -30.5t58.5 -80t7 -108.5l-54 -303h-75l52 295q13 72 -17.5 114t-95.5 42q-62 0 -106 -35t-58 -96l-56 -320h-76z" />
    <glyph glyph-name="ograve" unicode="&#xf2;" horiz-adv-x="568" 
d="M253 735h84l96 -162h-61zM84 215q0 88 35 158t95 110.5t135 40.5q67 0 116.5 -28t77 -78t27.5 -118q0 -88 -35 -158t-95 -111t-135 -41q-67 0 -116.5 28t-77 78.5t-27.5 118.5zM493 301q0 72 -39.5 112.5t-109.5 40.5q-49 0 -90.5 -30.5t-66.5 -84.5t-25 -124
q0 -74 39.5 -114.5t109.5 -40.5q48 0 89.5 31t67 85t25.5 125z" />
    <glyph glyph-name="oacute" unicode="&#xf3;" horiz-adv-x="568" 
d="M540 735l-157 -162h-68l130 162h95zM84 215q0 88 35 158t95 110.5t135 40.5q67 0 116.5 -28t77 -78t27.5 -118q0 -88 -35 -158t-95 -111t-135 -41q-67 0 -116.5 28t-77 78.5t-27.5 118.5zM493 301q0 72 -39.5 112.5t-109.5 40.5q-49 0 -90.5 -30.5t-66.5 -84.5t-25 -124
q0 -74 39.5 -114.5t109.5 -40.5q48 0 89.5 31t67 85t25.5 125z" />
    <glyph glyph-name="ocircumflex" unicode="&#xf4;" horiz-adv-x="568" 
d="M360 744h76l132 -171h-76l-96 127l-139 -127h-89zM84 215q0 88 35 158t95 110.5t135 40.5q67 0 116.5 -28t77 -78t27.5 -118q0 -88 -35 -158t-95 -111t-135 -41q-67 0 -116.5 28t-77 78.5t-27.5 118.5zM493 301q0 72 -39.5 112.5t-109.5 40.5q-49 0 -90.5 -30.5
t-66.5 -84.5t-25 -124q0 -74 39.5 -114.5t109.5 -40.5q48 0 89.5 31t67 85t25.5 125z" />
    <glyph glyph-name="otilde" unicode="&#xf5;" horiz-adv-x="568" 
d="M312 725q33 0 51.5 -17t31.5 -35q12 -17 24 -30t31 -13q24 0 42.5 24t25.5 64h57q-12 -69 -47.5 -109t-83.5 -40q-32 0 -48.5 14.5t-29.5 31.5t-24 32.5t-31 15.5q-24 0 -42.5 -24.5t-25.5 -65.5h-59q12 71 45.5 111.5t82.5 40.5zM84 215q0 88 35 158t95 110.5t135 40.5
q67 0 116.5 -28t77 -78t27.5 -118q0 -88 -35 -158t-95 -111t-135 -41q-67 0 -116.5 28t-77 78.5t-27.5 118.5zM493 301q0 72 -39.5 112.5t-109.5 40.5q-49 0 -90.5 -30.5t-66.5 -84.5t-25 -124q0 -74 39.5 -114.5t109.5 -40.5q48 0 89.5 31t67 85t25.5 125z" />
    <glyph glyph-name="odieresis" unicode="&#xf6;" horiz-adv-x="568" 
d="M448 663h86l-16 -90h-86zM234 663h86l-16 -90h-85zM84 215q0 88 35 158t95 110.5t135 40.5q67 0 116.5 -28t77 -78t27.5 -118q0 -88 -35 -158t-95 -111t-135 -41q-67 0 -116.5 28t-77 78.5t-27.5 118.5zM493 301q0 72 -39.5 112.5t-109.5 40.5q-49 0 -90.5 -30.5
t-66.5 -84.5t-25 -124q0 -74 39.5 -114.5t109.5 -40.5q48 0 89.5 31t67 85t25.5 125z" />
    <glyph glyph-name="divide" unicode="&#xf7;" horiz-adv-x="482" 
d="M292 527h83l-16 -88h-82zM90 316h413l-11 -66h-414zM218 110h83l-16 -87h-82z" />
    <glyph glyph-name="oslash" unicode="&#xf8;" horiz-adv-x="568" 
d="M84 215q0 88 35 158t95 110.5t135 40.5q91 0 150 -51l72 74l39 -37l-76 -79q36 -55 36 -131q0 -88 -35 -158t-95 -111t-135 -41q-89 0 -148 50l-72 -75l-40 38l76 78q-37 56 -37 134zM161 215q0 -45 14 -77l273 282q-39 34 -104 34q-50 0 -91.5 -30.5t-66.5 -84.5
t-25 -124zM494 301q0 42 -14 74l-272 -282q39 -33 103 -33q49 0 90.5 31t67 85t25.5 125z" />
    <glyph glyph-name="ugrave" unicode="&#xf9;" horiz-adv-x="530" 
d="M242 736h84l96 -163h-61zM164 217q-13 -72 15 -114t93 -42q66 0 110 40t54 108h1l53 303h74l-89 -512h-75l13 74q-32 -39 -76 -61t-93 -22q-56 0 -95.5 29.5t-56 79t-5.5 109.5l54 303h76z" />
    <glyph glyph-name="uacute" unicode="&#xfa;" horiz-adv-x="530" 
d="M529 736l-157 -163h-68l130 163h95zM164 217q-13 -72 15 -114t93 -42q66 0 110 40t54 108h1l53 303h74l-89 -512h-75l13 74q-32 -39 -76 -61t-93 -22q-56 0 -95.5 29.5t-56 79t-5.5 109.5l54 303h76z" />
    <glyph glyph-name="ucircumflex" unicode="&#xfb;" horiz-adv-x="530" 
d="M349 744h75l132 -171h-76l-96 127l-139 -127h-89zM164 217q-13 -72 15 -114t93 -42q66 0 110 40t54 108h1l53 303h74l-89 -512h-75l13 74q-32 -39 -76 -61t-93 -22q-56 0 -95.5 29.5t-56 79t-5.5 109.5l54 303h76z" />
    <glyph glyph-name="udieresis" unicode="&#xfc;" horiz-adv-x="530" 
d="M436 663h86l-16 -90h-86zM222 663h86l-16 -90h-85zM164 217q-13 -72 15 -114t93 -42q66 0 110 40t54 108h1l53 303h74l-89 -512h-75l13 74q-32 -39 -76 -61t-93 -22q-56 0 -95.5 29.5t-56 79t-5.5 109.5l54 303h76z" />
    <glyph glyph-name="yacute" unicode="&#xfd;" horiz-adv-x="557" 
d="M554 736l-157 -163h-68l130 163h95zM43 -90h73q36 0 57 14.5t41 51.5l19 38l-109 498h78l90 -420l233 420h88l-307 -544q-39 -70 -78.5 -100.5t-97.5 -30.5h-97z" />
    <glyph glyph-name="thorn" unicode="&#xfe;" horiz-adv-x="575" 
d="M181 717h77l-50 -285q30 42 72.5 66.5t95.5 24.5q62 0 108.5 -27.5t72.5 -77.5t26 -117q0 -88 -34 -158t-92 -111t-130 -41q-71 0 -114.5 32t-60.5 92l-49 -282h-76zM505 301q0 72 -39 112.5t-109 40.5q-49 0 -90.5 -30.5t-66 -84.5t-24.5 -124q0 -74 38.5 -114.5
t109.5 -40.5q48 0 89.5 31t66.5 85t25 125z" />
    <glyph glyph-name="ydieresis" unicode="&#xff;" horiz-adv-x="557" 
d="M462 663h86l-16 -90h-86zM248 663h86l-16 -90h-85zM43 -90h73q36 0 57 14.5t41 51.5l19 38l-109 498h78l90 -420l233 420h88l-307 -544q-39 -70 -78.5 -100.5t-97.5 -30.5h-97z" />
    <glyph glyph-name="Amacron" unicode="&#x100;" horiz-adv-x="641" 
d="M295 799h318l-11 -64h-318zM609 0h-77l-33 178h-284l-95 -178h-87l363 666h86zM426 576l-176 -332h237z" />
    <glyph glyph-name="amacron" unicode="&#x101;" horiz-adv-x="526" 
d="M216 654h317l-11 -64h-317zM531 330l-58 -330h-78l13 72q-33 -39 -78 -60.5t-97 -21.5q-72 0 -117.5 39t-45.5 101q0 69 46.5 113t127.5 47l145 4q32 1 46.5 8.5t19.5 25.5l2 10q9 53 -28 87t-100 34q-109 0 -138 -92h-80q18 72 77.5 114t143.5 42q66 0 114 -25.5t71 -69
t14 -98.5zM148 138q0 -38 29 -60.5t78 -22.5q62 0 110 37.5t65 97.5l8 43l-179 -5q-56 -2 -83.5 -26.5t-27.5 -63.5z" />
    <glyph glyph-name="Abreve" unicode="&#x102;" horiz-adv-x="641" 
d="M640 867q-16 -69 -65 -110t-121 -41q-81 0 -123 41.5t-36 109.5h71q-2 -45 19 -69t67 -24q47 0 76 24t42 69h70zM609 0h-77l-33 178h-284l-95 -178h-87l363 666h86zM426 576l-176 -332h237z" />
    <glyph glyph-name="abreve" unicode="&#x103;" horiz-adv-x="526" 
d="M561 722q-16 -69 -65.5 -110t-120.5 -41q-82 0 -124 41.5t-35 109.5h71q-3 -45 18 -69t68 -24q46 0 75.5 24t42.5 69h70zM531 330l-58 -330h-78l13 72q-33 -39 -78 -60.5t-97 -21.5q-72 0 -117.5 39t-45.5 101q0 69 46.5 113t127.5 47l145 4q32 1 46.5 8.5t19.5 25.5
l2 10q9 53 -28 87t-100 34q-109 0 -138 -92h-80q18 72 77.5 114t143.5 42q66 0 114 -25.5t71 -69t14 -98.5zM148 138q0 -38 29 -60.5t78 -22.5q62 0 110 37.5t65 97.5l8 43l-179 -5q-56 -2 -83.5 -26.5t-27.5 -63.5z" />
    <glyph glyph-name="Aogonek" unicode="&#x104;" horiz-adv-x="641" 
d="M609 0q-69 -45 -98.5 -82.5t-29.5 -80.5q0 -51 68 -51h65l-12 -67h-67q-56 0 -90.5 27.5t-34.5 74.5q0 55 35.5 100.5t102.5 78.5h-16l-33 178h-284l-95 -178h-87l363 666h86zM426 576l-176 -332h237z" />
    <glyph glyph-name="aogonek" unicode="&#x105;" horiz-adv-x="526" 
d="M473 0q-69 -45 -98 -82.5t-29 -80.5q0 -51 67 -51h65l-12 -67h-67q-56 0 -90 27.5t-34 74.5q0 55 35.5 100.5t101.5 78.5h-17l13 72q-33 -39 -78 -60.5t-97 -21.5q-72 0 -117.5 39t-45.5 101q0 69 46.5 113t127.5 47l145 4q32 1 46.5 8.5t19.5 25.5l2 10q9 53 -28 87
t-100 34q-109 0 -138 -92h-80q18 72 77.5 114t143.5 42q66 0 114 -25.5t71 -69t14 -98.5zM148 138q0 -38 29 -60.5t78 -22.5q62 0 110 37.5t65 97.5l8 43l-179 -5q-56 -2 -83.5 -26.5t-27.5 -63.5z" />
    <glyph glyph-name="Cacute" unicode="&#x106;" horiz-adv-x="659" 
d="M625 880l-157 -163h-68l130 163h95zM97 273q0 85 25.5 158t71 128t106 85.5t131.5 30.5q77 0 135 -28.5t90.5 -81.5t32.5 -124h-77q0 77 -49.5 120t-136.5 43q-71 0 -127.5 -44t-89.5 -120t-33 -171q0 -99 50.5 -152t145.5 -53q49 0 91.5 19.5t72.5 54.5t42 79h80
q-28 -103 -106.5 -164t-188.5 -61q-123 0 -194.5 75.5t-71.5 205.5z" />
    <glyph glyph-name="cacute" unicode="&#x107;" horiz-adv-x="559" 
d="M548 734l-156 -163h-69l130 163h95zM84 215q0 89 35 158.5t95 110t135 40.5q98 0 154.5 -56.5t56.5 -149.5h-77q0 63 -37 99.5t-103 36.5q-51 0 -92 -31.5t-65 -86t-24 -122.5q0 -74 39 -114.5t112 -40.5q55 0 95.5 33.5t53.5 87.5h80q-21 -88 -83.5 -139t-150.5 -51
q-103 0 -163.5 61.5t-60.5 163.5z" />
    <glyph glyph-name="Ccircumflex" unicode="&#x108;" horiz-adv-x="659" 
d="M445 888h76l132 -171h-76l-96 127l-139 -127h-89zM97 273q0 85 25.5 158t71 128t106 85.5t131.5 30.5q77 0 135 -28.5t90.5 -81.5t32.5 -124h-77q0 77 -49.5 120t-136.5 43q-71 0 -127.5 -44t-89.5 -120t-33 -171q0 -99 50.5 -152t145.5 -53q49 0 91.5 19.5t72.5 54.5
t42 79h80q-28 -103 -106.5 -164t-188.5 -61q-123 0 -194.5 75.5t-71.5 205.5z" />
    <glyph glyph-name="ccircumflex" unicode="&#x109;" horiz-adv-x="559" 
d="M369 742h76l132 -171h-77l-95 128l-139 -128h-90zM84 215q0 89 35 158.5t95 110t135 40.5q98 0 154.5 -56.5t56.5 -149.5h-77q0 63 -37 99.5t-103 36.5q-51 0 -92 -31.5t-65 -86t-24 -122.5q0 -74 39 -114.5t112 -40.5q55 0 95.5 33.5t53.5 87.5h80q-21 -88 -83.5 -139
t-150.5 -51q-103 0 -163.5 61.5t-60.5 163.5z" />
    <glyph glyph-name="Cdotaccent" unicode="&#x10a;" horiz-adv-x="659" 
d="M429 811h89l-16 -94h-89zM97 273q0 85 25.5 158t71 128t106 85.5t131.5 30.5q77 0 135 -28.5t90.5 -81.5t32.5 -124h-77q0 77 -49.5 120t-136.5 43q-71 0 -127.5 -44t-89.5 -120t-33 -171q0 -99 50.5 -152t145.5 -53q49 0 91.5 19.5t72.5 54.5t42 79h80
q-28 -103 -106.5 -164t-188.5 -61q-123 0 -194.5 75.5t-71.5 205.5z" />
    <glyph glyph-name="cdotaccent" unicode="&#x10b;" horiz-adv-x="559" 
d="M353 665h89l-16 -94h-90zM84 215q0 89 35 158.5t95 110t135 40.5q98 0 154.5 -56.5t56.5 -149.5h-77q0 63 -37 99.5t-103 36.5q-51 0 -92 -31.5t-65 -86t-24 -122.5q0 -74 39 -114.5t112 -40.5q55 0 95.5 33.5t53.5 87.5h80q-21 -88 -83.5 -139t-150.5 -51
q-103 0 -163.5 61.5t-60.5 163.5z" />
    <glyph glyph-name="Ccaron" unicode="&#x10c;" horiz-adv-x="659" 
d="M492 717h-77l-132 171h78l96 -127l139 127h87zM97 273q0 85 25.5 158t71 128t106 85.5t131.5 30.5q77 0 135 -28.5t90.5 -81.5t32.5 -124h-77q0 77 -49.5 120t-136.5 43q-71 0 -127.5 -44t-89.5 -120t-33 -171q0 -99 50.5 -152t145.5 -53q49 0 91.5 19.5t72.5 54.5t42 79
h80q-28 -103 -106.5 -164t-188.5 -61q-123 0 -194.5 75.5t-71.5 205.5z" />
    <glyph glyph-name="ccaron" unicode="&#x10d;" horiz-adv-x="559" 
d="M415 571h-76l-132 171h78l95 -127l139 127h88zM84 215q0 89 35 158.5t95 110t135 40.5q98 0 154.5 -56.5t56.5 -149.5h-77q0 63 -37 99.5t-103 36.5q-51 0 -92 -31.5t-65 -86t-24 -122.5q0 -74 39 -114.5t112 -40.5q55 0 95.5 33.5t53.5 87.5h80q-21 -88 -83.5 -139
t-150.5 -51q-103 0 -163.5 61.5t-60.5 163.5z" />
    <glyph glyph-name="Dcaron" unicode="&#x10e;" horiz-adv-x="635" 
d="M453 717h-77l-132 171h78l96 -127l139 127h88zM408 666q117 0 182.5 -73t65.5 -198q0 -75 -22 -146t-63.5 -127t-101 -89t-134.5 -33h-281l118 666h236zM235 596l-93 -526h182q68 0 116 32.5t78.5 83.5t44.5 108.5t14 107.5q0 93 -46 143.5t-134 50.5h-162z" />
    <glyph glyph-name="dcaron" unicode="&#x10f;" horiz-adv-x="600" 
d="M648 717l-126 -717h-76l15 84q-32 -43 -75.5 -67.5t-96.5 -24.5q-93 0 -149 60t-56 162q0 88 34 158.5t92 111.5t130 41q70 0 114 -34t62 -92l56 318h76zM731 716h73l-73 -204h-66zM162 216q0 -75 39 -115.5t109 -40.5q49 0 90.5 30.5t67 84.5t25.5 124q0 74 -39 114.5
t-109 40.5q-50 0 -91.5 -30.5t-66.5 -84t-25 -123.5z" />
    <glyph glyph-name="Dcroat" unicode="&#x110;" horiz-adv-x="723" 
d="M94 359h113l54 307h237q116 0 181 -73t65 -198q0 -75 -22 -146t-63.5 -127t-100.5 -89t-134 -33h-281l52 291h-113zM323 596l-42 -237h197l-12 -68h-196l-39 -221h182q68 0 116 32.5t78 83.5t44.5 108.5t14.5 107.5q0 93 -46.5 143.5t-133.5 50.5h-163z" />
    <glyph glyph-name="dcroat" unicode="&#x111;" horiz-adv-x="624" 
d="M371 649h189l12 68h76l-12 -68h85l-11 -59h-85l-103 -590h-76l14 83q-31 -42 -74.5 -66.5t-96.5 -24.5q-93 0 -149 59.5t-56 160.5q0 88 34 158t92 110.5t130 40.5q70 0 114 -33.5t62 -90.5l33 193h-189zM162 214q0 -74 39 -114t109 -40q49 0 90.5 30.5t66.5 84t25 123.5
q0 72 -38.5 112.5t-108.5 40.5q-50 0 -91.5 -30.5t-66.5 -83.5t-25 -123z" />
    <glyph glyph-name="Emacron" unicode="&#x112;" horiz-adv-x="547" 
d="M265 799h317l-11 -64h-317zM621 666l-13 -72h-374l-38 -218h345l-13 -72h-345l-41 -233h374l-12 -71h-450l118 666h449z" />
    <glyph glyph-name="emacron" unicode="&#x113;" horiz-adv-x="566" 
d="M230 654h317l-10 -64h-318zM84 215q0 85 32.5 154.5t91.5 111t138 41.5q78 0 131 -35t76 -93.5t11 -129.5l-5 -30h-397q-1 -11 -1 -23q0 -75 40 -114t117 -39q54 0 91.5 26t57.5 74h84q-30 -82 -90 -124.5t-144 -42.5q-108 0 -170.5 60t-62.5 164zM350 457
q-68 0 -115.5 -43.5t-64.5 -119.5h320q10 73 -30 118t-110 45z" />
    <glyph glyph-name="Ebreve" unicode="&#x114;" horiz-adv-x="547" 
d="M610 867q-16 -69 -65.5 -110t-120.5 -41q-82 0 -124 41.5t-35 109.5h71q-3 -45 18 -69t68 -24q46 0 75.5 24t42.5 69h70zM621 666l-13 -72h-374l-38 -218h345l-13 -72h-345l-41 -233h374l-12 -71h-450l118 666h449z" />
    <glyph glyph-name="ebreve" unicode="&#x115;" horiz-adv-x="566" 
d="M575 722q-16 -69 -65 -110t-121 -41q-81 0 -123.5 41.5t-35.5 109.5h71q-3 -45 18.5 -69t67.5 -24t75.5 24t42.5 69h70zM84 215q0 85 32.5 154.5t91.5 111t138 41.5q78 0 131 -35t76 -93.5t11 -129.5l-5 -30h-397q-1 -11 -1 -23q0 -75 40 -114t117 -39q54 0 91.5 26
t57.5 74h84q-30 -82 -90 -124.5t-144 -42.5q-108 0 -170.5 60t-62.5 164zM350 457q-68 0 -115.5 -43.5t-64.5 -119.5h320q10 73 -30 118t-110 45z" />
    <glyph glyph-name="Edotaccent" unicode="&#x116;" horiz-adv-x="547" 
d="M386 811h89l-16 -94h-90zM621 666l-13 -72h-374l-38 -218h345l-13 -72h-345l-41 -233h374l-12 -71h-450l118 666h449z" />
    <glyph glyph-name="edotaccent" unicode="&#x117;" horiz-adv-x="566" 
d="M351 666h89l-16 -94h-89zM84 215q0 85 32.5 154.5t91.5 111t138 41.5q78 0 131 -35t76 -93.5t11 -129.5l-5 -30h-397q-1 -11 -1 -23q0 -75 40 -114t117 -39q54 0 91.5 26t57.5 74h84q-30 -82 -90 -124.5t-144 -42.5q-108 0 -170.5 60t-62.5 164zM350 457
q-68 0 -115.5 -43.5t-64.5 -119.5h320q10 73 -30 118t-110 45z" />
    <glyph glyph-name="Eogonek" unicode="&#x118;" horiz-adv-x="547" 
d="M484 0q-69 -45 -98 -82.5t-29 -80.5q0 -51 67 -51h65l-12 -67h-67q-56 0 -90 27.5t-34 74.5q0 55 35.5 100.5t101.5 78.5h-369l118 666h449l-13 -72h-374l-38 -218h345l-13 -72h-345l-41 -233h374l-12 -71h-20z" />
    <glyph glyph-name="eogonek" unicode="&#x119;" horiz-adv-x="566" 
d="M84 215q0 85 32.5 154.5t91.5 111t138 41.5q78 0 131 -35t76 -93.5t11 -129.5l-5 -30h-397q-1 -11 -1 -23q0 -75 40 -114t117 -39q54 0 91.5 26t57.5 74h84q-36 -97 -113 -139q-63 -42 -89.5 -77.5t-26.5 -77.5q0 -51 68 -51h65l-12 -67h-68q-55 0 -89.5 27.5t-34.5 74.5
q0 83 79 143h-13q-108 0 -170.5 60t-62.5 164zM350 457q-68 0 -115.5 -43.5t-64.5 -119.5h320q10 73 -30 118t-110 45z" />
    <glyph glyph-name="Ecaron" unicode="&#x11a;" horiz-adv-x="547" 
d="M448 717h-76l-132 171h78l95 -127l139 127h88zM621 666l-13 -72h-374l-38 -218h345l-13 -72h-345l-41 -233h374l-12 -71h-450l118 666h449z" />
    <glyph glyph-name="ecaron" unicode="&#x11b;" horiz-adv-x="566" 
d="M414 572h-77l-132 171h78l96 -127l139 127h87zM84 215q0 85 32.5 154.5t91.5 111t138 41.5q78 0 131 -35t76 -93.5t11 -129.5l-5 -30h-397q-1 -11 -1 -23q0 -75 40 -114t117 -39q54 0 91.5 26t57.5 74h84q-30 -82 -90 -124.5t-144 -42.5q-108 0 -170.5 60t-62.5 164z
M350 457q-68 0 -115.5 -43.5t-64.5 -119.5h320q10 73 -30 118t-110 45z" />
    <glyph glyph-name="Gcircumflex" unicode="&#x11c;" horiz-adv-x="669" 
d="M445 888h75l132 -171h-76l-95 127l-140 -127h-89zM97 272q0 87 24.5 160.5t68 128t103 84.5t130.5 30q81 0 141 -30.5t93 -85.5t33 -130h-78q0 83 -51 129.5t-142 46.5q-71 0 -126 -43.5t-86 -119t-31 -173.5q0 -95 48.5 -150.5t133.5 -55.5q78 0 137.5 58.5t82.5 160.5
h-201l11 67h290l-63 -349h-62l18 124q-40 -63 -98 -97.5t-129 -34.5q-73 0 -128.5 35.5t-87 98.5t-31.5 146z" />
    <glyph glyph-name="gcircumflex" unicode="&#x11d;" horiz-adv-x="575" 
d="M367 743h76l132 -171h-77l-95 127l-139 -127h-90zM612 512l-95 -544q-14 -77 -75 -125t-151 -48q-73 0 -127 23t-84 64.5t-30 96.5h77q0 -52 45.5 -85t121.5 -33q62 0 101 32t48 87l21 118q-33 -42 -77.5 -66t-96.5 -24q-61 0 -106.5 27t-70.5 75.5t-25 112.5
q0 85 33 152.5t90 107.5t127 40q66 0 112 -32t67 -88l19 109h76zM165 227q0 -72 40 -111.5t111 -39.5q62 0 106.5 39t62.5 105l9 52q1 14 1 30q0 70 -39.5 110t-111.5 40q-53 0 -93.5 -28.5t-63 -79.5t-22.5 -117z" />
    <glyph glyph-name="Gbreve" unicode="&#x11e;" horiz-adv-x="669" 
d="M653 867q-16 -69 -65.5 -110t-120.5 -41q-82 0 -124 41.5t-36 109.5h71q-2 -45 19 -69t68 -24q46 0 75.5 24t42.5 69h70zM97 272q0 87 24.5 160.5t68 128t103 84.5t130.5 30q81 0 141 -30.5t93 -85.5t33 -130h-78q0 83 -51 129.5t-142 46.5q-71 0 -126 -43.5t-86 -119
t-31 -173.5q0 -95 48.5 -150.5t133.5 -55.5q78 0 137.5 58.5t82.5 160.5h-201l11 67h290l-63 -349h-62l18 124q-40 -63 -98 -97.5t-129 -34.5q-73 0 -128.5 35.5t-87 98.5t-31.5 146z" />
    <glyph glyph-name="gbreve" unicode="&#x11f;" horiz-adv-x="575" 
d="M575 722q-16 -69 -65.5 -110t-120.5 -41q-82 0 -124 41.5t-35 109.5h71q-3 -45 18 -69t68 -24q46 0 75.5 24t42.5 69h70zM612 512l-95 -544q-14 -77 -75 -125t-151 -48q-73 0 -127 23t-84 64.5t-30 96.5h77q0 -52 45.5 -85t121.5 -33q62 0 101 32t48 87l21 118
q-33 -42 -77.5 -66t-96.5 -24q-61 0 -106.5 27t-70.5 75.5t-25 112.5q0 85 33 152.5t90 107.5t127 40q66 0 112 -32t67 -88l19 109h76zM165 227q0 -72 40 -111.5t111 -39.5q62 0 106.5 39t62.5 105l9 52q1 14 1 30q0 70 -39.5 110t-111.5 40q-53 0 -93.5 -28.5t-63 -79.5
t-22.5 -117z" />
    <glyph glyph-name="Gdotaccent" unicode="&#x120;" horiz-adv-x="669" 
d="M429 811h89l-16 -94h-90zM97 272q0 87 24.5 160.5t68 128t103 84.5t130.5 30q81 0 141 -30.5t93 -85.5t33 -130h-78q0 83 -51 129.5t-142 46.5q-71 0 -126 -43.5t-86 -119t-31 -173.5q0 -95 48.5 -150.5t133.5 -55.5q78 0 137.5 58.5t82.5 160.5h-201l11 67h290l-63 -349
h-62l18 124q-40 -63 -98 -97.5t-129 -34.5q-73 0 -128.5 35.5t-87 98.5t-31.5 146z" />
    <glyph glyph-name="gdotaccent" unicode="&#x121;" horiz-adv-x="575" 
d="M351 666h89l-16 -94h-90zM612 512l-95 -544q-14 -77 -75 -125t-151 -48q-73 0 -127 23t-84 64.5t-30 96.5h77q0 -52 45.5 -85t121.5 -33q62 0 101 32t48 87l21 118q-33 -42 -77.5 -66t-96.5 -24q-61 0 -106.5 27t-70.5 75.5t-25 112.5q0 85 33 152.5t90 107.5t127 40
q66 0 112 -32t67 -88l19 109h76zM165 227q0 -72 40 -111.5t111 -39.5q62 0 106.5 39t62.5 105l9 52q1 14 1 30q0 70 -39.5 110t-111.5 40q-53 0 -93.5 -28.5t-63 -79.5t-22.5 -117z" />
    <glyph glyph-name="uni0122" unicode="&#x122;" horiz-adv-x="669" 
d="M97 272q0 87 24.5 160.5t68 128t103 84.5t130.5 30q81 0 141 -30.5t93 -85.5t33 -130h-78q0 83 -51 129.5t-142 46.5q-71 0 -126 -43.5t-86 -119t-31 -173.5q0 -95 48.5 -150.5t133.5 -55.5q78 0 137.5 58.5t82.5 160.5h-201l11 67h290l-63 -349h-62l18 124
q-40 -63 -98 -97.5t-129 -34.5q-73 0 -128.5 35.5t-87 98.5t-31.5 146zM283 -37h90l-20 -112q-10 -58 -40 -81.5t-64 -23.5h-18l7 44h13q25 0 42.5 13t24.5 54l2 12h-53z" />
    <glyph glyph-name="uni0123" unicode="&#x123;" horiz-adv-x="575" 
d="M499 572h-89l20 112q10 57 40 81t63 24h19l-7 -44h-13q-25 0 -42.5 -13.5t-24.5 -53.5l-2 -12h52zM612 512l-95 -544q-14 -77 -75 -125t-151 -48q-73 0 -127 23t-84 64.5t-30 96.5h77q0 -52 45.5 -85t121.5 -33q62 0 101 32t48 87l21 118q-33 -42 -77.5 -66t-96.5 -24
q-61 0 -106.5 27t-70.5 75.5t-25 112.5q0 85 33 152.5t90 107.5t127 40q66 0 112 -32t67 -88l19 109h76zM165 227q0 -72 40 -111.5t111 -39.5q62 0 106.5 39t62.5 105l9 52q1 14 1 30q0 70 -39.5 110t-111.5 40q-53 0 -93.5 -28.5t-63 -79.5t-22.5 -117z" />
    <glyph glyph-name="Hcircumflex" unicode="&#x124;" horiz-adv-x="633" 
d="M435 888h76l132 -171h-77l-95 127l-139 -127h-90zM172 666h75l-51 -286h374l51 286h75l-118 -666h-75l54 308h-373l-54 -308h-76z" />
    <glyph glyph-name="hcircumflex" unicode="&#x125;" horiz-adv-x="538" 
d="M211 943h76l132 -170h-76l-96 127l-139 -127h-89zM464 295q13 72 -17.5 114t-95.5 42q-64 0 -108.5 -37t-57.5 -101l-54 -313h-76l124 717h76l-49 -281q33 40 78 63t95 23q56 0 96.5 -30.5t58.5 -80t7 -108.5l-54 -303h-75z" />
    <glyph glyph-name="Hbar" unicode="&#x126;" horiz-adv-x="670" 
d="M116 552h55l20 114h75l-21 -114h375l20 114h75l-21 -114h55l-10 -61h-55l-86 -491h-75l54 308h-374l-54 -308h-75l86 491h-55zM215 377h374l20 114h-374z" />
    <glyph glyph-name="hbar" unicode="&#x127;" horiz-adv-x="570" 
d="M497 294q13 72 -18 114t-95 42t-108.5 -36.5t-58.5 -99.5l-54 -314h-75l102 590h-85l11 59h84l12 68h75l-12 -68h192l-11 -59h-191l-27 -157q32 41 77.5 64t96.5 23q55 0 95.5 -30t59 -79.5t7.5 -108.5l-55 -302h-76z" />
    <glyph glyph-name="Itilde" unicode="&#x128;" 
d="M158 869q32 0 50.5 -17t32.5 -35q12 -16 23.5 -29.5t31.5 -13.5q24 0 42 24t25 65h57q-12 -70 -47 -110t-84 -40q-32 0 -48 14.5t-29 31.5t-24.5 32.5t-30.5 15.5q-24 0 -42.5 -24.5t-25.5 -65.5h-60q13 72 46.5 112t82.5 40zM172 666h75l-117 -666h-76z" />
    <glyph glyph-name="itilde" unicode="&#x129;" 
d="M132 725q32 0 50.5 -17t32.5 -35q12 -16 23.5 -29.5t31.5 -13.5q24 0 42.5 24t25.5 65h56q-12 -70 -47 -110t-84 -40q-31 0 -47.5 14.5t-29.5 31.5t-24.5 32.5t-30.5 15.5q-24 0 -42.5 -24.5t-25.5 -65.5h-60q13 72 46.5 112t82.5 40zM145 512h75l-90 -512h-76z" />
    <glyph glyph-name="Imacron" unicode="&#x12a;" 
d="M69 799h317l-11 -64h-317zM172 666h75l-117 -666h-76z" />
    <glyph glyph-name="imacron" unicode="&#x12b;" 
d="M43 655h317l-11 -64h-317zM145 512h75l-90 -512h-76z" />
    <glyph glyph-name="Ibreve" unicode="&#x12c;" 
d="M414 867q-16 -69 -65.5 -110t-120.5 -41q-82 0 -124 41.5t-35 109.5h71q-3 -45 18 -69t68 -24q46 0 75.5 24t42.5 69h70zM172 666h75l-117 -666h-76z" />
    <glyph glyph-name="ibreve" unicode="&#x12d;" 
d="M388 723q-16 -69 -65.5 -110t-120.5 -41q-81 0 -123.5 41.5t-35.5 109.5h71q-3 -45 18.5 -69t67.5 -24t75.5 24t42.5 69h70zM145 512h75l-90 -512h-76z" />
    <glyph glyph-name="Iogonek" unicode="&#x12e;" 
d="M130 0q-69 -45 -98.5 -82.5t-29.5 -80.5q0 -51 68 -51h65l-12 -67h-67q-56 0 -90.5 27.5t-34.5 74.5q0 55 36 100.5t102 78.5h-15l118 666h75z" />
    <glyph glyph-name="iogonek" unicode="&#x12f;" 
d="M166 668h90l-15 -84h-90zM131 0q-69 -45 -98 -82.5t-29 -80.5q0 -51 68 -51h64l-11 -67h-68q-55 0 -89.5 27.5t-34.5 74.5q0 55 35.5 100.5t102.5 78.5h-16l90 512h76z" />
    <glyph glyph-name="Idotaccent" unicode="&#x130;" 
d="M190 811h89l-16 -94h-90zM172 666h75l-117 -666h-76z" />
    <glyph glyph-name="dotlessi" unicode="&#x131;" 
d="M145 512h75l-90 -512h-76z" />
    <glyph glyph-name="IJ" unicode="&#x132;" horiz-adv-x="517" 
d="M221 70h64q33 0 61 12t48.5 43.5t31.5 90.5l79 450h75l-81 -460q-14 -77 -44.5 -122t-70 -64.5t-81.5 -19.5h-92zM172 666h75l-117 -666h-76z" />
    <glyph glyph-name="ij" unicode="&#x133;" horiz-adv-x="367" 
d="M349 668h91l-15 -84h-90zM166 668h90l-15 -84h-90zM132 -96h32q26 0 44.5 14t26.5 57l95 537h75l-96 -543q-13 -75 -56 -105t-95 -30h-38zM145 512h76l-90 -512h-76z" />
    <glyph glyph-name="Jcircumflex" unicode="&#x134;" horiz-adv-x="333" 
d="M355 888h76l132 -171h-77l-95 127l-139 -127h-90zM37 70h64q33 0 61 12t48.5 43.5t31.5 90.5l79 450h75l-81 -460q-14 -77 -44.5 -122t-70 -64.5t-80.5 -19.5h-93z" />
    <glyph glyph-name="jcircumflex" unicode="&#x135;" 
d="M180 744h76l132 -171h-77l-95 127l-139 -127h-89zM-52 -96h32q25 0 44 14t26 57l95 537h75l-96 -543q-9 -50 -31.5 -79.5t-52.5 -42.5t-62 -13h-43z" />
    <glyph glyph-name="uni0136" unicode="&#x136;" horiz-adv-x="558" 
d="M172 666h75l-59 -338l360 338h106l-350 -321l241 -345h-85l-209 297l-81 -73l-40 -224h-76zM233 -37h90l-20 -112q-10 -58 -40 -81.5t-63 -23.5h-19l7 44h13q25 0 42.5 13t24.5 54l2 12h-52z" />
    <glyph glyph-name="uni0137" unicode="&#x137;" horiz-adv-x="504" 
d="M447 512h108l-265 -251l187 -261h-88l-155 213l-80 -73l-25 -140h-75l126 717h75l-83 -472zM208 -37h90l-20 -112q-10 -58 -40.5 -81.5t-63.5 -23.5h-19l8 44h13q24 0 41.5 13t25.5 54l2 12h-53z" />
    <glyph glyph-name="kgreenlandic" unicode="&#x138;" horiz-adv-x="506" 
d="M144 512h74l-46 -267l275 267h108l-265 -251l187 -261h-88l-155 213l-81 -73l-24 -140h-75z" />
    <glyph glyph-name="Lacute" unicode="&#x139;" horiz-adv-x="486" 
d="M386 880l-156 -163h-68l129 163h95zM452 0h-398l118 666h75l-105 -595h323z" />
    <glyph glyph-name="lacute" unicode="&#x13a;" 
d="M393 935l-157 -162h-68l130 162h95zM181 717h76l-126 -717h-76z" />
    <glyph glyph-name="uni013B" unicode="&#x13b;" horiz-adv-x="486" 
d="M452 0h-398l118 666h75l-105 -595h323zM206 -37h90l-21 -112q-10 -58 -40 -81.5t-63 -23.5h-19l8 44h12q25 0 42.5 13t24.5 54l3 12h-53z" />
    <glyph glyph-name="uni013C" unicode="&#x13c;" 
d="M181 717h76l-126 -717h-76zM41 -37h90l-21 -112q-10 -58 -40 -81.5t-63 -23.5h-19l8 44h12q25 0 42.5 13t24.5 54l3 12h-53z" />
    <glyph glyph-name="Lcaron" unicode="&#x13d;" horiz-adv-x="486" 
d="M371 679h73l-73 -204h-67zM452 0h-398l118 666h75l-105 -595h323z" />
    <glyph glyph-name="lcaron" unicode="&#x13e;" horiz-adv-x="209" 
d="M181 717h76l-126 -717h-76zM341 716h72l-72 -204h-67z" />
    <glyph glyph-name="Ldot" unicode="&#x13f;" horiz-adv-x="486" 
d="M452 0h-398l118 666h75l-105 -595h323zM346 384h90l-17 -93h-90z" />
    <glyph glyph-name="ldot" unicode="&#x140;" horiz-adv-x="367" 
d="M181 717h76l-126 -717h-76zM297 376h90l-17 -92h-89z" />
    <glyph glyph-name="Lslash" unicode="&#x141;" horiz-adv-x="517" 
d="M62 351l88 17l52 298h76l-50 -282l173 34l-12 -66l-172 -34l-44 -247h323l-13 -71h-398l53 302l-88 -17z" />
    <glyph glyph-name="lslash" unicode="&#x142;" horiz-adv-x="254" 
d="M65 369l96 17l58 331h75l-56 -317l90 16l-12 -66l-90 -16l-59 -334h-74l56 320l-95 -17z" />
    <glyph glyph-name="Nacute" unicode="&#x143;" horiz-adv-x="636" 
d="M620 880l-156 -163h-69l130 163h95zM625 666h75l-118 -666h-78l-275 566l-99 -566h-76l118 666h94l262 -545z" />
    <glyph glyph-name="nacute" unicode="&#x144;" horiz-adv-x="538" 
d="M544 736l-157 -163h-68l130 163h95zM144 512h76l-13 -76q33 40 77.5 63t94.5 23q56 0 96.5 -30.5t58.5 -80t7 -108.5l-54 -303h-75l52 295q13 72 -17.5 114t-95.5 42q-62 0 -106 -35t-58 -96l-56 -320h-76z" />
    <glyph glyph-name="uni0145" unicode="&#x145;" horiz-adv-x="636" 
d="M625 666h75l-118 -666h-78l-275 566l-99 -566h-76l118 666h94l262 -545zM279 -37h90l-20 -112q-10 -58 -40.5 -81.5t-63.5 -23.5h-19l8 44h13q24 0 42 13t25 54l2 12h-53z" />
    <glyph glyph-name="uni0146" unicode="&#x146;" horiz-adv-x="538" 
d="M144 512h76l-13 -76q33 40 77.5 63t94.5 23q56 0 96.5 -30.5t58.5 -80t7 -108.5l-54 -303h-75l52 295q13 72 -17.5 114t-95.5 42q-62 0 -106 -35t-58 -96l-56 -320h-76zM227 -37h90l-20 -112q-10 -58 -40.5 -81.5t-63.5 -23.5h-19l8 44h13q24 0 41.5 13t24.5 54l3 12h-53
z" />
    <glyph glyph-name="Ncaron" unicode="&#x147;" horiz-adv-x="636" 
d="M487 717h-76l-132 171h78l95 -127l139 127h88zM625 666h75l-118 -666h-78l-275 566l-99 -566h-76l118 666h94l262 -545z" />
    <glyph glyph-name="ncaron" unicode="&#x148;" horiz-adv-x="538" 
d="M411 573h-76l-133 171h79l95 -127l139 127h88zM144 512h76l-13 -76q33 40 77.5 63t94.5 23q56 0 96.5 -30.5t58.5 -80t7 -108.5l-54 -303h-75l52 295q13 72 -17.5 114t-95.5 42q-62 0 -106 -35t-58 -96l-56 -320h-76z" />
    <glyph glyph-name="napostrophe" unicode="&#x149;" horiz-adv-x="685" 
d="M181 702h89l-19 -112q-10 -58 -40.5 -81.5t-63.5 -23.5h-20l8 44h14q24 0 41.5 13t24.5 54l2 13h-53zM291 512h76l-14 -76q33 40 78 63t95 23q55 0 95.5 -30.5t59 -80t7.5 -108.5l-55 -303h-75l53 295q13 72 -18 114t-95 42q-63 0 -106.5 -35t-58.5 -96l-56 -320h-75z
" />
    <glyph glyph-name="Eng" unicode="&#x14a;" horiz-adv-x="636" 
d="M624 666h76l-123 -695q-12 -73 -56 -113t-110 -40h-63l12 69h48q41 0 64 21t31 69l5 28l-279 561l-99 -566h-76l118 666h93l265 -536z" />
    <glyph glyph-name="eng" unicode="&#x14b;" horiz-adv-x="538" 
d="M145 512h75l-13 -77q32 40 77.5 64.5t95.5 24.5q91 0 135 -53.5t27 -144.5l-63 -355q-12 -73 -53.5 -113t-103.5 -40h-72l13 69h50q40 0 62 21t30 69l60 333q23 142 -104 142q-43 0 -80 -17.5t-62 -47.5t-33 -69l-56 -318h-76z" />
    <glyph glyph-name="Omacron" unicode="&#x14c;" horiz-adv-x="687" 
d="M319 799h317l-11 -64h-317zM97 271q0 87 25 161t70.5 128.5t107 85t134.5 30.5q80 0 141 -37t95 -102t34 -151q0 -116 -41.5 -205t-116 -139t-173.5 -50q-82 0 -144 35.5t-97 98t-35 145.5zM628 389q0 102 -53 159t-149 57q-72 0 -129 -43.5t-89.5 -119.5t-32.5 -172
q0 -98 54 -152t151 -54q74 0 129.5 41t87 114t31.5 170z" />
    <glyph glyph-name="omacron" unicode="&#x14d;" horiz-adv-x="568" 
d="M223 655h318l-11 -64h-318zM84 215q0 88 35 158t95 110.5t135 40.5q67 0 116.5 -28t77 -78t27.5 -118q0 -88 -35 -158t-95 -111t-135 -41q-67 0 -116.5 28t-77 78.5t-27.5 118.5zM493 301q0 72 -39.5 112.5t-109.5 40.5q-49 0 -90.5 -30.5t-66.5 -84.5t-25 -124
q0 -74 39.5 -114.5t109.5 -40.5q48 0 89.5 31t67 85t25.5 125z" />
    <glyph glyph-name="Obreve" unicode="&#x14e;" horiz-adv-x="687" 
d="M664 867q-16 -69 -65.5 -110t-120.5 -41q-81 0 -123.5 41.5t-35.5 109.5h71q-3 -45 18.5 -69t67.5 -24t75.5 24t42.5 69h70zM97 271q0 87 25 161t70.5 128.5t107 85t134.5 30.5q80 0 141 -37t95 -102t34 -151q0 -116 -41.5 -205t-116 -139t-173.5 -50q-82 0 -144 35.5
t-97 98t-35 145.5zM628 389q0 102 -53 159t-149 57q-72 0 -129 -43.5t-89.5 -119.5t-32.5 -172q0 -98 54 -152t151 -54q74 0 129.5 41t87 114t31.5 170z" />
    <glyph glyph-name="obreve" unicode="&#x14f;" horiz-adv-x="568" 
d="M568 723q-16 -69 -65 -110t-121 -41q-81 0 -123 41.5t-36 109.5h71q-2 -45 19 -69t67 -24q47 0 76 24t42 69h70zM84 215q0 88 35 158t95 110.5t135 40.5q67 0 116.5 -28t77 -78t27.5 -118q0 -88 -35 -158t-95 -111t-135 -41q-67 0 -116.5 28t-77 78.5t-27.5 118.5z
M493 301q0 72 -39.5 112.5t-109.5 40.5q-49 0 -90.5 -30.5t-66.5 -84.5t-25 -124q0 -74 39.5 -114.5t109.5 -40.5q48 0 89.5 31t67 85t25.5 125z" />
    <glyph glyph-name="Ohungarumlaut" unicode="&#x150;" horiz-adv-x="687" 
d="M732 880l-168 -163h-63l142 163h89zM570 880l-169 -163h-62l141 163h90zM97 271q0 87 25 161t70.5 128.5t107 85t134.5 30.5q80 0 141 -37t95 -102t34 -151q0 -116 -41.5 -205t-116 -139t-173.5 -50q-82 0 -144 35.5t-97 98t-35 145.5zM628 389q0 102 -53 159t-149 57
q-72 0 -129 -43.5t-89.5 -119.5t-32.5 -172q0 -98 54 -152t151 -54q74 0 129.5 41t87 114t31.5 170z" />
    <glyph glyph-name="ohungarumlaut" unicode="&#x151;" horiz-adv-x="568" 
d="M636 735l-168 -162h-62l141 162h89zM474 735l-169 -162h-62l141 162h90zM84 215q0 88 35 158t95 110.5t135 40.5q67 0 116.5 -28t77 -78t27.5 -118q0 -88 -35 -158t-95 -111t-135 -41q-67 0 -116.5 28t-77 78.5t-27.5 118.5zM493 301q0 72 -39.5 112.5t-109.5 40.5
q-49 0 -90.5 -30.5t-66.5 -84.5t-25 -124q0 -74 39.5 -114.5t109.5 -40.5q48 0 89.5 31t67 85t25.5 125z" />
    <glyph glyph-name="OE" unicode="&#x152;" horiz-adv-x="1058" 
d="M97 271q0 87 24.5 161t69 128.5t104 85t129.5 30.5q85 0 146 -47t87 -127l29 164h449l-13 -72h-374l-39 -218h346l-13 -72h-346l-41 -233h374l-12 -71h-449l19 105q-41 -53 -98.5 -83t-126.5 -30q-78 0 -138 35.5t-93.5 98t-33.5 145.5zM628 389q0 102 -53 159t-149 57
q-72 0 -129 -43.5t-89.5 -119.5t-32.5 -172q0 -98 54 -152t151 -54q74 0 129.5 41t87 114t31.5 170z" />
    <glyph glyph-name="oe" unicode="&#x153;" horiz-adv-x="968" 
d="M84 215q0 88 34.5 158t93.5 110.5t134 40.5q71 0 122.5 -33t75.5 -91q33 56 87 89t123 33q77 0 129.5 -35t75 -93.5t10.5 -129.5l-5 -30h-397q-1 -11 -1 -23q0 -75 40 -114t117 -39q54 0 91.5 26t57.5 74h83q-61 -167 -229 -167q-79 0 -133.5 32.5t-78.5 92.5
q-35 -58 -90.5 -92t-121.5 -34t-115 28t-76 78.5t-27 118.5zM755 457q-68 0 -115.5 -43.5t-64.5 -119.5h319q10 73 -29.5 118t-109.5 45zM493 301q0 72 -39.5 112.5t-109.5 40.5q-49 0 -90.5 -30.5t-66.5 -84.5t-25 -124q0 -74 39.5 -114.5t109.5 -40.5q48 0 89.5 31t67 85
t25.5 125z" />
    <glyph glyph-name="Racute" unicode="&#x154;" horiz-adv-x="584" 
d="M586 880l-157 -163h-68l130 163h95zM336 274h-158l-48 -274h-76l118 666h271q85 0 134.5 -46t49.5 -125q0 -73 -46.5 -126.5t-123.5 -68.5q51 -12 73 -46.5t22 -96.5v-157h-76v148q0 70 -31.5 98t-108.5 28zM429 597h-194l-45 -255h194q76 0 119.5 44t43.5 112
q0 48 -31 73.5t-87 25.5z" />
    <glyph glyph-name="racute" unicode="&#x155;" horiz-adv-x="333" 
d="M449 735l-156 -163h-69l130 163h95zM146 512h77l-13 -73q32 38 74 57.5t83 19.5h24l-14 -78h-23q-54 0 -101.5 -28.5t-62.5 -79.5l-57 -330h-76z" />
    <glyph glyph-name="uni0156" unicode="&#x156;" horiz-adv-x="584" 
d="M336 274h-158l-48 -274h-76l118 666h271q85 0 134.5 -46t49.5 -125q0 -73 -46.5 -126.5t-123.5 -68.5q51 -12 73 -46.5t22 -96.5v-157h-76v148q0 70 -31.5 98t-108.5 28zM429 597h-194l-45 -255h194q76 0 119.5 44t43.5 112q0 48 -31 73.5t-87 25.5zM254 -37h90l-21 -112
q-10 -58 -40 -81.5t-63 -23.5h-19l8 44h12q25 0 42.5 13t24.5 54l3 12h-53z" />
    <glyph glyph-name="uni0157" unicode="&#x157;" horiz-adv-x="333" 
d="M146 512h77l-13 -73q32 38 74 57.5t83 19.5h24l-14 -78h-23q-54 0 -101.5 -28.5t-62.5 -79.5l-57 -330h-76zM43 -37h90l-20 -112q-10 -58 -40.5 -81.5t-63.5 -23.5h-19l8 44h13q24 0 41.5 13t24.5 54l3 12h-53z" />
    <glyph glyph-name="Rcaron" unicode="&#x158;" horiz-adv-x="584" 
d="M453 717h-77l-132 171h78l96 -127l139 127h87zM336 274h-158l-48 -274h-76l118 666h271q85 0 134.5 -46t49.5 -125q0 -73 -46.5 -126.5t-123.5 -68.5q51 -12 73 -46.5t22 -96.5v-157h-76v148q0 70 -31.5 98t-108.5 28zM429 597h-194l-45 -255h194q76 0 119.5 44t43.5 112
q0 48 -31 73.5t-87 25.5z" />
    <glyph glyph-name="rcaron" unicode="&#x159;" horiz-adv-x="333" 
d="M315 572h-76l-132 171h78l96 -127l139 127h87zM146 512h77l-13 -73q32 38 74 57.5t83 19.5h24l-14 -78h-23q-54 0 -101.5 -28.5t-62.5 -79.5l-57 -330h-76z" />
    <glyph glyph-name="Sacute" unicode="&#x15a;" horiz-adv-x="593" 
d="M576 880l-157 -163h-68l130 163h95zM384 289l-81 18q-170 38 -170 161q0 95 65 151t175 56q117 0 181 -57.5t64 -163.5h-77q0 153 -171 153q-69 0 -113.5 -35.5t-44.5 -91.5q0 -73 115 -97l78 -17q178 -38 178 -168q0 -96 -64 -151.5t-173 -55.5q-123 0 -193 59.5
t-70 162.5h78q0 -74 48.5 -114t139.5 -40q68 0 112 35t44 90q0 76 -121 105z" />
    <glyph glyph-name="sacute" unicode="&#x15b;" horiz-adv-x="514" 
d="M514 735l-156 -162h-68l129 162h95zM331 215l-79 19q-138 30 -138 132q0 72 53.5 115t147.5 43q92 0 147 -45.5t57 -131.5h-74q0 56 -35 84t-100 28q-57 0 -89 -23.5t-32 -62.5q0 -29 20.5 -45t64.5 -26l82 -17q139 -30 139 -138q0 -73 -52.5 -115.5t-149.5 -42.5
q-103 0 -161 47t-58 130h77q0 -56 38 -84.5t105 -28.5q61 0 93.5 22.5t32.5 61.5q0 30 -21.5 48.5t-67.5 29.5z" />
    <glyph glyph-name="Scircumflex" unicode="&#x15c;" horiz-adv-x="593" 
d="M396 888h75l132 -171h-76l-95 127l-140 -127h-89zM384 289l-81 18q-170 38 -170 161q0 95 65 151t175 56q117 0 181 -57.5t64 -163.5h-77q0 153 -171 153q-69 0 -113.5 -35.5t-44.5 -91.5q0 -73 115 -97l78 -17q178 -38 178 -168q0 -96 -64 -151.5t-173 -55.5
q-123 0 -193 59.5t-70 162.5h78q0 -74 48.5 -114t139.5 -40q68 0 112 35t44 90q0 76 -121 105z" />
    <glyph glyph-name="scircumflex" unicode="&#x15d;" horiz-adv-x="514" 
d="M335 744h76l132 -171h-77l-95 127l-139 -127h-89zM331 215l-79 19q-138 30 -138 132q0 72 53.5 115t147.5 43q92 0 147 -45.5t57 -131.5h-74q0 56 -35 84t-100 28q-57 0 -89 -23.5t-32 -62.5q0 -29 20.5 -45t64.5 -26l82 -17q139 -30 139 -138q0 -73 -52.5 -115.5
t-149.5 -42.5q-103 0 -161 47t-58 130h77q0 -56 38 -84.5t105 -28.5q61 0 93.5 22.5t32.5 61.5q0 30 -21.5 48.5t-67.5 29.5z" />
    <glyph glyph-name="Scedilla" unicode="&#x15e;" horiz-adv-x="593" 
d="M384 289l-81 18q-170 38 -170 161q0 95 65 151t175 56q117 0 181 -57.5t64 -163.5h-77q0 153 -171 153q-69 0 -113.5 -35.5t-44.5 -91.5q0 -73 115 -97l78 -17q178 -38 178 -168q0 -96 -64 -151.5t-173 -55.5h-15l-18 -47h16q41 0 63.5 -27.5t22.5 -66.5q0 -59 -38 -92.5
t-106 -33.5h-103l11 65h83q40 0 63.5 18t23.5 48q0 35 -46 35h-34l-20 33l30 73q-93 16 -144.5 72.5t-51.5 144.5h78q0 -74 48.5 -114t139.5 -40q68 0 112 35t44 90q0 76 -121 105z" />
    <glyph glyph-name="scedilla" unicode="&#x15f;" horiz-adv-x="514" 
d="M331 215l-79 19q-138 30 -138 132q0 72 53.5 115t147.5 43q92 0 147 -45.5t57 -131.5h-74q0 56 -35 84t-100 28q-57 0 -89 -23.5t-32 -62.5q0 -29 20.5 -45t64.5 -26l82 -17q139 -30 139 -138q0 -73 -52 -115.5t-147 -42.5l-18 -45h16q41 0 63.5 -27.5t22.5 -66.5
q0 -59 -38 -92.5t-106 -33.5h-103l11 65h83q40 0 63.5 18t23.5 48q0 35 -46 35h-34l-20 33l28 69q-80 11 -124 56.5t-44 117.5h77q0 -56 38 -84.5t105 -28.5q61 0 93.5 22.5t32.5 61.5q0 30 -21.5 48.5t-67.5 29.5z" />
    <glyph glyph-name="Scaron" unicode="&#x160;" horiz-adv-x="593" 
d="M442 717h-76l-133 171h79l95 -127l139 127h88zM384 289l-81 18q-170 38 -170 161q0 95 65 151t175 56q117 0 181 -57.5t64 -163.5h-77q0 153 -171 153q-69 0 -113.5 -35.5t-44.5 -91.5q0 -73 115 -97l78 -17q178 -38 178 -168q0 -96 -64 -151.5t-173 -55.5
q-123 0 -193 59.5t-70 162.5h78q0 -74 48.5 -114t139.5 -40q68 0 112 35t44 90q0 76 -121 105z" />
    <glyph glyph-name="scaron" unicode="&#x161;" horiz-adv-x="514" 
d="M381 573h-76l-132 171h78l96 -128l139 128h87zM331 215l-79 19q-138 30 -138 132q0 72 53.5 115t147.5 43q92 0 147 -45.5t57 -131.5h-74q0 56 -35 84t-100 28q-57 0 -89 -23.5t-32 -62.5q0 -29 20.5 -45t64.5 -26l82 -17q139 -30 139 -138q0 -73 -52.5 -115.5
t-149.5 -42.5q-103 0 -161 47t-58 130h77q0 -56 38 -84.5t105 -28.5q61 0 93.5 22.5t32.5 61.5q0 30 -21.5 48.5t-67.5 29.5z" />
    <glyph glyph-name="uni0162" unicode="&#x162;" horiz-adv-x="542" 
d="M626 666l-13 -72h-200l-104 -594h-10l-22 -56h16q41 0 63.5 -27.5t22.5 -66.5q0 -59 -38 -92.5t-106 -33.5h-103l11 65h83q40 0 63.5 18t23.5 48q0 35 -46 35h-34l-20 33l31 77h-10l104 594h-199l13 72h474z" />
    <glyph glyph-name="uni0163" unicode="&#x163;" horiz-adv-x="330" 
d="M309 68l-12 -68h-20l-22 -56h16q41 0 63.5 -27.5t22.5 -66.5q0 -59 -38 -92.5t-106 -33.5h-103l11 65h83q40 0 63 18t23 48q0 35 -45 35h-34l-20 33l32 79q-38 8 -60 38t-12 91l56 315h-94l12 66h93l24 133h76l-23 -133h92l-11 -66h-93l-54 -305q-8 -44 4 -58.5t36 -14.5
h40z" />
    <glyph glyph-name="Tcaron" unicode="&#x164;" horiz-adv-x="542" 
d="M428 717h-77l-132 171h78l96 -127l139 127h88zM626 666l-13 -72h-200l-104 -594h-75l104 594h-199l13 72h474z" />
    <glyph glyph-name="tcaron" unicode="&#x165;" horiz-adv-x="341" 
d="M418 763h72l-72 -204h-67zM309 68l-12 -68h-46q-32 0 -58 13t-38 41.5t-4 76.5l56 315h-94l12 66h93l24 133h76l-23 -133h92l-11 -66h-93l-54 -305q-8 -44 4 -58.5t36 -14.5h40z" />
    <glyph glyph-name="Tbar" unicode="&#x166;" horiz-adv-x="542" 
d="M140 352h156l42 242h-199l12 72h475l-13 -72h-199l-43 -242h159l-13 -70h-158l-50 -282h-75l50 282h-155z" />
    <glyph glyph-name="tbar" unicode="&#x167;" horiz-adv-x="330" 
d="M309 68l-12 -68h-46q-32 0 -58 13t-38.5 41.5t-3.5 76.5l21 121h-94l10 57h94l25 139h-95l12 64h94l24 133h75l-24 -133h94l-11 -64h-94l-24 -139h94l-11 -57h-94l-19 -113q-8 -43 4.5 -57t35.5 -14h41z" />
    <glyph glyph-name="Utilde" unicode="&#x168;" horiz-adv-x="602" 
d="M371 869q33 0 51 -17t32 -35q12 -16 24 -29.5t31 -13.5q24 0 42.5 24t25.5 65h57q-13 -70 -48 -110t-83 -40q-32 0 -48.5 14.5t-29.5 31.5t-24.5 32.5t-30.5 15.5q-24 0 -42.5 -24.5t-25.5 -65.5h-60q13 72 46.5 112t82.5 40zM166 666h76l-70 -396q-17 -95 26.5 -150.5
t137.5 -55.5q74 0 123 46.5t64 129.5l73 426h76l-76 -434q-13 -72 -50 -126t-92 -84t-122 -30q-83 0 -140.5 36t-83 100t-10.5 148z" />
    <glyph glyph-name="utilde" unicode="&#x169;" horiz-adv-x="530" 
d="M300 725q33 0 51.5 -17t32.5 -35q11 -16 23 -29.5t31 -13.5q24 0 42.5 24t25.5 65h57q-12 -70 -47.5 -110t-83.5 -40q-32 0 -48 14.5t-30 31.5q-13 17 -24 32.5t-31 15.5q-23 0 -42 -24.5t-26 -65.5h-59q13 72 46 112t82 40zM164 217q-13 -72 15 -114t93 -42q66 0 110 40
t54 108h1l53 303h74l-89 -512h-75l13 74q-32 -39 -76 -61t-93 -22q-56 0 -95.5 29.5t-56 79t-5.5 109.5l54 303h76z" />
    <glyph glyph-name="Umacron" unicode="&#x16a;" horiz-adv-x="602" 
d="M282 799h317l-10 -64h-318zM166 666h76l-70 -396q-17 -95 26.5 -150.5t137.5 -55.5q74 0 123 46.5t64 129.5l73 426h76l-76 -434q-13 -72 -50 -126t-92 -84t-122 -30q-83 0 -140.5 36t-83 100t-10.5 148z" />
    <glyph glyph-name="umacron" unicode="&#x16b;" horiz-adv-x="530" 
d="M211 655h318l-11 -64h-317zM164 217q-13 -72 15 -114t93 -42q66 0 110 40t54 108h1l53 303h74l-89 -512h-75l13 74q-32 -39 -76 -61t-93 -22q-56 0 -95.5 29.5t-56 79t-5.5 109.5l54 303h76z" />
    <glyph glyph-name="Ubreve" unicode="&#x16c;" horiz-adv-x="602" 
d="M627 867q-16 -69 -65 -110t-121 -41q-81 0 -123.5 41.5t-35.5 109.5h71q-3 -45 18.5 -69t67.5 -24t75.5 24t42.5 69h70zM166 666h76l-70 -396q-17 -95 26.5 -150.5t137.5 -55.5q74 0 123 46.5t64 129.5l73 426h76l-76 -434q-13 -72 -50 -126t-92 -84t-122 -30
q-83 0 -140.5 36t-83 100t-10.5 148z" />
    <glyph glyph-name="ubreve" unicode="&#x16d;" horiz-adv-x="530" 
d="M557 723q-17 -69 -66 -110t-121 -41q-81 0 -123 41.5t-36 109.5h71q-2 -45 19 -69t68 -24q46 0 75 24t42 69h71zM164 217q-13 -72 15 -114t93 -42q66 0 110 40t54 108h1l53 303h74l-89 -512h-75l13 74q-32 -39 -76 -61t-93 -22q-56 0 -95.5 29.5t-56 79t-5.5 109.5
l54 303h76z" />
    <glyph glyph-name="Uring" unicode="&#x16e;" horiz-adv-x="602" 
d="M572 866q0 -45 -20 -80t-53.5 -55.5t-76.5 -20.5q-58 0 -93 33t-35 87q0 45 19.5 80.5t53 55.5t76.5 20q58 0 93.5 -32.5t35.5 -87.5zM356 832q0 -32 18.5 -49.5t52.5 -17.5q37 0 60 27.5t23 71.5q0 32 -18.5 49.5t-52.5 17.5q-37 0 -60 -27t-23 -72zM166 666h76
l-70 -396q-17 -95 26.5 -150.5t137.5 -55.5q74 0 123 46.5t64 129.5l73 426h76l-76 -434q-13 -72 -50 -126t-92 -84t-122 -30q-83 0 -140.5 36t-83 100t-10.5 148z" />
    <glyph glyph-name="uring" unicode="&#x16f;" horiz-adv-x="530" 
d="M502 722q0 -45 -20 -80t-53.5 -55.5t-76.5 -20.5q-58 0 -93 33t-35 87q0 45 19.5 80.5t53 55.5t76.5 20q58 0 93.5 -32.5t35.5 -87.5zM286 688q0 -32 18.5 -49.5t52.5 -17.5q37 0 60 27.5t23 71.5q0 32 -18.5 49.5t-52.5 17.5q-37 0 -60 -27t-23 -72zM164 217
q-13 -72 15 -114t93 -42q66 0 110 40t54 108h1l53 303h74l-89 -512h-75l13 74q-32 -39 -76 -61t-93 -22q-56 0 -95.5 29.5t-56 79t-5.5 109.5l54 303h76z" />
    <glyph glyph-name="Uhungarumlaut" unicode="&#x170;" horiz-adv-x="602" 
d="M695 880l-168 -163h-62l141 163h89zM533 880l-169 -163h-62l141 163h90zM166 666h76l-70 -396q-17 -95 26.5 -150.5t137.5 -55.5q74 0 123 46.5t64 129.5l73 426h76l-76 -434q-13 -72 -50 -126t-92 -84t-122 -30q-83 0 -140.5 36t-83 100t-10.5 148z" />
    <glyph glyph-name="uhungarumlaut" unicode="&#x171;" horiz-adv-x="530" 
d="M624 736l-168 -163h-62l141 163h89zM462 736l-169 -163h-62l142 163h89zM164 217q-13 -72 15 -114t93 -42q66 0 110 40t54 108h1l53 303h74l-89 -512h-75l13 74q-32 -39 -76 -61t-93 -22q-56 0 -95.5 29.5t-56 79t-5.5 109.5l54 303h76z" />
    <glyph glyph-name="Uogonek" unicode="&#x172;" horiz-adv-x="602" 
d="M166 666h76l-70 -396q-17 -95 26.5 -150.5t137.5 -55.5q74 0 123 46.5t64 129.5l73 426h76l-76 -434q-13 -72 -50 -126t-92 -84t-121 -30q-63 -42 -89.5 -78t-26.5 -77q0 -51 68 -51h65l-12 -67h-67q-56 0 -90.5 27.5t-34.5 74.5q0 54 34 98.5t97 77.5q-66 11 -110.5 49
t-63.5 97t-5 134z" />
    <glyph glyph-name="uogonek" unicode="&#x173;" horiz-adv-x="530" 
d="M164 217q-13 -72 15 -114t93 -42q66 0 110 40t54 108h1l53 303h74l-89 -512h1q-69 -45 -98.5 -82.5t-29.5 -80.5q0 -51 68 -51h65l-12 -67h-67q-56 0 -90.5 27.5t-34.5 74.5q0 55 36 100.5t102 78.5h-15l13 74q-32 -39 -76 -61t-93 -22q-56 0 -95.5 29.5t-56 79
t-5.5 109.5l54 303h76z" />
    <glyph glyph-name="Wcircumflex" unicode="&#x174;" horiz-adv-x="993" 
d="M607 888h76l132 -171h-76l-96 127l-139 -127h-89zM151 666h77l50 -569l286 569h90l81 -569l257 569h87l-315 -666h-86l-82 571l-286 -571h-88z" />
    <glyph glyph-name="wcircumflex" unicode="&#x175;" horiz-adv-x="793" 
d="M479 744h76l132 -171h-76l-96 127l-139 -127h-89zM123 512h77l38 -416l199 416h86l53 -416l186 416h87l-247 -512h-82l-55 415l-198 -415h-84z" />
    <glyph glyph-name="Ycircumflex" unicode="&#x176;" horiz-adv-x="595" 
d="M419 888h76l132 -171h-76l-96 127l-139 -127h-89zM300 229l-149 437h81l115 -350l242 350h93l-308 -437l-40 -229h-75z" />
    <glyph glyph-name="ycircumflex" unicode="&#x177;" horiz-adv-x="557" 
d="M375 744h75l132 -171h-76l-96 127l-139 -127h-89zM43 -90h73q36 0 57 14.5t41 51.5l19 38l-109 498h78l90 -420l233 420h88l-307 -544q-39 -70 -78.5 -100.5t-97.5 -30.5h-97z" />
    <glyph glyph-name="Ydieresis" unicode="&#x178;" horiz-adv-x="595" 
d="M507 807h86l-16 -90h-86zM293 807h86l-16 -90h-86zM300 229l-149 437h81l115 -350l242 350h93l-308 -437l-40 -229h-75z" />
    <glyph glyph-name="Zacute" unicode="&#x179;" horiz-adv-x="574" 
d="M583 880l-156 -163h-68l129 163h95zM164 666h478l-11 -82l-486 -516h394l-11 -68h-479l11 81l484 516h-392z" />
    <glyph glyph-name="zacute" unicode="&#x17a;" horiz-adv-x="483" 
d="M507 736l-157 -163h-68l130 163h95zM134 512h390l-12 -78l-371 -370h306l-11 -64h-391l12 78l371 370h-305z" />
    <glyph glyph-name="Zdotaccent" unicode="&#x17b;" horiz-adv-x="574" 
d="M388 811h89l-16 -94h-89zM164 666h478l-11 -82l-486 -516h394l-11 -68h-479l11 81l484 516h-392z" />
    <glyph glyph-name="zdotaccent" unicode="&#x17c;" horiz-adv-x="483" 
d="M311 667h88l-16 -94h-89zM134 512h390l-12 -78l-371 -370h306l-11 -64h-391l12 78l371 370h-305z" />
    <glyph glyph-name="Zcaron" unicode="&#x17d;" horiz-adv-x="574" 
d="M451 717h-77l-132 171h78l96 -127l139 127h87zM164 666h478l-11 -82l-486 -516h394l-11 -68h-479l11 81l484 516h-392z" />
    <glyph glyph-name="zcaron" unicode="&#x17e;" horiz-adv-x="483" 
d="M373 573h-77l-132 171h78l96 -127l139 127h88zM134 512h390l-12 -78l-371 -370h306l-11 -64h-391l12 78l371 370h-305z" />
    <glyph glyph-name="longs" unicode="&#x17f;" horiz-adv-x="270" 
d="M351 651h-40q-29 0 -50 -16t-28 -55l-102 -580h-76l103 586q9 48 33 76.5t57.5 41.5t68.5 13h46z" />
    <glyph glyph-name="Ohorn" unicode="&#x1a0;" horiz-adv-x="687" 
d="M97 271q0 85 26 158.5t71.5 129t107 86.5t132.5 31q42 0 79 -10h120q29 0 51 14t30 60l6 34h67l-8 -40q-8 -48 -31.5 -75.5t-54 -39t-59.5 -11.5h-14q40 -39 62 -95t22 -127q0 -85 -24.5 -157t-69 -125t-105 -82.5t-132.5 -29.5q-84 0 -146 34.5t-96 97t-34 147.5z
M628 389q0 102 -53.5 159t-148.5 57q-72 0 -129 -43.5t-89.5 -119.5t-32.5 -172q0 -98 54 -152t151 -54q74 0 129.5 41t87 114t31.5 170z" />
    <glyph glyph-name="ohorn" unicode="&#x1a1;" horiz-adv-x="568" 
d="M84 215q0 88 35 158t95 110.5t135 40.5q44 0 82 -13h76q29 0 51 14.5t30 60.5l6 33h66l-7 -39q-8 -46 -29.5 -73t-49.5 -39t-56 -14q52 -60 52 -154q0 -88 -35 -158t-95 -111t-135 -41q-67 0 -116.5 28t-77 78.5t-27.5 118.5zM493 301q0 72 -39.5 112.5t-109.5 40.5
q-49 0 -90.5 -30.5t-66.5 -84.5t-25 -124q0 -74 39.5 -114.5t109.5 -40.5q48 0 89.5 31t67 85t25.5 125z" />
    <glyph glyph-name="Uhorn" unicode="&#x1af;" horiz-adv-x="609" 
d="M166 666h76l-70 -396q-17 -95 26.5 -150.5t137.5 -55.5q74 0 123 46.5t64 129.5l73 426h76v-1q27 1 47.5 16.5t27.5 58.5l6 33h67l-8 -39q-8 -48 -31.5 -75.5t-54 -39t-59.5 -11.5h-5l-66 -376q-13 -72 -50 -126t-92 -84t-122 -30q-83 0 -141 36t-83 100t-10 149z" />
    <glyph glyph-name="uhorn" unicode="&#x1b0;" horiz-adv-x="538" 
d="M164 217q-13 -72 15 -114t93 -42q66 0 110 40t54 108h1l52 299v4h70q29 0 51 14.5t30 60.5l6 33h66l-7 -39q-8 -48 -31.5 -75.5t-54 -39t-60.5 -11.5h-5l-79 -455h-75l13 74q-32 -39 -76 -61t-93 -22q-56 0 -95.5 29.5t-56 79t-5.5 109.5l54 303h76z" />
    <glyph glyph-name="uni01CD" unicode="&#x1cd;" horiz-adv-x="641" 
d="M479 717h-77l-132 171h78l96 -127l139 127h87zM609 0h-77l-33 178h-284l-95 -178h-87l363 666h86zM426 576l-176 -332h237z" />
    <glyph glyph-name="uni01CE" unicode="&#x1ce;" horiz-adv-x="526" 
d="M399 572h-76l-132 171h78l95 -127l139 127h88zM531 330l-58 -330h-78l13 72q-33 -39 -78 -60.5t-97 -21.5q-72 0 -117.5 39t-45.5 101q0 69 46.5 113t127.5 47l145 4q32 1 46.5 8.5t19.5 25.5l2 10q9 53 -28 87t-100 34q-109 0 -138 -92h-80q18 72 77.5 114t143.5 42
q66 0 114 -25.5t71 -69t14 -98.5zM148 138q0 -38 29 -60.5t78 -22.5q62 0 110 37.5t65 97.5l8 43l-179 -5q-56 -2 -83.5 -26.5t-27.5 -63.5z" />
    <glyph glyph-name="uni01CF" unicode="&#x1cf;" 
d="M252 717h-76l-132 171h78l95 -127l139 127h88zM172 666h75l-117 -666h-76z" />
    <glyph glyph-name="uni01D0" unicode="&#x1d0;" 
d="M226 573h-76l-132 171h78l96 -127l139 127h87zM145 512h75l-90 -512h-76z" />
    <glyph glyph-name="uni01D1" unicode="&#x1d1;" horiz-adv-x="687" 
d="M502 717h-76l-132 171h78l96 -127l139 127h87zM97 271q0 87 25 161t70.5 128.5t107 85t134.5 30.5q80 0 141 -37t95 -102t34 -151q0 -116 -41.5 -205t-116 -139t-173.5 -50q-82 0 -144 35.5t-97 98t-35 145.5zM628 389q0 102 -53 159t-149 57q-72 0 -129 -43.5
t-89.5 -119.5t-32.5 -172q0 -98 54 -152t151 -54q74 0 129.5 41t87 114t31.5 170z" />
    <glyph glyph-name="uni01D2" unicode="&#x1d2;" horiz-adv-x="568" 
d="M407 573h-77l-132 171h78l96 -128l139 128h87zM84 215q0 88 35 158t95 110.5t135 40.5q67 0 116.5 -28t77 -78t27.5 -118q0 -88 -35 -158t-95 -111t-135 -41q-67 0 -116.5 28t-77 78.5t-27.5 118.5zM493 301q0 72 -39.5 112.5t-109.5 40.5q-49 0 -90.5 -30.5t-66.5 -84.5
t-25 -124q0 -74 39.5 -114.5t109.5 -40.5q48 0 89.5 31t67 85t25.5 125z" />
    <glyph glyph-name="uni01D3" unicode="&#x1d3;" horiz-adv-x="602" 
d="M466 717h-77l-132 171h78l96 -127l139 127h87zM166 666h76l-70 -396q-17 -95 26.5 -150.5t137.5 -55.5q74 0 123 46.5t64 129.5l73 426h76l-76 -434q-13 -72 -50 -126t-92 -84t-122 -30q-83 0 -140.5 36t-83 100t-10.5 148z" />
    <glyph glyph-name="uni01D4" unicode="&#x1d4;" horiz-adv-x="530" 
d="M395 573h-77l-132 171h78l96 -127l139 127h88zM164 217q-13 -72 15 -114t93 -42q66 0 110 40t54 108h1l53 303h74l-89 -512h-75l13 74q-32 -39 -76 -61t-93 -22q-56 0 -95.5 29.5t-56 79t-5.5 109.5l54 303h76z" />
    <glyph glyph-name="uni01DD" unicode="&#x1dd;" horiz-adv-x="566" 
d="M568 298q0 -85 -32.5 -154.5t-91 -111t-138.5 -41.5q-78 0 -131 35t-76 94t-10 129l5 31h397v22q0 75 -40 114t-116 39q-54 0 -92 -26t-57 -74h-85q31 82 90.5 124.5t143.5 42.5q109 0 171 -59.5t62 -164.5zM302 56q68 0 115.5 43.5t64.5 119.5h-319q-11 -73 29 -118
t110 -45z" />
    <glyph glyph-name="uni01E2" unicode="&#x1e2;" horiz-adv-x="974" 
d="M547 799h318l-11 -64h-317zM1046 666l-13 -72h-373l-39 -218h346l-13 -72h-346l-41 -233h374l-12 -71h-449l31 178h-276l-119 -178h-83l440 666h573zM277 244h246l62 350h-75z" />
    <glyph glyph-name="uni01E3" unicode="&#x1e3;" horiz-adv-x="917" 
d="M401 655h317l-10 -64h-318zM678 -9q-82 0 -137 36.5t-77 101.5q-32 -64 -92 -101.5t-132 -37.5q-75 0 -122.5 39t-47.5 101q0 69 46.5 112.5t127.5 46.5l145 5q32 1 46.5 8.5t19.5 26.5l2 9q9 52 -28 86.5t-101 34.5q-108 0 -137 -92h-80q18 72 77 114t143 42
q66 0 114.5 -27t69.5 -72q34 45 83.5 71.5t111.5 26.5q76 0 128 -35t74 -93.5t10 -129.5l-6 -30h-396v-23q0 -75 40 -114t116 -39q54 0 92 26t57 74h84q-62 -167 -231 -167zM709 457q-68 0 -115.5 -43.5t-65.5 -119.5h319q11 73 -28.5 118t-109.5 45zM148 139
q0 -37 29.5 -60t77.5 -23q66 0 116.5 42.5t62.5 110.5v0l5 25l-180 -5q-56 -2 -83.5 -26.5t-27.5 -63.5z" />
    <glyph glyph-name="uni01F0" unicode="&#x1f0;" 
d="M226 573h-76l-132 171h78l96 -127l139 127h87zM-52 -96h32q25 0 44 14t26 57l95 537h75l-96 -543q-9 -50 -31.5 -79.5t-52.5 -42.5t-62 -13h-43z" />
    <glyph glyph-name="AEacute" unicode="&#x1fc;" horiz-adv-x="974" 
d="M766 880l-156 -163h-69l130 163h95zM1046 666l-13 -72h-373l-39 -218h346l-13 -72h-346l-41 -233h374l-12 -71h-449l31 178h-276l-119 -178h-83l440 666h573zM277 244h246l62 350h-75z" />
    <glyph glyph-name="aeacute" unicode="&#x1fd;" horiz-adv-x="917" 
d="M717 736l-156 -163h-68l129 163h95zM678 -9q-82 0 -137 36.5t-77 101.5q-32 -64 -92 -101.5t-132 -37.5q-75 0 -122.5 39t-47.5 101q0 69 46.5 112.5t127.5 46.5l145 5q32 1 46.5 8.5t19.5 26.5l2 9q9 52 -28 86.5t-101 34.5q-108 0 -137 -92h-80q18 72 77 114t143 42
q66 0 114.5 -27t69.5 -72q34 45 83.5 71.5t111.5 26.5q76 0 128 -35t74 -93.5t10 -129.5l-6 -30h-396v-23q0 -75 40 -114t116 -39q54 0 92 26t57 74h84q-62 -167 -231 -167zM709 457q-68 0 -115.5 -43.5t-65.5 -119.5h319q11 73 -28.5 118t-109.5 45zM148 139
q0 -37 29.5 -60t77.5 -23q66 0 116.5 42.5t62.5 110.5v0l5 25l-180 -5q-56 -2 -83.5 -26.5t-27.5 -63.5z" />
    <glyph glyph-name="uni0237" unicode="&#x237;" 
d="M-52 -96h32q25 0 44 14t26 57l95 537h75l-96 -543q-9 -50 -31.5 -79.5t-52.5 -42.5t-62 -13h-43z" />
    <glyph glyph-name="uni0250" unicode="&#x250;" horiz-adv-x="526" 
d="M124 383q6 34 6 64.5t-8 64.5h76q10 -36 7 -79q34 42 80.5 65.5t100.5 23.5q72 0 117.5 -39t45.5 -101q0 -69 -46.5 -112.5t-127.5 -46.5l-144 -5q-33 -1 -47.5 -8.5t-19.5 -26.5l-2 -9q-8 -52 28.5 -86.5t99.5 -34.5q109 0 138 92h80q-18 -72 -77.5 -114t-143.5 -42
q-66 0 -114.5 25.5t-71.5 69t-13 98.5zM185 303v0l-4 -25l179 5q56 2 83.5 26.5t27.5 63.5q0 38 -29.5 60.5t-77.5 22.5q-66 0 -116.5 -42.5t-62.5 -110.5z" />
    <glyph glyph-name="uni0251" unicode="&#x251;" horiz-adv-x="583" 
d="M610 68l-12 -68h-17q-45 0 -78.5 21t-36.5 70q-31 -46 -76.5 -72.5t-100.5 -26.5q-93 0 -149 60t-56 162q0 88 34 158.5t92 111.5t130 41q70 0 114.5 -34t61.5 -93l20 114h75l-66 -371q-8 -44 8.5 -58.5t45.5 -14.5h11zM162 216q0 -75 39 -115.5t109 -40.5
q49 0 90.5 30.5t67 84.5t25.5 124q0 74 -39 114.5t-109 40.5q-50 0 -91.5 -30.5t-66.5 -84t-25 -123.5z" />
    <glyph glyph-name="uni0252" unicode="&#x252;" horiz-adv-x="583" 
d="M65 445l13 67h16q45 0 78.5 -21t36.5 -70q31 46 76.5 73t100.5 27q93 0 149 -60.5t56 -161.5q0 -88 -34 -158.5t-92 -112t-130 -41.5q-70 0 -114.5 34.5t-61.5 92.5l-20 -114h-75l66 372q8 43 -8.5 58t-45.5 15h-11zM513 297q0 74 -39 114.5t-109 40.5q-49 0 -90.5 -30.5
t-66.5 -84.5t-25 -124q0 -73 38.5 -114t108.5 -41q50 0 91.5 30.5t66.5 84.5t25 124z" />
    <glyph glyph-name="uni0253" unicode="&#x253;" horiz-adv-x="575" 
d="M55 0l95 542q14 83 76.5 134.5t155.5 51.5q72 0 125 -23.5t82 -65t29 -97.5h-76q0 53 -44.5 86.5t-118.5 33.5q-65 0 -105.5 -35.5t-50.5 -96.5l-20 -116q32 42 77 66t97 24q61 0 106.5 -27t70.5 -75.5t25 -112.5q0 -85 -33 -152.5t-90 -107.5t-127 -40q-66 0 -112.5 32
t-66.5 88l-19 -109h-76zM502 285q0 72 -40 111.5t-111 39.5q-62 0 -107 -39.5t-62 -105.5l-9 -50q-1 -15 -1 -31q0 -70 39.5 -110t111.5 -40q53 0 93.5 28.5t63 79.5t22.5 117z" />
    <glyph glyph-name="uni0254" unicode="&#x254;" horiz-adv-x="559" 
d="M564 299q0 -89 -35 -159t-95 -110t-135 -40q-98 0 -154.5 56.5t-56.5 149.5h77q0 -64 36.5 -100t103.5 -36q51 0 92 31.5t65 86t24 122.5q0 74 -39.5 114.5t-111.5 40.5q-55 0 -95.5 -33.5t-53.5 -87.5h-80q21 88 83.5 139t150.5 51q102 0 163 -61.5t61 -163.5z" />
    <glyph glyph-name="uni0255" unicode="&#x255;" horiz-adv-x="559" 
d="M104 -75q11 77 38 141q-58 64 -58 167q0 82 35.5 148t95.5 104.5t136 38.5q96 0 153.5 -54t57.5 -144h-77q-2 63 -38.5 97.5t-101.5 34.5q-52 0 -93.5 -30t-65.5 -81t-24 -116q0 -53 18 -91q40 61 95 95t118 34q65 0 106 -35.5t41 -101.5q0 -39 -28.5 -71t-76.5 -50.5
t-109 -18.5q-74 0 -130 31q-14 -45 -23 -98h-69zM332 55q55 0 93 22.5t38 54.5q0 39 -21 56t-55 17q-104 0 -164 -118q42 -32 109 -32z" />
    <glyph glyph-name="uni0256" unicode="&#x256;" horiz-adv-x="583" 
d="M579 -99l-12 -68h-19q-35 0 -63 13t-42 42t-5 76l21 117q-31 -41 -74.5 -65t-95.5 -24q-93 0 -149 60t-56 162q0 88 34 158.5t92 111.5t130 41q70 0 114 -33.5t62 -91.5l56 317h75l-132 -743q-8 -44 8 -58.5t44 -14.5h12zM162 216q0 -75 39 -115.5t109 -40.5
q49 0 90.5 30.5t67 84.5t25.5 124q0 74 -39 114.5t-109 40.5q-50 0 -91.5 -30.5t-66.5 -84t-25 -123.5z" />
    <glyph glyph-name="uni0257" unicode="&#x257;" horiz-adv-x="583" 
d="M712 649h-16q-26 0 -46 -14.5t-28 -58.5l-101 -576h-75l14 84q-31 -43 -74.5 -67.5t-96.5 -24.5q-93 0 -149 60t-56 162q0 88 34 158.5t92 111.5t130 41q70 0 114 -34t62 -92l33 187q12 73 51 102t92 29h31zM162 216q0 -75 39 -115.5t109 -40.5q49 0 90.5 30.5t67 84.5
t25.5 124q0 74 -39 114.5t-109 40.5q-50 0 -91.5 -30.5t-66.5 -84t-25 -123.5z" />
    <glyph glyph-name="uni0258" unicode="&#x258;" horiz-adv-x="566" 
d="M573 308q0 -92 -36 -163.5t-99 -112t-142 -40.5q-102 0 -159.5 44t-59.5 126h80q0 -50 37.5 -76.5t101.5 -26.5q73 0 123.5 48t67.5 130h-401l8 47q12 71 51 125t95.5 83.5t124.5 29.5q98 0 153 -56.5t55 -157.5zM177 298h318q1 11 1 22q0 137 -136 137q-67 0 -118 -43.5
t-65 -115.5z" />
    <glyph glyph-name="uni0259" unicode="&#x259;" horiz-adv-x="566" 
d="M568 298q0 -85 -32.5 -154.5t-91 -111t-138.5 -41.5q-78 0 -131 35t-76 94t-10 129l5 31h397v22q0 75 -40 114t-116 39q-54 0 -92 -26t-57 -74h-85q31 82 90.5 124.5t143.5 42.5q109 0 171 -59.5t62 -164.5zM302 56q68 0 115.5 43.5t64.5 119.5h-319q-11 -73 29 -118
t110 -45z" />
    <glyph glyph-name="uni025A" unicode="&#x25a;" horiz-adv-x="717" 
d="M746 236l-10 -62h-19q-47 0 -72 27.5t-19 73.5l2 13l-57 -12q-6 -83 -43.5 -147t-98 -100.5t-137.5 -36.5q-103 0 -156.5 56t-53.5 164v27l412 75v2q0 139 -138 139q-63 0 -108 -29t-65 -83h-79q63 179 253 179q96 0 152 -50t63 -140l87 17h39l-9 -53q-5 -34 4 -47
t39 -13h14zM162 191q1 -133 130 -133q78 0 130.5 53.5t67.5 142.5z" />
    <glyph glyph-name="uni025B" unicode="&#x25b;" horiz-adv-x="502" 
d="M484 151q-17 -72 -77.5 -116t-142.5 -44q-90 0 -143.5 36.5t-53.5 98.5q0 45 26 79.5t71 52.5q-48 29 -48 94q0 49 26.5 88t73.5 61.5t107 22.5q91 0 143 -44t52 -122h-78q0 48 -29.5 74t-84.5 26q-61 0 -96 -30.5t-35 -82.5q0 -57 59 -57h111l-9 -63h-112
q-43 0 -70.5 -25t-27.5 -63q0 -39 29.5 -59.5t83.5 -20.5q58 0 97.5 25.5t49.5 68.5h78z" />
    <glyph glyph-name="uni025C" unicode="&#x25c;" horiz-adv-x="502" 
d="M226 225l11 63h112q38 0 62.5 26.5t24.5 69.5q0 35 -27.5 54.5t-78.5 19.5q-54 0 -88.5 -24t-51.5 -77h-78q18 84 79 125.5t141 41.5q84 0 133.5 -37.5t49.5 -102.5q0 -43 -23.5 -76.5t-63.5 -51.5q57 -30 57 -101q0 -48 -28 -85t-78 -58t-115 -21q-89 0 -141 43.5
t-52 116.5h78q0 -44 30.5 -69t84.5 -25q68 0 105.5 28t37.5 78q0 62 -69 62h-112z" />
    <glyph glyph-name="uni025D" unicode="&#x25d;" horiz-adv-x="620" 
d="M643 236l-11 -62h-19q-47 0 -72 27.5t-18 73.5l1 13l-65 -13q-14 -11 -31 -19q57 -30 57 -101q0 -48 -28 -85t-78 -58t-115 -21q-89 0 -141 43.5t-52 116.5h78q0 -44 30.5 -69t84.5 -25q68 0 105.5 28t37.5 78q0 62 -69 62h-112l11 63h112q38 0 62.5 26.5t24.5 69.5
q0 35 -27.5 54.5t-78.5 19.5q-54 0 -88.5 -24t-51.5 -77h-78q18 84 79 125.5t141 41.5q84 0 133.5 -37.5t49.5 -102.5q0 -23 -8 -45l49 10h39l-9 -53q-6 -34 3.5 -47t38.5 -13h15z" />
    <glyph glyph-name="uni025E" unicode="&#x25e;" horiz-adv-x="524" 
d="M452 257q55 -31 55 -103q0 -47 -26 -83.5t-72 -58t-104 -21.5q-66 0 -116 27.5t-77 77.5t-27 117q0 65 21.5 121.5t60.5 99t91 66.5t112 24q76 0 121.5 -37t45.5 -100q0 -43 -23 -78t-62 -52zM163 204q0 -70 36.5 -107.5t103.5 -37.5q58 0 92.5 28t34.5 77q0 61 -70 61
h-84l11 63h84q38 0 62 27.5t24 70.5q0 34 -23 52.5t-66 18.5q-60 0 -106 -32.5t-72.5 -89.5t-26.5 -131z" />
    <glyph glyph-name="uni025F" unicode="&#x25f;" horiz-adv-x="330" 
d="M10 -139h40q29 0 50.5 14.5t28.5 56.5l12 68h-107l12 66h107l78 446h75l-78 -446h81l-12 -66h-81l-13 -74q-8 -48 -32.5 -76.5t-58 -41.5t-68.5 -13h-46z" />
    <glyph glyph-name="uni0260" unicode="&#x260;" horiz-adv-x="575" 
d="M711 649h-15q-27 0 -46.5 -14.5t-27.5 -58.5l-105 -604q-14 -79 -77 -128t-156 -49q-71 0 -124 23t-82 64.5t-29 96.5h77q0 -52 45 -85t121 -33q63 0 102 32t49 88l20 117q-32 -42 -76.5 -66t-96.5 -24q-61 0 -106.5 27t-70.5 75.5t-25 112.5q0 85 33 152.5t90 107.5
t127 40q66 0 112.5 -32t66.5 -88l32 183q8 48 30 76.5t51.5 41.5t61.5 13h31zM165 227q0 -72 40 -111.5t111 -39.5q62 0 106.5 39t62.5 104l9 54q1 14 1 29q0 70 -39.5 110t-111.5 40q-53 0 -93.5 -28.5t-63 -79.5t-22.5 -117z" />
    <glyph glyph-name="uni0261" unicode="&#x261;" horiz-adv-x="575" 
d="M612 512l-95 -544q-14 -77 -75 -125t-151 -48q-73 0 -127 23t-84 64.5t-30 96.5h77q0 -52 45.5 -85t121.5 -33q62 0 101 32t48 87l21 118q-33 -42 -77.5 -66t-96.5 -24q-61 0 -106.5 27t-70.5 75.5t-25 112.5q0 85 33 152.5t90 107.5t127 40q66 0 112 -32t67 -88l19 109
h76zM165 227q0 -72 40 -111.5t111 -39.5q62 0 106.5 39t62.5 105l9 52q1 14 1 30q0 70 -39.5 110t-111.5 40q-53 0 -93.5 -28.5t-63 -79.5t-22.5 -117z" />
    <glyph glyph-name="uni0262" unicode="&#x262;" horiz-adv-x="559" 
d="M93 212q0 90 34.5 160.5t96 111t141.5 40.5q98 0 155.5 -51.5t57.5 -137.5h-78q0 58 -37 90t-102 32q-56 0 -98.5 -32.5t-66.5 -88.5t-24 -129q0 -69 36.5 -109t100.5 -40q57 0 99.5 39t62.5 108h-141l10 60h230l-51 -265h-54l12 97q-32 -51 -79 -79t-102 -28
q-61 0 -106.5 28t-71 77.5t-25.5 116.5z" />
    <glyph glyph-name="uni0263" unicode="&#x263;" horiz-adv-x="553" 
d="M159 -36l79 118l-114 430h78l95 -383l226 383h87l-266 -431l37 -117q7 -21 7 -43q0 -35 -18.5 -63t-49.5 -44t-70 -16q-52 0 -85 26t-33 68q0 35 27 72zM311 -54l-28 91l-58 -91q-15 -25 -15 -42q0 -36 45 -36q26 0 43 16t17 40q0 10 -4 22z" />
    <glyph glyph-name="uni0264" unicode="&#x264;" horiz-adv-x="460" 
d="M160 155l53 67l-89 290h79l71 -244l156 244h86l-195 -291l31 -66q13 -26 13 -54q0 -30 -18 -55t-47 -40.5t-64 -15.5q-49 0 -79.5 24t-30.5 62q0 34 34 79zM281 137l-22 45l-35 -45q-20 -26 -20 -48q0 -30 35 -30q21 0 34.5 13.5t13.5 35.5q0 15 -6 29z" />
    <glyph glyph-name="uni0265" unicode="&#x265;" horiz-adv-x="537" 
d="M167 217q-13 -72 17.5 -114t94.5 -42q67 0 111.5 40t55.5 108v0l52 303h76l-117 -679h-76l42 243q-32 -40 -77 -62.5t-95 -22.5q-55 0 -95.5 30t-58.5 79.5t-7 108.5l54 303h75z" />
    <glyph glyph-name="uni0266" unicode="&#x266;" horiz-adv-x="538" 
d="M55 0l95 542q14 83 78 134.5t159 51.5q98 0 156.5 -50.5t58.5 -133.5h-77q0 52 -39 85t-104 33q-66 0 -107 -35.5t-52 -96.5l-17 -95q33 39 78 62t95 23q55 0 95.5 -30.5t59 -80t7.5 -108.5l-54 -301h-75l52 293q13 72 -18 114t-95 42q-62 0 -106 -34.5t-58 -94.5
l-56 -320h-76z" />
    <glyph glyph-name="uni0267" unicode="&#x267;" horiz-adv-x="538" 
d="M55 0l95 542q14 83 78 134.5t159 51.5q98 0 156.5 -50.5t58.5 -133.5h-77q0 52 -39 85t-104 33q-66 0 -107.5 -35.5t-51.5 -96.5l-17 -99q32 41 78 65t95 24q91 0 135 -53t28 -144l-63 -352q-12 -73 -53.5 -113t-103.5 -40h-72l13 69h50q40 0 62 21t30 69l59 330
q23 142 -103 142q-63 0 -112 -36t-62 -92l-56 -321h-76z" />
    <glyph glyph-name="uni0268" unicode="&#x268;" horiz-adv-x="224" 
d="M186 668h89l-15 -84h-89zM165 512h75l-35 -196h75l-11 -66h-75l-44 -250h-75l44 250h-75l12 66h75z" />
    <glyph glyph-name="uni0269" unicode="&#x269;" horiz-adv-x="249" 
d="M236 68l-12 -68h-46q-32 0 -58 13t-38.5 41.5t-4.5 76.5l68 381h75l-65 -371q-8 -44 4.5 -58.5t36.5 -14.5h40z" />
    <glyph glyph-name="uni026A" unicode="&#x26a;" horiz-adv-x="358" 
d="M414 512l-12 -69h-107l-66 -373h107l-12 -70h-290l13 70h107l65 373h-107l13 69h289z" />
    <glyph glyph-name="uni026B" unicode="&#x26b;" horiz-adv-x="314" 
d="M174 439q13 0 24 -4l50 282h75l-62 -348q9 -7 19 -7q21 0 36 19.5t21 51.5h54q-11 -61 -43 -96.5t-76 -35.5q-12 0 -22 3l-54 -304h-75l65 367q-9 11 -20 11q-20 0 -35 -20t-21 -53h-56q11 63 42.5 98.5t77.5 35.5z" />
    <glyph glyph-name="uni026C" unicode="&#x26c;" horiz-adv-x="314" 
d="M257 717h74l-67 -383h110l-10 -57h-110l-49 -277h-75l49 277h-1q-53 0 -82.5 25t-29.5 71q0 57 36.5 92.5t95.5 35.5h20zM184 334h5l19 109h-5q-74 0 -74 -68q0 -41 55 -41z" />
    <glyph glyph-name="uni026D" unicode="&#x26d;" horiz-adv-x="244" 
d="M193 -99l-12 -68h-20q-35 0 -64 13t-43 41.5t-6 76.5l133 753h76l-131 -743q-8 -44 8 -58.5t45 -14.5h14z" />
    <glyph glyph-name="uni026E" unicode="&#x26e;" horiz-adv-x="572" 
d="M384 221q159 -13 159 -189q0 -69 -33 -122.5t-92 -84t-137 -30.5q-98 0 -156 42.5t-58 114.5h77q1 -42 37 -65.5t100 -23.5q83 0 133 48.5t50 128.5q0 59 -33 90t-96 31h-47l11 65l192 217l-283 1l-78 -444h-76l126 717h76l-36 -205h375l-10 -69z" />
    <glyph glyph-name="uni026F" unicode="&#x26f;" horiz-adv-x="852" 
d="M160 203q-14 -76 15.5 -108.5t82.5 -32.5q35 0 68.5 17t58 46t33.5 67v2l59 318h75l-57 -308q-14 -75 15.5 -110t88.5 -35q52 0 95.5 31.5t58.5 84.5l59 337h76l-90 -512h-76l12 69q-34 -39 -79 -59.5t-89 -20.5q-55 0 -95 30.5t-52 83.5q-33 -53 -84.5 -82.5
t-102.5 -29.5q-50 0 -88 24.5t-55 70t-6 107.5l58 319h75z" />
    <glyph glyph-name="uni0270" unicode="&#x270;" horiz-adv-x="852" 
d="M160 203q-14 -76 15.5 -108.5t82.5 -32.5q35 0 68.5 17t58 46t33.5 67v2l59 318h75l-57 -308q-14 -75 15.5 -110t88.5 -35q52 0 95 30.5t58 83.5l60 339h76l-120 -679h-76l42 235q-34 -38 -79 -58.5t-89 -20.5q-55 0 -95 30.5t-52 83.5q-33 -53 -84.5 -82.5t-102.5 -29.5
q-50 0 -88 24.5t-55.5 70t-5.5 107.5l58 319h75z" />
    <glyph glyph-name="uni0271" unicode="&#x271;" horiz-adv-x="852" 
d="M145 512h76l-12 -69q33 39 78.5 59.5t89.5 20.5q56 0 96.5 -31.5t51.5 -86.5q30 50 79 81.5t103 31.5q86 0 127 -53t26 -145l-64 -350q-12 -72 -53 -112t-103 -40h-69l12 69h49q39 0 60.5 21t30.5 69l59 327q11 70 -13 106t-80 36q-60 0 -105.5 -35.5t-58.5 -91.5v-1
l-59 -318h-75l57 309q14 74 -15.5 109t-88.5 35q-52 0 -95.5 -31.5t-58.5 -84.5l-59 -337h-76z" />
    <glyph glyph-name="uni0272" unicode="&#x272;" horiz-adv-x="538" 
d="M-54 -107h32q25 0 43.5 14.5t26.5 56.5l97 548h75l-12 -73q32 39 76.5 61.5t93.5 22.5q56 0 97 -29t59.5 -78t7.5 -110l-55 -306h-75l53 295q13 72 -18 114t-96 42q-64 0 -108 -37t-58 -101l-62 -355q-8 -48 -30 -77t-51 -41.5t-60 -12.5h-48z" />
    <glyph glyph-name="uni0273" unicode="&#x273;" horiz-adv-x="538" 
d="M145 512h75l-12 -68q34 40 79 60t88 20q89 0 137.5 -51t29.5 -147l-62 -352q-7 -44 7.5 -58.5t40.5 -14.5h12l-12 -68h-16q-34 0 -61.5 15.5t-41 44.5t-5.5 71l61 346q13 75 -18.5 108.5t-94.5 33.5q-40 0 -75.5 -17t-59.5 -47.5t-31 -70.5v0l-56 -317h-76z" />
    <glyph glyph-name="uni0274" unicode="&#x274;" horiz-adv-x="544" 
d="M504 512h75l-90 -512h-82l-204 417l-73 -417h-76l91 512h95l194 -400z" />
    <glyph glyph-name="uni0275" unicode="&#x275;" horiz-adv-x="568" 
d="M84 215q0 88 35 158t95 110.5t135 40.5q67 0 116.5 -28t77 -78t27.5 -118q0 -88 -35 -158t-95 -111t-135 -41q-67 0 -116.5 28t-77 78.5t-27.5 118.5zM496 301q0 74 -40 115t-112 41q-62 0 -111 -46t-66 -123h329v3.5v9.5zM159 215q0 -76 40 -117t112 -41q61 0 110 46.5
t67 124.5h-329v-13z" />
    <glyph glyph-name="uni0276" unicode="&#x276;" horiz-adv-x="855" 
d="M84 215q0 88 34 158t92 110.5t131 40.5q62 0 108 -30.5t69 -84.5l18 103h373l-11 -66h-296l-27 -157h267l-11 -63h-268l-27 -158h295l-12 -68h-373l12 67q-33 -36 -75 -56.5t-90 -20.5q-63 0 -110 28t-73 78.5t-26 118.5zM493 301q0 72 -39.5 112.5t-109.5 40.5
q-49 0 -90.5 -30.5t-66.5 -84.5t-25 -124q0 -74 39.5 -114.5t109.5 -40.5q48 0 89.5 31t67 85t25.5 125z" />
    <glyph glyph-name="uni0277" unicode="&#x277;" horiz-adv-x="720" 
d="M381 89q-59 -101 -156 -101q-69 0 -108.5 48t-39.5 131q0 76 27 140.5t76.5 113t116.5 75.5t146 27q85 0 147.5 -31.5t96.5 -88.5t34 -135q0 -77 -29 -140.5t-78 -101.5t-108 -38q-48 0 -80.5 26t-44.5 75zM444 451q-86 0 -151 -36.5t-101.5 -101t-36.5 -149.5
q0 -102 79 -102q46 0 78 29t46 82l25 138h63l-23 -127q-8 -55 13 -88t66 -33q40 0 72 27.5t50.5 75t18.5 107.5q0 85 -52 131.5t-147 46.5z" />
    <glyph glyph-name="uni0278" unicode="&#x278;" horiz-adv-x="568" 
d="M84 215q0 88 35 158t94.5 110.5t134.5 40.5l34 193h55l-35 -198q77 -16 122.5 -73.5t45.5 -145.5q0 -87 -34.5 -156.5t-93.5 -110.5t-133 -43l-27 -157h-56l29 162q-79 15 -125 73t-46 147zM159 215q0 -63 28 -102t80 -50l69 392q-49 -2 -89 -33.5t-64 -85t-24 -121.5z
M496 301q0 60 -27.5 99t-78.5 51l-69 -392q47 3 87 34.5t64 85t24 122.5z" />
    <glyph glyph-name="uni0279" unicode="&#x279;" horiz-adv-x="333" 
d="M48 69h22q41 0 77 17t60.5 47t31.5 69v0l55 310h75l-90 -512h-75l13 78q-32 -42 -75.5 -65t-84.5 -23h-23z" />
    <glyph glyph-name="uni027A" unicode="&#x27a;" horiz-adv-x="333" 
d="M48 69h22q41 0 77 17t60.5 47t31.5 69v0l91 515h75l-126 -717h-75l13 78q-32 -42 -75.5 -65t-84.5 -23h-23z" />
    <glyph glyph-name="uni027B" unicode="&#x27b;" horiz-adv-x="333" 
d="M48 69h22q41 0 77 17t60.5 47t31.5 69v0l55 310h75l-95 -538q-8 -44 8.5 -58.5t45.5 -14.5h14l-12 -68h-20q-35 0 -63.5 13t-43 41.5t-6.5 76.5l20 114q-32 -42 -75.5 -65t-84.5 -23h-23z" />
    <glyph glyph-name="uni027C" unicode="&#x27c;" horiz-adv-x="333" 
d="M144 512h76l-13 -77q32 42 75 64.5t84 22.5h23l-14 -79h-22q-41 0 -76.5 -17t-60.5 -47t-31 -69v0l-85 -477h-75z" />
    <glyph glyph-name="uni027D" unicode="&#x27d;" horiz-adv-x="333" 
d="M193 -99l-12 -68h-21q-35 0 -63.5 13t-43 41.5t-5.5 76.5l96 548h76l-13 -77q32 42 75 64.5t84 22.5h23l-14 -79h-22q-41 0 -76.5 -17t-60.5 -47t-31 -69v0l-60 -336q-7 -44 9 -58.5t44 -14.5h15z" />
    <glyph glyph-name="uni027E" unicode="&#x27e;" horiz-adv-x="255" 
d="M300 444h-14q-35 0 -59 -16.5t-33 -67.5l-64 -360h-76l65 367q9 53 36 85t63 46t74 14h20z" />
    <glyph glyph-name="uni027F" unicode="&#x27f;" horiz-adv-x="238" 
d="M95 444l12 68h36q34 0 61.5 -13.5t40.5 -43.5t5 -79l-96 -543h-75l94 535q8 45 -6.5 60.5t-41.5 15.5h-30z" />
    <glyph glyph-name="uni0280" unicode="&#x280;" horiz-adv-x="525" 
d="M300 190h-136l-34 -190h-76l90 512h246q72 0 114.5 -35.5t42.5 -97.5q0 -61 -36.5 -105t-95.5 -58q39 -9 56.5 -36t17.5 -75v-105h-75v94q0 51 -26.5 73.5t-87.5 22.5zM382 446h-173l-33 -190h172q55 0 87.5 31.5t32.5 83.5q0 36 -22.5 55.5t-63.5 19.5z" />
    <glyph glyph-name="uni0281" unicode="&#x281;" horiz-adv-x="525" 
d="M323 322q65 0 100.5 26t52.5 86l23 78h74l-25 -87q-18 -60 -47 -91.5t-78 -41.5q42 -14 65.5 -46.5t23.5 -78.5q0 -47 -25.5 -85t-68.5 -60t-96 -22h-268l91 512h75l-33 -190h136zM315 66q53 0 86.5 31.5t33.5 81.5q0 37 -22.5 57t-64.5 20h-173l-33 -190h173z" />
    <glyph glyph-name="uni0282" unicode="&#x282;" horiz-adv-x="514" 
d="M181 -107l-11 -66h-18q-64 0 -94.5 33.5t-21.5 94.5l38 211h75q0 -55 38 -84.5t107 -29.5q59 0 92.5 22t33.5 62q0 30 -21.5 48.5t-67.5 30.5l-79 18q-71 16 -104.5 48.5t-33.5 84.5q0 73 54 115.5t146 42.5q94 0 148.5 -46.5t56.5 -130.5h-74q0 113 -135 113
q-56 0 -88.5 -23.5t-32.5 -63.5q0 -28 20 -44.5t65 -25.5l82 -17q139 -29 139 -139q0 -75 -51 -116.5t-141 -41.5q-62 0 -105.5 23.5t-64.5 65.5l-22 -114q-14 -71 54 -71h16z" />
    <glyph glyph-name="uni0283" unicode="&#x283;" horiz-adv-x="304" 
d="M160 -22q-10 -56 -35.5 -89t-60 -47.5t-69.5 -14.5h-43l12 69h31q32 0 56.5 18t34.5 71l106 601q8 48 32.5 76.5t58 41.5t68.5 13h46l-12 -66h-40q-29 0 -50.5 -14.5t-28.5 -56.5z" />
    <glyph glyph-name="uni0284" unicode="&#x284;" horiz-adv-x="329" 
d="M33 0l11 66h82l91 520q9 48 33.5 76.5t57.5 41.5t68 13h46l-11 -66h-40q-30 0 -51 -14.5t-29 -56.5l-90 -514h107l-12 -66h-107l-7 -41q-9 -48 -33.5 -77t-57.5 -42t-68 -13h-38l12 68h32q29 0 50 14t29 56l6 35h-81z" />
    <glyph glyph-name="uni0285" unicode="&#x285;" horiz-adv-x="344" 
d="M111 446l12 66h46q35 0 64 -13t43 -41.5t6 -76.5l-73 -414q-8 -42 8 -56.5t45 -14.5h32l-12 -69h-38q-35 0 -63.5 13t-42.5 42.5t-5 78.5l73 414q7 42 -9 56.5t-46 14.5h-40z" />
    <glyph glyph-name="uni0286" unicode="&#x286;" horiz-adv-x="457" 
d="M414 -205h-74q0 114 -30 176q-21 -69 -66.5 -106.5t-111.5 -37.5q-70 0 -110 33.5t-40 93.5q0 47 24.5 85.5t66.5 61t93 22.5q52 0 94 -17l85 480q10 62 49.5 96.5t100.5 34.5h54l-11 -66h-40q-34 0 -53 -17t-26 -54l-91 -517q86 -83 86 -268zM58 -44q0 -29 19.5 -44.5
t55.5 -15.5q48 0 74 27.5t36 88.5l5 25q-35 18 -84 18q-45 0 -75.5 -28.5t-30.5 -70.5z" />
    <glyph glyph-name="uni0287" unicode="&#x287;" horiz-adv-x="330" 
d="M297 0h-94l-24 -133h-75l24 133h-94l12 66h93l54 305q8 44 -4.5 58.5t-36.5 14.5h-40l12 68h47q32 0 57.5 -13t37.5 -41.5t4 -76.5l-56 -315h95z" />
    <glyph glyph-name="uni0288" unicode="&#x288;" horiz-adv-x="330" 
d="M280 -99l-12 -68h-47q-32 0 -57.5 13t-38 41.5t-4.5 76.5l85 482h-93l11 66h94l23 133h75l-23 -133h95l-12 -66h-95l-83 -472q-8 -44 5 -58.5t37 -14.5h40z" />
    <glyph glyph-name="uni0289" unicode="&#x289;" horiz-adv-x="530" 
d="M54 309h51l36 203h76l-37 -203h274l36 203h74l-35 -203h55l-11 -63h-55l-43 -246h-75l13 74q-32 -39 -76 -61t-93 -22q-56 0 -95.5 29.5t-56 79t-5.5 109.5l6 37h-50zM164 217q-13 -72 15 -114t93 -42q66 0 110 40t54 108h1l6 37h-274z" />
    <glyph glyph-name="uni028A" unicode="&#x28a;" horiz-adv-x="575" 
d="M299 -10q-100 0 -159 54t-60 146q0 79 43 147t113 107h-113l11 68h205l-11 -68q-48 -16 -85.5 -54t-59 -89t-21.5 -107q0 -64 36 -98t102 -34q59 0 104 28.5t70 79t25 117.5q0 57 -24.5 99t-68.5 58l12 68h204l-11 -68h-118q40 -28 62 -73t22 -101q0 -78 -37 -141.5
t-100 -101t-141 -37.5z" />
    <glyph glyph-name="uni028B" unicode="&#x28b;" horiz-adv-x="538" 
d="M144 512h76l-55 -310q-11 -65 18 -101t92 -36q58 0 102.5 35t69.5 96.5t25 141.5q0 106 -95 106h-21l12 68h29q72 0 111.5 -47.5t39.5 -133.5q0 -72 -21 -133.5t-58 -108t-87 -72t-108 -25.5q-67 0 -112.5 26.5t-64.5 74t-7 109.5z" />
    <glyph glyph-name="uni028C" unicode="&#x28c;" horiz-adv-x="553" 
d="M520 0h-77l-87 427l-234 -427h-88l290 512h86z" />
    <glyph glyph-name="uni028D" unicode="&#x28d;" horiz-adv-x="793" 
d="M760 0h-78l-34 420l-202 -420h-87l-49 420l-190 -420h-86l248 512h82l50 -423l202 423h85z" />
    <glyph glyph-name="uni028E" unicode="&#x28e;" horiz-adv-x="557" 
d="M608 645h-45q-46 0 -74.5 -25.5t-60.5 -83.5l-15 -29l110 -507h-76l-91 420l-233 -420h-89l307 544q51 92 97.5 132.5t111.5 40.5h71z" />
    <glyph glyph-name="uni028F" unicode="&#x28f;" horiz-adv-x="524" 
d="M252 164l-127 348h80l93 -266l188 266h95l-254 -348l-29 -164h-75z" />
    <glyph glyph-name="uni0290" unicode="&#x290;" horiz-adv-x="483" 
d="M502 -107l-12 -66h-21q-34 0 -63 12.5t-43.5 40.5t-6.5 75l8 45h-318l13 78l371 370h-305l11 64h392l-14 -78l-372 -370h307l-11 -64l-7 -36q-7 -43 9.5 -57t44.5 -14h17z" />
    <glyph glyph-name="uni0291" unicode="&#x291;" horiz-adv-x="582" 
d="M225 -101q9 53 25 101h-204l13 78l370 370h-304l11 64h392l-14 -78l-369 -370h131q37 76 91 119t116 43q54 0 87.5 -30t33.5 -77q0 -51 -39 -85t-99 -34h-147q-15 -45 -25 -101h-69zM478 164q-79 0 -131 -100h120q30 0 48 16t18 42q0 19 -15 30.5t-40 11.5z" />
    <glyph glyph-name="uni0292" unicode="&#x292;" horiz-adv-x="543" 
d="M354 221q159 -13 159 -189q0 -69 -32.5 -122.5t-91 -84t-135.5 -30.5q-99 0 -158 50.5t-59 137.5h77q0 -57 37 -87.5t104 -30.5q80 0 129.5 48t49.5 127q0 59 -33 90t-96 31h-47l10 65l215 217l-359 1l11 68h455l-10 -69z" />
    <glyph glyph-name="uni0293" unicode="&#x293;" horiz-adv-x="543" 
d="M354 228q159 -15 159 -196q0 -73 -38 -130q22 -48 35 -107h-66q-9 30 -18 54q-34 -26 -78.5 -40t-96.5 -14q-99 0 -157.5 39t-58.5 106q0 40 24 70.5t62 48.5t82 18q140 0 222 -96q9 27 9 59q0 63 -33.5 96t-97.5 33h-47l11 65l215 209l-358 1l11 68h455l-10 -69zM211 12
q-38 0 -68 -19.5t-30 -52.5q0 -38 35.5 -58.5t99.5 -20.5q45 0 81.5 15t61.5 43q-32 49 -76 71t-104 22z" />
    <glyph glyph-name="uni0294" unicode="&#x294;" horiz-adv-x="541" 
d="M351 230l-41 -230h-75l48 274q110 40 169.5 111t59.5 159q0 55 -33 84.5t-95 29.5q-64 0 -110.5 -40.5t-61.5 -108.5h-78q23 102 90 160t159 58q62 0 108.5 -23.5t73 -65.5t26.5 -97q0 -94 -64.5 -177.5t-175.5 -133.5z" />
    <glyph glyph-name="uni0295" unicode="&#x295;" horiz-adv-x="541" 
d="M273 230q-70 42 -107 100t-37 139q0 74 32.5 132.5t90 92t130.5 33.5q104 0 159.5 -59.5t44.5 -158.5h-77q7 66 -26 107.5t-103 41.5q-78 0 -125 -53t-47 -141q0 -127 148 -190l-49 -274h-75z" />
    <glyph glyph-name="uni0296" unicode="&#x296;" horiz-adv-x="541" 
d="M390 487q70 -42 107 -100t37 -139q0 -74 -32.5 -132.5t-89.5 -92t-131 -33.5q-104 0 -159 59.5t-45 158.5h78q-8 -66 25.5 -107.5t102.5 -41.5q78 0 125.5 53t47.5 141q0 127 -148 190l48 274h75z" />
    <glyph glyph-name="uni0297" unicode="&#x297;" horiz-adv-x="562" 
d="M72 112q0 89 22 164t62 130.5t93 86.5t116 31q92 0 145 -59t53 -155h-77q0 67 -33.5 105.5t-94.5 38.5q-59 0 -106 -45t-74.5 -123t-27.5 -175q0 -119 40 -183t115 -64q57 0 99 38t56 99h80q-21 -95 -85.5 -150.5t-155.5 -55.5q-69 0 -120 39t-79 110.5t-28 167.5z" />
    <glyph glyph-name="uni0298" unicode="&#x298;" horiz-adv-x="640" 
d="M93 242q0 93 25 172t70.5 138t106.5 91.5t133 32.5q113 0 173.5 -67t60.5 -191q0 -125 -42.5 -221t-117 -150.5t-171.5 -54.5q-115 0 -176.5 65t-61.5 185zM586 427q0 181 -159 181q-75 0 -133.5 -48t-91.5 -132t-33 -194q0 -174 162 -174q77 0 134.5 45.5t89 128
t31.5 193.5zM347 368h79l-15 -82h-79z" />
    <glyph glyph-name="uni0299" unicode="&#x299;" horiz-adv-x="529" 
d="M444 258q32 -15 50 -42.5t18 -64.5q0 -42 -22.5 -76.5t-61 -54.5t-85.5 -20h-289l90 512h261q63 0 100.5 -33.5t37.5 -89.5q0 -46 -26 -80t-73 -51zM369 288q42 0 67.5 26.5t25.5 70.5q0 63 -70 63h-180l-28 -160h185zM328 64q49 0 77.5 26.5t28.5 71.5q0 64 -76 64h-185
l-28 -162h183z" />
    <glyph glyph-name="uni029A" unicode="&#x29a;" horiz-adv-x="524" 
d="M165 258q-55 31 -55 103q0 47 26 83.5t71 58t103 21.5q67 0 117 -28.5t77.5 -80.5t27.5 -122q0 -63 -21.5 -117.5t-60.5 -96t-91 -65t-112 -23.5q-76 0 -121 37t-45 101q0 42 22.5 77t61.5 52zM455 302q0 74 -37 114t-104 40q-58 0 -92.5 -28t-34.5 -77q0 -60 71 -60h84
l-11 -64h-84q-39 0 -63 -27.5t-24 -70.5q0 -34 23 -52t66 -18q60 0 106 31t73 86t27 126z" />
    <glyph glyph-name="uni029B" unicode="&#x29b;" horiz-adv-x="559" 
d="M93 212q0 90 33.5 160.5t92.5 111t136 40.5q58 0 100 -24t65 -66l17 96q8 49 31.5 79t55.5 43.5t65 13.5h19l-12 -69h-13q-29 0 -50 -15t-28 -60l-33 -186h-75q0 57 -36 89t-100 32q-56 0 -98.5 -32.5t-66.5 -88.5t-24 -129q0 -69 36.5 -109t100.5 -40q57 0 99.5 39
t62.5 108h-141l10 60h230l-51 -265h-54l12 97q-32 -51 -79 -79t-102 -28q-61 0 -106.5 28t-71 77.5t-25.5 116.5z" />
    <glyph glyph-name="uni029C" unicode="&#x29c;" horiz-adv-x="544" 
d="M145 512h75l-38 -220h284l38 220h75l-90 -512h-75l39 222h-284l-39 -222h-76z" />
    <glyph glyph-name="uni029D" unicode="&#x29d;" horiz-adv-x="272" 
d="M253 668h89l-14 -84h-89zM211 -38q-10 -63 -49 -99t-97 -36q-61 0 -94.5 30t-33.5 84q0 43 23 77.5t62 54.5t88 20h49l74 419h75l-74 -419h62l-12 -65h-61zM64 -105q32 0 49 17t24 56l11 60h-36q-45 0 -73 -23.5t-28 -61.5q0 -48 53 -48z" />
    <glyph glyph-name="uni029E" unicode="&#x29e;" horiz-adv-x="504" 
d="M148 0h-108l264 251l-186 261h88l155 -212l80 72l25 140h75l-120 -679h-75l77 434z" />
    <glyph glyph-name="uni029F" unicode="&#x29f;" horiz-adv-x="398" 
d="M363 0h-309l91 512h75l-77 -441h233z" />
    <glyph glyph-name="uni02A0" unicode="&#x2a0;" horiz-adv-x="583" 
d="M712 649h-16q-26 0 -46 -14.5t-28 -58.5l-129 -743h-75l44 252q-32 -43 -76 -68t-97 -25q-93 0 -149 60t-56 162q0 88 34 158.5t92 111.5t130 41q70 0 114.5 -34t61.5 -93l33 188q13 73 51.5 102t91.5 29h31zM162 216q0 -75 39 -115.5t109 -40.5q49 0 90.5 30.5t67 84.5
t25.5 124q0 74 -39 114.5t-109 40.5q-50 0 -91.5 -30.5t-66.5 -84t-25 -123.5z" />
    <glyph glyph-name="uni02A1" unicode="&#x2a1;" horiz-adv-x="541" 
d="M119 189h149l15 85q110 40 169.5 111t59.5 159q0 55 -33 84.5t-95 29.5q-64 0 -110.5 -40.5t-61.5 -108.5h-78q23 102 90 160t159 58q62 0 108.5 -23.5t73 -65.5t26.5 -97q0 -62 -29.5 -119.5t-83 -105.5t-127.5 -81l-8 -46h149l-11 -62h-149l-22 -127h-75l22 127h-149z
" />
    <glyph glyph-name="uni02A2" unicode="&#x2a2;" horiz-adv-x="541" 
d="M119 189h146l8 47q-70 42 -107 99.5t-37 136.5q0 73 32.5 130.5t90 91t130.5 33.5q104 0 159.5 -59.5t44.5 -158.5h-77q7 66 -26 107.5t-103 41.5q-78 0 -125 -53t-47 -141q0 -127 148 -190l-15 -85h151l-11 -62h-152l-22 -127h-75l22 127h-146z" />
    <glyph glyph-name="uni02A3" unicode="&#x2a3;" horiz-adv-x="1004" 
d="M648 717l-36 -205h436l-13 -78l-372 -370h307l-12 -64h-392l14 78l371 370h-350l-79 -448h-76l15 84q-32 -43 -75.5 -67.5t-96.5 -24.5q-93 0 -149 60t-56 162q0 88 34 158.5t92 111.5t130 41q70 0 114 -34t62 -92l56 318h76zM162 216q0 -75 39 -115.5t109 -40.5
q49 0 90.5 30.5t67 84.5t25.5 124q0 74 -39 114.5t-109 40.5q-50 0 -91.5 -30.5t-66.5 -84t-25 -123.5z" />
    <glyph glyph-name="uni02A4" unicode="&#x2a4;" horiz-adv-x="971" 
d="M572 717h76l-36 -205h375l-10 -69l-201 -222q159 -13 159 -189q0 -69 -33 -122.5t-92 -84t-137 -30.5q-99 0 -156.5 42.5t-57.5 114.5h77q0 -42 36.5 -65.5t100.5 -23.5q83 0 133 48.5t50 128.5q0 59 -33 90t-96 31h-47l10 65l192 217l-282 1l-78 -444h-76l15 84
q-32 -43 -75.5 -67.5t-96.5 -24.5q-93 0 -149 60t-56 162q0 88 34 158.5t92 111.5t130 41q70 0 114 -34t62 -92zM162 216q0 -75 39 -115.5t109 -40.5q49 0 90.5 30.5t67 84.5t25.5 124q0 74 -39 114.5t-109 40.5q-50 0 -91.5 -30.5t-66.5 -84t-25 -123.5z" />
    <glyph glyph-name="uni02A5" unicode="&#x2a5;" horiz-adv-x="1047" 
d="M745 -101q9 53 25 101h-204l13 78l370 370h-348l-79 -448h-76l15 84q-32 -43 -75.5 -67.5t-96.5 -24.5q-93 0 -149 60t-56 162q0 88 34 158.5t92 111.5t130 41q70 0 114 -34t62 -92l56 318h76l-36 -205h436l-14 -78l-369 -370h131q37 76 91 119t116 43q54 0 87.5 -30
t33.5 -77q0 -51 -39 -85t-99 -34h-147q-15 -45 -25 -101h-69zM162 216q0 -75 39 -115.5t109 -40.5q49 0 90.5 30.5t67 84.5t25.5 124q0 74 -39 114.5t-109 40.5q-50 0 -91.5 -30.5t-66.5 -84t-25 -123.5zM998 163q-79 1 -131 -99h120q30 0 48 16t18 42q0 19 -15 30.5
t-40 10.5z" />
    <glyph glyph-name="uni02A6" unicode="&#x2a6;" horiz-adv-x="783" 
d="M601 219l-80 11q-140 21 -140 127q0 49 27 86.5t75 58t112 20.5q95 0 146 -42t51 -121h-75q0 51 -30.5 75.5t-95.5 24.5q-59 0 -96 -26.5t-37 -68.5q0 -27 20 -41.5t66 -20.5l82 -10q141 -20 141 -134q0 -71 -52 -114.5t-138 -43.5h-286q-40 0 -75 13.5t-53.5 47
t-7.5 94.5l52 291h-94l11 66h94l24 133h75l-24 -133h94l-11 -66h-94l-50 -282q-7 -42 5.5 -68t63.5 -26h266q57 0 90 22.5t33 60.5q0 54 -89 66z" />
    <glyph glyph-name="uni02A7" unicode="&#x2a7;" horiz-adv-x="577" 
d="M434 -24q-9 -55 -33 -87.5t-56 -47t-65 -14.5h-55l13 69h31q32 0 56.5 17.5t33.5 69.5l3 17h-108q-33 0 -59.5 13t-39.5 41.5t-4 76.5l55 315h-93l11 66h94l23 133h75l-23 -133h159l13 74q8 48 30.5 76.5t53.5 41.5t63 13h59l-12 -66h-40q-29 0 -50 -14.5t-29 -56.5z
M269 68h105l67 378h-160l-54 -305q-7 -44 5.5 -58.5t36.5 -14.5z" />
    <glyph glyph-name="uni02A8" unicode="&#x2a8;" horiz-adv-x="821" 
d="M265 0q-65 0 -95 35t-19 98l56 313h-94l11 66h94l24 133h75l-24 -133h94l-11 -66h-94l-54 -304q-7 -40 3.5 -59t40.5 -19q28 0 53 10.5t50 27.5q-26 48 -26 111q0 64 21.5 120t60 98.5t89 66.5t107.5 24q96 0 154 -50.5t58 -134.5h-79q-2 55 -37 86t-96 31
q-58 0 -103 -31.5t-71 -87.5t-26 -127q0 -33 9 -59h1q33 31 67 57.5t72.5 43t85.5 16.5q65 0 103 -34.5t38 -94.5q0 -40 -28.5 -73.5t-76 -54t-103.5 -20.5q-116 0 -183 63q-33 -23 -68.5 -37.5t-78.5 -14.5zM604 53q53 0 87 23.5t34 60.5q0 64 -76 64q-50 0 -91 -31.5
t-88 -73.5q46 -43 134 -43z" />
    <glyph glyph-name="uni02A9" unicode="&#x2a9;" horiz-adv-x="781" 
d="M113 446l11 66h81l13 74q8 48 31 76.5t53.5 41.5t63.5 13h58l-12 -66h-40q-29 0 -50.5 -14.5t-29.5 -56.5l-12 -68h108l-3 -15l3 15h74l-12 -71q30 37 73 60t94 23q95 0 140 -53.5t27 -144.5l-62 -355q-12 -73 -54.5 -113t-106.5 -40h-69l13 69h50q40 0 62 21t31 69
l58 333q26 142 -111 142q-41 0 -76.5 -17.5t-59.5 -48t-31 -69.5v0l-56 -317h-75l79 446h-107l-79 -446h-75l79 446h-81z" />
    <glyph glyph-name="uni02AA" unicode="&#x2aa;" horiz-adv-x="680" 
d="M496 219l-80 11q-138 20 -138 125q0 75 58.5 121t154.5 46q98 0 151 -44.5t53 -125.5h-75q0 52 -33 79.5t-96 27.5q-61 0 -99 -27t-38 -71q0 -25 19.5 -39t65.5 -20l83 -10q140 -20 140 -132q0 -73 -56 -116.5t-151 -43.5h-245q-73 0 -107 41t-21 114l98 562h76l-97 -553
q-8 -49 8.5 -71.5t61.5 -22.5h216q66 0 103.5 22t37.5 60q0 55 -90 67z" />
    <glyph glyph-name="uni02AB" unicode="&#x2ab;" horiz-adv-x="612" 
d="M257 717l-37 -205h438l-14 -78l-371 -370h306l-11 -64h-392l14 78l369 370h-350l-79 -448h-76l127 717h76z" />
    <glyph glyph-name="uni02AC" unicode="&#x2ac;" horiz-adv-x="535" 
d="M152 666h71l16 -216l106 216h74l26 -216l99 216h74l-149 -297h-68l-30 218l-110 -218h-72zM87 297h71l16 -215l106 215h74l26 -215l99 215h74l-149 -297h-68l-30 218l-110 -218h-72z" />
    <glyph glyph-name="uni02AD" unicode="&#x2ad;" horiz-adv-x="535" 
d="M545 369h-66l41 233h-291l-41 -233h-68l53 297h425zM480 0h-66l41 234h-291l-41 -234h-68l53 297h425z" />
    <glyph glyph-name="uni02AE" unicode="&#x2ae;" horiz-adv-x="530" 
d="M167 208q-14 -78 15.5 -113t90.5 -35q39 0 73.5 18.5t59 50.5t31.5 73v0l54 310h75l-119 -679h-75l42 240q-32 -41 -75.5 -63t-92.5 -22q-86 0 -130.5 53.5t-27.5 151.5l31 175q8 45 -6 60.5t-42 15.5h-30l12 68h36q34 0 61.5 -13.5t41 -43.5t4.5 -79z" />
    <glyph glyph-name="uni02AF" unicode="&#x2af;" horiz-adv-x="530" 
d="M167 208q-14 -78 15.5 -113t90.5 -35q39 0 73.5 18.5t59 50.5t31.5 73v0l54 310h75l-95 -538q-7 -45 7.5 -60t41.5 -15h15l-12 -66h-22q-33 0 -60.5 13t-41 41.5t-4.5 76.5l20 112q-33 -42 -78 -65t-91 -23q-86 0 -131 53t-27 152l31 175q8 45 -6 60.5t-42 15.5h-30
l12 68h36q34 0 61.5 -13.5t41 -43.5t4.5 -79z" />
    <glyph glyph-name="uni02BC" unicode="&#x2bc;" horiz-adv-x="146" 
d="M181 702h89l-19 -112q-10 -58 -40.5 -81.5t-63.5 -23.5h-20l8 44h14q24 0 41.5 13t24.5 54l2 13h-53z" />
    <glyph glyph-name="uni02C8" unicode="&#x2c8;" horiz-adv-x="181" 
d="M181 717h73l-58 -327h-73z" />
    <glyph glyph-name="uni02CC" unicode="&#x2cc;" horiz-adv-x="181" 
d="M83 160h73l-58 -327h-73z" />
    <glyph glyph-name="uni02D0" unicode="&#x2d0;" horiz-adv-x="228" 
d="M137 512h135l-89 -122zM136 123l46 -123h-135z" />
    <glyph glyph-name="gravecomb" unicode="&#x300;" horiz-adv-x="307" 
d="M54 675h85l95 -163h-61z" />
    <glyph glyph-name="acutecomb" unicode="&#x301;" horiz-adv-x="307" 
d="M341 675l-157 -163h-68l130 163h95z" />
    <glyph glyph-name="uni0302" unicode="&#x302;" horiz-adv-x="307" 
d="M237 683h75l132 -171h-76l-96 127l-139 -127h-89z" />
    <glyph glyph-name="tildecomb" unicode="&#x303;" horiz-adv-x="307" 
d="M188 664q33 0 51.5 -17t32.5 -35q11 -16 23 -29.5t31 -13.5q24 0 42.5 24t25.5 65h57q-12 -70 -47.5 -110t-83.5 -40q-32 0 -48 14.5t-30 31.5q-13 17 -24 32.5t-31 15.5q-23 0 -42 -24.5t-26 -65.5h-59q13 72 46 112t82 40z" />
    <glyph glyph-name="uni0304" unicode="&#x304;" horiz-adv-x="307" 
d="M99 594h318l-11 -64h-317z" />
    <glyph glyph-name="uni0306" unicode="&#x306;" horiz-adv-x="307" 
d="M445 662q-17 -69 -66 -110t-121 -41q-81 0 -123 41.5t-36 109.5h71q-2 -45 19 -69t68 -24q46 0 75 24t42 69h71z" />
    <glyph glyph-name="uni0307" unicode="&#x307;" horiz-adv-x="307" 
d="M221 606h88l-16 -94h-89z" />
    <glyph glyph-name="uni0308" unicode="&#x308;" horiz-adv-x="307" 
d="M324 602h86l-16 -90h-86zM110 602h86l-16 -90h-85z" />
    <glyph glyph-name="hookabovecomb" unicode="&#x309;" horiz-adv-x="307" 
d="M214 512q4 21 18.5 37t47.5 40q38 27 42 48q3 16 -6.5 25.5t-29.5 9.5q-45 0 -62 -43h-63q16 45 50 69t80 24q49 0 74.5 -23.5t17.5 -63.5q-4 -24 -16.5 -39.5t-40.5 -34.5q-22 -13 -33 -23.5t-14 -25.5h-65z" />
    <glyph glyph-name="uni030A" unicode="&#x30a;" horiz-adv-x="307" 
d="M314 661q0 -45 -19.5 -80t-53.5 -55.5t-77 -20.5q-58 0 -93 33t-35 87q0 45 19.5 80.5t53 55.5t76.5 20q58 0 93.5 -32.5t35.5 -87.5zM98 627q0 -32 18.5 -49.5t52.5 -17.5q37 0 60.5 27.5t23.5 71.5q0 32 -19 49.5t-53 17.5q-37 0 -60 -27t-23 -72z" />
    <glyph glyph-name="uni030B" unicode="&#x30b;" horiz-adv-x="307" 
d="M512 675l-168 -163h-62l141 163h89zM350 675l-169 -163h-62l142 163h89z" />
    <glyph glyph-name="uni030C" unicode="&#x30c;" horiz-adv-x="307" 
d="M283 512h-77l-132 171h78l96 -127l139 127h88z" />
    <glyph glyph-name="uni0312" unicode="&#x312;" horiz-adv-x="307" 
d="M294 512h-90l21 112q10 57 40 81t63 24h19l-8 -44h-13q-24 0 -41.5 -13.5t-24.5 -53.5l-3 -12h53z" />
    <glyph glyph-name="uni0313" unicode="&#x313;" horiz-adv-x="307" 
d="M258 729h89l-19 -112q-10 -58 -40 -81.5t-63 -23.5h-20l7 44h14q25 0 42 13t24 54l2 13h-52z" />
    <glyph glyph-name="uni0315" unicode="&#x315;" horiz-adv-x="307" 
d="M209 716h72l-72 -204h-67z" />
    <glyph glyph-name="uni031B" unicode="&#x31b;" horiz-adv-x="307" 
d="M177 561h70q29 0 51 14.5t30 60.5l6 33h66l-7 -39q-8 -48 -31.5 -75.5t-54 -39t-60.5 -11.5h-73z" />
    <glyph glyph-name="dotbelowcomb" unicode="&#x323;" horiz-adv-x="303" 
d="M95 -71h89l-15 -85h-89z" />
    <glyph glyph-name="uni0326" unicode="&#x326;" horiz-adv-x="307" 
d="M112 -37h90l-21 -112q-10 -58 -40 -81.5t-63 -23.5h-19l8 44h12q25 0 42.5 13t24.5 54l3 12h-53z" />
    <glyph glyph-name="uni0327" unicode="&#x327;" horiz-adv-x="307" 
d="M140 10h55l-26 -66h16q41 0 64 -27.5t23 -66.5q0 -59 -38.5 -92.5t-106.5 -33.5h-103l12 65h82q40 0 63.5 18t23.5 48q0 35 -46 35h-34l-20 33z" />
    <glyph glyph-name="uni0328" unicode="&#x328;" horiz-adv-x="307" 
d="M201 0q-69 -45 -98 -82.5t-29 -80.5q0 -51 67 -51h65l-12 -67h-67q-56 0 -90 27.5t-34 74.5q0 55 35.5 100.5t101.5 78.5h61z" />
    <glyph glyph-name="uni1E9E" unicode="&#x1e9e;" horiz-adv-x="633" 
d="M464 360q73 -5 117 -44.5t44 -110.5q0 -59 -32 -105.5t-87.5 -73t-125.5 -26.5h-93l12 68h67q69 0 109 22.5t57 55.5t17 64q0 43 -35 67t-99 24h-47l12 66l202 227q-66 19 -137 19q-108 0 -166 -48t-76 -152l-73 -413h-76l76 434q21 123 100 184t211 61q59 0 112.5 -10.5
t107.5 -31.5l-11 -67z" />
    <glyph glyph-name="uni1EA0" unicode="&#x1ea0;" horiz-adv-x="641" 
d="M609 0h-77l-33 178h-284l-95 -178h-87l363 666h86zM426 576l-176 -332h237zM263 -71h89l-15 -85h-90z" />
    <glyph glyph-name="uni1EA1" unicode="&#x1ea1;" horiz-adv-x="526" 
d="M531 330l-58 -330h-78l13 72q-33 -39 -78 -60.5t-97 -21.5q-72 0 -117.5 39t-45.5 101q0 69 46.5 113t127.5 47l145 4q32 1 46.5 8.5t19.5 25.5l2 10q9 53 -28 87t-100 34q-109 0 -138 -92h-80q18 72 77.5 114t143.5 42q66 0 114 -25.5t71 -69t14 -98.5zM148 138
q0 -38 29 -60.5t78 -22.5q62 0 110 37.5t65 97.5l8 43l-179 -5q-56 -2 -83.5 -26.5t-27.5 -63.5zM232 -72h89l-14 -85h-90z" />
    <glyph glyph-name="uni1EA2" unicode="&#x1ea2;" horiz-adv-x="641" 
d="M381 717q4 21 18.5 37t47.5 40q38 27 42 48q3 16 -7 25.5t-29 9.5q-46 0 -63 -43h-62q16 45 49.5 69t80.5 24q49 0 74 -23.5t18 -63.5q-4 -24 -16.5 -39.5t-40.5 -34.5q-23 -13 -33.5 -23.5t-13.5 -25.5h-65zM609 0h-77l-33 178h-284l-95 -178h-87l363 666h86zM426 576
l-176 -332h237z" />
    <glyph glyph-name="uni1EA3" unicode="&#x1ea3;" horiz-adv-x="526" 
d="M321 573q4 21 18.5 37t47.5 40q39 26 43 47q3 17 -7 26.5t-30 9.5q-45 0 -62 -43h-63q16 45 50 69t80 24q49 0 74.5 -23.5t18.5 -63.5q-5 -24 -17.5 -39.5t-39.5 -34.5q-23 -13 -34 -23.5t-14 -25.5h-65zM531 330l-58 -330h-78l13 72q-33 -39 -78 -60.5t-97 -21.5
q-72 0 -117.5 39t-45.5 101q0 69 46.5 113t127.5 47l145 4q32 1 46.5 8.5t19.5 25.5l2 10q9 53 -28 87t-100 34q-109 0 -138 -92h-80q18 72 77.5 114t143.5 42q66 0 114 -25.5t71 -69t14 -98.5zM148 138q0 -38 29 -60.5t78 -22.5q62 0 110 37.5t65 97.5l8 43l-179 -5
q-56 -2 -83.5 -26.5t-27.5 -63.5z" />
    <glyph glyph-name="uni1EA4" unicode="&#x1ea4;" horiz-adv-x="641" 
d="M830 982l-157 -163h-68l130 163h95zM432 888h76l132 -171h-76l-96 127l-139 -127h-89zM609 0h-77l-33 178h-284l-95 -178h-87l363 666h86zM426 576l-176 -332h237z" />
    <glyph glyph-name="uni1EA5" unicode="&#x1ea5;" horiz-adv-x="526" 
d="M729 859l-156 -163h-68l129 163h95zM353 743h76l132 -171h-77l-95 127l-139 -127h-90zM531 330l-58 -330h-78l13 72q-33 -39 -78 -60.5t-97 -21.5q-72 0 -117.5 39t-45.5 101q0 69 46.5 113t127.5 47l145 4q32 1 46.5 8.5t19.5 25.5l2 10q9 53 -28 87t-100 34
q-109 0 -138 -92h-80q18 72 77.5 114t143.5 42q66 0 114 -25.5t71 -69t14 -98.5zM148 138q0 -38 29 -60.5t78 -22.5q62 0 110 37.5t65 97.5l8 43l-179 -5q-56 -2 -83.5 -26.5t-27.5 -63.5z" />
    <glyph glyph-name="uni1EA6" unicode="&#x1ea6;" horiz-adv-x="641" 
d="M552 982h85l95 -163h-61zM432 888h76l132 -171h-76l-96 127l-139 -127h-89zM609 0h-77l-33 178h-284l-95 -178h-87l363 666h86zM426 576l-176 -332h237z" />
    <glyph glyph-name="uni1EA7" unicode="&#x1ea7;" horiz-adv-x="526" 
d="M452 859h84l96 -163h-61zM353 743h76l132 -171h-77l-95 127l-139 -127h-90zM531 330l-58 -330h-78l13 72q-33 -39 -78 -60.5t-97 -21.5q-72 0 -117.5 39t-45.5 101q0 69 46.5 113t127.5 47l145 4q32 1 46.5 8.5t19.5 25.5l2 10q9 53 -28 87t-100 34q-109 0 -138 -92h-80
q18 72 77.5 114t143.5 42q66 0 114 -25.5t71 -69t14 -98.5zM148 138q0 -38 29 -60.5t78 -22.5q62 0 110 37.5t65 97.5l8 43l-179 -5q-56 -2 -83.5 -26.5t-27.5 -63.5z" />
    <glyph glyph-name="uni1EA8" unicode="&#x1ea8;" horiz-adv-x="641" 
d="M620 819q4 21 18.5 37t47.5 40q39 27 43 48q3 16 -7 25.5t-30 9.5q-45 0 -62 -43h-63q16 45 50 69t80 24q49 0 74.5 -23.5t18.5 -63.5q-5 -24 -17.5 -39.5t-39.5 -34.5q-23 -13 -34 -23.5t-14 -25.5h-65zM432 888h76l132 -171h-76l-96 127l-139 -127h-89zM609 0h-77
l-33 178h-284l-95 -178h-87l363 666h86zM426 576l-176 -332h237z" />
    <glyph glyph-name="uni1EA9" unicode="&#x1ea9;" horiz-adv-x="526" 
d="M520 696q4 21 18.5 37t47.5 40q39 27 43 48q3 16 -7 25.5t-30 9.5q-45 0 -62 -43h-63q16 45 50 69t80 24q49 0 74.5 -23.5t18.5 -63.5q-5 -24 -17.5 -39.5t-39.5 -34.5q-23 -13 -34 -23.5t-14 -25.5h-65zM353 743h76l132 -171h-77l-95 127l-139 -127h-90zM531 330
l-58 -330h-78l13 72q-33 -39 -78 -60.5t-97 -21.5q-72 0 -117.5 39t-45.5 101q0 69 46.5 113t127.5 47l145 4q32 1 46.5 8.5t19.5 25.5l2 10q9 53 -28 87t-100 34q-109 0 -138 -92h-80q18 72 77.5 114t143.5 42q66 0 114 -25.5t71 -69t14 -98.5zM148 138q0 -38 29 -60.5
t78 -22.5q62 0 110 37.5t65 97.5l8 43l-179 -5q-56 -2 -83.5 -26.5t-27.5 -63.5z" />
    <glyph glyph-name="uni1EAA" unicode="&#x1eaa;" horiz-adv-x="641" 
d="M430 1085q32 0 50.5 -17t32.5 -35q12 -17 23.5 -30t31.5 -13q24 0 42 24t25 64h57q-12 -69 -47 -109t-84 -40q-32 0 -48 14.5t-29 31.5t-24.5 32.5t-30.5 15.5q-24 0 -42.5 -24.5t-25.5 -65.5h-60q13 71 46.5 111.5t82.5 40.5zM432 888h76l132 -171h-76l-96 127
l-139 -127h-89zM609 0h-77l-33 178h-284l-95 -178h-87l363 666h86zM426 576l-176 -332h237z" />
    <glyph glyph-name="uni1EAB" unicode="&#x1eab;" horiz-adv-x="526" 
d="M346 950q32 0 50.5 -17t32.5 -35q12 -16 23.5 -29.5t31.5 -13.5q24 0 42 24t25 65h57q-12 -70 -47 -110t-84 -40q-32 0 -48 14.5t-29 31.5t-24.5 32.5t-30.5 15.5q-24 0 -42.5 -24.5t-25.5 -65.5h-60q13 72 46.5 112t82.5 40zM353 743h76l132 -171h-77l-95 127l-139 -127
h-90zM531 330l-58 -330h-78l13 72q-33 -39 -78 -60.5t-97 -21.5q-72 0 -117.5 39t-45.5 101q0 69 46.5 113t127.5 47l145 4q32 1 46.5 8.5t19.5 25.5l2 10q9 53 -28 87t-100 34q-109 0 -138 -92h-80q18 72 77.5 114t143.5 42q66 0 114 -25.5t71 -69t14 -98.5zM148 138
q0 -38 29 -60.5t78 -22.5q62 0 110 37.5t65 97.5l8 43l-179 -5q-56 -2 -83.5 -26.5t-27.5 -63.5z" />
    <glyph glyph-name="uni1EAC" unicode="&#x1eac;" horiz-adv-x="641" 
d="M430 888h76l132 -171h-77l-95 127l-139 -127h-90zM609 0h-77l-33 178h-284l-95 -178h-87l363 666h86zM426 576l-176 -332h237zM263 -71h89l-15 -85h-90z" />
    <glyph glyph-name="uni1EAD" unicode="&#x1ead;" horiz-adv-x="526" 
d="M353 743h76l132 -171h-77l-95 127l-139 -127h-90zM531 330l-58 -330h-78l13 72q-33 -39 -78 -60.5t-97 -21.5q-72 0 -117.5 39t-45.5 101q0 69 46.5 113t127.5 47l145 4q32 1 46.5 8.5t19.5 25.5l2 10q9 53 -28 87t-100 34q-109 0 -138 -92h-80q18 72 77.5 114t143.5 42
q66 0 114 -25.5t71 -69t14 -98.5zM148 138q0 -38 29 -60.5t78 -22.5q62 0 110 37.5t65 97.5l8 43l-179 -5q-56 -2 -83.5 -26.5t-27.5 -63.5zM232 -72h89l-14 -85h-90z" />
    <glyph glyph-name="uni1EAE" unicode="&#x1eae;" horiz-adv-x="641" 
d="M631 1027l-156 -162h-68l129 162h95zM640 867q-16 -69 -65 -110t-121 -41q-81 0 -123 41.5t-36 109.5h71q-2 -45 19 -69t67 -24q47 0 76 24t42 69h70zM609 0h-77l-33 178h-284l-95 -178h-87l363 666h86zM426 576l-176 -332h237z" />
    <glyph glyph-name="uni1EAF" unicode="&#x1eaf;" horiz-adv-x="526" 
d="M547 891l-156 -162h-69l130 162h95zM561 722q-16 -69 -65.5 -110t-120.5 -41q-82 0 -124 41.5t-35 109.5h71q-3 -45 18 -69t68 -24q46 0 75.5 24t42.5 69h70zM531 330l-58 -330h-78l13 72q-33 -39 -78 -60.5t-97 -21.5q-72 0 -117.5 39t-45.5 101q0 69 46.5 113t127.5 47
l145 4q32 1 46.5 8.5t19.5 25.5l2 10q9 53 -28 87t-100 34q-109 0 -138 -92h-80q18 72 77.5 114t143.5 42q66 0 114 -25.5t71 -69t14 -98.5zM148 138q0 -38 29 -60.5t78 -22.5q62 0 110 37.5t65 97.5l8 43l-179 -5q-56 -2 -83.5 -26.5t-27.5 -63.5z" />
    <glyph glyph-name="uni1EB0" unicode="&#x1eb0;" horiz-adv-x="641" 
d="M345 1027h84l96 -162h-61zM640 867q-16 -69 -65 -110t-121 -41q-81 0 -123 41.5t-36 109.5h71q-2 -45 19 -69t67 -24q47 0 76 24t42 69h70zM609 0h-77l-33 178h-284l-95 -178h-87l363 666h86zM426 576l-176 -332h237z" />
    <glyph glyph-name="uni1EB1" unicode="&#x1eb1;" horiz-adv-x="526" 
d="M261 891h84l95 -162h-60zM561 722q-16 -69 -65.5 -110t-120.5 -41q-82 0 -124 41.5t-35 109.5h71q-3 -45 18 -69t68 -24q46 0 75.5 24t42.5 69h70zM531 330l-58 -330h-78l13 72q-33 -39 -78 -60.5t-97 -21.5q-72 0 -117.5 39t-45.5 101q0 69 46.5 113t127.5 47l145 4
q32 1 46.5 8.5t19.5 25.5l2 10q9 53 -28 87t-100 34q-109 0 -138 -92h-80q18 72 77.5 114t143.5 42q66 0 114 -25.5t71 -69t14 -98.5zM148 138q0 -38 29 -60.5t78 -22.5q62 0 110 37.5t65 97.5l8 43l-179 -5q-56 -2 -83.5 -26.5t-27.5 -63.5z" />
    <glyph glyph-name="uni1EB2" unicode="&#x1eb2;" horiz-adv-x="641" 
d="M430 865q4 21 18.5 37t47.5 39q38 27 42 48q3 16 -7 26t-29 10q-46 0 -63 -43h-62q16 45 49.5 69t80.5 24q49 0 74 -24t18 -63q-4 -24 -16.5 -39.5t-40.5 -34.5q-23 -13 -33.5 -23.5t-13.5 -25.5h-65zM640 867q-16 -69 -65 -110t-121 -41q-81 0 -123 41.5t-36 109.5h71
q-2 -45 19 -69t67 -24q47 0 76 24t42 69h70zM609 0h-77l-33 178h-284l-95 -178h-87l363 666h86zM426 576l-176 -332h237z" />
    <glyph glyph-name="uni1EB3" unicode="&#x1eb3;" horiz-adv-x="526" 
d="M345 729q4 21 18.5 37t47.5 40q39 26 43 47q3 17 -7 26.5t-30 9.5q-45 0 -62 -43h-63q16 45 50 69t80 24q50 0 75 -23.5t18 -63.5q-4 -24 -17 -39.5t-40 -34.5q-23 -13 -34 -23.5t-14 -25.5h-65zM561 722q-16 -69 -65.5 -110t-120.5 -41q-82 0 -124 41.5t-35 109.5h71
q-3 -45 18 -69t68 -24q46 0 75.5 24t42.5 69h70zM531 330l-58 -330h-78l13 72q-33 -39 -78 -60.5t-97 -21.5q-72 0 -117.5 39t-45.5 101q0 69 46.5 113t127.5 47l145 4q32 1 46.5 8.5t19.5 25.5l2 10q9 53 -28 87t-100 34q-109 0 -138 -92h-80q18 72 77.5 114t143.5 42
q66 0 114 -25.5t71 -69t14 -98.5zM148 138q0 -38 29 -60.5t78 -22.5q62 0 110 37.5t65 97.5l8 43l-179 -5q-56 -2 -83.5 -26.5t-27.5 -63.5z" />
    <glyph glyph-name="uni1EB4" unicode="&#x1eb4;" horiz-adv-x="641" 
d="M422 1060q32 0 50.5 -16.5t32.5 -34.5q12 -17 23.5 -30t31.5 -13q24 0 42.5 24t25.5 64h56q-12 -69 -47 -109t-83 -40q-32 0 -48.5 14.5t-29.5 31.5t-24.5 32.5t-30.5 15.5q-24 0 -42.5 -25t-25.5 -65h-60q13 71 46.5 111t82.5 40zM640 867q-16 -69 -65 -110t-121 -41
q-81 0 -123 41.5t-36 109.5h71q-2 -45 19 -69t67 -24q47 0 76 24t42 69h70zM609 0h-77l-33 178h-284l-95 -178h-87l363 666h86zM426 576l-176 -332h237z" />
    <glyph glyph-name="uni1EB5" unicode="&#x1eb5;" horiz-adv-x="526" 
d="M345 925q33 0 51.5 -17t32.5 -35q11 -16 23 -29t31 -13q24 0 42.5 24t25.5 64h57q-12 -69 -47.5 -109.5t-83.5 -40.5q-32 0 -48.5 14.5t-29.5 31.5t-24 32.5t-31 15.5q-24 0 -42.5 -24.5t-25.5 -65.5h-59q12 72 45.5 112t82.5 40zM561 722q-16 -69 -65.5 -110t-120.5 -41
q-82 0 -124 41.5t-35 109.5h71q-3 -45 18 -69t68 -24q46 0 75.5 24t42.5 69h70zM531 330l-58 -330h-78l13 72q-33 -39 -78 -60.5t-97 -21.5q-72 0 -117.5 39t-45.5 101q0 69 46.5 113t127.5 47l145 4q32 1 46.5 8.5t19.5 25.5l2 10q9 53 -28 87t-100 34q-109 0 -138 -92h-80
q18 72 77.5 114t143.5 42q66 0 114 -25.5t71 -69t14 -98.5zM148 138q0 -38 29 -60.5t78 -22.5q62 0 110 37.5t65 97.5l8 43l-179 -5q-56 -2 -83.5 -26.5t-27.5 -63.5z" />
    <glyph glyph-name="uni1EB6" unicode="&#x1eb6;" horiz-adv-x="641" 
d="M638 867q-16 -69 -65.5 -110t-120.5 -41q-82 0 -124 41.5t-35 109.5h71q-3 -45 18 -69t68 -24q46 0 75.5 24t42.5 69h70zM609 0h-77l-33 178h-284l-95 -178h-87l363 666h86zM426 576l-176 -332h237zM263 -71h89l-15 -85h-90z" />
    <glyph glyph-name="uni1EB7" unicode="&#x1eb7;" horiz-adv-x="526" 
d="M562 723q-16 -69 -65.5 -110t-120.5 -41q-82 0 -124 41.5t-36 109.5h71q-2 -45 19 -69t68 -24q46 0 75.5 24t42.5 69h70zM531 330l-58 -330h-78l13 72q-33 -39 -78 -60.5t-97 -21.5q-72 0 -117.5 39t-45.5 101q0 69 46.5 113t127.5 47l145 4q32 1 46.5 8.5t19.5 25.5
l2 10q9 53 -28 87t-100 34q-109 0 -138 -92h-80q18 72 77.5 114t143.5 42q66 0 114 -25.5t71 -69t14 -98.5zM148 138q0 -38 29 -60.5t78 -22.5q62 0 110 37.5t65 97.5l8 43l-179 -5q-56 -2 -83.5 -26.5t-27.5 -63.5zM232 -72h89l-14 -85h-90z" />
    <glyph glyph-name="uni1EB8" unicode="&#x1eb8;" horiz-adv-x="547" 
d="M621 666l-13 -72h-374l-38 -218h345l-13 -72h-345l-41 -233h374l-12 -71h-450l118 666h449zM232 -71h89l-15 -85h-89z" />
    <glyph glyph-name="uni1EB9" unicode="&#x1eb9;" horiz-adv-x="566" 
d="M84 215q0 85 32.5 154.5t91.5 111t138 41.5q78 0 131 -35t76 -93.5t11 -129.5l-5 -30h-397q-1 -11 -1 -23q0 -75 40 -114t117 -39q54 0 91.5 26t57.5 74h84q-30 -82 -90 -124.5t-144 -42.5q-108 0 -170.5 60t-62.5 164zM350 457q-68 0 -115.5 -43.5t-64.5 -119.5h320
q10 73 -30 118t-110 45zM235 -71h89l-14 -85h-90z" />
    <glyph glyph-name="uni1EBA" unicode="&#x1eba;" horiz-adv-x="547" 
d="M379 717q4 21 18.5 37t47.5 40q39 27 43 48q3 16 -7 25.5t-30 9.5q-45 0 -62 -43h-63q16 45 50 69t80 24q50 0 75 -23.5t18 -63.5q-4 -24 -17 -39.5t-40 -34.5q-23 -13 -34 -23.5t-14 -25.5h-65zM621 666l-13 -72h-374l-38 -218h345l-13 -72h-345l-41 -233h374l-12 -71
h-450l118 666h449z" />
    <glyph glyph-name="uni1EBB" unicode="&#x1ebb;" horiz-adv-x="566" 
d="M345 572q4 21 18.5 37t47.5 40q38 27 42 48q3 16 -7 25.5t-29 9.5q-46 0 -63 -43h-62q16 45 49.5 69t80.5 24q49 0 74 -23.5t18 -63.5q-4 -24 -16.5 -39.5t-40.5 -34.5q-23 -13 -33.5 -23.5t-13.5 -25.5h-65zM84 215q0 85 32.5 154.5t91.5 111t138 41.5q78 0 131 -35
t76 -93.5t11 -129.5l-5 -30h-397q-1 -11 -1 -23q0 -75 40 -114t117 -39q54 0 91.5 26t57.5 74h84q-30 -82 -90 -124.5t-144 -42.5q-108 0 -170.5 60t-62.5 164zM350 457q-68 0 -115.5 -43.5t-64.5 -119.5h320q10 73 -30 118t-110 45z" />
    <glyph glyph-name="uni1EBC" unicode="&#x1ebc;" horiz-adv-x="547" 
d="M348 869q32 0 50.5 -17t32.5 -35q11 -16 23 -29.5t31 -13.5q24 0 42.5 24t25.5 65h57q-12 -70 -47.5 -110t-83.5 -40q-32 0 -48 14.5t-29 31.5t-24.5 32.5t-30.5 15.5q-24 0 -43 -24.5t-25 -65.5h-60q13 72 46 112t83 40zM621 666l-13 -72h-374l-38 -218h345l-13 -72
h-345l-41 -233h374l-12 -71h-450l118 666h449z" />
    <glyph glyph-name="uni1EBD" unicode="&#x1ebd;" horiz-adv-x="566" 
d="M318 724q32 0 50.5 -17t32.5 -35q11 -16 23 -29t31 -13q24 0 42.5 24t25.5 64h57q-12 -69 -47.5 -109.5t-83.5 -40.5q-32 0 -48 14.5t-29 31.5t-24.5 32.5t-30.5 15.5q-24 0 -43 -24.5t-25 -65.5h-60q13 72 46 112t83 40zM84 215q0 85 32.5 154.5t91.5 111t138 41.5
q78 0 131 -35t76 -93.5t11 -129.5l-5 -30h-397q-1 -11 -1 -23q0 -75 40 -114t117 -39q54 0 91.5 26t57.5 74h84q-30 -82 -90 -124.5t-144 -42.5q-108 0 -170.5 60t-62.5 164zM350 457q-68 0 -115.5 -43.5t-64.5 -119.5h320q10 73 -30 118t-110 45z" />
    <glyph glyph-name="uni1EBE" unicode="&#x1ebe;" horiz-adv-x="547" 
d="M807 982l-156 -163h-69l130 163h95zM402 888h76l132 -171h-77l-95 127l-139 -127h-90zM621 666l-13 -72h-374l-38 -218h345l-13 -72h-345l-41 -233h374l-12 -71h-450l118 666h449z" />
    <glyph glyph-name="uni1EBF" unicode="&#x1ebf;" horiz-adv-x="566" 
d="M747 859l-157 -163h-68l130 163h95zM367 743h76l132 -171h-76l-96 127l-139 -127h-89zM84 215q0 85 32.5 154.5t91.5 111t138 41.5q78 0 131 -35t76 -93.5t11 -129.5l-5 -30h-397q-1 -11 -1 -23q0 -75 40 -114t117 -39q54 0 91.5 26t57.5 74h84q-30 -82 -90 -124.5
t-144 -42.5q-108 0 -170.5 60t-62.5 164zM350 457q-68 0 -115.5 -43.5t-64.5 -119.5h320q10 73 -30 118t-110 45z" />
    <glyph glyph-name="uni1EC0" unicode="&#x1ec0;" horiz-adv-x="547" 
d="M504 982h85l95 -163h-61zM402 888h76l132 -171h-77l-95 127l-139 -127h-90zM621 666l-13 -72h-374l-38 -218h345l-13 -72h-345l-41 -233h374l-12 -71h-450l118 666h449z" />
    <glyph glyph-name="uni1EC1" unicode="&#x1ec1;" horiz-adv-x="566" 
d="M469 859h84l96 -163h-61zM367 743h76l132 -171h-76l-96 127l-139 -127h-89zM84 215q0 85 32.5 154.5t91.5 111t138 41.5q78 0 131 -35t76 -93.5t11 -129.5l-5 -30h-397q-1 -11 -1 -23q0 -75 40 -114t117 -39q54 0 91.5 26t57.5 74h84q-30 -82 -90 -124.5t-144 -42.5
q-108 0 -170.5 60t-62.5 164zM350 457q-68 0 -115.5 -43.5t-64.5 -119.5h320q10 73 -30 118t-110 45z" />
    <glyph glyph-name="uni1EC2" unicode="&#x1ec2;" horiz-adv-x="547" 
d="M574 821q4 21 18.5 37t47.5 40q38 27 42 48q3 16 -7 25.5t-29 9.5q-45 0 -62 -43h-63q16 45 49.5 69t80.5 24q49 0 74.5 -23.5t17.5 -63.5q-4 -24 -16.5 -39.5t-40.5 -34.5q-22 -13 -33 -23.5t-14 -25.5h-65zM402 888h76l132 -171h-77l-95 127l-139 -127h-90zM621 666
l-13 -72h-374l-38 -218h345l-13 -72h-345l-41 -233h374l-12 -71h-450l118 666h449z" />
    <glyph glyph-name="uni1EC3" unicode="&#x1ec3;" horiz-adv-x="566" 
d="M539 697q4 21 18.5 37t47.5 40q38 27 42 48q3 16 -7 25.5t-29 9.5q-45 0 -62 -43h-63q16 45 49.5 69t80.5 24q49 0 74.5 -23.5t17.5 -63.5q-4 -24 -16.5 -39.5t-40.5 -34.5q-22 -13 -33 -23.5t-14 -25.5h-65zM367 743h76l132 -171h-76l-96 127l-139 -127h-89zM84 215
q0 85 32.5 154.5t91.5 111t138 41.5q78 0 131 -35t76 -93.5t11 -129.5l-5 -30h-397q-1 -11 -1 -23q0 -75 40 -114t117 -39q54 0 91.5 26t57.5 74h84q-30 -82 -90 -124.5t-144 -42.5q-108 0 -170.5 60t-62.5 164zM350 457q-68 0 -115.5 -43.5t-64.5 -119.5h320q10 73 -30 118
t-110 45z" />
    <glyph glyph-name="uni1EC4" unicode="&#x1ec4;" horiz-adv-x="547" 
d="M392 1093q32 0 50.5 -17t32.5 -35q12 -16 23.5 -29t31.5 -13q24 0 42 24t25 64h57q-12 -69 -47 -109.5t-84 -40.5q-32 0 -48 14.5t-29 31.5t-24.5 32.5t-30.5 15.5q-24 0 -42.5 -24.5t-25.5 -65.5h-60q13 72 46.5 112t82.5 40zM402 888h76l132 -171h-77l-95 127
l-139 -127h-90zM621 666l-13 -72h-374l-38 -218h345l-13 -72h-345l-41 -233h374l-12 -71h-450l118 666h449z" />
    <glyph glyph-name="uni1EC5" unicode="&#x1ec5;" horiz-adv-x="566" 
d="M354 950q33 0 51 -17t32 -35q12 -16 24 -29.5t31 -13.5q24 0 42.5 24t25.5 65h57q-13 -70 -48 -110t-83 -40q-32 0 -48.5 14.5t-29.5 31.5t-24.5 32.5t-30.5 15.5q-24 0 -42.5 -24.5t-25.5 -65.5h-60q13 72 46.5 112t82.5 40zM367 743h76l132 -171h-76l-96 127l-139 -127
h-89zM84 215q0 85 32.5 154.5t91.5 111t138 41.5q78 0 131 -35t76 -93.5t11 -129.5l-5 -30h-397q-1 -11 -1 -23q0 -75 40 -114t117 -39q54 0 91.5 26t57.5 74h84q-30 -82 -90 -124.5t-144 -42.5q-108 0 -170.5 60t-62.5 164zM350 457q-68 0 -115.5 -43.5t-64.5 -119.5h320
q10 73 -30 118t-110 45z" />
    <glyph glyph-name="uni1EC6" unicode="&#x1ec6;" horiz-adv-x="547" 
d="M402 888h76l132 -171h-77l-95 127l-139 -127h-90zM621 666l-13 -72h-374l-38 -218h345l-13 -72h-345l-41 -233h374l-12 -71h-450l118 666h449zM232 -71h89l-15 -85h-89z" />
    <glyph glyph-name="uni1EC7" unicode="&#x1ec7;" horiz-adv-x="566" 
d="M367 743h76l132 -171h-76l-96 127l-139 -127h-89zM84 215q0 85 32.5 154.5t91.5 111t138 41.5q78 0 131 -35t76 -93.5t11 -129.5l-5 -30h-397q-1 -11 -1 -23q0 -75 40 -114t117 -39q54 0 91.5 26t57.5 74h84q-30 -82 -90 -124.5t-144 -42.5q-108 0 -170.5 60t-62.5 164z
M350 457q-68 0 -115.5 -43.5t-64.5 -119.5h320q10 73 -30 118t-110 45zM235 -71h89l-14 -85h-90z" />
    <glyph glyph-name="uni1EC8" unicode="&#x1ec8;" 
d="M183 717q4 21 18.5 37t47.5 40q39 27 43 48q3 16 -7 25.5t-30 9.5q-45 0 -62 -43h-63q16 45 50 69t80 24q50 0 75 -23.5t18 -63.5q-4 -24 -17 -39.5t-40 -34.5q-23 -13 -34 -23.5t-14 -25.5h-65zM172 666h75l-117 -666h-76z" />
    <glyph glyph-name="uni1EC9" unicode="&#x1ec9;" 
d="M157 573q4 21 19 37t48 40q38 27 42 48q3 16 -7 25.5t-30 9.5q-45 0 -62 -43h-62q16 45 49.5 69t79.5 24q50 0 75 -23.5t18 -63.5q-4 -24 -16.5 -39.5t-40.5 -34.5q-23 -13 -34 -23.5t-14 -25.5h-65zM145 512h75l-90 -512h-76z" />
    <glyph glyph-name="uni1ECA" unicode="&#x1eca;" 
d="M172 666h75l-117 -666h-76zM35 -71h89l-14 -85h-90z" />
    <glyph glyph-name="uni1ECB" unicode="&#x1ecb;" 
d="M166 668h90l-15 -84h-90zM145 512h76l-90 -512h-76zM38 -71h89l-14 -85h-90z" />
    <glyph glyph-name="uni1ECC" unicode="&#x1ecc;" horiz-adv-x="687" 
d="M97 271q0 87 25 161t70.5 128.5t107 85t134.5 30.5q80 0 141 -37t95 -102t34 -151q0 -116 -41.5 -205t-116 -139t-173.5 -50q-82 0 -144 35.5t-97 98t-35 145.5zM628 389q0 102 -53 159t-149 57q-72 0 -129 -43.5t-89.5 -119.5t-32.5 -172q0 -98 54 -152t151 -54
q74 0 129.5 41t87 114t31.5 170zM284 -71h89l-14 -85h-90z" />
    <glyph glyph-name="uni1ECD" unicode="&#x1ecd;" horiz-adv-x="568" 
d="M84 215q0 88 35 158t95 110.5t135 40.5q67 0 116.5 -28t77 -78t27.5 -118q0 -88 -35 -158t-95 -111t-135 -41q-67 0 -116.5 28t-77 78.5t-27.5 118.5zM493 301q0 72 -39.5 112.5t-109.5 40.5q-49 0 -90.5 -30.5t-66.5 -84.5t-25 -124q0 -74 39.5 -114.5t109.5 -40.5
q48 0 89.5 31t67 85t25.5 125zM227 -71h89l-14 -85h-90z" />
    <glyph glyph-name="uni1ECE" unicode="&#x1ece;" horiz-adv-x="687" 
d="M434 717q3 21 18 37t48 40q38 27 42 48q3 16 -7 25.5t-30 9.5q-45 0 -62 -43h-62q16 45 49.5 69t79.5 24q50 0 75 -23.5t18 -63.5q-4 -24 -16.5 -39.5t-40.5 -34.5q-23 -13 -34 -23.5t-14 -25.5h-64zM97 271q0 87 25 161t70.5 128.5t107 85t134.5 30.5q80 0 141 -37
t95 -102t34 -151q0 -116 -41.5 -205t-116 -139t-173.5 -50q-82 0 -144 35.5t-97 98t-35 145.5zM628 389q0 102 -53 159t-149 57q-72 0 -129 -43.5t-89.5 -119.5t-32.5 -172q0 -98 54 -152t151 -54q74 0 129.5 41t87 114t31.5 170z" />
    <glyph glyph-name="uni1ECF" unicode="&#x1ecf;" horiz-adv-x="568" 
d="M338 573q4 21 18.5 37t47.5 40q38 26 42 47q3 17 -7 26.5t-29 9.5q-45 0 -62 -43h-63q16 45 49.5 69t80.5 24q49 0 74.5 -23.5t17.5 -63.5q-4 -24 -16.5 -39.5t-40.5 -34.5q-22 -13 -33 -23.5t-14 -25.5h-65zM84 215q0 88 35 158t95 110.5t135 40.5q67 0 116.5 -28
t77 -78t27.5 -118q0 -88 -35 -158t-95 -111t-135 -41q-67 0 -116.5 28t-77 78.5t-27.5 118.5zM493 301q0 72 -39.5 112.5t-109.5 40.5q-49 0 -90.5 -30.5t-66.5 -84.5t-25 -124q0 -74 39.5 -114.5t109.5 -40.5q48 0 89.5 31t67 85t25.5 125z" />
    <glyph glyph-name="uni1ED0" unicode="&#x1ed0;" horiz-adv-x="687" 
d="M854 982l-157 -163h-68l130 163h95zM458 888h75l132 -171h-76l-95 127l-140 -127h-89zM97 271q0 87 25 161t70.5 128.5t107 85t134.5 30.5q80 0 141 -37t95 -102t34 -151q0 -116 -41.5 -205t-116 -139t-173.5 -50q-82 0 -144 35.5t-97 98t-35 145.5zM628 389
q0 102 -53 159t-149 57q-72 0 -129 -43.5t-89.5 -119.5t-32.5 -172q0 -98 54 -152t151 -54q74 0 129.5 41t87 114t31.5 170z" />
    <glyph glyph-name="uni1ED1" unicode="&#x1ed1;" horiz-adv-x="568" 
d="M737 859l-156 -163h-69l130 163h95zM360 744h76l132 -171h-76l-96 127l-139 -127h-89zM84 215q0 88 35 158t95 110.5t135 40.5q67 0 116.5 -28t77 -78t27.5 -118q0 -88 -35 -158t-95 -111t-135 -41q-67 0 -116.5 28t-77 78.5t-27.5 118.5zM493 301q0 72 -39.5 112.5
t-109.5 40.5q-49 0 -90.5 -30.5t-66.5 -84.5t-25 -124q0 -74 39.5 -114.5t109.5 -40.5q48 0 89.5 31t67 85t25.5 125z" />
    <glyph glyph-name="uni1ED2" unicode="&#x1ed2;" horiz-adv-x="687" 
d="M560 982h85l95 -163h-61zM458 888h75l132 -171h-76l-95 127l-140 -127h-89zM97 271q0 87 25 161t70.5 128.5t107 85t134.5 30.5q80 0 141 -37t95 -102t34 -151q0 -116 -41.5 -205t-116 -139t-173.5 -50q-82 0 -144 35.5t-97 98t-35 145.5zM628 389q0 102 -53 159t-149 57
q-72 0 -129 -43.5t-89.5 -119.5t-32.5 -172q0 -98 54 -152t151 -54q74 0 129.5 41t87 114t31.5 170z" />
    <glyph glyph-name="uni1ED3" unicode="&#x1ed3;" horiz-adv-x="568" 
d="M447 859h84l95 -163h-61zM360 744h76l132 -171h-76l-96 127l-139 -127h-89zM84 215q0 88 35 158t95 110.5t135 40.5q67 0 116.5 -28t77 -78t27.5 -118q0 -88 -35 -158t-95 -111t-135 -41q-67 0 -116.5 28t-77 78.5t-27.5 118.5zM493 301q0 72 -39.5 112.5t-109.5 40.5
q-49 0 -90.5 -30.5t-66.5 -84.5t-25 -124q0 -74 39.5 -114.5t109.5 -40.5q48 0 89.5 31t67 85t25.5 125z" />
    <glyph glyph-name="uni1ED4" unicode="&#x1ed4;" horiz-adv-x="687" 
d="M635 819q4 21 18.5 37t47.5 40q39 27 43 48q3 16 -7 25.5t-30 9.5q-45 0 -62 -43h-63q16 45 50 69t80 24q50 0 75 -23.5t18 -63.5q-4 -24 -17 -39.5t-40 -34.5q-23 -13 -34 -23.5t-14 -25.5h-65zM458 888h75l132 -171h-76l-95 127l-140 -127h-89zM97 271q0 87 25 161
t70.5 128.5t107 85t134.5 30.5q80 0 141 -37t95 -102t34 -151q0 -116 -41.5 -205t-116 -139t-173.5 -50q-82 0 -144 35.5t-97 98t-35 145.5zM628 389q0 102 -53 159t-149 57q-72 0 -129 -43.5t-89.5 -119.5t-32.5 -172q0 -98 54 -152t151 -54q74 0 129.5 41t87 114t31.5 170
z" />
    <glyph glyph-name="uni1ED5" unicode="&#x1ed5;" horiz-adv-x="568" 
d="M527 697q4 21 18.5 37t47.5 40q39 27 43 48q3 16 -7 25.5t-30 9.5q-45 0 -62 -43h-63q16 45 50 69t80 24q49 0 74.5 -23.5t18.5 -63.5q-5 -24 -17.5 -39.5t-39.5 -34.5q-23 -13 -34 -23.5t-14 -25.5h-65zM360 744h76l132 -171h-76l-96 127l-139 -127h-89zM84 215
q0 88 35 158t95 110.5t135 40.5q67 0 116.5 -28t77 -78t27.5 -118q0 -88 -35 -158t-95 -111t-135 -41q-67 0 -116.5 28t-77 78.5t-27.5 118.5zM493 301q0 72 -39.5 112.5t-109.5 40.5q-49 0 -90.5 -30.5t-66.5 -84.5t-25 -124q0 -74 39.5 -114.5t109.5 -40.5q48 0 89.5 31
t67 85t25.5 125z" />
    <glyph glyph-name="uni1ED6" unicode="&#x1ed6;" horiz-adv-x="687" 
d="M446 1093q33 0 51 -17t32 -35q12 -16 24 -29t31 -13q24 0 42.5 24t25.5 64h57q-13 -69 -48 -109.5t-83 -40.5q-32 0 -48.5 14.5t-29.5 31.5t-24.5 32.5t-30.5 15.5q-24 0 -42.5 -24.5t-25.5 -65.5h-60q13 72 46.5 112t82.5 40zM458 888h75l132 -171h-76l-95 127
l-140 -127h-89zM97 271q0 87 25 161t70.5 128.5t107 85t134.5 30.5q80 0 141 -37t95 -102t34 -151q0 -116 -41.5 -205t-116 -139t-173.5 -50q-82 0 -144 35.5t-97 98t-35 145.5zM628 389q0 102 -53 159t-149 57q-72 0 -129 -43.5t-89.5 -119.5t-32.5 -172q0 -98 54 -152
t151 -54q74 0 129.5 41t87 114t31.5 170z" />
    <glyph glyph-name="uni1ED7" unicode="&#x1ed7;" horiz-adv-x="568" 
d="M357 950q33 0 51 -17t32 -35q12 -16 24 -29.5t31 -13.5q24 0 42.5 24t25.5 65h57q-13 -70 -48 -110t-83 -40q-32 0 -48.5 14.5t-29.5 31.5t-24.5 32.5t-30.5 15.5q-24 0 -42.5 -24.5t-25.5 -65.5h-60q13 72 46.5 112t82.5 40zM360 744h76l132 -171h-76l-96 127l-139 -127
h-89zM84 215q0 88 35 158t95 110.5t135 40.5q67 0 116.5 -28t77 -78t27.5 -118q0 -88 -35 -158t-95 -111t-135 -41q-67 0 -116.5 28t-77 78.5t-27.5 118.5zM493 301q0 72 -39.5 112.5t-109.5 40.5q-49 0 -90.5 -30.5t-66.5 -84.5t-25 -124q0 -74 39.5 -114.5t109.5 -40.5
q48 0 89.5 31t67 85t25.5 125z" />
    <glyph glyph-name="uni1ED8" unicode="&#x1ed8;" horiz-adv-x="687" 
d="M456 888h76l132 -171h-77l-95 127l-139 -127h-89zM97 271q0 87 25 161t70.5 128.5t107 85t134.5 30.5q80 0 141 -37t95 -102t34 -151q0 -116 -41.5 -205t-116 -139t-173.5 -50q-82 0 -144 35.5t-97 98t-35 145.5zM628 389q0 102 -53 159t-149 57q-72 0 -129 -43.5
t-89.5 -119.5t-32.5 -172q0 -98 54 -152t151 -54q74 0 129.5 41t87 114t31.5 170zM284 -71h89l-14 -85h-90z" />
    <glyph glyph-name="uni1ED9" unicode="&#x1ed9;" horiz-adv-x="568" 
d="M360 744h76l132 -171h-76l-96 127l-139 -127h-89zM84 215q0 88 35 158t95 110.5t135 40.5q67 0 116.5 -28t77 -78t27.5 -118q0 -88 -35 -158t-95 -111t-135 -41q-67 0 -116.5 28t-77 78.5t-27.5 118.5zM493 301q0 72 -39.5 112.5t-109.5 40.5q-49 0 -90.5 -30.5
t-66.5 -84.5t-25 -124q0 -74 39.5 -114.5t109.5 -40.5q48 0 89.5 31t67 85t25.5 125zM227 -71h89l-14 -85h-90z" />
    <glyph glyph-name="uni1EDA" unicode="&#x1eda;" horiz-adv-x="687" 
d="M601 880l-157 -163h-68l130 163h95zM97 271q0 85 26 158.5t71.5 129t107 86.5t132.5 31q42 0 79 -10h120q29 0 51 14t30 60l6 34h67l-8 -40q-8 -48 -31.5 -75.5t-54 -39t-59.5 -11.5h-14q40 -39 62 -95t22 -127q0 -85 -24.5 -157t-69 -125t-105 -82.5t-132.5 -29.5
q-84 0 -146 34.5t-96 97t-34 147.5zM628 389q0 102 -53.5 159t-148.5 57q-72 0 -129 -43.5t-89.5 -119.5t-32.5 -172q0 -98 54 -152t151 -54q74 0 129.5 41t87 114t31.5 170z" />
    <glyph glyph-name="uni1EDB" unicode="&#x1edb;" horiz-adv-x="568" 
d="M516 735l-156 -162h-69l130 162h95zM84 215q0 88 35 158t95 110.5t135 40.5q44 0 82 -13h76q29 0 51 14.5t30 60.5l6 33h66l-7 -39q-8 -46 -29.5 -73t-49.5 -39t-56 -14q52 -60 52 -154q0 -88 -35 -158t-95 -111t-135 -41q-67 0 -116.5 28t-77 78.5t-27.5 118.5zM493 301
q0 72 -39.5 112.5t-109.5 40.5q-49 0 -90.5 -30.5t-66.5 -84.5t-25 -124q0 -74 39.5 -114.5t109.5 -40.5q48 0 89.5 31t67 85t25.5 125z" />
    <glyph glyph-name="uni1EDC" unicode="&#x1edc;" horiz-adv-x="687" 
d="M315 880h84l95 -163h-61zM97 271q0 85 26 158.5t71.5 129t107 86.5t132.5 31q42 0 79 -10h120q29 0 51 14t30 60l6 34h67l-8 -40q-8 -48 -31.5 -75.5t-54 -39t-59.5 -11.5h-14q40 -39 62 -95t22 -127q0 -85 -24.5 -157t-69 -125t-105 -82.5t-132.5 -29.5q-84 0 -146 34.5
t-96 97t-34 147.5zM628 389q0 102 -53.5 159t-148.5 57q-72 0 -129 -43.5t-89.5 -119.5t-32.5 -172q0 -98 54 -152t151 -54q74 0 129.5 41t87 114t31.5 170z" />
    <glyph glyph-name="uni1EDD" unicode="&#x1edd;" horiz-adv-x="568" 
d="M230 735h84l95 -162h-60zM84 215q0 88 35 158t95 110.5t135 40.5q44 0 82 -13h76q29 0 51 14.5t30 60.5l6 33h66l-7 -39q-8 -46 -29.5 -73t-49.5 -39t-56 -14q52 -60 52 -154q0 -88 -35 -158t-95 -111t-135 -41q-67 0 -116.5 28t-77 78.5t-27.5 118.5zM493 301
q0 72 -39.5 112.5t-109.5 40.5q-49 0 -90.5 -30.5t-66.5 -84.5t-25 -124q0 -74 39.5 -114.5t109.5 -40.5q48 0 89.5 31t67 85t25.5 125z" />
    <glyph glyph-name="uni1EDE" unicode="&#x1ede;" horiz-adv-x="687" 
d="M399 717q4 21 18.5 37t47.5 40q39 27 43 48q3 16 -7 25.5t-30 9.5q-45 0 -62 -43h-63q16 45 50 69t80 24q49 0 74.5 -23.5t18.5 -63.5q-5 -24 -17.5 -39.5t-39.5 -34.5q-23 -13 -34 -23.5t-14 -25.5h-65zM97 271q0 85 26 158.5t71.5 129t107 86.5t132.5 31q42 0 79 -10
h120q29 0 51 14t30 60l6 34h67l-8 -40q-8 -48 -31.5 -75.5t-54 -39t-59.5 -11.5h-14q40 -39 62 -95t22 -127q0 -85 -24.5 -157t-69 -125t-105 -82.5t-132.5 -29.5q-84 0 -146 34.5t-96 97t-34 147.5zM628 389q0 102 -53.5 159t-148.5 57q-72 0 -129 -43.5t-89.5 -119.5
t-32.5 -172q0 -98 54 -152t151 -54q74 0 129.5 41t87 114t31.5 170z" />
    <glyph glyph-name="uni1EDF" unicode="&#x1edf;" horiz-adv-x="568" 
d="M314 573q3 21 18 37t48 40q38 26 42 47q3 17 -7 26.5t-30 9.5q-45 0 -62 -43h-62q16 45 49.5 69t79.5 24q50 0 75 -23.5t18 -63.5q-4 -24 -16.5 -39.5t-40.5 -34.5q-23 -13 -34 -23.5t-14 -25.5h-64zM84 215q0 88 35 158t95 110.5t135 40.5q44 0 82 -13h76q29 0 51 14.5
t30 60.5l6 33h66l-7 -39q-8 -46 -29.5 -73t-49.5 -39t-56 -14q52 -60 52 -154q0 -88 -35 -158t-95 -111t-135 -41q-67 0 -116.5 28t-77 78.5t-27.5 118.5zM493 301q0 72 -39.5 112.5t-109.5 40.5q-49 0 -90.5 -30.5t-66.5 -84.5t-25 -124q0 -74 39.5 -114.5t109.5 -40.5
q48 0 89.5 31t67 85t25.5 125z" />
    <glyph glyph-name="uni1EE0" unicode="&#x1ee0;" horiz-adv-x="687" 
d="M374 869q32 0 50.5 -17t32.5 -35q11 -16 23 -29.5t31 -13.5q24 0 42.5 24t25.5 65h57q-12 -70 -47.5 -110t-83.5 -40q-32 0 -48 14.5t-29 31.5t-24.5 32.5t-30.5 15.5q-24 0 -43 -24.5t-25 -65.5h-60q13 72 46 112t83 40zM97 271q0 85 26 158.5t71.5 129t107 86.5
t132.5 31q42 0 79 -10h120q29 0 51 14t30 60l6 34h67l-8 -40q-8 -48 -31.5 -75.5t-54 -39t-59.5 -11.5h-14q40 -39 62 -95t22 -127q0 -85 -24.5 -157t-69 -125t-105 -82.5t-132.5 -29.5q-84 0 -146 34.5t-96 97t-34 147.5zM628 389q0 102 -53.5 159t-148.5 57
q-72 0 -129 -43.5t-89.5 -119.5t-32.5 -172q0 -98 54 -152t151 -54q74 0 129.5 41t87 114t31.5 170z" />
    <glyph glyph-name="uni1EE1" unicode="&#x1ee1;" horiz-adv-x="568" 
d="M288 725q32 0 50.5 -17t32.5 -35q12 -17 23.5 -30t31.5 -13q24 0 42.5 24t25.5 64h56q-12 -69 -47 -109t-84 -40q-31 0 -47.5 14.5t-29.5 31.5t-24.5 32.5t-30.5 15.5q-24 0 -42.5 -24.5t-25.5 -65.5h-60q13 71 46.5 111.5t82.5 40.5zM84 215q0 88 35 158t95 110.5
t135 40.5q44 0 82 -13h76q29 0 51 14.5t30 60.5l6 33h66l-7 -39q-8 -46 -29.5 -73t-49.5 -39t-56 -14q52 -60 52 -154q0 -88 -35 -158t-95 -111t-135 -41q-67 0 -116.5 28t-77 78.5t-27.5 118.5zM493 301q0 72 -39.5 112.5t-109.5 40.5q-49 0 -90.5 -30.5t-66.5 -84.5
t-25 -124q0 -74 39.5 -114.5t109.5 -40.5q48 0 89.5 31t67 85t25.5 125z" />
    <glyph glyph-name="uni1EE2" unicode="&#x1ee2;" horiz-adv-x="687" 
d="M97 271q0 85 26 158.5t71.5 129t107 86.5t132.5 31q42 0 79 -10h120q29 0 51 14t30 60l6 34h67l-8 -40q-8 -48 -31.5 -75.5t-54 -39t-59.5 -11.5h-14q40 -39 62 -95t22 -127q0 -85 -24.5 -157t-69 -125t-105 -82.5t-132.5 -29.5q-84 0 -146 34.5t-96 97t-34 147.5z
M628 389q0 102 -53.5 159t-148.5 57q-72 0 -129 -43.5t-89.5 -119.5t-32.5 -172q0 -98 54 -152t151 -54q74 0 129.5 41t87 114t31.5 170zM281 -71h89l-14 -85h-90z" />
    <glyph glyph-name="uni1EE3" unicode="&#x1ee3;" horiz-adv-x="568" 
d="M84 215q0 88 35 158t95 110.5t135 40.5q44 0 82 -13h76q29 0 51 14.5t30 60.5l6 33h66l-7 -39q-8 -46 -29.5 -73t-49.5 -39t-56 -14q52 -60 52 -154q0 -88 -35 -158t-95 -111t-135 -41q-67 0 -116.5 28t-77 78.5t-27.5 118.5zM493 301q0 72 -39.5 112.5t-109.5 40.5
q-49 0 -90.5 -30.5t-66.5 -84.5t-25 -124q0 -74 39.5 -114.5t109.5 -40.5q48 0 89.5 31t67 85t25.5 125zM226 -71h89l-15 -85h-89z" />
    <glyph glyph-name="uni1EE4" unicode="&#x1ee4;" horiz-adv-x="602" 
d="M166 666h76l-70 -396q-17 -95 26.5 -150.5t137.5 -55.5q74 0 123 46.5t64 129.5l73 426h76l-76 -434q-13 -72 -50 -126t-92 -84t-122 -30q-83 0 -140.5 36t-83 100t-10.5 148zM246 -71h89l-14 -85h-90z" />
    <glyph glyph-name="uni1EE5" unicode="&#x1ee5;" horiz-adv-x="530" 
d="M164 217q-13 -72 15 -114t93 -42q66 0 110 40t54 108h1l53 303h74l-89 -512h-75l13 74q-32 -39 -76 -61t-93 -22q-56 0 -95.5 29.5t-56 79t-5.5 109.5l54 303h76zM220 -71h89l-14 -85h-90z" />
    <glyph glyph-name="uni1EE6" unicode="&#x1ee6;" horiz-adv-x="602" 
d="M397 717q4 21 18.5 37t47.5 40q38 27 42 48q3 16 -7 25.5t-29 9.5q-46 0 -63 -43h-62q16 45 49.5 69t80.5 24q49 0 74 -23.5t18 -63.5q-4 -24 -16.5 -39.5t-40.5 -34.5q-23 -13 -33.5 -23.5t-13.5 -25.5h-65zM166 666h76l-70 -396q-17 -95 26.5 -150.5t137.5 -55.5
q74 0 123 46.5t64 129.5l73 426h76l-76 -434q-13 -72 -50 -126t-92 -84t-122 -30q-83 0 -140.5 36t-83 100t-10.5 148z" />
    <glyph glyph-name="uni1EE7" unicode="&#x1ee7;" horiz-adv-x="530" 
d="M326 573q4 21 18.5 37t47.5 40q38 27 42 48q3 16 -6.5 25.5t-29.5 9.5q-45 0 -62 -43h-63q16 45 50 69t80 24q49 0 74.5 -23.5t17.5 -63.5q-4 -24 -16.5 -39.5t-40.5 -34.5q-22 -13 -33 -23.5t-14 -25.5h-65zM164 217q-13 -72 15 -114t93 -42q66 0 110 40t54 108h1
l53 303h74l-89 -512h-75l13 74q-32 -39 -76 -61t-93 -22q-56 0 -95.5 29.5t-56 79t-5.5 109.5l54 303h76z" />
    <glyph glyph-name="uni1EE8" unicode="&#x1ee8;" horiz-adv-x="609" 
d="M593 880l-156 -163h-68l129 163h95zM166 666h76l-70 -396q-17 -95 26.5 -150.5t137.5 -55.5q74 0 123 46.5t64 129.5l73 426h76v-1q27 1 47.5 16.5t27.5 58.5l6 33h67l-8 -39q-8 -48 -31.5 -75.5t-54 -39t-59.5 -11.5h-5l-66 -376q-13 -72 -50 -126t-92 -84t-122 -30
q-83 0 -141 36t-83 100t-10 149z" />
    <glyph glyph-name="uni1EE9" unicode="&#x1ee9;" horiz-adv-x="538" 
d="M527 736l-157 -163h-68l130 163h95zM164 217q-13 -72 15 -114t93 -42q66 0 110 40t54 108h1l52 299v4h70q29 0 51 14.5t30 60.5l6 33h66l-7 -39q-8 -48 -31.5 -75.5t-54 -39t-60.5 -11.5h-5l-79 -455h-75l13 74q-32 -39 -76 -61t-93 -22q-56 0 -95.5 29.5t-56 79
t-5.5 109.5l54 303h76z" />
    <glyph glyph-name="uni1EEA" unicode="&#x1eea;" horiz-adv-x="609" 
d="M307 880h84l95 -163h-60zM166 666h76l-70 -396q-17 -95 26.5 -150.5t137.5 -55.5q74 0 123 46.5t64 129.5l73 426h76v-1q27 1 47.5 16.5t27.5 58.5l6 33h67l-8 -39q-8 -48 -31.5 -75.5t-54 -39t-59.5 -11.5h-5l-66 -376q-13 -72 -50 -126t-92 -84t-122 -30q-83 0 -141 36
t-83 100t-10 149z" />
    <glyph glyph-name="uni1EEB" unicode="&#x1eeb;" horiz-adv-x="538" 
d="M241 736h84l95 -163h-61zM164 217q-13 -72 15 -114t93 -42q66 0 110 40t54 108h1l52 299v4h70q29 0 51 14.5t30 60.5l6 33h66l-7 -39q-8 -48 -31.5 -75.5t-54 -39t-60.5 -11.5h-5l-79 -455h-75l13 74q-32 -39 -76 -61t-93 -22q-56 0 -95.5 29.5t-56 79t-5.5 109.5l54 303
h76z" />
    <glyph glyph-name="uni1EEC" unicode="&#x1eec;" horiz-adv-x="609" 
d="M392 717q4 21 18.5 37t47.5 40q38 27 42 48q3 16 -7 25.5t-29 9.5q-46 0 -63 -43h-62q16 45 49.5 69t80.5 24q49 0 74 -23.5t18 -63.5q-4 -24 -16.5 -39.5t-40.5 -34.5q-23 -13 -33.5 -23.5t-13.5 -25.5h-65zM166 666h76l-70 -396q-17 -95 26.5 -150.5t137.5 -55.5
q74 0 123 46.5t64 129.5l73 426h76v-1q27 1 47.5 16.5t27.5 58.5l6 33h67l-8 -39q-8 -48 -31.5 -75.5t-54 -39t-59.5 -11.5h-5l-66 -376q-13 -72 -50 -126t-92 -84t-122 -30q-83 0 -141 36t-83 100t-10 149z" />
    <glyph glyph-name="uni1EED" unicode="&#x1eed;" horiz-adv-x="538" 
d="M325 573q4 21 18.5 37t47.5 40q39 27 43 48q3 16 -7 25.5t-30 9.5q-45 0 -62 -43h-63q16 45 50 69t80 24q49 0 74.5 -23.5t18.5 -63.5q-5 -24 -17.5 -39.5t-39.5 -34.5q-23 -13 -34 -23.5t-14 -25.5h-65zM164 217q-13 -72 15 -114t93 -42q66 0 110 40t54 108h1l52 299v4
h70q29 0 51 14.5t30 60.5l6 33h66l-7 -39q-8 -48 -31.5 -75.5t-54 -39t-60.5 -11.5h-5l-79 -455h-75l13 74q-32 -39 -76 -61t-93 -22q-56 0 -95.5 29.5t-56 79t-5.5 109.5l54 303h76z" />
    <glyph glyph-name="uni1EEE" unicode="&#x1eee;" horiz-adv-x="609" 
d="M366 869q33 0 51 -17t32 -35q12 -16 24 -29.5t31 -13.5q24 0 42.5 24t25.5 65h57q-13 -70 -48 -110t-83 -40q-32 0 -48.5 14.5t-29.5 31.5t-24.5 32.5t-30.5 15.5q-24 0 -42.5 -24.5t-25.5 -65.5h-60q13 72 46.5 112t82.5 40zM166 666h76l-70 -396q-17 -95 26.5 -150.5
t137.5 -55.5q74 0 123 46.5t64 129.5l73 426h76v-1q27 1 47.5 16.5t27.5 58.5l6 33h67l-8 -39q-8 -48 -31.5 -75.5t-54 -39t-59.5 -11.5h-5l-66 -376q-13 -72 -50 -126t-92 -84t-122 -30q-83 0 -141 36t-83 100t-10 149z" />
    <glyph glyph-name="uni1EEF" unicode="&#x1eef;" horiz-adv-x="538" 
d="M300 725q32 0 50.5 -17t32.5 -35q11 -16 23 -29.5t31 -13.5q24 0 42.5 24t25.5 65h57q-12 -70 -47.5 -110t-83.5 -40q-32 0 -48 14.5t-29 31.5t-24.5 32.5t-30.5 15.5q-24 0 -43 -24.5t-25 -65.5h-60q13 72 46 112t83 40zM164 217q-13 -72 15 -114t93 -42q66 0 110 40
t54 108h1l52 299v4h70q29 0 51 14.5t30 60.5l6 33h66l-7 -39q-8 -48 -31.5 -75.5t-54 -39t-60.5 -11.5h-5l-79 -455h-75l13 74q-32 -39 -76 -61t-93 -22q-56 0 -95.5 29.5t-56 79t-5.5 109.5l54 303h76z" />
    <glyph glyph-name="uni1EF0" unicode="&#x1ef0;" horiz-adv-x="609" 
d="M166 666h76l-70 -396q-17 -95 26.5 -150.5t137.5 -55.5q74 0 123 46.5t64 129.5l73 426h76v-1q27 1 47.5 16.5t27.5 58.5l6 33h67l-8 -39q-8 -48 -31.5 -75.5t-54 -39t-59.5 -11.5h-5l-66 -376q-13 -72 -50 -126t-92 -84t-122 -30q-83 0 -141 36t-83 100t-10 149z
M242 -71h89l-14 -85h-90z" />
    <glyph glyph-name="uni1EF1" unicode="&#x1ef1;" horiz-adv-x="538" 
d="M164 217q-13 -72 15 -114t93 -42q66 0 110 40t54 108h1l52 299v4h70q29 0 51 14.5t30 60.5l6 33h66l-7 -39q-8 -48 -31.5 -75.5t-54 -39t-60.5 -11.5h-5l-79 -455h-75l13 74q-32 -39 -76 -61t-93 -22q-56 0 -95.5 29.5t-56 79t-5.5 109.5l54 303h76zM193 -71h89l-14 -85
h-90z" />
    <glyph glyph-name="Ygrave" unicode="&#x1ef2;" horiz-adv-x="595" 
d="M312 880h84l95 -163h-60zM300 229l-149 437h81l115 -350l242 350h93l-308 -437l-40 -229h-75z" />
    <glyph glyph-name="ygrave" unicode="&#x1ef3;" horiz-adv-x="557" 
d="M267 736h85l95 -163h-61zM43 -90h73q36 0 57 14.5t41 51.5l19 38l-109 498h78l90 -420l233 420h88l-307 -544q-39 -70 -78.5 -100.5t-97.5 -30.5h-97z" />
    <glyph glyph-name="uni1EF4" unicode="&#x1ef4;" horiz-adv-x="595" 
d="M300 229l-149 437h81l115 -350l242 350h93l-308 -437l-40 -229h-75zM241 -71h89l-14 -85h-90z" />
    <glyph glyph-name="uni1EF5" unicode="&#x1ef5;" horiz-adv-x="557" 
d="M43 -90h73q36 0 57 14.5t41 51.5l19 38l-109 498h78l90 -420l233 420h88l-307 -544q-39 -70 -78.5 -100.5t-97.5 -30.5h-97zM344 -71h89l-14 -85h-90z" />
    <glyph glyph-name="uni1EF6" unicode="&#x1ef6;" horiz-adv-x="595" 
d="M397 717q4 21 18.5 37t47.5 40q38 27 42 48q3 16 -7 25.5t-29 9.5q-46 0 -63 -43h-62q16 45 49.5 69t80.5 24q49 0 74 -23.5t18 -63.5q-4 -24 -16.5 -39.5t-40.5 -34.5q-23 -13 -33.5 -23.5t-13.5 -25.5h-65zM300 229l-149 437h81l115 -350l242 350h93l-308 -437
l-40 -229h-75z" />
    <glyph glyph-name="uni1EF7" unicode="&#x1ef7;" horiz-adv-x="557" 
d="M352 573q4 21 18.5 37t47.5 40q38 27 42 48q3 16 -6.5 25.5t-29.5 9.5q-45 0 -62 -43h-63q16 45 50 69t80 24q49 0 74.5 -23.5t17.5 -63.5q-4 -24 -16.5 -39.5t-40.5 -34.5q-22 -13 -33 -23.5t-14 -25.5h-65zM43 -90h73q36 0 57 14.5t41 51.5l19 38l-109 498h78l90 -420
l233 420h88l-307 -544q-39 -70 -78.5 -100.5t-97.5 -30.5h-97z" />
    <glyph glyph-name="uni1EF8" unicode="&#x1ef8;" horiz-adv-x="595" 
d="M371 869q33 0 51 -17t32 -35q12 -16 24 -29.5t31 -13.5q24 0 42.5 24t25.5 65h57q-13 -70 -48 -110t-83 -40q-32 0 -48.5 14.5t-29.5 31.5t-24.5 32.5t-30.5 15.5q-24 0 -42.5 -24.5t-25.5 -65.5h-60q13 72 46.5 112t82.5 40zM300 229l-149 437h81l115 -350l242 350h93
l-308 -437l-40 -229h-75z" />
    <glyph glyph-name="uni1EF9" unicode="&#x1ef9;" horiz-adv-x="557" 
d="M326 725q33 0 51.5 -17t32.5 -35q11 -16 23 -29.5t31 -13.5q24 0 42.5 24t25.5 65h57q-12 -70 -47.5 -110t-83.5 -40q-32 0 -48 14.5t-30 31.5q-13 17 -24 32.5t-31 15.5q-23 0 -42 -24.5t-26 -65.5h-59q13 72 46 112t82 40zM43 -90h73q36 0 57 14.5t41 51.5l19 38
l-109 498h78l90 -420l233 420h88l-307 -544q-39 -70 -78.5 -100.5t-97.5 -30.5h-97z" />
    <glyph glyph-name="endash" unicode="&#x2013;" horiz-adv-x="677" 
d="M90 317h609l-12 -69h-609z" />
    <glyph glyph-name="emdash" unicode="&#x2014;" horiz-adv-x="1008" 
d="M90 317h941l-13 -69h-940z" />
    <glyph glyph-name="quoteleft" unicode="&#x2018;" 
d="M215 481h-90l17 94l64 142h57l-85 -142h53z" />
    <glyph glyph-name="quoteright" unicode="&#x2019;" 
d="M174 717h89l-17 -94l-64 -142h-57l86 142h-54z" />
    <glyph glyph-name="quotesinglbase" unicode="&#x201a;" 
d="M64 94h89l-16 -94l-65 -142h-56l85 142h-54z" />
    <glyph glyph-name="quotereversed" unicode="&#x201b;" 
d="M256 717l-17 -94h-53l35 -142h-57l-13 142l15 94h90z" />
    <glyph glyph-name="quotedblleft" unicode="&#x201c;" horiz-adv-x="324" 
d="M355 481h-89l17 94l64 142h57l-86 -142h54zM215 481h-90l17 94l64 142h57l-85 -142h53z" />
    <glyph glyph-name="quotedblright" unicode="&#x201d;" horiz-adv-x="324" 
d="M174 717h89l-17 -94l-64 -142h-57l86 142h-54zM314 717h90l-17 -94l-63 -142h-58l85 142h-53z" />
    <glyph glyph-name="quotedblbase" unicode="&#x201e;" horiz-adv-x="324" 
d="M64 94h89l-16 -94l-65 -142h-56l85 142h-54zM204 94h90l-17 -94l-64 -142h-57l86 142h-54z" />
    <glyph glyph-name="uni201F" unicode="&#x201f;" horiz-adv-x="324" 
d="M398 717l-17 -94h-54l36 -142h-58l-14 142l17 94h90zM256 717l-17 -94h-53l35 -142h-57l-13 142l15 94h90z" />
    <glyph glyph-name="dagger" unicode="&#x2020;" horiz-adv-x="337" 
d="M210 446h-98l12 66h97l24 133h75l-23 -133h97l-12 -66h-97l-79 -446h-75z" />
    <glyph glyph-name="daggerdbl" unicode="&#x2021;" horiz-adv-x="337" 
d="M297 512h97l-12 -66h-97l-44 -247h98l-12 -66h-97l-24 -133h-75l24 133h-98l12 66h97l44 247h-98l12 66h97l24 133h75z" />
    <glyph glyph-name="bullet" unicode="&#x2022;" horiz-adv-x="227" 
d="M104 375q0 31 22 53.5t54 22.5t54.5 -22.5t22.5 -53.5q0 -32 -22.5 -54.5t-54.5 -22.5t-54 22.5t-22 54.5z" />
    <glyph glyph-name="uni2023" unicode="&#x2023;" horiz-adv-x="227" 
d="M86 276l35 196l135 -109z" />
    <glyph glyph-name="ellipsis" unicode="&#x2026;" horiz-adv-x="546" 
d="M426 94h90l-17 -94h-88zM246 94h89l-16 -94h-90zM64 94h89l-16 -94h-90z" />
    <glyph glyph-name="perthousand" unicode="&#x2030;" horiz-adv-x="1278" 
d="M111 434q0 68 25 123.5t68.5 87.5t97.5 32q68 0 109 -45.5t41 -121.5q0 -68 -25.5 -123.5t-68.5 -88t-96 -32.5q-69 0 -110 45.5t-41 122.5zM661 666h75l-391 -666h-75zM384 510q0 50 -23 77t-63 27q-34 0 -60.5 -23.5t-42 -64.5t-15.5 -93q0 -50 23 -77t64 -27
q33 0 59.5 23.5t42 64.5t15.5 93zM942 158q0 69 25.5 124t69 87t97.5 32q69 0 110 -45.5t41 -121.5q0 -68 -25.5 -123.5t-69 -88t-96.5 -32.5q-69 0 -110.5 46t-41.5 122zM551 158q0 69 25.5 124t68.5 87t97 32q69 0 110 -45.5t41 -121.5q0 -68 -25.5 -123.5t-69 -88
t-96.5 -32.5q-69 0 -110 46t-41 122zM1216 235q0 49 -22.5 76t-63.5 27q-34 0 -60.5 -23.5t-41.5 -64t-15 -92.5q0 -50 22.5 -77.5t63.5 -27.5q33 0 59.5 23.5t42 65t15.5 93.5zM825 235q0 49 -23 76t-64 27q-33 0 -60 -23.5t-42 -64t-15 -92.5q0 -50 22.5 -77.5t63.5 -27.5
q34 0 60.5 23.5t42 65t15.5 93.5z" />
    <glyph glyph-name="minute" unicode="&#x2032;" horiz-adv-x="258" 
d="M350 666l-173 -162h-62l146 162h89z" />
    <glyph glyph-name="second" unicode="&#x2033;" horiz-adv-x="411" 
d="M503 666l-173 -162h-63l147 162h89zM350 666l-173 -162h-62l146 162h89z" />
    <glyph glyph-name="uni2034" unicode="&#x2034;" horiz-adv-x="564" 
d="M350 666l-173 -162h-62l146 162h89zM656 666l-173 -162h-63l147 162h89zM503 666l-173 -162h-63l147 162h89z" />
    <glyph glyph-name="uni2035" unicode="&#x2035;" horiz-adv-x="258" 
d="M143 666h89l90 -162h-63z" />
    <glyph glyph-name="uni2036" unicode="&#x2036;" horiz-adv-x="411" 
d="M143 666h89l90 -162h-63zM296 666h90l89 -162h-63z" />
    <glyph glyph-name="uni2037" unicode="&#x2037;" horiz-adv-x="564" 
d="M449 666h90l88 -162h-62zM143 666h89l90 -162h-63zM296 666h90l89 -162h-63z" />
    <glyph glyph-name="guilsinglleft" unicode="&#x2039;" horiz-adv-x="310" 
d="M377 526l-17 -102l-214 -149l160 -154l-15 -80l-214 200l15 85z" />
    <glyph glyph-name="guilsinglright" unicode="&#x203a;" horiz-adv-x="310" 
d="M42 41l16 102l214 149l-160 154l15 80l214 -200l-15 -85z" />
    <glyph glyph-name="uni2070" unicode="&#x2070;" horiz-adv-x="407" 
d="M136 569q11 61 40 107t71.5 71.5t93.5 25.5q75 0 111 -56t20 -148q-11 -62 -40 -108.5t-71 -72t-93 -25.5q-75 0 -111.5 56.5t-20.5 149.5zM402 569q12 67 -6.5 104t-65.5 37t-80 -37t-45 -104q-12 -68 8 -105.5t67 -37.5q46 0 78 37.5t44 105.5z" />
    <glyph glyph-name="uni2074" unicode="&#x2074;" horiz-adv-x="410" 
d="M389 469l-17 -96h-66l17 96h-206l12 68l232 231h81l-43 -241h73l-11 -58h-72zM333 527l30 167l-167 -167h137z" />
    <glyph glyph-name="uni2075" unicode="&#x2075;" horiz-adv-x="385" 
d="M368 504q7 37 -10 58.5t-56 21.5q-33 0 -60 -13t-44 -36h-67l68 233h266l-11 -60h-207l-32 -113q21 22 50.5 34.5t63.5 12.5q62 0 91.5 -38.5t19.5 -97.5q-12 -67 -62 -105t-119 -38q-67 0 -105 33t-33 85h71q-3 -26 17.5 -41.5t59.5 -15.5q40 0 66 20t33 60z" />
    <glyph glyph-name="uni2076" unicode="&#x2076;" horiz-adv-x="400" 
d="M136 565q17 98 72.5 153t138.5 55q57 0 90.5 -29.5t34.5 -82.5h-71q-2 52 -65 52q-103 0 -128 -140q-1 -6 -1.5 -12t-0.5 -12q20 36 56 57t75 21q60 0 92 -36.5t22 -93.5q-10 -58 -57.5 -95t-110.5 -37q-84 0 -124 54t-23 146zM216 496q-6 -30 15 -50t57 -20t61 19t31 51
t-12.5 50.5t-55.5 18.5t-64 -19t-32 -50z" />
    <glyph glyph-name="uni2077" unicode="&#x2077;" horiz-adv-x="407" 
d="M267 373h-78q23 80 58.5 139.5t80 105.5t93.5 86h-261l11 64h335l-13 -74q-84 -64 -142.5 -142.5t-83.5 -178.5z" />
    <glyph glyph-name="uni2078" unicode="&#x2078;" horiz-adv-x="398" 
d="M338 773q68 0 103.5 -31.5t26.5 -82.5q-5 -30 -25 -53t-52 -36q32 -13 46 -37.5t9 -57.5q-9 -50 -58.5 -80t-121.5 -30q-75 0 -115 30t-31 80q5 32 29 57t62 38q-60 28 -49 89q9 51 57.5 82.5t118.5 31.5zM230 652q-4 -26 15.5 -40t58.5 -14h6q78 0 87 54q6 29 -12.5 45
t-57.5 16q-41 0 -66 -16t-31 -45zM276 425q43 0 69 14.5t31 41.5q5 29 -15 45t-61 16h-6q-43 0 -70 -16t-32 -44q-5 -27 17.5 -42t66.5 -15z" />
    <glyph glyph-name="uni2079" unicode="&#x2079;" horiz-adv-x="400" 
d="M462 556q-16 -90 -71 -140.5t-138 -50.5q-60 0 -96 28.5t-37 79.5h71q3 -48 72 -48q106 0 129 131q1 6 1.5 12.5t1.5 12.5q-21 -35 -56.5 -56t-75.5 -21q-60 0 -92.5 37.5t-22.5 95.5q7 40 32 70.5t62.5 48t81.5 17.5q80 0 117.5 -58.5t20.5 -158.5zM386 637
q6 32 -14.5 53.5t-56.5 21.5q-37 0 -62 -20.5t-31 -53.5t12.5 -53.5t54.5 -20.5q38 0 64.5 20t32.5 53z" />
    <glyph glyph-name="uni207A" unicode="&#x207a;" horiz-adv-x="378" 
d="M328 608h124l-11 -63h-124l-22 -124h-63l22 124h-124l11 63h124l22 123h63z" />
    <glyph glyph-name="uni207B" unicode="&#x207b;" horiz-adv-x="378" 
d="M141 608h311l-11 -63h-311z" />
    <glyph glyph-name="uni207C" unicode="&#x207c;" horiz-adv-x="378" 
d="M157 697h310l-11 -63h-310zM126 519h310l-11 -62h-310z" />
    <glyph glyph-name="uni207D" unicode="&#x207d;" horiz-adv-x="202" 
d="M239 294h-69q-29 39 -40 112.5t6 169.5q16 91 52 161t79 108h69q-49 -48 -81 -113.5t-48 -155.5q-17 -95 -8.5 -164t40.5 -118z" />
    <glyph glyph-name="uni207E" unicode="&#x207e;" horiz-adv-x="202" 
d="M164 845h70q29 -39 39.5 -112.5t-6.5 -169.5q-16 -91 -51.5 -161t-78.5 -108h-70q49 48 81 113.5t48 155.5q17 95 8.5 163.5t-40.5 118.5z" />
    <glyph glyph-name="uni207F" unicode="&#x207f;" horiz-adv-x="445" 
d="M430 609q10 56 -11.5 81t-64.5 25q-45 0 -79.5 -28t-42.5 -71v0l-43 -243h-69l70 395h69l-9 -51q28 30 64.5 46.5t70.5 16.5q62 0 95.5 -40t20.5 -115l-44 -252h-68z" />
    <glyph glyph-name="uni2080" unicode="&#x2080;" horiz-adv-x="407" 
d="M52 94q11 61 40.5 107t72 71.5t92.5 25.5q75 0 111 -56t20 -148q-11 -62 -40 -108.5t-71 -72.5t-92 -26q-76 0 -112.5 57t-20.5 150zM319 94q11 67 -7.5 104t-65.5 37t-80 -37t-44 -104q-12 -68 7.5 -105.5t66.5 -37.5t79 37.5t44 105.5z" />
    <glyph glyph-name="uni2081" unicode="&#x2081;" horiz-adv-x="243" 
d="M189 293h68l-70 -395h-68l45 254h-111l10 58h44q34 0 52.5 11t24.5 42z" />
    <glyph glyph-name="uni2082" unicode="&#x2082;" horiz-adv-x="397" 
d="M101 -41h249l-11 -61h-321l3 17q10 56 40 88t70 50t79 31q41 14 72 31.5t37 50.5q6 34 -13 53t-59 19q-43 0 -73.5 -22t-38.5 -59h-71q16 63 70 102t124 39t106.5 -37t25.5 -99q-6 -34 -29.5 -57.5t-56 -40t-67.5 -29.5q-49 -18 -86.5 -34.5t-49.5 -41.5z" />
    <glyph glyph-name="uni2083" unicode="&#x2083;" horiz-adv-x="400" 
d="M183 65l9 56h59q53 0 62 51q5 31 -14 48.5t-60 17.5q-37 0 -63.5 -17.5t-32.5 -47.5h-71q14 56 63.5 91t115.5 35q69 0 106 -33.5t28 -89.5q-10 -55 -63 -82q53 -27 43 -89q-10 -52 -59.5 -84t-121.5 -32q-69 0 -110 33.5t-36 87.5h71q-3 -27 20 -43t65 -16q43 0 69 15.5
t31 43.5q10 55 -53 55h-58z" />
    <glyph glyph-name="uni2084" unicode="&#x2084;" horiz-adv-x="410" 
d="M305 -6l-16 -96h-67l17 96h-206l12 68l232 231h81l-42 -241h72l-10 -58h-73zM249 52l30 166l-166 -166h136z" />
    <glyph glyph-name="uni2085" unicode="&#x2085;" horiz-adv-x="385" 
d="M284 29q7 37 -10 58.5t-56 21.5q-33 0 -60 -13.5t-44 -35.5h-67l68 233h266l-10 -60h-208l-32 -113q21 22 50.5 34.5t64.5 12.5q61 0 90.5 -38.5t19.5 -97.5q-12 -66 -61.5 -105t-119.5 -39q-67 0 -105 33t-33 86h71q-3 -26 17.5 -41.5t59.5 -15.5q40 0 66 20t33 60z" />
    <glyph glyph-name="uni2086" unicode="&#x2086;" horiz-adv-x="400" 
d="M52 90q17 98 72.5 153t138.5 55q57 0 90.5 -30t34.5 -82h-71q-2 52 -64 52q-104 0 -129 -140q-1 -6 -1.5 -12t-0.5 -12q20 36 56 57t76 21q59 0 91 -37t22 -94q-10 -58 -57.5 -95t-110.5 -37q-84 0 -123.5 54.5t-23.5 146.5zM132 20q-5 -30 15.5 -49.5t56.5 -19.5
q37 0 61.5 18.5t30.5 50.5t-12.5 51t-54.5 19q-38 0 -65 -19.5t-32 -50.5z" />
    <glyph glyph-name="uni2087" unicode="&#x2087;" horiz-adv-x="407" 
d="M183 -102h-78q23 80 59 139.5t80 105.5t93 86h-261l12 64h334l-13 -75q-84 -64 -142 -142t-84 -178z" />
    <glyph glyph-name="uni2088" unicode="&#x2088;" horiz-adv-x="398" 
d="M254 298q68 0 103.5 -31.5t26.5 -82.5q-5 -30 -25 -53t-52 -36q32 -13 46.5 -37.5t8.5 -57.5q-9 -50 -58.5 -80.5t-121.5 -30.5q-75 0 -115 30.5t-31 80.5q6 32 29.5 57t61.5 38q-59 28 -49 89q9 51 57.5 82.5t118.5 31.5zM147 177q-5 -26 14.5 -40t58.5 -14h7
q77 0 87 54q5 29 -13 45t-58 16q-41 0 -66 -16t-30 -45zM193 -50q42 0 68 14.5t31 41.5q5 29 -14.5 44.5t-60.5 15.5h-7q-43 0 -70 -15.5t-32 -44.5q-4 -27 18 -41.5t67 -14.5z" />
    <glyph glyph-name="uni2089" unicode="&#x2089;" horiz-adv-x="400" 
d="M378 81q-16 -90 -71 -141t-138 -51q-60 0 -95.5 29t-37.5 80h71q4 -48 72 -48q106 0 129 131q2 6 2.5 12.5t0.5 12.5q-20 -35 -56 -56t-75 -21q-61 0 -93.5 37.5t-21.5 95.5q7 40 31.5 70.5t62 48t81.5 17.5q80 0 118 -58.5t20 -158.5zM302 162q6 32 -14.5 53.5
t-56.5 21.5t-61.5 -20.5t-31.5 -53.5q-5 -33 13 -53.5t54 -20.5q38 0 65 20t32 53z" />
    <glyph glyph-name="uni208A" unicode="&#x208a;" horiz-adv-x="378" 
d="M244 133h124l-11 -63h-124l-22 -124h-62l21 124h-123l11 63h123l22 123h63z" />
    <glyph glyph-name="uni208B" unicode="&#x208b;" horiz-adv-x="378" 
d="M58 133h310l-11 -63h-310z" />
    <glyph glyph-name="uni208C" unicode="&#x208c;" horiz-adv-x="378" 
d="M73 222h311l-11 -63h-311zM42 44h310l-11 -62h-310z" />
    <glyph glyph-name="uni208D" unicode="&#x208d;" horiz-adv-x="202" 
d="M155 -181h-69q-29 39 -40 112t6 169q16 91 52 161.5t79 108.5h69q-49 -48 -81 -114t-48 -156q-17 -95 -8.5 -163.5t40.5 -117.5z" />
    <glyph glyph-name="uni208E" unicode="&#x208e;" horiz-adv-x="202" 
d="M80 370h70q29 -39 39.5 -112.5t-6.5 -169.5q-16 -91 -51.5 -161t-78.5 -108h-70q49 48 81 113.5t48 155.5q17 95 8.5 163.5t-40.5 118.5z" />
    <glyph glyph-name="uni2099" unicode="&#x2099;" horiz-adv-x="445" 
d="M106 293h69l-9 -51q28 30 64.5 46.5t70.5 16.5q62 0 96 -40t20 -115l-44 -252h-68l42 236q9 56 -12.5 81t-64.5 25q-44 0 -79 -28t-43 -72l-43 -242h-69z" />
    <glyph glyph-name="uni20A0" unicode="&#x20a0;" horiz-adv-x="753" 
d="M116 405q0 76 33.5 139t90 100.5t125.5 37.5q82 0 129 -43.5t48 -108.5h-74q-1 40 -28 63t-74 23q-50 0 -89.5 -28.5t-62.5 -77t-23 -109.5q0 -142 167 -142h43l34 193h354l-11 -63h-279l-23 -131h251l-11 -61h-251l-23 -132h279l-12 -65h-353l34 194h-34
q-113 0 -176.5 56t-63.5 155z" />
    <glyph glyph-name="colonmonetary" unicode="&#x20a1;" horiz-adv-x="659" 
d="M97 273q0 85 25 158t69 128t103 85.5t128 30.5h18l48 102h62l-52 -110q47 -11 84 -34l67 144h63l-86 -181q30 -32 46.5 -75.5t16.5 -96.5h-74q0 57 -23 98l-218 -462q49 1 92 21t73.5 55.5t41.5 80.5h77q-28 -103 -106.5 -164t-188.5 -61q-11 0 -21 1l-34 -73h-61l38 81
q-46 12 -83 37l-56 -118h-60l74 157q-63 75 -63 196zM173 269q0 -67 23 -114l212 452q-67 -3 -120 -48t-84 -120.5t-31 -169.5zM234 105q33 -29 82 -39l236 502q-35 27 -84 35z" />
    <glyph glyph-name="uni20A2" unicode="&#x20a2;" horiz-adv-x="659" 
d="M97 275q0 84 25.5 157t70.5 127.5t106.5 85t134.5 30.5q78 0 135.5 -28t89 -78.5t32.5 -118.5h-73q0 74 -50.5 116.5t-137.5 42.5q-73 0 -131 -45t-92 -122.5t-34 -173.5q0 -92 44 -145.5t127 -61.5l54 309h70l-12 -67q30 37 69.5 57t78.5 20h34l-13 -72h-24
q-63 0 -110 -36.5t-57 -92.5l-21 -115q61 10 106.5 45.5t59.5 85.5h76q-17 -62 -58.5 -107.5t-101 -70.5t-130.5 -25q-124 0 -196 75.5t-72 207.5z" />
    <glyph glyph-name="franc" unicode="&#x20a3;" horiz-adv-x="602" 
d="M676 666l-12 -70h-374l-35 -202h344l-12 -70h-345l-22 -128h214l-11 -64h-215l-23 -132h-76l24 132h-95l12 64h94l83 470h449z" />
    <glyph glyph-name="lira" unicode="&#x20a4;" horiz-adv-x="555" 
d="M84 265h108l15 81h-109l10 56h108l18 103q14 76 68.5 122.5t129.5 46.5q83 0 127 -46t44 -119h-75q0 46 -24 71.5t-70 25.5q-49 0 -82.5 -28t-42.5 -78l-17 -98h209l-10 -56h-209l-14 -81h208l-10 -56h-209q-11 -41 -41 -79.5t-86 -59.5h401l-11 -70h-484l14 75
q56 21 87.5 58t43.5 76h-108z" />
    <glyph glyph-name="uni20A5" unicode="&#x20a5;" horiz-adv-x="852" 
d="M145 512h76l-12 -69q33 39 78.5 59.5t88.5 20.5q47 0 83 -21.5t54 -60.5l128 225h84l-92 -161q39 17 78 17q50 0 88 -25t55 -70.5t6 -107.5l-58 -319h-75l56 309q14 76 -15.5 108.5t-82.5 32.5q-29 0 -57 -11.5t-50 -31.5l-55 -95l-57 -312h-75l21 117l-133 -234h-84
l256 449q6 62 -23.5 91.5t-83.5 29.5q-52 0 -95.5 -31.5t-58.5 -84.5l-59 -337h-76z" />
    <glyph glyph-name="uni20A6" unicode="&#x20a6;" horiz-adv-x="691" 
d="M732 265l-11 -64h-76l-36 -201h-78l-97 201h-243l-35 -201h-74l35 201h-77l12 64h77l24 141h-76l11 64h77l34 196h96l93 -196h231l34 196h74l-35 -196h76l-11 -64h-76l-25 -141h76zM256 570l-17 -100h66zM203 265h200l-68 141h-107zM485 265h98l25 141h-190zM556 114
l15 87h-56z" />
    <glyph glyph-name="peseta" unicode="&#x20a7;" horiz-adv-x="1262" 
d="M381 246h-207l-44 -246h-76l118 666h260q81 0 131 -42t59 -112h75l24 133h75l-24 -133h95l-11 -66h-95l-50 -282q-7 -42 5.5 -68t63.5 -26h267q57 0 89.5 22.5t32.5 60.5q0 54 -89 66l-80 11q-139 21 -139 127q0 49 26.5 86.5t75 58t112.5 20.5q95 0 146 -42t51 -121h-76
q0 51 -30 75.5t-96 24.5q-59 0 -96 -26.5t-37 -68.5q0 -27 20 -41.5t66 -20.5l83 -10q140 -20 140 -134q0 -71 -52 -114.5t-138 -43.5h-286q-40 0 -75 13.5t-53 47t-8 94.5l52 291h-66q-8 -53 -38 -98.5t-80.5 -73.5t-120.5 -28zM419 597h-184l-50 -281h184q65 0 104 27
t56 67t17 79q0 52 -32.5 80t-94.5 28z" />
    <glyph glyph-name="uni20A8" unicode="&#x20a8;" horiz-adv-x="1039" 
d="M336 274h-158l-48 -274h-76l118 666h271q85 0 134.5 -46t49.5 -125q0 -73 -46.5 -126.5t-123.5 -68.5q51 -12 73 -46.5t22 -96.5v-157h-76v148q0 70 -31.5 98t-108.5 28zM429 597h-194l-45 -255h194q76 0 119.5 44t43.5 112q0 48 -31 73.5t-87 25.5zM856 215l-79 19
q-138 30 -138 132q0 72 53.5 115t147.5 43q92 0 147 -45.5t57 -131.5h-74q0 56 -35 84t-100 28q-57 0 -88.5 -23.5t-31.5 -62.5q0 -29 20 -45t65 -26l81 -17q139 -30 139 -138q0 -73 -52.5 -115.5t-149.5 -42.5q-102 0 -160.5 47t-58.5 130h78q0 -56 37.5 -84.5t104.5 -28.5
q61 0 93.5 22.5t32.5 61.5q0 30 -21.5 48.5t-67.5 29.5z" />
    <glyph glyph-name="uni20A9" unicode="&#x20a9;" horiz-adv-x="993" 
d="M150 666h77l17 -196h221l99 196h88l28 -196h223l88 196h87l-93 -196h85l-11 -64h-104l-66 -141h145l-11 -64h-164l-95 -201h-86l-29 201h-239l-100 -201h-88l-22 201h-160l12 64h141l-15 141h-101l11 64h83zM596 573l-52 -103h67zM262 265h100l71 141h-183zM442 265h198
l-20 141h-108zM709 265h101l64 141h-185zM277 95l53 106h-62zM734 95l47 106h-62z" />
    <glyph glyph-name="uni20AA" unicode="&#x20aa;" horiz-adv-x="677" 
d="M303 66h148q59 0 91.5 27.5t42.5 88.5l59 330h69l-59 -336q-14 -83 -62 -129.5t-128 -46.5h-243l64 364h70zM203 446l-78 -446h-71l91 512h220q92 0 129 -46.5t22 -129.5l-34 -188h-69l32 182q11 61 -11.5 88.5t-81.5 27.5h-149z" />
    <glyph glyph-name="dong" unicode="&#x20ab;" horiz-adv-x="558" 
d="M369 649h117l12 68h75l-12 -68h86l-11 -59h-85l-91 -518h-75l11 63q-28 -34 -65 -53.5t-78 -19.5q-76 0 -119.5 48.5t-43.5 133.5q0 77 30 139.5t80.5 99.5t113.5 37q48 0 82.5 -22.5t51.5 -64.5l28 157h-118zM168 244q0 -55 27 -83.5t75 -28.5q53 0 92 35t56 92l10 57
q1 11 1 23q0 54 -26.5 83t-76.5 29q-45 0 -81 -27t-56.5 -74t-20.5 -106zM59 3h454l-11 -63h-454z" />
    <glyph glyph-name="Euro" unicode="&#x20ac;" horiz-adv-x="698" 
d="M137 273q0 65 16 125h-78l10 56h86q27 66 71.5 116t103 77.5t125.5 27.5q77 0 135 -28.5t90.5 -81.5t32.5 -124h-77q0 77 -49.5 120t-136.5 43q-68 0 -123 -41t-87 -109h247l-10 -56h-259q-18 -61 -18 -128h255l-10 -56h-240q13 -73 61.5 -111.5t129.5 -38.5
q49 0 91.5 19.5t72.5 54.5t42 79h80q-28 -103 -106.5 -164t-188.5 -61q-108 0 -177 59t-84 163h-99l10 56h84v3z" />
    <glyph glyph-name="uni20AD" unicode="&#x20ad;" horiz-adv-x="554" 
d="M65 368h76l52 298h76l-52 -296l317 296h105l-324 -298h199l-11 -64h-207l213 -304h-90l-214 303l-54 -303h-75l54 304h-76z" />
    <glyph glyph-name="uni20AE" unicode="&#x20ae;" horiz-adv-x="542" 
d="M514 312l-12 -66l-157 -43l-36 -203h-75l32 181l-149 -41l11 66l150 41l16 90l-150 -41l12 66l149 41l34 191h-200l13 72h474l-12 -72h-200l-30 -169l158 43l-12 -66l-158 -43l-16 -90z" />
    <glyph glyph-name="uni20AF" unicode="&#x20af;" horiz-adv-x="1201" 
d="M47 69h79l179 506q-68 -15 -125 -38l12 72q29 14 65.5 25.5t75.5 18.5l22 64h75l-18 -53q19 2 37 2q121 0 189.5 -64.5t68.5 -178.5q0 -87 -32.5 -163.5t-89.5 -135t-132 -91.5t-161 -33h-258zM448 593q-29 0 -63 -4l-184 -520h71q76 0 141 27t113.5 75t75.5 113.5
t27 142.5q0 80 -47 123t-134 43zM1216 348q0 -67 -26 -130.5t-70 -114.5t-98.5 -81t-112.5 -30q-69 0 -111 27t-53 78l-93 -264h-75l150 430q27 79 73.5 137.5t105.5 90t125 31.5q87 0 136 -45.5t49 -128.5zM892 61q46 0 90 24.5t79 65t56 92t21 105.5q0 49 -29 77t-80 28
q-46 0 -89.5 -24.5t-78.5 -65t-55.5 -92t-20.5 -105.5q0 -48 28.5 -76.5t78.5 -28.5z" />
    <glyph glyph-name="uni20B0" unicode="&#x20b0;" horiz-adv-x="539" 
d="M587 550q0 -42 -16 -86.5t-54 -103.5l-57 -88q31 -56 45 -97.5t14 -82.5q0 -115 -64.5 -181.5t-180.5 -66.5v68q81 0 128.5 45.5t47.5 121.5q0 63 -34 125l-135 -209h-65l-32 173l-85 -168h-69l138 253h55l35 -182l123 192q-28 48 -44 83t-22 66t-6 66q0 57 20 102t55 71
t79 26q124 0 124 -127zM455 380q34 54 48 93.5t14 75.5q0 61 -57 61q-36 0 -58.5 -39t-22.5 -101q0 -70 44 -140z" />
    <glyph glyph-name="uni20B1" unicode="&#x20b1;" horiz-adv-x="642" 
d="M74 390h68l14 80h-68l9 55h69l25 141h254q81 0 133 -37.5t67 -103.5h85l-10 -55h-70q-1 -42 -12 -80h68l-10 -54h-80q-33 -61 -91.5 -97t-130.5 -36h-212l-36 -203h-72l59 336h-69zM438 600h-186l-14 -75h329q-26 75 -129 75zM215 390h345q15 39 14 80h-345zM193 269h187
q47 0 85 17.5t64 49.5h-324z" />
    <glyph glyph-name="uni20B2" unicode="&#x20b2;" horiz-adv-x="669" 
d="M97 272q0 87 24.5 160.5t68 128t103 84.5t130.5 30q52 0 96 -13l55 115h58l-65 -134q58 -30 90.5 -85t32.5 -129h-78q0 102 -76 148l-110 -228h252l-63 -349h-54l19 152q-40 -76 -100 -118t-136 -42q-44 0 -82 14l-42 -86h-56l52 108q-55 34 -87 97t-32 147zM176 269
q0 -119 73 -172l239 499q-32 9 -69 9q-71 0 -126 -43.5t-86 -119t-31 -173.5zM358 63q78 0 137.5 58.5t82.5 160.5h-184l-100 -209q29 -9 64 -10z" />
    <glyph glyph-name="uni20B3" unicode="&#x20b3;" horiz-adv-x="641" 
d="M84 239h79l60 110h-120l11 59h141l141 258h85l50 -258h135l-11 -59h-113l21 -110h73l-11 -59h-51l35 -180h-76l-33 180h-284l-95 -180h-88l98 180h-57zM427 579l-90 -171h121zM248 239h241l-20 110h-164z" />
    <glyph glyph-name="uni20B4" unicode="&#x20b4;" horiz-adv-x="596" 
d="M57 291h81q33 27 81 44t107 24l67 10q21 2 38 7h-360l9 54h453q25 29 25 72q0 48 -38.5 76t-106.5 28q-148 0 -191 -118h-77q24 87 95 137t172 50q105 0 164 -44.5t59 -124.5q0 -42 -17 -76h49l-9 -54h-84q-32 -26 -77.5 -42t-103.5 -22l-68 -9q-31 -4 -57 -12h375
l-10 -54h-454q-27 -32 -27 -76q0 -47 38.5 -73.5t104.5 -26.5q166 0 210 118h78q-24 -87 -100 -137t-184 -50q-103 0 -163.5 45t-60.5 122q0 43 18 78h-46z" />
    <glyph glyph-name="uni20B5" unicode="&#x20b5;" horiz-adv-x="659" 
d="M97 273q0 85 25 157.5t70 127t104.5 85.5t129.5 32l17 95h53l-17 -98q95 -13 152.5 -74t57.5 -157h-77q0 67 -38.5 109t-107.5 52l-94 -538v0q49 0 91.5 19.5t72.5 54.5t42 79h80q-28 -103 -106.5 -164t-188.5 -61h-4l-21 -117h-53l21 122q-98 16 -153.5 88.5
t-55.5 187.5zM176 269q0 -84 36.5 -135.5t106.5 -65.5l94 536q-67 -4 -121 -49t-85 -119.5t-31 -166.5z" />
    <glyph glyph-name="uni20B6" unicode="&#x20b6;" horiz-adv-x="581" 
d="M124 512h101l24 133h76l-24 -133h167l24 133h75l-24 -133h95l-12 -66h-94l-54 -305q-8 -44 5 -58.5t36 -14.5h41l-12 -68h-35q-36 0 -65 13t-42.5 41.5t-4.5 76.5l56 315h-167l-79 -446h-76l79 446h-101z" />
    <glyph glyph-name="uni20B7" unicode="&#x20b7;" horiz-adv-x="638" 
d="M433 300l-82 10q-177 23 -177 150q0 62 33.5 111t91.5 76.5t132 27.5q234 0 234 -205h-77q0 71 -37.5 103.5t-118.5 32.5q-51 0 -91.5 -18.5t-64 -50t-23.5 -71.5q0 -69 118 -86l80 -10q179 -27 179 -164q0 -72 -45.5 -124.5t-123.5 -75.5l-15 -87h-51l14 77
q-27 -4 -56 -4q-15 0 -29 1l-13 -74h-50l14 78q-45 5 -80 17l-17 -95h-51l21 116q-75 44 -75 123q0 36 22.5 60t53.5 24q54 0 67 -46q13 21 31.5 33.5t37.5 12.5q50 0 64 -46q14 21 32.5 33.5t38.5 12.5q39 0 56 -28t9 -76l-11 -61q39 20 61 51t22 70q0 85 -124 102z
M164 127q6 34 2 50t-20 16q-10 0 -16 -10t-6 -24q0 -45 34 -70zM432 127q11 66 -27 66q-19 0 -35.5 -17.5t-20.5 -43.5v0l-15 -81h15q37 0 71 7zM297 127q12 66 -27 66q-19 0 -34.5 -17.5t-20.5 -43.5v0l-11 -65q33 -10 80 -14z" />
    <glyph glyph-name="uni20B8" unicode="&#x20b8;" horiz-adv-x="542" 
d="M140 597l12 69h474l-12 -69h-474zM595 488l-13 -72h-200l-73 -416h-75l73 416h-199l12 72h475z" />
    <glyph glyph-name="uni20B9" unicode="&#x20b9;" horiz-adv-x="505" 
d="M173 271h-82l11 64h118q58 0 98.5 27.5t56.5 74.5h-254l9 54h255v4q0 50 -32 77.5t-90 27.5h-114l11 66h417l-11 -66h-154q50 -42 50 -109h85l-9 -54h-83q-15 -52 -56 -89t-99 -50q89 -23 89 -133v-165h-75v162q0 57 -33.5 83t-107.5 26z" />
    <glyph glyph-name="uni20BA" unicode="&#x20ba;" horiz-adv-x="625" 
d="M261 71q119 0 193.5 68t108.5 199h77q-38 -162 -132 -250t-234 -88h-123l44 247l-136 -37l11 66l136 37l16 90l-136 -37l12 66l136 37l35 197h73l-31 -175l173 47l-12 -66l-172 -47l-16 -90l172 47l-12 -66l-172 -47l-35 -198h24z" />
    <glyph glyph-name="uni20BB" unicode="&#x20bb;" horiz-adv-x="696" 
d="M577 29q-51 -19 -90 -27.5t-77 -8.5q-84 0 -129.5 45t-36.5 118q-69 -19 -160 -19l8 61q91 0 162 21l39 220h-21q-68 0 -105.5 28.5t-37.5 81.5t37 91t94 38q66 0 97.5 -40.5t18.5 -108.5l-4 -24h196q76 0 117.5 -36.5t41.5 -103.5q0 -42 -16.5 -77.5t-43.5 -57
t-59 -21.5q-59 0 -77 48q-29 -48 -71 -48q-51 0 -64 45q-31 -42 -80 -69l-1 -4q-10 -59 16.5 -91t85.5 -32q35 0 78.5 10t85.5 28zM306 503l5 26q7 40 -8 64t-47 24q-25 0 -42 -18.5t-17 -44.5q0 -51 85 -51h24zM599 264q26 0 44.5 30t18.5 69q0 37 -24 56.5t-68 19.5h-210
l-33 -189q54 32 62 77h44q-6 -28 2.5 -46.5t27.5 -18.5q21 0 37 18.5t21 46.5h44q-11 -63 34 -63z" />
    <glyph glyph-name="uni20BC" unicode="&#x20bc;" horiz-adv-x="669" 
d="M621 0h-74l44 246q14 84 -23 134t-120 59l-77 -439h-73l78 439q-85 -9 -140 -59t-69 -134l-44 -246h-74l44 249q13 76 54 134t103.5 92t138.5 38l27 153h72l-27 -155q74 -9 124.5 -44.5t71 -92.5t7.5 -129z" />
    <glyph glyph-name="uni20BD" unicode="&#x20bd;" horiz-adv-x="622" 
d="M50 196h94l16 93h-94l12 68h94l55 309h261q86 0 136 -45t50 -122q0 -60 -29.5 -107.5t-80.5 -75t-115 -27.5h-213l-16 -93h214l-11 -64h-215l-23 -132h-76l24 132h-95zM477 599h-186l-43 -242h187q72 0 116 40t44 106q0 46 -30.5 71t-87.5 25z" />
    <glyph glyph-name="uni20BE" unicode="&#x20be;" horiz-adv-x="659" 
d="M47 69h151q-47 35 -73 92.5t-26 132.5q0 90 32.5 166.5t89.5 130t133 74.5l18 103h57l-16 -93q13 1 26 1q32 0 60 -5l18 97h57l-20 -113q68 -29 106.5 -92.5t38.5 -153.5h-74q0 128 -84 175l-31 -175h-57l35 194q-23 5 -49 4q-19 1 -39 -3l-34 -195h-57l31 177
q-74 -34 -120 -114t-46 -185t63.5 -161.5t180.5 -56.5h213l-12 -69h-584z" />
    <glyph glyph-name="uni20BF" unicode="&#x20bf;" horiz-adv-x="603" 
d="M294 768h66l-18 -102h81l18 102h65l-18 -103q66 -6 103.5 -45t37.5 -102q0 -49 -30 -99.5t-91 -75.5q45 -17 70 -54.5t25 -90.5q0 -49 -25 -94.5t-71.5 -74.5t-111.5 -29h-24l-22 -123h-65l22 123h-82l-21 -123h-66l22 123h-105l118 666h104zM457 597h-222l-39 -222h222
q50 0 78.5 24t40 57t11.5 60q0 38 -23.5 59.5t-67.5 21.5zM410 306h-226l-42 -238h242q52 0 83 21.5t44.5 54.5t13.5 65q0 46 -30 71.5t-85 25.5z" />
    <glyph glyph-name="arrowleft" unicode="&#x2190;" horiz-adv-x="798" 
d="M108 346l199 199l43 -44l-122 -121h589v-68h-589l122 -122l-43 -43z" />
    <glyph glyph-name="arrowup" unicode="&#x2191;" horiz-adv-x="486" 
d="M307 701l197 -200l-42 -42l-122 121l1 -590h-69v590l-121 -121l-43 42z" />
    <glyph glyph-name="arrowright" unicode="&#x2192;" horiz-adv-x="798" 
d="M817 345l-198 -198l-44 43l122 122l-589 -1v69h588l-121 121l44 44z" />
    <glyph glyph-name="arrowdown" unicode="&#x2193;" horiz-adv-x="486" 
d="M306 -10l-198 200l43 43l121 -122l-1 590h69v-589l122 121l42 -43z" />
    <glyph glyph-name="arrowboth" unicode="&#x2194;" horiz-adv-x="798" 
d="M108 346l199 199l43 -44l-122 -121h468l-121 121l44 44l198 -200l-198 -198l-44 43l123 122h-470l122 -122l-43 -43z" />
    <glyph glyph-name="arrowupdn" unicode="&#x2195;" horiz-adv-x="486" 
d="M306 -10l-198 200l43 43l121 -122v469l-121 -121l-43 42l199 200l197 -200l-42 -42l-122 121v-468l122 121l42 -43z" />
    <glyph glyph-name="uni2196" unicode="&#x2196;" horiz-adv-x="614" 
d="M108 608h280v-61h-171l417 -416l-49 -49l-416 417v-171h-61v280z" />
    <glyph glyph-name="uni2197" unicode="&#x2197;" horiz-adv-x="614" 
d="M634 608v-280h-62v171l-416 -417l-48 48l416 417h-172v61h282z" />
    <glyph glyph-name="uni2198" unicode="&#x2198;" horiz-adv-x="614" 
d="M634 82h-281v62h171l-416 415l47 49l418 -417v172h61v-281z" />
    <glyph glyph-name="uni2199" unicode="&#x2199;" horiz-adv-x="614" 
d="M108 82v280h61v-171l416 417l49 -48l-417 -417h171v-61h-280z" />
    <glyph glyph-name="uni219A" unicode="&#x219a;" horiz-adv-x="798" 
d="M108 346l199 199l43 -44l-122 -121h305l72 217h65l-72 -217l219 1v-69h-241l-78 -237h-65l78 237h-283l122 -122l-43 -43z" />
    <glyph glyph-name="uni219B" unicode="&#x219b;" horiz-adv-x="798" 
d="M428 597h66l-72 -217h274l-121 121l44 44l198 -200l-198 -198l-44 43l122 122l-297 -1l-78 -236h-66l78 236h-226v69h248z" />
    <glyph glyph-name="uni219C" unicode="&#x219c;" horiz-adv-x="839" 
d="M224 491l251 -116l-26 -55l-160 75q17 -105 41.5 -152t76.5 -47q40 0 69.5 23t59.5 50q21 19 43.5 37.5t51 31t66.5 12.5q74 0 117 -56.5t43 -153.5h-58q0 67 -26.5 108t-69.5 41q-42 0 -73.5 -25t-66.5 -53q-21 -17 -42.5 -34.5t-48.5 -29t-63 -11.5q-76 0 -115 55.5
t-61 174.5l-70 -151l-55 26z" />
    <glyph glyph-name="uni219D" unicode="&#x219d;" horiz-adv-x="839" 
d="M268 350q37 0 65.5 -12.5t51.5 -31t44 -37.5q30 -27 59 -50t69 -23q52 0 76 47t42 152l-160 -75l-25 55l249 116l118 -250l-55 -26l-71 152q-22 -119 -61 -175t-115 -56q-36 0 -63 11.5t-48.5 29t-42.5 34.5q-35 28 -66 53t-73 25q-43 0 -69.5 -41t-26.5 -108h-58
q0 97 43 153.5t117 56.5z" />
    <glyph glyph-name="uni219E" unicode="&#x219e;" horiz-adv-x="798" 
d="M108 346l199 199l43 -44l-122 -121h96l165 165l44 -44l-122 -121l406 1v-69h-407l123 -122l-44 -43l-165 165h-96l122 -122l-43 -43z" />
    <glyph glyph-name="uni219F" unicode="&#x219f;" horiz-adv-x="486" 
d="M307 700l197 -199l-42 -43l-122 122v-97l164 -164l-42 -44l-122 122l1 -407h-69v407l-121 -122l-43 44l164 164v96l-121 -121l-43 43z" />
    <glyph glyph-name="uni21A0" unicode="&#x21a0;" horiz-adv-x="798" 
d="M817 345l-198 -198l-44 43l122 122h-95l-166 -165l-43 43l121 122l-406 -1v69h406l-121 121l43 44l164 -165h96l-121 121l44 44z" />
    <glyph glyph-name="uni21A1" unicode="&#x21a1;" horiz-adv-x="486" 
d="M306 -10l-198 199l43 43l121 -122v97l-164 165l43 43l121 -121l-1 406h69v-406l122 121l42 -43l-164 -165v-96l122 121l42 -43z" />
    <glyph glyph-name="uni21A2" unicode="&#x21a2;" horiz-adv-x="798" 
d="M108 346l199 199l43 -44l-122 -121h382l164 165l43 -44l-155 -155l155 -156l-43 -43l-165 165h-381l122 -122l-43 -43z" />
    <glyph glyph-name="uni21A3" unicode="&#x21a3;" horiz-adv-x="798" 
d="M817 345l-198 -198l-44 43l122 122l-382 -1l-164 -164l-43 43l155 155l-155 156l43 44l165 -165h380l-121 121l44 44z" />
    <glyph glyph-name="uni21A4" unicode="&#x21a4;" horiz-adv-x="798" 
d="M108 346l199 199l43 -44l-122 -121h525v165h64v-398h-64v165h-525l122 -122l-43 -43z" />
    <glyph glyph-name="uni21A5" unicode="&#x21a5;" horiz-adv-x="486" 
d="M505 55v-65h-397v65h165v525l-122 -122l-43 43l199 199l198 -199l-43 -43l-122 122l2 -525h163z" />
    <glyph glyph-name="uni21A6" unicode="&#x21a6;" horiz-adv-x="798" 
d="M173 147h-65v398h65v-165h523l-121 121l44 44l198 -200l-198 -198l-44 43l122 122l-524 -1v-164z" />
    <glyph glyph-name="uni21A7" unicode="&#x21a7;" horiz-adv-x="486" 
d="M306 -10l-198 199l43 43l122 -122l-2 525h-163v65h397v-65h-165v-525l122 122l43 -43z" />
    <glyph glyph-name="arrowupdnbse" unicode="&#x21a8;" horiz-adv-x="486" 
d="M307 701l197 -200l-42 -42l-122 122v-469l122 121l42 -43l-134 -135h135v-65h-397v65h134l-134 135l42 43l122 -122v469l-122 -121l-42 42z" />
    <glyph glyph-name="uni21AE" unicode="&#x21ae;" horiz-adv-x="798" 
d="M108 346l193 195l44 -43l-118 -118h216l67 217h56l-67 -217h197l-116 116l44 43l193 -194l-193 -192l-44 42l118 117h-219l-73 -237h-56l72 237h-194l117 -117l-44 -42z" />
    <glyph glyph-name="uni21B0" unicode="&#x21b0;" horiz-adv-x="469" 
d="M489 534l-179 -177l-43 42l103 103l-198 -1v-468h-64v534h262l-103 102l43 44z" />
    <glyph glyph-name="uni21B1" unicode="&#x21b1;" horiz-adv-x="469" 
d="M108 534l178 179l43 -44l-103 -102h263v-534h-65v468l-199 1l104 -103l-43 -42z" />
    <glyph glyph-name="uni21B2" unicode="&#x21b2;" horiz-adv-x="469" 
d="M108 203l178 177l43 -43l-104 -102h199v469h65v-535h-262l102 -101l-43 -44z" />
    <glyph glyph-name="uni21B3" unicode="&#x21b3;" horiz-adv-x="469" 
d="M489 203l-179 -179l-43 44l102 101h-261v535h64v-469h199l-104 102l43 43z" />
    <glyph glyph-name="uni21B4" unicode="&#x21b4;" horiz-adv-x="788" 
d="M608 63l-197 199l43 43l123 -125l-1 307h-468v64h534v-369l122 123l44 -43z" />
    <glyph glyph-name="carriagereturn" unicode="&#x21b5;" horiz-adv-x="577" 
d="M108 203l199 198l43 -44l-125 -123l306 1v469h65v-535h-369l123 -122l-43 -44z" />
    <glyph glyph-name="uni21B6" unicode="&#x21b6;" horiz-adv-x="887" 
d="M306 42l-198 199l43 44l122 -125v99q0 94 39 165t109 111t163 40q67 0 125.5 -24.5t103 -68.5t69 -102t24.5 -125h-67q0 70 -35 127.5t-93 91.5t-129 34q-73 0 -128 -31t-85.5 -87.5t-30.5 -130.5v-99l124 125l42 -44z" />
    <glyph glyph-name="uni21B7" unicode="&#x21b7;" horiz-adv-x="887" 
d="M176 255h-68q0 67 24.5 125t69 102t103 68.5t126.5 24.5q92 0 162 -40t109 -111t39 -165l-1 -100l123 126l43 -44l-197 -199l-200 199l44 44l123 -125v99q0 74 -30.5 130.5t-85 87.5t-127.5 31q-71 0 -129.5 -34t-93 -91.5t-34.5 -127.5z" />
    </font>
</defs>
</svg>
