<svg width="24" height="24" viewBox="0 0 24 24" fill="none" xmlns="http://www.w3.org/2000/svg">
<mask id="mask0_493_1386" style="mask-type:luminance" maskUnits="userSpaceOnUse" x="0" y="0" width="24" height="24">
<path d="M24 24L2.09815e-06 24L0 2.09815e-06L24 0L24 24Z" fill="white"/>
</mask>
<g mask="url(#mask0_493_1386)">
<path d="M4.57644 19.4252C5.55147 20.4003 6.70903 21.1739 7.98302 21.7016C9.257 22.2294 10.6225 22.501 12.0014 22.501C13.3804 22.501 14.7459 22.2294 16.0199 21.7016C17.2939 21.1739 18.4514 20.4003 19.4264 19.4252C19.5661 19.2847 19.6445 19.0946 19.6445 18.8965C19.6445 18.6983 19.5661 18.5082 19.4264 18.3677C19.2859 18.228 19.0958 18.1496 18.8977 18.1496C18.6995 18.1496 18.5095 18.228 18.3689 18.3677C17.109 19.6233 15.5053 20.4773 13.7604 20.8221C12.0154 21.1668 10.2074 20.9867 8.56467 20.3046C6.92195 19.6225 5.51819 18.469 4.53064 16.9896C3.54309 15.5102 3.01603 13.7714 3.01603 11.9927C3.01603 10.214 3.54309 8.4752 4.53064 6.99584C5.51819 5.51647 6.92195 4.3629 8.56467 3.6808C10.2074 2.99869 12.0154 2.81864 13.7604 3.16337C15.5053 3.50811 17.109 4.36217 18.3689 5.61772C18.5095 5.75741 18.6995 5.83581 18.8977 5.83581C19.0958 5.83581 19.2859 5.75741 19.4264 5.61772C19.5661 5.4772 19.6445 5.28711 19.6445 5.08897C19.6445 4.89083 19.5661 4.70074 19.4264 4.56022C17.4552 2.59099 14.7825 1.48547 11.9961 1.48688C10.6165 1.48758 9.25049 1.76001 7.97613 2.28862C6.70177 2.81723 5.544 3.59167 4.56894 4.56772C3.59387 5.54377 2.8206 6.70232 2.29328 7.97721C1.76595 9.2521 1.4949 10.6184 1.4956 11.998C1.4963 13.3777 1.76873 14.7437 2.29734 16.018C2.82595 17.2924 3.60039 18.4502 4.57644 19.4252Z" fill="white"/>
<path d="M12.1575 8.78236C12.2278 8.71264 12.2836 8.62969 12.3217 8.5383C12.3597 8.4469 12.3794 8.34887 12.3794 8.24986C12.3794 8.15085 12.3597 8.05282 12.3217 7.96143C12.2836 7.87004 12.2278 7.78709 12.1575 7.71736C12.0878 7.64707 12.0048 7.59127 11.9134 7.55319C11.822 7.51512 11.724 7.49551 11.625 7.49551C11.526 7.49551 11.428 7.51512 11.3366 7.55319C11.2452 7.59127 11.1622 7.64707 11.0925 7.71736L7.3425 11.4674C7.27221 11.5371 7.21641 11.62 7.17833 11.7114C7.14026 11.8028 7.12065 11.9009 7.12065 11.9999C7.12065 12.0989 7.14026 12.1969 7.17833 12.2883C7.21641 12.3797 7.27221 12.4626 7.3425 12.5324L11.0925 16.2824C11.2337 16.4236 11.4253 16.5029 11.625 16.5029C11.8247 16.5029 12.0163 16.4236 12.1575 16.2824C12.2987 16.1411 12.3781 15.9496 12.3781 15.7499C12.3781 15.5501 12.2987 15.3586 12.1575 15.2174L9.6825 12.7499L20.25 12.7499C20.4489 12.7499 20.6397 12.6708 20.7803 12.5302C20.921 12.3895 21 12.1988 21 11.9999C21 11.8009 20.921 11.6102 20.7803 11.4695C20.6397 11.3289 20.4489 11.2499 20.25 11.2499L9.6825 11.2499L12.1575 8.78236Z" fill="white"/>
</g>
</svg>
