<svg width="20" height="20" viewBox="0 0 20 20" fill="none" xmlns="http://www.w3.org/2000/svg">
<g clip-path="url(#clip0_493_266)">
<mask id="mask0_493_266" style="mask-type:luminance" maskUnits="userSpaceOnUse" x="0" y="0" width="20" height="20">
<path d="M0 0H20V20H0V0Z" fill="white"/>
</mask>
<g mask="url(#mask0_493_266)">
<path d="M16.1876 3.81264C15.3751 3.00004 14.4104 2.35544 13.3488 1.91565C12.2871 1.47587 11.1492 1.24951 10.0001 1.24951C8.85096 1.24951 7.71308 1.47587 6.65142 1.91565C5.58976 2.35544 4.62513 3.00004 3.8126 3.81264C3.6962 3.92974 3.63086 4.08815 3.63086 4.25327C3.63086 4.41838 3.6962 4.57679 3.8126 4.69389C3.92971 4.8103 4.08811 4.87564 4.25323 4.87564C4.41835 4.87564 4.57675 4.8103 4.69385 4.69389C5.74378 3.6476 7.0802 2.93588 8.53434 2.6486C9.98849 2.36132 11.4952 2.51137 12.8641 3.07979C14.233 3.64821 15.4028 4.60952 16.2258 5.84232C17.0487 7.07513 17.4879 8.52414 17.4879 10.0064C17.4879 11.4886 17.0487 12.9377 16.2258 14.1705C15.4028 15.4033 14.233 16.3646 12.8641 16.933C11.4952 17.5014 9.98849 17.6515 8.53434 17.3642C7.0802 17.0769 5.74378 16.3652 4.69385 15.3189C4.57675 15.2025 4.41835 15.1371 4.25323 15.1371C4.08811 15.1371 3.92971 15.2025 3.8126 15.3189C3.6962 15.436 3.63086 15.5944 3.63086 15.7595C3.63086 15.9246 3.6962 16.083 3.8126 16.2001C5.45529 17.8412 7.68259 18.7624 10.0045 18.7613C11.1542 18.7607 12.2926 18.5337 13.3545 18.0931C14.4165 17.6526 15.3813 17.0073 16.1939 16.1939C17.0064 15.3805 17.6508 14.4151 18.0902 13.3527C18.5297 12.2902 18.7556 11.1517 18.755 10.002C18.7544 8.85227 18.5274 7.71393 18.0869 6.65197C17.6463 5.59 17.001 4.6252 16.1876 3.81264Z" fill="#161616"/>
<path d="M9.86875 12.6814C9.81017 12.7395 9.76367 12.8086 9.73194 12.8848C9.70021 12.9609 9.68388 13.0426 9.68388 13.1251C9.68388 13.2076 9.70021 13.2893 9.73194 13.3655C9.76367 13.4416 9.81017 13.5108 9.86875 13.5689C9.92685 13.6274 9.99598 13.6739 10.0721 13.7057C10.1483 13.7374 10.23 13.7537 10.3125 13.7537C10.395 13.7537 10.4767 13.7374 10.5529 13.7057C10.629 13.6739 10.6981 13.6274 10.7562 13.5689L13.8812 10.4439C13.9398 10.3858 13.9863 10.3166 14.0181 10.2405C14.0498 10.1643 14.0661 10.0826 14.0661 10.0001C14.0661 9.91761 14.0498 9.83592 14.0181 9.75976C13.9863 9.68359 13.9398 9.61447 13.8812 9.55637L10.7562 6.43137C10.6386 6.31368 10.4789 6.24756 10.3125 6.24756C10.1461 6.24756 9.98644 6.31368 9.86875 6.43137C9.75106 6.54906 9.68494 6.70868 9.68494 6.87512C9.68494 7.04155 9.75106 7.20118 9.86875 7.31887L11.9312 9.37512H3.125C2.95924 9.37512 2.80027 9.44096 2.68306 9.55817C2.56585 9.67538 2.5 9.83436 2.5 10.0001C2.5 10.1659 2.56585 10.3248 2.68306 10.4421C2.80027 10.5593 2.95924 10.6251 3.125 10.6251H11.9312L9.86875 12.6814Z" fill="#161616"/>
</g>
</g>
<defs>
<clipPath id="clip0_493_266">
<rect width="20" height="20" fill="white"/>
</clipPath>
</defs>
</svg>
