<svg width="170" height="37" viewBox="0 0 170 37" fill="none" xmlns="http://www.w3.org/2000/svg">
<g clip-path="url(#clip0_493_140)">
<path fill-rule="evenodd" clip-rule="evenodd" d="M21.5073 10.8089C20.1233 9.79251 18.4962 9.25 16.8317 9.25V0C20.1607 0 23.4149 1.08501 26.1829 3.11781C28.9508 5.15061 31.1081 8.03992 32.3821 11.4203C33.656 14.8007 33.9894 18.5205 33.3399 22.1092C32.6905 25.6978 31.0874 28.9942 28.7335 31.5814C26.3795 34.1688 23.3804 35.9307 20.1154 36.6445C16.8504 37.3583 13.466 36.992 10.3905 35.5918C7.31488 34.1915 4.68613 31.8204 2.83665 28.778C0.987161 25.7357 0 22.1589 0 18.5H8.41584C8.41584 20.3295 8.90943 22.1179 9.83416 23.639C10.7589 25.1602 12.0733 26.3458 13.6111 27.0459C15.1489 27.746 16.841 27.9292 18.4735 27.5722C20.106 27.2154 21.6056 26.3344 22.7826 25.0408C23.9596 23.7471 24.7611 22.0989 25.0858 20.3046C25.4105 18.5103 25.2439 16.6504 24.6069 14.9602C23.9699 13.27 22.8913 11.8253 21.5073 10.8089Z" fill="#CFF85E"/>
<path fill-rule="evenodd" clip-rule="evenodd" d="M8.41584 4.88856e-06C8.41584 1.21473 8.19816 2.41756 7.77522 3.53983C7.35228 4.66209 6.73238 5.6818 5.9509 6.54074C5.16942 7.39969 4.24166 8.08103 3.2206 8.54589C2.19954 9.01074 1.10518 9.25 3.67865e-07 9.25L0 18.5C2.21037 18.5 4.39909 18.0215 6.44121 17.0918C8.48333 16.1621 10.3389 14.7994 11.9018 13.0814C13.4648 11.3636 14.7046 9.32419 15.5505 7.07965C16.3963 4.83512 16.8317 2.42945 16.8317 0L8.41584 4.88856e-06Z" fill="#CFF85E"/>
<path d="M105.72 13.3678H101.637V27.6242H105.72V13.3678Z" fill="white"/>
<path d="M102.091 10.7013C102.518 11.1707 103.051 11.4054 103.692 11.4054C104.332 11.4054 104.857 11.1707 105.266 10.7013C105.676 10.2124 105.881 9.62555 105.881 8.941C105.881 8.23689 105.676 7.65009 105.266 7.1807C104.857 6.71126 104.332 6.47656 103.692 6.47656C103.051 6.47656 102.518 6.71126 102.091 7.1807C101.681 7.65009 101.477 8.23689 101.477 8.941C101.477 9.62555 101.681 10.2124 102.091 10.7013Z" fill="white"/>
<path d="M43.0527 27.6247V6.91473H47.2429V23.5766H55.5965V27.6247H43.0527Z" fill="white"/>
<path fill-rule="evenodd" clip-rule="evenodd" d="M63.1421 27.9486C61.8077 27.9486 60.5979 27.626 59.5125 26.9806C58.4449 26.3157 57.5998 25.4162 56.977 24.2818C56.3543 23.1476 56.043 21.8765 56.043 20.4684C56.043 19.0604 56.3543 17.7991 56.977 16.6843C57.5998 15.5696 58.4449 14.6896 59.5125 14.0443C60.58 13.3793 61.79 13.0469 63.1421 13.0469C64.4944 13.0469 65.7043 13.3696 66.7718 14.0149C67.8394 14.6603 68.6846 15.5501 69.3073 16.6843C69.93 17.7991 70.2414 19.0604 70.2414 20.4684C70.2414 21.8765 69.93 23.1476 69.3073 24.2818C68.6846 25.4162 67.8394 26.3157 66.7718 26.9806C65.7043 27.626 64.4944 27.9486 63.1421 27.9486ZM63.1421 23.8712C63.7293 23.8712 64.2453 23.7343 64.6902 23.4605C65.1349 23.1672 65.473 22.7663 65.7043 22.2578C65.9534 21.7298 66.0779 21.1333 66.0779 20.4684C66.0779 19.8035 65.9534 19.2266 65.7043 18.7378C65.4552 18.2293 65.1083 17.8382 64.6634 17.5644C64.2364 17.271 63.7293 17.1244 63.1421 17.1244C62.5728 17.1244 62.0658 17.271 61.6209 17.5644C61.1761 17.8382 60.8291 18.2293 60.58 18.7378C60.3309 19.2462 60.2065 19.8329 60.2065 20.4978C60.2065 21.1431 60.3309 21.7298 60.58 22.2578C60.8291 22.7663 61.1761 23.1672 61.6209 23.4605C62.0658 23.7343 62.5728 23.8712 63.1421 23.8712Z" fill="white"/>
<path fill-rule="evenodd" clip-rule="evenodd" d="M73.4755 33.2014C74.5608 33.7489 75.8152 34.0227 77.2387 34.0227C78.6264 34.0227 79.8631 33.7196 80.9484 33.1133C82.0338 32.5071 82.8877 31.6663 83.5105 30.5907C84.1332 29.5151 84.445 28.244 84.445 26.7772V13.3715H80.4412V14.3294C80.1435 14.0539 79.8053 13.8227 79.4271 13.6355C78.7331 13.264 77.9414 13.0781 77.0518 13.0781C75.8597 13.0781 74.801 13.3911 73.8759 14.0168C72.9505 14.6231 72.2211 15.464 71.6873 16.5396C71.1535 17.5956 70.8867 18.7885 70.8867 20.1184C70.8867 21.4287 71.1535 22.6215 71.6873 23.6971C72.2211 24.7727 72.9505 25.6234 73.8759 26.2492C74.801 26.875 75.8597 27.1879 77.0518 27.1879C77.9236 27.1879 78.7154 27.0021 79.4271 26.6306C79.7718 26.4506 80.0832 26.2385 80.3612 25.9942V26.8946C80.3612 27.8919 80.0676 28.6644 79.4805 29.212C78.9111 29.7596 78.1194 30.0333 77.1052 30.0333C76.2867 30.0333 75.5839 29.8769 74.9968 29.5639C74.4274 29.2511 73.9114 28.7915 73.4488 28.1852L70.9401 30.9426C71.5628 31.9205 72.408 32.6734 73.4755 33.2014ZM79.2936 22.7878C78.8844 23.0616 78.3952 23.1985 77.8257 23.1985C77.2564 23.1985 76.7582 23.0616 76.3312 22.7878C75.9219 22.514 75.6017 22.1424 75.3704 21.673C75.1391 21.1842 75.0234 20.6659 75.0234 20.1184C75.0234 19.5317 75.1391 19.0037 75.3704 18.5343C75.6017 18.065 75.9308 17.6934 76.3579 17.4196C76.7849 17.1458 77.2742 17.0089 77.8257 17.0089C78.3952 17.0089 78.8844 17.1458 79.2936 17.4196C79.7207 17.6934 80.0409 18.065 80.2545 18.5343C80.4857 19.0037 80.6014 19.5317 80.6014 20.1184C80.6014 20.705 80.4857 21.233 80.2545 21.7024C80.0409 22.1522 79.7207 22.514 79.2936 22.7878Z" fill="white"/>
<path fill-rule="evenodd" clip-rule="evenodd" d="M93.0371 27.9486C91.7024 27.9486 90.4922 27.626 89.4074 26.9806C88.3394 26.3157 87.4944 25.4162 86.8717 24.2818C86.2489 23.1476 85.9375 21.8765 85.9375 20.4684C85.9375 19.0604 86.2489 17.7991 86.8717 16.6843C87.4944 15.5696 88.3394 14.6896 89.4074 14.0443C90.4745 13.3793 91.6847 13.0469 93.0371 13.0469C94.3887 13.0469 95.5989 13.3696 96.666 14.0149C97.734 14.6603 98.5789 15.5501 99.2017 16.6843C99.8245 17.7991 100.136 19.0604 100.136 20.4684C100.136 21.8765 99.8245 23.1476 99.2017 24.2818C98.5789 25.4162 97.734 26.3157 96.666 26.9806C95.5989 27.626 94.3887 27.9486 93.0371 27.9486ZM93.0371 23.8712C93.6237 23.8712 94.1396 23.7343 94.5848 23.4605C95.0291 23.1672 95.3675 22.7663 95.5989 22.2578C95.848 21.7298 95.9726 21.1333 95.9726 20.4684C95.9726 19.8035 95.848 19.2266 95.5989 18.7378C95.3498 18.2293 95.003 17.8382 94.5578 17.5644C94.1312 17.271 93.6237 17.1244 93.0371 17.1244C92.4674 17.1244 91.9599 17.271 91.5155 17.5644C91.0703 17.8382 90.7236 18.2293 90.4745 18.7378C90.2254 19.2462 90.1008 19.8329 90.1008 20.4978C90.1008 21.1431 90.2254 21.7298 90.4745 22.2578C90.7236 22.7663 91.0703 23.1672 91.5155 23.4605C91.9599 23.7343 92.4674 23.8712 93.0371 23.8712Z" fill="white"/>
<path fill-rule="evenodd" clip-rule="evenodd" d="M115.535 27.9212C114.664 27.9212 113.863 27.7355 113.133 27.3639C112.749 27.1684 112.403 26.9349 112.093 26.6635V33.6414H108.062V13.3715H112.146V14.3555C112.442 14.0892 112.771 13.8589 113.133 13.6649C113.863 13.2737 114.664 13.0781 115.535 13.0781C116.763 13.0781 117.848 13.4009 118.791 14.0462C119.752 14.6915 120.499 15.5716 121.033 16.6863C121.585 17.801 121.86 19.0721 121.86 20.4997C121.86 21.9273 121.585 23.1985 121.033 24.3132C120.499 25.4279 119.752 26.3078 118.791 26.9532C117.848 27.5986 116.763 27.9212 115.535 27.9212ZM114.788 23.8732C115.375 23.8732 115.883 23.7264 116.309 23.4331C116.754 23.1398 117.101 22.7388 117.35 22.2304C117.599 21.722 117.724 21.1451 117.724 20.4997C117.724 19.8348 117.599 19.2482 117.35 18.7397C117.101 18.2312 116.754 17.8401 116.309 17.5663C115.883 17.2729 115.384 17.1263 114.815 17.1263C114.246 17.1263 113.738 17.2729 113.294 17.5663C112.866 17.8401 112.529 18.2312 112.28 18.7397C112.031 19.2482 111.906 19.8348 111.906 20.4997C111.906 21.1451 112.021 21.722 112.253 22.2304C112.502 22.7388 112.849 23.1398 113.294 23.4331C113.738 23.7264 114.236 23.8732 114.788 23.8732Z" fill="white"/>
<path d="M125.856 27.6573C126.603 27.8725 127.359 27.98 128.124 27.98C129.743 27.98 131.024 27.5694 131.967 26.748C132.928 25.9267 133.408 24.8218 133.408 23.4332C133.408 22.5337 133.258 21.81 132.955 21.2625C132.653 20.6954 132.261 20.2456 131.781 19.9131C131.3 19.5807 130.793 19.3166 130.259 19.1211C129.726 18.9255 129.218 18.7593 128.738 18.6224C128.258 18.4855 127.866 18.3291 127.563 18.1531C127.261 17.977 127.11 17.7424 127.11 17.449C127.11 17.1752 127.226 16.9699 127.457 16.833C127.688 16.6766 128.035 16.5984 128.498 16.5984C128.978 16.5984 129.467 16.7059 129.965 16.921C130.481 17.1361 130.944 17.5078 131.353 18.0358L133.675 15.4544C133.088 14.633 132.323 14.0169 131.38 13.6063C130.455 13.1761 129.441 12.9609 128.338 12.9609C127.288 12.9609 126.372 13.1565 125.589 13.5476C124.806 13.9388 124.201 14.4765 123.774 15.161C123.347 15.8258 123.133 16.6179 123.133 17.5371C123.133 18.3975 123.285 19.1114 123.587 19.6785C123.889 20.226 124.281 20.6563 124.761 20.9691C125.242 21.2821 125.749 21.5265 126.283 21.7025C126.816 21.8785 127.324 22.0447 127.804 22.2012C128.284 22.3381 128.676 22.5043 128.978 22.6999C129.299 22.8759 129.459 23.1399 129.459 23.4919C129.459 23.7657 129.325 23.9807 129.058 24.1372C128.809 24.2937 128.445 24.3719 127.964 24.3719C127.27 24.3719 126.629 24.235 126.043 23.9612C125.455 23.6679 124.948 23.267 124.521 22.7585L122.199 25.3399C122.644 25.8679 123.178 26.3374 123.801 26.748C124.441 27.1391 125.126 27.4422 125.856 27.6573Z" fill="white"/>
<path d="M140.854 27.9468C139.662 27.9468 138.604 27.6828 137.679 27.1548C136.771 26.6072 136.06 25.8641 135.544 24.9254C135.027 23.9672 134.77 22.8721 134.77 21.64V13.3678H138.853V21.5813C138.853 22.0702 138.924 22.4907 139.067 22.8427C139.227 23.1947 139.458 23.4685 139.76 23.6641C140.063 23.8596 140.427 23.9574 140.854 23.9574C141.459 23.9574 141.94 23.752 142.296 23.3413C142.652 22.9111 142.829 22.3245 142.829 21.5813V13.3678H146.913V21.6107C146.913 22.8623 146.655 23.9672 146.138 24.9254C145.623 25.8641 144.911 26.6072 144.003 27.1548C143.096 27.6828 142.047 27.9468 140.854 27.9468Z" fill="white"/>
<path d="M153.025 13.3715H148.941V27.6279H153.025V19.297C153.025 18.8081 153.114 18.3974 153.292 18.065C153.488 17.7325 153.746 17.4783 154.066 17.3023C154.386 17.1067 154.751 17.0089 155.16 17.0089C155.747 17.0089 156.236 17.2143 156.628 17.625C157.037 18.0161 157.242 18.5735 157.242 19.297V27.6279H161.325V19.297C161.325 18.8081 161.415 18.3974 161.592 18.065C161.788 17.7325 162.046 17.4783 162.366 17.3023C162.686 17.1067 163.051 17.0089 163.46 17.0089C164.048 17.0089 164.537 17.2143 164.928 17.625C165.337 18.0161 165.542 18.5735 165.542 19.297V27.6279H169.626V18.7983C169.626 17.6054 169.394 16.5885 168.932 15.7476C168.486 14.8871 167.873 14.232 167.09 13.7822C166.325 13.3128 165.444 13.0781 164.448 13.0781C163.433 13.0781 162.517 13.3226 161.699 13.8116C161.167 14.123 160.703 14.525 160.304 15.0175C159.933 14.5023 159.482 14.0808 158.95 13.7528C158.238 13.3031 157.429 13.0781 156.522 13.0781C155.56 13.0781 154.698 13.3031 153.933 13.7528C153.6 13.9399 153.297 14.1641 153.025 14.4252V13.3715Z" fill="white"/>
</g>
<defs>
<clipPath id="clip0_493_140">
<rect width="170" height="37" fill="white"/>
</clipPath>
</defs>
</svg>
