<svg width="170" height="40" viewBox="0 0 170 40" fill="none" xmlns="http://www.w3.org/2000/svg">
<g clip-path="url(#clip0_493_171)">
<path d="M49.5039 28.0926H61.6706V24.5804H53.8282V11.3511H49.5039V28.0926Z" fill="white"/>
<path d="M68.8787 25.7523C67.1441 25.7523 66.2401 24.3006 66.2401 22.1231C66.2401 19.9455 67.1441 18.4704 68.8787 18.4704C70.6133 18.4704 71.5417 19.9455 71.5417 22.1231C71.5417 24.3006 70.6133 25.7523 68.8787 25.7523ZM68.9031 28.4684C72.9342 28.4684 75.5728 25.7289 75.5728 22.1231C75.5728 18.5172 72.9342 15.7777 68.9031 15.7777C64.8964 15.7777 62.209 18.5172 62.209 22.1231C62.209 25.7289 64.8964 28.4684 68.9031 28.4684Z" fill="white"/>
<path d="M82.5504 32.2342C84.4071 32.2342 86.044 31.8362 87.1434 30.8996C88.1451 30.0332 88.8047 28.722 88.8047 26.9191V16.1015H84.9935V17.3893H84.9446C84.2117 16.3825 83.0878 15.7503 81.4265 15.7503C78.3238 15.7503 76.1738 18.2323 76.1738 21.7445C76.1738 25.4205 78.788 27.4342 81.5975 27.4342C83.1123 27.4342 84.0651 26.8488 84.798 26.0527H84.8957V27.2469C84.8957 28.6986 84.1872 29.5415 82.5015 29.5415C81.1822 29.5415 80.5226 29.003 80.3027 28.3708H76.4426C76.8335 30.8762 79.1056 32.2342 82.5504 32.2342ZM82.5259 24.601C81.0356 24.601 80.0584 23.4303 80.0584 21.6274C80.0584 19.801 81.0356 18.6303 82.5259 18.6303C84.1872 18.6303 85.0668 19.9884 85.0668 21.604C85.0668 23.2898 84.2605 24.601 82.5259 24.601Z" fill="white"/>
<path d="M96.6424 25.7523C94.9077 25.7523 94.0038 24.3006 94.0038 22.1231C94.0038 19.9455 94.9077 18.4704 96.6424 18.4704C98.377 18.4704 99.3054 19.9455 99.3054 22.1231C99.3054 24.3006 98.377 25.7523 96.6424 25.7523ZM96.6668 28.4684C100.698 28.4684 103.337 25.7289 103.337 22.1231C103.337 18.5172 100.698 15.7777 96.6668 15.7777C92.6601 15.7777 89.9727 18.5172 89.9727 22.1231C89.9727 25.7289 92.6601 28.4684 96.6668 28.4684Z" fill="white"/>
<path d="M104.5 28.0926H108.482V16.1043H104.5V28.0926ZM104.5 14.4419H108.482V11.3511H104.5V14.4419Z" fill="white"/>
<path d="M110.209 32.0469H114.191V26.8488H114.24C115.022 27.8557 116.17 28.4645 117.783 28.4645C121.056 28.4645 123.231 25.9825 123.231 22.0957C123.231 18.4898 121.203 15.7503 117.88 15.7503C116.17 15.7503 114.949 16.4762 114.094 17.5532H114.02V16.1015H110.209V32.0469ZM116.757 25.5142C115.046 25.5142 114.069 24.1796 114.069 22.2362C114.069 20.2927 114.949 18.8176 116.683 18.8176C118.393 18.8176 119.2 20.1757 119.2 22.2362C119.2 24.2732 118.271 25.5142 116.757 25.5142Z" fill="white"/>
<path d="M129.714 28.4645C132.988 28.4645 135.407 27.1064 135.407 24.484C135.407 21.4166 132.817 20.8781 130.618 20.5269C129.03 20.2459 127.613 20.1288 127.613 19.2859C127.613 18.5366 128.371 18.1854 129.348 18.1854C130.447 18.1854 131.205 18.5132 131.351 19.5903H135.016C134.82 17.2254 132.915 15.7503 129.372 15.7503C126.416 15.7503 123.973 17.0615 123.973 19.5903C123.973 22.4001 126.294 22.962 128.468 23.3132C130.13 23.5942 131.644 23.7113 131.644 24.7884C131.644 25.561 130.887 25.9825 129.69 25.9825C128.371 25.9825 127.54 25.3971 127.393 24.203H123.631C123.753 26.8488 126.05 28.4645 129.714 28.4645Z" fill="white"/>
<path d="M140.818 28.4419C142.552 28.4419 143.652 27.7863 144.555 26.6156H144.629V28.0907H148.44V16.1024H144.458V22.799C144.458 24.2273 143.627 25.2107 142.259 25.2107C140.989 25.2107 140.378 24.4849 140.378 23.1736V16.1024H136.42V23.9697C136.42 26.639 137.935 28.4419 140.818 28.4419Z" fill="white"/>
<path d="M150.172 28.0898H154.154V21.3698C154.154 19.9415 154.887 18.9347 156.133 18.9347C157.33 18.9347 157.892 19.684 157.892 20.9718V28.0898H161.874V21.3698C161.874 19.9415 162.583 18.9347 163.853 18.9347C165.05 18.9347 165.612 19.684 165.612 20.9718V28.0898H169.595V20.2927C169.595 17.6001 168.178 15.7503 165.344 15.7503C163.731 15.7503 162.387 16.4059 161.41 17.8576H161.361C160.726 16.5698 159.48 15.7503 157.843 15.7503C156.035 15.7503 154.838 16.5698 154.056 17.8108H153.983V16.1015H150.172V28.0898Z" fill="white"/>
<path fill-rule="evenodd" clip-rule="evenodd" d="M8.80989 3.7996C7.35353 4.77556 6.03659 5.92947 4.89336 7.22841C9.56511 6.81273 15.5004 7.49149 22.3912 10.7936C29.7496 14.3196 35.675 14.4388 39.7988 13.6765C39.4246 12.5907 38.9535 11.5472 38.3955 10.5552C33.6749 11.0324 27.6231 10.4008 20.5703 7.02117C16.0916 4.87503 12.1438 3.99096 8.80989 3.7996ZM35.638 6.79353C31.9101 2.80168 26.4926 0.28949 20.4628 0.28949C18.692 0.28949 16.9739 0.506179 15.336 0.913373C17.5543 1.49348 19.9109 2.34216 22.3912 3.53072C27.5549 6.00512 32.013 6.80184 35.638 6.79353ZM40.6804 17.4876C35.6985 18.4304 28.819 18.2368 20.5703 14.284C12.8586 10.5886 6.72072 10.6351 2.58114 11.5168C2.36747 11.5622 2.15883 11.6101 1.95522 11.6598C1.41325 12.7895 0.980628 13.9774 0.670218 15.2109C1.00175 15.1261 1.34434 15.0454 1.69781 14.9701C6.71984 13.9005 13.8156 13.9469 22.3912 18.0564C30.103 21.7518 36.2408 21.7053 40.3804 20.8236C40.5222 20.7935 40.662 20.7622 40.7994 20.7301C40.8145 20.4224 40.822 20.1129 40.822 19.8017C40.822 19.0187 40.774 18.2465 40.6804 17.4876ZM40.1347 24.8478C35.2011 25.6744 28.522 25.3572 20.5703 21.5468C12.8586 17.8514 6.72072 17.898 2.58114 18.7796C1.66227 18.9752 0.835675 19.2136 0.106498 19.4652C0.10451 19.5771 0.103516 19.6893 0.103516 19.8017C0.103516 30.578 9.21866 39.3139 20.4628 39.3139C29.8862 39.3139 37.8143 33.1782 40.1347 24.8478Z" fill="#CFF85E"/>
</g>
<defs>
<clipPath id="clip0_493_171">
<rect width="170" height="40" fill="white"/>
</clipPath>
</defs>
</svg>
