<svg width="130" height="130" viewBox="0 0 130 130" fill="none" xmlns="http://www.w3.org/2000/svg">
<circle cx="65" cy="65" r="23.25" fill="#CFF85E" stroke="black" stroke-width="3.5"/>
<g clip-path="url(#clip0_980_2)">
<mask id="mask0_980_2" style="mask-type:luminance" maskUnits="userSpaceOnUse" x="52" y="52" width="26" height="26">
<path d="M52 52H78V78H52V52Z" fill="white"/>
</mask>
<g mask="url(#mask0_980_2)">
<path d="M73.0425 56.9571C71.9862 55.9007 70.7322 55.0627 69.3521 54.491C67.9719 53.9193 66.4927 53.625 64.9988 53.625C63.5049 53.625 62.0256 53.9193 60.6455 54.491C59.2653 55.0627 58.0113 55.9007 56.955 56.9571C56.8037 57.1093 56.7188 57.3152 56.7188 57.5299C56.7188 57.7445 56.8037 57.9505 56.955 58.1027C57.1073 58.254 57.3132 58.339 57.5278 58.339C57.7425 58.339 57.9484 58.254 58.1006 58.1027C59.4656 56.7425 61.2029 55.8173 63.0933 55.4438C64.9837 55.0704 66.9423 55.2654 68.7219 56.0044C70.5015 56.7433 72.0223 57.993 73.0921 59.5957C74.162 61.1983 74.733 63.082 74.733 65.0089C74.733 66.9359 74.162 68.8196 73.0921 70.4222C72.0223 72.0249 70.5015 73.2746 68.7219 74.0135C66.9423 74.7525 64.9837 74.9475 63.0933 74.5741C61.2029 74.2006 59.4656 73.2754 58.1006 71.9152C57.9484 71.7639 57.7425 71.6789 57.5278 71.6789C57.3132 71.6789 57.1073 71.7639 56.955 71.9152C56.8037 72.0674 56.7188 72.2734 56.7188 72.488C56.7188 72.7027 56.8037 72.9086 56.955 73.0608C59.0905 75.1942 61.986 76.3918 65.0045 76.3903C66.4991 76.3895 67.979 76.0944 69.3595 75.5217C70.7401 74.9491 71.9943 74.1101 73.0506 73.0527C74.107 71.9953 74.9447 70.7402 75.5159 69.3591C76.0872 67.9779 76.3808 66.4978 76.3801 65.0032C76.3793 63.5086 76.0842 62.0288 75.5115 60.6482C74.9389 59.2676 74.0999 58.0134 73.0425 56.9571Z" fill="black"/>
<path d="M64.8294 68.487C64.7532 68.5625 64.6928 68.6524 64.6515 68.7514C64.6103 68.8504 64.589 68.9566 64.589 69.0639C64.589 69.1711 64.6103 69.2773 64.6515 69.3763C64.6928 69.4753 64.7532 69.5652 64.8294 69.6407C64.9049 69.7169 64.9948 69.7773 65.0938 69.8186C65.1928 69.8598 65.299 69.8811 65.4062 69.8811C65.5135 69.8811 65.6197 69.8598 65.7187 69.8186C65.8177 69.7773 65.9076 69.7169 65.9831 69.6407L70.0456 65.5782C70.1218 65.5027 70.1822 65.4128 70.2235 65.3138C70.2647 65.2148 70.286 65.1086 70.286 65.0014C70.286 64.8941 70.2647 64.7879 70.2235 64.6889C70.1822 64.5899 70.1218 64.5 70.0456 64.4245L65.9831 60.362C65.8301 60.209 65.6226 60.123 65.4062 60.123C65.1899 60.123 64.9824 60.209 64.8294 60.362C64.6764 60.515 64.5904 60.7225 64.5904 60.9389C64.5904 61.1552 64.6764 61.3627 64.8294 61.5157L67.5106 64.1889H56.0625C55.847 64.1889 55.6403 64.2745 55.488 64.4268C55.3356 64.5792 55.25 64.7859 55.25 65.0014C55.25 65.2169 55.3356 65.4235 55.488 65.5759C55.6403 65.7283 55.847 65.8139 56.0625 65.8139H67.5106L64.8294 68.487Z" fill="black"/>
</g>
</g>
<path d="M130 65C130 100.899 100.899 130 65 130C29.1015 130 0 100.899 0 65C0 29.1015 29.1015 0 65 0C100.899 0 130 29.1015 130 65ZM39.7192 65C39.7192 78.9622 51.0378 90.2808 65 90.2808C78.9622 90.2808 90.2808 78.9622 90.2808 65C90.2808 51.0378 78.9622 39.7192 65 39.7192C51.0378 39.7192 39.7192 51.0378 39.7192 65Z" fill="#CFF85E"/>
<path d="M66.1012 14.1271C66.2194 13.1445 66.5129 12.3073 66.9819 11.6155C67.4508 10.9238 68.0506 10.4146 68.7813 10.0879C69.5169 9.76174 70.3416 9.65305 71.2553 9.76177C72.4951 9.90927 73.4717 10.3494 74.1852 11.0822C74.9037 11.8155 75.2585 12.8021 75.2497 14.042L73.0492 13.7802C73.0407 13.226 72.866 12.7617 72.5253 12.3872C72.1895 12.0134 71.6956 11.7877 71.0436 11.7101C70.2928 11.6208 69.6762 11.8115 69.1937 12.2824C68.7119 12.7483 68.4145 13.4505 68.3017 14.3889C68.1871 15.3421 68.3084 16.1041 68.6656 16.6749C69.0228 17.2456 69.5768 17.5757 70.3276 17.665C70.9746 17.742 71.5059 17.6358 71.9215 17.3463C72.3371 17.0569 72.6199 16.642 72.77 16.1017L74.9705 16.3635C74.8015 17.1856 74.4858 17.8532 74.0233 18.3663C73.5608 18.8794 72.9889 19.24 72.3076 19.448C71.6318 19.6516 70.8864 19.705 70.0714 19.608C69.1626 19.4999 68.3897 19.1986 67.7527 18.7042C67.1207 18.2104 66.6564 17.5721 66.3598 16.7892C66.0686 16.0021 65.9825 15.1147 66.1012 14.1271Z" fill="black"/>
<path d="M77.6912 16.9802C77.9554 16.2386 78.3364 15.6432 78.8342 15.194C79.3321 14.7448 79.9054 14.4613 80.5543 14.3435C81.2032 14.2258 81.8863 14.2934 82.6037 14.5463C83.3164 14.7975 83.8852 15.1713 84.31 15.6676C84.7396 16.1655 85.0055 16.7449 85.1078 17.4057C85.2102 18.0665 85.1292 18.7677 84.865 19.5093C84.5991 20.2555 84.2165 20.8556 83.717 21.3095C83.2175 21.7634 82.6425 22.0516 81.9919 22.174C81.3477 22.2933 80.6693 22.2274 79.9566 21.9762C79.2392 21.7233 78.6657 21.3478 78.2362 20.8499C77.8083 20.3473 77.5441 19.7633 77.4434 19.0978C77.3427 18.4324 77.4253 17.7265 77.6912 16.9802ZM82.7691 18.7704C82.9901 18.1501 83.03 17.6234 82.8887 17.1904C82.7538 16.7543 82.4519 16.4536 81.9831 16.2883C81.5095 16.1214 81.0776 16.1634 80.6874 16.4143C80.2988 16.6605 79.994 17.0938 79.773 17.7142C79.5487 18.3438 79.5078 18.8806 79.6505 19.3247C79.7947 19.764 80.1037 20.0672 80.5772 20.2341C81.0461 20.3994 81.471 20.355 81.8518 20.1007C82.239 19.8435 82.5448 19.4001 82.7691 18.7704Z" fill="black"/>
<path d="M91.9452 22.9014C92.2195 22.4477 92.3087 22.0506 92.2126 21.7102C92.1166 21.3698 91.881 21.0874 91.5058 20.863C91.1605 20.6564 90.8035 20.5988 90.4349 20.6901C90.0731 20.7796 89.7845 21.0025 89.5691 21.3587L87.3464 25.0353L85.4728 23.9145L89.3184 17.5537L91.192 18.6745L90.619 19.6222C91.0791 19.3893 91.5463 19.2791 92.0206 19.2914C92.4949 19.3038 92.9133 19.4184 93.2756 19.6351C93.9577 20.0432 94.3837 20.6012 94.5536 21.3091C94.7235 22.017 94.5559 22.7887 94.0508 23.6241L91.6435 27.6059L89.7763 26.4889L91.9452 22.9014Z" fill="black"/>
<path d="M97.4361 30.0373L96.2554 31.4354L95.5355 30.8338C94.9604 30.3532 94.6202 29.8137 94.5149 29.2152C94.4166 28.6161 94.6202 28.0172 95.1258 27.4186L97.2855 24.861L96.4628 24.1735L97.581 22.8493L98.4038 23.5368L99.6372 22.0761L101.3 23.4654L100.066 24.926L101.055 25.752L99.9366 27.0762L98.9481 26.2503L96.9804 28.5805C96.782 28.8154 96.6866 29.0168 96.6943 29.1847C96.7089 29.3521 96.7981 29.5041 96.9619 29.641L97.4361 30.0373Z" fill="black"/>
<path d="M105.448 34.3874L101.867 37.4964L100.435 35.8635L101.143 35.2486C100.7 35.3309 100.28 35.285 99.8832 35.1108C99.4898 34.9335 99.1214 34.649 98.778 34.2576C98.4574 33.8922 98.2478 33.5028 98.1491 33.0893C98.0537 32.6796 98.0652 32.2788 98.1836 31.887C98.3053 31.4989 98.5348 31.1585 98.8721 30.8656C99.959 29.922 101.154 30.1027 102.458 31.4078L103.622 32.5543C103.813 32.7496 103.988 32.7789 104.145 32.6423L104.224 32.5739C104.464 32.3657 104.588 32.1129 104.598 31.8154C104.611 31.5217 104.493 31.2332 104.245 30.9498C103.761 30.3981 103.23 30.3202 102.653 30.716L101.181 29.0384C101.601 28.7266 102.053 28.5537 102.539 28.5199C103.031 28.4865 103.521 28.5863 104.009 28.8192C104.505 29.0526 104.965 29.4116 105.39 29.8962C105.845 30.4144 106.149 30.9453 106.302 31.4887C106.459 32.0358 106.465 32.5588 106.322 33.0577C106.182 33.5602 105.891 34.0035 105.448 34.3874ZM100.438 32.4023C100.243 32.5715 100.155 32.783 100.173 33.0367C100.194 33.2942 100.314 33.5478 100.533 33.7975C100.821 34.1256 101.158 34.3062 101.544 34.3393C101.936 34.3728 102.29 34.2529 102.605 33.9796L102.818 33.7941L101.627 32.5721C101.202 32.14 100.806 32.0835 100.438 32.4023Z" fill="black"/>
<path d="M106.332 37.2282C107.016 36.8326 107.692 36.6215 108.362 36.5949C109.033 36.5725 109.654 36.7231 110.223 37.0465C110.794 37.3741 111.271 37.8652 111.654 38.5196C111.997 39.1056 112.195 39.7007 112.249 40.3048C112.303 40.909 112.202 41.4742 111.946 42.0003C111.694 42.5239 111.277 42.9626 110.695 43.3163L109.581 41.4108C109.982 41.1616 110.214 40.8643 110.276 40.5188C110.342 40.1777 110.265 39.821 110.048 39.4489C109.795 39.0169 109.442 38.772 108.988 38.7141C108.534 38.6562 108.019 38.7939 107.443 39.1273C106.862 39.4632 106.481 39.8442 106.298 40.2704C106.12 40.694 106.157 41.1218 106.41 41.5539C106.625 41.9217 106.885 42.1692 107.19 42.2964C107.501 42.4253 107.851 42.3889 108.239 42.1871L109.354 44.0926C108.767 44.3978 108.189 44.5263 107.619 44.4778C107.054 44.4269 106.529 44.2272 106.043 43.8786C105.56 43.5343 105.147 43.0691 104.804 42.4832C104.424 41.833 104.232 41.1799 104.228 40.5238C104.231 39.8695 104.41 39.2562 104.766 38.6838C105.122 38.1115 105.644 37.6263 106.332 37.2282Z" fill="black"/>
<path d="M110.555 50.0751L108.844 50.736L108.503 49.8641C108.231 49.1676 108.194 48.5318 108.391 47.9567C108.595 47.3844 109.063 46.9568 109.796 46.6738L112.926 45.465L112.537 44.4686L114.158 43.8427L114.547 44.8391L116.334 44.1487L117.12 46.1623L115.332 46.8526L115.8 48.0497L114.179 48.6756L113.712 47.4785L110.86 48.5799C110.572 48.6909 110.391 48.8219 110.317 48.9728C110.249 49.1264 110.253 49.3025 110.331 49.5008L110.555 50.0751Z" fill="black"/>
<path d="M119.992 54.4551L120.256 56.6065L114.583 57.2957C113.946 57.3731 113.471 57.6102 113.159 58.007C112.847 58.4039 112.73 58.9216 112.809 59.5601C112.882 60.1594 113.117 60.6019 113.513 60.8878C113.909 61.1737 114.425 61.278 115.062 61.2006L120.736 60.5114L121 62.6627L115.326 63.352C114.512 63.451 113.777 63.3682 113.123 63.1037C112.469 62.8391 111.935 62.4255 111.52 61.8627C111.105 61.2999 110.848 60.6158 110.749 59.8103C110.647 58.9752 110.728 58.2251 110.992 57.5599C111.256 56.8948 111.673 56.3506 112.242 55.9275C112.812 55.5044 113.504 55.2433 114.319 55.1443L119.992 54.4551Z" fill="black"/>
<path d="M113.827 70.2274L114.09 68.8194C114.394 67.1864 115.222 66.427 116.576 66.5413C117.324 66.6046 117.889 66.9453 118.271 67.5635C118.652 68.1817 118.8 68.9938 118.714 69.9996C118.631 70.9759 118.34 71.7484 117.842 72.3172C117.349 72.8864 116.715 73.1804 115.94 73.1993L116.119 71.1063C116.752 71.0506 117.102 70.6431 117.166 69.8838C117.195 69.5485 117.151 69.2766 117.034 69.0681C116.917 68.8595 116.747 68.7459 116.524 68.727C116.122 68.6931 115.868 68.9522 115.761 69.5043L115.505 70.9278C115.22 72.4483 114.359 73.1478 112.922 73.0263C112.223 72.9673 111.683 72.6213 111.303 71.9883C110.927 71.3606 110.781 70.5586 110.864 69.5824C110.955 68.5223 111.251 67.6857 111.753 67.0725C112.259 66.4647 112.9 66.144 113.677 66.1102L113.489 68.3142C112.829 68.3777 112.463 68.8335 112.391 69.6815C112.361 70.0365 112.401 70.3279 112.511 70.5558C112.621 70.7836 112.788 70.9069 113.011 70.9258C113.447 70.9626 113.719 70.7298 113.827 70.2274Z" fill="black"/>
<path d="M118.583 84.056L117.91 85.8819L115.554 84.88L115.581 87.4357L113.622 87.3614L113.865 84.8254L111.416 85.6478L110.894 83.7655L113.436 83.2066L111.855 81.1592L113.476 80.0588L114.815 82.2704L116.273 80.1696L117.816 81.3728L116.132 83.312L118.583 84.056Z" fill="black"/>
<path d="M108.659 92.5134C109.455 93.1066 110.037 93.7782 110.405 94.5281C110.773 95.278 110.916 96.0493 110.835 96.8421C110.751 97.6388 110.433 98.4036 109.881 99.1363C109.133 100.13 108.261 100.752 107.267 101C106.269 101.252 105.233 101.064 104.158 100.436L105.486 98.6719C105.973 98.9417 106.464 99.0235 106.961 98.9172C107.454 98.815 107.898 98.5024 108.291 97.9796C108.745 97.3775 108.887 96.751 108.718 96.0999C108.554 95.4518 108.091 94.8445 107.331 94.2779C106.558 93.7025 105.834 93.4259 105.159 93.4482C104.483 93.4704 103.919 93.7826 103.465 94.3846C103.075 94.9035 102.902 95.4143 102.946 95.917C102.99 96.4197 103.21 96.8708 103.605 97.2704L102.276 99.0349C101.645 98.4782 101.222 97.8723 101.007 97.2173C100.791 96.5623 100.763 95.8894 100.923 95.1985C101.084 94.5145 101.41 93.8457 101.902 93.1922C102.451 92.4634 103.099 91.9483 103.848 91.6469C104.594 91.3495 105.382 91.2688 106.212 91.4047C107.043 91.5477 107.859 91.9172 108.659 92.5134Z" fill="black"/>
<path d="M100.38 101.072C100.895 101.669 101.224 102.294 101.368 102.947C101.511 103.601 101.473 104.236 101.252 104.855C101.031 105.473 100.632 106.028 100.054 106.521C99.4801 107.011 98.871 107.315 98.2267 107.434C97.5787 107.556 96.9412 107.497 96.3142 107.256C95.6873 107.015 95.1164 106.596 94.6016 105.999C94.0837 105.398 93.7513 104.769 93.6045 104.112C93.4578 103.455 93.4931 102.815 93.7105 102.193C93.9274 101.578 94.3229 101.026 94.897 100.536C95.4749 100.043 96.0878 99.7359 96.7358 99.6136C97.3871 99.4949 98.0278 99.558 98.658 99.8027C99.2883 100.047 99.8624 100.47 100.38 101.072ZM96.2899 104.559C96.7205 105.059 97.1597 105.356 97.6076 105.45C98.0548 105.55 98.4673 105.44 98.845 105.118C99.2265 104.793 99.4051 104.399 99.3808 103.938C99.3598 103.48 99.134 103.001 98.7034 102.501C98.2663 101.994 97.8188 101.691 97.3607 101.593C96.9058 101.499 96.4877 101.614 96.1062 101.939C95.7285 102.261 95.5556 102.65 95.5874 103.105C95.6187 103.567 95.8529 104.052 96.2899 104.559Z" fill="black"/>
<path d="M88.1301 110.42C88.3895 110.883 88.6916 111.157 89.0362 111.243C89.3809 111.33 89.7444 111.267 90.1266 111.054C90.4785 110.859 90.7062 110.58 90.8098 110.216C90.9115 109.859 90.8606 109.499 90.6569 109.136L88.5548 105.39L90.4639 104.33L94.1007 110.812L92.1916 111.871L91.6498 110.906C91.6242 111.419 91.4882 111.877 91.2416 112.28C90.995 112.683 90.6871 112.987 90.3179 113.192C89.6229 113.578 88.9244 113.669 88.2225 113.463C87.5205 113.258 86.9307 112.73 86.453 111.879L84.1764 107.821L86.0789 106.765L88.1301 110.42Z" fill="black"/>
<path d="M79.1694 111.61L78.5389 109.895L79.4218 109.574C80.1273 109.317 80.7671 109.293 81.3412 109.5C81.9124 109.714 82.333 110.188 82.603 110.922L83.7564 114.059L84.7655 113.692L85.3627 115.316L84.3536 115.683L85.0124 117.475L82.9731 118.217L82.3144 116.425L81.102 116.866L80.5048 115.242L81.7172 114.801L80.6663 111.943C80.5603 111.655 80.4323 111.472 80.2821 111.395C80.1289 111.324 79.9519 111.325 79.751 111.398L79.1694 111.61Z" fill="black"/>
<path d="M71.3457 116.344L70.4313 111.704L72.5694 111.287L72.7503 112.205C72.9002 111.783 73.1503 111.444 73.5005 111.189C73.8517 110.939 74.2836 110.764 74.7962 110.664C75.2745 110.571 75.7184 110.585 76.1277 110.707C76.5321 110.83 76.8752 111.04 77.1569 111.338C77.4338 111.637 77.6154 112.005 77.7015 112.442C77.979 113.85 77.2237 114.789 75.4356 115.259L73.855 115.688C73.5894 115.755 73.4767 115.891 73.5169 116.095L73.537 116.197C73.5982 116.507 73.7559 116.741 74.0099 116.899C74.259 117.057 74.5691 117.1 74.9401 117.027C75.6626 116.886 75.9959 116.468 75.94 115.773L78.1367 115.345C78.1982 115.862 78.1222 116.339 77.9088 116.774C77.6915 117.214 77.3594 117.587 76.9124 117.891C76.4614 118.201 75.9187 118.417 75.2841 118.541C74.6055 118.673 73.9914 118.67 73.4417 118.53C72.8871 118.391 72.4286 118.135 72.0661 117.762C71.6988 117.39 71.4586 116.917 71.3457 116.344ZM75.5803 113.022C75.5305 112.77 75.3907 112.588 75.1609 112.476C74.9262 112.366 74.6453 112.342 74.3183 112.406C73.8887 112.49 73.5631 112.689 73.3414 113.005C73.1158 113.326 73.0431 113.691 73.1235 114.099L73.1781 114.376L74.8377 113.961C75.4265 113.811 75.6741 113.498 75.5803 113.022Z" fill="black"/>
<path d="M68.4195 115.681C68.4219 116.468 68.2673 117.156 67.9558 117.746C67.6392 118.336 67.1979 118.795 66.6318 119.123C66.0608 119.451 65.3947 119.617 64.6336 119.619C63.9521 119.621 63.3349 119.494 62.7819 119.239C62.2289 118.983 61.7875 118.613 61.4577 118.129C61.1279 117.65 60.9545 117.072 60.9375 116.394L63.1536 116.387C63.17 116.857 63.3128 117.206 63.5822 117.433C63.8465 117.659 64.1951 117.772 64.6279 117.771C65.1303 117.769 65.5202 117.588 65.7977 117.225C66.0752 116.863 66.2128 116.351 66.2108 115.688C66.2087 115.02 66.0678 114.501 65.7881 114.13C65.5084 113.765 65.1173 113.583 64.6149 113.585C64.1871 113.586 63.8417 113.686 63.5786 113.885C63.3107 114.088 63.1674 114.408 63.1488 114.844L60.9327 114.85C60.9605 114.192 61.1378 113.63 61.4647 113.164C61.7916 112.703 62.2283 112.35 62.7747 112.106C63.3162 111.862 63.9277 111.739 64.6092 111.736C65.3653 111.734 66.0299 111.895 66.603 112.22C67.1711 112.55 67.6153 113.011 67.9355 113.604C68.2557 114.197 68.417 114.889 68.4195 115.681Z" fill="black"/>
<path d="M55.0936 112.898L55.3721 111.093L56.3014 111.235C57.0438 111.349 57.6164 111.634 58.0189 112.091C58.4159 112.552 58.5547 113.169 58.4355 113.941L57.9261 117.243L58.9882 117.405L58.7245 119.114L57.6624 118.952L57.3715 120.838L55.2253 120.51L55.5162 118.625L54.2402 118.43L54.5039 116.721L55.7799 116.915L56.2439 113.907C56.2907 113.604 56.267 113.383 56.1728 113.243C56.0729 113.108 55.9172 113.024 55.7058 112.992L55.0936 112.898Z" fill="black"/>
<path d="M46.5645 118.85L44.5586 118.003L46.7909 112.769C47.0415 112.181 47.0719 111.654 46.882 111.187C46.6922 110.72 46.2996 110.361 45.7043 110.109C45.1456 109.874 44.6429 109.855 44.1962 110.053C43.7495 110.252 43.4008 110.645 43.1502 111.233L40.918 116.467L38.9121 115.62L41.1444 110.386C41.4649 109.635 41.9037 109.043 42.4605 108.612C43.0174 108.18 43.6445 107.926 44.3419 107.849C45.0392 107.773 45.7634 107.893 46.5144 108.21C47.2929 108.538 47.9059 108.982 48.3535 109.542C48.801 110.102 49.0669 110.733 49.1512 111.435C49.2354 112.137 49.1172 112.864 48.7967 113.616L46.5645 118.85Z" fill="black"/>
<path d="M35.9763 105.694L37.0709 106.624C38.3405 107.703 38.5872 108.796 37.811 109.905C37.3817 110.518 36.8026 110.834 36.0736 110.854C35.3445 110.873 34.5636 110.595 33.7309 110.018C32.9227 109.458 32.3954 108.821 32.1492 108.108C31.9002 107.399 31.9613 106.705 32.3326 106.028L34.0654 107.228C33.797 107.802 33.9771 108.307 34.6057 108.742C34.8833 108.935 35.1421 109.032 35.3821 109.036C35.6222 109.039 35.8062 108.95 35.9341 108.767C36.1644 108.438 36.066 108.09 35.6388 107.721L34.5277 106.789C33.3463 105.783 33.1679 104.692 33.9924 103.514C34.3933 102.942 34.9643 102.65 35.7056 102.639C36.4399 102.629 37.2112 102.904 38.0195 103.464C38.8971 104.072 39.4774 104.746 39.7604 105.484C40.0364 106.224 39.9949 106.937 39.6358 107.623L37.8112 106.359C38.0857 105.759 37.8718 105.216 37.1697 104.73C36.8758 104.526 36.6021 104.415 36.3486 104.396C36.095 104.377 35.9043 104.459 35.7764 104.642C35.5262 104.999 35.5928 105.35 35.9763 105.694Z" fill="black"/>
<path d="M21.5563 102.891L20.3 101.4L22.3474 99.8669L20.1059 98.6175L21.1468 96.9644L23.2361 98.4376L23.7393 95.9157L25.6402 96.403L24.8607 98.8744L27.4335 98.53L27.5848 100.477L24.9902 100.53L26.0952 102.834L24.2775 103.565L23.4262 101.146L21.5563 102.891Z" fill="black"/>
<path d="M19.1148 90.1124C18.201 90.5039 17.3258 90.6716 16.4889 90.6154C15.6521 90.5592 14.9083 90.2987 14.2574 89.8341C13.6046 89.3649 13.0962 88.71 12.732 87.8693C12.238 86.7286 12.1305 85.6674 12.4094 84.6858C12.6864 83.6996 13.3662 82.8991 14.4486 82.2843L15.3255 84.3089C14.8479 84.5944 14.5319 84.9777 14.3773 85.4588C14.2208 85.9354 14.2725 86.4736 14.5323 87.0735C14.8315 87.7642 15.3069 88.199 15.9585 88.3777C16.6055 88.5584 17.3653 88.4618 18.2379 88.0878C19.1242 87.7079 19.7258 87.2211 20.0427 86.6273C20.3597 86.0335 20.3686 85.3912 20.0694 84.7004C19.8116 84.1051 19.4525 83.7013 18.9922 83.4891C18.532 83.2768 18.0293 83.2417 17.4842 83.3838L16.6073 81.3592C17.4069 81.0919 18.1459 81.0285 18.8241 81.1688C19.5024 81.3092 20.103 81.6202 20.6258 82.102C21.1421 82.5812 21.5626 83.1957 21.8874 83.9455C22.2496 84.7817 22.3756 85.5979 22.2654 86.394C22.1533 87.1856 21.8314 87.9055 21.2996 88.5537C20.7613 89.1992 20.033 89.7188 19.1148 90.1124Z" fill="black"/>
<path d="M15.7786 78.693C15.0011 78.8375 14.2922 78.8081 13.6518 78.605C13.0114 78.4018 12.4773 78.0505 12.0496 77.5511C11.6218 77.0517 11.338 76.4299 11.1982 75.6857C11.0593 74.9463 11.0992 74.2694 11.3178 73.6549C11.5355 73.0356 11.906 72.5162 12.4295 72.0967C12.9529 71.6773 13.6034 71.3953 14.3809 71.2508C15.1632 71.1054 15.8771 71.1338 16.5223 71.3361C17.1676 71.5384 17.7066 71.8887 18.1392 72.3872C18.5661 72.8818 18.849 73.4987 18.9879 74.2381C19.1276 74.9823 19.0887 75.6641 18.871 76.2834C18.6484 76.9037 18.273 77.424 17.7447 77.8444C17.2163 78.2647 16.561 78.5476 15.7786 78.693ZM14.7892 73.4251C14.1389 73.546 13.6608 73.7758 13.355 74.1145C13.0434 74.4493 12.9332 74.8599 13.0246 75.3463C13.1169 75.8376 13.37 76.1882 13.7839 76.3982C14.1929 76.6091 14.7226 76.6542 15.373 76.5333C16.0331 76.4106 16.5205 76.1766 16.8352 75.8312C17.145 75.4867 17.2537 75.0688 17.1615 74.5775C17.0701 74.0911 16.8184 73.7477 16.4063 73.5474C15.9884 73.3432 15.4494 73.3024 14.7892 73.4251Z" fill="black"/>
<path d="M13.7701 63.4293C13.2379 63.4215 12.848 63.5445 12.6005 63.7982C12.353 64.052 12.226 64.3965 12.2196 64.8319C12.2137 65.2327 12.343 65.5686 12.6077 65.8397C12.8675 66.1058 13.2062 66.2419 13.6241 66.248L17.9365 66.3109L17.9045 68.4854L10.4435 68.3766L10.4755 66.2021L11.5872 66.2183C11.1535 65.9398 10.8228 65.5935 10.5951 65.1794C10.3673 64.7653 10.2566 64.348 10.2628 63.9275C10.2744 63.1358 10.5452 62.489 11.0749 61.987C11.6047 61.485 12.3596 61.2411 13.3394 61.2554L18.01 61.3235L17.9781 63.4906L13.7701 63.4293Z" fill="black"/>
<path d="M17.2083 55.1076L19.0169 55.4197L18.8562 56.3412C18.7278 57.0774 18.43 57.6412 17.9629 58.0327C17.4917 58.4185 16.8689 58.5446 16.0945 58.4109L12.7861 57.84L12.6025 58.8931L10.8895 58.5975L11.0731 57.5444L9.18366 57.2184L9.55479 55.0902L11.4443 55.4163L11.6649 54.1511L13.3779 54.4467L13.1573 55.7119L16.1716 56.232C16.4755 56.2845 16.6985 56.2652 16.8405 56.1742C16.9786 56.0775 17.0659 55.9243 17.1024 55.7146L17.2083 55.1076Z" fill="black"/>
<path d="M16.9834 46.0102L21.4824 47.5357L20.7794 49.5871L19.8895 49.2854C20.1829 49.6253 20.3533 50.0099 20.4008 50.439C20.4435 50.8664 20.3806 51.3261 20.212 51.8179C20.0547 52.2769 19.8209 52.6524 19.5106 52.9445C19.2019 53.2319 18.8474 53.4228 18.4472 53.5171C18.0486 53.6068 17.6374 53.5797 17.2137 53.4361C15.8482 52.9731 15.4067 51.8536 15.8891 50.0776L16.3034 48.5007C16.3775 48.2383 16.3157 48.0736 16.118 48.0065L16.0191 47.973C15.7178 47.8708 15.4353 47.89 15.1716 48.0307C14.9095 48.1666 14.7175 48.4126 14.5955 48.7685C14.358 49.4617 14.556 49.9575 15.1895 50.256L14.4672 52.3636C13.9857 52.1585 13.6086 51.8555 13.336 51.4547C13.0604 51.0475 12.9016 50.5754 12.8596 50.0384C12.8145 49.4951 12.8963 48.919 13.105 48.3101C13.3281 47.6591 13.6376 47.1315 14.0337 46.7273C14.4313 46.3184 14.883 46.0508 15.3889 45.9243C15.8963 45.7931 16.4278 45.8218 16.9834 46.0102ZM17.7661 51.3179C18.0109 51.4009 18.2392 51.3711 18.451 51.2286C18.6644 51.0814 18.8248 50.8508 18.9324 50.537C19.0736 50.1249 19.062 49.7445 18.8977 49.396C18.7302 49.0413 18.4487 48.7968 18.0532 48.6627L17.7848 48.5717L17.3182 50.2093C17.1554 50.7919 17.3047 51.1614 17.7661 51.3179Z" fill="black"/>
<path d="M19.0179 43.8205C18.3318 43.4291 17.8099 42.9517 17.4523 42.3884C17.0972 41.8207 16.9183 41.211 16.9156 40.5591C16.9154 39.903 17.1046 39.2466 17.4832 38.5898C17.8222 38.0017 18.2413 37.5335 18.7404 37.185C19.2395 36.8365 19.7821 36.6413 20.3684 36.5992C20.9503 36.5547 21.5405 36.6946 22.1392 37.019L21.0367 38.9313C20.6193 38.7103 20.2445 38.6591 19.9124 38.7777C19.5827 38.8919 19.3103 39.1358 19.095 39.5093C18.845 39.9428 18.8083 40.3696 18.9847 40.7897C19.1611 41.2098 19.5385 41.5848 20.1167 41.9146C20.6993 42.247 21.2217 42.3852 21.6839 42.3295C22.1418 42.2713 22.4957 42.0254 22.7457 41.5918C22.9585 41.2227 23.0442 40.8751 23.0028 40.5491C22.9595 40.2164 22.7529 39.9332 22.383 39.6994L23.4855 37.787C24.0446 38.1402 24.4453 38.5741 24.6876 39.0888C24.9256 39.6011 25.0142 40.1536 24.9534 40.7464C24.8952 41.3349 24.6965 41.9232 24.3574 42.5113C23.9813 43.1637 23.5085 43.6556 22.9391 43.9867C22.3679 44.3112 21.7441 44.463 21.0679 44.4424C20.3917 44.4217 19.7084 44.2144 19.0179 43.8205Z" fill="black"/>
<path d="M28.0807 33.7693L29.5125 34.9119L28.9242 35.6414C28.4541 36.2243 27.9196 36.5748 27.3204 36.693C26.7205 36.8042 26.114 36.6152 25.5009 36.126L22.8818 34.0359L22.2094 34.8696L20.8533 33.7874L21.5256 32.9537L20.0298 31.76L21.3885 30.0752L22.8844 31.2689L23.6922 30.2673L25.0483 31.3495L24.2405 32.3511L26.6269 34.2554C26.8674 34.4474 27.072 34.5377 27.2406 34.5263C27.4085 34.508 27.5593 34.4159 27.6932 34.2499L28.0807 33.7693Z" fill="black"/>
<path d="M27.1562 23.4512L28.8931 22.1425L32.3443 26.6746C32.7318 27.1834 33.1764 27.4723 33.6782 27.5412C34.18 27.61 34.6886 27.4502 35.2041 27.0618C35.6878 26.6973 35.9544 26.2729 36.0038 25.7888C36.0533 25.3046 35.8842 24.8081 35.4967 24.2992L32.0455 19.7671L33.7823 18.4584L37.2335 22.9905C37.7292 23.6414 38.0264 24.3144 38.1252 25.0097C38.2241 25.705 38.1333 26.3724 37.8528 27.0121C37.5723 27.6518 37.1069 28.2166 36.4566 28.7066C35.7825 29.2146 35.09 29.5222 34.3792 29.6295C33.6683 29.7368 32.9859 29.652 32.3319 29.375C31.6779 29.098 31.1031 28.6341 30.6075 27.9833L27.1562 23.4512Z" fill="black"/>
<path d="M43.8857 20.8676L42.5299 21.3492C40.9577 21.908 39.8813 21.5767 39.3009 20.3554C38.9798 19.6799 38.9921 19.0228 39.3378 18.384C39.6835 17.7453 40.3151 17.2101 41.2325 16.7787C42.123 16.3599 42.9405 16.2218 43.685 16.3642C44.4274 16.5022 45.0016 16.9 45.4076 17.5574L43.4985 18.4552C43.1317 17.9381 42.602 17.8424 41.9094 18.1681C41.6036 18.3119 41.3894 18.4865 41.267 18.6919C41.1445 18.8973 41.1311 19.1006 41.2268 19.3019C41.399 19.6643 41.7519 19.7528 42.2856 19.5675L43.6517 19.0728C45.1163 18.5537 46.1569 18.9429 46.7735 20.2402C47.0733 20.871 47.0436 21.5089 46.6844 22.154C46.3276 22.7925 45.7039 23.3212 44.8135 23.74C43.8466 24.1947 42.9706 24.3603 42.1856 24.2369C41.403 24.1069 40.802 23.7163 40.3824 23.0652L42.3927 22.1198C42.7792 22.6551 43.3592 22.7408 44.1327 22.377C44.4565 22.2248 44.6897 22.0439 44.8323 21.8346C44.9749 21.6252 44.9984 21.4198 44.9027 21.2185C44.7156 20.8249 44.3766 20.7079 43.8857 20.8676Z" fill="black"/>
<path d="M53.5462 9.83148L55.4717 9.49484L55.7825 12.0254L57.9913 10.7198L58.9095 12.4434L56.582 13.506L58.5255 15.2009L57.1504 16.5944L55.389 14.6867L54.4018 17.075L52.6315 16.2314L53.8835 13.9702L51.3252 13.7694L51.5975 11.8377L54.1289 12.3145L53.5462 9.83148Z" fill="black"/>
<defs>
<clipPath id="clip0_980_2">
<rect width="26" height="26" fill="white" transform="translate(52 52)"/>
</clipPath>
</defs>
</svg>
