<svg width="20" height="20" viewBox="0 0 20 20" fill="none" xmlns="http://www.w3.org/2000/svg">
<g clip-path="url(#clip0_290_187)">
<path d="M10 20C15.5133 20 20 15.5133 20 10C20 4.48668 15.5134 0 10 0C4.48662 0 0 4.48668 0 10C0 15.5133 4.48668 20 10 20ZM10 1.33331C14.78 1.33331 18.6667 5.21996 18.6667 10C18.6667 14.78 14.78 18.6667 10 18.6667C5.21996 18.6667 1.33331 14.78 1.33331 10C1.33331 5.21996 5.22002 1.33331 10 1.33331Z" fill="#CFF85E"/>
<path d="M12.9115 13.1867C13.0348 13.2866 13.1814 13.3333 13.3281 13.3333C13.5248 13.3333 13.7181 13.2467 13.8481 13.0833C14.0781 12.7967 14.0314 12.3767 13.7448 12.1467L10.6614 9.67999V4.66666C10.6614 4.29998 10.3615 4 9.99478 4C9.62811 4 9.32812 4.29998 9.32812 4.66666V10C9.32812 10.2034 9.42148 10.3933 9.57812 10.52L12.9115 13.1867Z" fill="#CFF85E"/>
</g>
<defs>
<clipPath id="clip0_290_187">
<rect width="20" height="20" fill="white"/>
</clipPath>
</defs>
</svg>
