<svg width="50" height="50" viewBox="0 0 50 50" fill="none" xmlns="http://www.w3.org/2000/svg">
<g clip-path="url(#clip0_1173_22)">
<path d="M9.77849 18.8961C14.7785 18.8961 18.8226 14.852 18.8226 9.85202C18.8226 4.85202 14.7785 0.734375 9.77849 0.734375C4.77849 0.734375 0.734375 4.77849 0.734375 9.77849C0.734375 14.7785 4.77849 18.8961 9.77849 18.8961ZM9.77849 2.20496C13.9697 2.20496 17.4256 5.58732 17.4256 9.77849C17.4256 13.9697 13.9697 17.4256 9.77849 17.4256C5.58732 17.4256 2.20496 13.9697 2.20496 9.77849C2.20496 5.58732 5.58732 2.20496 9.77849 2.20496Z" fill="white"/>
<path d="M9.77918 13.0869C9.04389 13.0869 8.52918 12.4986 8.52918 11.8369C8.52918 11.3957 8.23506 11.1016 7.79389 11.1016C7.35271 11.1016 7.05859 11.3957 7.05859 11.8369C7.05859 13.0869 7.94095 14.1163 9.04389 14.4839V15.2927C9.04389 15.7339 9.33801 16.028 9.77918 16.028C10.2204 16.028 10.5145 15.7339 10.5145 15.2927V14.4839C11.6909 14.1898 12.4998 13.0869 12.4998 11.8369C12.4998 10.2927 11.2498 9.11627 9.77918 9.11627C9.04389 9.11627 8.52918 8.52803 8.52918 7.86627C8.52918 7.2045 9.11742 6.61627 9.77918 6.61627C10.4409 6.61627 11.0292 7.2045 11.0292 7.86627C11.0292 8.30744 11.3233 8.60156 11.7645 8.60156C12.2057 8.60156 12.4998 8.30744 12.4998 7.86627C12.4998 6.61627 11.6174 5.58686 10.5145 5.21921V4.33686C10.5145 3.89568 10.2204 3.60156 9.77918 3.60156C9.33801 3.60156 9.04389 3.89568 9.04389 4.33686V5.14568C7.86742 5.4398 7.05859 6.54274 7.05859 7.79274C7.05859 9.33686 8.30859 10.5133 9.77918 10.5133C10.5145 10.5133 11.0292 11.1016 11.0292 11.7633C11.1027 12.4986 10.5145 13.0869 9.77918 13.0869Z" fill="white"/>
<path d="M48.1608 31.6895C47.4991 31.1012 46.6167 30.8806 45.7344 31.1012L29.3373 34.4101C29.4108 34.1895 29.4108 33.8954 29.4108 33.6748C29.4108 31.763 27.8667 30.1454 25.8814 30.1454H15.6608C13.2344 28.6012 7.27849 26.1748 0.954963 33.013C0.807904 33.0865 0.734375 33.3071 0.734375 33.4542V48.5277C0.734375 48.8218 0.881434 49.0424 1.10202 49.1895C1.17555 49.263 1.32261 49.263 1.46967 49.263C1.61673 49.263 1.69026 49.263 1.83732 49.1895C1.91085 49.1159 1.98438 49.1159 2.13143 48.9689C4.63143 46.8365 7.42555 46.0277 10.3667 46.6895L17.4256 48.3806C19.0432 48.7483 20.7344 48.6012 22.2785 47.9395L47.6461 36.6895C48.7491 36.2483 49.4108 35.1454 49.4108 33.9689C49.2638 33.0865 48.8961 32.2777 48.1608 31.6895ZM46.9108 35.3659L21.5432 46.6159C20.2932 47.1306 18.9697 47.2777 17.6461 46.9836L10.5873 45.2924C9.77849 45.0718 9.0432 44.9983 8.23437 44.9983C6.10202 44.9983 4.0432 45.6601 2.13143 46.9836V33.7483C7.57261 28.013 12.4991 29.8512 14.9991 31.4689C15.1461 31.5424 15.2932 31.6159 15.3667 31.6159H25.8079C26.9108 31.6159 27.8667 32.4983 27.8667 33.6748C27.8667 34.7777 26.9844 35.7336 25.8079 35.7336H18.8226C18.3814 35.7336 18.0873 36.0277 18.0873 36.4689C18.0873 36.9101 18.3814 37.2042 18.8226 37.2042H25.8079C26.7638 37.2042 27.7197 36.763 28.3079 36.1012L45.8814 32.5718C46.3226 32.4983 46.7638 32.5718 47.1314 32.8659C47.4991 33.1601 47.6461 33.6012 47.6461 34.0424C47.7932 34.5571 47.4256 35.1454 46.9108 35.3659Z" fill="white"/>
<path d="M40.0703 10.0712V27.3506C40.0703 27.7918 40.3644 28.0859 40.8056 28.0859H45.0703C45.5115 28.0859 45.8056 27.7918 45.8056 27.3506V10.0712C45.8056 9.63006 45.5115 9.33594 45.0703 9.33594H40.8056C40.3644 9.33594 40.0703 9.63006 40.0703 10.0712ZM41.5409 10.8065H44.335V26.6153H41.5409V10.8065Z" fill="white"/>
<path d="M21.4697 28.0859H25.7344C26.1756 28.0859 26.4697 27.7918 26.4697 27.3506V21.3212C26.4697 20.8801 26.1756 20.5859 25.7344 20.5859H21.4697C21.0285 20.5859 20.7344 20.8801 20.7344 21.3212V27.3506C20.7344 27.7918 21.102 28.0859 21.4697 28.0859ZM22.205 22.0565H24.9991V26.6154H22.205V22.0565Z" fill="white"/>
<path d="M31.1767 14.1172C30.7355 14.1172 30.4414 14.4113 30.4414 14.8525V27.3525C30.4414 27.7937 30.7355 28.0878 31.1767 28.0878H35.4414C35.8826 28.0878 36.1767 27.7937 36.1767 27.3525V14.8525C36.1767 14.4113 35.8826 14.1172 35.4414 14.1172H31.1767ZM34.6326 26.6172H31.8385V15.5878H34.6326V26.6172Z" fill="white"/>
<path d="M23.6039 15.7328C23.7509 15.7328 23.8245 15.7328 23.9715 15.6593L41.7656 5.07107L41.398 6.54166C41.3245 6.90931 41.545 7.35049 41.9127 7.42402H42.0598C42.3539 7.42402 42.7215 7.20343 42.795 6.83578L43.6039 3.67401C43.6039 3.60049 43.6039 3.52696 43.6039 3.3799C43.6039 3.30637 43.5303 3.15931 43.5303 3.08578C43.5303 3.01225 43.4568 2.93872 43.3833 2.93872C43.3098 2.86519 43.2362 2.86519 43.0892 2.79166L39.9274 1.98284C39.5598 1.90931 39.1186 2.1299 39.045 2.49754C38.9715 2.86519 39.1921 3.30637 39.5598 3.3799L41.0303 3.74754L23.2362 14.3358C22.8686 14.5564 22.795 14.9975 22.9421 15.3652C23.0892 15.5858 23.3097 15.7328 23.6039 15.7328Z" fill="white"/>
</g>
<defs>
<clipPath id="clip0_1173_22">
<rect width="50" height="50" fill="white"/>
</clipPath>
</defs>
</svg>
