<svg width="30" height="30" viewBox="0 0 30 30" fill="none" xmlns="http://www.w3.org/2000/svg">
<g clip-path="url(#clip0_262_665)">
<path d="M3.21512 12.8555H5.35798C5.64214 12.8555 5.91466 12.9684 6.11559 13.1693C6.31653 13.3702 6.42941 13.6427 6.42941 13.9269V19.284C6.42941 19.5682 6.31653 19.8407 6.11559 20.0417C5.91466 20.2426 5.64214 20.3555 5.35798 20.3555H3.21512C2.6468 20.3555 2.10176 20.1297 1.69989 19.7278C1.29803 19.326 1.07227 18.7809 1.07227 18.2126V14.9983C1.07227 14.43 1.29803 13.885 1.69989 13.4831C2.10176 13.0812 2.6468 12.8555 3.21512 12.8555V12.8555Z" stroke="#141414" stroke-width="1.5" stroke-linecap="round" stroke-linejoin="round"/>
<path d="M26.7868 20.3555H24.644C24.3598 20.3555 24.0873 20.2426 23.8864 20.0417C23.6854 19.8407 23.5725 19.5682 23.5725 19.284V13.9269C23.5725 13.6427 23.6854 13.3702 23.8864 13.1693C24.0873 12.9684 24.3598 12.8555 24.644 12.8555H26.7868C27.3552 12.8555 27.9002 13.0812 28.3021 13.4831C28.7039 13.885 28.9297 14.43 28.9297 14.9983V18.2126C28.9297 18.7809 28.7039 19.326 28.3021 19.7278C27.9002 20.1297 27.3552 20.3555 26.7868 20.3555V20.3555Z" stroke="#141414" stroke-width="1.5" stroke-linecap="round" stroke-linejoin="round"/>
<path d="M20.3574 26.2483C21.4941 26.2483 22.5842 25.7968 23.3879 24.9931C24.1916 24.1893 24.6431 23.0993 24.6431 21.9626V20.3555" stroke="#141414" stroke-width="1.5" stroke-linecap="round" stroke-linejoin="round"/>
<path d="M17.68 23.5703C18.3904 23.5703 19.0717 23.8525 19.574 24.3548C20.0763 24.8572 20.3585 25.5385 20.3585 26.2489C20.3585 26.9593 20.0763 27.6406 19.574 28.1429C19.0717 28.6452 18.3904 28.9275 17.68 28.9275H14.4657C13.7553 28.9275 13.074 28.6452 12.5716 28.1429C12.0693 27.6406 11.7871 26.9593 11.7871 26.2489C11.7871 25.5385 12.0693 24.8572 12.5716 24.3548C13.074 23.8525 13.7553 23.5703 14.4657 23.5703H17.68Z" stroke="#141414" stroke-width="1.5" stroke-linecap="round" stroke-linejoin="round"/>
<path d="M5.35742 12.856V10.7132C5.35742 8.15572 6.37336 5.70303 8.18175 3.89464C9.99014 2.08625 12.4428 1.07031 15.0003 1.07031C17.5577 1.07031 20.0104 2.08625 21.8188 3.89464C23.6272 5.70303 24.6431 8.15572 24.6431 10.7132V12.856" stroke="#141414" stroke-width="1.5" stroke-linecap="round" stroke-linejoin="round"/>
<path d="M11.7871 8.57031V11.7846" stroke="#141414" stroke-width="1.5" stroke-linecap="round" stroke-linejoin="round"/>
<path d="M18.2148 8.57031V11.7846" stroke="#141414" stroke-width="1.5" stroke-linecap="round" stroke-linejoin="round"/>
<path d="M11.7871 16.0703C11.7871 18.9203 18.2157 18.9203 18.2157 16.0703" stroke="#141414" stroke-width="1.5" stroke-linecap="round" stroke-linejoin="round"/>
</g>
<defs>
<clipPath id="clip0_262_665">
<rect width="30" height="30" fill="white"/>
</clipPath>
</defs>
</svg>
