<svg width="50" height="50" viewBox="0 0 50 50" fill="none" xmlns="http://www.w3.org/2000/svg">
<path fill-rule="evenodd" clip-rule="evenodd" d="M10.2591 40.5843L9.58648 40.9727C6.80364 42.5793 3.21393 41.6141 1.60952 38.8352C0.00510895 36.0564 0.964128 32.4649 3.74697 30.8582C4.50197 30.4224 7.52187 28.6788 8.27697 28.2429C11.0495 25.7548 13.068 22.2831 14.8574 19.1761C14.864 19.1629 14.8711 19.1497 14.8785 19.1369C15.0426 18.8516 15.2057 18.5696 15.3672 18.2919C15.5624 17.9546 15.7553 17.6235 15.9468 17.3004C15.9473 17.2995 15.9479 17.2986 15.9483 17.2978L15.9487 17.2971C16.3842 16.5639 17.1106 16.1532 17.9587 16.1592C18.8068 16.1652 19.5304 16.5855 19.9535 17.3184L22.7765 22.208C24.4677 21.5827 26.4131 22.247 27.3452 23.8612C28.2772 25.4755 27.8797 27.4925 26.4926 28.6444L29.3155 33.5339C29.7512 34.2884 29.7406 35.1537 29.2891 35.8965C28.8383 36.6381 28.0832 37.0459 27.2127 37.0117H27.2122L27.2109 37.0116C26.8511 36.9977 26.4898 36.9833 26.1274 36.9704C22.448 36.8443 18.6361 36.886 14.948 38.0677L19.0844 45.232C19.301 45.6071 19.1725 46.0868 18.7973 46.3033L17.955 46.7897C16.257 47.77 14.0694 47.1838 13.089 45.4859L10.2591 40.5843ZM8.45187 29.9531L4.53129 32.2167C2.49589 33.3918 1.79462 36.0185 2.96795 38.0509C4.14138 40.0833 6.76687 40.7893 8.80217 39.6142L12.7228 37.3506L8.45187 29.9531ZM15.555 21.0906C13.934 23.8563 12.0952 26.7789 9.73197 29.0331L14.147 36.6801C17.32 35.6091 20.5839 35.3496 23.7915 35.3566L15.555 21.0906ZM27.9571 34.3182L18.595 18.1028C18.4579 17.8651 18.2227 17.7297 17.9478 17.7278C17.6732 17.7259 17.4392 17.8602 17.298 18.0971L17.2975 18.0981C17.0262 18.56 16.747 19.0382 16.4639 19.5277L25.6185 35.3839C25.8831 35.3921 26.1473 35.4013 26.4108 35.4111C26.6991 35.4213 26.9867 35.4325 27.2733 35.4442H27.274C27.557 35.4554 27.8023 35.3227 27.9487 35.0817C28.0946 34.8417 28.0979 34.5621 27.9571 34.3182ZM25.688 27.251C26.3335 26.5617 26.4833 25.5057 25.9867 24.6455C25.4901 23.7853 24.5007 23.3871 23.581 23.6014L25.688 27.251ZM11.6177 39.8L14.4476 44.7016C14.9962 45.6518 16.2204 45.9798 17.1707 45.4312L17.3337 45.3371L13.5071 38.7091L11.6177 39.8ZM49.4588 13.1209C49.4588 14.4331 48.3888 15.5006 47.0767 15.5006H40.1926L37.2983 18.5134C37.0766 18.7443 36.7368 18.8172 36.4399 18.6977C36.1429 18.5781 35.9484 18.2902 35.9484 17.9701V15.5006H35.3814C34.0692 15.5006 32.9992 14.4331 32.9992 13.1209V5.11697C32.9992 3.80511 34.0696 2.73472 35.3814 2.73472H47.0767C48.3884 2.73472 49.4588 3.80511 49.4588 5.11697V13.1209ZM47.8902 13.1209V5.11697C47.8902 4.66893 47.5246 4.30335 47.0767 4.30335H35.3814C34.9334 4.30335 34.5679 4.66893 34.5679 5.11697V13.1209C34.5679 13.5685 34.9337 13.932 35.3814 13.932H36.7328C37.1659 13.932 37.5171 14.2831 37.5171 14.7163V16.0215L39.2928 14.173C39.4407 14.019 39.6449 13.932 39.8583 13.932H47.0767C47.5243 13.932 47.8902 13.5685 47.8902 13.1209ZM36.8971 7.39521C36.4642 7.39521 36.1128 7.04374 36.1128 6.61089C36.1128 6.17805 36.4642 5.82658 36.8971 5.82658H45.4207C45.8536 5.82658 46.205 6.17805 46.205 6.61089C46.205 7.04374 45.8536 7.39521 45.4207 7.39521H36.8971ZM36.8971 9.93099C36.4642 9.93099 36.1128 9.57962 36.1128 9.14668C36.1128 8.71384 36.4642 8.36236 36.8971 8.36236H45.4207C45.8536 8.36236 46.205 8.71384 46.205 9.14668C46.205 9.57962 45.8536 9.93099 45.4207 9.93099H36.8971ZM36.8971 12.4644C36.4642 12.4644 36.1128 12.113 36.1128 11.6801C36.1128 11.2473 36.4642 10.8958 36.8971 10.8958H45.4207C45.8536 10.8958 46.205 11.2473 46.205 11.6801C46.205 12.113 45.8536 12.4644 45.4207 12.4644H36.8971ZM42.062 19.8051C46.1444 19.8051 49.4588 23.1195 49.4588 27.202C49.4588 31.2844 46.1444 34.5988 42.062 34.5988C37.9795 34.5988 34.6651 31.2844 34.6651 27.202C34.6651 23.1195 37.9795 19.8051 42.062 19.8051ZM42.062 21.3737C38.8452 21.3737 36.2337 23.9853 36.2337 27.202C36.2337 30.4187 38.8452 33.0302 42.062 33.0302C45.2786 33.0302 47.8902 30.4187 47.8902 27.202C47.8902 23.9853 45.2786 21.3737 42.062 21.3737ZM45.4677 27.8812L40.6964 30.6359C40.4537 30.776 40.1547 30.776 39.9121 30.6359C39.6694 30.4958 39.5199 30.2369 39.5199 29.9567V24.4473C39.5199 24.1671 39.6694 23.9082 39.9121 23.7681C40.1547 23.628 40.4537 23.628 40.6964 23.7681L45.4677 26.5228C45.7103 26.6629 45.8598 26.9218 45.8598 27.202C45.8598 27.4822 45.7103 27.7411 45.4677 27.8812ZM43.5069 27.202L41.0885 25.8058V28.5982L43.5069 27.202ZM21.887 16.3258C20.3305 15.4105 17.993 13.7811 16.3553 11.8735C15.1735 10.497 14.3652 8.96854 14.3376 7.45786C14.2968 5.19648 15.5719 3.56864 17.3105 2.97638C18.8191 2.46246 20.7224 2.72746 22.4316 4.15413C24.1408 2.72913 26.0442 2.46403 27.5534 2.97746C29.2931 3.56923 30.569 5.19629 30.5281 7.45776C30.5006 8.96844 29.6922 10.497 28.5104 11.8735C26.8728 13.7811 24.5352 15.4105 22.9793 16.3255C22.6341 16.5312 22.2323 16.5313 21.887 16.3258ZM22.4329 14.8249C23.8688 13.9554 25.8864 12.5219 27.3203 10.8517C28.244 9.7757 28.9382 8.61011 28.9598 7.42933C28.9866 5.94521 28.1899 4.85089 27.0482 4.46246C25.8428 4.05246 24.3155 4.42335 22.9905 5.77031C22.843 5.92021 22.6415 6.00462 22.4312 6.00452C22.2209 6.00452 22.0194 5.92001 21.872 5.77001C20.5472 4.42197 19.0209 4.05089 17.8163 4.46119C16.6751 4.84991 15.8792 5.94511 15.906 7.42933C15.9276 8.61011 16.6218 9.7757 17.5455 10.8517C18.9793 12.5219 20.997 13.9554 22.4329 14.8249ZM26.5279 19.3026C26.4158 19.7207 25.9853 19.9692 25.5673 19.8572C25.1491 19.7451 24.9006 19.3147 25.0127 18.8966L25.7613 16.1027C25.8733 15.6845 26.3037 15.436 26.7219 15.5481C27.14 15.6601 27.3884 16.0905 27.2765 16.5086L26.5279 19.3026ZM30.4703 28.3907C30.0523 28.2782 29.8042 27.8476 29.9167 27.4295C30.0291 27.0116 30.4598 26.7634 30.8778 26.8759L33.6737 27.6281C34.0918 27.7405 34.3398 28.1711 34.2274 28.5891C34.1149 29.0072 33.6843 29.2552 33.2663 29.1428L30.4703 28.3907ZM30.3799 23.0332C30.005 23.2496 29.525 23.121 29.3085 22.7462C29.0921 22.3713 29.2207 21.8912 29.5956 21.6747L32.1052 20.2258C32.4801 20.0094 32.9602 20.1381 33.1766 20.5129C33.393 20.8878 33.2644 21.3679 32.8895 21.5843L30.3799 23.0332Z" fill="white"/>
</svg>
