<svg width="50" height="50" viewBox="0 0 50 50" fill="none" xmlns="http://www.w3.org/2000/svg">
<path d="M43.75 5.46875H6.25C4.5269 5.46875 3.125 6.87027 3.125 8.59375V35.1562C3.125 36.8797 4.5269 38.2812 6.25 38.2812H11.9297C12.3611 38.2812 12.711 37.9318 12.711 37.5C12.711 37.0682 12.3611 36.7188 11.9297 36.7188H6.25C5.38826 36.7188 4.6875 36.0176 4.6875 35.1562V13.2805H15.3019C16.2228 13.2805 17.0883 12.9219 17.7399 12.2711C18.0958 11.9156 18.5696 11.7195 19.0731 11.7195H42.1875C43.1987 11.7122 43.2256 10.1717 42.1875 10.157C42.1875 10.157 19.0731 10.157 19.0731 10.157C18.1522 10.157 17.2867 10.5156 16.6351 11.1664C16.2792 11.5219 15.8054 11.718 15.3019 11.718H4.6875V8.59375C4.6875 7.73239 5.38826 7.03125 6.25 7.03125H43.75C44.6117 7.03125 45.3125 7.73239 45.3125 8.59375V35.1562C45.3125 36.0176 44.6117 36.7188 43.75 36.7188H38.2111C37.7796 36.7188 37.4298 37.0682 37.4298 37.5C37.4298 37.9318 37.7796 38.2812 38.2111 38.2812H43.75C45.4731 38.2812 46.875 36.8797 46.875 35.1562V8.59375C46.875 6.87027 45.4731 5.46875 43.75 5.46875Z" fill="white"/>
<path d="M12.8906 9.37559C12.9081 10.4025 14.4358 10.4023 14.4531 9.37556C14.4357 8.34869 12.9079 8.34884 12.8906 9.37559Z" fill="white"/>
<path d="M9.76562 9.37559C9.78306 10.4025 11.3108 10.4023 11.3281 9.37556C11.3107 8.34869 9.78289 8.34884 9.76562 9.37559Z" fill="white"/>
<path d="M6.64062 9.37559C6.65806 10.4025 8.18583 10.4023 8.20312 9.37556C8.18571 8.34869 6.65789 8.34884 6.64062 9.37559Z" fill="white"/>
<path d="M23.7605 21.1614C24.6577 21.2728 25.5335 21.5307 26.364 21.9274C26.7531 22.1128 27.22 21.9488 27.4058 21.5589C27.592 21.1698 27.4268 20.7036 27.0377 20.5175C26.055 20.0483 25.0174 19.7431 23.9527 19.6111C20.7957 19.222 17.7085 20.2733 15.4792 22.5004C7.17267 31.1855 17.6065 44.3978 27.9842 38.3214C27.9841 38.3214 33.5051 43.8489 33.5051 43.8489C34.424 44.7558 35.9107 44.7525 36.8251 43.8382C37.7182 42.9582 37.7217 41.397 36.8178 40.5294C36.8178 40.5294 31.2987 35.0118 31.2987 35.0118C33.4521 31.5793 33.3058 26.9703 30.8561 23.7C30.8562 23.7 33.9213 20.6354 33.9213 20.6354V22.0639C33.9371 23.0937 35.4687 23.0877 35.4838 22.0639V18.7497C35.4855 18.4415 35.2885 18.1436 35.0009 18.0287C35.103 17.8771 31.4395 18.0143 31.3872 17.9684C30.9558 17.9685 30.606 18.3179 30.606 18.7497C30.606 19.1816 30.9558 19.531 31.3872 19.531H32.8163L23.2129 29.1325L21.0017 26.9216C20.6965 26.6164 20.2021 26.6164 19.897 26.9216L16.7254 30.0931C16.0111 30.8173 17.1001 31.9185 17.8302 31.1978C17.8301 31.1979 20.4493 28.5787 20.4493 28.5787L22.6599 30.7889C22.9577 31.151 23.6168 31.0056 23.7699 30.7848C23.849 30.7057 26.5524 28.0029 28.2918 26.2638C29.1767 25.4599 29.7481 24.6095 29.8058 24.9295C31.8061 27.8555 31.719 31.8485 29.6318 34.701C29.394 34.9976 29.5772 35.5597 29.7449 35.6674C29.8884 35.8103 35.7221 41.6419 35.7433 41.6665C36.0085 41.9909 36.0283 42.4291 35.6767 42.7746C35.3773 43.099 34.7501 42.9483 34.605 42.7385C34.4538 42.5878 28.6364 36.7601 28.6024 36.7311C28.2953 36.4521 27.8366 36.4843 27.5275 36.7527C22.3727 40.464 14.7243 36.9934 14.1157 30.6636C13.3864 25.2731 18.3727 20.3537 23.7605 21.1614Z" fill="white"/>
</svg>
