<svg width="20" height="20" viewBox="0 0 20 20" fill="none" xmlns="http://www.w3.org/2000/svg">
<path d="M11.9277 16.5836C12.603 17.02 13.4078 17.2101 14.2066 17.1221C15.0054 17.0341 15.7497 16.6733 16.3141 16.1004L16.8076 15.6171C17.024 15.3955 17.1451 15.0979 17.1451 14.7879C17.1451 14.478 17.024 14.1803 16.8076 13.9587L14.7131 11.8829C14.4937 11.6669 14.1983 11.5459 13.8906 11.5459C13.583 11.5459 13.2876 11.6669 13.0682 11.8829V11.8829C12.8469 12.0996 12.5497 12.2209 12.2402 12.2209C11.9308 12.2209 11.6336 12.0996 11.4123 11.8829L8.12247 8.58805C8.01272 8.47973 7.92557 8.35064 7.86609 8.20829C7.8066 8.06593 7.77597 7.91315 7.77597 7.75883C7.77597 7.60452 7.8066 7.45174 7.86609 7.30938C7.92557 7.16703 8.01272 7.03794 8.12247 6.92962V6.92962C8.33812 6.70985 8.45896 6.41404 8.45896 6.1059C8.45896 5.79776 8.33812 5.50195 8.12247 5.28218L6.03891 3.19542C5.81763 2.97874 5.52045 2.85742 5.21097 2.85742C4.9015 2.85742 4.60432 2.97874 4.38303 3.19542L3.90053 3.68965C3.32848 4.25499 2.96823 5.00036 2.88035 5.80043C2.79248 6.6005 2.98234 7.40647 3.41802 8.08283C5.68805 11.4334 8.5764 14.3188 11.9277 16.5836V16.5836Z" stroke="black" stroke-linecap="round" stroke-linejoin="round"/>
</svg>
