<svg width="130" height="130" viewBox="0 0 130 130" fill="none" xmlns="http://www.w3.org/2000/svg">
<g clip-path="url(#clip0_1202_34)">
<path d="M127.824 62.938H75.4013C75.4013 62.938 75.375 62.9117 75.4013 62.9029L123.895 42.7039C125 42.2391 125.491 40.9235 124.93 39.8359C124.43 38.8711 123.219 38.5203 122.22 38.9325L73.9278 59.0526C73.9278 59.0526 73.8927 59.035 73.9102 59.0175L110.888 22.0225C111.66 21.2507 111.782 20.0052 111.089 19.172C110.3 18.2335 108.897 18.1897 108.046 19.0317L70.6475 56.4301C70.6475 56.4301 70.6037 56.4301 70.6124 56.4126L90.0747 7.23503C90.4957 6.17377 89.9782 4.98094 88.917 4.55995C87.8557 4.13895 86.6629 4.65643 86.2419 5.71769L67.0954 54.0883C67.0954 54.0883 67.0603 54.1059 67.0603 54.0883V2.16553C67.0603 1.07796 66.2709 0.104409 65.1833 0.00793084C63.9642 -0.0973181 62.938 0.858693 62.938 2.06029V54.5883C62.938 54.5883 62.9117 54.6146 62.903 54.5883L42.6952 6.11237C42.2566 5.05988 41.0463 4.55995 40.0025 4.99849C38.95 5.43702 38.4589 6.64739 38.8887 7.6911L59.0438 56.0793C59.0438 56.0793 59.0263 56.1144 59.0087 56.0969L21.9523 19.0404C21.1016 18.1897 19.6983 18.2335 18.9089 19.1808C18.2072 20.014 18.3388 21.2682 19.1106 22.0313L56.4301 59.3508C56.4301 59.3508 56.4301 59.3946 56.4126 59.3859L7.23503 39.9148C6.17377 39.4938 4.98094 40.0113 4.55995 41.0726C4.13895 42.1338 4.65643 43.3266 5.71769 43.7476L54.0884 62.8942C54.0884 62.8942 54.1059 62.9293 54.0884 62.9293H2.16553C1.07796 62.9293 0.104409 63.7186 0.00793084 64.8062C-0.0973181 66.0253 0.858693 67.0515 2.06029 67.0515H54.5883C54.5883 67.0515 54.6146 67.0778 54.5883 67.0866L6.11237 87.2944C5.05988 87.7329 4.56872 88.9433 4.99849 89.987C5.33177 90.7764 6.09483 91.2588 6.90174 91.2588C7.16486 91.2588 7.43675 91.2061 7.69111 91.1009L56.0793 70.9457C56.0793 70.9457 56.1144 70.9633 56.0969 70.9808L19.1194 107.958C18.2774 108.8 18.2248 110.221 19.1018 111.019C19.4965 111.379 19.9965 111.554 20.4964 111.554C21.0226 111.554 21.5489 111.353 21.9523 110.949L59.3508 73.5506C59.3508 73.5506 59.3947 73.5506 59.3859 73.5682L39.9236 122.746C39.5026 123.807 40.0201 125 41.0813 125.421C41.3269 125.517 41.59 125.57 41.8356 125.57C42.6601 125.57 43.4319 125.079 43.7564 124.263L62.903 75.8924C62.903 75.8924 62.938 75.8749 62.938 75.8924V127.806C62.938 128.894 63.7274 129.868 64.815 129.964C66.0341 130.069 67.0603 129.113 67.0603 127.912V75.3837C67.0603 75.3837 67.0866 75.3574 67.0954 75.3837L87.2944 123.877C87.6277 124.667 88.3907 125.149 89.1976 125.149C89.4608 125.149 89.7327 125.096 89.987 124.991C91.0395 124.553 91.5307 123.342 91.1009 122.298L70.9457 73.9102C70.9457 73.9102 70.9633 73.8752 70.9808 73.8927L108.046 110.958C108.449 111.361 108.976 111.563 109.502 111.563C110.002 111.563 110.502 111.379 110.896 111.028C111.774 110.23 111.721 108.8 110.879 107.967L73.5682 70.6563C73.5682 70.6563 73.5682 70.6124 73.5857 70.6212L122.763 90.0835C123.009 90.18 123.272 90.2326 123.518 90.2326C124.342 90.2326 125.114 89.7414 125.438 88.9257C125.859 87.8645 125.342 86.6717 124.281 86.2507L75.91 67.1041C75.91 67.1041 75.8924 67.0691 75.91 67.0691H127.938C129.14 67.0691 130.096 66.0429 129.99 64.8237C129.894 63.7449 128.92 62.9468 127.833 62.9468L127.824 62.938Z" fill="white" fill-opacity="0.06"/>
</g>
<defs>
<clipPath id="clip0_1202_34">
<rect width="130" height="130" fill="white"/>
</clipPath>
</defs>
</svg>
