<svg width="60" height="60" viewBox="0 0 60 60" fill="none" xmlns="http://www.w3.org/2000/svg">
<mask id="mask0_1169_784" style="mask-type:luminance" maskUnits="userSpaceOnUse" x="0" y="0" width="60" height="60">
<path d="M0 3.57628e-06H60V60H0V3.57628e-06Z" fill="white"/>
</mask>
<g mask="url(#mask0_1169_784)">
<path d="M27.0605 4.32031C27.5459 4.32029 27.9394 3.9268 27.9394 3.44141C27.9394 2.95601 27.5459 2.56252 27.0605 2.5625H9.41797C8.93256 2.5625 8.53906 2.956 8.53906 3.44141C8.53906 3.92681 8.93256 4.32031 9.41797 4.32031H27.0605Z" fill="white"/>
<path d="M50.9792 4.32031C51.4646 4.32031 51.8581 3.92681 51.8581 3.44141C51.8581 2.956 51.4646 2.5625 50.9792 2.5625H32.5625C32.0771 2.5625 31.6836 2.956 31.6836 3.44141C31.6836 3.92681 32.0771 4.32031 32.5625 4.32031H50.9792Z" fill="white"/>
<path d="M8.14209 3.44271C8.14209 4.1604 7.56026 4.74219 6.84245 4.74219C6.12479 4.74218 5.54298 4.16043 5.54297 3.44271C5.54297 2.72499 6.12478 2.14324 6.84245 2.14323C7.56026 2.14323 8.14209 2.72502 8.14209 3.44271ZM9.89991 3.44271C9.89991 1.75408 8.53095 0.385422 6.84245 0.385422C5.15403 0.385431 3.78516 1.75412 3.78516 3.44271C3.78516 5.1313 5.15404 6.49999 6.84245 6.5C8.53095 6.5 9.8999 5.13134 9.89991 3.44271Z" fill="white"/>
<path d="M54.4585 3.44271C54.4585 4.1604 53.8767 4.74219 53.1589 4.74219C52.4412 4.74218 51.8594 4.16043 51.8594 3.44271C51.8594 2.72499 52.4412 2.14324 53.1589 2.14323C53.8767 2.14323 54.4585 2.72502 54.4585 3.44271ZM56.2163 3.44271C56.2163 1.75408 54.8474 0.385422 53.1589 0.385422C51.4704 0.385431 50.1016 1.75412 50.1016 3.44271C50.1016 5.1313 51.4704 6.49999 53.1589 6.5C54.8474 6.5 56.2163 5.13134 56.2163 3.44271Z" fill="white"/>
<path d="M55.5401 27.3437C55.5897 27.8265 56.0214 28.1777 56.5043 28.1281C56.9871 28.0786 57.3383 27.647 57.2888 27.1641C55.9675 14.2945 45.7538 4.06254 32.8926 2.71308C32.4098 2.66243 31.9774 3.01268 31.9267 3.49543C31.8761 3.97817 32.2264 4.41061 32.7091 4.46128C44.7434 5.72395 54.3039 15.3016 55.5401 27.3437Z" fill="white"/>
<path d="M3.4933 28.1595C3.97621 28.2085 4.40752 27.8568 4.45658 27.3739C5.67642 15.363 15.1766 5.79768 27.1577 4.47778C27.6402 4.42463 27.9883 3.99038 27.9351 3.50789C27.882 3.02542 27.4477 2.67739 26.9652 2.73053C14.1609 4.14111 4.01137 14.3599 2.70769 27.1962C2.65864 27.6791 3.01039 28.1104 3.4933 28.1595Z" fill="white"/>
<path d="M28.3125 54.8721H31.6826V58.2422H28.3125V54.8721ZM33.4404 54.5791C33.4403 53.7702 32.7845 53.1143 31.9756 53.1143H28.0196C27.2106 53.1143 26.5547 53.7702 26.5547 54.5791V58.5351C26.5547 59.3441 27.2106 60 28.0196 60H31.9756C32.7845 60 33.4404 59.3441 33.4404 58.5351V54.5791Z" fill="white"/>
<path d="M28.3125 1.75885H31.6826V5.12891H28.3125V1.75885ZM33.4404 1.46582C33.4403 0.656891 32.7845 0.00105681 31.9756 0.0010376H28.0196C27.2106 0.0010376 26.5547 0.65688 26.5547 1.46582V5.42185C26.5547 6.23081 27.2106 6.88672 28.0196 6.88672H31.9756C32.7845 6.8867 33.4404 6.2308 33.4404 5.42185V1.46582Z" fill="white"/>
<path d="M1.75781 28.3135H5.12787V31.6836H1.75781V28.3135ZM6.88568 28.0205C6.88566 27.2116 6.22983 26.5557 5.42089 26.5557H1.46487C0.655923 26.5557 1.92092e-05 27.2116 0 28.0205V31.9765C0 32.7855 0.655911 33.4414 1.46487 33.4414H5.42089C6.22984 33.4414 6.88568 32.7855 6.88568 31.9765V28.0205Z" fill="white"/>
<path d="M54.8711 28.3135H58.2411V31.6836H54.8711V28.3135ZM59.999 28.0205C59.9989 27.2116 59.3431 26.5557 58.5342 26.5557H54.5782C53.7692 26.5557 53.1133 27.2116 53.1133 28.0205V31.9765C53.1133 32.7855 53.7692 33.4414 54.5782 33.4414H58.5342C59.3431 33.4414 59.999 32.7855 59.999 31.9765V28.0205Z" fill="white"/>
<path d="M35.0156 30.7134V33.0898C35.0156 33.5753 35.4091 33.9688 35.8945 33.9688C36.3799 33.9688 36.7734 33.5753 36.7734 33.0898V30.7134C36.7734 29.09 37.4815 27.952 38.4442 27.1211C39.4001 26.2961 40.6018 25.7842 41.5763 25.4816L41.6699 25.453V25.4529C42.9991 25.0521 43.5405 23.4771 42.7687 22.3399L42.7686 22.34L39.8586 18.0516C39.5861 17.65 39.0395 17.5453 38.6379 17.8178C38.2362 18.0904 38.1316 18.637 38.4041 19.0387L41.3142 23.327L41.3244 23.3429C41.4223 23.5079 41.337 23.7174 41.1625 23.77C40.0584 24.1029 38.5462 24.7111 37.2957 25.7903C36.0212 26.8902 35.0156 28.4874 35.0156 30.7134Z" fill="white"/>
<path d="M23.2289 30.7135V33.0898C23.2289 33.5752 23.6224 33.9687 24.1078 33.9688C24.5932 33.9688 24.9867 33.5753 24.9867 33.0898V30.7135C24.9867 28.4875 23.9812 26.8903 22.7067 25.7904C21.4563 24.7112 19.9442 24.1028 18.8401 23.7699H18.84C18.6601 23.7157 18.5747 23.4945 18.6883 23.327L29.7591 7.01277C29.8753 6.84154 30.1278 6.84154 30.2439 7.01277L36.2347 15.8408C36.5072 16.2424 37.0538 16.3471 37.4554 16.0746C37.8571 15.802 37.9617 15.2555 37.6892 14.8538L31.6984 6.02571C30.8849 4.82679 29.1182 4.82679 28.3046 6.02571L17.2337 22.34C16.4622 23.477 17.003 25.0522 18.3326 25.453C19.3229 25.7515 20.5715 26.2695 21.5582 27.1211C22.5209 27.952 23.2289 29.0901 23.2289 30.7135Z" fill="white"/>
<path d="M29.1211 6.60761V21.6992C29.1211 22.1846 29.5146 22.5781 30 22.5781C30.4854 22.5781 30.8789 22.1846 30.8789 21.6992V6.60761C30.8789 6.1222 30.4854 5.7287 30 5.7287C29.5146 5.7287 29.1211 6.1222 29.1211 6.60761Z" fill="white"/>
<path d="M31.2086 24.1378C31.2086 24.806 30.6669 25.3477 29.9988 25.3477C29.3307 25.3476 28.7891 24.806 28.7891 24.1378C28.7891 23.4696 29.3307 22.928 29.9988 22.928C30.6669 22.928 31.2086 23.4696 31.2086 24.1378ZM32.9664 24.1378C32.9664 22.4988 31.6378 21.1702 29.9988 21.1702C28.3599 21.1702 27.0313 22.4988 27.0312 24.1378C27.0312 25.7767 28.3599 27.1055 29.9988 27.1055C31.6378 27.1055 32.9664 25.7768 32.9664 24.1378Z" fill="white"/>
<path d="M36.3464 42.4911V43.4688C36.3464 43.6306 36.2153 43.7617 36.0535 43.7617H23.9453C23.7835 43.7617 23.6524 43.6306 23.6523 43.4688V34.6124C23.6523 34.4506 23.7835 34.3195 23.9453 34.3195H27.9329C28.4183 34.3195 28.8118 33.926 28.8118 33.4406C28.8118 32.9552 28.4183 32.5617 27.9329 32.5617H23.9453C22.8127 32.5617 21.8945 33.4798 21.8945 34.6124V43.4688C21.8945 44.6014 22.8127 45.5195 23.9453 45.5195H36.0535C37.1861 45.5195 38.1042 44.6014 38.1043 43.4688V42.4911C38.1043 42.0057 37.7108 41.6122 37.2254 41.6122C36.7399 41.6122 36.3464 42.0057 36.3464 42.4911Z" fill="white"/>
<path d="M36.3483 34.6125V38.625C36.3483 39.1104 36.7419 39.5039 37.2273 39.5039C37.7127 39.5039 38.1062 39.1104 38.1062 38.625V34.6125C38.1062 33.4799 37.188 32.5618 36.0554 32.5617H31.8008C31.3154 32.5617 30.9219 32.9552 30.9219 33.4407C30.9219 33.926 31.3154 34.3196 31.8008 34.3196H36.0554C36.2172 34.3196 36.3483 34.4507 36.3483 34.6125Z" fill="white"/>
<path d="M36.399 37.9258C36.8844 37.9258 37.2779 37.5323 37.2779 37.0469C37.2779 36.5615 36.8844 36.168 36.399 36.168H22.7734C22.288 36.168 21.8945 36.5615 21.8945 37.0469C21.8945 37.5323 22.288 37.9258 22.7734 37.9258H36.399Z" fill="white"/>
<path d="M3.11252 36.9847C3.23579 37.4542 3.71634 37.7349 4.18583 37.6116C4.65529 37.4883 4.93597 37.0078 4.81274 36.5384C4.75533 36.3197 4.70068 36.0997 4.64889 35.8786C4.53818 35.406 4.06534 35.1126 3.59274 35.2233C3.12012 35.334 2.82672 35.8069 2.93742 36.2795C2.99273 36.5156 3.0511 36.7508 3.11252 36.9847Z" fill="white"/>
<path d="M4.96858 41.997C5.1811 42.4334 5.70719 42.6149 6.1436 42.4024C6.58001 42.1899 6.7615 41.6638 6.54898 41.2274C6.45313 41.0305 6.35975 40.8322 6.26883 40.6326C6.0676 40.1909 5.54635 39.996 5.10462 40.1972C4.66291 40.3984 4.46792 40.9196 4.66912 41.3613C4.7663 41.5747 4.86613 41.7866 4.96858 41.997ZM7.92854 46.7633C8.22539 47.1473 8.77736 47.2179 9.16141 46.9211C9.54545 46.6243 9.61617 46.0723 9.31934 45.6882C9.05142 45.3416 8.79213 44.9879 8.54188 44.6275C8.26502 44.2289 7.7174 44.1301 7.31871 44.407C6.92 44.6838 6.82118 45.2315 7.09804 45.6302C7.36537 46.0152 7.64236 46.393 7.92854 46.7633ZM11.7926 50.8298C12.161 51.1458 12.7159 51.1034 13.0319 50.735C13.348 50.3666 13.3056 49.8118 12.9372 49.4957C12.6043 49.2101 12.2789 48.9161 11.9611 48.6141C11.6093 48.2798 11.053 48.2939 10.7186 48.6457C10.3842 48.9975 10.3983 49.5539 10.7501 49.8883C11.0895 50.2108 11.4371 50.5248 11.7926 50.8298ZM16.4006 54.0299C16.8255 54.2646 17.3603 54.1103 17.595 53.6854C17.8296 53.2605 17.6754 52.7259 17.2505 52.4912C16.8663 52.279 16.4881 52.0571 16.1163 51.8261C15.704 51.5699 15.1621 51.6965 14.9059 52.1088C14.6497 52.5211 14.7763 53.063 15.1886 53.3192C15.5859 53.566 15.9901 53.8031 16.4006 54.0299ZM20.8965 56.0086C21.3566 56.1633 21.855 55.9158 22.0097 55.4557C22.1645 54.9956 21.9169 54.4972 21.4568 54.3425C21.2489 54.2725 21.0421 54.2 20.8365 54.125C20.3806 53.9584 19.8759 54.193 19.7094 54.649C19.5429 55.1049 19.7775 55.6095 20.2334 55.776C20.4531 55.8563 20.6742 55.9338 20.8965 56.0086Z" fill="white"/>
<path d="M23.8398 56.8199C24.3143 56.9223 24.782 56.6207 24.8845 56.1463C24.9869 55.6718 24.6853 55.2042 24.2109 55.1017C23.9885 55.0537 23.7676 55.003 23.5483 54.9495C23.0768 54.8345 22.6012 55.1236 22.4862 55.5951C22.3712 56.0667 22.6601 56.5423 23.1317 56.6573C23.3669 56.7147 23.603 56.7687 23.8398 56.8199Z" fill="white"/>
<path d="M35.1175 56.1458C35.2198 56.6204 35.6872 56.9222 36.1618 56.82C36.3991 56.7688 36.6354 56.7146 36.8703 56.6573C37.3419 56.5423 37.6309 56.0667 37.5159 55.5952C37.4009 55.1236 36.9253 54.8345 36.4538 54.9495C36.2342 55.0031 36.0134 55.0539 35.7917 55.1016C35.3171 55.2038 35.0153 55.6713 35.1175 56.1458Z" fill="white"/>
<path d="M54.824 40.3665C55.2769 40.541 55.7856 40.3154 55.9601 39.8624C56.0442 39.6441 56.1257 39.4245 56.2043 39.2035C56.3671 38.7462 56.1283 38.2435 55.671 38.0807C55.2137 37.918 54.7111 38.1567 54.5483 38.614C54.4747 38.8207 54.3986 39.0262 54.3199 39.2304C54.1454 39.6833 54.3711 40.192 54.824 40.3665ZM52.2003 45.1249C52.6081 45.3882 53.1521 45.2711 53.4154 44.8633C53.6692 44.4704 53.9132 44.0704 54.147 43.6639C54.3891 43.2432 54.2443 42.7059 53.8236 42.4638C53.4029 42.2217 52.8655 42.3665 52.6235 42.7873C52.4046 43.1677 52.1762 43.5419 51.9387 43.9098C51.6754 44.3176 51.7925 44.8616 52.2003 45.1249ZM48.665 49.2514C49.011 49.5919 49.5675 49.5874 49.9079 49.2414C50.2363 48.9077 50.5563 48.5656 50.8674 48.2155C51.1898 47.8526 51.1569 47.2971 50.7941 46.9747C50.4312 46.6523 49.8757 46.6851 49.5533 47.0479C49.262 47.3757 48.9625 47.696 48.655 48.0085C48.3145 48.3545 48.319 48.911 48.665 49.2514ZM44.3678 52.5772C44.6377 52.9806 45.1835 53.0889 45.587 52.8191C45.9766 52.5585 46.3592 52.2882 46.7344 52.0085C47.1235 51.7184 47.2038 51.1677 46.9137 50.7785C46.6235 50.3894 46.0729 50.309 45.6837 50.5992C45.3325 50.861 44.9744 51.114 44.6097 51.358C44.2062 51.6279 44.098 52.1737 44.3678 52.5772ZM40.1199 54.7172C40.3133 55.1624 40.8311 55.3665 41.2763 55.1731C41.4913 55.0796 41.7049 54.9835 41.917 54.8848C42.3571 54.6799 42.5478 54.1571 42.343 53.717C42.1382 53.277 41.6153 53.0863 41.1753 53.2911C40.9768 53.3835 40.7769 53.4734 40.5757 53.5608C40.1306 53.7543 39.9265 54.272 40.1199 54.7172Z" fill="white"/>
<path d="M55.8161 37.6116C56.2856 37.7349 56.766 37.4542 56.8893 36.9847C56.9507 36.7508 57.0091 36.5156 57.0644 36.2795C57.1751 35.8069 56.8818 35.334 56.4092 35.2233C55.9366 35.1126 55.4636 35.406 55.3529 35.8786C55.3011 36.0997 55.2466 36.3197 55.1892 36.5384C55.0659 37.0079 55.3466 37.4883 55.8161 37.6116Z" fill="white"/>
</g>
</svg>
