<svg width="60" height="60" viewBox="0 0 60 60" fill="none" xmlns="http://www.w3.org/2000/svg">
<path fill-rule="evenodd" clip-rule="evenodd" d="M36.9562 28.4191C36.348 27.0129 35.7141 25.609 35.0379 24.2203C40.8117 21.7195 45.4523 18.3234 48.9094 14.0168C52.282 18.0023 54.3996 23.0637 54.7113 28.6031C48.2742 27.5496 42.3539 27.491 36.9562 28.4191ZM43.7555 50.5992C42.6609 44.7188 41.0543 38.9684 38.9566 33.3586C43.6453 32.6953 48.8074 32.8676 54.4523 33.8496C53.3602 40.8141 49.3852 46.8305 43.7555 50.5992ZM14.7914 49.5258C19.7133 41.8043 25.998 36.7781 33.7852 34.4578C36.102 40.5094 37.8082 46.732 38.8934 53.107C30.7816 56.2418 21.6668 54.8953 14.7914 49.5258ZM5.25117 29.3613C14.8711 29.3473 23.1703 28.2422 30.1242 26.0543C30.7066 27.2414 31.2645 28.4344 31.7977 29.6355C23.352 32.2746 16.3898 37.6875 10.9582 45.8355C7.04883 41.1434 5.10234 35.4527 5.25117 29.3613ZM18.8191 7.9125C22.1484 12.2684 25.0957 16.759 27.6609 21.3668C21.5848 23.1551 14.3344 24.0738 5.94961 24.1313C7.68164 17.0438 12.4535 11.1492 18.8191 7.9125ZM45.1078 10.3992C42.0961 14.2828 37.9383 17.3543 32.6402 19.5973C30.102 14.9461 27.2004 10.4086 23.9227 6.00469C31.343 4.11211 39.0188 5.69648 45.1078 10.3992ZM30 0C13.432 0 0 13.432 0 30C0 46.568 13.432 60 30 60C46.5691 60 60 46.568 60 30C60 13.432 46.568 0 30 0Z" fill="#D31F61"/>
</svg>
