<svg width="57" height="60" viewBox="0 0 57 60" fill="none" xmlns="http://www.w3.org/2000/svg">
<path d="M36.5688 30.5448C43.2239 30.5448 48.6382 25.1305 48.6382 18.4755C48.6382 11.8206 43.2239 6.40629 36.5688 6.40629C29.9137 6.40629 24.4995 11.8206 24.4995 18.4755C24.4995 25.1305 29.9138 30.5448 36.5688 30.5448ZM29.47 26.1076C30.1939 22.7773 33.114 20.402 36.5688 20.402C40.0236 20.402 42.9437 22.7773 43.6677 26.1076C41.8046 27.8416 39.3086 28.9042 36.5688 28.9042C33.829 28.9042 31.3331 27.8416 29.47 26.1076ZM36.5688 18.7352C34.8968 18.7352 33.5365 17.3749 33.5365 15.7029C33.5365 14.0309 34.8968 12.6707 36.5688 12.6707C38.2408 12.6707 39.6011 14.0309 39.6011 15.7029C39.6011 17.3749 38.2408 18.7352 36.5688 18.7352ZM36.5688 8.0468C42.3192 8.0468 46.9976 12.725 46.9976 18.4754C46.9976 20.7916 46.2382 22.9336 44.9558 24.6662C44.4395 23.2271 43.5565 21.9312 42.3815 20.9188C41.5466 20.1993 40.5908 19.6485 39.5679 19.2829C40.5903 18.4249 41.2418 17.1388 41.2418 15.7028C41.2418 13.1262 39.1455 11.0299 36.5688 11.0299C33.9921 11.0299 31.8958 13.1262 31.8958 15.7028C31.8958 17.1388 32.5474 18.4249 33.5699 19.2829C32.5469 19.6485 31.5911 20.1993 30.7562 20.9188C29.5814 21.9313 28.6983 23.2271 28.1819 24.6662C26.8995 22.9336 26.1402 20.7916 26.1402 18.4754C26.1402 12.725 30.8184 8.0468 36.5688 8.0468ZM55.646 37.3416C54.8463 36.4336 53.2259 35.9869 51.4091 37.0358C49.1426 38.3443 43.5136 41.0892 39.2912 42.6933C39.4564 41.9078 39.3235 41.0842 38.8915 40.3571C38.2702 39.3118 37.1777 38.7129 35.9677 38.753C30.7442 38.7504 27.3641 37.3482 24.3814 36.1111C21.6698 34.9862 19.3282 34.0146 16.5576 34.6853C13.7604 35.3623 10.7826 37.6813 6.93981 42.1833C5.94735 41.7063 4.71946 41.8759 3.89786 42.6975L0.240205 46.3552C-0.0800684 46.6755 -0.0800684 47.1949 0.240205 47.5152L11.5472 58.8221C11.701 58.9759 11.9096 59.0624 12.1272 59.0624C12.3449 59.0624 12.5534 58.9759 12.7073 58.8221L16.365 55.1644C16.8671 54.6621 17.1438 53.9925 17.1438 53.2788C17.1438 52.9466 17.0815 52.6248 16.9667 52.3241C19.3016 51.3461 21.9045 51.2614 25.2311 51.4607C25.9788 51.5054 26.7636 51.5686 27.5945 51.6355C29.5658 51.7943 31.6047 51.9587 33.5741 51.9149C37.7126 51.8235 40.2033 50.6612 43.5307 48.8985C46.922 47.1021 54.1547 42.8121 55.5059 41.036C56.4614 39.7799 56.5163 38.3298 55.646 37.3417V37.3416ZM15.2048 54.0042L12.1271 57.0819L1.98032 46.9351L5.05802 43.8574C5.45798 43.4573 6.10895 43.4573 6.50903 43.8574L15.2049 52.5533C15.3972 52.7456 15.5032 53.0032 15.5032 53.2787C15.5032 53.5542 15.3971 53.8119 15.2048 54.0042ZM54.2002 40.0426C53.249 41.2929 47.1655 45.1165 42.7626 47.4486C39.6425 49.1014 37.3148 50.1911 33.5376 50.2746C31.652 50.3161 29.6561 50.1555 27.7261 50C26.8865 49.9324 26.0935 49.8686 25.329 49.8229C22.3774 49.6462 19.0022 49.5839 15.9511 50.9795L8.20228 43.2308C15.8014 34.3289 18.6464 35.5083 23.7527 37.6264C26.7247 38.8594 30.4234 40.3936 35.9818 40.3936C35.9921 40.3936 36.0024 40.3934 36.0127 40.393C36.622 40.3698 37.1687 40.67 37.4809 41.1953C37.7931 41.7205 37.7941 42.3459 37.4837 42.8681C36.9183 43.8196 34.8716 44.3133 32.0096 44.188C29.326 44.0709 26.6252 43.4298 25.5643 42.8777C25.1625 42.6688 24.6671 42.8248 24.4579 43.2267C24.2488 43.6286 24.4051 44.1239 24.8069 44.3331C26.2443 45.0812 29.2434 45.7095 31.9381 45.8271C32.2391 45.8402 32.5502 45.8478 32.867 45.8478C34.3025 45.8478 35.8516 45.6901 37.0734 45.1752C41.3394 43.9727 49.297 40.1494 52.2292 38.4565C53.237 37.8746 54.0685 38.0327 54.4146 38.4258C54.7556 38.813 54.6754 39.4174 54.1999 40.0425L54.2002 40.0426ZM16.7287 34.1325C19.2972 34.1325 21.5676 32.8345 22.9207 30.8607C23.0924 31.0938 23.2851 31.3201 23.5049 31.5397C24.8197 32.8545 26.4274 33.3294 28.421 32.9914C29.859 32.7478 31.2217 33.3123 32.0661 34.5014C33.2369 36.1499 34.7099 36.9512 36.569 36.9512C38.4282 36.9512 39.9011 36.1499 41.0718 34.5014C41.9164 33.3124 43.2791 32.7482 44.7172 32.9916C46.7104 33.3289 48.319 32.8541 49.6332 31.5397C50.9481 30.2249 51.4229 28.6167 51.0849 26.6236C50.8413 25.1856 51.4058 23.823 52.5949 22.9785C54.2434 21.8077 55.0447 20.3347 55.0447 18.4757C55.0447 16.6166 54.2434 15.1436 52.5949 13.9727C51.4059 13.1282 50.8414 11.7656 51.0852 10.3275C51.4225 8.33379 50.9477 6.72574 49.6332 5.41137C48.3183 4.09652 46.71 3.62145 44.7171 3.95965C43.2792 4.20293 41.9164 3.63879 41.072 2.4498C39.9013 0.801328 38.4283 0 36.5692 0C34.71 0 33.237 0.801328 32.0662 2.4498C31.2217 3.63879 29.8588 4.20328 28.421 3.95953C26.4276 3.62215 24.8192 4.09711 23.5049 5.41137C22.19 6.72621 21.7152 8.33437 22.0533 10.3276C22.2969 11.7655 21.7324 13.1282 20.5433 13.9727C18.8948 15.1436 18.0935 16.6165 18.0935 18.4757C18.0935 18.7458 18.1127 19.0079 18.1469 19.2633C17.6874 19.175 17.2138 19.1271 16.729 19.1271C12.5919 19.1271 9.22614 22.4929 9.22614 26.6299C9.22614 30.767 12.5919 34.1327 16.729 34.1327L16.7287 34.1325ZM19.7339 18.4755C19.7339 17.1505 20.2765 16.1743 21.4931 15.3102C23.2079 14.0923 24.0219 12.1271 23.6706 10.0533C23.4211 8.58223 23.7276 7.50844 24.6648 6.57141C25.6141 5.62207 26.6554 5.32477 28.1469 5.57707C30.2209 5.92852 32.1858 5.11453 33.4037 3.39973C34.2678 2.18309 35.244 1.64051 36.569 1.64051C37.8941 1.64051 38.8702 2.18309 39.7344 3.39973C40.9523 5.11453 42.9174 5.92852 44.9912 5.57719C46.4621 5.32781 47.536 5.63438 48.4732 6.57141C49.4226 7.52074 49.7199 8.56219 49.4675 10.0535C49.1161 12.1273 49.93 14.0924 51.6449 15.3103C52.8615 16.1745 53.4041 17.1506 53.4041 18.4757C53.4041 19.8007 52.8615 20.7769 51.6449 21.6409C49.93 22.8589 49.1159 24.8241 49.4674 26.8978C49.7168 28.3687 49.4102 29.4427 48.4732 30.3797C47.5238 31.329 46.4826 31.6262 44.9911 31.374C42.9177 31.0228 40.9522 31.8368 39.7343 33.5515C38.8702 34.7681 37.8941 35.3106 36.569 35.3106C35.244 35.3106 34.2678 34.7681 33.4037 33.5515C32.1858 31.8367 30.2205 31.0225 28.1468 31.374C26.6757 31.6235 25.6019 31.3168 24.6649 30.3798C24.2652 29.9801 23.9845 29.5611 23.8098 29.106C24.0819 28.3302 24.2315 27.4973 24.2315 26.6298C24.2315 23.6583 22.495 21.0848 19.9836 19.8705C19.8167 19.4542 19.7339 18.9955 19.7339 18.4755ZM16.7287 20.7676C19.9611 20.7676 22.5909 23.3973 22.5909 26.6298C22.5909 29.8623 19.9612 32.492 16.7287 32.492C13.4962 32.492 10.8665 29.8623 10.8665 26.6298C10.8665 23.3973 13.4963 20.7676 16.7287 20.7676ZM13.1456 26.4581C12.9191 26.0658 13.0535 25.5641 13.4458 25.3376C13.8381 25.1112 14.3399 25.2455 14.5664 25.6378L15.5796 27.3927L19.0214 23.9509C19.3418 23.6306 19.8611 23.6307 20.1814 23.9509C20.5017 24.2713 20.5017 24.7907 20.1814 25.1109L15.9836 29.3086C15.8288 29.4634 15.6198 29.5488 15.4037 29.5488C15.3681 29.5488 15.3323 29.5465 15.2966 29.5418C15.0437 29.5085 14.8207 29.3596 14.6933 29.1387L13.1456 26.4581Z" fill="white"/>
</svg>
