<svg width="50" height="50" viewBox="0 0 50 50" fill="none" xmlns="http://www.w3.org/2000/svg">
<mask id="mask0_1238_4" style="mask-type:luminance" maskUnits="userSpaceOnUse" x="0" y="0" width="50" height="50">
<path d="M0 2.98023e-06H50V50H0V2.98023e-06Z" fill="white"/>
</mask>
<g mask="url(#mask0_1238_4)">
<path d="M22.5497 3.60156C22.9542 3.60155 23.2822 3.27364 23.2822 2.86914C23.2822 2.46465 22.9542 2.13674 22.5497 2.13672H7.84766C7.44315 2.13672 7.11523 2.46464 7.11523 2.86914C7.11523 3.27365 7.44315 3.60156 7.84766 3.60156H22.5497Z" fill="white"/>
<path d="M42.484 3.60156C42.8885 3.60156 43.2164 3.27365 43.2164 2.86914C43.2164 2.46464 42.8885 2.13672 42.484 2.13672H27.1367C26.7322 2.13672 26.4043 2.46464 26.4043 2.86914C26.4043 3.27365 26.7322 3.60156 27.1367 3.60156H42.484Z" fill="white"/>
<path d="M6.78508 2.87023C6.78507 3.4683 6.30022 3.95313 5.70204 3.95313C5.10399 3.95312 4.61915 3.46832 4.61914 2.87023C4.61914 2.27213 5.10398 1.78734 5.70204 1.78733C6.30022 1.78733 6.78508 2.27215 6.78508 2.87023ZM8.24992 2.87023C8.24992 1.46304 7.10913 0.322487 5.70204 0.322487C4.29503 0.322494 3.1543 1.46306 3.1543 2.87023C3.1543 4.27739 4.29503 5.41796 5.70204 5.41797C7.10912 5.41797 8.24991 4.27742 8.24992 2.87023Z" fill="white"/>
<path d="M45.3827 2.87023C45.3827 3.4683 44.8979 3.95313 44.2997 3.95313C43.7016 3.95312 43.2168 3.46832 43.2168 2.87023C43.2168 2.27213 43.7016 1.78734 44.2997 1.78733C44.8979 1.78733 45.3827 2.27215 45.3827 2.87023ZM46.8476 2.87023C46.8476 1.46304 45.7068 0.322487 44.2997 0.322487C42.8927 0.322494 41.752 1.46306 41.752 2.87023C41.752 4.27739 42.8927 5.41796 44.2997 5.41797C45.7068 5.41797 46.8476 4.27742 46.8476 2.87023Z" fill="white"/>
<path d="M46.2854 22.7877C46.3267 23.1901 46.6865 23.4827 47.0888 23.4414C47.4912 23.4001 47.7839 23.0404 47.7426 22.6381C46.6416 11.9134 38.1301 3.38675 27.4125 2.2622C27.0102 2.21999 26.6498 2.51187 26.6076 2.91416C26.5654 3.31645 26.8572 3.67681 27.2595 3.71904C37.2881 4.77126 45.2552 12.7526 46.2854 22.7877Z" fill="white"/>
<path d="M2.91043 23.4649C3.31286 23.5058 3.67228 23.2127 3.71316 22.8103C4.7297 12.8012 12.6465 4.8301 22.6307 3.73018C23.0328 3.68589 23.3229 3.32402 23.2786 2.92194C23.2343 2.51988 22.8724 2.22985 22.4704 2.27414C11.8001 3.44962 3.34216 11.9653 2.25576 22.6622C2.21489 23.0646 2.50801 23.4241 2.91043 23.4649Z" fill="white"/>
<path d="M23.5957 45.7268H26.4041V48.5352H23.5957V45.7268ZM27.8689 45.4826C27.8689 44.8085 27.3224 44.2619 26.6483 44.2619H23.3516C22.6775 44.2619 22.1309 44.8085 22.1309 45.4826V48.7793C22.1309 49.4534 22.6775 50 23.3516 50H26.6483C27.3224 50 27.8689 49.4534 27.8689 48.7793V45.4826Z" fill="white"/>
<path d="M23.5957 1.46506H26.4041V4.27344H23.5957V1.46506ZM27.8689 1.22087C27.8689 0.546758 27.3224 0.000229631 26.6483 0.000213623H23.3516C22.6775 0.000213623 22.1309 0.546749 22.1309 1.22087V4.51755C22.1309 5.19169 22.6775 5.73828 23.3516 5.73828H26.6483C27.3224 5.73827 27.8689 5.19168 27.8689 4.51755V1.22087Z" fill="white"/>
<path d="M1.46484 23.594H4.27322V26.4023H1.46484V23.594ZM5.73807 23.3498C5.73805 22.6757 5.19152 22.1291 4.51741 22.1291H1.22073C0.546603 22.1291 1.60076e-05 22.6757 0 23.3498V26.6465C0 27.3206 0.546593 27.8672 1.22073 27.8672H4.51741C5.19153 27.8672 5.73807 27.3206 5.73807 26.6465V23.3498Z" fill="white"/>
<path d="M45.7266 23.594H48.5349V26.4023H45.7266V23.594ZM49.9998 23.3498C49.9998 22.6757 49.4532 22.1291 48.7791 22.1291H45.4824C44.8083 22.1291 44.2617 22.6757 44.2617 23.3498V26.6465C44.2617 27.3206 44.8083 27.8672 45.4824 27.8672H48.7791C49.4533 27.8672 49.9998 27.3206 49.9998 26.6465V23.3498Z" fill="white"/>
<path d="M29.1797 25.5958V27.5762C29.1797 27.9807 29.5076 28.3086 29.9121 28.3086C30.3166 28.3086 30.6445 27.9807 30.6445 27.5762V25.5958C30.6445 24.243 31.2346 23.2946 32.0368 22.6022C32.8335 21.9147 33.8348 21.4881 34.6469 21.2359L34.7249 21.2121V21.212C35.8326 20.878 36.2838 19.5655 35.6406 18.6179L35.6405 18.618L33.2155 15.0443C32.9884 14.7096 32.5329 14.6224 32.1982 14.8495C31.8635 15.0766 31.7763 15.5322 32.0034 15.8669L34.4285 19.4405L34.437 19.4537C34.5186 19.5912 34.4475 19.7658 34.3021 19.8096C33.382 20.087 32.1218 20.5939 31.0798 21.4932C30.0177 22.4098 29.1797 23.7408 29.1797 25.5958Z" fill="white"/>
<path d="M19.3561 25.5959V27.5762C19.3561 27.9807 19.6841 28.3086 20.0886 28.3086C20.4931 28.3086 20.821 27.9807 20.821 27.5762V25.5959C20.821 23.7409 19.983 22.4099 18.921 21.4933C17.8789 20.594 16.6188 20.087 15.6987 19.8096H15.6987C15.5488 19.7644 15.4776 19.5801 15.5723 19.4405L24.7979 5.84527C24.8948 5.70259 25.1052 5.70259 25.202 5.84527L30.1943 13.202C30.4214 13.5367 30.8769 13.6239 31.2116 13.3968C31.5463 13.1697 31.6335 12.7142 31.4063 12.3795L26.4141 5.02273C25.7361 4.02363 24.2639 4.02363 23.5859 5.02273L14.3601 18.618C13.7172 19.5655 14.1679 20.8781 15.2759 21.2121C16.1011 21.4609 17.1416 21.8925 17.9639 22.6022C18.7661 23.2946 19.3561 24.243 19.3561 25.5959Z" fill="white"/>
<path d="M24.2676 5.50374V18.0801C24.2676 18.4846 24.5955 18.8125 25 18.8125C25.4045 18.8125 25.7324 18.4846 25.7324 18.0801V5.50374C25.7324 5.09923 25.4045 4.77131 25 4.77131C24.5955 4.77131 24.2676 5.09923 24.2676 5.50374Z" fill="white"/>
<path d="M26.0085 20.1168C26.0085 20.6736 25.5571 21.125 25.0003 21.125C24.4436 21.125 23.9922 20.6736 23.9922 20.1168C23.9922 19.5599 24.4436 19.1086 25.0003 19.1086C25.5571 19.1086 26.0085 19.56 26.0085 20.1168ZM27.4733 20.1168C27.4733 18.751 26.3661 17.6438 25.0003 17.6438C23.6345 17.6438 22.5274 18.751 22.5273 20.1168C22.5273 21.4826 23.6345 22.5898 25.0003 22.5898C26.3661 22.5898 27.4733 21.4826 27.4733 20.1168Z" fill="white"/>
<path d="M30.2894 35.4099V36.2246C30.2893 36.3595 30.1801 36.4687 30.0452 36.4688H19.9551C19.8202 36.4687 19.711 36.3595 19.7109 36.2246V28.8443C19.7109 28.7095 19.8202 28.6002 19.9551 28.6002H23.2781C23.6825 28.6002 24.0105 28.2723 24.0105 27.8678C24.0105 27.4633 23.6826 27.1354 23.2781 27.1354H19.9551C19.0112 27.1354 18.2461 27.9005 18.2461 28.8443V36.2246C18.2461 37.1685 19.0112 37.9336 19.9551 37.9336H30.0452C30.9891 37.9336 31.7542 37.1685 31.7542 36.2246V35.4099C31.7542 35.0054 31.4263 34.6775 31.0218 34.6775C30.6173 34.6775 30.2894 35.0054 30.2894 35.4099Z" fill="white"/>
<path d="M30.2896 28.8457V32.1895C30.2896 32.594 30.6176 32.9219 31.0221 32.9219C31.4266 32.9219 31.7545 32.594 31.7545 32.1895V28.8457C31.7545 27.9018 30.9894 27.1368 30.0455 27.1367H26.5C26.0955 27.1367 25.7676 27.4647 25.7676 27.8692C25.7676 28.2737 26.0955 28.6016 26.5 28.6016H30.0455C30.1804 28.6016 30.2896 28.7109 30.2896 28.8457Z" fill="white"/>
<path d="M30.3331 31.6055C30.7376 31.6055 31.0656 31.2775 31.0656 30.873C31.0656 30.4685 30.7376 30.1406 30.3331 30.1406H18.9785C18.574 30.1406 18.2461 30.4685 18.2461 30.873C18.2461 31.2776 18.574 31.6055 18.9785 31.6055H30.3331Z" fill="white"/>
<path d="M2.59311 30.8206C2.69584 31.2118 3.0963 31.4457 3.48754 31.343C3.87876 31.2403 4.11266 30.8399 4.00996 30.4486C3.96213 30.2664 3.91658 30.0831 3.87342 29.8988C3.78117 29.505 3.38713 29.2605 2.9933 29.3527C2.59945 29.445 2.35495 29.8391 2.4472 30.2329C2.49329 30.4297 2.54193 30.6256 2.59311 30.8206Z" fill="white"/>
<path d="M4.14179 35.0001C4.31888 35.3638 4.7573 35.515 5.12097 35.3379C5.48465 35.1608 5.63588 34.7224 5.45879 34.3587C5.37891 34.1947 5.3011 34.0295 5.22533 33.8631C5.05764 33.495 4.62326 33.3326 4.25515 33.5003C3.88706 33.668 3.72457 34.1023 3.89223 34.4704C3.97322 34.6482 4.05641 34.8248 4.14179 35.0001ZM6.60842 38.972C6.85579 39.292 7.31577 39.3509 7.63581 39.1035C7.95584 38.8562 8.01478 38.3962 7.76742 38.0761C7.54415 37.7873 7.32807 37.4925 7.11954 37.1922C6.88882 36.86 6.43247 36.7777 6.10023 37.0084C5.76797 37.2391 5.68562 37.6955 5.91633 38.0278C6.13911 38.3486 6.36994 38.6634 6.60842 38.972ZM9.8285 42.3607C10.1355 42.6241 10.5979 42.5888 10.8613 42.2818C11.1246 41.9748 11.0893 41.5124 10.7823 41.249C10.5049 41.011 10.2337 40.766 9.9689 40.5144C9.67571 40.2357 9.21216 40.2475 8.9335 40.5407C8.65483 40.8339 8.66656 41.2975 8.95975 41.5762C9.24254 41.845 9.53224 42.1066 9.8285 42.3607ZM13.6685 45.0275C14.0226 45.2231 14.4682 45.0945 14.6638 44.7405C14.8593 44.3864 14.7308 43.9408 14.3767 43.7453C14.0566 43.5684 13.7414 43.3835 13.4315 43.191C13.0879 42.9775 12.6363 43.083 12.4229 43.4266C12.2094 43.7702 12.3149 44.2218 12.6585 44.4353C12.9896 44.641 13.3264 44.8385 13.6685 45.0275ZM17.4151 46.6764C17.7985 46.8054 18.2138 46.5991 18.3428 46.2157C18.4717 45.8323 18.2654 45.4169 17.882 45.288C17.7087 45.2297 17.5364 45.1693 17.3651 45.1067C16.9851 44.968 16.5646 45.1635 16.4258 45.5434C16.287 45.9234 16.4825 46.3438 16.8625 46.4826C17.0456 46.5495 17.2298 46.6141 17.4151 46.6764Z" fill="white"/>
<path d="M19.8639 47.3466C20.2593 47.432 20.6491 47.1807 20.7344 46.7853C20.8198 46.3899 20.5685 46.0002 20.1731 45.9148C19.9878 45.8748 19.8037 45.8326 19.621 45.788C19.228 45.6922 18.8317 45.933 18.7359 46.326C18.64 46.719 18.8809 47.1153 19.2738 47.2112C19.4698 47.259 19.6666 47.304 19.8639 47.3466Z" fill="white"/>
<path d="M29.2646 46.7849C29.3498 47.1804 29.7394 47.4319 30.1348 47.3467C30.3326 47.3041 30.5295 47.2589 30.7252 47.2112C31.1182 47.1153 31.3591 46.719 31.2633 46.326C31.1674 45.9331 30.7711 45.6922 30.3781 45.788C30.1952 45.8327 30.0112 45.875 29.8264 45.9148C29.431 45.9999 29.1794 46.3895 29.2646 46.7849Z" fill="white"/>
<path d="M45.6873 33.6394C46.0648 33.7848 46.4886 33.5968 46.6341 33.2193C46.7042 33.0374 46.772 32.8544 46.8376 32.6702C46.9732 32.2892 46.7743 31.8703 46.3932 31.7346C46.0121 31.599 45.5932 31.7979 45.4576 32.179C45.3963 32.3512 45.3328 32.5225 45.2672 32.6926C45.1218 33.0701 45.3099 33.494 45.6873 33.6394ZM43.5009 37.6047C43.8407 37.8241 44.2941 37.7266 44.5135 37.3868C44.725 37.0593 44.9283 36.726 45.1232 36.3873C45.3249 36.0367 45.2043 35.5889 44.8537 35.3871C44.5031 35.1854 44.0553 35.3061 43.8535 35.6567C43.6711 35.9737 43.4808 36.2856 43.2829 36.5921C43.0635 36.9319 43.1611 37.3853 43.5009 37.6047ZM40.5548 41.0435C40.8432 41.3272 41.3069 41.3235 41.5906 41.0351C41.8643 40.757 42.1309 40.472 42.3901 40.1802C42.6588 39.8778 42.6314 39.4149 42.329 39.1462C42.0266 38.8776 41.5637 38.9049 41.2951 39.2072C41.0523 39.4804 40.8027 39.7474 40.5465 40.0078C40.2628 40.2961 40.2665 40.7598 40.5548 41.0435ZM36.9738 43.815C37.1987 44.1512 37.6536 44.2414 37.9898 44.0165C38.3145 43.7994 38.6333 43.5741 38.9459 43.3411C39.2702 43.0993 39.3371 42.6404 39.0954 42.3161C38.8536 41.9918 38.3947 41.9248 38.0704 42.1666C37.7777 42.3848 37.4793 42.5957 37.1754 42.799C36.8392 43.0239 36.7489 43.4788 36.9738 43.815ZM33.4339 45.5983C33.5951 45.9693 34.0266 46.1394 34.3976 45.9782C34.5768 45.9004 34.7547 45.8202 34.9315 45.738C35.2982 45.5673 35.4572 45.1316 35.2865 44.7648C35.1158 44.3981 34.6801 44.2392 34.3134 44.4099C34.148 44.4869 33.9814 44.5618 33.8138 44.6347C33.4428 44.7959 33.2727 45.2273 33.4339 45.5983Z" fill="white"/>
<path d="M46.5134 31.343C46.9046 31.4457 47.305 31.2118 47.4078 30.8206C47.4589 30.6256 47.5076 30.4297 47.5537 30.2329C47.6459 29.8391 47.4015 29.445 47.0076 29.3527C46.6138 29.2605 46.2197 29.505 46.1275 29.8988C46.0843 30.0831 46.0388 30.2665 45.991 30.4486C45.8883 30.8399 46.1222 31.2403 46.5134 31.343Z" fill="white"/>
</g>
</svg>
