<svg width="24" height="24" viewBox="0 0 24 24" fill="none" xmlns="http://www.w3.org/2000/svg">
<path fill-rule="evenodd" clip-rule="evenodd" d="M2.94558 4.61067L9.42933 11.0972C10.8435 12.5086 13.155 12.5099 14.5703 11.0972L21.0541 4.61067C21.1194 4.54537 21.1099 4.43784 21.0341 4.38502C20.3728 3.92381 19.5682 3.65039 18.7015 3.65039H5.29823C4.43147 3.65039 3.62686 3.92386 2.96555 4.38502C2.8898 4.43784 2.88028 4.54537 2.94558 4.61067ZM1.21289 7.73569C1.21289 7.05413 1.38188 6.41016 1.67953 5.84414C1.72608 5.75559 1.84406 5.73769 1.9148 5.80842L8.31647 12.2101C10.3437 14.2402 13.6548 14.2414 15.6832 12.2101L22.0849 5.80842C22.1557 5.73769 22.2736 5.75559 22.3202 5.84414C22.6178 6.41016 22.7868 7.05417 22.7868 7.73569V16.264C22.7868 18.5183 20.953 20.3493 18.7015 20.3493H5.29823C3.04673 20.3493 1.21289 18.5183 1.21289 16.264V7.73569Z" fill="#CFF85E"/>
</svg>
