<svg width="40" height="40" viewBox="0 0 40 40" fill="none" xmlns="http://www.w3.org/2000/svg">
<path d="M22.9054 0C23.2133 0 23.4732 0.228901 23.5121 0.53436L24.0291 4.59693C25.674 4.99884 27.2555 5.64736 28.6672 6.54718L31.9095 4.04196L31.9328 4.02477C32.177 3.85372 32.5112 3.88348 32.7213 4.09897L35.9018 7.36089C36.115 7.57963 36.1341 7.92218 35.9466 8.16332L33.3616 11.4867C34.2612 12.8993 34.9081 14.4913 35.251 16.2089L39.2121 16.7224C39.517 16.7619 39.7451 17.0216 39.7451 17.3289V21.9772C39.7451 22.2846 39.517 22.5442 39.2121 22.5837L35.2337 23.0994C34.8294 24.8147 34.1804 26.3479 33.3461 27.8017L35.8662 31.0628C36.0526 31.304 36.0329 31.6456 35.8202 31.8638L32.6398 35.1257C32.4207 35.3505 32.0668 35.3728 31.8211 35.1773L28.5802 32.5993C27.1699 33.4973 25.5903 34.1447 23.9476 34.5461L23.4306 38.6087C23.3917 38.9142 23.1317 39.1431 22.8238 39.1431H18.2571C17.9492 39.1431 17.6893 38.9142 17.6504 38.6087L17.1334 34.5461C15.4885 34.1441 13.9069 33.4956 12.4952 32.5958L9.25312 35.1011C9.00729 35.2911 8.65807 35.2665 8.44119 35.0441L5.26085 31.7822C5.04809 31.564 5.02847 31.2225 5.21481 30.9813L7.72003 27.7391C6.82009 26.3261 6.1729 24.7337 5.82998 23.0156L1.8689 22.5022C1.56406 22.4626 1.33594 22.203 1.33594 21.8956V17.2474C1.33594 16.9401 1.56406 16.6804 1.8689 16.6408L5.84732 16.1251C6.25201 14.4099 6.90655 12.8723 7.80705 11.411L5.29632 8.16177C5.10999 7.92062 5.12962 7.5791 5.34236 7.36089L8.52277 4.09897L8.54346 4.07867C8.76135 3.87518 9.09647 3.85794 9.33462 4.04196L12.5764 6.54687C13.9788 5.64717 15.5092 4.99595 17.2153 4.5932L17.732 0.53436L17.7362 0.505974C17.7871 0.214823 18.0404 0 18.3387 0H22.9054ZM18.3746 5.17398C18.3416 5.43283 18.1481 5.64229 17.8926 5.69551C16.0128 6.08715 14.3755 6.78976 12.8942 7.80332C12.6752 7.95311 12.3847 7.94467 12.1748 7.78248L9.01802 5.34314L6.58909 7.83428L9.03691 11.0019C9.19585 11.2076 9.20735 11.4913 9.06569 11.7093C8.04436 13.2805 7.34121 14.9228 6.94987 16.8013C6.89675 17.0562 6.68801 17.2497 6.42974 17.2831L2.55911 17.7848V21.3582L6.42974 21.8599C6.697 21.8946 6.91006 22.1001 6.95438 22.3659C7.26595 24.2353 7.96637 25.9459 8.97618 27.4218C9.12595 27.6407 9.11751 27.9312 8.95533 28.1411L6.50751 31.3087L8.93644 33.7999L12.0933 31.3606L12.1132 31.3458C12.3213 31.198 12.6005 31.1947 12.8126 31.3397C14.2436 32.3189 15.9017 33.0114 17.647 33.4109L17.8163 33.4486L17.8397 33.4542C18.0811 33.5167 18.2614 33.7202 18.2931 33.9691L18.7959 37.9199H22.2851L22.788 33.9691C22.8207 33.7122 23.0117 33.5037 23.2648 33.4486C25.0721 33.0557 26.7913 32.3505 28.2684 31.3397L28.2894 31.3261C28.5082 31.189 28.791 31.204 28.9945 31.3659L32.1499 33.8758L34.5734 31.3902L32.1257 28.2226C31.9717 28.0233 31.9556 27.75 32.0852 27.534C33.0345 25.9517 33.7396 24.3029 34.1312 22.4233L34.1365 22.3996C34.1973 22.1564 34.4011 21.9739 34.6513 21.9415L38.5218 21.4397V17.8663L34.6513 17.3646C34.384 17.33 34.1709 17.1245 34.1266 16.8587C33.815 14.9892 33.1147 13.2787 32.1049 11.8028C31.9547 11.5833 31.9636 11.2919 32.1269 11.082L34.6537 7.83303L32.226 5.34314L29.0693 7.78248C28.8594 7.94467 28.5689 7.95311 28.3499 7.80332C26.8728 6.79262 25.1536 6.08732 23.3463 5.69442C23.0932 5.6394 22.9023 5.4309 22.8695 5.17398L22.3667 1.22317H18.8774L18.3746 5.17398Z" fill="white"/>
<path d="M23.434 13.2544C23.434 11.6259 22.1494 10.2779 20.4575 10.2779C18.829 10.2779 17.481 11.5625 17.481 13.2544C17.481 13.8718 17.691 14.5371 18.0677 14.9766C18.2875 15.2331 18.2578 15.6192 18.0013 15.839C17.7449 16.0588 17.3588 16.0291 17.139 15.7726C16.537 15.0704 16.2578 14.1047 16.2578 13.2544C16.2578 10.8689 18.1717 9.0547 20.4575 9.05469C22.843 9.05469 24.6572 10.9686 24.6572 13.2544C24.6572 14.1943 24.3735 15.0756 23.7761 15.7726C23.5563 16.0291 23.1701 16.0588 22.9136 15.839C22.6572 15.6192 22.6275 15.233 22.8473 14.9766C23.2284 14.5319 23.434 13.9454 23.434 13.2544Z" fill="white"/>
<path d="M21.8828 18.1506C21.8828 17.8129 22.1566 17.5391 22.4944 17.5391C22.8322 17.5391 23.106 17.8129 23.106 18.1506C23.106 19.5714 23.2637 20.9108 23.5791 22.2511C23.889 23.5685 24.4351 24.8234 25.0801 26.1135C25.2312 26.4156 25.1087 26.783 24.8066 26.934C24.5045 27.0851 24.1371 26.9626 23.986 26.6605C23.3263 25.3411 22.7307 23.9865 22.3883 22.5312C22.0513 21.0989 21.8828 19.6656 21.8828 18.1506Z" fill="white"/>
<path d="M17.972 18.1506C17.972 17.8129 18.2458 17.5391 18.5835 17.5391C18.9213 17.5391 19.1951 17.8129 19.1951 18.1506C19.1951 21.1085 18.4349 24.0638 16.9996 26.6811C16.8372 26.9773 16.4654 27.0857 16.1692 26.9233C15.8731 26.7609 15.7646 26.3891 15.927 26.0929C17.2643 23.6543 17.972 20.9011 17.972 18.1506Z" fill="white"/>
<path d="M25.3112 27.4451C25.3112 27.2121 25.0958 26.9966 24.8627 26.9966H16.2186C15.9856 26.9966 15.7701 27.2121 15.77 27.4451V29.0354H25.3112V27.4451ZM26.5344 29.6469C26.5344 29.9847 26.2606 30.2585 25.9228 30.2585H15.1585C14.8207 30.2585 14.5469 29.9847 14.5469 29.6469V27.4451C14.5469 26.5365 15.31 25.7734 16.2186 25.7734H24.8627C25.7713 25.7735 26.5344 26.5365 26.5344 27.4451V29.6469Z" fill="white"/>
<path d="M24.4965 16.7635C24.4965 16.3436 24.1762 15.9888 23.7218 15.9888H17.4426C16.9224 15.9888 16.6302 16.3899 16.6642 16.696C16.6667 16.7184 16.6679 16.741 16.6679 16.7635C16.6679 17.1834 16.9882 17.5382 17.4426 17.5382H23.7218C24.1418 17.5382 24.4965 17.2179 24.4965 16.7635ZM25.7198 16.7635C25.7198 17.9401 24.7698 18.7615 23.7218 18.7615H17.4426C16.2784 18.7614 15.4622 17.8313 15.4451 16.7965C15.3397 15.6514 16.3429 14.7656 17.4426 14.7656H23.7218C24.8984 14.7656 25.7198 15.7156 25.7198 16.7635Z" fill="white"/>
<path d="M11.1211 19.6173C11.1211 17.0021 12.1689 14.6466 13.9098 12.9057C14.1486 12.6669 14.5358 12.6669 14.7747 12.9057C15.0135 13.1445 15.0135 13.5318 14.7747 13.7706C13.2537 15.2916 12.3443 17.3397 12.3443 19.6173C12.3443 21.5929 13.027 23.4107 14.2392 24.8502C14.4568 25.1086 14.4237 25.4945 14.1653 25.712C13.907 25.9296 13.5211 25.8965 13.3036 25.6382C11.9062 23.9788 11.1211 21.8822 11.1211 19.6173Z" fill="white"/>
<path d="M28.7345 19.6174C28.7345 17.3397 27.8251 15.2917 26.3041 13.7707C26.0653 13.5318 26.0653 13.1445 26.3041 12.9057C26.543 12.6669 26.9302 12.6669 27.1691 12.9057C28.91 14.6466 29.9578 17.0021 29.9578 19.6174C29.9578 21.8822 29.1726 23.9789 27.7753 25.6382C27.5577 25.8966 27.1718 25.9296 26.9135 25.7121C26.6551 25.4945 26.6221 25.1086 26.8397 24.8502C28.0519 23.4107 28.7345 21.593 28.7345 19.6174Z" fill="white"/>
</svg>
