<svg width="20" height="20" viewBox="0 0 20 20" fill="none" xmlns="http://www.w3.org/2000/svg">
<g clip-path="url(#clip0_493_1211)">
<path d="M12.1434 7.14279C12.9324 7.14279 13.572 6.50319 13.572 5.71422C13.572 4.92524 12.9324 4.28564 12.1434 4.28564C11.3544 4.28564 10.7148 4.92524 10.7148 5.71422C10.7148 6.50319 11.3544 7.14279 12.1434 7.14279Z" stroke="white" stroke-linecap="round" stroke-linejoin="round"/>
<path d="M6.42913 14.286C6.82362 14.286 7.14342 13.9662 7.14342 13.5717C7.14342 13.1772 6.82362 12.8574 6.42913 12.8574C6.03464 12.8574 5.71484 13.1772 5.71484 13.5717C5.71484 13.9662 6.03464 14.286 6.42913 14.286Z" stroke="white" stroke-linecap="round" stroke-linejoin="round"/>
<path d="M6.42857 9.28585C7.21755 9.28585 7.85714 8.64626 7.85714 7.85728C7.85714 7.0683 7.21755 6.42871 6.42857 6.42871C5.63959 6.42871 5 7.0683 5 7.85728C5 8.64626 5.63959 9.28585 6.42857 9.28585Z" stroke="white" stroke-linecap="round" stroke-linejoin="round"/>
<path d="M13.6001 17.5429C13.5842 17.2658 13.4879 16.9994 13.323 16.7761C13.1581 16.5529 12.9317 16.3825 12.6716 16.2858C12.0254 16.0734 11.4762 15.6375 11.1227 15.0565C10.7692 14.4754 10.6346 13.7873 10.7431 13.1159C10.8515 12.4444 11.196 11.8337 11.7144 11.3935C12.2329 10.9533 12.8914 10.7125 13.5716 10.7144H16.243C16.7012 10.7156 17.1529 10.6067 17.5602 10.3967C17.9674 10.1868 18.3182 9.88195 18.583 9.50798C18.8477 9.134 19.0186 8.70185 19.0812 8.24796C19.1439 7.79408 19.0965 7.33179 18.943 6.90007C18.3748 5.29574 17.3766 3.87843 16.0574 2.803C14.7383 1.72756 13.1489 1.03536 11.463 0.802033C9.77711 0.568705 8.0595 0.80322 6.49785 1.47996C4.9362 2.15669 3.59058 3.24962 2.60801 4.63932C1.62544 6.02903 1.04371 7.66205 0.926388 9.35998C0.809066 11.0579 1.16066 12.7554 1.94276 14.2671C2.72485 15.7787 3.90737 17.0463 5.3611 17.9314C6.81483 18.8165 8.48386 19.285 10.1858 19.2858C11.0264 19.2881 11.8631 19.1727 12.6716 18.9429C12.9685 18.8597 13.2257 18.6726 13.3961 18.4156C13.5666 18.1586 13.639 17.8489 13.6001 17.5429V17.5429Z" stroke="white" stroke-linecap="round" stroke-linejoin="round"/>
</g>
<defs>
<clipPath id="clip0_493_1211">
<rect width="20" height="20" fill="white"/>
</clipPath>
</defs>
</svg>
