<svg width="50" height="50" viewBox="0 0 50 50" fill="none" xmlns="http://www.w3.org/2000/svg">
<path d="M32.0326 25.8446C37.5785 25.8446 42.0904 21.3327 42.0904 15.7869C42.0904 10.2411 37.5785 5.7292 32.0326 5.7292C26.4867 5.7292 21.9749 10.2411 21.9749 15.7869C21.9749 21.3327 26.4868 25.8446 32.0326 25.8446ZM26.117 22.147C26.7202 19.3717 29.1536 17.3923 32.0326 17.3923C34.9116 17.3923 37.345 19.3717 37.9483 22.147C36.3958 23.592 34.3158 24.4774 32.0326 24.4774C29.7494 24.4774 27.6695 23.592 26.117 22.147ZM32.0326 16.0033C30.6392 16.0033 29.5056 14.8697 29.5056 13.4764C29.5056 12.083 30.6392 10.9495 32.0326 10.9495C33.426 10.9495 34.5595 12.083 34.5595 13.4764C34.5595 14.8697 33.426 16.0033 32.0326 16.0033ZM32.0326 7.09629C36.8246 7.09629 40.7232 10.9948 40.7232 15.7868C40.7232 17.717 40.0904 19.502 39.0218 20.9458C38.5915 19.7466 37.8556 18.6666 36.8765 17.8229C36.1807 17.2233 35.3843 16.7644 34.5318 16.4597C35.3839 15.7447 35.9267 14.6729 35.9267 13.4763C35.9267 11.3291 34.1799 9.58223 32.0326 9.58223C29.8853 9.58223 28.1385 11.3291 28.1385 13.4763C28.1385 14.6729 28.6814 15.7447 29.5335 16.4597C28.681 16.7644 27.8845 17.2233 27.1887 17.8229C26.2097 18.6667 25.4738 19.7466 25.0435 20.9458C23.9749 19.502 23.3421 17.717 23.3421 15.7868C23.3421 10.9948 27.2406 7.09629 32.0326 7.09629ZM47.9303 31.5086C47.2638 30.752 45.9136 30.3797 44.3995 31.2538C42.5107 32.3442 37.8199 34.6316 34.3012 35.9684C34.4389 35.3138 34.3282 34.6274 33.9681 34.0216C33.4505 33.1505 32.54 32.6514 31.5317 32.6848C27.1788 32.6826 24.362 31.5142 21.8764 30.4832C19.6168 29.5458 17.6654 28.7361 15.3566 29.295C13.0256 29.8592 10.5441 31.7917 7.34177 35.5434C6.51472 35.1459 5.49148 35.2872 4.80681 35.9719L1.75876 39.0199C1.49187 39.2869 1.49187 39.7197 1.75876 39.9866L11.1812 49.4091C11.3094 49.5372 11.4833 49.6093 11.6646 49.6093C11.846 49.6093 12.0198 49.5372 12.148 49.4091L15.1961 46.3609C15.6145 45.9424 15.8451 45.3844 15.8451 44.7896C15.8451 44.5128 15.7931 44.2446 15.6975 43.994C17.6432 43.179 19.8124 43.1085 22.5845 43.2745C23.2076 43.3118 23.8616 43.3645 24.554 43.4202C26.1968 43.5525 27.8959 43.6895 29.537 43.653C32.9857 43.5769 35.0613 42.6083 37.8342 41.1394C40.6602 39.6424 46.6875 36.0674 47.8136 34.5873C48.6097 33.5405 48.6555 32.3321 47.9303 31.5087V31.5086ZM14.2293 45.3941L11.6645 47.9589L3.20886 39.5032L5.77361 36.9385C6.10691 36.6051 6.64939 36.6051 6.98279 36.9385L14.2294 44.1851C14.3896 44.3453 14.4779 44.56 14.4779 44.7895C14.4779 45.0191 14.3895 45.2339 14.2293 45.3941ZM46.7255 33.7595C45.9328 34.8014 40.8632 37.9877 37.1941 39.9312C34.594 41.3085 32.6543 42.2165 29.5066 42.2861C27.9352 42.3207 26.272 42.1869 24.6636 42.0573C23.964 42.001 23.3032 41.9478 22.6661 41.9097C20.2064 41.7625 17.3937 41.7105 14.8511 42.8735L8.39382 36.4163C14.7264 28.998 17.0972 29.9809 21.3525 31.746C23.8292 32.7734 26.9114 34.052 31.5434 34.052C31.552 34.052 31.5606 34.0518 31.5692 34.0515C32.0769 34.0321 32.5325 34.2823 32.7927 34.72C33.0528 35.1577 33.0537 35.6789 32.795 36.1141C32.3238 36.9069 30.6182 37.3184 28.2333 37.214C25.997 37.1164 23.7463 36.5821 22.8622 36.1221C22.5273 35.9479 22.1145 36.0779 21.9402 36.4129C21.7659 36.7478 21.8962 37.1605 22.231 37.3349C23.4289 37.9583 25.9281 38.4818 28.1737 38.5799C28.4245 38.5908 28.6838 38.5972 28.9477 38.5972C30.144 38.5972 31.4349 38.4657 32.4531 38.0366C36.0081 37.0346 42.6394 33.8484 45.0829 32.4377C45.9227 31.9528 46.6157 32.0846 46.9041 32.4121C47.1883 32.7348 47.1215 33.2385 46.7252 33.7594L46.7255 33.7595ZM15.4992 28.8344C17.6396 28.8344 19.5316 27.7527 20.6592 26.1079C20.8022 26.3021 20.9629 26.4907 21.146 26.6737C22.2417 27.7693 23.5814 28.1651 25.2427 27.8835C26.4411 27.6805 27.5766 28.1509 28.2803 29.1418C29.256 30.5155 30.4835 31.1833 32.0328 31.1833C33.5821 31.1833 34.8095 30.5155 35.7851 29.1418C36.4889 28.151 37.6245 27.6808 38.8229 27.8836C40.484 28.1647 41.8244 27.769 42.9196 26.6737C44.0153 25.578 44.411 24.2379 44.1294 22.577C43.9263 21.3786 44.3968 20.2432 45.3877 19.5394C46.7614 18.5637 47.4292 17.3362 47.4292 15.787C47.4292 14.2378 46.7614 13.0103 45.3877 12.0346C44.3969 11.3308 43.9264 10.1953 44.1296 8.99687C44.4107 7.33545 44.015 5.99541 42.9196 4.9001C41.8238 3.80439 40.4836 3.4085 38.8228 3.69033C37.6246 3.89307 36.4889 3.42295 35.7852 2.43213C34.8096 1.0584 33.5822 0.390625 32.0329 0.390625C30.4836 0.390625 29.2561 1.0584 28.2804 2.43213C27.5766 3.42295 26.4409 3.89336 25.2427 3.69023C23.5816 3.40908 22.2413 3.80488 21.146 4.9001C20.0503 5.9958 19.6546 7.33594 19.9363 8.99697C20.1393 10.1952 19.6689 11.3308 18.678 12.0346C17.3043 13.0103 16.6365 14.2377 16.6365 15.787C16.6365 16.0121 16.6525 16.2306 16.681 16.4434C16.2981 16.3698 15.9034 16.3299 15.4994 16.3299C12.0518 16.3299 9.24705 19.1347 9.24705 22.5822C9.24705 26.0298 12.0518 28.8346 15.4994 28.8346L15.4992 28.8344ZM18.0035 15.7869C18.0035 14.6827 18.4556 13.8692 19.4695 13.1491C20.8985 12.1342 21.5768 10.4966 21.2841 8.76836C21.0761 7.54248 21.3316 6.64766 22.1126 5.8668C22.9037 5.07568 23.7715 4.82793 25.0143 5.03818C26.7427 5.33105 28.3801 4.65273 29.395 3.22373C30.1151 2.20986 30.9286 1.75771 32.0328 1.75771C33.137 1.75771 33.9505 2.20986 34.6706 3.22373C35.6855 4.65273 37.3231 5.33105 39.0512 5.03828C40.277 4.83047 41.1719 5.08594 41.9529 5.8668C42.7441 6.65791 42.9919 7.52578 42.7815 8.76855C42.4886 10.4967 43.167 12.1343 44.596 13.1492C45.6098 13.8693 46.062 14.6828 46.062 15.787C46.062 16.8912 45.6098 17.7047 44.596 18.4247C43.167 19.4397 42.4886 21.0773 42.7814 22.8055C42.9892 24.0312 42.7338 24.9262 41.9529 25.707C41.1618 26.4981 40.2941 26.7458 39.0511 26.5356C37.3233 26.243 35.6854 26.9213 34.6705 28.3502C33.9505 29.3641 33.137 29.8161 32.0328 29.8161C30.9286 29.8161 30.1151 29.3641 29.395 28.3502C28.3801 26.9212 26.7424 26.2427 25.0142 26.5356C23.7884 26.7436 22.8935 26.488 22.1127 25.7071C21.7796 25.374 21.5457 25.0249 21.4001 24.6456C21.6268 23.9991 21.7515 23.3051 21.7515 22.5821C21.7515 20.1059 20.3045 17.9613 18.2116 16.9494C18.0725 16.6024 18.0035 16.2202 18.0035 15.7869ZM15.4992 17.697C18.1928 17.697 20.3844 19.8884 20.3844 22.5821C20.3844 25.2759 18.1929 27.4673 15.4992 27.4673C12.8054 27.4673 10.614 25.2759 10.614 22.5821C10.614 19.8884 12.8055 17.697 15.4992 17.697ZM12.5133 22.4391C12.3245 22.1121 12.4365 21.694 12.7635 21.5053C13.0903 21.3166 13.5085 21.4285 13.6972 21.7555L14.5416 23.2179L17.4097 20.3497C17.6767 20.0828 18.1095 20.0829 18.3764 20.3497C18.6433 20.6167 18.6433 21.0495 18.3764 21.3164L14.8783 24.8145C14.7493 24.9435 14.5751 25.0146 14.395 25.0146C14.3653 25.0146 14.3355 25.0127 14.3057 25.0088C14.095 24.9811 13.9092 24.8569 13.803 24.6729L12.5133 22.4391Z" fill="white"/>
</svg>
