<svg width="40" height="40" viewBox="0 0 40 40" fill="none" xmlns="http://www.w3.org/2000/svg">
<path d="M24.5712 20.5235C29.0428 20.5235 32.6808 16.8856 32.6808 12.414C32.6808 7.94244 29.0428 4.30449 24.5712 4.30449C20.0995 4.30449 16.4616 7.94244 16.4616 12.414C16.4616 16.8856 20.0996 20.5235 24.5712 20.5235ZM19.8014 17.5421C20.2878 15.3044 22.2498 13.7084 24.5712 13.7084C26.8925 13.7084 28.8545 15.3044 29.341 17.5421C28.0892 18.7072 26.4121 19.4212 24.5712 19.4212C22.7302 19.4212 21.0532 18.7072 19.8014 17.5421ZM24.5712 12.5885C23.4477 12.5885 22.5337 11.6745 22.5337 10.551C22.5337 9.42756 23.4477 8.51362 24.5712 8.51362C25.6946 8.51362 26.6086 9.42756 26.6086 10.551C26.6086 11.6745 25.6946 12.5885 24.5712 12.5885ZM24.5712 5.40677C28.4349 5.40677 31.5784 8.55016 31.5784 12.4139C31.5784 13.9702 31.0682 15.4094 30.2065 16.5736C29.8596 15.6067 29.2663 14.7359 28.4768 14.0557C27.9158 13.5722 27.2736 13.2021 26.5863 12.9565C27.2733 12.38 27.711 11.5158 27.711 10.5509C27.711 8.81968 26.3025 7.41118 24.5712 7.41118C22.8398 7.41118 21.4313 8.81968 21.4313 10.5509C21.4313 11.5158 21.8691 12.38 22.5561 12.9565C21.8688 13.2021 21.2266 13.5722 20.6656 14.0557C19.8762 14.736 19.2828 15.6067 18.9359 16.5736C18.0742 15.4094 17.564 13.9702 17.564 12.4139C17.564 8.55016 20.7074 5.40677 24.5712 5.40677ZM37.3894 25.0904C36.8521 24.4803 35.7634 24.1802 34.5426 24.885C33.0197 25.7642 29.2375 27.6085 26.4004 28.6863C26.5114 28.1585 26.4221 27.6051 26.1318 27.1166C25.7144 26.4143 24.9803 26.0118 24.1673 26.0387C20.6575 26.037 18.3864 25.0949 16.3823 24.2636C14.5603 23.5078 12.9869 22.855 11.1253 23.3056C9.24581 23.7605 7.24502 25.3187 4.66297 28.3436C3.99612 28.0231 3.17108 28.1371 2.61904 28.6891L0.161398 31.1468C-0.0537992 31.362 -0.0537992 31.711 0.161398 31.9262L7.75872 39.5235C7.86211 39.6269 8.00226 39.685 8.14848 39.685C8.2947 39.685 8.43486 39.6269 8.53825 39.5235L10.9959 37.0658C11.3333 36.7283 11.5192 36.2784 11.5192 35.7989C11.5192 35.5757 11.4773 35.3594 11.4002 35.1574C12.969 34.5002 14.718 34.4434 16.9532 34.5772C17.4556 34.6073 17.9829 34.6498 18.5412 34.6947C19.8657 34.8014 21.2357 34.9119 22.559 34.8824C25.3397 34.821 27.0132 34.0401 29.249 32.8557C31.5276 31.6487 36.3874 28.7661 37.2953 27.5728C37.9373 26.7287 37.9742 25.7544 37.3894 25.0905V25.0904ZM10.2164 36.2863L8.14841 38.3543L1.33061 31.5365L3.39856 29.4685C3.6673 29.1997 4.1047 29.1997 4.37352 29.4685L10.2164 35.3114C10.3456 35.4406 10.4168 35.6137 10.4168 35.7988C10.4168 35.9839 10.3456 36.1571 10.2164 36.2863ZM36.418 26.9053C35.7789 27.7454 31.6912 30.3145 28.7329 31.8815C26.6364 32.992 25.0724 33.7242 22.5345 33.7803C21.2675 33.8082 19.9264 33.7003 18.6296 33.5958C18.0655 33.5504 17.5327 33.5075 17.019 33.4768C15.0357 33.3581 12.7679 33.3162 10.7178 34.2539L5.51124 29.0475C10.6172 23.0661 12.5288 23.8586 15.9598 25.2818C17.9568 26.1102 20.442 27.1411 24.1768 27.1411C24.1837 27.1411 24.1906 27.1409 24.1975 27.1407C24.6069 27.1251 24.9742 27.3268 25.184 27.6798C25.3938 28.0327 25.3945 28.4529 25.1859 28.8038C24.806 29.4431 23.4308 29.7748 21.5078 29.6906C19.7046 29.612 17.8899 29.1812 17.1771 28.8102C16.9071 28.6698 16.5742 28.7746 16.4337 29.0447C16.2931 29.3147 16.3982 29.6476 16.6682 29.7881C17.634 30.2908 19.6491 30.7129 21.4597 30.792C21.6619 30.8008 21.871 30.8059 22.0838 30.8059C23.0484 30.8059 24.0893 30.6999 24.9102 30.3539C27.7766 29.546 33.1234 26.977 35.0936 25.8395C35.7708 25.4486 36.3295 25.5548 36.562 25.8189C36.7912 26.0791 36.7373 26.4852 36.4178 26.9052L36.418 26.9053ZM11.2403 22.9342C12.9661 22.9342 14.4916 22.062 15.4008 20.7358C15.5161 20.8924 15.6456 21.0445 15.7933 21.192C16.6768 22.0754 17.757 22.3946 19.0965 22.1675C20.0627 22.0038 20.9783 22.3831 21.5457 23.182C22.3324 24.2897 23.3221 24.8281 24.5713 24.8281C25.8205 24.8281 26.8102 24.2897 27.5968 23.182C28.1643 22.3831 29.0799 22.004 30.0462 22.1676C31.3855 22.3943 32.4663 22.0752 33.3494 21.192C34.2328 20.3086 34.5519 19.228 34.3248 17.8888C34.1611 16.9226 34.5404 16.0071 35.3394 15.4396C36.447 14.6529 36.9854 13.6632 36.9854 12.4141C36.9854 11.165 36.447 10.1752 35.3394 9.3885C34.5405 8.82102 34.1612 7.90551 34.3249 6.93921C34.5516 5.59961 34.2326 4.51913 33.3494 3.63598C32.4658 2.75252 31.3852 2.43331 30.0461 2.66055C29.08 2.82402 28.1643 2.44496 27.5969 1.64606C26.8103 0.538425 25.8206 0 24.5714 0C23.3222 0 22.3325 0.538425 21.5458 1.64606C20.9783 2.44496 20.0626 2.82425 19.0965 2.66047C17.7571 2.43378 16.6764 2.75291 15.7933 3.63598C14.9098 4.51945 14.5908 5.6 14.8179 6.93929C14.9816 7.90543 14.6023 8.82102 13.8034 9.3885C12.6957 10.1752 12.1573 11.1649 12.1573 12.4141C12.1573 12.5956 12.1702 12.7717 12.1932 12.9433C11.8845 12.884 11.5662 12.8518 11.2405 12.8518C8.46069 12.8518 6.19919 15.1133 6.19919 17.8931C6.19919 20.6728 8.46069 22.9343 11.2405 22.9343L11.2403 22.9342ZM13.2595 12.414C13.2595 11.5237 13.6241 10.8678 14.4416 10.2872C15.5938 9.46882 16.1407 8.14843 15.9046 6.75496C15.737 5.76654 15.943 5.04504 16.5727 4.41543C17.2105 3.77756 17.9102 3.5778 18.9123 3.74732C20.3059 3.98346 21.6261 3.43654 22.4445 2.28433C23.0251 1.46685 23.681 1.10228 24.5713 1.10228C25.4616 1.10228 26.1175 1.46685 26.6982 2.28433C27.5165 3.43654 28.8369 3.98346 30.2303 3.7474C31.2186 3.57984 31.9402 3.78583 32.5699 4.41543C33.2079 5.05331 33.4076 5.75307 33.238 6.75512C33.0019 8.1485 33.5488 9.4689 34.701 10.2872C35.5185 10.8679 35.8831 11.5238 35.8831 12.4141C35.8831 13.3044 35.5185 13.9603 34.701 14.5409C33.5488 15.3593 33.0018 16.6797 33.2379 18.0731C33.4055 19.0614 33.1995 19.783 32.5699 20.4126C31.932 21.0505 31.2324 21.2502 30.2302 21.0807C28.8371 20.8447 27.5164 21.3917 26.6981 22.5438C26.1175 23.3613 25.4616 23.7257 24.5713 23.7257C23.681 23.7257 23.0251 23.3613 22.4445 22.5438C21.6261 21.3916 20.3056 20.8445 18.9123 21.0807C17.9238 21.2483 17.2023 21.0423 16.5727 20.4127C16.3042 20.1441 16.1156 19.8626 15.9982 19.5568C16.181 19.0355 16.2816 18.4759 16.2816 17.893C16.2816 15.8964 15.1148 14.1672 13.4273 13.3513C13.3152 13.0716 13.2595 12.7634 13.2595 12.414ZM11.2403 13.9541C13.4122 13.9541 15.1792 15.721 15.1792 17.893C15.1792 20.065 13.4123 21.8319 11.2403 21.8319C9.06833 21.8319 7.3014 20.065 7.3014 17.893C7.3014 15.721 9.06841 13.9541 11.2403 13.9541ZM8.83274 17.7776C8.68053 17.514 8.77085 17.1769 9.03447 17.0247C9.29801 16.8726 9.63518 16.9628 9.78738 17.2265L10.4682 18.4056L12.7808 16.093C12.996 15.8778 13.345 15.8779 13.5602 16.093C13.7754 16.3083 13.7754 16.6572 13.5602 16.8724L10.7397 19.6929C10.6356 19.7969 10.4952 19.8543 10.35 19.8543C10.326 19.8543 10.302 19.8528 10.278 19.8496C10.1081 19.8272 9.95825 19.7272 9.87266 19.5787L8.83274 17.7776Z" fill="white"/>
</svg>
