<svg width="60" height="60" viewBox="0 0 60 60" fill="none" xmlns="http://www.w3.org/2000/svg">
<path d="M38.4379 31.0136C45.093 31.0136 50.5073 25.5993 50.5073 18.9443C50.5073 12.2893 45.093 6.87504 38.4379 6.87504C31.7829 6.87504 26.3687 12.2893 26.3687 18.9443C26.3687 25.5993 31.783 31.0136 38.4379 31.0136ZM31.3392 26.5764C32.0631 23.246 34.9831 20.8707 38.4379 20.8707C41.8927 20.8707 44.8128 23.246 45.5368 26.5764C43.6738 28.3104 41.1778 29.3729 38.4379 29.3729C35.6981 29.3729 33.2022 28.3104 31.3392 26.5764ZM38.4379 19.204C36.7659 19.204 35.4056 17.8437 35.4056 16.1716C35.4056 14.4996 36.7659 13.1394 38.4379 13.1394C40.11 13.1394 41.4703 14.4996 41.4703 16.1716C41.4703 17.8437 40.11 19.204 38.4379 19.204ZM38.4379 8.51555C44.1883 8.51555 48.8667 13.1938 48.8667 18.9442C48.8667 21.2604 48.1073 23.4023 46.8249 25.135C46.3086 23.6959 45.4256 22.3999 44.2507 21.3875C43.4157 20.668 42.4599 20.1172 41.437 19.7516C42.4595 18.8937 43.1109 17.6075 43.1109 16.1715C43.1109 13.5949 41.0147 11.4987 38.4379 11.4987C35.8612 11.4987 33.765 13.5949 33.765 16.1715C33.765 17.6075 34.4165 18.8937 35.439 19.7516C34.4161 20.1172 33.4603 20.668 32.6253 21.3875C31.4505 22.4 30.5674 23.6959 30.0511 25.135C28.7687 23.4023 28.0093 21.2604 28.0093 18.9442C28.0093 13.1938 32.6876 8.51555 38.4379 8.51555ZM57.5151 37.8103C56.7154 36.9023 55.0951 36.4556 53.2782 37.5046C51.0117 38.8131 45.3827 41.558 41.1603 43.162C41.3256 42.3765 41.1927 41.5529 40.7606 40.8259C40.1394 39.7806 39.0468 39.1816 37.8369 39.2217C32.6134 39.2191 29.2332 37.817 26.2506 36.5798C23.539 35.455 21.1973 34.4834 18.4268 35.154C15.6295 35.831 12.6518 38.15 8.80896 42.652C7.81649 42.1751 6.5886 42.3446 5.767 43.1662L2.10935 46.8239C1.78907 47.1443 1.78907 47.6637 2.10935 47.9839L13.4163 59.2909C13.5702 59.4446 13.7788 59.5311 13.9964 59.5311C14.214 59.5311 14.4226 59.4446 14.5765 59.2909L18.2341 55.6331C18.7363 55.1309 19.0129 54.4612 19.0129 53.7476C19.0129 53.4154 18.9506 53.0936 18.8359 52.7929C21.1707 51.8148 23.7737 51.7302 27.1003 51.9294C27.8479 51.9742 28.6327 52.0373 29.4636 52.1043C31.4349 52.263 33.4739 52.4275 35.4432 52.3836C39.5817 52.2922 42.0724 51.13 45.3998 49.3672C48.7911 47.5709 56.0238 43.2809 57.3751 41.5048C58.3305 40.2486 58.3855 38.7986 57.5151 37.8104V37.8103ZM17.074 54.473L13.9963 57.5507L3.84946 47.4039L6.92716 44.3262C7.32712 43.9261 7.9781 43.9261 8.37817 44.3262L17.0741 53.0221C17.2664 53.2144 17.3723 53.472 17.3723 53.7475C17.3723 54.023 17.2663 54.2807 17.074 54.473ZM56.0694 40.5114C55.1182 41.7616 49.0346 45.5852 44.6318 47.9174C41.5117 49.5702 39.184 50.6598 35.4068 50.7434C33.5211 50.7848 31.5253 50.6243 29.5952 50.4688C28.7557 50.4012 27.9627 50.3373 27.1981 50.2916C24.2465 50.115 20.8713 50.0527 17.8202 51.4482L10.0714 43.6996C17.6706 34.7977 20.5155 35.977 25.6218 38.0952C28.5938 39.3281 32.2925 40.8623 37.8509 40.8623C37.8613 40.8623 37.8716 40.8621 37.8819 40.8618C38.4911 40.8386 39.0378 41.1388 39.35 41.664C39.6622 42.1893 39.6633 42.8147 39.3528 43.3369C38.7874 44.2883 36.7407 44.782 33.8788 44.6568C31.1952 44.5397 28.4943 43.8986 27.4334 43.3465C27.0316 43.1375 26.5363 43.2935 26.3271 43.6955C26.1179 44.0973 26.2742 44.5927 26.6761 44.8018C28.1135 45.55 31.1125 46.1782 33.8073 46.2959C34.1082 46.309 34.4193 46.3166 34.7361 46.3166C36.1717 46.3166 37.7208 46.1589 38.9426 45.6439C43.2085 44.4415 51.1661 40.6181 54.0983 38.9252C55.1061 38.3434 55.9377 38.5015 56.2837 38.8945C56.6247 39.2817 56.5446 39.8862 56.069 40.5112L56.0694 40.5114ZM18.5979 34.6013C21.1664 34.6013 23.4368 33.3033 24.7898 31.3295C24.9615 31.5626 25.1543 31.7889 25.374 32.0085C26.6888 33.3232 28.2965 33.7982 30.2901 33.4602C31.7281 33.2166 33.0908 33.7811 33.9352 34.9702C35.1061 36.6186 36.579 37.42 38.4382 37.42C40.2974 37.42 41.7703 36.6186 42.941 34.9702C43.7856 33.7812 45.1482 33.2169 46.5863 33.4603C48.5796 33.7977 50.1881 33.3229 51.5024 32.0085C52.8172 30.6936 53.292 29.0855 52.9541 27.0923C52.7104 25.6543 53.2749 24.2918 54.464 23.4472C56.1125 22.2764 56.9138 20.8035 56.9138 18.9444C56.9138 17.0854 56.1125 15.6123 54.464 14.4415C53.275 13.5969 52.7106 12.2344 52.9543 10.7962C53.2917 8.80254 52.8168 7.19449 51.5024 5.88012C50.1874 4.56527 48.5791 4.0902 46.5862 4.4284C45.1483 4.67168 43.7856 4.10754 42.9411 2.91855C41.7704 1.27008 40.2975 0.46875 38.4383 0.46875C36.5791 0.46875 35.1062 1.27008 33.9354 2.91855C33.0908 4.10754 31.7279 4.67203 30.2901 4.42828C28.2968 4.0909 26.6884 4.56586 25.374 5.88012C24.0592 7.19496 23.5843 8.80312 23.9224 10.7964C24.166 12.2343 23.6015 13.5969 22.4124 14.4415C20.764 15.6123 19.9626 17.0852 19.9626 18.9444C19.9626 19.2145 19.9818 19.4767 20.0161 19.732C19.5566 19.6438 19.0829 19.5959 18.5981 19.5959C14.461 19.5959 11.0953 22.9616 11.0953 27.0987C11.0953 31.2357 14.461 34.6015 18.5981 34.6015L18.5979 34.6013ZM21.603 18.9443C21.603 17.6193 22.1456 16.6431 23.3622 15.7789C25.077 14.561 25.891 12.5959 25.5397 10.522C25.2902 9.05098 25.5968 7.97719 26.5339 7.04016C27.4833 6.09082 28.5246 5.79352 30.016 6.04582C32.09 6.39727 34.0549 5.58328 35.2728 3.86848C36.137 2.65184 37.1131 2.10926 38.4382 2.10926C39.7632 2.10926 40.7394 2.65184 41.6035 3.86848C42.8215 5.58328 44.7866 6.39727 46.8603 6.04594C48.3313 5.79656 49.4052 6.10313 50.3423 7.04016C51.2918 7.98949 51.5891 9.03094 51.3367 10.5223C50.9852 12.596 51.7992 14.5611 53.514 15.7791C54.7306 16.6432 55.2732 17.6194 55.2732 18.9444C55.2732 20.2695 54.7306 21.2456 53.514 22.1096C51.7992 23.3277 50.9851 25.2928 51.3365 27.3666C51.5859 28.8375 51.2793 29.9114 50.3423 30.8484C49.393 31.7978 48.3518 32.095 46.8602 31.8428C44.7868 31.4916 42.8213 32.3055 41.6034 34.0202C40.7394 35.2369 39.7632 35.7793 38.4382 35.7793C37.1131 35.7793 36.137 35.2369 35.2728 34.0202C34.0549 32.3054 32.0897 31.4912 30.0159 31.8428C28.5449 32.0923 27.4711 31.7856 26.534 30.8486C26.1343 30.4488 25.8536 30.0299 25.6789 29.5747C25.951 28.7989 26.1007 27.9661 26.1007 27.0986C26.1007 24.127 24.3642 21.5536 21.8527 20.3393C21.6859 19.9229 21.603 19.4643 21.603 18.9443ZM18.5979 21.2364C21.8302 21.2364 24.46 23.8661 24.46 27.0986C24.46 30.3311 21.8304 32.9607 18.5979 32.9607C15.3654 32.9607 12.7357 30.3311 12.7357 27.0986C12.7357 23.8661 15.3655 21.2364 18.5979 21.2364ZM15.0147 26.9269C14.7882 26.5345 14.9226 26.0329 15.315 25.8063C15.7072 25.5799 16.209 25.7142 16.4355 26.1066L17.4487 27.8614L20.8905 24.4196C21.2109 24.0994 21.7303 24.0995 22.0506 24.4196C22.3708 24.74 22.3708 25.2594 22.0506 25.5797L17.8528 29.7773C17.698 29.9321 17.4889 30.0176 17.2728 30.0176C17.2372 30.0176 17.2015 30.0152 17.1657 30.0105C16.9128 29.9773 16.6898 29.8283 16.5624 29.6074L15.0147 26.9269Z" fill="white"/>
</svg>
