<svg width="50" height="50" viewBox="0 0 50 50" fill="none" xmlns="http://www.w3.org/2000/svg">
<path d="M27.8992 0.949219C28.2768 0.949219 28.5955 1.22991 28.6431 1.60449L29.2771 6.58629C31.2942 7.07915 33.2336 7.87441 34.9648 8.97782L38.9406 5.90575L38.9692 5.88467C39.2687 5.67492 39.6785 5.71141 39.9362 5.97565L43.8362 9.97565C44.0977 10.2439 44.1211 10.664 43.8912 10.9597L40.7213 15.035C41.8244 16.7673 42.6178 18.7195 43.0382 20.8257L47.8956 21.4554C48.2694 21.5039 48.5492 21.8223 48.5492 22.1992V27.8992C48.5492 28.2761 48.2694 28.5945 47.8956 28.643L43.017 29.2753C42.5212 31.3787 41.7254 33.2589 40.7024 35.0415L43.7926 39.0406C44.0212 39.3363 43.9971 39.7552 43.7362 40.0228L39.8362 44.0228C39.5675 44.2984 39.1336 44.3258 38.8323 44.0861L34.8581 40.9248C33.1286 42.026 31.1917 42.8198 29.1772 43.312L28.5432 48.2939C28.4955 48.6685 28.1767 48.9492 27.7991 48.9492H22.1992C21.8216 48.9492 21.5029 48.6685 21.4552 48.2939L20.8211 43.312C18.804 42.8191 16.8646 42.0239 15.1335 40.9205L11.1578 43.9926C10.8564 44.2256 10.4281 44.1955 10.1622 43.9227L6.26222 39.9227C6.00132 39.6552 5.97726 39.2364 6.20576 38.9406L9.27784 34.9648C8.17426 33.2321 7.38064 31.2794 6.96012 29.1725L2.10277 28.5429C1.72896 28.4945 1.44922 28.1761 1.44922 27.7992V22.0992C1.44922 21.7223 1.72896 21.4038 2.10277 21.3554L6.98139 20.7229C7.47765 18.6196 8.28029 16.7342 9.38455 14.9422L6.30571 10.9577C6.07722 10.662 6.1013 10.2432 6.36217 9.97565L10.2622 5.97565L10.2876 5.95076C10.5548 5.70123 10.9657 5.68009 11.2578 5.90575L15.2331 8.97744C16.9527 7.87418 18.8295 7.0756 20.9216 6.58171L21.5552 1.60449L21.5604 1.56968C21.6228 1.21265 21.9334 0.949219 22.2992 0.949219H27.8992ZM22.3432 7.29392C22.3028 7.61133 22.0654 7.86818 21.7522 7.93345C19.447 8.4137 17.4393 9.27529 15.6227 10.5182C15.3543 10.7019 14.998 10.6915 14.7406 10.4926L10.8695 7.50134L7.891 10.5562L10.8927 14.4406C11.0876 14.6928 11.1017 15.0407 10.928 15.3079C9.67556 17.2347 8.81331 19.2486 8.33341 21.5521C8.26828 21.8648 8.01231 22.102 7.69559 22.143L2.94916 22.7582V27.1401L7.69559 27.7554C8.02332 27.7979 8.28459 28.0499 8.33894 28.3758C8.72102 30.6683 9.57991 32.7659 10.8182 34.5757C11.0019 34.8441 10.9915 35.2004 10.7927 35.4577L7.79096 39.3421L10.7695 42.397L14.6406 39.4058L14.665 39.3876C14.9202 39.2064 15.2626 39.2023 15.5227 39.3802C17.2775 40.5809 19.3107 41.4301 21.451 41.92L21.6585 41.9663L21.6873 41.9731C21.9833 42.0498 22.2044 42.2992 22.2432 42.6045L22.8599 47.4492H27.1385L27.7552 42.6045C27.7953 42.2894 28.0295 42.0337 28.3399 41.9663C30.5561 41.4845 32.6643 40.6196 34.4757 39.3802L34.5014 39.3634C34.7698 39.1953 35.1165 39.2137 35.3661 39.4122L39.2354 42.4901L42.2073 39.4421L39.2058 35.5578C39.0169 35.3134 38.9972 34.9782 39.1561 34.7133C40.3203 32.773 41.1848 30.7511 41.665 28.4462L41.6716 28.4171C41.7461 28.1189 41.996 27.8952 42.3028 27.8554L47.0492 27.2401V22.8582L42.3028 22.243C41.9751 22.2005 41.7137 21.9485 41.6594 21.6225C41.2773 19.3301 40.4185 17.2325 39.1802 15.4227C38.996 15.1535 39.007 14.7961 39.2072 14.5387L42.3058 10.5546L39.3288 7.50134L35.4578 10.4926C35.2004 10.6915 34.8441 10.7019 34.5757 10.5182C32.7642 9.2788 30.6561 8.41391 28.4398 7.93212C28.1295 7.86464 27.8953 7.60896 27.8552 7.29392L27.2386 2.44916H22.9598L22.3432 7.29392Z" fill="white"/>
<path d="M28.5499 17.1968C28.5499 15.1999 26.9746 13.5468 24.8999 13.5468C22.903 13.5468 21.25 15.1221 21.2499 17.1968C21.2499 17.954 21.5075 18.7699 21.9694 19.3087C22.239 19.6232 22.2025 20.0967 21.888 20.3663C21.5735 20.6358 21.1001 20.5994 20.8305 20.2849C20.0924 19.4238 19.75 18.2396 19.75 17.1968C19.75 14.2715 22.0969 12.0469 24.8999 12.0469C27.8252 12.0469 30.05 14.3938 30.05 17.1968C30.05 18.3494 29.7021 19.4302 28.9695 20.2849C28.6999 20.5994 28.2263 20.6358 27.9118 20.3663C27.5974 20.0967 27.5609 19.6232 27.8305 19.3087C28.2978 18.7635 28.5499 18.0442 28.5499 17.1968Z" fill="white"/>
<path d="M26.6484 23.1953C26.6484 22.7811 26.9842 22.4453 27.3984 22.4453C27.8126 22.4453 28.1484 22.7811 28.1484 23.1953C28.1484 24.9376 28.3418 26.5799 28.7285 28.2235C29.1086 29.839 29.7782 31.3779 30.5692 32.9599C30.7544 33.3303 30.6043 33.7808 30.2338 33.9661C29.8633 34.1513 29.4128 34.0011 29.2276 33.6307C28.4186 32.0127 27.6882 30.3516 27.2683 28.567C26.8551 26.8106 26.6484 25.053 26.6484 23.1953Z" fill="white"/>
<path d="M21.8502 23.1953C21.8502 22.7811 22.1859 22.4453 22.6002 22.4453C23.0144 22.4453 23.3501 22.7811 23.3501 23.1953C23.3501 26.8225 22.4179 30.4464 20.6578 33.6559C20.4586 34.0191 20.0027 34.152 19.6396 33.9529C19.2764 33.7538 19.1434 33.2979 19.3425 32.9347C20.9824 29.9442 21.8502 26.5681 21.8502 23.1953Z" fill="white"/>
<path d="M30.8484 34.5968C30.8484 34.311 30.5842 34.0468 30.2985 34.0468H19.6985C19.4127 34.0468 19.1484 34.311 19.1484 34.5968V36.5469H30.8484V34.5968ZM32.3484 37.2968C32.3484 37.7111 32.0126 38.0468 31.5984 38.0468H18.3984C17.9842 38.0468 17.6484 37.7111 17.6484 37.2968V34.5968C17.6485 33.4826 18.5843 32.5469 19.6985 32.5469H30.2985C31.4126 32.5469 32.3483 33.4826 32.3484 34.5968V37.2968Z" fill="white"/>
<path d="M29.8471 21.4969C29.8471 20.9819 29.4543 20.5468 28.8971 20.5468H21.1971C20.5591 20.5468 20.2008 21.0386 20.2425 21.414C20.2456 21.4415 20.2471 21.4692 20.2471 21.4969C20.2471 22.0118 20.6399 22.4468 21.1971 22.4468H28.8971C29.412 22.4468 29.8471 22.0541 29.8471 21.4969ZM31.3471 21.4969C31.3471 22.9396 30.1822 23.9468 28.8971 23.9469H21.1971C19.7695 23.9468 18.7685 22.8062 18.7476 21.5373C18.6183 20.1331 19.8486 19.0469 21.1971 19.0469H28.8971C30.3399 19.0469 31.3471 20.2118 31.3471 21.4969Z" fill="white"/>
<path d="M13.4492 24.9968C13.4492 21.7898 14.7341 18.9013 16.8689 16.7665C17.1618 16.4737 17.6366 16.4737 17.9295 16.7665C18.2224 17.0594 18.2224 17.5343 17.9295 17.8272C16.0643 19.6924 14.9492 22.2039 14.9492 24.9968C14.9492 27.4195 15.7864 29.6485 17.2729 31.4137C17.5397 31.7306 17.4991 32.2038 17.1823 32.4706C16.8655 32.7374 16.3923 32.6968 16.1255 32.38C14.412 30.3452 13.4492 27.7742 13.4492 24.9968Z" fill="white"/>
<path d="M35.0516 24.9968C35.0516 22.2039 33.9364 19.6924 32.0712 17.8272C31.7783 17.5343 31.7783 17.0594 32.0712 16.7665C32.3641 16.4737 32.839 16.4737 33.1319 16.7665C35.2667 18.9014 36.5516 21.7899 36.5516 24.9968C36.5516 27.7742 35.5888 30.3452 33.8753 32.38C33.6085 32.6968 33.1353 32.7374 32.8184 32.4706C32.5016 32.2038 32.4611 31.7306 32.7279 31.4137C34.2144 29.6485 35.0516 27.4195 35.0516 24.9968Z" fill="white"/>
</svg>
