<svg width="50" height="50" viewBox="0 0 50 50" fill="none" xmlns="http://www.w3.org/2000/svg">
<path d="M3.125 17.1875C2.9178 17.1875 2.71909 17.2698 2.57257 17.4163C2.42606 17.5628 2.34375 17.7615 2.34375 17.9688V21.0938C2.34375 21.301 2.42606 21.4997 2.57257 21.6462C2.71909 21.7927 2.9178 21.875 3.125 21.875H4.82842C5.07341 22.9367 5.47969 23.9546 6.03311 24.8933L4.13506 26.7913C4.06251 26.8639 4.00496 26.95 3.96569 27.0448C3.92643 27.1396 3.90622 27.2412 3.90622 27.3438C3.90622 27.4463 3.92643 27.5479 3.96569 27.6427C4.00496 27.7375 4.06251 27.8236 4.13506 27.8962L6.47881 30.2399C6.55136 30.3125 6.63748 30.37 6.73227 30.4093C6.82706 30.4486 6.92865 30.4688 7.03125 30.4688C7.13385 30.4688 7.23544 30.4486 7.33023 30.4093C7.42502 30.37 7.51114 30.3125 7.58369 30.2399L9.48174 28.3419C10.4204 28.8953 11.4383 29.3016 12.5 29.5466V32.0312C12.5 32.2385 12.5823 32.4372 12.7288 32.5837C12.8753 32.7302 13.074 32.8125 13.2812 32.8125H16.0205C16.5209 34.7533 17.4809 36.5453 18.8194 38.0372C20.1579 39.529 21.8357 40.6769 23.7111 41.3841C25.5866 42.0912 27.6046 42.3367 29.5949 42.0999C31.5852 41.8632 33.4893 41.1511 35.1465 40.0237L42.8739 47.7511C43.0916 47.9687 43.3499 48.1414 43.6343 48.2591C43.9187 48.3769 44.2235 48.4376 44.5312 48.4376C44.839 48.4376 45.1438 48.3769 45.4282 48.2591C45.7126 48.1414 45.9709 47.9687 46.1886 47.7511C46.4062 47.5334 46.5789 47.2751 46.6966 46.9907C46.8144 46.7063 46.8751 46.4015 46.8751 46.0938C46.8751 45.786 46.8144 45.4812 46.6966 45.1968C46.5789 44.9124 46.4062 44.6541 46.1886 44.4364L38.4611 36.709C40.1743 34.1928 40.9086 31.1373 40.526 28.1174C40.1433 25.0976 38.6699 22.3218 36.3833 20.3125H37.5C37.7072 20.3125 37.9059 20.2302 38.0524 20.0837C38.1989 19.9372 38.2812 19.7385 38.2812 19.5312V16.5488C38.4353 16.1406 40.625 10.3246 40.625 10.1562C40.625 8.43828 40.1405 7.08281 39.1852 6.12734C38.2298 5.17187 36.8742 4.6875 35.1562 4.6875C33.4383 4.6875 32.0828 5.17197 31.1273 6.12734C30.1719 7.08271 29.6875 8.43828 29.6875 10.1562C29.6875 10.2499 32.0312 16.5479 32.0312 16.5479V17.8132C30.7708 17.3978 29.4521 17.1866 28.125 17.1875H24.8591C24.6141 16.1258 24.2078 15.1079 23.6544 14.1692L25.5524 12.2712C25.625 12.1986 25.6825 12.1125 25.7218 12.0177C25.7611 11.9229 25.7813 11.8213 25.7813 11.7188C25.7813 11.6162 25.7611 11.5146 25.7218 11.4198C25.6825 11.325 25.625 11.2389 25.5524 11.1663L23.2087 8.82256C23.1361 8.75001 23.05 8.69246 22.9552 8.65319C22.8604 8.61393 22.7588 8.59372 22.6562 8.59372C22.5537 8.59372 22.4521 8.61393 22.3573 8.65319C22.2625 8.69246 22.1764 8.75001 22.1038 8.82256L20.2058 10.7206C19.2671 10.1672 18.2492 9.76091 17.1875 9.51592V7.03125C17.1875 6.82405 17.1052 6.62534 16.9587 6.47882C16.8122 6.33231 16.6135 6.25 16.4062 6.25H13.2812C13.074 6.25 12.8753 6.33231 12.7288 6.47882C12.5823 6.62534 12.5 6.82405 12.5 7.03125V9.51592C11.4383 9.76091 10.4204 10.1672 9.48174 10.7206L7.58369 8.82256C7.51114 8.75001 7.42502 8.69246 7.33023 8.65319C7.23544 8.61393 7.13385 8.59372 7.03125 8.59372C6.92865 8.59372 6.82706 8.61393 6.73227 8.65319C6.63748 8.69246 6.55136 8.75001 6.47881 8.82256L4.13506 11.1663C4.06251 11.2389 4.00496 11.325 3.96569 11.4198C3.92643 11.5146 3.90622 11.6162 3.90622 11.7188C3.90622 11.8213 3.92643 11.9229 3.96569 12.0177C4.00496 12.1125 4.06251 12.1986 4.13506 12.2712L6.03311 14.1692C5.47969 15.1079 5.07341 16.1258 4.82842 17.1875H3.125ZM45.0837 45.5414C45.158 45.6136 45.2172 45.6998 45.2578 45.795C45.2985 45.8902 45.3199 45.9926 45.3206 46.0961C45.3214 46.1997 45.3015 46.3024 45.2622 46.3982C45.2229 46.494 45.165 46.5811 45.0918 46.6543C45.0185 46.7275 44.9315 46.7854 44.8357 46.8247C44.7399 46.864 44.6372 46.8838 44.5336 46.8831C44.4301 46.8823 44.3277 46.861 44.2325 46.8203C44.1372 46.7796 44.051 46.7204 43.9789 46.6461L36.3895 39.0568C36.7802 38.7118 37.1492 38.3428 37.4942 37.9521L45.0837 45.5414ZM31.2513 10.018C31.2976 7.51748 32.6108 6.25 35.1562 6.25C37.7051 6.25 39.0182 7.52051 39.0613 10.0271C38.8417 10.6303 37.774 13.4671 36.9599 15.625H33.3538L31.2513 10.018ZM33.5938 17.1875H36.7188V18.75H34.1707C33.9814 18.6449 33.7891 18.5446 33.5938 18.4489V17.1875ZM39.0625 29.6875C39.0625 31.8504 38.4212 33.9648 37.2197 35.7633C36.0182 37.5618 34.3105 38.9637 32.3123 39.7917C30.3142 40.6198 28.1154 40.8368 25.994 40.4154C23.8725 39.994 21.9236 38.953 20.3937 37.4241C18.8637 35.8953 17.8215 33.9471 17.3986 31.8259C16.9757 29.7047 17.1912 27.5058 18.0179 25.5071C18.8446 23.5084 20.2453 21.7997 22.043 20.597C23.8407 19.3942 25.9546 18.7515 28.1175 18.75H28.125C31.0248 18.7533 33.8049 19.9067 35.8554 21.9571C37.9058 24.0076 39.0592 26.7877 39.0625 29.6875ZM14.8438 23.4375C14.0712 23.4375 13.3159 23.2084 12.6736 22.7792C12.0312 22.35 11.5305 21.7399 11.2348 21.0261C10.9392 20.3123 10.8618 19.5269 11.0126 18.7692C11.1633 18.0114 11.5353 17.3154 12.0816 16.7691C12.6279 16.2228 13.3239 15.8508 14.0817 15.7001C14.8394 15.5493 15.6248 15.6267 16.3386 15.9223C17.0524 16.218 17.6625 16.7187 18.0917 17.3611C18.5209 18.0034 18.75 18.7587 18.75 19.5312C18.7488 20.5669 18.3369 21.5598 17.6046 22.2921C16.8723 23.0244 15.8794 23.4363 14.8438 23.4375ZM6.23936 18.0974C6.45403 16.8127 6.94252 15.5892 7.67168 14.51C7.77682 14.3595 7.82563 14.1769 7.80956 13.994C7.79349 13.8112 7.71356 13.6399 7.58379 13.5101L5.79229 11.7188L7.03125 10.4798L8.82256 12.2712C8.95235 12.401 9.12369 12.4809 9.30653 12.497C9.48936 12.513 9.67202 12.4642 9.82246 12.3591C10.9017 11.6299 12.1252 11.1414 13.4099 10.9268C13.5922 10.8963 13.7579 10.8022 13.8774 10.6611C13.9969 10.52 14.0625 10.3411 14.0625 10.1562V7.8125H15.625V10.1562C15.625 10.3412 15.6906 10.5201 15.8101 10.6612C15.9296 10.8023 16.0953 10.8964 16.2776 10.9269C17.5623 11.1415 18.7858 11.63 19.865 12.3592C20.0155 12.4643 20.1981 12.5131 20.381 12.4971C20.5638 12.481 20.7351 12.4011 20.8649 12.2713L22.6562 10.4798L23.8952 11.7188L22.1038 13.5101C21.974 13.6399 21.8941 13.8112 21.878 13.994C21.862 14.1769 21.9108 14.3595 22.0159 14.51C22.7448 15.5888 23.2331 16.8116 23.4479 18.0957C22.3116 18.5563 21.2492 19.1815 20.2947 19.9512C20.3054 19.8122 20.3125 19.6724 20.3125 19.5308C20.313 18.369 19.9437 17.2373 19.258 16.2994C18.5724 15.3616 17.606 14.6664 16.4988 14.3144C15.3917 13.9625 14.2012 13.9721 13.0999 14.3419C11.9986 14.7117 11.0436 15.4224 10.3732 16.3712C9.70277 17.32 9.35179 18.4576 9.37107 19.6192C9.39034 20.7808 9.77887 21.9061 10.4804 22.8321C11.1819 23.7581 12.16 24.4368 13.2729 24.7699C14.3859 25.1029 15.576 25.073 16.6709 24.6846C15.9794 26.2617 15.6232 27.9654 15.625 29.6875C15.6251 30.2099 15.6577 30.7317 15.7227 31.25H14.0625V28.9062C14.0625 28.7213 13.9969 28.5424 13.8774 28.4013C13.7579 28.2602 13.5922 28.1661 13.4099 28.1356C12.1252 27.921 10.9017 27.4325 9.82246 26.7033C9.67202 26.5982 9.48936 26.5494 9.30653 26.5654C9.12369 26.5815 8.95235 26.6614 8.82256 26.7912L7.03125 28.5827L5.79229 27.3438L7.58369 25.5524C7.71346 25.4226 7.79339 25.2513 7.80946 25.0685C7.82553 24.8856 7.77672 24.703 7.67158 24.5525C6.94242 23.4733 6.45393 22.2498 6.23926 20.9651C6.20882 20.7828 6.11469 20.6171 5.97361 20.4976C5.83253 20.3781 5.65364 20.3125 5.46875 20.3125H3.90625V18.75H5.46875C5.65366 18.75 5.83257 18.6844 5.97367 18.5649C6.11477 18.4454 6.20892 18.2797 6.23936 18.0974Z" fill="white"/>
<path d="M26.645 4.33805C26.5523 4.52337 26.5371 4.73791 26.6026 4.93447C26.6681 5.13103 26.809 5.29352 26.9943 5.3862L28.5568 6.16745C28.6487 6.21428 28.7489 6.24247 28.8517 6.25039C28.9545 6.2583 29.0578 6.24579 29.1558 6.21357C29.2537 6.18136 29.3443 6.13007 29.4224 6.06267C29.5004 5.99527 29.5643 5.91309 29.6104 5.82087C29.6565 5.72865 29.6839 5.62821 29.6911 5.52535C29.6982 5.42249 29.6849 5.31924 29.6519 5.22154C29.6189 5.12385 29.5669 5.03366 29.4989 4.95616C29.4309 4.87866 29.3482 4.81538 29.2556 4.76999L27.6931 3.98874C27.5078 3.89607 27.2933 3.88082 27.0967 3.94633C26.9002 4.01184 26.7377 4.15274 26.645 4.33805Z" fill="white"/>
<path d="M34.375 0.78125V2.34375C34.375 2.55095 34.4573 2.74966 34.6038 2.89618C34.7503 3.04269 34.949 3.125 35.1562 3.125C35.3635 3.125 35.5622 3.04269 35.7087 2.89618C35.8552 2.74966 35.9375 2.55095 35.9375 2.34375V0.78125C35.9375 0.57405 35.8552 0.375336 35.7087 0.228823C35.5622 0.08231 35.3635 0 35.1562 0C34.949 0 34.7503 0.08231 34.6038 0.228823C34.4573 0.375336 34.375 0.57405 34.375 0.78125Z" fill="white"/>
<path d="M30.1193 0.863738C29.934 0.956413 29.7931 1.1189 29.7276 1.31547C29.6621 1.51203 29.6773 1.72657 29.77 1.91188L30.5512 3.47438C30.5966 3.56696 30.6599 3.64963 30.7374 3.71764C30.8149 3.78565 30.9051 3.83764 31.0028 3.87062C31.1005 3.9036 31.2037 3.91692 31.3066 3.90981C31.4095 3.90269 31.5099 3.87529 31.6021 3.82917C31.6943 3.78305 31.7765 3.71914 31.8439 3.64111C31.9113 3.56308 31.9626 3.47248 31.9948 3.37454C32.027 3.27659 32.0396 3.17324 32.0316 3.07044C32.0237 2.96763 31.9955 2.86741 31.9487 2.77555L31.1674 1.21305C31.0748 1.02774 30.9123 0.886837 30.7157 0.821328C30.5192 0.755819 30.3046 0.771074 30.1193 0.863738Z" fill="white"/>
<path d="M39.1458 1.21463L38.3645 2.77713C38.3177 2.86899 38.2895 2.96921 38.2816 3.07201C38.2737 3.17481 38.2862 3.27817 38.3184 3.37611C38.3506 3.47406 38.4019 3.56465 38.4693 3.64268C38.5367 3.72071 38.6189 3.78463 38.7111 3.83074C38.8033 3.87686 38.9038 3.90426 39.0066 3.91138C39.1095 3.91849 39.2128 3.90518 39.3104 3.87219C39.4081 3.83921 39.4983 3.78722 39.5758 3.71921C39.6533 3.65121 39.7166 3.56853 39.762 3.47596L40.5433 1.91346C40.5901 1.8216 40.6183 1.72138 40.6262 1.61858C40.6341 1.51577 40.6216 1.41242 40.5894 1.31447C40.5572 1.21653 40.5059 1.12593 40.4385 1.0479C40.3711 0.969873 40.2889 0.905958 40.1967 0.859842C40.1045 0.813726 40.004 0.78632 39.9012 0.779206C39.7983 0.772091 39.695 0.785409 39.5973 0.81839C39.4997 0.851371 39.4095 0.903364 39.332 0.97137C39.2545 1.03938 39.1912 1.12205 39.1458 1.21463Z" fill="white"/>
<path d="M42.6189 3.98759L41.0564 4.76884C40.9638 4.81423 40.8812 4.87751 40.8132 4.95501C40.7452 5.03251 40.6932 5.1227 40.6602 5.22039C40.6272 5.31808 40.6139 5.42134 40.621 5.5242C40.6281 5.62706 40.6555 5.7275 40.7016 5.81972C40.7478 5.91194 40.8117 5.99412 40.8897 6.06152C40.9677 6.12892 41.0583 6.1802 41.1563 6.21242C41.2542 6.24464 41.3576 6.25715 41.4604 6.24924C41.5632 6.24132 41.6634 6.21313 41.7553 6.1663L43.3178 5.38505C43.4103 5.33965 43.493 5.27638 43.561 5.19888C43.629 5.12138 43.681 5.03118 43.714 4.93349C43.747 4.8358 43.7603 4.73255 43.7532 4.62969C43.7461 4.52682 43.7187 4.42639 43.6725 4.33417C43.6264 4.24195 43.5625 4.15977 43.4845 4.09237C43.4064 4.02497 43.3159 3.97368 43.2179 3.94146C43.12 3.90925 43.0166 3.89673 42.9138 3.90465C42.811 3.91257 42.7108 3.94075 42.6189 3.98759Z" fill="white"/>
<path d="M18.75 29.6875C18.75 31.5417 19.2998 33.3543 20.33 34.896C21.3601 36.4377 22.8243 37.6393 24.5373 38.3489C26.2504 39.0584 28.1354 39.2441 29.954 38.8824C31.7725 38.5206 33.443 37.6277 34.7541 36.3166C36.0652 35.0055 36.9581 33.335 37.3199 31.5165C37.6816 29.6979 37.4959 27.8129 36.7864 26.0998C36.0768 24.3868 34.8752 22.9226 33.3335 21.8925C31.7918 20.8623 29.9792 20.3125 28.125 20.3125C25.6395 20.3153 23.2565 21.3039 21.499 23.0615C19.7414 24.819 18.7528 27.202 18.75 29.6875ZM35.9375 29.6875C35.9375 31.2327 35.4793 32.7431 34.6209 34.0279C33.7624 35.3127 32.5423 36.314 31.1147 36.9053C29.6872 37.4966 28.1163 37.6513 26.6009 37.3499C25.0854 37.0484 23.6933 36.3044 22.6007 35.2118C21.5081 34.1192 20.7641 32.7271 20.4626 31.2116C20.1612 29.6962 20.3159 28.1253 20.9072 26.6978C21.4985 25.2702 22.4998 24.0501 23.7846 23.1916C25.0694 22.3332 26.5798 21.875 28.125 21.875C30.1963 21.8774 32.1821 22.7012 33.6467 24.1658C35.1113 25.6304 35.9351 27.6162 35.9375 29.6875Z" fill="white"/>
<path d="M23.4375 29.6875C23.4375 29.4803 23.3552 29.2816 23.2087 29.1351C23.0622 28.9886 22.8635 28.9062 22.6562 28.9062C22.449 28.9062 22.2503 28.9886 22.1038 29.1351C21.9573 29.2816 21.875 29.4803 21.875 29.6875C21.8769 31.3445 22.5359 32.9332 23.7076 34.1049C24.8793 35.2766 26.468 35.9356 28.125 35.9375C28.3322 35.9375 28.5309 35.8552 28.6774 35.7087C28.8239 35.5622 28.9062 35.3635 28.9062 35.1562C28.9062 34.949 28.8239 34.7503 28.6774 34.6038C28.5309 34.4573 28.3322 34.375 28.125 34.375C26.8822 34.3736 25.6907 33.8793 24.812 33.0005C23.9332 32.1218 23.4389 30.9303 23.4375 29.6875Z" fill="white"/>
</svg>
