<svg width="20" height="20" viewBox="0 0 20 20" fill="none" xmlns="http://www.w3.org/2000/svg">
<path d="M19.9719 11.1316C19.9719 11.1315 19.9719 11.1314 19.9718 11.1313L16.1958 1.64991C16.1156 1.44846 15.8873 1.35011 15.6858 1.43025C15.6857 1.4303 15.6855 1.43035 15.6854 1.43045L0.366301 7.53036C0.303827 7.55735 0.249648 7.60044 0.209259 7.6552C0.0818582 7.72141 0.00137412 7.85244 0 7.99599V18.2037C0 18.4205 0.175789 18.5963 0.392605 18.5963H16.882C17.0988 18.5963 17.2746 18.4205 17.2746 18.2037V12.6287L19.7528 11.6417C19.9542 11.5614 20.0523 11.333 19.9719 11.1316ZM16.4894 17.8111H0.785211V8.38859H16.4894V17.8111ZM6.55062 7.60534L13.1244 4.98588C13.7111 5.60257 14.524 5.95306 15.3752 5.9564L16.0309 7.60534H6.55062ZM17.2746 11.7854V7.99599C17.2746 7.77917 17.0988 7.60338 16.882 7.60338H16.8757L16.0438 5.51394C16.0346 5.49651 16.0238 5.47993 16.0116 5.46447C15.9695 5.27538 15.7944 5.14636 15.6013 5.16216C14.8094 5.23435 14.0346 4.90073 13.5429 4.27566C13.4206 4.12465 13.2055 4.08711 13.0392 4.18771C13.0206 4.18992 13.0021 4.19336 12.9838 4.19792L4.95821 7.39373C4.86109 7.43181 4.7834 7.50734 4.74267 7.60338H2.30538L15.6116 2.30517L19.0975 11.0583L17.2746 11.7854Z" fill="#CFF85E"/>
<path d="M1.85063 15.1587C2.61288 15.384 3.20934 15.9797 3.43558 16.7417C3.4852 16.908 3.63816 17.022 3.8117 17.022C3.83206 17.0207 3.85228 17.0177 3.87216 17.013C3.88978 17.018 3.90779 17.0217 3.92594 17.024H13.3485C13.3647 17.0219 13.3807 17.0186 13.3964 17.0142C13.5925 17.0619 13.7902 16.9416 13.838 16.7454C13.8381 16.7447 13.8383 16.744 13.8384 16.7433C14.0641 15.9805 14.6607 15.384 15.4234 15.1583C15.6084 15.1018 15.7233 14.9175 15.6927 14.7265C15.698 14.7074 15.7017 14.688 15.7041 14.6683V11.5275C15.7018 11.5078 15.6979 11.4884 15.6923 11.4694C15.7231 11.2783 15.6081 11.0939 15.423 11.0375C14.6603 10.8119 14.0638 10.2151 13.8388 9.45219C13.782 9.26595 13.5959 9.15072 13.4038 9.18287C13.3857 9.17781 13.3672 9.17413 13.3485 9.17188H3.92594C3.90617 9.17423 3.88659 9.17816 3.86745 9.18365C3.67649 9.15323 3.49226 9.26811 3.43558 9.45298C3.20978 10.2156 2.61327 10.8119 1.85063 11.0375C1.66567 11.0941 1.55073 11.2784 1.58131 11.4694C1.5762 11.4885 1.57252 11.5079 1.57031 11.5275V14.6683C1.57257 14.6868 1.57625 14.7051 1.58131 14.7229C1.54911 14.9152 1.66429 15.1015 1.85063 15.1587ZM2.35552 11.6869C3.14387 11.3703 3.76871 10.7454 4.08534 9.95709H13.1887C13.5055 10.7454 14.1304 11.3703 14.9189 11.6869V14.509C14.1308 14.8259 13.5061 15.4507 13.1891 16.2388H4.08534C3.76836 15.4507 3.14363 14.8259 2.35552 14.509V11.6869Z" fill="#CFF85E"/>
<path d="M8.63688 15.4574C9.93788 15.4574 10.9925 14.4027 10.9925 13.1017C10.9925 11.8007 9.93788 10.7461 8.63688 10.7461C7.33589 10.7461 6.28125 11.8007 6.28125 13.1017C6.28253 14.4022 7.33643 15.4561 8.63688 15.4574ZM8.63688 11.5313C9.5042 11.5313 10.2073 12.2344 10.2073 13.1017C10.2073 13.969 9.5042 14.6721 8.63688 14.6721C7.76957 14.6721 7.06646 13.969 7.06646 13.1017C7.06646 12.2344 7.76957 11.5313 8.63688 11.5313Z" fill="#CFF85E"/>
<path d="M4.32328 13.6895C4.64851 13.6895 4.91219 13.4259 4.91219 13.1006C4.91219 12.7754 4.64851 12.5117 4.32328 12.5117C3.99806 12.5117 3.73438 12.7754 3.73438 13.1006C3.73438 13.4259 3.99806 13.6895 4.32328 13.6895ZM4.32328 12.9043C4.43169 12.9043 4.51959 12.9922 4.51959 13.1006C4.51959 13.209 4.43169 13.2969 4.32328 13.2969C4.21487 13.2969 4.12698 13.209 4.12698 13.1006C4.12698 12.9922 4.21487 12.9043 4.32328 12.9043Z" fill="#CFF85E"/>
<path d="M12.9561 13.6895C13.2813 13.6895 13.545 13.4259 13.545 13.1006C13.545 12.7754 13.2813 12.5117 12.9561 12.5117C12.6309 12.5117 12.3672 12.7754 12.3672 13.1006C12.3672 13.4259 12.6309 13.6895 12.9561 13.6895ZM12.9561 12.9043C13.0645 12.9043 13.1524 12.9922 13.1524 13.1006C13.1524 13.209 13.0645 13.2969 12.9561 13.2969C12.8477 13.2969 12.7598 13.209 12.7598 13.1006C12.7598 12.9922 12.8477 12.9043 12.9561 12.9043Z" fill="#CFF85E"/>
</svg>
