<svg width="60" height="60" viewBox="0 0 60 60" fill="none" xmlns="http://www.w3.org/2000/svg">
<path fill-rule="evenodd" clip-rule="evenodd" d="M12.3125 48.7012L11.5053 49.1672C8.16593 51.0952 3.85828 49.937 1.93299 46.6022C0.00769317 43.2677 1.15852 38.9579 4.49793 37.0299C5.40393 36.5068 9.02781 34.4146 9.93393 33.8914C13.261 30.9058 15.6831 26.7398 17.8304 23.0113C17.8384 22.9954 17.8469 22.9797 17.8558 22.9642C18.0526 22.6219 18.2484 22.2835 18.4422 21.9502C18.6764 21.5455 18.9079 21.1483 19.1377 20.7605C19.1383 20.7594 19.139 20.7584 19.1396 20.7573L19.14 20.7565C19.6626 19.8767 20.5343 19.3839 21.552 19.3911C22.5697 19.3983 23.438 19.9026 23.9458 20.7821L27.3333 26.6495C29.3628 25.8992 31.6973 26.6964 32.8158 28.6334C33.9342 30.5706 33.4572 32.991 31.7926 34.3733L35.1802 40.2407C35.703 41.1461 35.6903 42.1845 35.1485 43.0758C34.6076 43.9657 33.7015 44.4551 32.6567 44.414H32.6562L32.6546 44.4139C32.2229 44.3972 31.7893 44.38 31.3544 44.3645C26.9391 44.2132 22.3649 44.2632 17.9392 45.6812L22.9029 54.2784C23.1628 54.7285 23.0085 55.3041 22.5583 55.564L21.5476 56.1477C19.5099 57.324 16.8849 56.6206 15.7084 54.5831L12.3125 48.7012ZM10.1438 35.9438L5.4391 38.66C2.99663 40.0701 2.1551 43.2222 3.5631 45.6611C4.97122 48.1 8.12181 48.9472 10.5642 47.5371L15.2689 44.8207L10.1438 35.9438ZM18.6676 25.3087C16.7224 28.6275 14.5158 32.1347 11.6799 34.8398L16.9779 44.0161C20.7856 42.731 24.7023 42.4195 28.5513 42.4279L18.6676 25.3087ZM33.55 41.1819L22.3156 21.7233C22.151 21.4381 21.8688 21.2757 21.5389 21.2733C21.2095 21.2711 20.9286 21.4322 20.7592 21.7165L20.7585 21.7177C20.433 22.272 20.0979 22.8458 19.7583 23.4332L30.7438 42.4607C31.0613 42.4705 31.3783 42.4815 31.6945 42.4933C32.0405 42.5055 32.3856 42.519 32.7296 42.5331H32.7304C33.0699 42.5465 33.3643 42.3872 33.54 42.098C33.7151 41.81 33.719 41.4745 33.55 41.1819ZM30.8272 32.7012C31.6018 31.874 31.7816 30.6068 31.1856 29.5746C30.5897 28.5424 29.4024 28.0645 28.2988 28.3217L30.8272 32.7012ZM13.9428 47.76L17.3386 53.6419C17.997 54.7821 19.466 55.1758 20.6064 54.5174L20.802 54.4045L16.21 46.451L13.9428 47.76ZM59.3522 15.7451C59.3522 17.3197 58.0682 18.6007 56.4936 18.6007H48.2326L44.7596 22.2161C44.4935 22.4932 44.0857 22.5806 43.7295 22.4372C43.3731 22.2938 43.1397 21.9482 43.1397 21.5641V18.6007H42.4592C40.8846 18.6007 39.6006 17.3197 39.6006 15.7451V6.14037C39.6006 4.56613 40.8851 3.28166 42.4592 3.28166H56.4936C58.0677 3.28166 59.3522 4.56613 59.3522 6.14037V15.7451ZM57.4698 15.7451V6.14037C57.4698 5.60272 57.0311 5.16401 56.4936 5.16401H42.4592C41.9217 5.16401 41.483 5.60272 41.483 6.14037V15.7451C41.483 16.2822 41.922 16.7184 42.4592 16.7184H44.0809C44.6006 16.7184 45.022 17.1398 45.022 17.6595V19.2258L47.1529 17.0075C47.3304 16.8228 47.5755 16.7184 47.8316 16.7184H56.4936C57.0308 16.7184 57.4698 16.2822 57.4698 15.7451ZM44.278 8.87425C43.7586 8.87425 43.3369 8.45248 43.3369 7.93307C43.3369 7.41366 43.7586 6.9919 44.278 6.9919H54.5064C55.0259 6.9919 55.4476 7.41366 55.4476 7.93307C55.4476 8.45248 55.0259 8.87425 54.5064 8.87425H44.278ZM44.278 11.9172C43.7586 11.9172 43.3369 11.4955 43.3369 10.976C43.3369 10.4566 43.7586 10.0348 44.278 10.0348H54.5064C55.0259 10.0348 55.4476 10.4566 55.4476 10.976C55.4476 11.4955 55.0259 11.9172 54.5064 11.9172H44.278ZM44.278 14.9573C43.7586 14.9573 43.3369 14.5355 43.3369 14.0161C43.3369 13.4967 43.7586 13.075 44.278 13.075H54.5064C55.0259 13.075 55.4476 13.4967 55.4476 14.0161C55.4476 14.5355 55.0259 14.9573 54.5064 14.9573H44.278ZM50.4759 23.7661C55.3749 23.7661 59.3522 27.7434 59.3522 32.6424C59.3522 37.5413 55.3749 41.5186 50.4759 41.5186C45.577 41.5186 41.5997 37.5413 41.5997 32.6424C41.5997 27.7434 45.577 23.7661 50.4759 23.7661ZM50.4759 25.6485C46.6158 25.6485 43.482 28.7824 43.482 32.6424C43.482 36.5025 46.6158 39.6362 50.4759 39.6362C54.3359 39.6362 57.4698 36.5025 57.4698 32.6424C57.4698 28.7824 54.3359 25.6485 50.4759 25.6485ZM54.5628 33.4574L48.8372 36.7631C48.546 36.9312 48.1872 36.9312 47.896 36.7631C47.6049 36.595 47.4255 36.2843 47.4255 35.948V29.3367C47.4255 29.0005 47.6049 28.6898 47.896 28.5217C48.1872 28.3535 48.546 28.3535 48.8372 28.5217L54.5628 31.8273C54.8539 31.9954 55.0333 32.3061 55.0333 32.6424C55.0333 32.9786 54.8539 33.2893 54.5628 33.4574ZM52.2098 32.6424L49.3078 30.967V34.3179L52.2098 32.6424ZM26.2659 19.591C24.3982 18.4926 21.5932 16.5373 19.6279 14.2482C18.2098 12.5964 17.2398 10.7622 17.2066 8.94943C17.1577 6.23578 18.6878 4.28237 20.7742 3.57166C22.5845 2.95496 24.8684 3.27296 26.9195 4.98496C28.9705 3.27496 31.2546 2.95684 33.0657 3.57296C35.1533 4.28307 36.6844 6.23554 36.6353 8.94931C36.6023 10.7621 35.6322 12.5964 34.214 14.2482C32.2489 16.5373 29.4438 18.4926 27.5768 19.5906C27.1625 19.8374 26.6803 19.8375 26.2659 19.591ZM26.921 17.7899C28.6442 16.7465 31.0652 15.0262 32.7859 13.022C33.8944 11.7308 34.7275 10.3321 34.7533 8.91519C34.7855 7.13425 33.8295 5.82107 32.4595 5.35496C31.0129 4.86296 29.1802 5.30801 27.5902 6.92437C27.4131 7.10425 27.1713 7.20554 26.919 7.20543C26.6666 7.20543 26.4249 7.10401 26.2479 6.92401C24.6582 5.30637 22.8266 4.86107 21.3811 5.35343C20.0117 5.8199 19.0566 7.13413 19.0888 8.91519C19.1146 10.3321 19.9477 11.7308 21.0562 13.022C22.7768 15.0262 25.1979 16.7465 26.921 17.7899ZM31.835 23.1631C31.7005 23.6648 31.1839 23.9631 30.6823 23.8286C30.1805 23.6941 29.8823 23.1777 30.0168 22.6759L30.9151 19.3232C31.0496 18.8214 31.566 18.5232 32.0678 18.6577C32.5696 18.7921 32.8677 19.3086 32.7333 19.8104L31.835 23.1631ZM36.5659 34.0688C36.0643 33.9339 35.7666 33.4171 35.9016 32.9154C36.0365 32.4139 36.5533 32.1161 37.0549 32.2511L40.41 33.1537C40.9117 33.2886 41.2093 33.8053 41.0744 34.307C40.9395 34.8086 40.4228 35.1063 39.9211 34.9713L36.5659 34.0688ZM36.4575 27.6399C36.0076 27.8995 35.4316 27.7452 35.1718 27.2954C34.912 26.8455 35.0664 26.2694 35.5163 26.0097L38.5278 24.271C38.9777 24.0113 39.5538 24.1657 39.8135 24.6154C40.0732 25.0653 39.9189 25.6414 39.469 25.9012L36.4575 27.6399Z" fill="white"/>
</svg>
