<svg width="57" height="58" viewBox="0 0 57 58" fill="none" xmlns="http://www.w3.org/2000/svg">
<path d="M31.74 0C32.1931 0 32.5755 0.336834 32.6327 0.786324L33.3935 6.76449C35.814 7.35592 38.1413 8.31022 40.2187 9.63432L44.9897 5.94784L45.024 5.92255C45.3833 5.67085 45.8752 5.71463 46.1843 6.03172L50.8644 10.8317C51.1782 11.1536 51.2063 11.6577 50.9303 12.0125L47.1265 16.9029C48.4503 18.9817 49.4023 21.3243 49.9068 23.8518L55.7357 24.6074C56.1843 24.6656 56.52 25.0476 56.52 25.5V32.34C56.52 32.7923 56.1843 33.1743 55.7357 33.2325L49.8814 33.9914C49.2864 36.5154 48.3314 38.7716 47.1038 40.9108L50.8121 45.7096C51.0863 46.0645 51.0574 46.5672 50.7444 46.8883L46.0644 51.6883C45.7419 52.0191 45.2213 52.0519 44.8597 51.7643L40.0906 47.9707C38.0153 49.2921 35.6909 50.2447 33.2736 50.8353L32.5128 56.8136C32.4556 57.2631 32.073 57.5999 31.6199 57.5999H24.8999C24.4468 57.5999 24.0644 57.2631 24.0072 56.8136L23.2463 50.8353C20.8258 50.2439 18.4985 49.2896 16.4211 47.9655L11.6503 51.6521C11.2886 51.9316 10.7747 51.8955 10.4556 51.5682L5.7756 46.7682C5.46253 46.4471 5.43364 45.9446 5.70786 45.5897L9.39434 40.8187C8.07006 38.7395 7.1177 36.3962 6.61308 33.868L0.784264 33.1124C0.335691 33.0543 0 32.6723 0 32.2199V25.38C0 24.9277 0.335688 24.5455 0.784264 24.4874L6.6386 23.7284C7.23412 21.2044 8.19728 18.942 9.5224 16.7916L5.82779 12.0102C5.5536 11.6554 5.5825 11.1528 5.89554 10.8317L10.5756 6.03172L10.606 6.00185C10.9267 5.70241 11.4198 5.67705 11.7702 5.94784L16.5406 9.63387C18.6042 8.30995 20.8563 7.35166 23.3669 6.759L24.1271 0.786324L24.1334 0.744553C24.2083 0.316117 24.581 0 25.02 0H31.74ZM25.0727 7.61364C25.0242 7.99453 24.7395 8.30276 24.3636 8.38108C21.5973 8.95738 19.1881 9.99129 17.0082 11.4828C16.6861 11.7032 16.2585 11.6908 15.9496 11.4521L11.3044 7.86255L7.73014 11.5283L11.3322 16.1896C11.566 16.4923 11.583 16.9098 11.3745 17.2305C9.87161 19.5426 8.8369 21.9593 8.26103 24.7235C8.18287 25.0986 7.8757 25.3833 7.49565 25.4325L1.79993 26.1708V31.429L7.49565 32.1674C7.88892 32.2184 8.20245 32.5208 8.26767 32.9119C8.72616 35.6629 9.75683 38.18 11.2428 40.3518C11.4632 40.6739 11.4508 41.1014 11.2121 41.4102L7.61009 46.0715L11.1843 49.7373L15.8297 46.1478L15.859 46.1261C16.1652 45.9086 16.5761 45.9037 16.8882 46.1172C18.9939 47.558 21.4338 48.577 24.0022 49.165L24.2512 49.2205L24.2857 49.2287C24.6409 49.3206 24.9062 49.62 24.9528 49.9863L25.6928 55.8H30.8272L31.5672 49.9863C31.6153 49.6082 31.8964 49.3014 32.2688 49.2205C34.9283 48.6423 37.4581 47.6044 39.6318 46.1172L39.6626 46.097C39.9847 45.8954 40.4007 45.9174 40.7002 46.1556L45.3434 49.8491L48.9096 46.1914L45.3078 41.5303C45.0812 41.237 45.0575 40.8347 45.2482 40.5169C46.6452 38.1885 47.6827 35.7622 48.2589 32.9964L48.2668 32.9615C48.3563 32.6037 48.6561 32.3352 49.0243 32.2874L54.7199 31.5491V26.2907L49.0243 25.5525C48.631 25.5015 48.3174 25.1991 48.2522 24.8079C47.7937 22.057 46.7631 19.5399 45.2772 17.3681C45.0562 17.0451 45.0693 16.6163 45.3096 16.3074L49.0279 11.5265L45.4555 7.86255L40.8103 11.4521C40.5015 11.6908 40.0739 11.7032 39.7517 11.4828C37.578 9.99549 35.0482 8.95763 32.3887 8.37948C32.0163 8.29851 31.7353 7.99169 31.6872 7.61364L30.9472 1.79993H25.8127L25.0727 7.61364Z" fill="white"/>
<path d="M32.517 19.5002C32.5169 17.1039 30.6266 15.1202 28.137 15.1202C25.7406 15.1203 23.757 17.0106 23.757 19.5002C23.757 20.4089 24.066 21.3879 24.6203 22.0345C24.9438 22.4119 24.9001 22.9801 24.5227 23.3036C24.1453 23.627 23.5771 23.5833 23.2536 23.2059C22.3679 22.1726 21.957 20.7516 21.957 19.5002C21.9571 15.9899 24.7733 13.3203 28.137 13.3203C31.6473 13.3203 34.317 16.1366 34.317 19.5002C34.317 20.8833 33.8995 22.1803 33.0204 23.2059C32.6969 23.5833 32.1286 23.627 31.7512 23.3036C31.3739 22.9801 31.3302 22.4119 31.6536 22.0345C32.2144 21.3802 32.517 20.5171 32.517 19.5002Z" fill="white"/>
<path d="M30.2383 26.7007C30.2383 26.2037 30.6412 25.8008 31.1382 25.8008C31.6353 25.8008 32.0382 26.2037 32.0382 26.7007C32.0382 28.7915 32.2703 30.7623 32.7344 32.7346C33.1905 34.6732 33.994 36.5199 34.9432 38.4182C35.1655 38.8628 34.9853 39.4034 34.5407 39.6257C34.0961 39.848 33.5555 39.6678 33.3332 39.2232C32.3624 37.2816 31.486 35.2883 30.9821 33.1469C30.4862 31.0392 30.2383 28.93 30.2383 26.7007Z" fill="white"/>
<path d="M24.4757 26.7007C24.4757 26.2037 24.8786 25.8008 25.3757 25.8008C25.8727 25.8008 26.2756 26.2037 26.2756 26.7007C26.2756 31.0534 25.1569 35.4021 23.0448 39.2535C22.8058 39.6893 22.2588 39.8489 21.8229 39.6099C21.3871 39.3709 21.2275 38.8238 21.4665 38.388C23.4344 34.7995 24.4757 30.7481 24.4757 26.7007Z" fill="white"/>
<path d="M35.2775 40.3818C35.2775 40.0389 34.9604 39.7218 34.6175 39.7218H21.8975C21.5546 39.7218 21.2375 40.0389 21.2374 40.3818V42.7219H35.2775V40.3818ZM37.0774 43.6218C37.0774 44.1189 36.6745 44.5218 36.1775 44.5218H20.3375C19.8404 44.5218 19.4375 44.1189 19.4375 43.6218V40.3818C19.4375 39.0447 20.5605 37.9219 21.8975 37.9219H34.6175C35.9545 37.9219 37.0774 39.0448 37.0774 40.3818V43.6218Z" fill="white"/>
<path d="M34.0767 24.6587C34.0767 24.0408 33.6054 23.5187 32.9367 23.5187H23.6966C22.9311 23.5187 22.5012 24.1089 22.5512 24.5593C22.5549 24.5923 22.5567 24.6255 22.5567 24.6587C22.5567 25.2766 23.028 25.7987 23.6966 25.7987H32.9367C33.5546 25.7987 34.0766 25.3274 34.0767 24.6587ZM35.8767 24.6587C35.8767 26.39 34.4788 27.5987 32.9367 27.5987H23.6966C21.9835 27.5987 20.7824 26.23 20.7573 24.7073C20.6021 23.0222 22.0784 21.7188 23.6966 21.7188H32.9367C34.668 21.7188 35.8767 23.1167 35.8767 24.6587Z" fill="white"/>
<path d="M14.3984 28.8587C14.3984 25.0103 15.9403 21.5441 18.5021 18.9823C18.8535 18.6309 19.4233 18.6309 19.7748 18.9823C20.1262 19.3338 20.1262 19.9037 19.7748 20.2551C17.5366 22.4933 16.1984 25.5071 16.1984 28.8587C16.1984 31.7658 17.203 34.4407 18.9868 36.559C19.307 36.9392 19.2583 37.507 18.8781 37.8272C18.4979 38.1473 17.9302 38.0987 17.61 37.7185C15.5538 35.2768 14.3984 32.1915 14.3984 28.8587Z" fill="white"/>
<path d="M40.3205 28.8587C40.3205 25.5071 38.9823 22.4934 36.7441 20.2552C36.3926 19.9037 36.3926 19.3338 36.7441 18.9824C37.0955 18.6309 37.6654 18.6309 38.0169 18.9824C40.5787 21.5441 42.1205 25.0103 42.1205 28.8587C42.1205 32.1916 40.9651 35.2768 38.909 37.7185C38.5888 38.0987 38.0209 38.1474 37.6407 37.8272C37.2605 37.5071 37.2119 36.9392 37.5321 36.559C39.3159 34.4407 40.3205 31.7659 40.3205 28.8587Z" fill="white"/>
</svg>
