<svg width="50" height="50" viewBox="0 0 50 50" fill="none" xmlns="http://www.w3.org/2000/svg">
<rect width="50" height="50" rx="5" fill="url(#paint0_linear_701_173)"/>
<path d="M30.629 19.883V23.198H18.253V29.913H29.66V33.109H18.253V42H14.734V19.883H30.629ZM32.3545 33.551C32.3545 31.7263 32.6945 30.1397 33.3745 28.791C34.0658 27.4423 35.0348 26.3997 36.2815 25.663C37.5395 24.915 39.0072 24.541 40.6845 24.541C42.2712 24.541 43.6765 24.915 44.9005 25.663C46.1358 26.3997 47.1048 27.431 47.8075 28.757C48.5102 30.083 48.8615 31.63 48.8615 33.398V34.435H35.8905C36.1852 37.8237 37.8455 39.518 40.8715 39.518C42.0502 39.518 42.9965 39.2573 43.7105 38.736C44.4245 38.2033 44.8778 37.495 45.0705 36.611H48.6405C48.2892 38.4357 47.4618 39.858 46.1585 40.878C44.8552 41.8867 43.1042 42.391 40.9055 42.391C38.2648 42.391 36.1795 41.6033 34.6495 40.028C33.1195 38.4413 32.3545 36.2823 32.3545 33.551ZM40.5825 27.431C37.8738 27.431 36.3268 28.927 35.9415 31.919H45.1045C44.9912 30.5477 44.5208 29.4597 43.6935 28.655C42.8775 27.839 41.8405 27.431 40.5825 27.431Z" fill="black"/>
<defs>
<linearGradient id="paint0_linear_701_173" x1="0" y1="0" x2="50" y2="50" gradientUnits="userSpaceOnUse">
<stop offset="0.485883" stop-color="#CFF85E"/>
<stop offset="1" stop-color="white"/>
</linearGradient>
</defs>
</svg>
