<svg width="50" height="50" viewBox="0 0 50 50" fill="none" xmlns="http://www.w3.org/2000/svg">
<path d="M13.5412 6.25C20.1958 6.25 24.9995 11.7438 24.9993 19.8784C24.9567 31.6974 16.0718 40.0538 3.25391 41.6586C2.06472 41.8075 1.60618 40.1601 2.70128 39.6732C7.61959 37.4862 10.1036 34.7111 10.4244 31.9642C10.6641 29.912 9.54853 28.1143 8.14769 27.7777C4.51606 26.905 2.08284 22.3825 2.08284 17.7083C2.08284 11.3801 7.21291 6.25 13.5412 6.25Z" fill="#CFF85E"/>
<path d="M38.5412 6.25C45.1958 6.25 49.9995 11.7438 49.9993 19.8784C49.9567 31.6974 41.0718 40.0538 28.2539 41.6586C27.0647 41.8075 26.6062 40.1601 27.7013 39.6732C32.6196 37.4862 35.1036 34.7111 35.4244 31.9642C35.6641 29.912 34.5485 28.1143 33.1477 27.7777C29.5161 26.905 27.0828 22.3825 27.0828 17.7083C27.0828 11.3801 32.2129 6.25 38.5412 6.25Z" fill="#CFF85E"/>
</svg>
